M48
;DRILL file {KiCad 5.0.1} date Tue 04 Dec 2018 10:41:12 PM EST
;FORMAT={-:-/ absolute / inch / decimal}
FMAT,2
INCH,TZ
T1C0.0130
T2C0.0394
T3C0.0472
T4C0.2087
%
G90
G05
M72
T1
X1.9626Y-2.6811
X1.9626Y-3.2717
X1.9626Y-3.2717
X1.9626Y-3.8622
X1.9626Y-4.4528
X1.9882Y-2.7106
X1.9882Y-3.3012
X1.9882Y-3.3012
X1.9882Y-3.8917
X1.9882Y-4.4823
X2.0138Y-2.6831
X2.0138Y-3.2736
X2.0138Y-3.2736
X2.0138Y-3.8642
X2.0138Y-4.4547
X2.4931Y-2.3781
X2.4931Y-2.9687
X2.4931Y-3.5593
X2.4931Y-4.1498
X2.533Y-3.8671
X2.5611Y-3.8844
X2.5866Y-4.2972
X2.5902Y-2.6157
X2.595Y-3.663
X2.5976Y-3.8557
X2.6161Y-4.2657
X2.6181Y-3.0724
X2.6274Y-3.2874
X2.628Y-3.663
X2.6319Y-3.8484
X2.6438Y-4.3031
X2.6442Y-2.6157
X2.6507Y-3.264
X2.6614Y-3.663
X2.6693Y-3.0724
X2.6713Y-4.2657
X2.673Y-3.8686
X2.6848Y-3.2299
X2.6955Y-3.663
X2.6958Y-4.3031
X2.7069Y-3.8667
X2.7147Y-3.2158
X2.7343Y-4.2638
X3.3787Y-4.0496
X3.3815Y-4.3147
X3.393Y-3.6697
X3.4011Y-3.4965
X3.4049Y-4.2913
X3.4146Y-4.0496
X3.4252Y-1.9488
X3.4252Y-2.0276
X3.4252Y-2.1063
X3.4252Y-2.185
X3.4327Y-3.6697
X3.4341Y-3.4965
X3.4342Y-2.8815
X3.4469Y-4.2642
X3.4477Y-4.0496
X3.4646Y-1.9882
X3.4646Y-2.0669
X3.4646Y-2.1457
X3.4646Y-2.2244
X3.4812Y-3.1284
X3.4845Y-4.0496
X3.4853Y-4.2642
X3.4854Y-3.6697
X3.4912Y-3.4965
X3.5039Y-1.9488
X3.5039Y-2.0276
X3.5039Y-2.1063
X3.5039Y-2.185
X3.5052Y-2.8815
X3.5175Y-4.0496
X3.5241Y-4.2642
X3.5242Y-3.4965
X3.5277Y-3.6697
X3.5341Y-3.0755
X3.5415Y-3.7217
X3.5433Y-1.9882
X3.5433Y-2.0669
X3.5433Y-2.1457
X3.5433Y-2.2244
X3.5575Y-4.2641
X3.5605Y-3.6736
X3.561Y-4.0496
X3.5669Y-3.061
X3.5757Y-3.1092
X3.5827Y-1.9488
X3.5827Y-2.0276
X3.5827Y-2.1063
X3.5827Y-2.185
X3.5945Y-2.4094
X3.596Y-4.2341
X3.5965Y-2.4547
X3.6297Y-4.2004
X3.7057Y-2.6219
X3.7057Y-3.2124
X3.7057Y-3.803
X3.7057Y-4.3882
X3.7057Y-4.3882
X4.185Y-2.3169
X4.185Y-2.9075
X4.185Y-3.498
X4.185Y-4.0886
X4.2106Y-2.2894
X4.2106Y-2.8799
X4.2106Y-3.4705
X4.2106Y-4.061
X4.2362Y-2.3189
X4.2362Y-2.9094
X4.2362Y-3.5
X4.2362Y-4.0906
T2
X3.1083Y-3.4173
X3.3051Y-3.4173
X2.1988Y-4.8287
X2.2988Y-4.8287
X2.3988Y-4.8287
X2.4988Y-4.8287
X2.5988Y-4.8287
X3.7579Y-4.6772
X3.8579Y-4.6772
X3.9579Y-4.6772
X4.0579Y-4.6772
X4.1579Y-4.6772
X3.7579Y-4.8287
X3.8579Y-4.8287
X3.9579Y-4.8287
X4.0579Y-4.8287
X4.1579Y-4.8287
X2.7657Y-3.8681
X2.9626Y-3.8681
X2.2008Y-4.6772
X2.3008Y-4.6772
X2.4008Y-4.6772
X2.5008Y-4.6772
X2.6008Y-4.6772
T3
X2.9331Y-2.8366
X3.2283Y-2.8366
X2.9154Y-4.4488
X3.2106Y-4.4488
T4
X4.563Y-2.1654
X4.5669Y-4.7244
X1.6535Y-2.185
X1.6535Y-4.7244
T0
M30
