G04 #@! TF.GenerationSoftware,KiCad,Pcbnew,5.0.1*
G04 #@! TF.CreationDate,2018-12-04T22:41:10-05:00*
G04 #@! TF.ProjectId,peripherals,7065726970686572616C732E6B696361,rev?*
G04 #@! TF.SameCoordinates,Original*
G04 #@! TF.FileFunction,Legend,Bot*
G04 #@! TF.FilePolarity,Positive*
%FSLAX46Y46*%
G04 Gerber Fmt 4.6, Leading zero omitted, Abs format (unit mm)*
G04 Created by KiCad (PCBNEW 5.0.1) date Tue 04 Dec 2018 10:41:10 PM EST*
%MOMM*%
%LPD*%
G01*
G04 APERTURE LIST*
%ADD10C,0.150000*%
G04 APERTURE END LIST*
D10*
G04 #@! TO.C,J105*
X34850000Y-95000000D02*
X43850000Y-95000000D01*
X43850000Y-95000000D02*
X43850000Y-91250000D01*
X34850000Y-91250000D02*
X34850000Y-95000000D01*
G04 #@! TO.C,J106*
X113250000Y-90900000D02*
X113250000Y-94650000D01*
X122250000Y-94650000D02*
X122250000Y-90900000D01*
X113250000Y-94650000D02*
X122250000Y-94650000D01*
G04 #@! TO.C,J105*
X40945714Y-86762380D02*
X40945714Y-87476666D01*
X40993333Y-87619523D01*
X41088571Y-87714761D01*
X41231428Y-87762380D01*
X41326666Y-87762380D01*
X39945714Y-87762380D02*
X40517142Y-87762380D01*
X40231428Y-87762380D02*
X40231428Y-86762380D01*
X40326666Y-86905238D01*
X40421904Y-87000476D01*
X40517142Y-87048095D01*
X39326666Y-86762380D02*
X39231428Y-86762380D01*
X39136190Y-86810000D01*
X39088571Y-86857619D01*
X39040952Y-86952857D01*
X38993333Y-87143333D01*
X38993333Y-87381428D01*
X39040952Y-87571904D01*
X39088571Y-87667142D01*
X39136190Y-87714761D01*
X39231428Y-87762380D01*
X39326666Y-87762380D01*
X39421904Y-87714761D01*
X39469523Y-87667142D01*
X39517142Y-87571904D01*
X39564761Y-87381428D01*
X39564761Y-87143333D01*
X39517142Y-86952857D01*
X39469523Y-86857619D01*
X39421904Y-86810000D01*
X39326666Y-86762380D01*
X38088571Y-86762380D02*
X38564761Y-86762380D01*
X38612380Y-87238571D01*
X38564761Y-87190952D01*
X38469523Y-87143333D01*
X38231428Y-87143333D01*
X38136190Y-87190952D01*
X38088571Y-87238571D01*
X38040952Y-87333809D01*
X38040952Y-87571904D01*
X38088571Y-87667142D01*
X38136190Y-87714761D01*
X38231428Y-87762380D01*
X38469523Y-87762380D01*
X38564761Y-87714761D01*
X38612380Y-87667142D01*
G04 #@! TO.C,J106*
X119345714Y-86412380D02*
X119345714Y-87126666D01*
X119393333Y-87269523D01*
X119488571Y-87364761D01*
X119631428Y-87412380D01*
X119726666Y-87412380D01*
X118345714Y-87412380D02*
X118917142Y-87412380D01*
X118631428Y-87412380D02*
X118631428Y-86412380D01*
X118726666Y-86555238D01*
X118821904Y-86650476D01*
X118917142Y-86698095D01*
X117726666Y-86412380D02*
X117631428Y-86412380D01*
X117536190Y-86460000D01*
X117488571Y-86507619D01*
X117440952Y-86602857D01*
X117393333Y-86793333D01*
X117393333Y-87031428D01*
X117440952Y-87221904D01*
X117488571Y-87317142D01*
X117536190Y-87364761D01*
X117631428Y-87412380D01*
X117726666Y-87412380D01*
X117821904Y-87364761D01*
X117869523Y-87317142D01*
X117917142Y-87221904D01*
X117964761Y-87031428D01*
X117964761Y-86793333D01*
X117917142Y-86602857D01*
X117869523Y-86507619D01*
X117821904Y-86460000D01*
X117726666Y-86412380D01*
X116536190Y-86412380D02*
X116726666Y-86412380D01*
X116821904Y-86460000D01*
X116869523Y-86507619D01*
X116964761Y-86650476D01*
X117012380Y-86840952D01*
X117012380Y-87221904D01*
X116964761Y-87317142D01*
X116917142Y-87364761D01*
X116821904Y-87412380D01*
X116631428Y-87412380D01*
X116536190Y-87364761D01*
X116488571Y-87317142D01*
X116440952Y-87221904D01*
X116440952Y-86983809D01*
X116488571Y-86888571D01*
X116536190Y-86840952D01*
X116631428Y-86793333D01*
X116821904Y-86793333D01*
X116917142Y-86840952D01*
X116964761Y-86888571D01*
X117012380Y-86983809D01*
G04 #@! TD*
M02*
