%FSLAX45Y45*%
G04 Gerber Fmt 4.5, Leading zero omitted, Abs format (unit mm)*
G04 Created by KiCad (PCBNEW 5.0.1) date Tue 04 Dec 2018 10:41:13 PM EST*
%MOMM*%
%LPD*%
G01*
G04 APERTURE LIST*
%ADD10C,0.152400*%
%ADD11C,0.200000*%
%ADD12C,0.300000*%
G04 APERTURE END LIST*
D10*
X3650000Y-12800000D02*
G75*
G02X3400000Y-12550000I0J250000D01*
G01*
X12400000Y-12550000D02*
G75*
G02X12150000Y-12800000I-250000J0D01*
G01*
X12150000Y-4750000D02*
G75*
G02X12400000Y-5000000I0J-250000D01*
G01*
X3400000Y-5000000D02*
G75*
G02X3650000Y-4750000I250000J0D01*
G01*
X3400000Y-12550000D02*
X3400000Y-5000000D01*
X12150000Y-12800000D02*
X3650000Y-12800000D01*
X12400000Y-5000000D02*
X12400000Y-12550000D01*
X3650000Y-4750000D02*
X12150000Y-4750000D01*
D11*
X4968490Y-6793490D02*
X5001510Y-6826510D01*
X5001510Y-6793490D02*
X4968490Y-6826510D01*
X4968490Y-8293490D02*
X5001510Y-8326510D01*
X5001510Y-8293490D02*
X4968490Y-8326510D01*
X4968490Y-8293490D02*
X5001510Y-8326510D01*
X5001510Y-8293490D02*
X4968490Y-8326510D01*
X4968490Y-9793490D02*
X5001510Y-9826510D01*
X5001510Y-9793490D02*
X4968490Y-9826510D01*
X4968490Y-11293490D02*
X5001510Y-11326510D01*
X5001510Y-11293490D02*
X4968490Y-11326510D01*
X5033490Y-6868490D02*
X5066510Y-6901510D01*
X5066510Y-6868490D02*
X5033490Y-6901510D01*
X5033490Y-8368490D02*
X5066510Y-8401510D01*
X5066510Y-8368490D02*
X5033490Y-8401510D01*
X5033490Y-8368490D02*
X5066510Y-8401510D01*
X5066510Y-8368490D02*
X5033490Y-8401510D01*
X5033490Y-9868490D02*
X5066510Y-9901510D01*
X5066510Y-9868490D02*
X5033490Y-9901510D01*
X5033490Y-11368490D02*
X5066510Y-11401510D01*
X5066510Y-11368490D02*
X5033490Y-11401510D01*
X5098490Y-6798490D02*
X5131510Y-6831510D01*
X5131510Y-6798490D02*
X5098490Y-6831510D01*
X5098490Y-8298490D02*
X5131510Y-8331510D01*
X5131510Y-8298490D02*
X5098490Y-8331510D01*
X5098490Y-8298490D02*
X5131510Y-8331510D01*
X5131510Y-8298490D02*
X5098490Y-8331510D01*
X5098490Y-9798490D02*
X5131510Y-9831510D01*
X5131510Y-9798490D02*
X5098490Y-9831510D01*
X5098490Y-11298490D02*
X5131510Y-11331510D01*
X5131510Y-11298490D02*
X5098490Y-11331510D01*
X6315990Y-6023990D02*
X6349010Y-6057010D01*
X6349010Y-6023990D02*
X6315990Y-6057010D01*
X6315990Y-7523990D02*
X6349010Y-7557010D01*
X6349010Y-7523990D02*
X6315990Y-7557010D01*
X6315990Y-9023990D02*
X6349010Y-9057010D01*
X6349010Y-9023990D02*
X6315990Y-9057010D01*
X6315990Y-10523990D02*
X6349010Y-10557010D01*
X6349010Y-10523990D02*
X6315990Y-10557010D01*
X6417320Y-9805995D02*
X6450340Y-9839015D01*
X6450340Y-9805995D02*
X6417320Y-9839015D01*
X6488785Y-9849799D02*
X6521805Y-9882819D01*
X6521805Y-9849799D02*
X6488785Y-9882819D01*
X6553490Y-10898490D02*
X6586510Y-10931510D01*
X6586510Y-10898490D02*
X6553490Y-10931510D01*
X6562490Y-6627449D02*
X6595510Y-6660469D01*
X6595510Y-6627449D02*
X6562490Y-6660469D01*
X6574669Y-9287449D02*
X6607689Y-9320469D01*
X6607689Y-9287449D02*
X6574669Y-9320469D01*
X6581310Y-9776983D02*
X6614330Y-9810003D01*
X6614330Y-9776983D02*
X6581310Y-9810003D01*
X6628490Y-10818490D02*
X6661510Y-10851510D01*
X6661510Y-10818490D02*
X6628490Y-10851510D01*
X6633490Y-7787449D02*
X6666510Y-7820469D01*
X6666510Y-7787449D02*
X6633490Y-7820469D01*
X6657002Y-8333374D02*
X6690022Y-8366394D01*
X6690022Y-8333374D02*
X6657002Y-8366394D01*
X6658490Y-9287449D02*
X6691510Y-9320469D01*
X6691510Y-9287449D02*
X6658490Y-9320469D01*
X6668490Y-9758490D02*
X6701510Y-9791510D01*
X6701510Y-9758490D02*
X6668490Y-9791510D01*
X6698629Y-10913490D02*
X6731649Y-10946510D01*
X6731649Y-10913490D02*
X6698629Y-10946510D01*
X6699765Y-6627449D02*
X6732785Y-6660469D01*
X6732785Y-6627449D02*
X6699765Y-6660469D01*
X6716273Y-8274103D02*
X6749293Y-8307123D01*
X6749293Y-8274103D02*
X6716273Y-8307123D01*
X6743490Y-9287449D02*
X6776510Y-9320469D01*
X6776510Y-9287449D02*
X6743490Y-9320469D01*
X6763490Y-7787449D02*
X6796510Y-7820469D01*
X6796510Y-7787449D02*
X6763490Y-7820469D01*
X6768490Y-10818490D02*
X6801510Y-10851510D01*
X6801510Y-10818490D02*
X6768490Y-10851510D01*
X6773018Y-9809622D02*
X6806038Y-9842642D01*
X6806038Y-9809622D02*
X6773018Y-9842642D01*
X6802902Y-8187474D02*
X6835922Y-8220494D01*
X6835922Y-8187474D02*
X6802902Y-8220494D01*
X6830163Y-9287449D02*
X6863183Y-9320469D01*
X6863183Y-9287449D02*
X6830163Y-9320469D01*
X6830710Y-10913490D02*
X6863730Y-10946510D01*
X6863730Y-10913490D02*
X6830710Y-10946510D01*
X6858960Y-9804875D02*
X6891980Y-9837895D01*
X6891980Y-9804875D02*
X6858960Y-9837895D01*
X6878728Y-8151748D02*
X6911748Y-8184768D01*
X6911748Y-8151748D02*
X6878728Y-8184768D01*
X6928490Y-10813490D02*
X6961510Y-10846510D01*
X6961510Y-10813490D02*
X6928490Y-10846510D01*
X8565271Y-10269531D02*
X8598291Y-10302551D01*
X8598291Y-10269531D02*
X8565271Y-10302551D01*
X8572617Y-10942759D02*
X8605637Y-10975779D01*
X8605637Y-10942759D02*
X8572617Y-10975779D01*
X8601661Y-9304531D02*
X8634681Y-9337551D01*
X8634681Y-9304531D02*
X8601661Y-9337551D01*
X8622408Y-8864531D02*
X8655428Y-8897551D01*
X8655428Y-8864531D02*
X8622408Y-8897551D01*
X8631888Y-10883488D02*
X8664908Y-10916508D01*
X8664908Y-10883488D02*
X8631888Y-10916508D01*
X8656638Y-10269531D02*
X8689658Y-10302551D01*
X8689658Y-10269531D02*
X8656638Y-10302551D01*
X8683490Y-4933490D02*
X8716510Y-4966510D01*
X8716510Y-4933490D02*
X8683490Y-4966510D01*
X8683490Y-5133490D02*
X8716510Y-5166510D01*
X8716510Y-5133490D02*
X8683490Y-5166510D01*
X8683490Y-5333490D02*
X8716510Y-5366510D01*
X8716510Y-5333490D02*
X8683490Y-5366510D01*
X8683490Y-5533490D02*
X8716510Y-5566510D01*
X8716510Y-5533490D02*
X8683490Y-5566510D01*
X8702635Y-9304531D02*
X8735655Y-9337551D01*
X8735655Y-9304531D02*
X8702635Y-9337551D01*
X8706229Y-8864531D02*
X8739249Y-8897551D01*
X8739249Y-8864531D02*
X8706229Y-8897551D01*
X8706241Y-7302449D02*
X8739261Y-7335469D01*
X8739261Y-7302449D02*
X8706241Y-7335469D01*
X8738490Y-10814531D02*
X8771510Y-10847551D01*
X8771510Y-10814531D02*
X8738490Y-10847551D01*
X8740639Y-10269531D02*
X8773659Y-10302551D01*
X8773659Y-10269531D02*
X8740639Y-10302551D01*
X8783490Y-5033490D02*
X8816510Y-5066510D01*
X8816510Y-5033490D02*
X8783490Y-5066510D01*
X8783490Y-5233490D02*
X8816510Y-5266510D01*
X8816510Y-5233490D02*
X8783490Y-5266510D01*
X8783490Y-5433490D02*
X8816510Y-5466510D01*
X8816510Y-5433490D02*
X8783490Y-5466510D01*
X8783490Y-5633490D02*
X8816510Y-5666510D01*
X8816510Y-5633490D02*
X8783490Y-5666510D01*
X8825649Y-7929727D02*
X8858669Y-7962747D01*
X8858669Y-7929727D02*
X8825649Y-7962747D01*
X8834024Y-10269531D02*
X8867044Y-10302551D01*
X8867044Y-10269531D02*
X8834024Y-10302551D01*
X8836063Y-10814531D02*
X8869083Y-10847551D01*
X8869083Y-10814531D02*
X8836063Y-10847551D01*
X8836448Y-9304531D02*
X8869468Y-9337551D01*
X8869468Y-9304531D02*
X8836448Y-9337551D01*
X8851187Y-8864531D02*
X8884207Y-8897551D01*
X8884207Y-8864531D02*
X8851187Y-8897551D01*
X8883490Y-4933490D02*
X8916510Y-4966510D01*
X8916510Y-4933490D02*
X8883490Y-4966510D01*
X8883490Y-5133490D02*
X8916510Y-5166510D01*
X8916510Y-5133490D02*
X8883490Y-5166510D01*
X8883490Y-5333490D02*
X8916510Y-5366510D01*
X8916510Y-5333490D02*
X8883490Y-5366510D01*
X8883490Y-5533490D02*
X8916510Y-5566510D01*
X8916510Y-5533490D02*
X8883490Y-5566510D01*
X8886600Y-7302449D02*
X8919620Y-7335469D01*
X8919620Y-7302449D02*
X8886600Y-7335469D01*
X8917845Y-10269531D02*
X8950865Y-10302551D01*
X8950865Y-10269531D02*
X8917845Y-10302551D01*
X8934741Y-10814531D02*
X8967761Y-10847551D01*
X8967761Y-10814531D02*
X8934741Y-10847551D01*
X8935008Y-8864531D02*
X8968028Y-8897551D01*
X8968028Y-8864531D02*
X8935008Y-8897551D01*
X8943790Y-9304531D02*
X8976810Y-9337551D01*
X8976810Y-9304531D02*
X8943790Y-9337551D01*
X8960188Y-7795188D02*
X8993208Y-7828208D01*
X8993208Y-7795188D02*
X8960188Y-7828208D01*
X8978960Y-9436521D02*
X9011980Y-9469541D01*
X9011980Y-9436521D02*
X8978960Y-9469541D01*
X8983490Y-5033490D02*
X9016510Y-5066510D01*
X9016510Y-5033490D02*
X8983490Y-5066510D01*
X8983490Y-5233490D02*
X9016510Y-5266510D01*
X9016510Y-5233490D02*
X8983490Y-5266510D01*
X8983490Y-5433490D02*
X9016510Y-5466510D01*
X9016510Y-5433490D02*
X8983490Y-5466510D01*
X8983490Y-5633490D02*
X9016510Y-5666510D01*
X9016510Y-5633490D02*
X8983490Y-5666510D01*
X9019443Y-10814262D02*
X9052463Y-10847282D01*
X9052463Y-10814262D02*
X9019443Y-10847282D01*
X9027035Y-9314340D02*
X9060055Y-9347360D01*
X9060055Y-9314340D02*
X9027035Y-9347360D01*
X9028490Y-10269531D02*
X9061510Y-10302551D01*
X9061510Y-10269531D02*
X9028490Y-10302551D01*
X9043490Y-7758490D02*
X9076510Y-7791510D01*
X9076510Y-7758490D02*
X9043490Y-7791510D01*
X9065756Y-7880756D02*
X9098776Y-7913776D01*
X9098776Y-7880756D02*
X9065756Y-7913776D01*
X9083490Y-4933490D02*
X9116510Y-4966510D01*
X9116510Y-4933490D02*
X9083490Y-4966510D01*
X9083490Y-5133490D02*
X9116510Y-5166510D01*
X9116510Y-5133490D02*
X9083490Y-5166510D01*
X9083490Y-5333490D02*
X9116510Y-5366510D01*
X9116510Y-5333490D02*
X9083490Y-5366510D01*
X9083490Y-5533490D02*
X9116510Y-5566510D01*
X9116510Y-5533490D02*
X9083490Y-5566510D01*
X9113490Y-6103490D02*
X9146510Y-6136510D01*
X9146510Y-6103490D02*
X9113490Y-6136510D01*
X9117264Y-10738112D02*
X9150284Y-10771132D01*
X9150284Y-10738112D02*
X9117264Y-10771132D01*
X9118490Y-6218490D02*
X9151510Y-6251510D01*
X9151510Y-6218490D02*
X9118490Y-6251510D01*
X9202986Y-10652390D02*
X9236006Y-10685410D01*
X9236006Y-10652390D02*
X9202986Y-10685410D01*
X9395990Y-6642990D02*
X9429010Y-6676010D01*
X9429010Y-6642990D02*
X9395990Y-6676010D01*
X9395990Y-8142990D02*
X9429010Y-8176010D01*
X9429010Y-8142990D02*
X9395990Y-8176010D01*
X9395990Y-9642990D02*
X9429010Y-9676010D01*
X9429010Y-9642990D02*
X9395990Y-9676010D01*
X9395990Y-11129621D02*
X9429010Y-11162641D01*
X9429010Y-11129621D02*
X9395990Y-11162641D01*
X9395990Y-11129621D02*
X9429010Y-11162641D01*
X9429010Y-11129621D02*
X9395990Y-11162641D01*
X10613490Y-5868490D02*
X10646510Y-5901510D01*
X10646510Y-5868490D02*
X10613490Y-5901510D01*
X10613490Y-7368490D02*
X10646510Y-7401510D01*
X10646510Y-7368490D02*
X10613490Y-7401510D01*
X10613490Y-8868490D02*
X10646510Y-8901510D01*
X10646510Y-8868490D02*
X10613490Y-8901510D01*
X10613490Y-10368490D02*
X10646510Y-10401510D01*
X10646510Y-10368490D02*
X10613490Y-10401510D01*
X10678490Y-5798490D02*
X10711510Y-5831510D01*
X10711510Y-5798490D02*
X10678490Y-5831510D01*
X10678490Y-7298490D02*
X10711510Y-7331510D01*
X10711510Y-7298490D02*
X10678490Y-7331510D01*
X10678490Y-8798490D02*
X10711510Y-8831510D01*
X10711510Y-8798490D02*
X10678490Y-8831510D01*
X10678490Y-10298490D02*
X10711510Y-10331510D01*
X10711510Y-10298490D02*
X10678490Y-10331510D01*
X10743490Y-5873490D02*
X10776510Y-5906510D01*
X10776510Y-5873490D02*
X10743490Y-5906510D01*
X10743490Y-7373490D02*
X10776510Y-7406510D01*
X10776510Y-7373490D02*
X10743490Y-7406510D01*
X10743490Y-8873490D02*
X10776510Y-8906510D01*
X10776510Y-8873490D02*
X10743490Y-8906510D01*
X10743490Y-10373490D02*
X10776510Y-10406510D01*
X10776510Y-10373490D02*
X10743490Y-10406510D01*
X7945000Y-8680000D02*
G75*
G03X7945000Y-8680000I-50000J0D01*
G01*
X8445000Y-8680000D02*
G75*
G03X8445000Y-8680000I-50000J0D01*
G01*
X5635000Y-12265000D02*
G75*
G03X5635000Y-12265000I-50000J0D01*
G01*
X5889000Y-12265000D02*
G75*
G03X5889000Y-12265000I-50000J0D01*
G01*
X6143000Y-12265000D02*
G75*
G03X6143000Y-12265000I-50000J0D01*
G01*
X6397000Y-12265000D02*
G75*
G03X6397000Y-12265000I-50000J0D01*
G01*
X6651000Y-12265000D02*
G75*
G03X6651000Y-12265000I-50000J0D01*
G01*
X9595000Y-11880000D02*
G75*
G03X9595000Y-11880000I-50000J0D01*
G01*
X9849000Y-11880000D02*
G75*
G03X9849000Y-11880000I-50000J0D01*
G01*
X10103000Y-11880000D02*
G75*
G03X10103000Y-11880000I-50000J0D01*
G01*
X10357000Y-11880000D02*
G75*
G03X10357000Y-11880000I-50000J0D01*
G01*
X10611000Y-11880000D02*
G75*
G03X10611000Y-11880000I-50000J0D01*
G01*
X9595000Y-12265000D02*
G75*
G03X9595000Y-12265000I-50000J0D01*
G01*
X9849000Y-12265000D02*
G75*
G03X9849000Y-12265000I-50000J0D01*
G01*
X10103000Y-12265000D02*
G75*
G03X10103000Y-12265000I-50000J0D01*
G01*
X10357000Y-12265000D02*
G75*
G03X10357000Y-12265000I-50000J0D01*
G01*
X10611000Y-12265000D02*
G75*
G03X10611000Y-12265000I-50000J0D01*
G01*
X7075000Y-9825000D02*
G75*
G03X7075000Y-9825000I-50000J0D01*
G01*
X7575000Y-9825000D02*
G75*
G03X7575000Y-9825000I-50000J0D01*
G01*
X5640000Y-11880000D02*
G75*
G03X5640000Y-11880000I-50000J0D01*
G01*
X5894000Y-11880000D02*
G75*
G03X5894000Y-11880000I-50000J0D01*
G01*
X6148000Y-11880000D02*
G75*
G03X6148000Y-11880000I-50000J0D01*
G01*
X6402000Y-11880000D02*
G75*
G03X6402000Y-11880000I-50000J0D01*
G01*
X6656000Y-11880000D02*
G75*
G03X6656000Y-11880000I-50000J0D01*
G01*
X7450000Y-7145000D02*
X7450000Y-7265000D01*
X7390000Y-7205000D02*
X7510000Y-7205000D01*
X8200000Y-7145000D02*
X8200000Y-7265000D01*
X8140000Y-7205000D02*
X8260000Y-7205000D01*
X7405000Y-11240000D02*
X7405000Y-11360000D01*
X7345000Y-11300000D02*
X7465000Y-11300000D01*
X8155000Y-11240000D02*
X8155000Y-11360000D01*
X8095000Y-11300000D02*
X8215000Y-11300000D01*
X11777385Y-5687385D02*
X11777385Y-5312615D01*
X11402615Y-5312615D01*
X11402615Y-5687385D01*
X11777385Y-5687385D01*
X11787385Y-12187385D02*
X11787385Y-11812615D01*
X11412615Y-11812615D01*
X11412615Y-12187385D01*
X11787385Y-12187385D01*
X4387385Y-5737385D02*
X4387385Y-5362615D01*
X4012615Y-5362615D01*
X4012615Y-5737385D01*
X4387385Y-5737385D01*
X4387385Y-12187385D02*
X4387385Y-11812615D01*
X4012615Y-11812615D01*
X4012615Y-12187385D01*
X4387385Y-12187385D01*
D12*
X3678808Y-13273334D02*
X3678808Y-12973334D01*
X3750237Y-12973334D01*
X3793094Y-12987620D01*
X3821666Y-13016191D01*
X3835951Y-13044763D01*
X3850237Y-13101906D01*
X3850237Y-13144763D01*
X3835951Y-13201906D01*
X3821666Y-13230477D01*
X3793094Y-13259049D01*
X3750237Y-13273334D01*
X3678808Y-13273334D01*
X3978808Y-13273334D02*
X3978808Y-13073334D01*
X3978808Y-13130477D02*
X3993094Y-13101906D01*
X4007380Y-13087620D01*
X4035951Y-13073334D01*
X4064523Y-13073334D01*
X4164523Y-13273334D02*
X4164523Y-13073334D01*
X4164523Y-12973334D02*
X4150237Y-12987620D01*
X4164523Y-13001906D01*
X4178808Y-12987620D01*
X4164523Y-12973334D01*
X4164523Y-13001906D01*
X4350237Y-13273334D02*
X4321666Y-13259049D01*
X4307380Y-13230477D01*
X4307380Y-12973334D01*
X4507380Y-13273334D02*
X4478808Y-13259049D01*
X4464523Y-13230477D01*
X4464523Y-12973334D01*
X4850237Y-13273334D02*
X4850237Y-12973334D01*
X4950237Y-13187620D01*
X5050237Y-12973334D01*
X5050237Y-13273334D01*
X5321666Y-13273334D02*
X5321666Y-13116191D01*
X5307380Y-13087620D01*
X5278808Y-13073334D01*
X5221666Y-13073334D01*
X5193094Y-13087620D01*
X5321666Y-13259049D02*
X5293094Y-13273334D01*
X5221666Y-13273334D01*
X5193094Y-13259049D01*
X5178808Y-13230477D01*
X5178808Y-13201906D01*
X5193094Y-13173334D01*
X5221666Y-13159049D01*
X5293094Y-13159049D01*
X5321666Y-13144763D01*
X5464523Y-13073334D02*
X5464523Y-13373334D01*
X5464523Y-13087620D02*
X5493094Y-13073334D01*
X5550237Y-13073334D01*
X5578808Y-13087620D01*
X5593094Y-13101906D01*
X5607380Y-13130477D01*
X5607380Y-13216191D01*
X5593094Y-13244763D01*
X5578808Y-13259049D01*
X5550237Y-13273334D01*
X5493094Y-13273334D01*
X5464523Y-13259049D01*
X5735951Y-13244763D02*
X5750237Y-13259049D01*
X5735951Y-13273334D01*
X5721666Y-13259049D01*
X5735951Y-13244763D01*
X5735951Y-13273334D01*
X5735951Y-13087620D02*
X5750237Y-13101906D01*
X5735951Y-13116191D01*
X5721666Y-13101906D01*
X5735951Y-13087620D01*
X5735951Y-13116191D01*
X3359360Y-13751110D02*
X3392380Y-13784130D01*
X3392380Y-13751110D02*
X3359360Y-13784130D01*
X3735951Y-13603334D02*
X3764523Y-13603334D01*
X3793094Y-13617620D01*
X3807380Y-13631906D01*
X3821666Y-13660477D01*
X3835951Y-13717620D01*
X3835951Y-13789049D01*
X3821666Y-13846191D01*
X3807380Y-13874763D01*
X3793094Y-13889049D01*
X3764523Y-13903334D01*
X3735951Y-13903334D01*
X3707380Y-13889049D01*
X3693094Y-13874763D01*
X3678808Y-13846191D01*
X3664523Y-13789049D01*
X3664523Y-13717620D01*
X3678808Y-13660477D01*
X3693094Y-13631906D01*
X3707380Y-13617620D01*
X3735951Y-13603334D01*
X3964523Y-13874763D02*
X3978808Y-13889049D01*
X3964523Y-13903334D01*
X3950237Y-13889049D01*
X3964523Y-13874763D01*
X3964523Y-13903334D01*
X4078808Y-13603334D02*
X4264523Y-13603334D01*
X4164523Y-13717620D01*
X4207380Y-13717620D01*
X4235951Y-13731906D01*
X4250237Y-13746191D01*
X4264523Y-13774763D01*
X4264523Y-13846191D01*
X4250237Y-13874763D01*
X4235951Y-13889049D01*
X4207380Y-13903334D01*
X4121666Y-13903334D01*
X4093094Y-13889049D01*
X4078808Y-13874763D01*
X4364523Y-13603334D02*
X4550237Y-13603334D01*
X4450237Y-13717620D01*
X4493094Y-13717620D01*
X4521666Y-13731906D01*
X4535951Y-13746191D01*
X4550237Y-13774763D01*
X4550237Y-13846191D01*
X4535951Y-13874763D01*
X4521666Y-13889049D01*
X4493094Y-13903334D01*
X4407380Y-13903334D01*
X4378808Y-13889049D01*
X4364523Y-13874763D01*
X4678808Y-13903334D02*
X4678808Y-13703334D01*
X4678808Y-13731906D02*
X4693094Y-13717620D01*
X4721666Y-13703334D01*
X4764523Y-13703334D01*
X4793094Y-13717620D01*
X4807380Y-13746191D01*
X4807380Y-13903334D01*
X4807380Y-13746191D02*
X4821666Y-13717620D01*
X4850237Y-13703334D01*
X4893094Y-13703334D01*
X4921666Y-13717620D01*
X4935951Y-13746191D01*
X4935951Y-13903334D01*
X5078808Y-13903334D02*
X5078808Y-13703334D01*
X5078808Y-13731906D02*
X5093094Y-13717620D01*
X5121666Y-13703334D01*
X5164523Y-13703334D01*
X5193094Y-13717620D01*
X5207380Y-13746191D01*
X5207380Y-13903334D01*
X5207380Y-13746191D02*
X5221666Y-13717620D01*
X5250237Y-13703334D01*
X5293094Y-13703334D01*
X5321666Y-13717620D01*
X5335951Y-13746191D01*
X5335951Y-13903334D01*
X5921666Y-13589049D02*
X5664523Y-13974763D01*
X6307380Y-13603334D02*
X6335951Y-13603334D01*
X6364523Y-13617620D01*
X6378808Y-13631906D01*
X6393094Y-13660477D01*
X6407380Y-13717620D01*
X6407380Y-13789049D01*
X6393094Y-13846191D01*
X6378808Y-13874763D01*
X6364523Y-13889049D01*
X6335951Y-13903334D01*
X6307380Y-13903334D01*
X6278808Y-13889049D01*
X6264523Y-13874763D01*
X6250237Y-13846191D01*
X6235951Y-13789049D01*
X6235951Y-13717620D01*
X6250237Y-13660477D01*
X6264523Y-13631906D01*
X6278808Y-13617620D01*
X6307380Y-13603334D01*
X6535951Y-13874763D02*
X6550237Y-13889049D01*
X6535951Y-13903334D01*
X6521666Y-13889049D01*
X6535951Y-13874763D01*
X6535951Y-13903334D01*
X6735951Y-13603334D02*
X6764523Y-13603334D01*
X6793094Y-13617620D01*
X6807380Y-13631906D01*
X6821666Y-13660477D01*
X6835951Y-13717620D01*
X6835951Y-13789049D01*
X6821666Y-13846191D01*
X6807380Y-13874763D01*
X6793094Y-13889049D01*
X6764523Y-13903334D01*
X6735951Y-13903334D01*
X6707380Y-13889049D01*
X6693094Y-13874763D01*
X6678808Y-13846191D01*
X6664523Y-13789049D01*
X6664523Y-13717620D01*
X6678808Y-13660477D01*
X6693094Y-13631906D01*
X6707380Y-13617620D01*
X6735951Y-13603334D01*
X7121666Y-13903334D02*
X6950237Y-13903334D01*
X7035951Y-13903334D02*
X7035951Y-13603334D01*
X7007380Y-13646191D01*
X6978808Y-13674763D01*
X6950237Y-13689049D01*
X7221666Y-13603334D02*
X7407380Y-13603334D01*
X7307380Y-13717620D01*
X7350237Y-13717620D01*
X7378808Y-13731906D01*
X7393094Y-13746191D01*
X7407380Y-13774763D01*
X7407380Y-13846191D01*
X7393094Y-13874763D01*
X7378808Y-13889049D01*
X7350237Y-13903334D01*
X7264523Y-13903334D01*
X7235951Y-13889049D01*
X7221666Y-13874763D01*
X7521666Y-13603334D02*
X7521666Y-13660477D01*
X7635951Y-13603334D02*
X7635951Y-13660477D01*
X8078808Y-14017620D02*
X8064523Y-14003334D01*
X8035951Y-13960477D01*
X8021666Y-13931906D01*
X8007380Y-13889049D01*
X7993094Y-13817620D01*
X7993094Y-13760477D01*
X8007380Y-13689049D01*
X8021666Y-13646191D01*
X8035951Y-13617620D01*
X8064523Y-13574763D01*
X8078808Y-13560477D01*
X8350237Y-13903334D02*
X8178808Y-13903334D01*
X8264523Y-13903334D02*
X8264523Y-13603334D01*
X8235951Y-13646191D01*
X8207380Y-13674763D01*
X8178808Y-13689049D01*
X8635951Y-13903334D02*
X8464523Y-13903334D01*
X8550237Y-13903334D02*
X8550237Y-13603334D01*
X8521666Y-13646191D01*
X8493094Y-13674763D01*
X8464523Y-13689049D01*
X8750237Y-13631906D02*
X8764523Y-13617620D01*
X8793094Y-13603334D01*
X8864523Y-13603334D01*
X8893094Y-13617620D01*
X8907380Y-13631906D01*
X8921666Y-13660477D01*
X8921666Y-13689049D01*
X8907380Y-13731906D01*
X8735951Y-13903334D01*
X8921666Y-13903334D01*
X9278808Y-13903334D02*
X9278808Y-13603334D01*
X9407380Y-13903334D02*
X9407380Y-13746191D01*
X9393094Y-13717620D01*
X9364523Y-13703334D01*
X9321666Y-13703334D01*
X9293094Y-13717620D01*
X9278808Y-13731906D01*
X9593094Y-13903334D02*
X9564523Y-13889049D01*
X9550237Y-13874763D01*
X9535951Y-13846191D01*
X9535951Y-13760477D01*
X9550237Y-13731906D01*
X9564523Y-13717620D01*
X9593094Y-13703334D01*
X9635951Y-13703334D01*
X9664523Y-13717620D01*
X9678808Y-13731906D01*
X9693094Y-13760477D01*
X9693094Y-13846191D01*
X9678808Y-13874763D01*
X9664523Y-13889049D01*
X9635951Y-13903334D01*
X9593094Y-13903334D01*
X9864523Y-13903334D02*
X9835951Y-13889049D01*
X9821666Y-13860477D01*
X9821666Y-13603334D01*
X10093094Y-13889049D02*
X10064523Y-13903334D01*
X10007380Y-13903334D01*
X9978808Y-13889049D01*
X9964523Y-13860477D01*
X9964523Y-13746191D01*
X9978808Y-13717620D01*
X10007380Y-13703334D01*
X10064523Y-13703334D01*
X10093094Y-13717620D01*
X10107380Y-13746191D01*
X10107380Y-13774763D01*
X9964523Y-13803334D01*
X10221666Y-13889049D02*
X10250237Y-13903334D01*
X10307380Y-13903334D01*
X10335951Y-13889049D01*
X10350237Y-13860477D01*
X10350237Y-13846191D01*
X10335951Y-13817620D01*
X10307380Y-13803334D01*
X10264523Y-13803334D01*
X10235951Y-13789049D01*
X10221666Y-13760477D01*
X10221666Y-13746191D01*
X10235951Y-13717620D01*
X10264523Y-13703334D01*
X10307380Y-13703334D01*
X10335951Y-13717620D01*
X10450237Y-14017620D02*
X10464523Y-14003334D01*
X10493094Y-13960477D01*
X10507380Y-13931906D01*
X10521666Y-13889049D01*
X10535951Y-13817620D01*
X10535951Y-13760477D01*
X10521666Y-13689049D01*
X10507380Y-13646191D01*
X10493094Y-13617620D01*
X10464523Y-13574763D01*
X10450237Y-13560477D01*
X3392380Y-14163620D02*
G75*
G03X3392380Y-14163620I-50000J0D01*
G01*
X3835951Y-14299334D02*
X3664523Y-14299334D01*
X3750237Y-14299334D02*
X3750237Y-13999334D01*
X3721666Y-14042191D01*
X3693094Y-14070763D01*
X3664523Y-14085049D01*
X3964523Y-14270763D02*
X3978808Y-14285049D01*
X3964523Y-14299334D01*
X3950237Y-14285049D01*
X3964523Y-14270763D01*
X3964523Y-14299334D01*
X4164523Y-13999334D02*
X4193094Y-13999334D01*
X4221666Y-14013620D01*
X4235951Y-14027906D01*
X4250237Y-14056477D01*
X4264523Y-14113620D01*
X4264523Y-14185049D01*
X4250237Y-14242191D01*
X4235951Y-14270763D01*
X4221666Y-14285049D01*
X4193094Y-14299334D01*
X4164523Y-14299334D01*
X4135951Y-14285049D01*
X4121666Y-14270763D01*
X4107380Y-14242191D01*
X4093094Y-14185049D01*
X4093094Y-14113620D01*
X4107380Y-14056477D01*
X4121666Y-14027906D01*
X4135951Y-14013620D01*
X4164523Y-13999334D01*
X4450237Y-13999334D02*
X4478808Y-13999334D01*
X4507380Y-14013620D01*
X4521666Y-14027906D01*
X4535951Y-14056477D01*
X4550237Y-14113620D01*
X4550237Y-14185049D01*
X4535951Y-14242191D01*
X4521666Y-14270763D01*
X4507380Y-14285049D01*
X4478808Y-14299334D01*
X4450237Y-14299334D01*
X4421666Y-14285049D01*
X4407380Y-14270763D01*
X4393094Y-14242191D01*
X4378808Y-14185049D01*
X4378808Y-14113620D01*
X4393094Y-14056477D01*
X4407380Y-14027906D01*
X4421666Y-14013620D01*
X4450237Y-13999334D01*
X4678808Y-14299334D02*
X4678808Y-14099334D01*
X4678808Y-14127906D02*
X4693094Y-14113620D01*
X4721666Y-14099334D01*
X4764523Y-14099334D01*
X4793094Y-14113620D01*
X4807380Y-14142191D01*
X4807380Y-14299334D01*
X4807380Y-14142191D02*
X4821666Y-14113620D01*
X4850237Y-14099334D01*
X4893094Y-14099334D01*
X4921666Y-14113620D01*
X4935951Y-14142191D01*
X4935951Y-14299334D01*
X5078808Y-14299334D02*
X5078808Y-14099334D01*
X5078808Y-14127906D02*
X5093094Y-14113620D01*
X5121666Y-14099334D01*
X5164523Y-14099334D01*
X5193094Y-14113620D01*
X5207380Y-14142191D01*
X5207380Y-14299334D01*
X5207380Y-14142191D02*
X5221666Y-14113620D01*
X5250237Y-14099334D01*
X5293094Y-14099334D01*
X5321666Y-14113620D01*
X5335951Y-14142191D01*
X5335951Y-14299334D01*
X5921666Y-13985049D02*
X5664523Y-14370763D01*
X6307380Y-13999334D02*
X6335951Y-13999334D01*
X6364523Y-14013620D01*
X6378808Y-14027906D01*
X6393094Y-14056477D01*
X6407380Y-14113620D01*
X6407380Y-14185049D01*
X6393094Y-14242191D01*
X6378808Y-14270763D01*
X6364523Y-14285049D01*
X6335951Y-14299334D01*
X6307380Y-14299334D01*
X6278808Y-14285049D01*
X6264523Y-14270763D01*
X6250237Y-14242191D01*
X6235951Y-14185049D01*
X6235951Y-14113620D01*
X6250237Y-14056477D01*
X6264523Y-14027906D01*
X6278808Y-14013620D01*
X6307380Y-13999334D01*
X6535951Y-14270763D02*
X6550237Y-14285049D01*
X6535951Y-14299334D01*
X6521666Y-14285049D01*
X6535951Y-14270763D01*
X6535951Y-14299334D01*
X6735951Y-13999334D02*
X6764523Y-13999334D01*
X6793094Y-14013620D01*
X6807380Y-14027906D01*
X6821666Y-14056477D01*
X6835951Y-14113620D01*
X6835951Y-14185049D01*
X6821666Y-14242191D01*
X6807380Y-14270763D01*
X6793094Y-14285049D01*
X6764523Y-14299334D01*
X6735951Y-14299334D01*
X6707380Y-14285049D01*
X6693094Y-14270763D01*
X6678808Y-14242191D01*
X6664523Y-14185049D01*
X6664523Y-14113620D01*
X6678808Y-14056477D01*
X6693094Y-14027906D01*
X6707380Y-14013620D01*
X6735951Y-13999334D01*
X6935951Y-13999334D02*
X7121666Y-13999334D01*
X7021666Y-14113620D01*
X7064523Y-14113620D01*
X7093094Y-14127906D01*
X7107380Y-14142191D01*
X7121666Y-14170763D01*
X7121666Y-14242191D01*
X7107380Y-14270763D01*
X7093094Y-14285049D01*
X7064523Y-14299334D01*
X6978808Y-14299334D01*
X6950237Y-14285049D01*
X6935951Y-14270763D01*
X7264523Y-14299334D02*
X7321666Y-14299334D01*
X7350237Y-14285049D01*
X7364523Y-14270763D01*
X7393094Y-14227906D01*
X7407380Y-14170763D01*
X7407380Y-14056477D01*
X7393094Y-14027906D01*
X7378808Y-14013620D01*
X7350237Y-13999334D01*
X7293094Y-13999334D01*
X7264523Y-14013620D01*
X7250237Y-14027906D01*
X7235951Y-14056477D01*
X7235951Y-14127906D01*
X7250237Y-14156477D01*
X7264523Y-14170763D01*
X7293094Y-14185049D01*
X7350237Y-14185049D01*
X7378808Y-14170763D01*
X7393094Y-14156477D01*
X7407380Y-14127906D01*
X7521666Y-13999334D02*
X7521666Y-14056477D01*
X7635951Y-13999334D02*
X7635951Y-14056477D01*
X8078808Y-14413620D02*
X8064523Y-14399334D01*
X8035951Y-14356477D01*
X8021666Y-14327906D01*
X8007380Y-14285049D01*
X7993094Y-14213620D01*
X7993094Y-14156477D01*
X8007380Y-14085049D01*
X8021666Y-14042191D01*
X8035951Y-14013620D01*
X8064523Y-13970763D01*
X8078808Y-13956477D01*
X8178808Y-14027906D02*
X8193094Y-14013620D01*
X8221666Y-13999334D01*
X8293094Y-13999334D01*
X8321666Y-14013620D01*
X8335951Y-14027906D01*
X8350237Y-14056477D01*
X8350237Y-14085049D01*
X8335951Y-14127906D01*
X8164523Y-14299334D01*
X8350237Y-14299334D01*
X8607380Y-14099334D02*
X8607380Y-14299334D01*
X8535951Y-13985049D02*
X8464523Y-14199334D01*
X8650237Y-14199334D01*
X8993094Y-14299334D02*
X8993094Y-13999334D01*
X9121666Y-14299334D02*
X9121666Y-14142191D01*
X9107380Y-14113620D01*
X9078808Y-14099334D01*
X9035951Y-14099334D01*
X9007380Y-14113620D01*
X8993094Y-14127906D01*
X9307380Y-14299334D02*
X9278808Y-14285049D01*
X9264523Y-14270763D01*
X9250237Y-14242191D01*
X9250237Y-14156477D01*
X9264523Y-14127906D01*
X9278808Y-14113620D01*
X9307380Y-14099334D01*
X9350237Y-14099334D01*
X9378808Y-14113620D01*
X9393094Y-14127906D01*
X9407380Y-14156477D01*
X9407380Y-14242191D01*
X9393094Y-14270763D01*
X9378808Y-14285049D01*
X9350237Y-14299334D01*
X9307380Y-14299334D01*
X9578808Y-14299334D02*
X9550237Y-14285049D01*
X9535951Y-14256477D01*
X9535951Y-13999334D01*
X9807380Y-14285049D02*
X9778808Y-14299334D01*
X9721666Y-14299334D01*
X9693094Y-14285049D01*
X9678808Y-14256477D01*
X9678808Y-14142191D01*
X9693094Y-14113620D01*
X9721666Y-14099334D01*
X9778808Y-14099334D01*
X9807380Y-14113620D01*
X9821666Y-14142191D01*
X9821666Y-14170763D01*
X9678808Y-14199334D01*
X9935951Y-14285049D02*
X9964523Y-14299334D01*
X10021666Y-14299334D01*
X10050237Y-14285049D01*
X10064523Y-14256477D01*
X10064523Y-14242191D01*
X10050237Y-14213620D01*
X10021666Y-14199334D01*
X9978808Y-14199334D01*
X9950237Y-14185049D01*
X9935951Y-14156477D01*
X9935951Y-14142191D01*
X9950237Y-14113620D01*
X9978808Y-14099334D01*
X10021666Y-14099334D01*
X10050237Y-14113620D01*
X10164523Y-14413620D02*
X10178808Y-14399334D01*
X10207380Y-14356477D01*
X10221666Y-14327906D01*
X10235951Y-14285049D01*
X10250237Y-14213620D01*
X10250237Y-14156477D01*
X10235951Y-14085049D01*
X10221666Y-14042191D01*
X10207380Y-14013620D01*
X10178808Y-13970763D01*
X10164523Y-13956477D01*
X3332380Y-14499620D02*
X3332380Y-14619620D01*
X3272380Y-14559620D02*
X3392380Y-14559620D01*
X3835951Y-14695334D02*
X3664523Y-14695334D01*
X3750237Y-14695334D02*
X3750237Y-14395334D01*
X3721666Y-14438191D01*
X3693094Y-14466763D01*
X3664523Y-14481049D01*
X3964523Y-14666763D02*
X3978808Y-14681049D01*
X3964523Y-14695334D01*
X3950237Y-14681049D01*
X3964523Y-14666763D01*
X3964523Y-14695334D01*
X4093094Y-14423906D02*
X4107380Y-14409620D01*
X4135951Y-14395334D01*
X4207380Y-14395334D01*
X4235951Y-14409620D01*
X4250237Y-14423906D01*
X4264523Y-14452477D01*
X4264523Y-14481049D01*
X4250237Y-14523906D01*
X4078808Y-14695334D01*
X4264523Y-14695334D01*
X4450237Y-14395334D02*
X4478808Y-14395334D01*
X4507380Y-14409620D01*
X4521666Y-14423906D01*
X4535951Y-14452477D01*
X4550237Y-14509620D01*
X4550237Y-14581049D01*
X4535951Y-14638191D01*
X4521666Y-14666763D01*
X4507380Y-14681049D01*
X4478808Y-14695334D01*
X4450237Y-14695334D01*
X4421666Y-14681049D01*
X4407380Y-14666763D01*
X4393094Y-14638191D01*
X4378808Y-14581049D01*
X4378808Y-14509620D01*
X4393094Y-14452477D01*
X4407380Y-14423906D01*
X4421666Y-14409620D01*
X4450237Y-14395334D01*
X4678808Y-14695334D02*
X4678808Y-14495334D01*
X4678808Y-14523906D02*
X4693094Y-14509620D01*
X4721666Y-14495334D01*
X4764523Y-14495334D01*
X4793094Y-14509620D01*
X4807380Y-14538191D01*
X4807380Y-14695334D01*
X4807380Y-14538191D02*
X4821666Y-14509620D01*
X4850237Y-14495334D01*
X4893094Y-14495334D01*
X4921666Y-14509620D01*
X4935951Y-14538191D01*
X4935951Y-14695334D01*
X5078808Y-14695334D02*
X5078808Y-14495334D01*
X5078808Y-14523906D02*
X5093094Y-14509620D01*
X5121666Y-14495334D01*
X5164523Y-14495334D01*
X5193094Y-14509620D01*
X5207380Y-14538191D01*
X5207380Y-14695334D01*
X5207380Y-14538191D02*
X5221666Y-14509620D01*
X5250237Y-14495334D01*
X5293094Y-14495334D01*
X5321666Y-14509620D01*
X5335951Y-14538191D01*
X5335951Y-14695334D01*
X5921666Y-14381049D02*
X5664523Y-14766763D01*
X6307380Y-14395334D02*
X6335951Y-14395334D01*
X6364523Y-14409620D01*
X6378808Y-14423906D01*
X6393094Y-14452477D01*
X6407380Y-14509620D01*
X6407380Y-14581049D01*
X6393094Y-14638191D01*
X6378808Y-14666763D01*
X6364523Y-14681049D01*
X6335951Y-14695334D01*
X6307380Y-14695334D01*
X6278808Y-14681049D01*
X6264523Y-14666763D01*
X6250237Y-14638191D01*
X6235951Y-14581049D01*
X6235951Y-14509620D01*
X6250237Y-14452477D01*
X6264523Y-14423906D01*
X6278808Y-14409620D01*
X6307380Y-14395334D01*
X6535951Y-14666763D02*
X6550237Y-14681049D01*
X6535951Y-14695334D01*
X6521666Y-14681049D01*
X6535951Y-14666763D01*
X6535951Y-14695334D01*
X6735951Y-14395334D02*
X6764523Y-14395334D01*
X6793094Y-14409620D01*
X6807380Y-14423906D01*
X6821666Y-14452477D01*
X6835951Y-14509620D01*
X6835951Y-14581049D01*
X6821666Y-14638191D01*
X6807380Y-14666763D01*
X6793094Y-14681049D01*
X6764523Y-14695334D01*
X6735951Y-14695334D01*
X6707380Y-14681049D01*
X6693094Y-14666763D01*
X6678808Y-14638191D01*
X6664523Y-14581049D01*
X6664523Y-14509620D01*
X6678808Y-14452477D01*
X6693094Y-14423906D01*
X6707380Y-14409620D01*
X6735951Y-14395334D01*
X7093094Y-14495334D02*
X7093094Y-14695334D01*
X7021666Y-14381049D02*
X6950237Y-14595334D01*
X7135951Y-14595334D01*
X7221666Y-14395334D02*
X7421666Y-14395334D01*
X7293094Y-14695334D01*
X7521666Y-14395334D02*
X7521666Y-14452477D01*
X7635951Y-14395334D02*
X7635951Y-14452477D01*
X8078808Y-14809620D02*
X8064523Y-14795334D01*
X8035951Y-14752477D01*
X8021666Y-14723906D01*
X8007380Y-14681049D01*
X7993094Y-14609620D01*
X7993094Y-14552477D01*
X8007380Y-14481049D01*
X8021666Y-14438191D01*
X8035951Y-14409620D01*
X8064523Y-14366763D01*
X8078808Y-14352477D01*
X8321666Y-14495334D02*
X8321666Y-14695334D01*
X8250237Y-14381049D02*
X8178808Y-14595334D01*
X8364523Y-14595334D01*
X8707380Y-14695334D02*
X8707380Y-14395334D01*
X8835951Y-14695334D02*
X8835951Y-14538191D01*
X8821666Y-14509620D01*
X8793094Y-14495334D01*
X8750237Y-14495334D01*
X8721666Y-14509620D01*
X8707380Y-14523906D01*
X9021666Y-14695334D02*
X8993094Y-14681049D01*
X8978808Y-14666763D01*
X8964523Y-14638191D01*
X8964523Y-14552477D01*
X8978808Y-14523906D01*
X8993094Y-14509620D01*
X9021666Y-14495334D01*
X9064523Y-14495334D01*
X9093094Y-14509620D01*
X9107380Y-14523906D01*
X9121666Y-14552477D01*
X9121666Y-14638191D01*
X9107380Y-14666763D01*
X9093094Y-14681049D01*
X9064523Y-14695334D01*
X9021666Y-14695334D01*
X9293094Y-14695334D02*
X9264523Y-14681049D01*
X9250237Y-14652477D01*
X9250237Y-14395334D01*
X9521666Y-14681049D02*
X9493094Y-14695334D01*
X9435951Y-14695334D01*
X9407380Y-14681049D01*
X9393094Y-14652477D01*
X9393094Y-14538191D01*
X9407380Y-14509620D01*
X9435951Y-14495334D01*
X9493094Y-14495334D01*
X9521666Y-14509620D01*
X9535951Y-14538191D01*
X9535951Y-14566763D01*
X9393094Y-14595334D01*
X9650237Y-14681049D02*
X9678808Y-14695334D01*
X9735951Y-14695334D01*
X9764523Y-14681049D01*
X9778808Y-14652477D01*
X9778808Y-14638191D01*
X9764523Y-14609620D01*
X9735951Y-14595334D01*
X9693094Y-14595334D01*
X9664523Y-14581049D01*
X9650237Y-14552477D01*
X9650237Y-14538191D01*
X9664523Y-14509620D01*
X9693094Y-14495334D01*
X9735951Y-14495334D01*
X9764523Y-14509620D01*
X9878808Y-14809620D02*
X9893094Y-14795334D01*
X9921666Y-14752477D01*
X9935951Y-14723906D01*
X9950237Y-14681049D01*
X9964523Y-14609620D01*
X9964523Y-14552477D01*
X9950237Y-14481049D01*
X9935951Y-14438191D01*
X9921666Y-14409620D01*
X9893094Y-14366763D01*
X9878808Y-14352477D01*
X3314765Y-15143005D02*
X3314765Y-14768235D01*
X2939995Y-14768235D01*
X2939995Y-15143005D01*
X3314765Y-15143005D01*
X3821666Y-14791334D02*
X3678808Y-14791334D01*
X3664523Y-14934191D01*
X3678808Y-14919906D01*
X3707380Y-14905620D01*
X3778808Y-14905620D01*
X3807380Y-14919906D01*
X3821666Y-14934191D01*
X3835951Y-14962763D01*
X3835951Y-15034191D01*
X3821666Y-15062763D01*
X3807380Y-15077049D01*
X3778808Y-15091334D01*
X3707380Y-15091334D01*
X3678808Y-15077049D01*
X3664523Y-15062763D01*
X3964523Y-15062763D02*
X3978808Y-15077049D01*
X3964523Y-15091334D01*
X3950237Y-15077049D01*
X3964523Y-15062763D01*
X3964523Y-15091334D01*
X4078808Y-14791334D02*
X4264523Y-14791334D01*
X4164523Y-14905620D01*
X4207380Y-14905620D01*
X4235951Y-14919906D01*
X4250237Y-14934191D01*
X4264523Y-14962763D01*
X4264523Y-15034191D01*
X4250237Y-15062763D01*
X4235951Y-15077049D01*
X4207380Y-15091334D01*
X4121666Y-15091334D01*
X4093094Y-15077049D01*
X4078808Y-15062763D01*
X4450237Y-14791334D02*
X4478808Y-14791334D01*
X4507380Y-14805620D01*
X4521666Y-14819906D01*
X4535951Y-14848477D01*
X4550237Y-14905620D01*
X4550237Y-14977049D01*
X4535951Y-15034191D01*
X4521666Y-15062763D01*
X4507380Y-15077049D01*
X4478808Y-15091334D01*
X4450237Y-15091334D01*
X4421666Y-15077049D01*
X4407380Y-15062763D01*
X4393094Y-15034191D01*
X4378808Y-14977049D01*
X4378808Y-14905620D01*
X4393094Y-14848477D01*
X4407380Y-14819906D01*
X4421666Y-14805620D01*
X4450237Y-14791334D01*
X4678808Y-15091334D02*
X4678808Y-14891334D01*
X4678808Y-14919906D02*
X4693094Y-14905620D01*
X4721666Y-14891334D01*
X4764523Y-14891334D01*
X4793094Y-14905620D01*
X4807380Y-14934191D01*
X4807380Y-15091334D01*
X4807380Y-14934191D02*
X4821666Y-14905620D01*
X4850237Y-14891334D01*
X4893094Y-14891334D01*
X4921666Y-14905620D01*
X4935951Y-14934191D01*
X4935951Y-15091334D01*
X5078808Y-15091334D02*
X5078808Y-14891334D01*
X5078808Y-14919906D02*
X5093094Y-14905620D01*
X5121666Y-14891334D01*
X5164523Y-14891334D01*
X5193094Y-14905620D01*
X5207380Y-14934191D01*
X5207380Y-15091334D01*
X5207380Y-14934191D02*
X5221666Y-14905620D01*
X5250237Y-14891334D01*
X5293094Y-14891334D01*
X5321666Y-14905620D01*
X5335951Y-14934191D01*
X5335951Y-15091334D01*
X5921666Y-14777049D02*
X5664523Y-15162763D01*
X6307380Y-14791334D02*
X6335951Y-14791334D01*
X6364523Y-14805620D01*
X6378808Y-14819906D01*
X6393094Y-14848477D01*
X6407380Y-14905620D01*
X6407380Y-14977049D01*
X6393094Y-15034191D01*
X6378808Y-15062763D01*
X6364523Y-15077049D01*
X6335951Y-15091334D01*
X6307380Y-15091334D01*
X6278808Y-15077049D01*
X6264523Y-15062763D01*
X6250237Y-15034191D01*
X6235951Y-14977049D01*
X6235951Y-14905620D01*
X6250237Y-14848477D01*
X6264523Y-14819906D01*
X6278808Y-14805620D01*
X6307380Y-14791334D01*
X6535951Y-15062763D02*
X6550237Y-15077049D01*
X6535951Y-15091334D01*
X6521666Y-15077049D01*
X6535951Y-15062763D01*
X6535951Y-15091334D01*
X6664523Y-14819906D02*
X6678808Y-14805620D01*
X6707380Y-14791334D01*
X6778808Y-14791334D01*
X6807380Y-14805620D01*
X6821666Y-14819906D01*
X6835951Y-14848477D01*
X6835951Y-14877049D01*
X6821666Y-14919906D01*
X6650237Y-15091334D01*
X6835951Y-15091334D01*
X7021666Y-14791334D02*
X7050237Y-14791334D01*
X7078808Y-14805620D01*
X7093094Y-14819906D01*
X7107380Y-14848477D01*
X7121666Y-14905620D01*
X7121666Y-14977049D01*
X7107380Y-15034191D01*
X7093094Y-15062763D01*
X7078808Y-15077049D01*
X7050237Y-15091334D01*
X7021666Y-15091334D01*
X6993094Y-15077049D01*
X6978808Y-15062763D01*
X6964523Y-15034191D01*
X6950237Y-14977049D01*
X6950237Y-14905620D01*
X6964523Y-14848477D01*
X6978808Y-14819906D01*
X6993094Y-14805620D01*
X7021666Y-14791334D01*
X7264523Y-15091334D02*
X7321666Y-15091334D01*
X7350237Y-15077049D01*
X7364523Y-15062763D01*
X7393094Y-15019906D01*
X7407380Y-14962763D01*
X7407380Y-14848477D01*
X7393094Y-14819906D01*
X7378808Y-14805620D01*
X7350237Y-14791334D01*
X7293094Y-14791334D01*
X7264523Y-14805620D01*
X7250237Y-14819906D01*
X7235951Y-14848477D01*
X7235951Y-14919906D01*
X7250237Y-14948477D01*
X7264523Y-14962763D01*
X7293094Y-14977049D01*
X7350237Y-14977049D01*
X7378808Y-14962763D01*
X7393094Y-14948477D01*
X7407380Y-14919906D01*
X7521666Y-14791334D02*
X7521666Y-14848477D01*
X7635951Y-14791334D02*
X7635951Y-14848477D01*
X8078808Y-15205620D02*
X8064523Y-15191334D01*
X8035951Y-15148477D01*
X8021666Y-15119906D01*
X8007380Y-15077049D01*
X7993094Y-15005620D01*
X7993094Y-14948477D01*
X8007380Y-14877049D01*
X8021666Y-14834191D01*
X8035951Y-14805620D01*
X8064523Y-14762763D01*
X8078808Y-14748477D01*
X8321666Y-14891334D02*
X8321666Y-15091334D01*
X8250237Y-14777049D02*
X8178808Y-14991334D01*
X8364523Y-14991334D01*
X8707380Y-15091334D02*
X8707380Y-14791334D01*
X8835951Y-15091334D02*
X8835951Y-14934191D01*
X8821666Y-14905620D01*
X8793094Y-14891334D01*
X8750237Y-14891334D01*
X8721666Y-14905620D01*
X8707380Y-14919906D01*
X9021666Y-15091334D02*
X8993094Y-15077049D01*
X8978808Y-15062763D01*
X8964523Y-15034191D01*
X8964523Y-14948477D01*
X8978808Y-14919906D01*
X8993094Y-14905620D01*
X9021666Y-14891334D01*
X9064523Y-14891334D01*
X9093094Y-14905620D01*
X9107380Y-14919906D01*
X9121666Y-14948477D01*
X9121666Y-15034191D01*
X9107380Y-15062763D01*
X9093094Y-15077049D01*
X9064523Y-15091334D01*
X9021666Y-15091334D01*
X9293094Y-15091334D02*
X9264523Y-15077049D01*
X9250237Y-15048477D01*
X9250237Y-14791334D01*
X9521666Y-15077049D02*
X9493094Y-15091334D01*
X9435951Y-15091334D01*
X9407380Y-15077049D01*
X9393094Y-15048477D01*
X9393094Y-14934191D01*
X9407380Y-14905620D01*
X9435951Y-14891334D01*
X9493094Y-14891334D01*
X9521666Y-14905620D01*
X9535951Y-14934191D01*
X9535951Y-14962763D01*
X9393094Y-14991334D01*
X9650237Y-15077049D02*
X9678808Y-15091334D01*
X9735951Y-15091334D01*
X9764523Y-15077049D01*
X9778808Y-15048477D01*
X9778808Y-15034191D01*
X9764523Y-15005620D01*
X9735951Y-14991334D01*
X9693094Y-14991334D01*
X9664523Y-14977049D01*
X9650237Y-14948477D01*
X9650237Y-14934191D01*
X9664523Y-14905620D01*
X9693094Y-14891334D01*
X9735951Y-14891334D01*
X9764523Y-14905620D01*
X9878808Y-15205620D02*
X9893094Y-15191334D01*
X9921666Y-15148477D01*
X9935951Y-15119906D01*
X9950237Y-15077049D01*
X9964523Y-15005620D01*
X9964523Y-14948477D01*
X9950237Y-14877049D01*
X9935951Y-14834191D01*
X9921666Y-14805620D01*
X9893094Y-14762763D01*
X9878808Y-14748477D01*
M02*
