%FSLAX45Y45*%
G04 Gerber Fmt 4.5, Leading zero omitted, Abs format (unit mm)*
G04 Created by KiCad (PCBNEW 5.0.0) date Wed Aug 15 09:16:42 2018*
%MOMM*%
%LPD*%
G01*
G04 APERTURE LIST*
%ADD10C,0.152400*%
%ADD11C,0.200000*%
%ADD12C,0.300000*%
G04 APERTURE END LIST*
D10*
X2900000Y-12000000D02*
X2900000Y-7100000D01*
X9500000Y-12000000D02*
X2800000Y-12000000D01*
X9500000Y-7100000D02*
X9500000Y-12000000D01*
X2900000Y-7100000D02*
X9500000Y-7100000D01*
D11*
X8535000Y-7535000D02*
X9065000Y-8065000D01*
X9065000Y-7535000D02*
X8535000Y-8065000D01*
X3335000Y-7535000D02*
X3865000Y-8065000D01*
X3865000Y-7535000D02*
X3335000Y-8065000D01*
X3335000Y-11035000D02*
X3865000Y-11565000D01*
X3865000Y-11035000D02*
X3335000Y-11565000D01*
X8535000Y-11035000D02*
X9065000Y-11565000D01*
X9065000Y-11035000D02*
X8535000Y-11565000D01*
D12*
X3078808Y-12473334D02*
X3078808Y-12173334D01*
X3150237Y-12173334D01*
X3193094Y-12187620D01*
X3221666Y-12216191D01*
X3235951Y-12244763D01*
X3250237Y-12301906D01*
X3250237Y-12344763D01*
X3235951Y-12401906D01*
X3221666Y-12430477D01*
X3193094Y-12459049D01*
X3150237Y-12473334D01*
X3078808Y-12473334D01*
X3378808Y-12473334D02*
X3378808Y-12273334D01*
X3378808Y-12330477D02*
X3393094Y-12301906D01*
X3407380Y-12287620D01*
X3435951Y-12273334D01*
X3464523Y-12273334D01*
X3564523Y-12473334D02*
X3564523Y-12273334D01*
X3564523Y-12173334D02*
X3550237Y-12187620D01*
X3564523Y-12201906D01*
X3578808Y-12187620D01*
X3564523Y-12173334D01*
X3564523Y-12201906D01*
X3750237Y-12473334D02*
X3721666Y-12459049D01*
X3707380Y-12430477D01*
X3707380Y-12173334D01*
X3907380Y-12473334D02*
X3878808Y-12459049D01*
X3864523Y-12430477D01*
X3864523Y-12173334D01*
X4250237Y-12473334D02*
X4250237Y-12173334D01*
X4350237Y-12387620D01*
X4450237Y-12173334D01*
X4450237Y-12473334D01*
X4721666Y-12473334D02*
X4721666Y-12316191D01*
X4707380Y-12287620D01*
X4678808Y-12273334D01*
X4621666Y-12273334D01*
X4593094Y-12287620D01*
X4721666Y-12459049D02*
X4693094Y-12473334D01*
X4621666Y-12473334D01*
X4593094Y-12459049D01*
X4578808Y-12430477D01*
X4578808Y-12401906D01*
X4593094Y-12373334D01*
X4621666Y-12359049D01*
X4693094Y-12359049D01*
X4721666Y-12344763D01*
X4864523Y-12273334D02*
X4864523Y-12573334D01*
X4864523Y-12287620D02*
X4893094Y-12273334D01*
X4950237Y-12273334D01*
X4978808Y-12287620D01*
X4993094Y-12301906D01*
X5007380Y-12330477D01*
X5007380Y-12416191D01*
X4993094Y-12444763D01*
X4978808Y-12459049D01*
X4950237Y-12473334D01*
X4893094Y-12473334D01*
X4864523Y-12459049D01*
X5135951Y-12444763D02*
X5150237Y-12459049D01*
X5135951Y-12473334D01*
X5121666Y-12459049D01*
X5135951Y-12444763D01*
X5135951Y-12473334D01*
X5135951Y-12287620D02*
X5150237Y-12301906D01*
X5135951Y-12316191D01*
X5121666Y-12301906D01*
X5135951Y-12287620D01*
X5135951Y-12316191D01*
X2262380Y-12702620D02*
X2792380Y-13232620D01*
X2792380Y-12702620D02*
X2262380Y-13232620D01*
X3221666Y-12803334D02*
X3078808Y-12803334D01*
X3064523Y-12946191D01*
X3078808Y-12931906D01*
X3107380Y-12917620D01*
X3178808Y-12917620D01*
X3207380Y-12931906D01*
X3221666Y-12946191D01*
X3235951Y-12974763D01*
X3235951Y-13046191D01*
X3221666Y-13074763D01*
X3207380Y-13089049D01*
X3178808Y-13103334D01*
X3107380Y-13103334D01*
X3078808Y-13089049D01*
X3064523Y-13074763D01*
X3364523Y-13074763D02*
X3378808Y-13089049D01*
X3364523Y-13103334D01*
X3350237Y-13089049D01*
X3364523Y-13074763D01*
X3364523Y-13103334D01*
X3478808Y-12803334D02*
X3664523Y-12803334D01*
X3564523Y-12917620D01*
X3607380Y-12917620D01*
X3635951Y-12931906D01*
X3650237Y-12946191D01*
X3664523Y-12974763D01*
X3664523Y-13046191D01*
X3650237Y-13074763D01*
X3635951Y-13089049D01*
X3607380Y-13103334D01*
X3521666Y-13103334D01*
X3493094Y-13089049D01*
X3478808Y-13074763D01*
X3850237Y-12803334D02*
X3878808Y-12803334D01*
X3907380Y-12817620D01*
X3921666Y-12831906D01*
X3935951Y-12860477D01*
X3950237Y-12917620D01*
X3950237Y-12989049D01*
X3935951Y-13046191D01*
X3921666Y-13074763D01*
X3907380Y-13089049D01*
X3878808Y-13103334D01*
X3850237Y-13103334D01*
X3821666Y-13089049D01*
X3807380Y-13074763D01*
X3793094Y-13046191D01*
X3778808Y-12989049D01*
X3778808Y-12917620D01*
X3793094Y-12860477D01*
X3807380Y-12831906D01*
X3821666Y-12817620D01*
X3850237Y-12803334D01*
X4078808Y-13103334D02*
X4078808Y-12903334D01*
X4078808Y-12931906D02*
X4093094Y-12917620D01*
X4121666Y-12903334D01*
X4164523Y-12903334D01*
X4193094Y-12917620D01*
X4207380Y-12946191D01*
X4207380Y-13103334D01*
X4207380Y-12946191D02*
X4221666Y-12917620D01*
X4250237Y-12903334D01*
X4293094Y-12903334D01*
X4321666Y-12917620D01*
X4335951Y-12946191D01*
X4335951Y-13103334D01*
X4478808Y-13103334D02*
X4478808Y-12903334D01*
X4478808Y-12931906D02*
X4493094Y-12917620D01*
X4521666Y-12903334D01*
X4564523Y-12903334D01*
X4593094Y-12917620D01*
X4607380Y-12946191D01*
X4607380Y-13103334D01*
X4607380Y-12946191D02*
X4621666Y-12917620D01*
X4650237Y-12903334D01*
X4693094Y-12903334D01*
X4721666Y-12917620D01*
X4735951Y-12946191D01*
X4735951Y-13103334D01*
X5321666Y-12789049D02*
X5064523Y-13174763D01*
X5707380Y-12803334D02*
X5735951Y-12803334D01*
X5764523Y-12817620D01*
X5778808Y-12831906D01*
X5793094Y-12860477D01*
X5807380Y-12917620D01*
X5807380Y-12989049D01*
X5793094Y-13046191D01*
X5778808Y-13074763D01*
X5764523Y-13089049D01*
X5735951Y-13103334D01*
X5707380Y-13103334D01*
X5678808Y-13089049D01*
X5664523Y-13074763D01*
X5650237Y-13046191D01*
X5635951Y-12989049D01*
X5635951Y-12917620D01*
X5650237Y-12860477D01*
X5664523Y-12831906D01*
X5678808Y-12817620D01*
X5707380Y-12803334D01*
X5935951Y-13074763D02*
X5950237Y-13089049D01*
X5935951Y-13103334D01*
X5921666Y-13089049D01*
X5935951Y-13074763D01*
X5935951Y-13103334D01*
X6064523Y-12831906D02*
X6078808Y-12817620D01*
X6107380Y-12803334D01*
X6178808Y-12803334D01*
X6207380Y-12817620D01*
X6221666Y-12831906D01*
X6235951Y-12860477D01*
X6235951Y-12889049D01*
X6221666Y-12931906D01*
X6050237Y-13103334D01*
X6235951Y-13103334D01*
X6421666Y-12803334D02*
X6450237Y-12803334D01*
X6478808Y-12817620D01*
X6493094Y-12831906D01*
X6507380Y-12860477D01*
X6521666Y-12917620D01*
X6521666Y-12989049D01*
X6507380Y-13046191D01*
X6493094Y-13074763D01*
X6478808Y-13089049D01*
X6450237Y-13103334D01*
X6421666Y-13103334D01*
X6393094Y-13089049D01*
X6378808Y-13074763D01*
X6364523Y-13046191D01*
X6350237Y-12989049D01*
X6350237Y-12917620D01*
X6364523Y-12860477D01*
X6378808Y-12831906D01*
X6393094Y-12817620D01*
X6421666Y-12803334D01*
X6664523Y-13103334D02*
X6721666Y-13103334D01*
X6750237Y-13089049D01*
X6764523Y-13074763D01*
X6793094Y-13031906D01*
X6807380Y-12974763D01*
X6807380Y-12860477D01*
X6793094Y-12831906D01*
X6778808Y-12817620D01*
X6750237Y-12803334D01*
X6693094Y-12803334D01*
X6664523Y-12817620D01*
X6650237Y-12831906D01*
X6635951Y-12860477D01*
X6635951Y-12931906D01*
X6650237Y-12960477D01*
X6664523Y-12974763D01*
X6693094Y-12989049D01*
X6750237Y-12989049D01*
X6778808Y-12974763D01*
X6793094Y-12960477D01*
X6807380Y-12931906D01*
X6921666Y-12803334D02*
X6921666Y-12860477D01*
X7035951Y-12803334D02*
X7035951Y-12860477D01*
X7478808Y-13217620D02*
X7464523Y-13203334D01*
X7435951Y-13160477D01*
X7421666Y-13131906D01*
X7407380Y-13089049D01*
X7393094Y-13017620D01*
X7393094Y-12960477D01*
X7407380Y-12889049D01*
X7421666Y-12846191D01*
X7435951Y-12817620D01*
X7464523Y-12774763D01*
X7478808Y-12760477D01*
X7721666Y-12903334D02*
X7721666Y-13103334D01*
X7650237Y-12789049D02*
X7578808Y-13003334D01*
X7764523Y-13003334D01*
X8107380Y-13103334D02*
X8107380Y-12803334D01*
X8235951Y-13103334D02*
X8235951Y-12946191D01*
X8221666Y-12917620D01*
X8193094Y-12903334D01*
X8150237Y-12903334D01*
X8121666Y-12917620D01*
X8107380Y-12931906D01*
X8421666Y-13103334D02*
X8393094Y-13089049D01*
X8378808Y-13074763D01*
X8364523Y-13046191D01*
X8364523Y-12960477D01*
X8378808Y-12931906D01*
X8393094Y-12917620D01*
X8421666Y-12903334D01*
X8464523Y-12903334D01*
X8493094Y-12917620D01*
X8507380Y-12931906D01*
X8521666Y-12960477D01*
X8521666Y-13046191D01*
X8507380Y-13074763D01*
X8493094Y-13089049D01*
X8464523Y-13103334D01*
X8421666Y-13103334D01*
X8693094Y-13103334D02*
X8664523Y-13089049D01*
X8650237Y-13060477D01*
X8650237Y-12803334D01*
X8921666Y-13089049D02*
X8893094Y-13103334D01*
X8835951Y-13103334D01*
X8807380Y-13089049D01*
X8793094Y-13060477D01*
X8793094Y-12946191D01*
X8807380Y-12917620D01*
X8835951Y-12903334D01*
X8893094Y-12903334D01*
X8921666Y-12917620D01*
X8935951Y-12946191D01*
X8935951Y-12974763D01*
X8793094Y-13003334D01*
X9050237Y-13089049D02*
X9078808Y-13103334D01*
X9135951Y-13103334D01*
X9164523Y-13089049D01*
X9178808Y-13060477D01*
X9178808Y-13046191D01*
X9164523Y-13017620D01*
X9135951Y-13003334D01*
X9093094Y-13003334D01*
X9064523Y-12989049D01*
X9050237Y-12960477D01*
X9050237Y-12946191D01*
X9064523Y-12917620D01*
X9093094Y-12903334D01*
X9135951Y-12903334D01*
X9164523Y-12917620D01*
X9278808Y-13217620D02*
X9293094Y-13203334D01*
X9321666Y-13160477D01*
X9335951Y-13131906D01*
X9350237Y-13089049D01*
X9364523Y-13017620D01*
X9364523Y-12960477D01*
X9350237Y-12889049D01*
X9335951Y-12846191D01*
X9321666Y-12817620D01*
X9293094Y-12774763D01*
X9278808Y-12760477D01*
X9821666Y-13217620D02*
X9807380Y-13203334D01*
X9778808Y-13160477D01*
X9764523Y-13131906D01*
X9750237Y-13089049D01*
X9735951Y-13017620D01*
X9735951Y-12960477D01*
X9750237Y-12889049D01*
X9764523Y-12846191D01*
X9778808Y-12817620D01*
X9807380Y-12774763D01*
X9821666Y-12760477D01*
X9935951Y-12903334D02*
X9935951Y-13103334D01*
X9935951Y-12931906D02*
X9950237Y-12917620D01*
X9978808Y-12903334D01*
X10021666Y-12903334D01*
X10050237Y-12917620D01*
X10064523Y-12946191D01*
X10064523Y-13103334D01*
X10250237Y-13103334D02*
X10221666Y-13089049D01*
X10207380Y-13074763D01*
X10193094Y-13046191D01*
X10193094Y-12960477D01*
X10207380Y-12931906D01*
X10221666Y-12917620D01*
X10250237Y-12903334D01*
X10293094Y-12903334D01*
X10321666Y-12917620D01*
X10335951Y-12931906D01*
X10350237Y-12960477D01*
X10350237Y-13046191D01*
X10335951Y-13074763D01*
X10321666Y-13089049D01*
X10293094Y-13103334D01*
X10250237Y-13103334D01*
X10435951Y-12903334D02*
X10550237Y-12903334D01*
X10478808Y-12803334D02*
X10478808Y-13060477D01*
X10493094Y-13089049D01*
X10521666Y-13103334D01*
X10550237Y-13103334D01*
X10878808Y-12903334D02*
X10878808Y-13203334D01*
X10878808Y-12917620D02*
X10907380Y-12903334D01*
X10964523Y-12903334D01*
X10993094Y-12917620D01*
X11007380Y-12931906D01*
X11021666Y-12960477D01*
X11021666Y-13046191D01*
X11007380Y-13074763D01*
X10993094Y-13089049D01*
X10964523Y-13103334D01*
X10907380Y-13103334D01*
X10878808Y-13089049D01*
X11193094Y-13103334D02*
X11164523Y-13089049D01*
X11150237Y-13060477D01*
X11150237Y-12803334D01*
X11435951Y-13103334D02*
X11435951Y-12946191D01*
X11421666Y-12917620D01*
X11393094Y-12903334D01*
X11335951Y-12903334D01*
X11307380Y-12917620D01*
X11435951Y-13089049D02*
X11407380Y-13103334D01*
X11335951Y-13103334D01*
X11307380Y-13089049D01*
X11293094Y-13060477D01*
X11293094Y-13031906D01*
X11307380Y-13003334D01*
X11335951Y-12989049D01*
X11407380Y-12989049D01*
X11435951Y-12974763D01*
X11535951Y-12903334D02*
X11650237Y-12903334D01*
X11578808Y-12803334D02*
X11578808Y-13060477D01*
X11593094Y-13089049D01*
X11621666Y-13103334D01*
X11650237Y-13103334D01*
X11864523Y-13089049D02*
X11835951Y-13103334D01*
X11778808Y-13103334D01*
X11750237Y-13089049D01*
X11735951Y-13060477D01*
X11735951Y-12946191D01*
X11750237Y-12917620D01*
X11778808Y-12903334D01*
X11835951Y-12903334D01*
X11864523Y-12917620D01*
X11878808Y-12946191D01*
X11878808Y-12974763D01*
X11735951Y-13003334D01*
X12135951Y-13103334D02*
X12135951Y-12803334D01*
X12135951Y-13089049D02*
X12107380Y-13103334D01*
X12050237Y-13103334D01*
X12021666Y-13089049D01*
X12007380Y-13074763D01*
X11993094Y-13046191D01*
X11993094Y-12960477D01*
X12007380Y-12931906D01*
X12021666Y-12917620D01*
X12050237Y-12903334D01*
X12107380Y-12903334D01*
X12135951Y-12917620D01*
X12250237Y-13217620D02*
X12264523Y-13203334D01*
X12293094Y-13160477D01*
X12307380Y-13131906D01*
X12321666Y-13089049D01*
X12335951Y-13017620D01*
X12335951Y-12960477D01*
X12321666Y-12889049D01*
X12307380Y-12846191D01*
X12293094Y-12817620D01*
X12264523Y-12774763D01*
X12250237Y-12760477D01*
M02*
