G04 #@! TF.GenerationSoftware,KiCad,Pcbnew,5.0.0*
G04 #@! TF.CreationDate,2018-08-15T09:16:39-04:00*
G04 #@! TF.ProjectId,rs485,72733438352E6B696361645F70636200,rev?*
G04 #@! TF.SameCoordinates,Original*
G04 #@! TF.FileFunction,Paste,Top*
G04 #@! TF.FilePolarity,Positive*
%FSLAX46Y46*%
G04 Gerber Fmt 4.6, Leading zero omitted, Abs format (unit mm)*
G04 Created by KiCad (PCBNEW 5.0.0) date Wed Aug 15 09:16:39 2018*
%MOMM*%
%LPD*%
G01*
G04 APERTURE LIST*
%ADD10R,2.847600X1.447600*%
%ADD11R,1.447600X2.847600*%
%ADD12R,1.447600X3.347600*%
%ADD13R,0.347600X0.447600*%
%ADD14R,0.597600X1.047600*%
%ADD15R,0.447600X0.347600*%
%ADD16R,0.447600X0.247600*%
%ADD17R,0.247600X0.447600*%
%ADD18R,0.747600X1.047600*%
%ADD19R,1.147600X1.347600*%
%ADD20R,0.947600X0.607600*%
%ADD21R,7.847600X5.847600*%
%ADD22R,1.827600X0.377600*%
%ADD23R,2.697600X6.447600*%
%ADD24R,2.346960X3.147060*%
G04 APERTURE END LIST*
D10*
G04 #@! TO.C,C2*
X78200000Y-78250000D03*
X73800000Y-78250000D03*
G04 #@! TD*
D11*
G04 #@! TO.C,C3*
X77750000Y-84050000D03*
X77750000Y-88450000D03*
G04 #@! TD*
G04 #@! TO.C,C6*
X52500000Y-90200000D03*
X52500000Y-85800000D03*
G04 #@! TD*
D12*
G04 #@! TO.C,C5*
X45000000Y-97950000D03*
X45000000Y-92550000D03*
G04 #@! TD*
D13*
G04 #@! TO.C,C7*
X69250000Y-86450000D03*
X69250000Y-87550000D03*
G04 #@! TD*
D14*
G04 #@! TO.C,C4*
X60500000Y-81050000D03*
X60500000Y-82950000D03*
G04 #@! TD*
D15*
G04 #@! TO.C,C1*
X67300000Y-101250000D03*
X66200000Y-101250000D03*
G04 #@! TD*
D16*
G04 #@! TO.C,R2*
X73250000Y-87800000D03*
X73250000Y-88700000D03*
G04 #@! TD*
D17*
G04 #@! TO.C,R4*
X61900000Y-107250000D03*
X61000000Y-107250000D03*
G04 #@! TD*
D18*
G04 #@! TO.C,R3*
X54500000Y-104350000D03*
X54500000Y-102150000D03*
G04 #@! TD*
G04 #@! TO.C,R5*
X70750000Y-89100000D03*
X70750000Y-86900000D03*
G04 #@! TD*
D19*
G04 #@! TO.C,R1*
X73250000Y-86100000D03*
X73250000Y-83400000D03*
G04 #@! TD*
D20*
G04 #@! TO.C,U2*
X61400000Y-85345000D03*
X61400000Y-86615000D03*
X61400000Y-87885000D03*
X61400000Y-89155000D03*
X67100000Y-89155000D03*
X67100000Y-87885000D03*
X67100000Y-86615000D03*
X67100000Y-85345000D03*
G04 #@! TD*
D21*
G04 #@! TO.C,J1*
X35250000Y-91250000D03*
X35250000Y-99250000D03*
G04 #@! TD*
D22*
G04 #@! TO.C,U1*
X59035000Y-101345000D03*
X59035000Y-102615000D03*
X59035000Y-103885000D03*
X59035000Y-105155000D03*
X63965000Y-105155000D03*
X63965000Y-103885000D03*
X63965000Y-102615000D03*
X63965000Y-101345000D03*
G04 #@! TD*
D23*
G04 #@! TO.C,L1*
X69075000Y-79000000D03*
X63425000Y-79000000D03*
G04 #@! TD*
D24*
G04 #@! TO.C,D1*
X56651060Y-80000000D03*
X49848940Y-80000000D03*
G04 #@! TD*
M02*
