G04 #@! TF.GenerationSoftware,KiCad,Pcbnew,5.0.0*
G04 #@! TF.CreationDate,2018-08-15T09:16:39-04:00*
G04 #@! TF.ProjectId,rs485,72733438352E6B696361645F70636200,rev?*
G04 #@! TF.SameCoordinates,Original*
G04 #@! TF.FileFunction,Soldermask,Bot*
G04 #@! TF.FilePolarity,Negative*
%FSLAX46Y46*%
G04 Gerber Fmt 4.6, Leading zero omitted, Abs format (unit mm)*
G04 Created by KiCad (PCBNEW 5.0.0) date Wed Aug 15 09:16:39 2018*
%MOMM*%
%LPD*%
G01*
G04 APERTURE LIST*
%ADD10C,0.100000*%
G04 APERTURE END LIST*
D10*
G36*
X36795205Y-110378566D02*
X37291338Y-110584071D01*
X37737852Y-110882423D01*
X38117577Y-111262148D01*
X38415929Y-111708662D01*
X38621434Y-112204795D01*
X38726200Y-112731493D01*
X38726200Y-113268507D01*
X38621434Y-113795205D01*
X38415929Y-114291338D01*
X38117577Y-114737852D01*
X37737852Y-115117577D01*
X37291338Y-115415929D01*
X36795205Y-115621434D01*
X36268507Y-115726200D01*
X35731493Y-115726200D01*
X35204795Y-115621434D01*
X34708662Y-115415929D01*
X34262148Y-115117577D01*
X33882423Y-114737852D01*
X33584071Y-114291338D01*
X33378566Y-113795205D01*
X33273800Y-113268507D01*
X33273800Y-112731493D01*
X33378566Y-112204795D01*
X33584071Y-111708662D01*
X33882423Y-111262148D01*
X34262148Y-110882423D01*
X34708662Y-110584071D01*
X35204795Y-110378566D01*
X35731493Y-110273800D01*
X36268507Y-110273800D01*
X36795205Y-110378566D01*
X36795205Y-110378566D01*
G37*
G36*
X88795205Y-110378566D02*
X89291338Y-110584071D01*
X89737852Y-110882423D01*
X90117577Y-111262148D01*
X90415929Y-111708662D01*
X90621434Y-112204795D01*
X90726200Y-112731493D01*
X90726200Y-113268507D01*
X90621434Y-113795205D01*
X90415929Y-114291338D01*
X90117577Y-114737852D01*
X89737852Y-115117577D01*
X89291338Y-115415929D01*
X88795205Y-115621434D01*
X88268507Y-115726200D01*
X87731493Y-115726200D01*
X87204795Y-115621434D01*
X86708662Y-115415929D01*
X86262148Y-115117577D01*
X85882423Y-114737852D01*
X85584071Y-114291338D01*
X85378566Y-113795205D01*
X85273800Y-113268507D01*
X85273800Y-112731493D01*
X85378566Y-112204795D01*
X85584071Y-111708662D01*
X85882423Y-111262148D01*
X86262148Y-110882423D01*
X86708662Y-110584071D01*
X87204795Y-110378566D01*
X87731493Y-110273800D01*
X88268507Y-110273800D01*
X88795205Y-110378566D01*
X88795205Y-110378566D01*
G37*
G36*
X50931563Y-108997201D02*
X50931566Y-108997202D01*
X50931567Y-108997202D01*
X51106156Y-109050163D01*
X51267059Y-109136167D01*
X51267061Y-109136168D01*
X51267060Y-109136168D01*
X51408091Y-109251909D01*
X51523832Y-109392940D01*
X51609837Y-109553844D01*
X51662799Y-109728437D01*
X51680682Y-109910000D01*
X51662799Y-110091563D01*
X51662798Y-110091566D01*
X51662798Y-110091567D01*
X51609837Y-110266156D01*
X51523833Y-110427059D01*
X51408091Y-110568091D01*
X51267059Y-110683833D01*
X51106156Y-110769837D01*
X50931567Y-110822798D01*
X50931566Y-110822798D01*
X50931563Y-110822799D01*
X50795501Y-110836200D01*
X50704499Y-110836200D01*
X50568437Y-110822799D01*
X50568434Y-110822798D01*
X50568433Y-110822798D01*
X50393844Y-110769837D01*
X50232941Y-110683833D01*
X50091909Y-110568091D01*
X49976167Y-110427059D01*
X49890163Y-110266156D01*
X49837202Y-110091567D01*
X49837202Y-110091566D01*
X49837201Y-110091563D01*
X49819318Y-109910000D01*
X49837201Y-109728437D01*
X49890163Y-109553844D01*
X49976168Y-109392940D01*
X50091909Y-109251909D01*
X50232940Y-109136168D01*
X50232939Y-109136168D01*
X50232941Y-109136167D01*
X50393844Y-109050163D01*
X50568433Y-108997202D01*
X50568434Y-108997202D01*
X50568437Y-108997201D01*
X50704499Y-108983800D01*
X50795501Y-108983800D01*
X50931563Y-108997201D01*
X50931563Y-108997201D01*
G37*
G36*
X50931563Y-106457201D02*
X50931566Y-106457202D01*
X50931567Y-106457202D01*
X51106156Y-106510163D01*
X51267059Y-106596167D01*
X51267061Y-106596168D01*
X51267060Y-106596168D01*
X51408091Y-106711909D01*
X51523832Y-106852940D01*
X51609837Y-107013844D01*
X51662799Y-107188437D01*
X51680682Y-107370000D01*
X51662799Y-107551563D01*
X51662798Y-107551566D01*
X51662798Y-107551567D01*
X51609837Y-107726156D01*
X51523833Y-107887059D01*
X51408091Y-108028091D01*
X51267059Y-108143833D01*
X51106156Y-108229837D01*
X50931567Y-108282798D01*
X50931566Y-108282798D01*
X50931563Y-108282799D01*
X50795501Y-108296200D01*
X50704499Y-108296200D01*
X50568437Y-108282799D01*
X50568434Y-108282798D01*
X50568433Y-108282798D01*
X50393844Y-108229837D01*
X50232941Y-108143833D01*
X50091909Y-108028091D01*
X49976167Y-107887059D01*
X49890163Y-107726156D01*
X49837202Y-107551567D01*
X49837202Y-107551566D01*
X49837201Y-107551563D01*
X49819318Y-107370000D01*
X49837201Y-107188437D01*
X49890163Y-107013844D01*
X49976168Y-106852940D01*
X50091909Y-106711909D01*
X50232940Y-106596168D01*
X50232939Y-106596168D01*
X50232941Y-106596167D01*
X50393844Y-106510163D01*
X50568433Y-106457202D01*
X50568434Y-106457202D01*
X50568437Y-106457201D01*
X50704499Y-106443800D01*
X50795501Y-106443800D01*
X50931563Y-106457201D01*
X50931563Y-106457201D01*
G37*
G36*
X50931563Y-103917201D02*
X50931566Y-103917202D01*
X50931567Y-103917202D01*
X51106156Y-103970163D01*
X51267059Y-104056167D01*
X51267061Y-104056168D01*
X51267060Y-104056168D01*
X51408091Y-104171909D01*
X51523832Y-104312940D01*
X51609837Y-104473844D01*
X51662799Y-104648437D01*
X51680682Y-104830000D01*
X51662799Y-105011563D01*
X51662798Y-105011566D01*
X51662798Y-105011567D01*
X51609837Y-105186156D01*
X51523833Y-105347059D01*
X51408091Y-105488091D01*
X51267059Y-105603833D01*
X51106156Y-105689837D01*
X50931567Y-105742798D01*
X50931566Y-105742798D01*
X50931563Y-105742799D01*
X50795501Y-105756200D01*
X50704499Y-105756200D01*
X50568437Y-105742799D01*
X50568434Y-105742798D01*
X50568433Y-105742798D01*
X50393844Y-105689837D01*
X50232941Y-105603833D01*
X50091909Y-105488091D01*
X49976167Y-105347059D01*
X49890163Y-105186156D01*
X49837202Y-105011567D01*
X49837202Y-105011566D01*
X49837201Y-105011563D01*
X49819318Y-104830000D01*
X49837201Y-104648437D01*
X49890163Y-104473844D01*
X49976168Y-104312940D01*
X50091909Y-104171909D01*
X50232940Y-104056168D01*
X50232939Y-104056168D01*
X50232941Y-104056167D01*
X50393844Y-103970163D01*
X50568433Y-103917202D01*
X50568434Y-103917202D01*
X50568437Y-103917201D01*
X50704499Y-103903800D01*
X50795501Y-103903800D01*
X50931563Y-103917201D01*
X50931563Y-103917201D01*
G37*
G36*
X73931563Y-103877201D02*
X73931566Y-103877202D01*
X73931567Y-103877202D01*
X74106156Y-103930163D01*
X74267059Y-104016167D01*
X74408091Y-104131909D01*
X74523833Y-104272941D01*
X74545213Y-104312941D01*
X74609837Y-104433844D01*
X74662799Y-104608437D01*
X74680682Y-104790000D01*
X74662799Y-104971563D01*
X74662798Y-104971566D01*
X74662798Y-104971567D01*
X74609837Y-105146156D01*
X74523833Y-105307059D01*
X74408091Y-105448091D01*
X74267059Y-105563833D01*
X74106156Y-105649837D01*
X73931567Y-105702798D01*
X73931566Y-105702798D01*
X73931563Y-105702799D01*
X73795501Y-105716200D01*
X73704499Y-105716200D01*
X73568437Y-105702799D01*
X73568434Y-105702798D01*
X73568433Y-105702798D01*
X73393844Y-105649837D01*
X73232941Y-105563833D01*
X73091909Y-105448091D01*
X72976167Y-105307059D01*
X72890163Y-105146156D01*
X72837202Y-104971567D01*
X72837202Y-104971566D01*
X72837201Y-104971563D01*
X72819318Y-104790000D01*
X72837201Y-104608437D01*
X72890163Y-104433844D01*
X72954787Y-104312941D01*
X72976167Y-104272941D01*
X73091909Y-104131909D01*
X73232941Y-104016167D01*
X73393844Y-103930163D01*
X73568433Y-103877202D01*
X73568434Y-103877202D01*
X73568437Y-103877201D01*
X73704499Y-103863800D01*
X73795501Y-103863800D01*
X73931563Y-103877201D01*
X73931563Y-103877201D01*
G37*
G36*
X80181563Y-103877201D02*
X80181566Y-103877202D01*
X80181567Y-103877202D01*
X80356156Y-103930163D01*
X80517059Y-104016167D01*
X80658091Y-104131909D01*
X80773833Y-104272941D01*
X80795213Y-104312941D01*
X80859837Y-104433844D01*
X80912799Y-104608437D01*
X80930682Y-104790000D01*
X80912799Y-104971563D01*
X80912798Y-104971566D01*
X80912798Y-104971567D01*
X80859837Y-105146156D01*
X80773833Y-105307059D01*
X80658091Y-105448091D01*
X80517059Y-105563833D01*
X80356156Y-105649837D01*
X80181567Y-105702798D01*
X80181566Y-105702798D01*
X80181563Y-105702799D01*
X80045501Y-105716200D01*
X79954499Y-105716200D01*
X79818437Y-105702799D01*
X79818434Y-105702798D01*
X79818433Y-105702798D01*
X79643844Y-105649837D01*
X79482941Y-105563833D01*
X79341909Y-105448091D01*
X79226167Y-105307059D01*
X79140163Y-105146156D01*
X79087202Y-104971567D01*
X79087202Y-104971566D01*
X79087201Y-104971563D01*
X79069318Y-104790000D01*
X79087201Y-104608437D01*
X79140163Y-104433844D01*
X79204787Y-104312941D01*
X79226167Y-104272941D01*
X79341909Y-104131909D01*
X79482941Y-104016167D01*
X79643844Y-103930163D01*
X79818433Y-103877202D01*
X79818434Y-103877202D01*
X79818437Y-103877201D01*
X79954499Y-103863800D01*
X80045501Y-103863800D01*
X80181563Y-103877201D01*
X80181563Y-103877201D01*
G37*
G36*
X50931563Y-101377201D02*
X50931566Y-101377202D01*
X50931567Y-101377202D01*
X51106156Y-101430163D01*
X51267059Y-101516167D01*
X51267061Y-101516168D01*
X51267060Y-101516168D01*
X51408091Y-101631909D01*
X51523832Y-101772940D01*
X51609837Y-101933844D01*
X51662799Y-102108437D01*
X51680682Y-102290000D01*
X51662799Y-102471563D01*
X51662798Y-102471566D01*
X51662798Y-102471567D01*
X51609837Y-102646156D01*
X51523833Y-102807059D01*
X51408091Y-102948091D01*
X51267059Y-103063833D01*
X51106156Y-103149837D01*
X50931567Y-103202798D01*
X50931566Y-103202798D01*
X50931563Y-103202799D01*
X50795501Y-103216200D01*
X50704499Y-103216200D01*
X50568437Y-103202799D01*
X50568434Y-103202798D01*
X50568433Y-103202798D01*
X50393844Y-103149837D01*
X50232941Y-103063833D01*
X50091909Y-102948091D01*
X49976167Y-102807059D01*
X49890163Y-102646156D01*
X49837202Y-102471567D01*
X49837202Y-102471566D01*
X49837201Y-102471563D01*
X49819318Y-102290000D01*
X49837201Y-102108437D01*
X49890163Y-101933844D01*
X49976168Y-101772940D01*
X50091909Y-101631909D01*
X50232940Y-101516168D01*
X50232939Y-101516168D01*
X50232941Y-101516167D01*
X50393844Y-101430163D01*
X50568433Y-101377202D01*
X50568434Y-101377202D01*
X50568437Y-101377201D01*
X50704499Y-101363800D01*
X50795501Y-101363800D01*
X50931563Y-101377201D01*
X50931563Y-101377201D01*
G37*
G36*
X80926200Y-103176200D02*
X79073800Y-103176200D01*
X79073800Y-101323800D01*
X80926200Y-101323800D01*
X80926200Y-103176200D01*
X80926200Y-103176200D01*
G37*
G36*
X74676200Y-103176200D02*
X72823800Y-103176200D01*
X72823800Y-101323800D01*
X74676200Y-101323800D01*
X74676200Y-103176200D01*
X74676200Y-103176200D01*
G37*
G36*
X51676200Y-100676200D02*
X49823800Y-100676200D01*
X49823800Y-98823800D01*
X51676200Y-98823800D01*
X51676200Y-100676200D01*
X51676200Y-100676200D01*
G37*
G36*
X85181563Y-93627201D02*
X85181566Y-93627202D01*
X85181567Y-93627202D01*
X85356156Y-93680163D01*
X85517059Y-93766167D01*
X85517061Y-93766168D01*
X85517060Y-93766168D01*
X85658091Y-93881909D01*
X85773832Y-94022940D01*
X85859837Y-94183844D01*
X85912799Y-94358437D01*
X85930682Y-94540000D01*
X85912799Y-94721563D01*
X85912798Y-94721566D01*
X85912798Y-94721567D01*
X85859837Y-94896156D01*
X85773833Y-95057059D01*
X85658091Y-95198091D01*
X85517059Y-95313833D01*
X85356156Y-95399837D01*
X85181567Y-95452798D01*
X85181566Y-95452798D01*
X85181563Y-95452799D01*
X85045501Y-95466200D01*
X84954499Y-95466200D01*
X84818437Y-95452799D01*
X84818434Y-95452798D01*
X84818433Y-95452798D01*
X84643844Y-95399837D01*
X84482941Y-95313833D01*
X84341909Y-95198091D01*
X84226167Y-95057059D01*
X84140163Y-94896156D01*
X84087202Y-94721567D01*
X84087202Y-94721566D01*
X84087201Y-94721563D01*
X84069318Y-94540000D01*
X84087201Y-94358437D01*
X84140163Y-94183844D01*
X84226168Y-94022940D01*
X84341909Y-93881909D01*
X84482940Y-93766168D01*
X84482939Y-93766168D01*
X84482941Y-93766167D01*
X84643844Y-93680163D01*
X84818433Y-93627202D01*
X84818434Y-93627202D01*
X84818437Y-93627201D01*
X84954499Y-93613800D01*
X85045501Y-93613800D01*
X85181563Y-93627201D01*
X85181563Y-93627201D01*
G37*
G36*
X85926200Y-92926200D02*
X84073800Y-92926200D01*
X84073800Y-91073800D01*
X85926200Y-91073800D01*
X85926200Y-92926200D01*
X85926200Y-92926200D01*
G37*
G36*
X88795205Y-75378566D02*
X89291338Y-75584071D01*
X89737852Y-75882423D01*
X90117577Y-76262148D01*
X90415929Y-76708662D01*
X90621434Y-77204795D01*
X90726200Y-77731493D01*
X90726200Y-78268507D01*
X90621434Y-78795205D01*
X90415929Y-79291338D01*
X90117577Y-79737852D01*
X89737852Y-80117577D01*
X89291338Y-80415929D01*
X88795205Y-80621434D01*
X88268507Y-80726200D01*
X87731493Y-80726200D01*
X87204795Y-80621434D01*
X86708662Y-80415929D01*
X86262148Y-80117577D01*
X85882423Y-79737852D01*
X85584071Y-79291338D01*
X85378566Y-78795205D01*
X85273800Y-78268507D01*
X85273800Y-77731493D01*
X85378566Y-77204795D01*
X85584071Y-76708662D01*
X85882423Y-76262148D01*
X86262148Y-75882423D01*
X86708662Y-75584071D01*
X87204795Y-75378566D01*
X87731493Y-75273800D01*
X88268507Y-75273800D01*
X88795205Y-75378566D01*
X88795205Y-75378566D01*
G37*
G36*
X36795205Y-75378566D02*
X37291338Y-75584071D01*
X37737852Y-75882423D01*
X38117577Y-76262148D01*
X38415929Y-76708662D01*
X38621434Y-77204795D01*
X38726200Y-77731493D01*
X38726200Y-78268507D01*
X38621434Y-78795205D01*
X38415929Y-79291338D01*
X38117577Y-79737852D01*
X37737852Y-80117577D01*
X37291338Y-80415929D01*
X36795205Y-80621434D01*
X36268507Y-80726200D01*
X35731493Y-80726200D01*
X35204795Y-80621434D01*
X34708662Y-80415929D01*
X34262148Y-80117577D01*
X33882423Y-79737852D01*
X33584071Y-79291338D01*
X33378566Y-78795205D01*
X33273800Y-78268507D01*
X33273800Y-77731493D01*
X33378566Y-77204795D01*
X33584071Y-76708662D01*
X33882423Y-76262148D01*
X34262148Y-75882423D01*
X34708662Y-75584071D01*
X35204795Y-75378566D01*
X35731493Y-75273800D01*
X36268507Y-75273800D01*
X36795205Y-75378566D01*
X36795205Y-75378566D01*
G37*
M02*
