M48
;DRILL file {KiCad 5.0.0} date Wed Aug 15 09:16:41 2018
;FORMAT={-:-/ absolute / inch / decimal}
FMAT,2
INCH,TZ
T1C0.0130
T2C0.0394
%
G90
G05
M72
T1
X1.6142Y-3.9764
X1.6142Y-4.0157
X1.6535Y-3.9764
X1.6535Y-4.0157
X1.8504Y-3.1102
X1.8504Y-3.1496
X1.8504Y-3.189
X1.8898Y-3.1102
X1.8898Y-3.1496
X1.8898Y-3.189
X2.2835Y-3.5433
X2.2835Y-3.5827
X2.3228Y-3.5433
X2.3228Y-3.5827
X2.5197Y-4.1732
X2.6772Y-3.9764
X2.7953Y-3.5433
X3.0315Y-3.5827
X3.0315Y-3.622
X3.0709Y-3.622
X3.1496Y-3.0709
X3.1496Y-3.1102
X3.189Y-3.0709
X3.189Y-3.1102
T2
X2.9035Y-4.0256
X2.9035Y-4.1256
X3.3465Y-3.622
X3.3465Y-3.722
X3.1496Y-4.0256
X3.1496Y-4.1256
X1.998Y-3.9272
X1.998Y-4.0272
X1.998Y-4.1272
X1.998Y-4.2272
X1.998Y-4.3272
T0
M30
