G04 #@! TF.GenerationSoftware,KiCad,Pcbnew,5.0.0*
G04 #@! TF.CreationDate,2018-08-15T09:16:39-04:00*
G04 #@! TF.ProjectId,rs485,72733438352E6B696361645F70636200,rev?*
G04 #@! TF.SameCoordinates,Original*
G04 #@! TF.FileFunction,Soldermask,Top*
G04 #@! TF.FilePolarity,Negative*
%FSLAX46Y46*%
G04 Gerber Fmt 4.6, Leading zero omitted, Abs format (unit mm)*
G04 Created by KiCad (PCBNEW 5.0.0) date Wed Aug 15 09:16:39 2018*
%MOMM*%
%LPD*%
G01*
G04 APERTURE LIST*
%ADD10C,0.100000*%
G04 APERTURE END LIST*
D10*
G36*
X88795205Y-110378566D02*
X89291338Y-110584071D01*
X89737852Y-110882423D01*
X90117577Y-111262148D01*
X90415929Y-111708662D01*
X90621434Y-112204795D01*
X90726200Y-112731493D01*
X90726200Y-113268507D01*
X90621434Y-113795205D01*
X90415929Y-114291338D01*
X90117577Y-114737852D01*
X89737852Y-115117577D01*
X89291338Y-115415929D01*
X88795205Y-115621434D01*
X88268507Y-115726200D01*
X87731493Y-115726200D01*
X87204795Y-115621434D01*
X86708662Y-115415929D01*
X86262148Y-115117577D01*
X85882423Y-114737852D01*
X85584071Y-114291338D01*
X85378566Y-113795205D01*
X85273800Y-113268507D01*
X85273800Y-112731493D01*
X85378566Y-112204795D01*
X85584071Y-111708662D01*
X85882423Y-111262148D01*
X86262148Y-110882423D01*
X86708662Y-110584071D01*
X87204795Y-110378566D01*
X87731493Y-110273800D01*
X88268507Y-110273800D01*
X88795205Y-110378566D01*
X88795205Y-110378566D01*
G37*
G36*
X36795205Y-110378566D02*
X37291338Y-110584071D01*
X37737852Y-110882423D01*
X38117577Y-111262148D01*
X38415929Y-111708662D01*
X38621434Y-112204795D01*
X38726200Y-112731493D01*
X38726200Y-113268507D01*
X38621434Y-113795205D01*
X38415929Y-114291338D01*
X38117577Y-114737852D01*
X37737852Y-115117577D01*
X37291338Y-115415929D01*
X36795205Y-115621434D01*
X36268507Y-115726200D01*
X35731493Y-115726200D01*
X35204795Y-115621434D01*
X34708662Y-115415929D01*
X34262148Y-115117577D01*
X33882423Y-114737852D01*
X33584071Y-114291338D01*
X33378566Y-113795205D01*
X33273800Y-113268507D01*
X33273800Y-112731493D01*
X33378566Y-112204795D01*
X33584071Y-111708662D01*
X33882423Y-111262148D01*
X34262148Y-110882423D01*
X34708662Y-110584071D01*
X35204795Y-110378566D01*
X35731493Y-110273800D01*
X36268507Y-110273800D01*
X36795205Y-110378566D01*
X36795205Y-110378566D01*
G37*
G36*
X50931563Y-108997201D02*
X50931566Y-108997202D01*
X50931567Y-108997202D01*
X51106156Y-109050163D01*
X51267059Y-109136167D01*
X51408091Y-109251909D01*
X51523833Y-109392941D01*
X51609837Y-109553844D01*
X51636504Y-109641752D01*
X51662799Y-109728437D01*
X51680682Y-109910000D01*
X51662799Y-110091563D01*
X51662798Y-110091566D01*
X51662798Y-110091567D01*
X51609837Y-110266156D01*
X51523833Y-110427059D01*
X51408091Y-110568091D01*
X51267059Y-110683833D01*
X51106156Y-110769837D01*
X50931567Y-110822798D01*
X50931566Y-110822798D01*
X50931563Y-110822799D01*
X50795501Y-110836200D01*
X50704499Y-110836200D01*
X50568437Y-110822799D01*
X50568434Y-110822798D01*
X50568433Y-110822798D01*
X50393844Y-110769837D01*
X50232941Y-110683833D01*
X50091909Y-110568091D01*
X49976167Y-110427059D01*
X49890163Y-110266156D01*
X49837202Y-110091567D01*
X49837202Y-110091566D01*
X49837201Y-110091563D01*
X49819318Y-109910000D01*
X49837201Y-109728437D01*
X49863497Y-109641752D01*
X49890163Y-109553844D01*
X49976167Y-109392941D01*
X50091909Y-109251909D01*
X50232941Y-109136167D01*
X50393844Y-109050163D01*
X50568433Y-108997202D01*
X50568434Y-108997202D01*
X50568437Y-108997201D01*
X50704499Y-108983800D01*
X50795501Y-108983800D01*
X50931563Y-108997201D01*
X50931563Y-108997201D01*
G37*
G36*
X71490994Y-108205550D02*
X71641353Y-108267831D01*
X71776672Y-108358248D01*
X71891752Y-108473328D01*
X71982169Y-108608647D01*
X72044450Y-108759006D01*
X72076200Y-108918626D01*
X72076200Y-109081374D01*
X72044450Y-109240994D01*
X71982169Y-109391353D01*
X71891752Y-109526672D01*
X71776672Y-109641752D01*
X71641353Y-109732169D01*
X71490994Y-109794450D01*
X71331374Y-109826200D01*
X71168626Y-109826200D01*
X71009006Y-109794450D01*
X70858647Y-109732169D01*
X70723328Y-109641752D01*
X70608248Y-109526672D01*
X70517831Y-109391353D01*
X70455550Y-109240994D01*
X70423800Y-109081374D01*
X70423800Y-108918626D01*
X70455550Y-108759006D01*
X70517831Y-108608647D01*
X70608248Y-108473328D01*
X70723328Y-108358248D01*
X70858647Y-108267831D01*
X71009006Y-108205550D01*
X71168626Y-108173800D01*
X71331374Y-108173800D01*
X71490994Y-108205550D01*
X71490994Y-108205550D01*
G37*
G36*
X50931563Y-106457201D02*
X50931566Y-106457202D01*
X50931567Y-106457202D01*
X51106156Y-106510163D01*
X51267059Y-106596167D01*
X51267061Y-106596168D01*
X51267060Y-106596168D01*
X51408091Y-106711909D01*
X51523832Y-106852940D01*
X51609837Y-107013844D01*
X51662799Y-107188437D01*
X51680682Y-107370000D01*
X51662799Y-107551563D01*
X51662798Y-107551566D01*
X51662798Y-107551567D01*
X51609837Y-107726156D01*
X51523833Y-107887059D01*
X51408091Y-108028091D01*
X51267059Y-108143833D01*
X51106156Y-108229837D01*
X50931567Y-108282798D01*
X50931566Y-108282798D01*
X50931563Y-108282799D01*
X50795501Y-108296200D01*
X50704499Y-108296200D01*
X50568437Y-108282799D01*
X50568434Y-108282798D01*
X50568433Y-108282798D01*
X50393844Y-108229837D01*
X50232941Y-108143833D01*
X50091909Y-108028091D01*
X49976167Y-107887059D01*
X49890163Y-107726156D01*
X49837202Y-107551567D01*
X49837202Y-107551566D01*
X49837201Y-107551563D01*
X49819318Y-107370000D01*
X49837201Y-107188437D01*
X49890163Y-107013844D01*
X49976168Y-106852940D01*
X50091909Y-106711909D01*
X50232940Y-106596168D01*
X50232939Y-106596168D01*
X50232941Y-106596167D01*
X50393844Y-106510163D01*
X50568433Y-106457202D01*
X50568434Y-106457202D01*
X50568437Y-106457201D01*
X50704499Y-106443800D01*
X50795501Y-106443800D01*
X50931563Y-106457201D01*
X50931563Y-106457201D01*
G37*
G36*
X61276200Y-107626200D02*
X60723800Y-107626200D01*
X60723800Y-106873800D01*
X61276200Y-106873800D01*
X61276200Y-107626200D01*
X61276200Y-107626200D01*
G37*
G36*
X62176200Y-107626200D02*
X61623800Y-107626200D01*
X61623800Y-106873800D01*
X62176200Y-106873800D01*
X62176200Y-107626200D01*
X62176200Y-107626200D01*
G37*
G36*
X50931563Y-103917201D02*
X50931566Y-103917202D01*
X50931567Y-103917202D01*
X51106156Y-103970163D01*
X51267059Y-104056167D01*
X51267061Y-104056168D01*
X51267060Y-104056168D01*
X51408091Y-104171909D01*
X51523832Y-104312940D01*
X51609837Y-104473844D01*
X51662799Y-104648437D01*
X51680682Y-104830000D01*
X51662799Y-105011563D01*
X51662798Y-105011566D01*
X51662798Y-105011567D01*
X51609837Y-105186156D01*
X51523833Y-105347059D01*
X51408091Y-105488091D01*
X51267059Y-105603833D01*
X51106156Y-105689837D01*
X50931567Y-105742798D01*
X50931566Y-105742798D01*
X50931563Y-105742799D01*
X50795501Y-105756200D01*
X50704499Y-105756200D01*
X50568437Y-105742799D01*
X50568434Y-105742798D01*
X50568433Y-105742798D01*
X50393844Y-105689837D01*
X50232941Y-105603833D01*
X50091909Y-105488091D01*
X49976167Y-105347059D01*
X49890163Y-105186156D01*
X49837202Y-105011567D01*
X49837202Y-105011566D01*
X49837201Y-105011563D01*
X49819318Y-104830000D01*
X49837201Y-104648437D01*
X49890163Y-104473844D01*
X49976168Y-104312940D01*
X50091909Y-104171909D01*
X50232940Y-104056168D01*
X50232939Y-104056168D01*
X50232941Y-104056167D01*
X50393844Y-103970163D01*
X50568433Y-103917202D01*
X50568434Y-103917202D01*
X50568437Y-103917201D01*
X50704499Y-103903800D01*
X50795501Y-103903800D01*
X50931563Y-103917201D01*
X50931563Y-103917201D01*
G37*
G36*
X80181563Y-103877201D02*
X80181566Y-103877202D01*
X80181567Y-103877202D01*
X80356156Y-103930163D01*
X80517059Y-104016167D01*
X80658091Y-104131909D01*
X80773833Y-104272941D01*
X80795213Y-104312941D01*
X80859837Y-104433844D01*
X80912799Y-104608437D01*
X80930682Y-104790000D01*
X80912799Y-104971563D01*
X80912798Y-104971566D01*
X80912798Y-104971567D01*
X80859837Y-105146156D01*
X80773833Y-105307059D01*
X80658091Y-105448091D01*
X80517059Y-105563833D01*
X80356156Y-105649837D01*
X80181567Y-105702798D01*
X80181566Y-105702798D01*
X80181563Y-105702799D01*
X80045501Y-105716200D01*
X79954499Y-105716200D01*
X79818437Y-105702799D01*
X79818434Y-105702798D01*
X79818433Y-105702798D01*
X79643844Y-105649837D01*
X79482941Y-105563833D01*
X79341909Y-105448091D01*
X79226167Y-105307059D01*
X79140163Y-105146156D01*
X79087202Y-104971567D01*
X79087202Y-104971566D01*
X79087201Y-104971563D01*
X79069318Y-104790000D01*
X79087201Y-104608437D01*
X79140163Y-104433844D01*
X79204787Y-104312941D01*
X79226167Y-104272941D01*
X79341909Y-104131909D01*
X79482941Y-104016167D01*
X79643844Y-103930163D01*
X79818433Y-103877202D01*
X79818434Y-103877202D01*
X79818437Y-103877201D01*
X79954499Y-103863800D01*
X80045501Y-103863800D01*
X80181563Y-103877201D01*
X80181563Y-103877201D01*
G37*
G36*
X73931563Y-103877201D02*
X73931566Y-103877202D01*
X73931567Y-103877202D01*
X74106156Y-103930163D01*
X74267059Y-104016167D01*
X74408091Y-104131909D01*
X74523833Y-104272941D01*
X74545213Y-104312941D01*
X74609837Y-104433844D01*
X74662799Y-104608437D01*
X74680682Y-104790000D01*
X74662799Y-104971563D01*
X74662798Y-104971566D01*
X74662798Y-104971567D01*
X74609837Y-105146156D01*
X74523833Y-105307059D01*
X74408091Y-105448091D01*
X74267059Y-105563833D01*
X74106156Y-105649837D01*
X73931567Y-105702798D01*
X73931566Y-105702798D01*
X73931563Y-105702799D01*
X73795501Y-105716200D01*
X73704499Y-105716200D01*
X73568437Y-105702799D01*
X73568434Y-105702798D01*
X73568433Y-105702798D01*
X73393844Y-105649837D01*
X73232941Y-105563833D01*
X73091909Y-105448091D01*
X72976167Y-105307059D01*
X72890163Y-105146156D01*
X72837202Y-104971567D01*
X72837202Y-104971566D01*
X72837201Y-104971563D01*
X72819318Y-104790000D01*
X72837201Y-104608437D01*
X72890163Y-104433844D01*
X72954787Y-104312941D01*
X72976167Y-104272941D01*
X73091909Y-104131909D01*
X73232941Y-104016167D01*
X73393844Y-103930163D01*
X73568433Y-103877202D01*
X73568434Y-103877202D01*
X73568437Y-103877201D01*
X73704499Y-103863800D01*
X73795501Y-103863800D01*
X73931563Y-103877201D01*
X73931563Y-103877201D01*
G37*
G36*
X60075000Y-105470000D02*
X57995000Y-105470000D01*
X57995000Y-104840000D01*
X60075000Y-104840000D01*
X60075000Y-105470000D01*
X60075000Y-105470000D01*
G37*
G36*
X65005000Y-105470000D02*
X62925000Y-105470000D01*
X62925000Y-104840000D01*
X65005000Y-104840000D01*
X65005000Y-105470000D01*
X65005000Y-105470000D01*
G37*
G36*
X55026200Y-105026200D02*
X53973800Y-105026200D01*
X53973800Y-103673800D01*
X55026200Y-103673800D01*
X55026200Y-105026200D01*
X55026200Y-105026200D01*
G37*
G36*
X65005000Y-104200000D02*
X62925000Y-104200000D01*
X62925000Y-103570000D01*
X65005000Y-103570000D01*
X65005000Y-104200000D01*
X65005000Y-104200000D01*
G37*
G36*
X60075000Y-104200000D02*
X57995000Y-104200000D01*
X57995000Y-103570000D01*
X60075000Y-103570000D01*
X60075000Y-104200000D01*
X60075000Y-104200000D01*
G37*
G36*
X50931563Y-101377201D02*
X50931566Y-101377202D01*
X50931567Y-101377202D01*
X51106156Y-101430163D01*
X51267059Y-101516167D01*
X51267061Y-101516168D01*
X51267060Y-101516168D01*
X51408091Y-101631909D01*
X51523832Y-101772940D01*
X51609837Y-101933844D01*
X51662799Y-102108437D01*
X51680682Y-102290000D01*
X51662799Y-102471563D01*
X51662798Y-102471566D01*
X51662798Y-102471567D01*
X51609837Y-102646156D01*
X51523833Y-102807059D01*
X51408091Y-102948091D01*
X51267059Y-103063833D01*
X51106156Y-103149837D01*
X50931567Y-103202798D01*
X50931566Y-103202798D01*
X50931563Y-103202799D01*
X50795501Y-103216200D01*
X50704499Y-103216200D01*
X50568437Y-103202799D01*
X50568434Y-103202798D01*
X50568433Y-103202798D01*
X50393844Y-103149837D01*
X50232941Y-103063833D01*
X50091909Y-102948091D01*
X49976167Y-102807059D01*
X49890163Y-102646156D01*
X49837202Y-102471567D01*
X49837202Y-102471566D01*
X49837201Y-102471563D01*
X49819318Y-102290000D01*
X49837201Y-102108437D01*
X49890163Y-101933844D01*
X49976168Y-101772940D01*
X50091909Y-101631909D01*
X50232940Y-101516168D01*
X50232939Y-101516168D01*
X50232941Y-101516167D01*
X50393844Y-101430163D01*
X50568433Y-101377202D01*
X50568434Y-101377202D01*
X50568437Y-101377201D01*
X50704499Y-101363800D01*
X50795501Y-101363800D01*
X50931563Y-101377201D01*
X50931563Y-101377201D01*
G37*
G36*
X74676200Y-103176200D02*
X72823800Y-103176200D01*
X72823800Y-101323800D01*
X74676200Y-101323800D01*
X74676200Y-103176200D01*
X74676200Y-103176200D01*
G37*
G36*
X80926200Y-103176200D02*
X79073800Y-103176200D01*
X79073800Y-101323800D01*
X80926200Y-101323800D01*
X80926200Y-103176200D01*
X80926200Y-103176200D01*
G37*
G36*
X65005000Y-102930000D02*
X62925000Y-102930000D01*
X62925000Y-102300000D01*
X65005000Y-102300000D01*
X65005000Y-102930000D01*
X65005000Y-102930000D01*
G37*
G36*
X60075000Y-102930000D02*
X57995000Y-102930000D01*
X57995000Y-102300000D01*
X60075000Y-102300000D01*
X60075000Y-102930000D01*
X60075000Y-102930000D01*
G37*
G36*
X55026200Y-102826200D02*
X53973800Y-102826200D01*
X53973800Y-101473800D01*
X55026200Y-101473800D01*
X55026200Y-102826200D01*
X55026200Y-102826200D01*
G37*
G36*
X39326200Y-102326200D02*
X31173800Y-102326200D01*
X31173800Y-96173800D01*
X39326200Y-96173800D01*
X39326200Y-102326200D01*
X39326200Y-102326200D01*
G37*
G36*
X60075000Y-101660000D02*
X57995000Y-101660000D01*
X57995000Y-101030000D01*
X60075000Y-101030000D01*
X60075000Y-101660000D01*
X60075000Y-101660000D01*
G37*
G36*
X65005000Y-101660000D02*
X62925000Y-101660000D01*
X62925000Y-101030000D01*
X65005000Y-101030000D01*
X65005000Y-101660000D01*
X65005000Y-101660000D01*
G37*
G36*
X67676200Y-101576200D02*
X66923800Y-101576200D01*
X66923800Y-100923800D01*
X67676200Y-100923800D01*
X67676200Y-101576200D01*
X67676200Y-101576200D01*
G37*
G36*
X66576200Y-101576200D02*
X65823800Y-101576200D01*
X65823800Y-100923800D01*
X66576200Y-100923800D01*
X66576200Y-101576200D01*
X66576200Y-101576200D01*
G37*
G36*
X51676200Y-100676200D02*
X49823800Y-100676200D01*
X49823800Y-98823800D01*
X51676200Y-98823800D01*
X51676200Y-100676200D01*
X51676200Y-100676200D01*
G37*
G36*
X45876200Y-99776200D02*
X44123800Y-99776200D01*
X44123800Y-96123800D01*
X45876200Y-96123800D01*
X45876200Y-99776200D01*
X45876200Y-99776200D01*
G37*
G36*
X71990994Y-97705550D02*
X72141353Y-97767831D01*
X72276672Y-97858248D01*
X72391752Y-97973328D01*
X72482169Y-98108647D01*
X72544450Y-98259006D01*
X72576200Y-98418626D01*
X72576200Y-98581374D01*
X72544450Y-98740994D01*
X72482169Y-98891353D01*
X72391752Y-99026672D01*
X72276672Y-99141752D01*
X72141353Y-99232169D01*
X71990994Y-99294450D01*
X71831374Y-99326200D01*
X71668626Y-99326200D01*
X71509006Y-99294450D01*
X71358647Y-99232169D01*
X71223328Y-99141752D01*
X71108248Y-99026672D01*
X71017831Y-98891353D01*
X70955550Y-98740994D01*
X70923800Y-98581374D01*
X70923800Y-98418626D01*
X70955550Y-98259006D01*
X71017831Y-98108647D01*
X71108248Y-97973328D01*
X71223328Y-97858248D01*
X71358647Y-97767831D01*
X71509006Y-97705550D01*
X71668626Y-97673800D01*
X71831374Y-97673800D01*
X71990994Y-97705550D01*
X71990994Y-97705550D01*
G37*
G36*
X85181563Y-93627201D02*
X85181566Y-93627202D01*
X85181567Y-93627202D01*
X85356156Y-93680163D01*
X85517059Y-93766167D01*
X85517061Y-93766168D01*
X85517060Y-93766168D01*
X85658091Y-93881909D01*
X85773832Y-94022940D01*
X85859837Y-94183844D01*
X85912799Y-94358437D01*
X85930682Y-94540000D01*
X85912799Y-94721563D01*
X85912798Y-94721566D01*
X85912798Y-94721567D01*
X85859837Y-94896156D01*
X85773833Y-95057059D01*
X85658091Y-95198091D01*
X85517059Y-95313833D01*
X85356156Y-95399837D01*
X85181567Y-95452798D01*
X85181566Y-95452798D01*
X85181563Y-95452799D01*
X85045501Y-95466200D01*
X84954499Y-95466200D01*
X84818437Y-95452799D01*
X84818434Y-95452798D01*
X84818433Y-95452798D01*
X84643844Y-95399837D01*
X84482941Y-95313833D01*
X84341909Y-95198091D01*
X84226167Y-95057059D01*
X84140163Y-94896156D01*
X84087202Y-94721567D01*
X84087202Y-94721566D01*
X84087201Y-94721563D01*
X84069318Y-94540000D01*
X84087201Y-94358437D01*
X84140163Y-94183844D01*
X84226168Y-94022940D01*
X84341909Y-93881909D01*
X84482940Y-93766168D01*
X84482939Y-93766168D01*
X84482941Y-93766167D01*
X84643844Y-93680163D01*
X84818433Y-93627202D01*
X84818434Y-93627202D01*
X84818437Y-93627201D01*
X84954499Y-93613800D01*
X85045501Y-93613800D01*
X85181563Y-93627201D01*
X85181563Y-93627201D01*
G37*
G36*
X45876200Y-94376200D02*
X44123800Y-94376200D01*
X44123800Y-90723800D01*
X45876200Y-90723800D01*
X45876200Y-94376200D01*
X45876200Y-94376200D01*
G37*
G36*
X39326200Y-94326200D02*
X31173800Y-94326200D01*
X31173800Y-88173800D01*
X39326200Y-88173800D01*
X39326200Y-94326200D01*
X39326200Y-94326200D01*
G37*
G36*
X85926200Y-92926200D02*
X84073800Y-92926200D01*
X84073800Y-91073800D01*
X85926200Y-91073800D01*
X85926200Y-92926200D01*
X85926200Y-92926200D01*
G37*
G36*
X53376200Y-91776200D02*
X51623800Y-91776200D01*
X51623800Y-88623800D01*
X53376200Y-88623800D01*
X53376200Y-91776200D01*
X53376200Y-91776200D01*
G37*
G36*
X78626200Y-90026200D02*
X76873800Y-90026200D01*
X76873800Y-86873800D01*
X78626200Y-86873800D01*
X78626200Y-90026200D01*
X78626200Y-90026200D01*
G37*
G36*
X71276200Y-89776200D02*
X70223800Y-89776200D01*
X70223800Y-88423800D01*
X71276200Y-88423800D01*
X71276200Y-89776200D01*
X71276200Y-89776200D01*
G37*
G36*
X62000000Y-89585000D02*
X60800000Y-89585000D01*
X60800000Y-88725000D01*
X62000000Y-88725000D01*
X62000000Y-89585000D01*
X62000000Y-89585000D01*
G37*
G36*
X67700000Y-89585000D02*
X66500000Y-89585000D01*
X66500000Y-88725000D01*
X67700000Y-88725000D01*
X67700000Y-89585000D01*
X67700000Y-89585000D01*
G37*
G36*
X73626200Y-88976200D02*
X72873800Y-88976200D01*
X72873800Y-88423800D01*
X73626200Y-88423800D01*
X73626200Y-88976200D01*
X73626200Y-88976200D01*
G37*
G36*
X84990994Y-86955550D02*
X85141353Y-87017831D01*
X85276672Y-87108248D01*
X85391752Y-87223328D01*
X85482169Y-87358647D01*
X85544450Y-87509006D01*
X85576200Y-87668626D01*
X85576200Y-87831374D01*
X85544450Y-87990994D01*
X85482169Y-88141353D01*
X85391752Y-88276672D01*
X85276672Y-88391752D01*
X85141353Y-88482169D01*
X84990994Y-88544450D01*
X84831374Y-88576200D01*
X84668626Y-88576200D01*
X84509006Y-88544450D01*
X84358647Y-88482169D01*
X84223328Y-88391752D01*
X84108248Y-88276672D01*
X84017831Y-88141353D01*
X83955550Y-87990994D01*
X83923800Y-87831374D01*
X83923800Y-87668626D01*
X83955550Y-87509006D01*
X84017831Y-87358647D01*
X84108248Y-87223328D01*
X84223328Y-87108248D01*
X84358647Y-87017831D01*
X84509006Y-86955550D01*
X84668626Y-86923800D01*
X84831374Y-86923800D01*
X84990994Y-86955550D01*
X84990994Y-86955550D01*
G37*
G36*
X67700000Y-88315000D02*
X66500000Y-88315000D01*
X66500000Y-87455000D01*
X67700000Y-87455000D01*
X67700000Y-88315000D01*
X67700000Y-88315000D01*
G37*
G36*
X62000000Y-88315000D02*
X60800000Y-88315000D01*
X60800000Y-87455000D01*
X62000000Y-87455000D01*
X62000000Y-88315000D01*
X62000000Y-88315000D01*
G37*
G36*
X73626200Y-88076200D02*
X72873800Y-88076200D01*
X72873800Y-87523800D01*
X73626200Y-87523800D01*
X73626200Y-88076200D01*
X73626200Y-88076200D01*
G37*
G36*
X69576200Y-87926200D02*
X68923800Y-87926200D01*
X68923800Y-87173800D01*
X69576200Y-87173800D01*
X69576200Y-87926200D01*
X69576200Y-87926200D01*
G37*
G36*
X71276200Y-87576200D02*
X70223800Y-87576200D01*
X70223800Y-86223800D01*
X71276200Y-86223800D01*
X71276200Y-87576200D01*
X71276200Y-87576200D01*
G37*
G36*
X53376200Y-87376200D02*
X51623800Y-87376200D01*
X51623800Y-84223800D01*
X53376200Y-84223800D01*
X53376200Y-87376200D01*
X53376200Y-87376200D01*
G37*
G36*
X67700000Y-87045000D02*
X66500000Y-87045000D01*
X66500000Y-86185000D01*
X67700000Y-86185000D01*
X67700000Y-87045000D01*
X67700000Y-87045000D01*
G37*
G36*
X62000000Y-87045000D02*
X60800000Y-87045000D01*
X60800000Y-86185000D01*
X62000000Y-86185000D01*
X62000000Y-87045000D01*
X62000000Y-87045000D01*
G37*
G36*
X73976200Y-86926200D02*
X72523800Y-86926200D01*
X72523800Y-85273800D01*
X73976200Y-85273800D01*
X73976200Y-86926200D01*
X73976200Y-86926200D01*
G37*
G36*
X69576200Y-86826200D02*
X68923800Y-86826200D01*
X68923800Y-86073800D01*
X69576200Y-86073800D01*
X69576200Y-86826200D01*
X69576200Y-86826200D01*
G37*
G36*
X62000000Y-85775000D02*
X60800000Y-85775000D01*
X60800000Y-84915000D01*
X62000000Y-84915000D01*
X62000000Y-85775000D01*
X62000000Y-85775000D01*
G37*
G36*
X67700000Y-85775000D02*
X66500000Y-85775000D01*
X66500000Y-84915000D01*
X67700000Y-84915000D01*
X67700000Y-85775000D01*
X67700000Y-85775000D01*
G37*
G36*
X78626200Y-85626200D02*
X76873800Y-85626200D01*
X76873800Y-82473800D01*
X78626200Y-82473800D01*
X78626200Y-85626200D01*
X78626200Y-85626200D01*
G37*
G36*
X73976200Y-84226200D02*
X72523800Y-84226200D01*
X72523800Y-82573800D01*
X73976200Y-82573800D01*
X73976200Y-84226200D01*
X73976200Y-84226200D01*
G37*
G36*
X60951200Y-83626200D02*
X60048800Y-83626200D01*
X60048800Y-82273800D01*
X60951200Y-82273800D01*
X60951200Y-83626200D01*
X60951200Y-83626200D01*
G37*
G36*
X64926200Y-82376200D02*
X61923800Y-82376200D01*
X61923800Y-75623800D01*
X64926200Y-75623800D01*
X64926200Y-82376200D01*
X64926200Y-82376200D01*
G37*
G36*
X70576200Y-82376200D02*
X67573800Y-82376200D01*
X67573800Y-75623800D01*
X70576200Y-75623800D01*
X70576200Y-82376200D01*
X70576200Y-82376200D01*
G37*
G36*
X60951200Y-81726200D02*
X60048800Y-81726200D01*
X60048800Y-80373800D01*
X60951200Y-80373800D01*
X60951200Y-81726200D01*
X60951200Y-81726200D01*
G37*
G36*
X51174820Y-81725930D02*
X48523060Y-81725930D01*
X48523060Y-78274070D01*
X51174820Y-78274070D01*
X51174820Y-81725930D01*
X51174820Y-81725930D01*
G37*
G36*
X57976940Y-81725930D02*
X55325180Y-81725930D01*
X55325180Y-78274070D01*
X57976940Y-78274070D01*
X57976940Y-81725930D01*
X57976940Y-81725930D01*
G37*
G36*
X88795205Y-75378566D02*
X89291338Y-75584071D01*
X89737852Y-75882423D01*
X90117577Y-76262148D01*
X90415929Y-76708662D01*
X90621434Y-77204795D01*
X90726200Y-77731493D01*
X90726200Y-78268507D01*
X90621434Y-78795205D01*
X90415929Y-79291338D01*
X90117577Y-79737852D01*
X89737852Y-80117577D01*
X89291338Y-80415929D01*
X88795205Y-80621434D01*
X88268507Y-80726200D01*
X87731493Y-80726200D01*
X87204795Y-80621434D01*
X86708662Y-80415929D01*
X86262148Y-80117577D01*
X85882423Y-79737852D01*
X85584071Y-79291338D01*
X85378566Y-78795205D01*
X85273800Y-78268507D01*
X85273800Y-77731493D01*
X85378566Y-77204795D01*
X85584071Y-76708662D01*
X85882423Y-76262148D01*
X86262148Y-75882423D01*
X86708662Y-75584071D01*
X87204795Y-75378566D01*
X87731493Y-75273800D01*
X88268507Y-75273800D01*
X88795205Y-75378566D01*
X88795205Y-75378566D01*
G37*
G36*
X36795205Y-75378566D02*
X37291338Y-75584071D01*
X37737852Y-75882423D01*
X38117577Y-76262148D01*
X38415929Y-76708662D01*
X38621434Y-77204795D01*
X38726200Y-77731493D01*
X38726200Y-78268507D01*
X38621434Y-78795205D01*
X38415929Y-79291338D01*
X38117577Y-79737852D01*
X37737852Y-80117577D01*
X37291338Y-80415929D01*
X36795205Y-80621434D01*
X36268507Y-80726200D01*
X35731493Y-80726200D01*
X35204795Y-80621434D01*
X34708662Y-80415929D01*
X34262148Y-80117577D01*
X33882423Y-79737852D01*
X33584071Y-79291338D01*
X33378566Y-78795205D01*
X33273800Y-78268507D01*
X33273800Y-77731493D01*
X33378566Y-77204795D01*
X33584071Y-76708662D01*
X33882423Y-76262148D01*
X34262148Y-75882423D01*
X34708662Y-75584071D01*
X35204795Y-75378566D01*
X35731493Y-75273800D01*
X36268507Y-75273800D01*
X36795205Y-75378566D01*
X36795205Y-75378566D01*
G37*
G36*
X79776200Y-79126200D02*
X76623800Y-79126200D01*
X76623800Y-77373800D01*
X79776200Y-77373800D01*
X79776200Y-79126200D01*
X79776200Y-79126200D01*
G37*
G36*
X75376200Y-79126200D02*
X72223800Y-79126200D01*
X72223800Y-77373800D01*
X75376200Y-77373800D01*
X75376200Y-79126200D01*
X75376200Y-79126200D01*
G37*
M02*
