G04 #@! TF.GenerationSoftware,KiCad,Pcbnew,5.0.0*
G04 #@! TF.CreationDate,2018-09-03T16:34:48-04:00*
G04 #@! TF.ProjectId,controller,636F6E74726F6C6C65722E6B69636164,rev?*
G04 #@! TF.SameCoordinates,Original*
G04 #@! TF.FileFunction,Copper,L2,Bot,Signal*
G04 #@! TF.FilePolarity,Positive*
%FSLAX46Y46*%
G04 Gerber Fmt 4.6, Leading zero omitted, Abs format (unit mm)*
G04 Created by KiCad (PCBNEW 5.0.0) date Mon Sep  3 16:34:48 2018*
%MOMM*%
%LPD*%
G01*
G04 APERTURE LIST*
G04 #@! TA.AperFunction,SMDPad,CuDef*
%ADD10R,0.500000X0.600000*%
G04 #@! TD*
G04 #@! TA.AperFunction,SMDPad,CuDef*
%ADD11R,0.600000X0.500000*%
G04 #@! TD*
G04 #@! TA.AperFunction,SMDPad,CuDef*
%ADD12R,1.200000X0.750000*%
G04 #@! TD*
G04 #@! TA.AperFunction,SMDPad,CuDef*
%ADD13R,0.750000X1.200000*%
G04 #@! TD*
G04 #@! TA.AperFunction,SMDPad,CuDef*
%ADD14R,1.250000X1.500000*%
G04 #@! TD*
G04 #@! TA.AperFunction,ComponentPad*
%ADD15C,1.000000*%
G04 #@! TD*
G04 #@! TA.AperFunction,SMDPad,CuDef*
%ADD16R,2.200000X1.825000*%
G04 #@! TD*
G04 #@! TA.AperFunction,SMDPad,CuDef*
%ADD17R,0.600000X0.400000*%
G04 #@! TD*
G04 #@! TA.AperFunction,SMDPad,CuDef*
%ADD18R,0.900000X1.200000*%
G04 #@! TD*
G04 #@! TA.AperFunction,ComponentPad*
%ADD19R,1.700000X1.700000*%
G04 #@! TD*
G04 #@! TA.AperFunction,ComponentPad*
%ADD20R,1.000000X1.000000*%
G04 #@! TD*
G04 #@! TA.AperFunction,ComponentPad*
%ADD21O,1.000000X1.000000*%
G04 #@! TD*
G04 #@! TA.AperFunction,SMDPad,CuDef*
%ADD22R,1.560000X0.650000*%
G04 #@! TD*
G04 #@! TA.AperFunction,SMDPad,CuDef*
%ADD23R,0.300000X0.400000*%
G04 #@! TD*
G04 #@! TA.AperFunction,SMDPad,CuDef*
%ADD24R,0.400000X0.300000*%
G04 #@! TD*
G04 #@! TA.AperFunction,ViaPad*
%ADD25C,0.685800*%
G04 #@! TD*
G04 #@! TA.AperFunction,ViaPad*
%ADD26C,0.508000*%
G04 #@! TD*
G04 #@! TA.AperFunction,Conductor*
%ADD27C,0.254000*%
G04 #@! TD*
G04 #@! TA.AperFunction,Conductor*
%ADD28C,0.508000*%
G04 #@! TD*
G04 #@! TA.AperFunction,Conductor*
%ADD29C,0.152400*%
G04 #@! TD*
G04 APERTURE END LIST*
D10*
G04 #@! TO.P,C16,2*
G04 #@! TO.N,Net-(C14-Pad2)*
X36534053Y-56081676D03*
G04 #@! TO.P,C16,1*
G04 #@! TO.N,GND*
X36534053Y-57181676D03*
G04 #@! TD*
G04 #@! TO.P,C15,1*
G04 #@! TO.N,GND*
X35734053Y-57181676D03*
G04 #@! TO.P,C15,2*
G04 #@! TO.N,Net-(C14-Pad2)*
X35734053Y-56081676D03*
G04 #@! TD*
G04 #@! TO.P,C14,2*
G04 #@! TO.N,Net-(C14-Pad2)*
X34900000Y-56100000D03*
G04 #@! TO.P,C14,1*
G04 #@! TO.N,GND*
X34900000Y-57200000D03*
G04 #@! TD*
D11*
G04 #@! TO.P,C6,2*
G04 #@! TO.N,/+VAUX*
X74750000Y-54300000D03*
G04 #@! TO.P,C6,1*
G04 #@! TO.N,GND*
X73650000Y-54300000D03*
G04 #@! TD*
G04 #@! TO.P,C5,1*
G04 #@! TO.N,GND*
X73650000Y-55100000D03*
G04 #@! TO.P,C5,2*
G04 #@! TO.N,/+VAUX*
X74750000Y-55100000D03*
G04 #@! TD*
D12*
G04 #@! TO.P,C7,2*
G04 #@! TO.N,GND*
X72800000Y-53400000D03*
G04 #@! TO.P,C7,1*
G04 #@! TO.N,/+VAUX*
X74700000Y-53400000D03*
G04 #@! TD*
D13*
G04 #@! TO.P,C8,1*
G04 #@! TO.N,/+VBAT*
X42800000Y-55750000D03*
G04 #@! TO.P,C8,2*
G04 #@! TO.N,GND*
X42800000Y-53850000D03*
G04 #@! TD*
G04 #@! TO.P,C3,2*
G04 #@! TO.N,GND*
X56157516Y-57872111D03*
G04 #@! TO.P,C3,1*
G04 #@! TO.N,/+VAUX*
X56157516Y-55972111D03*
G04 #@! TD*
D14*
G04 #@! TO.P,C4,2*
G04 #@! TO.N,GND*
X65957516Y-58372111D03*
G04 #@! TO.P,C4,1*
G04 #@! TO.N,/+5V*
X65957516Y-55872111D03*
G04 #@! TD*
D15*
G04 #@! TO.P,Y1,2*
G04 #@! TO.N,Net-(C11-Pad1)*
X46200000Y-52100000D03*
G04 #@! TO.P,Y1,1*
G04 #@! TO.N,Net-(C10-Pad1)*
X46200000Y-54000000D03*
G04 #@! TD*
D16*
G04 #@! TO.P,L1,2*
G04 #@! TO.N,Net-(L1-Pad2)*
X58457516Y-58209611D03*
G04 #@! TO.P,L1,1*
G04 #@! TO.N,/+VAUX*
X58457516Y-55634611D03*
G04 #@! TD*
D17*
G04 #@! TO.P,R6,2*
G04 #@! TO.N,/SCL*
X41600000Y-53350000D03*
G04 #@! TO.P,R6,1*
G04 #@! TO.N,/+VBAT*
X41600000Y-54250000D03*
G04 #@! TD*
G04 #@! TO.P,R7,2*
G04 #@! TO.N,/+VBAT*
X40600000Y-54250000D03*
G04 #@! TO.P,R7,1*
G04 #@! TO.N,/SDA*
X40600000Y-53350000D03*
G04 #@! TD*
D18*
G04 #@! TO.P,R2,1*
G04 #@! TO.N,/+VBAT*
X33500000Y-55500000D03*
G04 #@! TO.P,R2,2*
G04 #@! TO.N,/BOOT_EN*
X33500000Y-53300000D03*
G04 #@! TD*
D19*
G04 #@! TO.P,J1,1*
G04 #@! TO.N,/CAP*
X44600000Y-58000000D03*
G04 #@! TD*
D20*
G04 #@! TO.P,J2,1*
G04 #@! TO.N,Net-(J2-Pad1)*
X29000000Y-51900000D03*
D21*
G04 #@! TO.P,J2,2*
G04 #@! TO.N,GND*
X30270000Y-51900000D03*
G04 #@! TD*
G04 #@! TO.P,D1,2*
G04 #@! TO.N,/+5V*
X67980000Y-58000000D03*
D20*
G04 #@! TO.P,D1,1*
G04 #@! TO.N,Net-(D1-Pad1)*
X69250000Y-58000000D03*
G04 #@! TD*
D21*
G04 #@! TO.P,J3,3*
G04 #@! TO.N,GND*
X32140000Y-58300000D03*
G04 #@! TO.P,J3,2*
G04 #@! TO.N,Net-(J3-Pad2)*
X30870000Y-58300000D03*
D20*
G04 #@! TO.P,J3,1*
G04 #@! TO.N,Net-(J3-Pad1)*
X29600000Y-58300000D03*
G04 #@! TD*
D21*
G04 #@! TO.P,J4,4*
G04 #@! TO.N,GND*
X47930000Y-58270000D03*
G04 #@! TO.P,J4,3*
G04 #@! TO.N,/SBWTCK*
X49200000Y-58270000D03*
G04 #@! TO.P,J4,2*
G04 #@! TO.N,/SBWTDIO*
X47930000Y-57000000D03*
D20*
G04 #@! TO.P,J4,1*
G04 #@! TO.N,/+VBAT*
X49200000Y-57000000D03*
G04 #@! TD*
D22*
G04 #@! TO.P,U1,5*
G04 #@! TO.N,Net-(U1-Pad5)*
X63807516Y-57972111D03*
G04 #@! TO.P,U1,4*
G04 #@! TO.N,/+5V*
X63807516Y-56072111D03*
G04 #@! TO.P,U1,3*
G04 #@! TO.N,Net-(U1-Pad3)*
X61107516Y-56072111D03*
G04 #@! TO.P,U1,2*
G04 #@! TO.N,GND*
X61107516Y-57022111D03*
G04 #@! TO.P,U1,1*
G04 #@! TO.N,Net-(L1-Pad2)*
X61107516Y-57972111D03*
G04 #@! TD*
D23*
G04 #@! TO.P,U2,1*
G04 #@! TO.N,/SCL*
X74850000Y-58000000D03*
G04 #@! TO.P,U2,2*
G04 #@! TO.N,Net-(R5-Pad1)*
X74350000Y-58000000D03*
G04 #@! TO.P,U2,3*
G04 #@! TO.N,Net-(U2-Pad3)*
X73850000Y-58000000D03*
G04 #@! TO.P,U2,4*
G04 #@! TO.N,/SDA*
X73350000Y-58000000D03*
D24*
G04 #@! TO.P,U2,5*
G04 #@! TO.N,GND*
X73300000Y-57450000D03*
G04 #@! TO.P,U2,6*
X73300000Y-56950000D03*
D23*
G04 #@! TO.P,U2,7*
X73350000Y-56400000D03*
G04 #@! TO.P,U2,8*
X73850000Y-56400000D03*
G04 #@! TO.P,U2,9*
G04 #@! TO.N,/+VAUX*
X74350000Y-56400000D03*
G04 #@! TO.P,U2,10*
X74850000Y-56400000D03*
D24*
G04 #@! TO.P,U2,11*
G04 #@! TO.N,Net-(U2-Pad11)*
X74900000Y-56950000D03*
G04 #@! TO.P,U2,12*
G04 #@! TO.N,Net-(U2-Pad12)*
X74900000Y-57450000D03*
G04 #@! TD*
D25*
G04 #@! TO.N,/+VBAT*
X33500000Y-55500000D03*
D26*
X42908961Y-55466590D03*
X48647598Y-55439598D03*
D25*
G04 #@! TO.N,GND*
X28150000Y-55900000D03*
D26*
X44800000Y-54750000D03*
X51600000Y-58550000D03*
X39800000Y-54800000D03*
X39800000Y-55700000D03*
X37250000Y-57150000D03*
X36700000Y-58617390D03*
X56157516Y-57872111D03*
X65957516Y-58372111D03*
X68750000Y-53400000D03*
X39100000Y-53700000D03*
X47800000Y-54950000D03*
X55503115Y-54196885D03*
X56500000Y-51850000D03*
X72600000Y-53000000D03*
G04 #@! TO.N,/SCL*
X42251633Y-52477521D03*
X65100000Y-51854009D03*
X75100000Y-51750000D03*
G04 #@! TO.N,/SDA*
X40732099Y-51991894D03*
X66750000Y-51450000D03*
G04 #@! TO.N,Net-(R8-Pad2)*
X39100000Y-51500000D03*
X59250000Y-51250000D03*
G04 #@! TO.N,/BOOT_EN*
X34500000Y-52300000D03*
G04 #@! TO.N,/LED_EN*
X34850000Y-53750000D03*
X34050000Y-57500000D03*
X40900000Y-58550000D03*
X49550000Y-55300000D03*
G04 #@! TO.N,Net-(C14-Pad2)*
X36756402Y-56081676D03*
G04 #@! TO.N,/+VAUX*
X56350000Y-54350000D03*
X74700000Y-53400000D03*
X56350000Y-52850000D03*
G04 #@! TO.N,Net-(R5-Pad1)*
X74100000Y-57250000D03*
G04 #@! TO.N,/+5V*
X65957516Y-55872111D03*
G04 #@! TD*
D27*
G04 #@! TO.N,/+VBAT*
X40600000Y-54250000D02*
X41600000Y-54250000D01*
X41600000Y-54250000D02*
X41700000Y-54250000D01*
X42908961Y-55458961D02*
X42908961Y-55466590D01*
D28*
X43268171Y-55466590D02*
X42908961Y-55466590D01*
X49200000Y-55992000D02*
X48647598Y-55439598D01*
X43295163Y-55439598D02*
X43268171Y-55466590D01*
X49200000Y-57000000D02*
X49200000Y-55992000D01*
D29*
X43142950Y-55232601D02*
X42908961Y-55466590D01*
X45282601Y-54981649D02*
X45031649Y-55232601D01*
X45031649Y-55232601D02*
X43142950Y-55232601D01*
X45282601Y-54518351D02*
X45282601Y-54981649D01*
X45031649Y-54267399D02*
X45282601Y-54518351D01*
X41700000Y-54250000D02*
X42196399Y-53753601D01*
X42196399Y-53753601D02*
X42196399Y-53103601D01*
X42300000Y-53000000D02*
X43336482Y-53000000D01*
X43336482Y-53000000D02*
X44603881Y-54267399D01*
X42196399Y-53103601D02*
X42300000Y-53000000D01*
X44603881Y-54267399D02*
X45031649Y-54267399D01*
D28*
X42654962Y-55720589D02*
X42908961Y-55466590D01*
X32542000Y-56608000D02*
X32542000Y-57069396D01*
X34566994Y-58410402D02*
X35070995Y-57906401D01*
X33500000Y-55500000D02*
X33500000Y-55650000D01*
X33883006Y-58410402D02*
X34566994Y-58410402D01*
X35070995Y-57906401D02*
X40469150Y-57906401D01*
X33500000Y-55650000D02*
X32542000Y-56608000D01*
X40469150Y-57906401D02*
X42654962Y-55720589D01*
X32542000Y-57069396D02*
X33883006Y-58410402D01*
G04 #@! TO.N,GND*
X30270000Y-53780000D02*
X30270000Y-51900000D01*
X28150000Y-55900000D02*
X30270000Y-53780000D01*
D27*
X43700000Y-54750000D02*
X42800000Y-53850000D01*
X44800000Y-54750000D02*
X43700000Y-54750000D01*
X51100599Y-59049401D02*
X51600000Y-58550000D01*
X48709401Y-59049401D02*
X51100599Y-59049401D01*
X47930000Y-58270000D02*
X48709401Y-59049401D01*
X41079000Y-54800000D02*
X39800000Y-54800000D01*
X42075000Y-54800000D02*
X41079000Y-54800000D01*
X42800000Y-54075000D02*
X42075000Y-54800000D01*
X42800000Y-53850000D02*
X42800000Y-54075000D01*
X39800000Y-54800000D02*
X39800000Y-55700000D01*
X29740000Y-55900000D02*
X28150000Y-55900000D01*
X36565729Y-57150000D02*
X36534053Y-57181676D01*
X37250000Y-57150000D02*
X36565729Y-57150000D01*
X35734053Y-57181676D02*
X36534053Y-57181676D01*
X35715729Y-57200000D02*
X35734053Y-57181676D01*
X34900000Y-57200000D02*
X35715729Y-57200000D01*
X36446001Y-58871389D02*
X36700000Y-58617390D01*
X36373577Y-58943813D02*
X36446001Y-58871389D01*
X32140000Y-58300000D02*
X32783813Y-58943813D01*
X32783813Y-58943813D02*
X36373577Y-58943813D01*
X60073516Y-57022111D02*
X61107516Y-57022111D01*
X56786917Y-57017710D02*
X60069115Y-57017710D01*
X60069115Y-57017710D02*
X60073516Y-57022111D01*
X56157516Y-57647111D02*
X56786917Y-57017710D01*
X56157516Y-57872111D02*
X56157516Y-57647111D01*
D28*
X30769999Y-51400001D02*
X34800001Y-51400001D01*
X30270000Y-51900000D02*
X30769999Y-51400001D01*
X38200000Y-54800000D02*
X39800000Y-54800000D01*
X34800001Y-51400001D02*
X38200000Y-54800000D01*
X36700000Y-58617390D02*
X39267390Y-58617390D01*
X46943599Y-59256401D02*
X47430001Y-58769999D01*
X47430001Y-58769999D02*
X47930000Y-58270000D01*
X39906401Y-59256401D02*
X46943599Y-59256401D01*
X39267390Y-58617390D02*
X39906401Y-59256401D01*
X55479627Y-58550000D02*
X56157516Y-57872111D01*
X51600000Y-58550000D02*
X55479627Y-58550000D01*
D27*
X73650000Y-56200000D02*
X73850000Y-56400000D01*
X73650000Y-55100000D02*
X73650000Y-56200000D01*
X73650000Y-56100000D02*
X73350000Y-56400000D01*
X73650000Y-55100000D02*
X73650000Y-56100000D01*
X73300000Y-56450000D02*
X73350000Y-56400000D01*
X73300000Y-56950000D02*
X73300000Y-56450000D01*
X73300000Y-57450000D02*
X73300000Y-56950000D01*
X73650000Y-55100000D02*
X73650000Y-54300000D01*
X73650000Y-54250000D02*
X72800000Y-53400000D01*
X73650000Y-54300000D02*
X73650000Y-54250000D01*
X56157516Y-57647111D02*
X55503115Y-56992710D01*
X55503115Y-54196885D02*
X56300000Y-53400000D01*
X55503115Y-56992710D02*
X55503115Y-54196885D01*
X56300000Y-53400000D02*
X68750000Y-53400000D01*
X68750000Y-53400000D02*
X72800000Y-53400000D01*
X39800000Y-54800000D02*
X39800000Y-54400000D01*
X39800000Y-54400000D02*
X39100000Y-53700000D01*
X47150599Y-55599401D02*
X47800000Y-54950000D01*
X47150599Y-57490599D02*
X47150599Y-55599401D01*
X47930000Y-58270000D02*
X47150599Y-57490599D01*
D29*
X55503115Y-52846885D02*
X56500000Y-51850000D01*
X55503115Y-54196885D02*
X55503115Y-52846885D01*
D27*
X72600000Y-53200000D02*
X72800000Y-53400000D01*
X72600000Y-53000000D02*
X72600000Y-53200000D01*
G04 #@! TO.N,/SCL*
X41600000Y-53350000D02*
X41600000Y-52896000D01*
X42018479Y-52477521D02*
X42251633Y-52477521D01*
X41600000Y-52896000D02*
X42018479Y-52477521D01*
X75254000Y-58000000D02*
X75900000Y-57354000D01*
X74850000Y-58000000D02*
X75254000Y-58000000D01*
X75900000Y-57354000D02*
X75900000Y-52550000D01*
X75900000Y-52550000D02*
X75100000Y-51750000D01*
D29*
X57192094Y-52187413D02*
X64766596Y-52187413D01*
X56731650Y-51367398D02*
X56982602Y-51618350D01*
X56982602Y-51618350D02*
X56982602Y-51977921D01*
X42251633Y-52477521D02*
X43361756Y-51367398D01*
X43361756Y-51367398D02*
X56731650Y-51367398D01*
X64846001Y-52108008D02*
X65100000Y-51854009D01*
X64766596Y-52187413D02*
X64846001Y-52108008D01*
X56982602Y-51977921D02*
X57192094Y-52187413D01*
D27*
G04 #@! TO.N,/SDA*
X40600000Y-53350000D02*
X40600000Y-52123993D01*
X40600000Y-52123993D02*
X40732099Y-51991894D01*
X76350000Y-52210564D02*
X76350000Y-58250000D01*
X73350000Y-58454000D02*
X73350000Y-58000000D01*
X75335437Y-51196001D02*
X76350000Y-52210564D01*
X67003999Y-51196001D02*
X75335437Y-51196001D01*
X66750000Y-51450000D02*
X67003999Y-51196001D01*
X76120599Y-58479401D02*
X76350000Y-58250000D01*
X73375401Y-58479401D02*
X76120599Y-58479401D01*
X73350000Y-58454000D02*
X73375401Y-58479401D01*
D29*
X58466586Y-51062587D02*
X58600000Y-51196001D01*
X41661406Y-51062587D02*
X58466586Y-51062587D01*
X40732099Y-51991894D02*
X41661406Y-51062587D01*
X58518251Y-51196001D02*
X58600000Y-51196001D01*
X60918249Y-51196001D02*
X66496001Y-51196001D01*
X66496001Y-51196001D02*
X66750000Y-51450000D01*
X60381649Y-51732601D02*
X60918249Y-51196001D01*
X59018351Y-51732601D02*
X60381649Y-51732601D01*
X58600000Y-51314250D02*
X59018351Y-51732601D01*
X58600000Y-51196001D02*
X58600000Y-51314250D01*
G04 #@! TO.N,Net-(R8-Pad2)*
X39100000Y-51500000D02*
X39965210Y-50634790D01*
X58634790Y-50634790D02*
X59250000Y-51250000D01*
X39965210Y-50634790D02*
X58634790Y-50634790D01*
D27*
G04 #@! TO.N,/BOOT_EN*
X33500000Y-53300000D02*
X34500000Y-52300000D01*
D29*
G04 #@! TO.N,/LED_EN*
X34178601Y-57371399D02*
X34050000Y-57500000D01*
X34178601Y-54421399D02*
X34178601Y-57371399D01*
X34850000Y-53750000D02*
X34178601Y-54421399D01*
X48667398Y-54417398D02*
X49296001Y-55046001D01*
X45064349Y-56921399D02*
X47568350Y-54417398D01*
X40900000Y-58550000D02*
X42528601Y-56921399D01*
X47568350Y-54417398D02*
X48667398Y-54417398D01*
X49296001Y-55046001D02*
X49550000Y-55300000D01*
X42528601Y-56921399D02*
X45064349Y-56921399D01*
D27*
G04 #@! TO.N,Net-(C14-Pad2)*
X35715729Y-56100000D02*
X35734053Y-56081676D01*
X34900000Y-56100000D02*
X35715729Y-56100000D01*
X35734053Y-56081676D02*
X36534053Y-56081676D01*
D28*
G04 #@! TO.N,/+VAUX*
X56350000Y-55779627D02*
X56157516Y-55972111D01*
X56350000Y-54350000D02*
X56350000Y-55779627D01*
X56495016Y-55634611D02*
X56157516Y-55972111D01*
X58457516Y-55634611D02*
X56495016Y-55634611D01*
D27*
X74750000Y-56300000D02*
X74850000Y-56400000D01*
X74750000Y-55100000D02*
X74750000Y-56300000D01*
X74350000Y-55500000D02*
X74750000Y-55100000D01*
X74350000Y-56400000D02*
X74350000Y-55500000D01*
X74700000Y-54250000D02*
X74750000Y-54300000D01*
X74700000Y-53400000D02*
X74700000Y-54250000D01*
X74750000Y-54300000D02*
X74750000Y-55100000D01*
D28*
X73375000Y-52300000D02*
X68200000Y-52300000D01*
X56709210Y-52850000D02*
X56350000Y-52850000D01*
X68200000Y-52300000D02*
X67650000Y-52850000D01*
X67650000Y-52850000D02*
X56709210Y-52850000D01*
X74700000Y-53400000D02*
X74475000Y-53400000D01*
X74475000Y-53400000D02*
X73375000Y-52300000D01*
D27*
G04 #@! TO.N,Net-(R5-Pad1)*
X74350000Y-57500000D02*
X74350000Y-58000000D01*
X74100000Y-57250000D02*
X74350000Y-57500000D01*
D28*
G04 #@! TO.N,/+5V*
X64007516Y-55872111D02*
X63807516Y-56072111D01*
X65957516Y-55872111D02*
X64007516Y-55872111D01*
G04 #@! TO.N,Net-(L1-Pad2)*
X58695016Y-57972111D02*
X58457516Y-58209611D01*
X61107516Y-57972111D02*
X58695016Y-57972111D01*
G04 #@! TD*
D27*
G04 #@! TO.N,GND*
G36*
X78288801Y-59288800D02*
X67200790Y-59288800D01*
X67217516Y-59248420D01*
X67217516Y-58855577D01*
X67537145Y-59069146D01*
X67868217Y-59135000D01*
X68091783Y-59135000D01*
X68422855Y-59069146D01*
X68440836Y-59057131D01*
X68502235Y-59098157D01*
X68750000Y-59147440D01*
X69750000Y-59147440D01*
X69997765Y-59098157D01*
X70207809Y-58957809D01*
X70348157Y-58747765D01*
X70397440Y-58500000D01*
X70397440Y-57500000D01*
X70348157Y-57252235D01*
X70207809Y-57042191D01*
X69997765Y-56901843D01*
X69750000Y-56852560D01*
X68750000Y-56852560D01*
X68502235Y-56901843D01*
X68440836Y-56942869D01*
X68422855Y-56930854D01*
X68091783Y-56865000D01*
X67868217Y-56865000D01*
X67537145Y-56930854D01*
X67161711Y-57181711D01*
X67113017Y-57254587D01*
X66979196Y-57120765D01*
X67040325Y-57079920D01*
X67180673Y-56869876D01*
X67229956Y-56622111D01*
X67229956Y-55122111D01*
X67180673Y-54874346D01*
X67040325Y-54664302D01*
X66830281Y-54523954D01*
X66582516Y-54474671D01*
X65332516Y-54474671D01*
X65084751Y-54523954D01*
X64874707Y-54664302D01*
X64734359Y-54874346D01*
X64712725Y-54983111D01*
X64095071Y-54983111D01*
X64007516Y-54965695D01*
X63919961Y-54983111D01*
X63919960Y-54983111D01*
X63660646Y-55034692D01*
X63563398Y-55099671D01*
X63027516Y-55099671D01*
X62779751Y-55148954D01*
X62569707Y-55289302D01*
X62457516Y-55457206D01*
X62345325Y-55289302D01*
X62135281Y-55148954D01*
X61887516Y-55099671D01*
X60327516Y-55099671D01*
X60204956Y-55124049D01*
X60204956Y-54722111D01*
X60155673Y-54474346D01*
X60015325Y-54264302D01*
X59805281Y-54123954D01*
X59557516Y-54074671D01*
X57357516Y-54074671D01*
X57210329Y-54103948D01*
X57204835Y-54090685D01*
X57187419Y-54003130D01*
X57137823Y-53928905D01*
X57103658Y-53846422D01*
X57040529Y-53783293D01*
X57010934Y-53739000D01*
X67562445Y-53739000D01*
X67650000Y-53756416D01*
X67737555Y-53739000D01*
X67737556Y-53739000D01*
X67996870Y-53687419D01*
X67999367Y-53685750D01*
X71565000Y-53685750D01*
X71565000Y-53901310D01*
X71661673Y-54134699D01*
X71840302Y-54313327D01*
X72073691Y-54410000D01*
X72514250Y-54410000D01*
X72673000Y-54251250D01*
X72673000Y-53527000D01*
X71723750Y-53527000D01*
X71565000Y-53685750D01*
X67999367Y-53685750D01*
X68290933Y-53490933D01*
X68340531Y-53416704D01*
X68568235Y-53189000D01*
X71639750Y-53189000D01*
X71723750Y-53273000D01*
X72673000Y-53273000D01*
X72673000Y-53253000D01*
X72927000Y-53253000D01*
X72927000Y-53273000D01*
X72947000Y-53273000D01*
X72947000Y-53527000D01*
X72927000Y-53527000D01*
X72927000Y-53574975D01*
X72811673Y-53690301D01*
X72715000Y-53923690D01*
X72715000Y-54016250D01*
X72873750Y-54175000D01*
X72927000Y-54175000D01*
X72927000Y-54251250D01*
X72988862Y-54313112D01*
X72876974Y-54425000D01*
X72873750Y-54425000D01*
X72715000Y-54583750D01*
X72715000Y-54676310D01*
X72724813Y-54700000D01*
X72715000Y-54723690D01*
X72715000Y-54816250D01*
X72873750Y-54975000D01*
X72876974Y-54975000D01*
X72990302Y-55088327D01*
X73223691Y-55185000D01*
X73364250Y-55185000D01*
X73522998Y-55026252D01*
X73522998Y-55185000D01*
X73644028Y-55185000D01*
X73632213Y-55202683D01*
X73623398Y-55247000D01*
X73523000Y-55247000D01*
X73523000Y-55225000D01*
X72873750Y-55225000D01*
X72715000Y-55383750D01*
X72715000Y-55476310D01*
X72805992Y-55695983D01*
X72661673Y-55840302D01*
X72565000Y-56073691D01*
X72565000Y-56141250D01*
X72712862Y-56289112D01*
X72561673Y-56440302D01*
X72465000Y-56673691D01*
X72465000Y-56716250D01*
X72623750Y-56875000D01*
X72626590Y-56875000D01*
X72626703Y-56875272D01*
X72561673Y-56940302D01*
X72465000Y-57173691D01*
X72465000Y-57226309D01*
X72561673Y-57459698D01*
X72622818Y-57520844D01*
X72612572Y-57536178D01*
X72465000Y-57683750D01*
X72465000Y-57726309D01*
X72552560Y-57937697D01*
X72552560Y-58200000D01*
X72588000Y-58378171D01*
X72588000Y-58378957D01*
X72573073Y-58454000D01*
X72588000Y-58529043D01*
X72588000Y-58529047D01*
X72632212Y-58751316D01*
X72800629Y-59003371D01*
X72815856Y-59013545D01*
X72826030Y-59028772D01*
X73078084Y-59197189D01*
X73300353Y-59241401D01*
X73300357Y-59241401D01*
X73375400Y-59256328D01*
X73450443Y-59241401D01*
X76045556Y-59241401D01*
X76120599Y-59256328D01*
X76195642Y-59241401D01*
X76195647Y-59241401D01*
X76417916Y-59197189D01*
X76669970Y-59028772D01*
X76712483Y-58965147D01*
X76835746Y-58841884D01*
X76899371Y-58799371D01*
X77067788Y-58547317D01*
X77112000Y-58325048D01*
X77112000Y-58325044D01*
X77126927Y-58250001D01*
X77112000Y-58174958D01*
X77112000Y-52285611D01*
X77126928Y-52210564D01*
X77109708Y-52123993D01*
X77067788Y-51913247D01*
X76899371Y-51661193D01*
X76835750Y-51618683D01*
X75928266Y-50711200D01*
X78288800Y-50711200D01*
X78288801Y-59288800D01*
X78288801Y-59288800D01*
G37*
X78288801Y-59288800D02*
X67200790Y-59288800D01*
X67217516Y-59248420D01*
X67217516Y-58855577D01*
X67537145Y-59069146D01*
X67868217Y-59135000D01*
X68091783Y-59135000D01*
X68422855Y-59069146D01*
X68440836Y-59057131D01*
X68502235Y-59098157D01*
X68750000Y-59147440D01*
X69750000Y-59147440D01*
X69997765Y-59098157D01*
X70207809Y-58957809D01*
X70348157Y-58747765D01*
X70397440Y-58500000D01*
X70397440Y-57500000D01*
X70348157Y-57252235D01*
X70207809Y-57042191D01*
X69997765Y-56901843D01*
X69750000Y-56852560D01*
X68750000Y-56852560D01*
X68502235Y-56901843D01*
X68440836Y-56942869D01*
X68422855Y-56930854D01*
X68091783Y-56865000D01*
X67868217Y-56865000D01*
X67537145Y-56930854D01*
X67161711Y-57181711D01*
X67113017Y-57254587D01*
X66979196Y-57120765D01*
X67040325Y-57079920D01*
X67180673Y-56869876D01*
X67229956Y-56622111D01*
X67229956Y-55122111D01*
X67180673Y-54874346D01*
X67040325Y-54664302D01*
X66830281Y-54523954D01*
X66582516Y-54474671D01*
X65332516Y-54474671D01*
X65084751Y-54523954D01*
X64874707Y-54664302D01*
X64734359Y-54874346D01*
X64712725Y-54983111D01*
X64095071Y-54983111D01*
X64007516Y-54965695D01*
X63919961Y-54983111D01*
X63919960Y-54983111D01*
X63660646Y-55034692D01*
X63563398Y-55099671D01*
X63027516Y-55099671D01*
X62779751Y-55148954D01*
X62569707Y-55289302D01*
X62457516Y-55457206D01*
X62345325Y-55289302D01*
X62135281Y-55148954D01*
X61887516Y-55099671D01*
X60327516Y-55099671D01*
X60204956Y-55124049D01*
X60204956Y-54722111D01*
X60155673Y-54474346D01*
X60015325Y-54264302D01*
X59805281Y-54123954D01*
X59557516Y-54074671D01*
X57357516Y-54074671D01*
X57210329Y-54103948D01*
X57204835Y-54090685D01*
X57187419Y-54003130D01*
X57137823Y-53928905D01*
X57103658Y-53846422D01*
X57040529Y-53783293D01*
X57010934Y-53739000D01*
X67562445Y-53739000D01*
X67650000Y-53756416D01*
X67737555Y-53739000D01*
X67737556Y-53739000D01*
X67996870Y-53687419D01*
X67999367Y-53685750D01*
X71565000Y-53685750D01*
X71565000Y-53901310D01*
X71661673Y-54134699D01*
X71840302Y-54313327D01*
X72073691Y-54410000D01*
X72514250Y-54410000D01*
X72673000Y-54251250D01*
X72673000Y-53527000D01*
X71723750Y-53527000D01*
X71565000Y-53685750D01*
X67999367Y-53685750D01*
X68290933Y-53490933D01*
X68340531Y-53416704D01*
X68568235Y-53189000D01*
X71639750Y-53189000D01*
X71723750Y-53273000D01*
X72673000Y-53273000D01*
X72673000Y-53253000D01*
X72927000Y-53253000D01*
X72927000Y-53273000D01*
X72947000Y-53273000D01*
X72947000Y-53527000D01*
X72927000Y-53527000D01*
X72927000Y-53574975D01*
X72811673Y-53690301D01*
X72715000Y-53923690D01*
X72715000Y-54016250D01*
X72873750Y-54175000D01*
X72927000Y-54175000D01*
X72927000Y-54251250D01*
X72988862Y-54313112D01*
X72876974Y-54425000D01*
X72873750Y-54425000D01*
X72715000Y-54583750D01*
X72715000Y-54676310D01*
X72724813Y-54700000D01*
X72715000Y-54723690D01*
X72715000Y-54816250D01*
X72873750Y-54975000D01*
X72876974Y-54975000D01*
X72990302Y-55088327D01*
X73223691Y-55185000D01*
X73364250Y-55185000D01*
X73522998Y-55026252D01*
X73522998Y-55185000D01*
X73644028Y-55185000D01*
X73632213Y-55202683D01*
X73623398Y-55247000D01*
X73523000Y-55247000D01*
X73523000Y-55225000D01*
X72873750Y-55225000D01*
X72715000Y-55383750D01*
X72715000Y-55476310D01*
X72805992Y-55695983D01*
X72661673Y-55840302D01*
X72565000Y-56073691D01*
X72565000Y-56141250D01*
X72712862Y-56289112D01*
X72561673Y-56440302D01*
X72465000Y-56673691D01*
X72465000Y-56716250D01*
X72623750Y-56875000D01*
X72626590Y-56875000D01*
X72626703Y-56875272D01*
X72561673Y-56940302D01*
X72465000Y-57173691D01*
X72465000Y-57226309D01*
X72561673Y-57459698D01*
X72622818Y-57520844D01*
X72612572Y-57536178D01*
X72465000Y-57683750D01*
X72465000Y-57726309D01*
X72552560Y-57937697D01*
X72552560Y-58200000D01*
X72588000Y-58378171D01*
X72588000Y-58378957D01*
X72573073Y-58454000D01*
X72588000Y-58529043D01*
X72588000Y-58529047D01*
X72632212Y-58751316D01*
X72800629Y-59003371D01*
X72815856Y-59013545D01*
X72826030Y-59028772D01*
X73078084Y-59197189D01*
X73300353Y-59241401D01*
X73300357Y-59241401D01*
X73375400Y-59256328D01*
X73450443Y-59241401D01*
X76045556Y-59241401D01*
X76120599Y-59256328D01*
X76195642Y-59241401D01*
X76195647Y-59241401D01*
X76417916Y-59197189D01*
X76669970Y-59028772D01*
X76712483Y-58965147D01*
X76835746Y-58841884D01*
X76899371Y-58799371D01*
X77067788Y-58547317D01*
X77112000Y-58325048D01*
X77112000Y-58325044D01*
X77126927Y-58250001D01*
X77112000Y-58174958D01*
X77112000Y-52285611D01*
X77126928Y-52210564D01*
X77109708Y-52123993D01*
X77067788Y-51913247D01*
X76899371Y-51661193D01*
X76835750Y-51618683D01*
X75928266Y-50711200D01*
X78288800Y-50711200D01*
X78288801Y-59288800D01*
G36*
X55846422Y-52096342D02*
X55783293Y-52159471D01*
X55709067Y-52209067D01*
X55659471Y-52283293D01*
X55596342Y-52346422D01*
X55562177Y-52428905D01*
X55512581Y-52503130D01*
X55495165Y-52590685D01*
X55461000Y-52673167D01*
X55461000Y-52762444D01*
X55443584Y-52850000D01*
X55461000Y-52937556D01*
X55461000Y-53026833D01*
X55495165Y-53109315D01*
X55512581Y-53196870D01*
X55562177Y-53271095D01*
X55596342Y-53353578D01*
X55659471Y-53416707D01*
X55709067Y-53490933D01*
X55783293Y-53540529D01*
X55842764Y-53600000D01*
X55783293Y-53659471D01*
X55709067Y-53709067D01*
X55659471Y-53783293D01*
X55596342Y-53846422D01*
X55562176Y-53928907D01*
X55512581Y-54003131D01*
X55495166Y-54090684D01*
X55461000Y-54173167D01*
X55461000Y-54823233D01*
X55324707Y-54914302D01*
X55184359Y-55124346D01*
X55135076Y-55372111D01*
X55135076Y-56572111D01*
X55184359Y-56819876D01*
X55245389Y-56911213D01*
X55244189Y-56912413D01*
X55147516Y-57145802D01*
X55147516Y-57586361D01*
X55306266Y-57745111D01*
X56030516Y-57745111D01*
X56030516Y-57725111D01*
X56284516Y-57725111D01*
X56284516Y-57745111D01*
X56304516Y-57745111D01*
X56304516Y-57999111D01*
X56284516Y-57999111D01*
X56284516Y-58948361D01*
X56443266Y-59107111D01*
X56658826Y-59107111D01*
X56710076Y-59085883D01*
X56710076Y-59122111D01*
X56743232Y-59288800D01*
X49718203Y-59288800D01*
X50018289Y-59088289D01*
X50269146Y-58712855D01*
X50357235Y-58270000D01*
X50334930Y-58157861D01*
X55147516Y-58157861D01*
X55147516Y-58598420D01*
X55244189Y-58831809D01*
X55422817Y-59010438D01*
X55656206Y-59107111D01*
X55871766Y-59107111D01*
X56030516Y-58948361D01*
X56030516Y-57999111D01*
X55306266Y-57999111D01*
X55147516Y-58157861D01*
X50334930Y-58157861D01*
X50269146Y-57827145D01*
X50257131Y-57809164D01*
X50298157Y-57747765D01*
X50347440Y-57500000D01*
X50347440Y-56500000D01*
X50298157Y-56252235D01*
X50157809Y-56042191D01*
X50103632Y-56005991D01*
X50104224Y-56003012D01*
X50303658Y-55803578D01*
X50439000Y-55476833D01*
X50439000Y-55123167D01*
X50303658Y-54796422D01*
X50053578Y-54546342D01*
X49726833Y-54411000D01*
X49666789Y-54411000D01*
X49219822Y-53964034D01*
X49180144Y-53904652D01*
X48944894Y-53747462D01*
X48737444Y-53706198D01*
X48737439Y-53706198D01*
X48667398Y-53692266D01*
X48597357Y-53706198D01*
X47638391Y-53706198D01*
X47568349Y-53692266D01*
X47498307Y-53706198D01*
X47498304Y-53706198D01*
X47321394Y-53741387D01*
X47162207Y-53357074D01*
X46855133Y-53050000D01*
X47162207Y-52742926D01*
X47335000Y-52325766D01*
X47335000Y-52078598D01*
X55889260Y-52078598D01*
X55846422Y-52096342D01*
X55846422Y-52096342D01*
G37*
X55846422Y-52096342D02*
X55783293Y-52159471D01*
X55709067Y-52209067D01*
X55659471Y-52283293D01*
X55596342Y-52346422D01*
X55562177Y-52428905D01*
X55512581Y-52503130D01*
X55495165Y-52590685D01*
X55461000Y-52673167D01*
X55461000Y-52762444D01*
X55443584Y-52850000D01*
X55461000Y-52937556D01*
X55461000Y-53026833D01*
X55495165Y-53109315D01*
X55512581Y-53196870D01*
X55562177Y-53271095D01*
X55596342Y-53353578D01*
X55659471Y-53416707D01*
X55709067Y-53490933D01*
X55783293Y-53540529D01*
X55842764Y-53600000D01*
X55783293Y-53659471D01*
X55709067Y-53709067D01*
X55659471Y-53783293D01*
X55596342Y-53846422D01*
X55562176Y-53928907D01*
X55512581Y-54003131D01*
X55495166Y-54090684D01*
X55461000Y-54173167D01*
X55461000Y-54823233D01*
X55324707Y-54914302D01*
X55184359Y-55124346D01*
X55135076Y-55372111D01*
X55135076Y-56572111D01*
X55184359Y-56819876D01*
X55245389Y-56911213D01*
X55244189Y-56912413D01*
X55147516Y-57145802D01*
X55147516Y-57586361D01*
X55306266Y-57745111D01*
X56030516Y-57745111D01*
X56030516Y-57725111D01*
X56284516Y-57725111D01*
X56284516Y-57745111D01*
X56304516Y-57745111D01*
X56304516Y-57999111D01*
X56284516Y-57999111D01*
X56284516Y-58948361D01*
X56443266Y-59107111D01*
X56658826Y-59107111D01*
X56710076Y-59085883D01*
X56710076Y-59122111D01*
X56743232Y-59288800D01*
X49718203Y-59288800D01*
X50018289Y-59088289D01*
X50269146Y-58712855D01*
X50357235Y-58270000D01*
X50334930Y-58157861D01*
X55147516Y-58157861D01*
X55147516Y-58598420D01*
X55244189Y-58831809D01*
X55422817Y-59010438D01*
X55656206Y-59107111D01*
X55871766Y-59107111D01*
X56030516Y-58948361D01*
X56030516Y-57999111D01*
X55306266Y-57999111D01*
X55147516Y-58157861D01*
X50334930Y-58157861D01*
X50269146Y-57827145D01*
X50257131Y-57809164D01*
X50298157Y-57747765D01*
X50347440Y-57500000D01*
X50347440Y-56500000D01*
X50298157Y-56252235D01*
X50157809Y-56042191D01*
X50103632Y-56005991D01*
X50104224Y-56003012D01*
X50303658Y-55803578D01*
X50439000Y-55476833D01*
X50439000Y-55123167D01*
X50303658Y-54796422D01*
X50053578Y-54546342D01*
X49726833Y-54411000D01*
X49666789Y-54411000D01*
X49219822Y-53964034D01*
X49180144Y-53904652D01*
X48944894Y-53747462D01*
X48737444Y-53706198D01*
X48737439Y-53706198D01*
X48667398Y-53692266D01*
X48597357Y-53706198D01*
X47638391Y-53706198D01*
X47568349Y-53692266D01*
X47498307Y-53706198D01*
X47498304Y-53706198D01*
X47321394Y-53741387D01*
X47162207Y-53357074D01*
X46855133Y-53050000D01*
X47162207Y-52742926D01*
X47335000Y-52325766D01*
X47335000Y-52078598D01*
X55889260Y-52078598D01*
X55846422Y-52096342D01*
G36*
X38596422Y-50746342D02*
X38346342Y-50996422D01*
X38211000Y-51323167D01*
X38211000Y-51676833D01*
X38346342Y-52003578D01*
X38596422Y-52253658D01*
X38923167Y-52389000D01*
X39276833Y-52389000D01*
X39603578Y-52253658D01*
X39843099Y-52014137D01*
X39843099Y-52023315D01*
X39823073Y-52123993D01*
X39838001Y-52199041D01*
X39838001Y-52698462D01*
X39701843Y-52902235D01*
X39652560Y-53150000D01*
X39652560Y-53550000D01*
X39701843Y-53797765D01*
X39703336Y-53800000D01*
X39701843Y-53802235D01*
X39652560Y-54050000D01*
X39652560Y-54450000D01*
X39701843Y-54697765D01*
X39842191Y-54907809D01*
X40052235Y-55048157D01*
X40300000Y-55097440D01*
X40900000Y-55097440D01*
X41100000Y-55057658D01*
X41300000Y-55097440D01*
X41788015Y-55097440D01*
X41777560Y-55150000D01*
X41777560Y-55340755D01*
X40100915Y-57017401D01*
X37297578Y-57017401D01*
X37419053Y-56895926D01*
X37419053Y-56755367D01*
X37395883Y-56699431D01*
X37510060Y-56585254D01*
X37645402Y-56258509D01*
X37645402Y-55904843D01*
X37510060Y-55578098D01*
X37259980Y-55328018D01*
X37228657Y-55315044D01*
X37031818Y-55183519D01*
X36784053Y-55134236D01*
X36284053Y-55134236D01*
X36134053Y-55164073D01*
X35984053Y-55134236D01*
X35484053Y-55134236D01*
X35270966Y-55176621D01*
X35150000Y-55152560D01*
X34889801Y-55152560D01*
X34889801Y-54715987D01*
X34966788Y-54639000D01*
X35026833Y-54639000D01*
X35353578Y-54503658D01*
X35603658Y-54253578D01*
X35739000Y-53926833D01*
X35739000Y-53573167D01*
X35603658Y-53246422D01*
X35353578Y-52996342D01*
X35146619Y-52910617D01*
X35253658Y-52803578D01*
X35389000Y-52476833D01*
X35389000Y-52123167D01*
X35253658Y-51796422D01*
X35003578Y-51546342D01*
X34676833Y-51411000D01*
X34323167Y-51411000D01*
X33996422Y-51546342D01*
X33746342Y-51796422D01*
X33640246Y-52052560D01*
X33050000Y-52052560D01*
X32802235Y-52101843D01*
X32592191Y-52242191D01*
X32451843Y-52452235D01*
X32402560Y-52700000D01*
X32402560Y-53900000D01*
X32451843Y-54147765D01*
X32592191Y-54357809D01*
X32655334Y-54400000D01*
X32592191Y-54442191D01*
X32451843Y-54652235D01*
X32402560Y-54900000D01*
X32402560Y-55490204D01*
X31975296Y-55917469D01*
X31901067Y-55967067D01*
X31704581Y-56261131D01*
X31657067Y-56500000D01*
X31635584Y-56608000D01*
X31653000Y-56695555D01*
X31653000Y-56981841D01*
X31635584Y-57069396D01*
X31653000Y-57156951D01*
X31653000Y-57156952D01*
X31676082Y-57272993D01*
X31579791Y-57312873D01*
X31516910Y-57367199D01*
X31312855Y-57230854D01*
X30981783Y-57165000D01*
X30758217Y-57165000D01*
X30427145Y-57230854D01*
X30409164Y-57242869D01*
X30347765Y-57201843D01*
X30100000Y-57152560D01*
X29100000Y-57152560D01*
X28852235Y-57201843D01*
X28642191Y-57342191D01*
X28501843Y-57552235D01*
X28452560Y-57800000D01*
X28452560Y-58800000D01*
X28501843Y-59047765D01*
X28642191Y-59257809D01*
X28688572Y-59288800D01*
X25711200Y-59288800D01*
X25711200Y-51400000D01*
X27852560Y-51400000D01*
X27852560Y-52400000D01*
X27901843Y-52647765D01*
X28042191Y-52857809D01*
X28252235Y-52998157D01*
X28500000Y-53047440D01*
X29500000Y-53047440D01*
X29747765Y-52998157D01*
X29835817Y-52939322D01*
X29968126Y-52994119D01*
X30143000Y-52867954D01*
X30143000Y-52422322D01*
X30147440Y-52400000D01*
X30147440Y-52027000D01*
X30397000Y-52027000D01*
X30397000Y-52867954D01*
X30571874Y-52994119D01*
X30830209Y-52887127D01*
X31165323Y-52597604D01*
X31364132Y-52201877D01*
X31239135Y-52027000D01*
X30397000Y-52027000D01*
X30147440Y-52027000D01*
X30147440Y-51400000D01*
X30143000Y-51377678D01*
X30143000Y-50932046D01*
X30397000Y-50932046D01*
X30397000Y-51773000D01*
X31239135Y-51773000D01*
X31364132Y-51598123D01*
X31165323Y-51202396D01*
X30830209Y-50912873D01*
X30571874Y-50805881D01*
X30397000Y-50932046D01*
X30143000Y-50932046D01*
X29968126Y-50805881D01*
X29835817Y-50860678D01*
X29747765Y-50801843D01*
X29500000Y-50752560D01*
X28500000Y-50752560D01*
X28252235Y-50801843D01*
X28042191Y-50942191D01*
X27901843Y-51152235D01*
X27852560Y-51400000D01*
X25711200Y-51400000D01*
X25711200Y-50711200D01*
X38681262Y-50711200D01*
X38596422Y-50746342D01*
X38596422Y-50746342D01*
G37*
X38596422Y-50746342D02*
X38346342Y-50996422D01*
X38211000Y-51323167D01*
X38211000Y-51676833D01*
X38346342Y-52003578D01*
X38596422Y-52253658D01*
X38923167Y-52389000D01*
X39276833Y-52389000D01*
X39603578Y-52253658D01*
X39843099Y-52014137D01*
X39843099Y-52023315D01*
X39823073Y-52123993D01*
X39838001Y-52199041D01*
X39838001Y-52698462D01*
X39701843Y-52902235D01*
X39652560Y-53150000D01*
X39652560Y-53550000D01*
X39701843Y-53797765D01*
X39703336Y-53800000D01*
X39701843Y-53802235D01*
X39652560Y-54050000D01*
X39652560Y-54450000D01*
X39701843Y-54697765D01*
X39842191Y-54907809D01*
X40052235Y-55048157D01*
X40300000Y-55097440D01*
X40900000Y-55097440D01*
X41100000Y-55057658D01*
X41300000Y-55097440D01*
X41788015Y-55097440D01*
X41777560Y-55150000D01*
X41777560Y-55340755D01*
X40100915Y-57017401D01*
X37297578Y-57017401D01*
X37419053Y-56895926D01*
X37419053Y-56755367D01*
X37395883Y-56699431D01*
X37510060Y-56585254D01*
X37645402Y-56258509D01*
X37645402Y-55904843D01*
X37510060Y-55578098D01*
X37259980Y-55328018D01*
X37228657Y-55315044D01*
X37031818Y-55183519D01*
X36784053Y-55134236D01*
X36284053Y-55134236D01*
X36134053Y-55164073D01*
X35984053Y-55134236D01*
X35484053Y-55134236D01*
X35270966Y-55176621D01*
X35150000Y-55152560D01*
X34889801Y-55152560D01*
X34889801Y-54715987D01*
X34966788Y-54639000D01*
X35026833Y-54639000D01*
X35353578Y-54503658D01*
X35603658Y-54253578D01*
X35739000Y-53926833D01*
X35739000Y-53573167D01*
X35603658Y-53246422D01*
X35353578Y-52996342D01*
X35146619Y-52910617D01*
X35253658Y-52803578D01*
X35389000Y-52476833D01*
X35389000Y-52123167D01*
X35253658Y-51796422D01*
X35003578Y-51546342D01*
X34676833Y-51411000D01*
X34323167Y-51411000D01*
X33996422Y-51546342D01*
X33746342Y-51796422D01*
X33640246Y-52052560D01*
X33050000Y-52052560D01*
X32802235Y-52101843D01*
X32592191Y-52242191D01*
X32451843Y-52452235D01*
X32402560Y-52700000D01*
X32402560Y-53900000D01*
X32451843Y-54147765D01*
X32592191Y-54357809D01*
X32655334Y-54400000D01*
X32592191Y-54442191D01*
X32451843Y-54652235D01*
X32402560Y-54900000D01*
X32402560Y-55490204D01*
X31975296Y-55917469D01*
X31901067Y-55967067D01*
X31704581Y-56261131D01*
X31657067Y-56500000D01*
X31635584Y-56608000D01*
X31653000Y-56695555D01*
X31653000Y-56981841D01*
X31635584Y-57069396D01*
X31653000Y-57156951D01*
X31653000Y-57156952D01*
X31676082Y-57272993D01*
X31579791Y-57312873D01*
X31516910Y-57367199D01*
X31312855Y-57230854D01*
X30981783Y-57165000D01*
X30758217Y-57165000D01*
X30427145Y-57230854D01*
X30409164Y-57242869D01*
X30347765Y-57201843D01*
X30100000Y-57152560D01*
X29100000Y-57152560D01*
X28852235Y-57201843D01*
X28642191Y-57342191D01*
X28501843Y-57552235D01*
X28452560Y-57800000D01*
X28452560Y-58800000D01*
X28501843Y-59047765D01*
X28642191Y-59257809D01*
X28688572Y-59288800D01*
X25711200Y-59288800D01*
X25711200Y-51400000D01*
X27852560Y-51400000D01*
X27852560Y-52400000D01*
X27901843Y-52647765D01*
X28042191Y-52857809D01*
X28252235Y-52998157D01*
X28500000Y-53047440D01*
X29500000Y-53047440D01*
X29747765Y-52998157D01*
X29835817Y-52939322D01*
X29968126Y-52994119D01*
X30143000Y-52867954D01*
X30143000Y-52422322D01*
X30147440Y-52400000D01*
X30147440Y-52027000D01*
X30397000Y-52027000D01*
X30397000Y-52867954D01*
X30571874Y-52994119D01*
X30830209Y-52887127D01*
X31165323Y-52597604D01*
X31364132Y-52201877D01*
X31239135Y-52027000D01*
X30397000Y-52027000D01*
X30147440Y-52027000D01*
X30147440Y-51400000D01*
X30143000Y-51377678D01*
X30143000Y-50932046D01*
X30397000Y-50932046D01*
X30397000Y-51773000D01*
X31239135Y-51773000D01*
X31364132Y-51598123D01*
X31165323Y-51202396D01*
X30830209Y-50912873D01*
X30571874Y-50805881D01*
X30397000Y-50932046D01*
X30143000Y-50932046D01*
X29968126Y-50805881D01*
X29835817Y-50860678D01*
X29747765Y-50801843D01*
X29500000Y-50752560D01*
X28500000Y-50752560D01*
X28252235Y-50801843D01*
X28042191Y-50942191D01*
X27901843Y-51152235D01*
X27852560Y-51400000D01*
X25711200Y-51400000D01*
X25711200Y-50711200D01*
X38681262Y-50711200D01*
X38596422Y-50746342D01*
G36*
X33192477Y-58977109D02*
X33242073Y-59051335D01*
X33536136Y-59247821D01*
X33742150Y-59288800D01*
X32696169Y-59288800D01*
X32700209Y-59287127D01*
X33035323Y-58997604D01*
X33094728Y-58879360D01*
X33192477Y-58977109D01*
X33192477Y-58977109D01*
G37*
X33192477Y-58977109D02*
X33242073Y-59051335D01*
X33536136Y-59247821D01*
X33742150Y-59288800D01*
X32696169Y-59288800D01*
X32700209Y-59287127D01*
X33035323Y-58997604D01*
X33094728Y-58879360D01*
X33192477Y-58977109D01*
G36*
X40146342Y-59053578D02*
X40381564Y-59288800D01*
X34707850Y-59288800D01*
X34913864Y-59247821D01*
X35207927Y-59051335D01*
X35257525Y-58977106D01*
X35439230Y-58795401D01*
X40039402Y-58795401D01*
X40146342Y-59053578D01*
X40146342Y-59053578D01*
G37*
X40146342Y-59053578D02*
X40381564Y-59288800D01*
X34707850Y-59288800D01*
X34913864Y-59247821D01*
X35207927Y-59051335D01*
X35257525Y-58977106D01*
X35439230Y-58795401D01*
X40039402Y-58795401D01*
X40146342Y-59053578D01*
G36*
X47758598Y-55262765D02*
X47758598Y-55352043D01*
X47741182Y-55439598D01*
X47758598Y-55527153D01*
X47758598Y-55616431D01*
X47792765Y-55698917D01*
X47810180Y-55786468D01*
X47859773Y-55860690D01*
X47861558Y-55865000D01*
X47818217Y-55865000D01*
X47487145Y-55930854D01*
X47111711Y-56181711D01*
X46860854Y-56557145D01*
X46772765Y-57000000D01*
X46860854Y-57442855D01*
X46997199Y-57646910D01*
X46942873Y-57709791D01*
X46835881Y-57968126D01*
X46962046Y-58143000D01*
X47803000Y-58143000D01*
X47803000Y-58131973D01*
X47818217Y-58135000D01*
X48041783Y-58135000D01*
X48057000Y-58131973D01*
X48057000Y-58143000D01*
X48068027Y-58143000D01*
X48042765Y-58270000D01*
X48068027Y-58397000D01*
X48057000Y-58397000D01*
X48057000Y-58417000D01*
X47803000Y-58417000D01*
X47803000Y-58397000D01*
X46962046Y-58397000D01*
X46835881Y-58571874D01*
X46942873Y-58830209D01*
X47232396Y-59165323D01*
X47478176Y-59288800D01*
X45920511Y-59288800D01*
X46048157Y-59097765D01*
X46097440Y-58850000D01*
X46097440Y-57150000D01*
X46054983Y-56936553D01*
X47779688Y-55211849D01*
X47758598Y-55262765D01*
X47758598Y-55262765D01*
G37*
X47758598Y-55262765D02*
X47758598Y-55352043D01*
X47741182Y-55439598D01*
X47758598Y-55527153D01*
X47758598Y-55616431D01*
X47792765Y-55698917D01*
X47810180Y-55786468D01*
X47859773Y-55860690D01*
X47861558Y-55865000D01*
X47818217Y-55865000D01*
X47487145Y-55930854D01*
X47111711Y-56181711D01*
X46860854Y-56557145D01*
X46772765Y-57000000D01*
X46860854Y-57442855D01*
X46997199Y-57646910D01*
X46942873Y-57709791D01*
X46835881Y-57968126D01*
X46962046Y-58143000D01*
X47803000Y-58143000D01*
X47803000Y-58131973D01*
X47818217Y-58135000D01*
X48041783Y-58135000D01*
X48057000Y-58131973D01*
X48057000Y-58143000D01*
X48068027Y-58143000D01*
X48042765Y-58270000D01*
X48068027Y-58397000D01*
X48057000Y-58397000D01*
X48057000Y-58417000D01*
X47803000Y-58417000D01*
X47803000Y-58397000D01*
X46962046Y-58397000D01*
X46835881Y-58571874D01*
X46942873Y-58830209D01*
X47232396Y-59165323D01*
X47478176Y-59288800D01*
X45920511Y-59288800D01*
X46048157Y-59097765D01*
X46097440Y-58850000D01*
X46097440Y-57150000D01*
X46054983Y-56936553D01*
X47779688Y-55211849D01*
X47758598Y-55262765D01*
G36*
X48681797Y-59288800D02*
X48381824Y-59288800D01*
X48553053Y-59202776D01*
X48681797Y-59288800D01*
X48681797Y-59288800D01*
G37*
X48681797Y-59288800D02*
X48381824Y-59288800D01*
X48553053Y-59202776D01*
X48681797Y-59288800D01*
G36*
X66084516Y-58245111D02*
X66104516Y-58245111D01*
X66104516Y-58499111D01*
X66084516Y-58499111D01*
X66084516Y-58519111D01*
X65830516Y-58519111D01*
X65830516Y-58499111D01*
X65810516Y-58499111D01*
X65810516Y-58245111D01*
X65830516Y-58245111D01*
X65830516Y-58225111D01*
X66084516Y-58225111D01*
X66084516Y-58245111D01*
X66084516Y-58245111D01*
G37*
X66084516Y-58245111D02*
X66104516Y-58245111D01*
X66104516Y-58499111D01*
X66084516Y-58499111D01*
X66084516Y-58519111D01*
X65830516Y-58519111D01*
X65830516Y-58499111D01*
X65810516Y-58499111D01*
X65810516Y-58245111D01*
X65830516Y-58245111D01*
X65830516Y-58225111D01*
X66084516Y-58225111D01*
X66084516Y-58245111D01*
G36*
X32267000Y-58173000D02*
X32287000Y-58173000D01*
X32287000Y-58427000D01*
X32267000Y-58427000D01*
X32267000Y-58447000D01*
X32013000Y-58447000D01*
X32013000Y-58427000D01*
X32001973Y-58427000D01*
X32027235Y-58300000D01*
X32001973Y-58173000D01*
X32013000Y-58173000D01*
X32013000Y-58153000D01*
X32267000Y-58153000D01*
X32267000Y-58173000D01*
X32267000Y-58173000D01*
G37*
X32267000Y-58173000D02*
X32287000Y-58173000D01*
X32287000Y-58427000D01*
X32267000Y-58427000D01*
X32267000Y-58447000D01*
X32013000Y-58447000D01*
X32013000Y-58427000D01*
X32001973Y-58427000D01*
X32027235Y-58300000D01*
X32001973Y-58173000D01*
X32013000Y-58173000D01*
X32013000Y-58153000D01*
X32267000Y-58153000D01*
X32267000Y-58173000D01*
G36*
X43852094Y-54521401D02*
X43810000Y-54521401D01*
X43810000Y-54479307D01*
X43852094Y-54521401D01*
X43852094Y-54521401D01*
G37*
X43852094Y-54521401D02*
X43810000Y-54521401D01*
X43810000Y-54479307D01*
X43852094Y-54521401D01*
G36*
X73797000Y-54336250D02*
X73797000Y-54353750D01*
X73777002Y-54373748D01*
X73777002Y-54322887D01*
X73797000Y-54336250D01*
X73797000Y-54336250D01*
G37*
X73797000Y-54336250D02*
X73797000Y-54353750D01*
X73777002Y-54373748D01*
X73777002Y-54322887D01*
X73797000Y-54336250D01*
G36*
X42927000Y-53723000D02*
X42947000Y-53723000D01*
X42947000Y-53977000D01*
X42927000Y-53977000D01*
X42927000Y-53997000D01*
X42873117Y-53997000D01*
X42907599Y-53823647D01*
X42907599Y-53823644D01*
X42921531Y-53753602D01*
X42913097Y-53711200D01*
X42927000Y-53711200D01*
X42927000Y-53723000D01*
X42927000Y-53723000D01*
G37*
X42927000Y-53723000D02*
X42947000Y-53723000D01*
X42947000Y-53977000D01*
X42927000Y-53977000D01*
X42927000Y-53997000D01*
X42873117Y-53997000D01*
X42907599Y-53823647D01*
X42907599Y-53823644D01*
X42921531Y-53753602D01*
X42913097Y-53711200D01*
X42927000Y-53711200D01*
X42927000Y-53723000D01*
G04 #@! TD*
M02*
