M48
;DRILL file {KiCad 5.0.0} date Mon Sep  3 16:09:02 2018
;FORMAT={-:-/ absolute / inch / decimal}
FMAT,2
INCH,TZ
T1C0.0100
T2C0.0130
T3C0.0197
T4C0.0276
T5C0.0394
%
G90
G05
M72
T1
X1.3406Y-2.2638
X1.3583Y-2.0591
X1.372Y-2.1161
X1.4449Y-2.3078
X1.4471Y-2.2079
X1.4665Y-2.25
X1.5394Y-2.0276
X1.5394Y-2.1142
X1.5669Y-2.1575
X1.5669Y-2.1929
X1.6036Y-2.0469
X1.6102Y-2.3051
X1.6635Y-2.066
X1.6893Y-2.1837
X1.7638Y-2.1555
X1.8819Y-2.1634
X1.9153Y-2.1827
X1.9508Y-2.1772
X2.0315Y-2.3051
X2.1852Y-2.1337
X2.2109Y-2.2784
X2.2185Y-2.0807
X2.2185Y-2.1398
X2.2244Y-2.0413
X2.3327Y-2.0177
X2.563Y-2.0415
X2.5968Y-2.1997
X2.5968Y-2.2981
X2.628Y-2.0256
X2.7067Y-2.1024
X2.8583Y-2.0866
X2.9173Y-2.2539
X2.9409Y-2.1024
X2.9567Y-2.0374
T2
X1.1083Y-2.2008
X1.3189Y-2.185
T3
X1.8189Y-2.0512
X1.8189Y-2.126
T4
X2.6764Y-2.2835
X2.7264Y-2.2835
X1.1654Y-2.2953
X1.2154Y-2.2953
X1.2654Y-2.2953
X1.887Y-2.2441
X1.887Y-2.2941
X1.937Y-2.2441
X1.937Y-2.2941
X1.1417Y-2.0433
X1.1917Y-2.0433
T5
X1.7559Y-2.2835
T0
M30
