G04 #@! TF.GenerationSoftware,KiCad,Pcbnew,5.0.0*
G04 #@! TF.CreationDate,2018-09-03T16:08:59-04:00*
G04 #@! TF.ProjectId,controller,636F6E74726F6C6C65722E6B69636164,rev?*
G04 #@! TF.SameCoordinates,Original*
G04 #@! TF.FileFunction,Legend,Top*
G04 #@! TF.FilePolarity,Positive*
%FSLAX46Y46*%
G04 Gerber Fmt 4.6, Leading zero omitted, Abs format (unit mm)*
G04 Created by KiCad (PCBNEW 5.0.0) date Mon Sep  3 16:08:59 2018*
%MOMM*%
%LPD*%
G01*
G04 APERTURE LIST*
%ADD10C,0.152400*%
%ADD11C,0.120000*%
%ADD12C,0.150000*%
G04 APERTURE END LIST*
D10*
X33800000Y-58550000D02*
X32950000Y-56600000D01*
X56600000Y-58400000D02*
X54350000Y-58400000D01*
X56900000Y-57900000D02*
X56600000Y-58400000D01*
X51800000Y-54650000D02*
X51700000Y-54950000D01*
X54350000Y-54600000D02*
X51800000Y-54650000D01*
X54700000Y-54900000D02*
X54350000Y-54600000D01*
D11*
G04 #@! TO.C,C13*
X72800000Y-55180000D02*
X72300000Y-55180000D01*
X72300000Y-56120000D02*
X72800000Y-56120000D01*
G04 #@! TO.C,C12*
X74930000Y-54900000D02*
X74930000Y-55400000D01*
X75870000Y-55400000D02*
X75870000Y-54900000D01*
G04 #@! TO.C,C11*
X45270000Y-52450000D02*
X45270000Y-51950000D01*
X44330000Y-51950000D02*
X44330000Y-52450000D01*
G04 #@! TO.C,C10*
X45270000Y-54450000D02*
X45270000Y-53950000D01*
X44330000Y-53950000D02*
X44330000Y-54450000D01*
G04 #@! TO.C,C9*
X44270000Y-55050000D02*
X44270000Y-54550000D01*
X43330000Y-54550000D02*
X43330000Y-55050000D01*
G04 #@! TO.C,C1*
X66600000Y-56950000D02*
X66600000Y-57650000D01*
X65400000Y-57650000D02*
X65400000Y-56950000D01*
G04 #@! TO.C,C2*
X31600000Y-55050000D02*
X31600000Y-54350000D01*
X32800000Y-54350000D02*
X32800000Y-55050000D01*
G04 #@! TO.C,C17*
X52450000Y-57800000D02*
X52450000Y-56800000D01*
X50750000Y-56800000D02*
X50750000Y-57800000D01*
G04 #@! TO.C,Y1*
X47100000Y-52100000D02*
X46900000Y-52100000D01*
X48000000Y-52700000D02*
X47100000Y-52100000D01*
X47100000Y-54000000D02*
X46900000Y-54000000D01*
X48000000Y-53400000D02*
X47100000Y-54000000D01*
X48000000Y-51850000D02*
X48000000Y-54250000D01*
X54400000Y-51850000D02*
X48000000Y-51850000D01*
X54400000Y-54250000D02*
X54400000Y-51850000D01*
X48000000Y-54250000D02*
X54400000Y-54250000D01*
G04 #@! TO.C,R5*
X74650000Y-57680000D02*
X75150000Y-57680000D01*
X75150000Y-56620000D02*
X74650000Y-56620000D01*
G04 #@! TO.C,R10*
X35950000Y-55270000D02*
X35450000Y-55270000D01*
X35450000Y-56330000D02*
X35950000Y-56330000D01*
G04 #@! TO.C,R12*
X70130000Y-53150000D02*
X70130000Y-52650000D01*
X69070000Y-52650000D02*
X69070000Y-53150000D01*
G04 #@! TO.C,R4*
X60450000Y-55330000D02*
X60950000Y-55330000D01*
X60950000Y-54270000D02*
X60450000Y-54270000D01*
G04 #@! TO.C,R9*
X35950000Y-54170000D02*
X35450000Y-54170000D01*
X35450000Y-55230000D02*
X35950000Y-55230000D01*
G04 #@! TO.C,R1*
X66000000Y-55180000D02*
X65000000Y-55180000D01*
X65000000Y-53820000D02*
X66000000Y-53820000D01*
G04 #@! TO.C,R3*
X32900000Y-51620000D02*
X33900000Y-51620000D01*
X33900000Y-52980000D02*
X32900000Y-52980000D01*
G04 #@! TO.C,R8*
X59900000Y-51320000D02*
X60900000Y-51320000D01*
X60900000Y-52680000D02*
X59900000Y-52680000D01*
G04 #@! TO.C,R11*
X52820000Y-57700000D02*
X52820000Y-56700000D01*
X54180000Y-56700000D02*
X54180000Y-57700000D01*
G04 #@! TO.C,J1*
X43270000Y-56670000D02*
X44600000Y-56670000D01*
X43270000Y-58000000D02*
X43270000Y-56670000D01*
X45930000Y-59270000D02*
X43270000Y-59270000D01*
X45930000Y-59330000D02*
X45930000Y-59270000D01*
X43270000Y-59330000D02*
X45930000Y-59330000D01*
X43270000Y-59270000D02*
X43270000Y-59330000D01*
G04 #@! TO.C,J2*
X29635000Y-53230000D02*
X30965000Y-53230000D01*
X30965000Y-53230000D02*
X30965000Y-50570000D01*
X30965000Y-50570000D02*
X29635000Y-50570000D01*
X29635000Y-50570000D02*
X29635000Y-53230000D01*
X29000000Y-53230000D02*
X28305000Y-53230000D01*
X28305000Y-53230000D02*
X28305000Y-51900000D01*
G04 #@! TO.C,D1*
X69945000Y-56670000D02*
X69945000Y-58000000D01*
X69250000Y-56670000D02*
X69945000Y-56670000D01*
X68615000Y-59330000D02*
X68615000Y-56670000D01*
X67285000Y-59330000D02*
X68615000Y-59330000D01*
X67285000Y-56670000D02*
X67285000Y-59330000D01*
X68615000Y-56670000D02*
X67285000Y-56670000D01*
G04 #@! TO.C,J3*
X28905000Y-59630000D02*
X28905000Y-58300000D01*
X29600000Y-59630000D02*
X28905000Y-59630000D01*
X30235000Y-56970000D02*
X30235000Y-59630000D01*
X32835000Y-56970000D02*
X30235000Y-56970000D01*
X32835000Y-59630000D02*
X32835000Y-56970000D01*
X30235000Y-59630000D02*
X32835000Y-59630000D01*
G04 #@! TO.C,J4*
X50150000Y-56305000D02*
X49515000Y-56305000D01*
X50150000Y-57000000D02*
X50150000Y-56305000D01*
X48565000Y-57635000D02*
X50150000Y-57635000D01*
X48565000Y-56305000D02*
X48565000Y-57635000D01*
X46980000Y-56305000D02*
X48565000Y-56305000D01*
X46980000Y-58965000D02*
X46980000Y-56305000D01*
X50150000Y-58965000D02*
X46980000Y-58965000D01*
X50150000Y-57635000D02*
X50150000Y-58965000D01*
G04 #@! TO.C,Q3*
X63260000Y-58580000D02*
X61800000Y-58580000D01*
X63260000Y-55420000D02*
X60100000Y-55420000D01*
X63260000Y-55420000D02*
X63260000Y-56350000D01*
X63260000Y-58580000D02*
X63260000Y-57650000D01*
D12*
G04 #@! TO.C,U4*
X70750000Y-51975000D02*
X71625000Y-51600000D01*
X73275000Y-51600000D02*
X74150000Y-51600000D01*
X74150000Y-51600000D02*
X74150000Y-51975000D01*
X74150000Y-54125000D02*
X74150000Y-54500000D01*
X74150000Y-54500000D02*
X73275000Y-54500000D01*
X71625000Y-54500000D02*
X70750000Y-54500000D01*
X70750000Y-54500000D02*
X70750000Y-54125000D01*
X70875000Y-51425000D02*
G75*
G03X70875000Y-51425000I-150000J0D01*
G01*
G04 #@! TO.C,Q1*
X31300000Y-54200000D02*
X31300000Y-54700000D01*
X30800000Y-54200000D02*
X31300000Y-54200000D01*
X28700000Y-54200000D02*
X28700000Y-54700000D01*
X28700000Y-54200000D02*
X29200000Y-54200000D01*
G04 #@! TO.C,Q2*
X33050000Y-53850000D02*
X33250000Y-53850000D01*
X33050000Y-53650000D02*
X33050000Y-53850000D01*
X33050000Y-53150000D02*
X33050000Y-53350000D01*
X33250000Y-53150000D02*
X33050000Y-53150000D01*
X34150000Y-53850000D02*
X33700000Y-53850000D01*
X34150000Y-53150000D02*
X34150000Y-53850000D01*
X33700000Y-53150000D02*
X34150000Y-53150000D01*
G04 #@! TO.C,U3*
X41750000Y-56870000D02*
X40870000Y-57250000D01*
X38730000Y-57250000D02*
X37850000Y-57250000D01*
X37850000Y-57250000D02*
X37850000Y-56870000D01*
X37850000Y-52730000D02*
X37850000Y-52350000D01*
X37850000Y-52350000D02*
X38730000Y-52350000D01*
X40870000Y-52350000D02*
X41750000Y-52350000D01*
X41750000Y-52350000D02*
X41750000Y-52730000D01*
X41925000Y-57425000D02*
G75*
G03X41925000Y-57425000I-150000J0D01*
G01*
G04 #@! TO.C,C13*
X71907142Y-57277142D02*
X71859523Y-57324761D01*
X71716666Y-57372380D01*
X71621428Y-57372380D01*
X71478571Y-57324761D01*
X71383333Y-57229523D01*
X71335714Y-57134285D01*
X71288095Y-56943809D01*
X71288095Y-56800952D01*
X71335714Y-56610476D01*
X71383333Y-56515238D01*
X71478571Y-56420000D01*
X71621428Y-56372380D01*
X71716666Y-56372380D01*
X71859523Y-56420000D01*
X71907142Y-56467619D01*
X72859523Y-57372380D02*
X72288095Y-57372380D01*
X72573809Y-57372380D02*
X72573809Y-56372380D01*
X72478571Y-56515238D01*
X72383333Y-56610476D01*
X72288095Y-56658095D01*
X73192857Y-56372380D02*
X73811904Y-56372380D01*
X73478571Y-56753333D01*
X73621428Y-56753333D01*
X73716666Y-56800952D01*
X73764285Y-56848571D01*
X73811904Y-56943809D01*
X73811904Y-57181904D01*
X73764285Y-57277142D01*
X73716666Y-57324761D01*
X73621428Y-57372380D01*
X73335714Y-57372380D01*
X73240476Y-57324761D01*
X73192857Y-57277142D01*
G04 #@! TO.C,C12*
X77007142Y-55792857D02*
X77054761Y-55840476D01*
X77102380Y-55983333D01*
X77102380Y-56078571D01*
X77054761Y-56221428D01*
X76959523Y-56316666D01*
X76864285Y-56364285D01*
X76673809Y-56411904D01*
X76530952Y-56411904D01*
X76340476Y-56364285D01*
X76245238Y-56316666D01*
X76150000Y-56221428D01*
X76102380Y-56078571D01*
X76102380Y-55983333D01*
X76150000Y-55840476D01*
X76197619Y-55792857D01*
X77102380Y-54840476D02*
X77102380Y-55411904D01*
X77102380Y-55126190D02*
X76102380Y-55126190D01*
X76245238Y-55221428D01*
X76340476Y-55316666D01*
X76388095Y-55411904D01*
X76197619Y-54459523D02*
X76150000Y-54411904D01*
X76102380Y-54316666D01*
X76102380Y-54078571D01*
X76150000Y-53983333D01*
X76197619Y-53935714D01*
X76292857Y-53888095D01*
X76388095Y-53888095D01*
X76530952Y-53935714D01*
X77102380Y-54507142D01*
X77102380Y-53888095D01*
G04 #@! TO.C,C11*
X43887142Y-52842857D02*
X43934761Y-52890476D01*
X43982380Y-53033333D01*
X43982380Y-53128571D01*
X43934761Y-53271428D01*
X43839523Y-53366666D01*
X43744285Y-53414285D01*
X43553809Y-53461904D01*
X43410952Y-53461904D01*
X43220476Y-53414285D01*
X43125238Y-53366666D01*
X43030000Y-53271428D01*
X42982380Y-53128571D01*
X42982380Y-53033333D01*
X43030000Y-52890476D01*
X43077619Y-52842857D01*
X43982380Y-51890476D02*
X43982380Y-52461904D01*
X43982380Y-52176190D02*
X42982380Y-52176190D01*
X43125238Y-52271428D01*
X43220476Y-52366666D01*
X43268095Y-52461904D01*
X43982380Y-50938095D02*
X43982380Y-51509523D01*
X43982380Y-51223809D02*
X42982380Y-51223809D01*
X43125238Y-51319047D01*
X43220476Y-51414285D01*
X43268095Y-51509523D01*
G04 #@! TO.C,C10*
X45157142Y-56257142D02*
X45109523Y-56304761D01*
X44966666Y-56352380D01*
X44871428Y-56352380D01*
X44728571Y-56304761D01*
X44633333Y-56209523D01*
X44585714Y-56114285D01*
X44538095Y-55923809D01*
X44538095Y-55780952D01*
X44585714Y-55590476D01*
X44633333Y-55495238D01*
X44728571Y-55400000D01*
X44871428Y-55352380D01*
X44966666Y-55352380D01*
X45109523Y-55400000D01*
X45157142Y-55447619D01*
X46109523Y-56352380D02*
X45538095Y-56352380D01*
X45823809Y-56352380D02*
X45823809Y-55352380D01*
X45728571Y-55495238D01*
X45633333Y-55590476D01*
X45538095Y-55638095D01*
X46728571Y-55352380D02*
X46823809Y-55352380D01*
X46919047Y-55400000D01*
X46966666Y-55447619D01*
X47014285Y-55542857D01*
X47061904Y-55733333D01*
X47061904Y-55971428D01*
X47014285Y-56161904D01*
X46966666Y-56257142D01*
X46919047Y-56304761D01*
X46823809Y-56352380D01*
X46728571Y-56352380D01*
X46633333Y-56304761D01*
X46585714Y-56257142D01*
X46538095Y-56161904D01*
X46490476Y-55971428D01*
X46490476Y-55733333D01*
X46538095Y-55542857D01*
X46585714Y-55447619D01*
X46633333Y-55400000D01*
X46728571Y-55352380D01*
G04 #@! TO.C,C9*
X42887142Y-54966666D02*
X42934761Y-55014285D01*
X42982380Y-55157142D01*
X42982380Y-55252380D01*
X42934761Y-55395238D01*
X42839523Y-55490476D01*
X42744285Y-55538095D01*
X42553809Y-55585714D01*
X42410952Y-55585714D01*
X42220476Y-55538095D01*
X42125238Y-55490476D01*
X42030000Y-55395238D01*
X41982380Y-55252380D01*
X41982380Y-55157142D01*
X42030000Y-55014285D01*
X42077619Y-54966666D01*
X42982380Y-54490476D02*
X42982380Y-54300000D01*
X42934761Y-54204761D01*
X42887142Y-54157142D01*
X42744285Y-54061904D01*
X42553809Y-54014285D01*
X42172857Y-54014285D01*
X42077619Y-54061904D01*
X42030000Y-54109523D01*
X41982380Y-54204761D01*
X41982380Y-54395238D01*
X42030000Y-54490476D01*
X42077619Y-54538095D01*
X42172857Y-54585714D01*
X42410952Y-54585714D01*
X42506190Y-54538095D01*
X42553809Y-54490476D01*
X42601428Y-54395238D01*
X42601428Y-54204761D01*
X42553809Y-54109523D01*
X42506190Y-54061904D01*
X42410952Y-54014285D01*
G04 #@! TO.C,C1*
X64657142Y-58666666D02*
X64704761Y-58714285D01*
X64752380Y-58857142D01*
X64752380Y-58952380D01*
X64704761Y-59095238D01*
X64609523Y-59190476D01*
X64514285Y-59238095D01*
X64323809Y-59285714D01*
X64180952Y-59285714D01*
X63990476Y-59238095D01*
X63895238Y-59190476D01*
X63800000Y-59095238D01*
X63752380Y-58952380D01*
X63752380Y-58857142D01*
X63800000Y-58714285D01*
X63847619Y-58666666D01*
X64752380Y-57714285D02*
X64752380Y-58285714D01*
X64752380Y-58000000D02*
X63752380Y-58000000D01*
X63895238Y-58095238D01*
X63990476Y-58190476D01*
X64038095Y-58285714D01*
G04 #@! TO.C,C2*
X34633333Y-58857142D02*
X34585714Y-58904761D01*
X34442857Y-58952380D01*
X34347619Y-58952380D01*
X34204761Y-58904761D01*
X34109523Y-58809523D01*
X34061904Y-58714285D01*
X34014285Y-58523809D01*
X34014285Y-58380952D01*
X34061904Y-58190476D01*
X34109523Y-58095238D01*
X34204761Y-58000000D01*
X34347619Y-57952380D01*
X34442857Y-57952380D01*
X34585714Y-58000000D01*
X34633333Y-58047619D01*
X35014285Y-58047619D02*
X35061904Y-58000000D01*
X35157142Y-57952380D01*
X35395238Y-57952380D01*
X35490476Y-58000000D01*
X35538095Y-58047619D01*
X35585714Y-58142857D01*
X35585714Y-58238095D01*
X35538095Y-58380952D01*
X34966666Y-58952380D01*
X35585714Y-58952380D01*
G04 #@! TO.C,C17*
X55657142Y-57092857D02*
X55704761Y-57140476D01*
X55752380Y-57283333D01*
X55752380Y-57378571D01*
X55704761Y-57521428D01*
X55609523Y-57616666D01*
X55514285Y-57664285D01*
X55323809Y-57711904D01*
X55180952Y-57711904D01*
X54990476Y-57664285D01*
X54895238Y-57616666D01*
X54800000Y-57521428D01*
X54752380Y-57378571D01*
X54752380Y-57283333D01*
X54800000Y-57140476D01*
X54847619Y-57092857D01*
X55752380Y-56140476D02*
X55752380Y-56711904D01*
X55752380Y-56426190D02*
X54752380Y-56426190D01*
X54895238Y-56521428D01*
X54990476Y-56616666D01*
X55038095Y-56711904D01*
X54752380Y-55807142D02*
X54752380Y-55140476D01*
X55752380Y-55569047D01*
G04 #@! TO.C,Y1*
X55576190Y-53176190D02*
X56052380Y-53176190D01*
X55052380Y-53509523D02*
X55576190Y-53176190D01*
X55052380Y-52842857D01*
X56052380Y-51985714D02*
X56052380Y-52557142D01*
X56052380Y-52271428D02*
X55052380Y-52271428D01*
X55195238Y-52366666D01*
X55290476Y-52461904D01*
X55338095Y-52557142D01*
G04 #@! TO.C,R5*
X74733333Y-58852380D02*
X74400000Y-58376190D01*
X74161904Y-58852380D02*
X74161904Y-57852380D01*
X74542857Y-57852380D01*
X74638095Y-57900000D01*
X74685714Y-57947619D01*
X74733333Y-58042857D01*
X74733333Y-58185714D01*
X74685714Y-58280952D01*
X74638095Y-58328571D01*
X74542857Y-58376190D01*
X74161904Y-58376190D01*
X75638095Y-57852380D02*
X75161904Y-57852380D01*
X75114285Y-58328571D01*
X75161904Y-58280952D01*
X75257142Y-58233333D01*
X75495238Y-58233333D01*
X75590476Y-58280952D01*
X75638095Y-58328571D01*
X75685714Y-58423809D01*
X75685714Y-58661904D01*
X75638095Y-58757142D01*
X75590476Y-58804761D01*
X75495238Y-58852380D01*
X75257142Y-58852380D01*
X75161904Y-58804761D01*
X75114285Y-58757142D01*
G04 #@! TO.C,R10*
X34807142Y-57502380D02*
X34473809Y-57026190D01*
X34235714Y-57502380D02*
X34235714Y-56502380D01*
X34616666Y-56502380D01*
X34711904Y-56550000D01*
X34759523Y-56597619D01*
X34807142Y-56692857D01*
X34807142Y-56835714D01*
X34759523Y-56930952D01*
X34711904Y-56978571D01*
X34616666Y-57026190D01*
X34235714Y-57026190D01*
X35759523Y-57502380D02*
X35188095Y-57502380D01*
X35473809Y-57502380D02*
X35473809Y-56502380D01*
X35378571Y-56645238D01*
X35283333Y-56740476D01*
X35188095Y-56788095D01*
X36378571Y-56502380D02*
X36473809Y-56502380D01*
X36569047Y-56550000D01*
X36616666Y-56597619D01*
X36664285Y-56692857D01*
X36711904Y-56883333D01*
X36711904Y-57121428D01*
X36664285Y-57311904D01*
X36616666Y-57407142D01*
X36569047Y-57454761D01*
X36473809Y-57502380D01*
X36378571Y-57502380D01*
X36283333Y-57454761D01*
X36235714Y-57407142D01*
X36188095Y-57311904D01*
X36140476Y-57121428D01*
X36140476Y-56883333D01*
X36188095Y-56692857D01*
X36235714Y-56597619D01*
X36283333Y-56550000D01*
X36378571Y-56502380D01*
G04 #@! TO.C,R12*
X68702380Y-53542857D02*
X68226190Y-53876190D01*
X68702380Y-54114285D02*
X67702380Y-54114285D01*
X67702380Y-53733333D01*
X67750000Y-53638095D01*
X67797619Y-53590476D01*
X67892857Y-53542857D01*
X68035714Y-53542857D01*
X68130952Y-53590476D01*
X68178571Y-53638095D01*
X68226190Y-53733333D01*
X68226190Y-54114285D01*
X68702380Y-52590476D02*
X68702380Y-53161904D01*
X68702380Y-52876190D02*
X67702380Y-52876190D01*
X67845238Y-52971428D01*
X67940476Y-53066666D01*
X67988095Y-53161904D01*
X67797619Y-52209523D02*
X67750000Y-52161904D01*
X67702380Y-52066666D01*
X67702380Y-51828571D01*
X67750000Y-51733333D01*
X67797619Y-51685714D01*
X67892857Y-51638095D01*
X67988095Y-51638095D01*
X68130952Y-51685714D01*
X68702380Y-52257142D01*
X68702380Y-51638095D01*
G04 #@! TO.C,R4*
X60533333Y-54202380D02*
X60200000Y-53726190D01*
X59961904Y-54202380D02*
X59961904Y-53202380D01*
X60342857Y-53202380D01*
X60438095Y-53250000D01*
X60485714Y-53297619D01*
X60533333Y-53392857D01*
X60533333Y-53535714D01*
X60485714Y-53630952D01*
X60438095Y-53678571D01*
X60342857Y-53726190D01*
X59961904Y-53726190D01*
X61390476Y-53535714D02*
X61390476Y-54202380D01*
X61152380Y-53154761D02*
X60914285Y-53869047D01*
X61533333Y-53869047D01*
G04 #@! TO.C,R9*
X36233333Y-53952380D02*
X35900000Y-53476190D01*
X35661904Y-53952380D02*
X35661904Y-52952380D01*
X36042857Y-52952380D01*
X36138095Y-53000000D01*
X36185714Y-53047619D01*
X36233333Y-53142857D01*
X36233333Y-53285714D01*
X36185714Y-53380952D01*
X36138095Y-53428571D01*
X36042857Y-53476190D01*
X35661904Y-53476190D01*
X36709523Y-53952380D02*
X36900000Y-53952380D01*
X36995238Y-53904761D01*
X37042857Y-53857142D01*
X37138095Y-53714285D01*
X37185714Y-53523809D01*
X37185714Y-53142857D01*
X37138095Y-53047619D01*
X37090476Y-53000000D01*
X36995238Y-52952380D01*
X36804761Y-52952380D01*
X36709523Y-53000000D01*
X36661904Y-53047619D01*
X36614285Y-53142857D01*
X36614285Y-53380952D01*
X36661904Y-53476190D01*
X36709523Y-53523809D01*
X36804761Y-53571428D01*
X36995238Y-53571428D01*
X37090476Y-53523809D01*
X37138095Y-53476190D01*
X37185714Y-53380952D01*
G04 #@! TO.C,R1*
X65333333Y-53602380D02*
X65000000Y-53126190D01*
X64761904Y-53602380D02*
X64761904Y-52602380D01*
X65142857Y-52602380D01*
X65238095Y-52650000D01*
X65285714Y-52697619D01*
X65333333Y-52792857D01*
X65333333Y-52935714D01*
X65285714Y-53030952D01*
X65238095Y-53078571D01*
X65142857Y-53126190D01*
X64761904Y-53126190D01*
X66285714Y-53602380D02*
X65714285Y-53602380D01*
X66000000Y-53602380D02*
X66000000Y-52602380D01*
X65904761Y-52745238D01*
X65809523Y-52840476D01*
X65714285Y-52888095D01*
G04 #@! TO.C,R3*
X33233333Y-51302380D02*
X32900000Y-50826190D01*
X32661904Y-51302380D02*
X32661904Y-50302380D01*
X33042857Y-50302380D01*
X33138095Y-50350000D01*
X33185714Y-50397619D01*
X33233333Y-50492857D01*
X33233333Y-50635714D01*
X33185714Y-50730952D01*
X33138095Y-50778571D01*
X33042857Y-50826190D01*
X32661904Y-50826190D01*
X33566666Y-50302380D02*
X34185714Y-50302380D01*
X33852380Y-50683333D01*
X33995238Y-50683333D01*
X34090476Y-50730952D01*
X34138095Y-50778571D01*
X34185714Y-50873809D01*
X34185714Y-51111904D01*
X34138095Y-51207142D01*
X34090476Y-51254761D01*
X33995238Y-51302380D01*
X33709523Y-51302380D01*
X33614285Y-51254761D01*
X33566666Y-51207142D01*
G04 #@! TO.C,R8*
X63233333Y-52402380D02*
X62900000Y-51926190D01*
X62661904Y-52402380D02*
X62661904Y-51402380D01*
X63042857Y-51402380D01*
X63138095Y-51450000D01*
X63185714Y-51497619D01*
X63233333Y-51592857D01*
X63233333Y-51735714D01*
X63185714Y-51830952D01*
X63138095Y-51878571D01*
X63042857Y-51926190D01*
X62661904Y-51926190D01*
X63804761Y-51830952D02*
X63709523Y-51783333D01*
X63661904Y-51735714D01*
X63614285Y-51640476D01*
X63614285Y-51592857D01*
X63661904Y-51497619D01*
X63709523Y-51450000D01*
X63804761Y-51402380D01*
X63995238Y-51402380D01*
X64090476Y-51450000D01*
X64138095Y-51497619D01*
X64185714Y-51592857D01*
X64185714Y-51640476D01*
X64138095Y-51735714D01*
X64090476Y-51783333D01*
X63995238Y-51830952D01*
X63804761Y-51830952D01*
X63709523Y-51878571D01*
X63661904Y-51926190D01*
X63614285Y-52021428D01*
X63614285Y-52211904D01*
X63661904Y-52307142D01*
X63709523Y-52354761D01*
X63804761Y-52402380D01*
X63995238Y-52402380D01*
X64090476Y-52354761D01*
X64138095Y-52307142D01*
X64185714Y-52211904D01*
X64185714Y-52021428D01*
X64138095Y-51926190D01*
X64090476Y-51878571D01*
X63995238Y-51830952D01*
G04 #@! TO.C,R11*
X57352380Y-57042857D02*
X56876190Y-57376190D01*
X57352380Y-57614285D02*
X56352380Y-57614285D01*
X56352380Y-57233333D01*
X56400000Y-57138095D01*
X56447619Y-57090476D01*
X56542857Y-57042857D01*
X56685714Y-57042857D01*
X56780952Y-57090476D01*
X56828571Y-57138095D01*
X56876190Y-57233333D01*
X56876190Y-57614285D01*
X57352380Y-56090476D02*
X57352380Y-56661904D01*
X57352380Y-56376190D02*
X56352380Y-56376190D01*
X56495238Y-56471428D01*
X56590476Y-56566666D01*
X56638095Y-56661904D01*
X57352380Y-55138095D02*
X57352380Y-55709523D01*
X57352380Y-55423809D02*
X56352380Y-55423809D01*
X56495238Y-55519047D01*
X56590476Y-55614285D01*
X56638095Y-55709523D01*
G04 #@! TO.C,J1*
X41902380Y-58733333D02*
X42616666Y-58733333D01*
X42759523Y-58780952D01*
X42854761Y-58876190D01*
X42902380Y-59019047D01*
X42902380Y-59114285D01*
X42902380Y-57733333D02*
X42902380Y-58304761D01*
X42902380Y-58019047D02*
X41902380Y-58019047D01*
X42045238Y-58114285D01*
X42140476Y-58209523D01*
X42188095Y-58304761D01*
G04 #@! TO.C,J2*
X26757380Y-52233333D02*
X27471666Y-52233333D01*
X27614523Y-52280952D01*
X27709761Y-52376190D01*
X27757380Y-52519047D01*
X27757380Y-52614285D01*
X26852619Y-51804761D02*
X26805000Y-51757142D01*
X26757380Y-51661904D01*
X26757380Y-51423809D01*
X26805000Y-51328571D01*
X26852619Y-51280952D01*
X26947857Y-51233333D01*
X27043095Y-51233333D01*
X27185952Y-51280952D01*
X27757380Y-51852380D01*
X27757380Y-51233333D01*
G04 #@! TO.C,D1*
X67761904Y-56552380D02*
X67761904Y-55552380D01*
X68000000Y-55552380D01*
X68142857Y-55600000D01*
X68238095Y-55695238D01*
X68285714Y-55790476D01*
X68333333Y-55980952D01*
X68333333Y-56123809D01*
X68285714Y-56314285D01*
X68238095Y-56409523D01*
X68142857Y-56504761D01*
X68000000Y-56552380D01*
X67761904Y-56552380D01*
X69285714Y-56552380D02*
X68714285Y-56552380D01*
X69000000Y-56552380D02*
X69000000Y-55552380D01*
X68904761Y-55695238D01*
X68809523Y-55790476D01*
X68714285Y-55838095D01*
G04 #@! TO.C,J3*
X27357380Y-58633333D02*
X28071666Y-58633333D01*
X28214523Y-58680952D01*
X28309761Y-58776190D01*
X28357380Y-58919047D01*
X28357380Y-59014285D01*
X27357380Y-58252380D02*
X27357380Y-57633333D01*
X27738333Y-57966666D01*
X27738333Y-57823809D01*
X27785952Y-57728571D01*
X27833571Y-57680952D01*
X27928809Y-57633333D01*
X28166904Y-57633333D01*
X28262142Y-57680952D01*
X28309761Y-57728571D01*
X28357380Y-57823809D01*
X28357380Y-58109523D01*
X28309761Y-58204761D01*
X28262142Y-58252380D01*
G04 #@! TO.C,J4*
X48231666Y-54757380D02*
X48231666Y-55471666D01*
X48184047Y-55614523D01*
X48088809Y-55709761D01*
X47945952Y-55757380D01*
X47850714Y-55757380D01*
X49136428Y-55090714D02*
X49136428Y-55757380D01*
X48898333Y-54709761D02*
X48660238Y-55424047D01*
X49279285Y-55424047D01*
G04 #@! TO.C,Q3*
X59447619Y-57095238D02*
X59400000Y-57190476D01*
X59304761Y-57285714D01*
X59161904Y-57428571D01*
X59114285Y-57523809D01*
X59114285Y-57619047D01*
X59352380Y-57571428D02*
X59304761Y-57666666D01*
X59209523Y-57761904D01*
X59019047Y-57809523D01*
X58685714Y-57809523D01*
X58495238Y-57761904D01*
X58400000Y-57666666D01*
X58352380Y-57571428D01*
X58352380Y-57380952D01*
X58400000Y-57285714D01*
X58495238Y-57190476D01*
X58685714Y-57142857D01*
X59019047Y-57142857D01*
X59209523Y-57190476D01*
X59304761Y-57285714D01*
X59352380Y-57380952D01*
X59352380Y-57571428D01*
X58352380Y-56809523D02*
X58352380Y-56190476D01*
X58733333Y-56523809D01*
X58733333Y-56380952D01*
X58780952Y-56285714D01*
X58828571Y-56238095D01*
X58923809Y-56190476D01*
X59161904Y-56190476D01*
X59257142Y-56238095D01*
X59304761Y-56285714D01*
X59352380Y-56380952D01*
X59352380Y-56666666D01*
X59304761Y-56761904D01*
X59257142Y-56809523D01*
G04 #@! TO.C,U4*
X69324026Y-51401522D02*
X69896446Y-51973942D01*
X69997461Y-52007614D01*
X70064805Y-52007614D01*
X70165820Y-51973942D01*
X70300507Y-51839255D01*
X70334179Y-51738240D01*
X70334179Y-51670896D01*
X70300507Y-51569881D01*
X69728087Y-50997461D01*
X70603553Y-50593400D02*
X71074957Y-51064805D01*
X70165820Y-50492385D02*
X70502538Y-51165820D01*
X70940270Y-50728087D01*
G04 #@! TO.C,Q1*
X28297619Y-54495238D02*
X28250000Y-54590476D01*
X28154761Y-54685714D01*
X28011904Y-54828571D01*
X27964285Y-54923809D01*
X27964285Y-55019047D01*
X28202380Y-54971428D02*
X28154761Y-55066666D01*
X28059523Y-55161904D01*
X27869047Y-55209523D01*
X27535714Y-55209523D01*
X27345238Y-55161904D01*
X27250000Y-55066666D01*
X27202380Y-54971428D01*
X27202380Y-54780952D01*
X27250000Y-54685714D01*
X27345238Y-54590476D01*
X27535714Y-54542857D01*
X27869047Y-54542857D01*
X28059523Y-54590476D01*
X28154761Y-54685714D01*
X28202380Y-54780952D01*
X28202380Y-54971428D01*
X28202380Y-53590476D02*
X28202380Y-54161904D01*
X28202380Y-53876190D02*
X27202380Y-53876190D01*
X27345238Y-53971428D01*
X27440476Y-54066666D01*
X27488095Y-54161904D01*
G04 #@! TO.C,Q2*
X33504761Y-55197619D02*
X33409523Y-55150000D01*
X33314285Y-55054761D01*
X33171428Y-54911904D01*
X33076190Y-54864285D01*
X32980952Y-54864285D01*
X33028571Y-55102380D02*
X32933333Y-55054761D01*
X32838095Y-54959523D01*
X32790476Y-54769047D01*
X32790476Y-54435714D01*
X32838095Y-54245238D01*
X32933333Y-54150000D01*
X33028571Y-54102380D01*
X33219047Y-54102380D01*
X33314285Y-54150000D01*
X33409523Y-54245238D01*
X33457142Y-54435714D01*
X33457142Y-54769047D01*
X33409523Y-54959523D01*
X33314285Y-55054761D01*
X33219047Y-55102380D01*
X33028571Y-55102380D01*
X33838095Y-54197619D02*
X33885714Y-54150000D01*
X33980952Y-54102380D01*
X34219047Y-54102380D01*
X34314285Y-54150000D01*
X34361904Y-54197619D01*
X34409523Y-54292857D01*
X34409523Y-54388095D01*
X34361904Y-54530952D01*
X33790476Y-55102380D01*
X34409523Y-55102380D01*
G04 #@! TO.C,U3*
X38788095Y-57852380D02*
X38788095Y-58661904D01*
X38835714Y-58757142D01*
X38883333Y-58804761D01*
X38978571Y-58852380D01*
X39169047Y-58852380D01*
X39264285Y-58804761D01*
X39311904Y-58757142D01*
X39359523Y-58661904D01*
X39359523Y-57852380D01*
X39740476Y-57852380D02*
X40359523Y-57852380D01*
X40026190Y-58233333D01*
X40169047Y-58233333D01*
X40264285Y-58280952D01*
X40311904Y-58328571D01*
X40359523Y-58423809D01*
X40359523Y-58661904D01*
X40311904Y-58757142D01*
X40264285Y-58804761D01*
X40169047Y-58852380D01*
X39883333Y-58852380D01*
X39788095Y-58804761D01*
X39740476Y-58757142D01*
G04 #@! TD*
M02*
