%FSLAX45Y45*%
G04 Gerber Fmt 4.5, Leading zero omitted, Abs format (unit mm)*
G04 Created by KiCad (PCBNEW 5.0.0) date Mon Sep  3 16:09:04 2018*
%MOMM*%
%LPD*%
G01*
G04 APERTURE LIST*
%ADD10C,0.152400*%
%ADD11C,0.200000*%
%ADD12C,0.300000*%
G04 APERTURE END LIST*
D10*
X2500000Y-6000000D02*
X2500000Y-5000000D01*
X7900000Y-6000000D02*
X2500000Y-6000000D01*
X7900000Y-5000000D02*
X7900000Y-6000000D01*
X2500000Y-5000000D02*
X7900000Y-5000000D01*
D11*
X3392300Y-5737300D02*
X3417700Y-5762700D01*
X3417700Y-5737300D02*
X3392300Y-5762700D01*
X3437300Y-5217300D02*
X3462700Y-5242700D01*
X3462700Y-5217300D02*
X3437300Y-5242700D01*
X3472300Y-5362300D02*
X3497700Y-5387700D01*
X3497700Y-5362300D02*
X3472300Y-5387700D01*
X3657300Y-5849039D02*
X3682700Y-5874439D01*
X3682700Y-5849039D02*
X3657300Y-5874439D01*
X3662940Y-5595468D02*
X3688340Y-5620868D01*
X3688340Y-5595468D02*
X3662940Y-5620868D01*
X3712300Y-5702300D02*
X3737700Y-5727700D01*
X3737700Y-5702300D02*
X3712300Y-5727700D01*
X3897300Y-5137300D02*
X3922700Y-5162700D01*
X3922700Y-5137300D02*
X3897300Y-5162700D01*
X3897300Y-5357300D02*
X3922700Y-5382700D01*
X3922700Y-5357300D02*
X3897300Y-5382700D01*
X3967300Y-5467300D02*
X3992700Y-5492700D01*
X3992700Y-5467300D02*
X3967300Y-5492700D01*
X3967300Y-5557300D02*
X3992700Y-5582700D01*
X3992700Y-5557300D02*
X3967300Y-5582700D01*
X4060510Y-5186489D02*
X4085910Y-5211889D01*
X4085910Y-5186489D02*
X4060510Y-5211889D01*
X4077300Y-5842300D02*
X4102700Y-5867700D01*
X4102700Y-5842300D02*
X4077300Y-5867700D01*
X4212463Y-5235052D02*
X4237863Y-5260452D01*
X4237863Y-5235052D02*
X4212463Y-5260452D01*
X4278196Y-5533959D02*
X4303596Y-5559359D01*
X4303596Y-5533959D02*
X4278196Y-5559359D01*
X4467300Y-5462300D02*
X4492700Y-5487700D01*
X4492700Y-5462300D02*
X4467300Y-5487700D01*
X4767300Y-5482300D02*
X4792700Y-5507700D01*
X4792700Y-5482300D02*
X4767300Y-5507700D01*
X4852060Y-5531260D02*
X4877460Y-5556660D01*
X4877460Y-5531260D02*
X4852060Y-5556660D01*
X4942300Y-5517300D02*
X4967700Y-5542700D01*
X4967700Y-5517300D02*
X4942300Y-5542700D01*
X5147300Y-5842300D02*
X5172700Y-5867700D01*
X5172700Y-5842300D02*
X5147300Y-5867700D01*
X5537612Y-5406989D02*
X5563012Y-5432389D01*
X5563012Y-5406989D02*
X5537612Y-5432389D01*
X5603052Y-5774511D02*
X5628452Y-5799911D01*
X5628452Y-5774511D02*
X5603052Y-5799911D01*
X5622300Y-5272300D02*
X5647700Y-5297700D01*
X5647700Y-5272300D02*
X5622300Y-5297700D01*
X5622300Y-5422300D02*
X5647700Y-5447700D01*
X5647700Y-5422300D02*
X5622300Y-5447700D01*
X5637300Y-5172300D02*
X5662700Y-5197700D01*
X5662700Y-5172300D02*
X5637300Y-5197700D01*
X5912300Y-5112300D02*
X5937700Y-5137700D01*
X5937700Y-5112300D02*
X5912300Y-5137700D01*
X6497300Y-5172701D02*
X6522700Y-5198101D01*
X6522700Y-5172701D02*
X6497300Y-5198101D01*
X6583052Y-5574511D02*
X6608452Y-5599911D01*
X6608452Y-5574511D02*
X6583052Y-5599911D01*
X6583052Y-5824511D02*
X6608452Y-5849911D01*
X6608452Y-5824511D02*
X6583052Y-5849911D01*
X6662300Y-5132300D02*
X6687700Y-5157700D01*
X6687700Y-5132300D02*
X6662300Y-5157700D01*
X6862300Y-5327300D02*
X6887700Y-5352700D01*
X6887700Y-5327300D02*
X6862300Y-5352700D01*
X7247300Y-5287300D02*
X7272700Y-5312700D01*
X7272700Y-5287300D02*
X7247300Y-5312700D01*
X7397300Y-5712300D02*
X7422700Y-5737700D01*
X7422700Y-5712300D02*
X7397300Y-5737700D01*
X7457300Y-5327300D02*
X7482700Y-5352700D01*
X7482700Y-5327300D02*
X7457300Y-5352700D01*
X7497300Y-5162300D02*
X7522700Y-5187700D01*
X7522700Y-5162300D02*
X7497300Y-5187700D01*
X2831510Y-5590000D02*
G75*
G03X2831510Y-5590000I-16510J0D01*
G01*
X3366510Y-5550000D02*
G75*
G03X3366510Y-5550000I-16510J0D01*
G01*
X4620000Y-5185000D02*
X4620000Y-5235000D01*
X4595000Y-5210000D02*
X4645000Y-5210000D01*
X4620000Y-5375000D02*
X4620000Y-5425000D01*
X4595000Y-5400000D02*
X4645000Y-5400000D01*
X6822749Y-5824749D02*
X6822749Y-5775251D01*
X6773251Y-5775251D01*
X6773251Y-5824749D01*
X6822749Y-5824749D01*
X6949749Y-5824749D02*
X6949749Y-5775251D01*
X6900251Y-5775251D01*
X6900251Y-5824749D01*
X6949749Y-5824749D01*
X2984749Y-5854749D02*
X2984749Y-5805251D01*
X2935251Y-5805251D01*
X2935251Y-5854749D01*
X2984749Y-5854749D01*
X3111749Y-5854749D02*
X3111749Y-5805251D01*
X3062251Y-5805251D01*
X3062251Y-5854749D01*
X3111749Y-5854749D01*
X3238749Y-5854749D02*
X3238749Y-5805251D01*
X3189251Y-5805251D01*
X3189251Y-5854749D01*
X3238749Y-5854749D01*
X4817749Y-5724749D02*
X4817749Y-5675251D01*
X4768251Y-5675251D01*
X4768251Y-5724749D01*
X4817749Y-5724749D01*
X4817749Y-5851749D02*
X4817749Y-5802251D01*
X4768251Y-5802251D01*
X4768251Y-5851749D01*
X4817749Y-5851749D01*
X4944749Y-5724749D02*
X4944749Y-5675251D01*
X4895251Y-5675251D01*
X4895251Y-5724749D01*
X4944749Y-5724749D01*
X4944749Y-5851749D02*
X4944749Y-5802251D01*
X4895251Y-5802251D01*
X4895251Y-5851749D01*
X4944749Y-5851749D01*
X2924749Y-5214749D02*
X2924749Y-5165251D01*
X2875251Y-5165251D01*
X2875251Y-5214749D01*
X2924749Y-5214749D01*
X3051749Y-5214749D02*
X3051749Y-5165251D01*
X3002251Y-5165251D01*
X3002251Y-5214749D01*
X3051749Y-5214749D01*
X4460000Y-5850000D02*
X4510000Y-5800000D01*
X4460000Y-5750000D01*
X4410000Y-5800000D01*
X4460000Y-5850000D01*
D12*
X2778808Y-6473334D02*
X2778808Y-6173334D01*
X2850237Y-6173334D01*
X2893094Y-6187620D01*
X2921666Y-6216191D01*
X2935951Y-6244763D01*
X2950237Y-6301906D01*
X2950237Y-6344763D01*
X2935951Y-6401906D01*
X2921666Y-6430477D01*
X2893094Y-6459049D01*
X2850237Y-6473334D01*
X2778808Y-6473334D01*
X3078808Y-6473334D02*
X3078808Y-6273334D01*
X3078808Y-6330477D02*
X3093094Y-6301906D01*
X3107380Y-6287620D01*
X3135951Y-6273334D01*
X3164523Y-6273334D01*
X3264523Y-6473334D02*
X3264523Y-6273334D01*
X3264523Y-6173334D02*
X3250237Y-6187620D01*
X3264523Y-6201906D01*
X3278808Y-6187620D01*
X3264523Y-6173334D01*
X3264523Y-6201906D01*
X3450237Y-6473334D02*
X3421666Y-6459049D01*
X3407380Y-6430477D01*
X3407380Y-6173334D01*
X3607380Y-6473334D02*
X3578808Y-6459049D01*
X3564523Y-6430477D01*
X3564523Y-6173334D01*
X3950237Y-6473334D02*
X3950237Y-6173334D01*
X4050237Y-6387620D01*
X4150237Y-6173334D01*
X4150237Y-6473334D01*
X4421666Y-6473334D02*
X4421666Y-6316191D01*
X4407380Y-6287620D01*
X4378808Y-6273334D01*
X4321666Y-6273334D01*
X4293094Y-6287620D01*
X4421666Y-6459049D02*
X4393094Y-6473334D01*
X4321666Y-6473334D01*
X4293094Y-6459049D01*
X4278808Y-6430477D01*
X4278808Y-6401906D01*
X4293094Y-6373334D01*
X4321666Y-6359049D01*
X4393094Y-6359049D01*
X4421666Y-6344763D01*
X4564523Y-6273334D02*
X4564523Y-6573334D01*
X4564523Y-6287620D02*
X4593094Y-6273334D01*
X4650237Y-6273334D01*
X4678808Y-6287620D01*
X4693094Y-6301906D01*
X4707380Y-6330477D01*
X4707380Y-6416191D01*
X4693094Y-6444763D01*
X4678808Y-6459049D01*
X4650237Y-6473334D01*
X4593094Y-6473334D01*
X4564523Y-6459049D01*
X4835951Y-6444763D02*
X4850237Y-6459049D01*
X4835951Y-6473334D01*
X4821666Y-6459049D01*
X4835951Y-6444763D01*
X4835951Y-6473334D01*
X4835951Y-6287620D02*
X4850237Y-6301906D01*
X4835951Y-6316191D01*
X4821666Y-6301906D01*
X4835951Y-6287620D01*
X4835951Y-6316191D01*
X2466980Y-6954920D02*
X2492380Y-6980320D01*
X2492380Y-6954920D02*
X2466980Y-6980320D01*
X2835951Y-6803334D02*
X2864523Y-6803334D01*
X2893094Y-6817620D01*
X2907380Y-6831906D01*
X2921666Y-6860477D01*
X2935951Y-6917620D01*
X2935951Y-6989049D01*
X2921666Y-7046191D01*
X2907380Y-7074763D01*
X2893094Y-7089049D01*
X2864523Y-7103334D01*
X2835951Y-7103334D01*
X2807380Y-7089049D01*
X2793094Y-7074763D01*
X2778808Y-7046191D01*
X2764523Y-6989049D01*
X2764523Y-6917620D01*
X2778808Y-6860477D01*
X2793094Y-6831906D01*
X2807380Y-6817620D01*
X2835951Y-6803334D01*
X3064523Y-7074763D02*
X3078808Y-7089049D01*
X3064523Y-7103334D01*
X3050237Y-7089049D01*
X3064523Y-7074763D01*
X3064523Y-7103334D01*
X3193094Y-6831906D02*
X3207380Y-6817620D01*
X3235951Y-6803334D01*
X3307380Y-6803334D01*
X3335951Y-6817620D01*
X3350237Y-6831906D01*
X3364523Y-6860477D01*
X3364523Y-6889049D01*
X3350237Y-6931906D01*
X3178808Y-7103334D01*
X3364523Y-7103334D01*
X3635951Y-6803334D02*
X3493094Y-6803334D01*
X3478808Y-6946191D01*
X3493094Y-6931906D01*
X3521666Y-6917620D01*
X3593094Y-6917620D01*
X3621666Y-6931906D01*
X3635951Y-6946191D01*
X3650237Y-6974763D01*
X3650237Y-7046191D01*
X3635951Y-7074763D01*
X3621666Y-7089049D01*
X3593094Y-7103334D01*
X3521666Y-7103334D01*
X3493094Y-7089049D01*
X3478808Y-7074763D01*
X3778808Y-7103334D02*
X3778808Y-6903334D01*
X3778808Y-6931906D02*
X3793094Y-6917620D01*
X3821666Y-6903334D01*
X3864523Y-6903334D01*
X3893094Y-6917620D01*
X3907380Y-6946191D01*
X3907380Y-7103334D01*
X3907380Y-6946191D02*
X3921666Y-6917620D01*
X3950237Y-6903334D01*
X3993094Y-6903334D01*
X4021666Y-6917620D01*
X4035951Y-6946191D01*
X4035951Y-7103334D01*
X4178808Y-7103334D02*
X4178808Y-6903334D01*
X4178808Y-6931906D02*
X4193094Y-6917620D01*
X4221666Y-6903334D01*
X4264523Y-6903334D01*
X4293094Y-6917620D01*
X4307380Y-6946191D01*
X4307380Y-7103334D01*
X4307380Y-6946191D02*
X4321666Y-6917620D01*
X4350237Y-6903334D01*
X4393094Y-6903334D01*
X4421666Y-6917620D01*
X4435951Y-6946191D01*
X4435951Y-7103334D01*
X5021666Y-6789049D02*
X4764523Y-7174763D01*
X5407380Y-6803334D02*
X5435951Y-6803334D01*
X5464523Y-6817620D01*
X5478808Y-6831906D01*
X5493094Y-6860477D01*
X5507380Y-6917620D01*
X5507380Y-6989049D01*
X5493094Y-7046191D01*
X5478808Y-7074763D01*
X5464523Y-7089049D01*
X5435951Y-7103334D01*
X5407380Y-7103334D01*
X5378808Y-7089049D01*
X5364523Y-7074763D01*
X5350237Y-7046191D01*
X5335951Y-6989049D01*
X5335951Y-6917620D01*
X5350237Y-6860477D01*
X5364523Y-6831906D01*
X5378808Y-6817620D01*
X5407380Y-6803334D01*
X5635951Y-7074763D02*
X5650237Y-7089049D01*
X5635951Y-7103334D01*
X5621666Y-7089049D01*
X5635951Y-7074763D01*
X5635951Y-7103334D01*
X5835951Y-6803334D02*
X5864523Y-6803334D01*
X5893094Y-6817620D01*
X5907380Y-6831906D01*
X5921666Y-6860477D01*
X5935951Y-6917620D01*
X5935951Y-6989049D01*
X5921666Y-7046191D01*
X5907380Y-7074763D01*
X5893094Y-7089049D01*
X5864523Y-7103334D01*
X5835951Y-7103334D01*
X5807380Y-7089049D01*
X5793094Y-7074763D01*
X5778808Y-7046191D01*
X5764523Y-6989049D01*
X5764523Y-6917620D01*
X5778808Y-6860477D01*
X5793094Y-6831906D01*
X5807380Y-6817620D01*
X5835951Y-6803334D01*
X6221666Y-7103334D02*
X6050237Y-7103334D01*
X6135951Y-7103334D02*
X6135951Y-6803334D01*
X6107380Y-6846191D01*
X6078808Y-6874763D01*
X6050237Y-6889049D01*
X6407380Y-6803334D02*
X6435951Y-6803334D01*
X6464523Y-6817620D01*
X6478808Y-6831906D01*
X6493094Y-6860477D01*
X6507380Y-6917620D01*
X6507380Y-6989049D01*
X6493094Y-7046191D01*
X6478808Y-7074763D01*
X6464523Y-7089049D01*
X6435951Y-7103334D01*
X6407380Y-7103334D01*
X6378808Y-7089049D01*
X6364523Y-7074763D01*
X6350237Y-7046191D01*
X6335951Y-6989049D01*
X6335951Y-6917620D01*
X6350237Y-6860477D01*
X6364523Y-6831906D01*
X6378808Y-6817620D01*
X6407380Y-6803334D01*
X6621666Y-6803334D02*
X6621666Y-6860477D01*
X6735951Y-6803334D02*
X6735951Y-6860477D01*
X7178808Y-7217620D02*
X7164523Y-7203334D01*
X7135951Y-7160477D01*
X7121666Y-7131906D01*
X7107380Y-7089049D01*
X7093094Y-7017620D01*
X7093094Y-6960477D01*
X7107380Y-6889049D01*
X7121666Y-6846191D01*
X7135951Y-6817620D01*
X7164523Y-6774763D01*
X7178808Y-6760477D01*
X7264523Y-6803334D02*
X7450237Y-6803334D01*
X7350237Y-6917620D01*
X7393094Y-6917620D01*
X7421666Y-6931906D01*
X7435951Y-6946191D01*
X7450237Y-6974763D01*
X7450237Y-7046191D01*
X7435951Y-7074763D01*
X7421666Y-7089049D01*
X7393094Y-7103334D01*
X7307380Y-7103334D01*
X7278808Y-7089049D01*
X7264523Y-7074763D01*
X7707380Y-6903334D02*
X7707380Y-7103334D01*
X7635951Y-6789049D02*
X7564523Y-7003334D01*
X7750237Y-7003334D01*
X8093094Y-7103334D02*
X8093094Y-6803334D01*
X8221666Y-7103334D02*
X8221666Y-6946191D01*
X8207380Y-6917620D01*
X8178808Y-6903334D01*
X8135951Y-6903334D01*
X8107380Y-6917620D01*
X8093094Y-6931906D01*
X8407380Y-7103334D02*
X8378808Y-7089049D01*
X8364523Y-7074763D01*
X8350237Y-7046191D01*
X8350237Y-6960477D01*
X8364523Y-6931906D01*
X8378808Y-6917620D01*
X8407380Y-6903334D01*
X8450237Y-6903334D01*
X8478808Y-6917620D01*
X8493094Y-6931906D01*
X8507380Y-6960477D01*
X8507380Y-7046191D01*
X8493094Y-7074763D01*
X8478808Y-7089049D01*
X8450237Y-7103334D01*
X8407380Y-7103334D01*
X8678808Y-7103334D02*
X8650237Y-7089049D01*
X8635951Y-7060477D01*
X8635951Y-6803334D01*
X8907380Y-7089049D02*
X8878808Y-7103334D01*
X8821666Y-7103334D01*
X8793094Y-7089049D01*
X8778808Y-7060477D01*
X8778808Y-6946191D01*
X8793094Y-6917620D01*
X8821666Y-6903334D01*
X8878808Y-6903334D01*
X8907380Y-6917620D01*
X8921666Y-6946191D01*
X8921666Y-6974763D01*
X8778808Y-7003334D01*
X9035951Y-7089049D02*
X9064523Y-7103334D01*
X9121666Y-7103334D01*
X9150237Y-7089049D01*
X9164523Y-7060477D01*
X9164523Y-7046191D01*
X9150237Y-7017620D01*
X9121666Y-7003334D01*
X9078808Y-7003334D01*
X9050237Y-6989049D01*
X9035951Y-6960477D01*
X9035951Y-6946191D01*
X9050237Y-6917620D01*
X9078808Y-6903334D01*
X9121666Y-6903334D01*
X9150237Y-6917620D01*
X9264523Y-7217620D02*
X9278808Y-7203334D01*
X9307380Y-7160477D01*
X9321666Y-7131906D01*
X9335951Y-7089049D01*
X9350237Y-7017620D01*
X9350237Y-6960477D01*
X9335951Y-6889049D01*
X9321666Y-6846191D01*
X9307380Y-6817620D01*
X9278808Y-6774763D01*
X9264523Y-6760477D01*
X2492380Y-7363620D02*
G75*
G03X2492380Y-7363620I-16510J0D01*
G01*
X2835951Y-7199334D02*
X2864523Y-7199334D01*
X2893094Y-7213620D01*
X2907380Y-7227906D01*
X2921666Y-7256477D01*
X2935951Y-7313620D01*
X2935951Y-7385049D01*
X2921666Y-7442191D01*
X2907380Y-7470763D01*
X2893094Y-7485049D01*
X2864523Y-7499334D01*
X2835951Y-7499334D01*
X2807380Y-7485049D01*
X2793094Y-7470763D01*
X2778808Y-7442191D01*
X2764523Y-7385049D01*
X2764523Y-7313620D01*
X2778808Y-7256477D01*
X2793094Y-7227906D01*
X2807380Y-7213620D01*
X2835951Y-7199334D01*
X3064523Y-7470763D02*
X3078808Y-7485049D01*
X3064523Y-7499334D01*
X3050237Y-7485049D01*
X3064523Y-7470763D01*
X3064523Y-7499334D01*
X3178808Y-7199334D02*
X3364523Y-7199334D01*
X3264523Y-7313620D01*
X3307380Y-7313620D01*
X3335951Y-7327906D01*
X3350237Y-7342191D01*
X3364523Y-7370763D01*
X3364523Y-7442191D01*
X3350237Y-7470763D01*
X3335951Y-7485049D01*
X3307380Y-7499334D01*
X3221666Y-7499334D01*
X3193094Y-7485049D01*
X3178808Y-7470763D01*
X3464523Y-7199334D02*
X3650237Y-7199334D01*
X3550237Y-7313620D01*
X3593094Y-7313620D01*
X3621666Y-7327906D01*
X3635951Y-7342191D01*
X3650237Y-7370763D01*
X3650237Y-7442191D01*
X3635951Y-7470763D01*
X3621666Y-7485049D01*
X3593094Y-7499334D01*
X3507380Y-7499334D01*
X3478808Y-7485049D01*
X3464523Y-7470763D01*
X3778808Y-7499334D02*
X3778808Y-7299334D01*
X3778808Y-7327906D02*
X3793094Y-7313620D01*
X3821666Y-7299334D01*
X3864523Y-7299334D01*
X3893094Y-7313620D01*
X3907380Y-7342191D01*
X3907380Y-7499334D01*
X3907380Y-7342191D02*
X3921666Y-7313620D01*
X3950237Y-7299334D01*
X3993094Y-7299334D01*
X4021666Y-7313620D01*
X4035951Y-7342191D01*
X4035951Y-7499334D01*
X4178808Y-7499334D02*
X4178808Y-7299334D01*
X4178808Y-7327906D02*
X4193094Y-7313620D01*
X4221666Y-7299334D01*
X4264523Y-7299334D01*
X4293094Y-7313620D01*
X4307380Y-7342191D01*
X4307380Y-7499334D01*
X4307380Y-7342191D02*
X4321666Y-7313620D01*
X4350237Y-7299334D01*
X4393094Y-7299334D01*
X4421666Y-7313620D01*
X4435951Y-7342191D01*
X4435951Y-7499334D01*
X5021666Y-7185049D02*
X4764523Y-7570763D01*
X5407380Y-7199334D02*
X5435951Y-7199334D01*
X5464523Y-7213620D01*
X5478808Y-7227906D01*
X5493094Y-7256477D01*
X5507380Y-7313620D01*
X5507380Y-7385049D01*
X5493094Y-7442191D01*
X5478808Y-7470763D01*
X5464523Y-7485049D01*
X5435951Y-7499334D01*
X5407380Y-7499334D01*
X5378808Y-7485049D01*
X5364523Y-7470763D01*
X5350237Y-7442191D01*
X5335951Y-7385049D01*
X5335951Y-7313620D01*
X5350237Y-7256477D01*
X5364523Y-7227906D01*
X5378808Y-7213620D01*
X5407380Y-7199334D01*
X5635951Y-7470763D02*
X5650237Y-7485049D01*
X5635951Y-7499334D01*
X5621666Y-7485049D01*
X5635951Y-7470763D01*
X5635951Y-7499334D01*
X5835951Y-7199334D02*
X5864523Y-7199334D01*
X5893094Y-7213620D01*
X5907380Y-7227906D01*
X5921666Y-7256477D01*
X5935951Y-7313620D01*
X5935951Y-7385049D01*
X5921666Y-7442191D01*
X5907380Y-7470763D01*
X5893094Y-7485049D01*
X5864523Y-7499334D01*
X5835951Y-7499334D01*
X5807380Y-7485049D01*
X5793094Y-7470763D01*
X5778808Y-7442191D01*
X5764523Y-7385049D01*
X5764523Y-7313620D01*
X5778808Y-7256477D01*
X5793094Y-7227906D01*
X5807380Y-7213620D01*
X5835951Y-7199334D01*
X6221666Y-7499334D02*
X6050237Y-7499334D01*
X6135951Y-7499334D02*
X6135951Y-7199334D01*
X6107380Y-7242191D01*
X6078808Y-7270763D01*
X6050237Y-7285049D01*
X6321666Y-7199334D02*
X6507380Y-7199334D01*
X6407380Y-7313620D01*
X6450237Y-7313620D01*
X6478808Y-7327906D01*
X6493094Y-7342191D01*
X6507380Y-7370763D01*
X6507380Y-7442191D01*
X6493094Y-7470763D01*
X6478808Y-7485049D01*
X6450237Y-7499334D01*
X6364523Y-7499334D01*
X6335951Y-7485049D01*
X6321666Y-7470763D01*
X6621666Y-7199334D02*
X6621666Y-7256477D01*
X6735951Y-7199334D02*
X6735951Y-7256477D01*
X7178808Y-7613620D02*
X7164523Y-7599334D01*
X7135951Y-7556477D01*
X7121666Y-7527906D01*
X7107380Y-7485049D01*
X7093094Y-7413620D01*
X7093094Y-7356477D01*
X7107380Y-7285049D01*
X7121666Y-7242191D01*
X7135951Y-7213620D01*
X7164523Y-7170763D01*
X7178808Y-7156477D01*
X7278808Y-7227906D02*
X7293094Y-7213620D01*
X7321666Y-7199334D01*
X7393094Y-7199334D01*
X7421666Y-7213620D01*
X7435951Y-7227906D01*
X7450237Y-7256477D01*
X7450237Y-7285049D01*
X7435951Y-7327906D01*
X7264523Y-7499334D01*
X7450237Y-7499334D01*
X7807380Y-7499334D02*
X7807380Y-7199334D01*
X7935951Y-7499334D02*
X7935951Y-7342191D01*
X7921666Y-7313620D01*
X7893094Y-7299334D01*
X7850237Y-7299334D01*
X7821666Y-7313620D01*
X7807380Y-7327906D01*
X8121666Y-7499334D02*
X8093094Y-7485049D01*
X8078808Y-7470763D01*
X8064523Y-7442191D01*
X8064523Y-7356477D01*
X8078808Y-7327906D01*
X8093094Y-7313620D01*
X8121666Y-7299334D01*
X8164523Y-7299334D01*
X8193094Y-7313620D01*
X8207380Y-7327906D01*
X8221666Y-7356477D01*
X8221666Y-7442191D01*
X8207380Y-7470763D01*
X8193094Y-7485049D01*
X8164523Y-7499334D01*
X8121666Y-7499334D01*
X8393094Y-7499334D02*
X8364523Y-7485049D01*
X8350237Y-7456477D01*
X8350237Y-7199334D01*
X8621666Y-7485049D02*
X8593094Y-7499334D01*
X8535951Y-7499334D01*
X8507380Y-7485049D01*
X8493094Y-7456477D01*
X8493094Y-7342191D01*
X8507380Y-7313620D01*
X8535951Y-7299334D01*
X8593094Y-7299334D01*
X8621666Y-7313620D01*
X8635951Y-7342191D01*
X8635951Y-7370763D01*
X8493094Y-7399334D01*
X8750237Y-7485049D02*
X8778808Y-7499334D01*
X8835951Y-7499334D01*
X8864523Y-7485049D01*
X8878808Y-7456477D01*
X8878808Y-7442191D01*
X8864523Y-7413620D01*
X8835951Y-7399334D01*
X8793094Y-7399334D01*
X8764523Y-7385049D01*
X8750237Y-7356477D01*
X8750237Y-7342191D01*
X8764523Y-7313620D01*
X8793094Y-7299334D01*
X8835951Y-7299334D01*
X8864523Y-7313620D01*
X8978808Y-7613620D02*
X8993094Y-7599334D01*
X9021666Y-7556477D01*
X9035951Y-7527906D01*
X9050237Y-7485049D01*
X9064523Y-7413620D01*
X9064523Y-7356477D01*
X9050237Y-7285049D01*
X9035951Y-7242191D01*
X9021666Y-7213620D01*
X8993094Y-7170763D01*
X8978808Y-7156477D01*
X2467380Y-7734620D02*
X2467380Y-7784620D01*
X2442380Y-7759620D02*
X2492380Y-7759620D01*
X2835951Y-7595334D02*
X2864523Y-7595334D01*
X2893094Y-7609620D01*
X2907380Y-7623906D01*
X2921666Y-7652477D01*
X2935951Y-7709620D01*
X2935951Y-7781049D01*
X2921666Y-7838191D01*
X2907380Y-7866763D01*
X2893094Y-7881049D01*
X2864523Y-7895334D01*
X2835951Y-7895334D01*
X2807380Y-7881049D01*
X2793094Y-7866763D01*
X2778808Y-7838191D01*
X2764523Y-7781049D01*
X2764523Y-7709620D01*
X2778808Y-7652477D01*
X2793094Y-7623906D01*
X2807380Y-7609620D01*
X2835951Y-7595334D01*
X3064523Y-7866763D02*
X3078808Y-7881049D01*
X3064523Y-7895334D01*
X3050237Y-7881049D01*
X3064523Y-7866763D01*
X3064523Y-7895334D01*
X3350237Y-7595334D02*
X3207380Y-7595334D01*
X3193094Y-7738191D01*
X3207380Y-7723906D01*
X3235951Y-7709620D01*
X3307380Y-7709620D01*
X3335951Y-7723906D01*
X3350237Y-7738191D01*
X3364523Y-7766763D01*
X3364523Y-7838191D01*
X3350237Y-7866763D01*
X3335951Y-7881049D01*
X3307380Y-7895334D01*
X3235951Y-7895334D01*
X3207380Y-7881049D01*
X3193094Y-7866763D01*
X3550237Y-7595334D02*
X3578808Y-7595334D01*
X3607380Y-7609620D01*
X3621666Y-7623906D01*
X3635951Y-7652477D01*
X3650237Y-7709620D01*
X3650237Y-7781049D01*
X3635951Y-7838191D01*
X3621666Y-7866763D01*
X3607380Y-7881049D01*
X3578808Y-7895334D01*
X3550237Y-7895334D01*
X3521666Y-7881049D01*
X3507380Y-7866763D01*
X3493094Y-7838191D01*
X3478808Y-7781049D01*
X3478808Y-7709620D01*
X3493094Y-7652477D01*
X3507380Y-7623906D01*
X3521666Y-7609620D01*
X3550237Y-7595334D01*
X3778808Y-7895334D02*
X3778808Y-7695334D01*
X3778808Y-7723906D02*
X3793094Y-7709620D01*
X3821666Y-7695334D01*
X3864523Y-7695334D01*
X3893094Y-7709620D01*
X3907380Y-7738191D01*
X3907380Y-7895334D01*
X3907380Y-7738191D02*
X3921666Y-7709620D01*
X3950237Y-7695334D01*
X3993094Y-7695334D01*
X4021666Y-7709620D01*
X4035951Y-7738191D01*
X4035951Y-7895334D01*
X4178808Y-7895334D02*
X4178808Y-7695334D01*
X4178808Y-7723906D02*
X4193094Y-7709620D01*
X4221666Y-7695334D01*
X4264523Y-7695334D01*
X4293094Y-7709620D01*
X4307380Y-7738191D01*
X4307380Y-7895334D01*
X4307380Y-7738191D02*
X4321666Y-7709620D01*
X4350237Y-7695334D01*
X4393094Y-7695334D01*
X4421666Y-7709620D01*
X4435951Y-7738191D01*
X4435951Y-7895334D01*
X5021666Y-7581049D02*
X4764523Y-7966763D01*
X5407380Y-7595334D02*
X5435951Y-7595334D01*
X5464523Y-7609620D01*
X5478808Y-7623906D01*
X5493094Y-7652477D01*
X5507380Y-7709620D01*
X5507380Y-7781049D01*
X5493094Y-7838191D01*
X5478808Y-7866763D01*
X5464523Y-7881049D01*
X5435951Y-7895334D01*
X5407380Y-7895334D01*
X5378808Y-7881049D01*
X5364523Y-7866763D01*
X5350237Y-7838191D01*
X5335951Y-7781049D01*
X5335951Y-7709620D01*
X5350237Y-7652477D01*
X5364523Y-7623906D01*
X5378808Y-7609620D01*
X5407380Y-7595334D01*
X5635951Y-7866763D02*
X5650237Y-7881049D01*
X5635951Y-7895334D01*
X5621666Y-7881049D01*
X5635951Y-7866763D01*
X5635951Y-7895334D01*
X5835951Y-7595334D02*
X5864523Y-7595334D01*
X5893094Y-7609620D01*
X5907380Y-7623906D01*
X5921666Y-7652477D01*
X5935951Y-7709620D01*
X5935951Y-7781049D01*
X5921666Y-7838191D01*
X5907380Y-7866763D01*
X5893094Y-7881049D01*
X5864523Y-7895334D01*
X5835951Y-7895334D01*
X5807380Y-7881049D01*
X5793094Y-7866763D01*
X5778808Y-7838191D01*
X5764523Y-7781049D01*
X5764523Y-7709620D01*
X5778808Y-7652477D01*
X5793094Y-7623906D01*
X5807380Y-7609620D01*
X5835951Y-7595334D01*
X6050237Y-7623906D02*
X6064523Y-7609620D01*
X6093094Y-7595334D01*
X6164523Y-7595334D01*
X6193094Y-7609620D01*
X6207380Y-7623906D01*
X6221666Y-7652477D01*
X6221666Y-7681049D01*
X6207380Y-7723906D01*
X6035951Y-7895334D01*
X6221666Y-7895334D01*
X6407380Y-7595334D02*
X6435951Y-7595334D01*
X6464523Y-7609620D01*
X6478808Y-7623906D01*
X6493094Y-7652477D01*
X6507380Y-7709620D01*
X6507380Y-7781049D01*
X6493094Y-7838191D01*
X6478808Y-7866763D01*
X6464523Y-7881049D01*
X6435951Y-7895334D01*
X6407380Y-7895334D01*
X6378808Y-7881049D01*
X6364523Y-7866763D01*
X6350237Y-7838191D01*
X6335951Y-7781049D01*
X6335951Y-7709620D01*
X6350237Y-7652477D01*
X6364523Y-7623906D01*
X6378808Y-7609620D01*
X6407380Y-7595334D01*
X6621666Y-7595334D02*
X6621666Y-7652477D01*
X6735951Y-7595334D02*
X6735951Y-7652477D01*
X7178808Y-8009620D02*
X7164523Y-7995334D01*
X7135951Y-7952477D01*
X7121666Y-7923906D01*
X7107380Y-7881049D01*
X7093094Y-7809620D01*
X7093094Y-7752477D01*
X7107380Y-7681049D01*
X7121666Y-7638191D01*
X7135951Y-7609620D01*
X7164523Y-7566763D01*
X7178808Y-7552477D01*
X7278808Y-7623906D02*
X7293094Y-7609620D01*
X7321666Y-7595334D01*
X7393094Y-7595334D01*
X7421666Y-7609620D01*
X7435951Y-7623906D01*
X7450237Y-7652477D01*
X7450237Y-7681049D01*
X7435951Y-7723906D01*
X7264523Y-7895334D01*
X7450237Y-7895334D01*
X7807380Y-7895334D02*
X7807380Y-7595334D01*
X7935951Y-7895334D02*
X7935951Y-7738191D01*
X7921666Y-7709620D01*
X7893094Y-7695334D01*
X7850237Y-7695334D01*
X7821666Y-7709620D01*
X7807380Y-7723906D01*
X8121666Y-7895334D02*
X8093094Y-7881049D01*
X8078808Y-7866763D01*
X8064523Y-7838191D01*
X8064523Y-7752477D01*
X8078808Y-7723906D01*
X8093094Y-7709620D01*
X8121666Y-7695334D01*
X8164523Y-7695334D01*
X8193094Y-7709620D01*
X8207380Y-7723906D01*
X8221666Y-7752477D01*
X8221666Y-7838191D01*
X8207380Y-7866763D01*
X8193094Y-7881049D01*
X8164523Y-7895334D01*
X8121666Y-7895334D01*
X8393094Y-7895334D02*
X8364523Y-7881049D01*
X8350237Y-7852477D01*
X8350237Y-7595334D01*
X8621666Y-7881049D02*
X8593094Y-7895334D01*
X8535951Y-7895334D01*
X8507380Y-7881049D01*
X8493094Y-7852477D01*
X8493094Y-7738191D01*
X8507380Y-7709620D01*
X8535951Y-7695334D01*
X8593094Y-7695334D01*
X8621666Y-7709620D01*
X8635951Y-7738191D01*
X8635951Y-7766763D01*
X8493094Y-7795334D01*
X8750237Y-7881049D02*
X8778808Y-7895334D01*
X8835951Y-7895334D01*
X8864523Y-7881049D01*
X8878808Y-7852477D01*
X8878808Y-7838191D01*
X8864523Y-7809620D01*
X8835951Y-7795334D01*
X8793094Y-7795334D01*
X8764523Y-7781049D01*
X8750237Y-7752477D01*
X8750237Y-7738191D01*
X8764523Y-7709620D01*
X8793094Y-7695334D01*
X8835951Y-7695334D01*
X8864523Y-7709620D01*
X8978808Y-8009620D02*
X8993094Y-7995334D01*
X9021666Y-7952477D01*
X9035951Y-7923906D01*
X9050237Y-7881049D01*
X9064523Y-7809620D01*
X9064523Y-7752477D01*
X9050237Y-7681049D01*
X9035951Y-7638191D01*
X9021666Y-7609620D01*
X8993094Y-7566763D01*
X8978808Y-7552477D01*
X2482129Y-8180369D02*
X2482129Y-8130871D01*
X2432631Y-8130871D01*
X2432631Y-8180369D01*
X2482129Y-8180369D01*
X2835951Y-7991334D02*
X2864523Y-7991334D01*
X2893094Y-8005620D01*
X2907380Y-8019906D01*
X2921666Y-8048477D01*
X2935951Y-8105620D01*
X2935951Y-8177049D01*
X2921666Y-8234191D01*
X2907380Y-8262763D01*
X2893094Y-8277049D01*
X2864523Y-8291334D01*
X2835951Y-8291334D01*
X2807380Y-8277049D01*
X2793094Y-8262763D01*
X2778808Y-8234191D01*
X2764523Y-8177049D01*
X2764523Y-8105620D01*
X2778808Y-8048477D01*
X2793094Y-8019906D01*
X2807380Y-8005620D01*
X2835951Y-7991334D01*
X3064523Y-8262763D02*
X3078808Y-8277049D01*
X3064523Y-8291334D01*
X3050237Y-8277049D01*
X3064523Y-8262763D01*
X3064523Y-8291334D01*
X3178808Y-7991334D02*
X3378808Y-7991334D01*
X3250237Y-8291334D01*
X3550237Y-7991334D02*
X3578808Y-7991334D01*
X3607380Y-8005620D01*
X3621666Y-8019906D01*
X3635951Y-8048477D01*
X3650237Y-8105620D01*
X3650237Y-8177049D01*
X3635951Y-8234191D01*
X3621666Y-8262763D01*
X3607380Y-8277049D01*
X3578808Y-8291334D01*
X3550237Y-8291334D01*
X3521666Y-8277049D01*
X3507380Y-8262763D01*
X3493094Y-8234191D01*
X3478808Y-8177049D01*
X3478808Y-8105620D01*
X3493094Y-8048477D01*
X3507380Y-8019906D01*
X3521666Y-8005620D01*
X3550237Y-7991334D01*
X3778808Y-8291334D02*
X3778808Y-8091334D01*
X3778808Y-8119906D02*
X3793094Y-8105620D01*
X3821666Y-8091334D01*
X3864523Y-8091334D01*
X3893094Y-8105620D01*
X3907380Y-8134191D01*
X3907380Y-8291334D01*
X3907380Y-8134191D02*
X3921666Y-8105620D01*
X3950237Y-8091334D01*
X3993094Y-8091334D01*
X4021666Y-8105620D01*
X4035951Y-8134191D01*
X4035951Y-8291334D01*
X4178808Y-8291334D02*
X4178808Y-8091334D01*
X4178808Y-8119906D02*
X4193094Y-8105620D01*
X4221666Y-8091334D01*
X4264523Y-8091334D01*
X4293094Y-8105620D01*
X4307380Y-8134191D01*
X4307380Y-8291334D01*
X4307380Y-8134191D02*
X4321666Y-8105620D01*
X4350237Y-8091334D01*
X4393094Y-8091334D01*
X4421666Y-8105620D01*
X4435951Y-8134191D01*
X4435951Y-8291334D01*
X5021666Y-7977049D02*
X4764523Y-8362763D01*
X5407380Y-7991334D02*
X5435951Y-7991334D01*
X5464523Y-8005620D01*
X5478808Y-8019906D01*
X5493094Y-8048477D01*
X5507380Y-8105620D01*
X5507380Y-8177049D01*
X5493094Y-8234191D01*
X5478808Y-8262763D01*
X5464523Y-8277049D01*
X5435951Y-8291334D01*
X5407380Y-8291334D01*
X5378808Y-8277049D01*
X5364523Y-8262763D01*
X5350237Y-8234191D01*
X5335951Y-8177049D01*
X5335951Y-8105620D01*
X5350237Y-8048477D01*
X5364523Y-8019906D01*
X5378808Y-8005620D01*
X5407380Y-7991334D01*
X5635951Y-8262763D02*
X5650237Y-8277049D01*
X5635951Y-8291334D01*
X5621666Y-8277049D01*
X5635951Y-8262763D01*
X5635951Y-8291334D01*
X5835951Y-7991334D02*
X5864523Y-7991334D01*
X5893094Y-8005620D01*
X5907380Y-8019906D01*
X5921666Y-8048477D01*
X5935951Y-8105620D01*
X5935951Y-8177049D01*
X5921666Y-8234191D01*
X5907380Y-8262763D01*
X5893094Y-8277049D01*
X5864523Y-8291334D01*
X5835951Y-8291334D01*
X5807380Y-8277049D01*
X5793094Y-8262763D01*
X5778808Y-8234191D01*
X5764523Y-8177049D01*
X5764523Y-8105620D01*
X5778808Y-8048477D01*
X5793094Y-8019906D01*
X5807380Y-8005620D01*
X5835951Y-7991334D01*
X6050237Y-8019906D02*
X6064523Y-8005620D01*
X6093094Y-7991334D01*
X6164523Y-7991334D01*
X6193094Y-8005620D01*
X6207380Y-8019906D01*
X6221666Y-8048477D01*
X6221666Y-8077049D01*
X6207380Y-8119906D01*
X6035951Y-8291334D01*
X6221666Y-8291334D01*
X6393094Y-8119906D02*
X6364523Y-8105620D01*
X6350237Y-8091334D01*
X6335951Y-8062763D01*
X6335951Y-8048477D01*
X6350237Y-8019906D01*
X6364523Y-8005620D01*
X6393094Y-7991334D01*
X6450237Y-7991334D01*
X6478808Y-8005620D01*
X6493094Y-8019906D01*
X6507380Y-8048477D01*
X6507380Y-8062763D01*
X6493094Y-8091334D01*
X6478808Y-8105620D01*
X6450237Y-8119906D01*
X6393094Y-8119906D01*
X6364523Y-8134191D01*
X6350237Y-8148477D01*
X6335951Y-8177049D01*
X6335951Y-8234191D01*
X6350237Y-8262763D01*
X6364523Y-8277049D01*
X6393094Y-8291334D01*
X6450237Y-8291334D01*
X6478808Y-8277049D01*
X6493094Y-8262763D01*
X6507380Y-8234191D01*
X6507380Y-8177049D01*
X6493094Y-8148477D01*
X6478808Y-8134191D01*
X6450237Y-8119906D01*
X6621666Y-7991334D02*
X6621666Y-8048477D01*
X6735951Y-7991334D02*
X6735951Y-8048477D01*
X7178808Y-8405620D02*
X7164523Y-8391334D01*
X7135951Y-8348477D01*
X7121666Y-8319906D01*
X7107380Y-8277049D01*
X7093094Y-8205620D01*
X7093094Y-8148477D01*
X7107380Y-8077049D01*
X7121666Y-8034191D01*
X7135951Y-8005620D01*
X7164523Y-7962763D01*
X7178808Y-7948477D01*
X7450237Y-8291334D02*
X7278808Y-8291334D01*
X7364523Y-8291334D02*
X7364523Y-7991334D01*
X7335951Y-8034191D01*
X7307380Y-8062763D01*
X7278808Y-8077049D01*
X7735951Y-8291334D02*
X7564523Y-8291334D01*
X7650237Y-8291334D02*
X7650237Y-7991334D01*
X7621666Y-8034191D01*
X7593094Y-8062763D01*
X7564523Y-8077049D01*
X8093094Y-8291334D02*
X8093094Y-7991334D01*
X8221666Y-8291334D02*
X8221666Y-8134191D01*
X8207380Y-8105620D01*
X8178808Y-8091334D01*
X8135951Y-8091334D01*
X8107380Y-8105620D01*
X8093094Y-8119906D01*
X8407380Y-8291334D02*
X8378808Y-8277049D01*
X8364523Y-8262763D01*
X8350237Y-8234191D01*
X8350237Y-8148477D01*
X8364523Y-8119906D01*
X8378808Y-8105620D01*
X8407380Y-8091334D01*
X8450237Y-8091334D01*
X8478808Y-8105620D01*
X8493094Y-8119906D01*
X8507380Y-8148477D01*
X8507380Y-8234191D01*
X8493094Y-8262763D01*
X8478808Y-8277049D01*
X8450237Y-8291334D01*
X8407380Y-8291334D01*
X8678808Y-8291334D02*
X8650237Y-8277049D01*
X8635951Y-8248477D01*
X8635951Y-7991334D01*
X8907380Y-8277049D02*
X8878808Y-8291334D01*
X8821666Y-8291334D01*
X8793094Y-8277049D01*
X8778808Y-8248477D01*
X8778808Y-8134191D01*
X8793094Y-8105620D01*
X8821666Y-8091334D01*
X8878808Y-8091334D01*
X8907380Y-8105620D01*
X8921666Y-8134191D01*
X8921666Y-8162763D01*
X8778808Y-8191334D01*
X9035951Y-8277049D02*
X9064523Y-8291334D01*
X9121666Y-8291334D01*
X9150237Y-8277049D01*
X9164523Y-8248477D01*
X9164523Y-8234191D01*
X9150237Y-8205620D01*
X9121666Y-8191334D01*
X9078808Y-8191334D01*
X9050237Y-8177049D01*
X9035951Y-8148477D01*
X9035951Y-8134191D01*
X9050237Y-8105620D01*
X9078808Y-8091334D01*
X9121666Y-8091334D01*
X9150237Y-8105620D01*
X9264523Y-8405620D02*
X9278808Y-8391334D01*
X9307380Y-8348477D01*
X9321666Y-8319906D01*
X9335951Y-8277049D01*
X9350237Y-8205620D01*
X9350237Y-8148477D01*
X9335951Y-8077049D01*
X9321666Y-8034191D01*
X9307380Y-8005620D01*
X9278808Y-7962763D01*
X9264523Y-7948477D01*
X2442380Y-8601620D02*
X2492380Y-8551620D01*
X2442380Y-8501620D01*
X2392380Y-8551620D01*
X2442380Y-8601620D01*
X2935951Y-8687334D02*
X2764523Y-8687334D01*
X2850237Y-8687334D02*
X2850237Y-8387334D01*
X2821666Y-8430192D01*
X2793094Y-8458763D01*
X2764523Y-8473049D01*
X3064523Y-8658763D02*
X3078808Y-8673049D01*
X3064523Y-8687334D01*
X3050237Y-8673049D01*
X3064523Y-8658763D01*
X3064523Y-8687334D01*
X3264523Y-8387334D02*
X3293094Y-8387334D01*
X3321666Y-8401620D01*
X3335951Y-8415906D01*
X3350237Y-8444477D01*
X3364523Y-8501620D01*
X3364523Y-8573049D01*
X3350237Y-8630192D01*
X3335951Y-8658763D01*
X3321666Y-8673049D01*
X3293094Y-8687334D01*
X3264523Y-8687334D01*
X3235951Y-8673049D01*
X3221666Y-8658763D01*
X3207380Y-8630192D01*
X3193094Y-8573049D01*
X3193094Y-8501620D01*
X3207380Y-8444477D01*
X3221666Y-8415906D01*
X3235951Y-8401620D01*
X3264523Y-8387334D01*
X3550237Y-8387334D02*
X3578808Y-8387334D01*
X3607380Y-8401620D01*
X3621666Y-8415906D01*
X3635951Y-8444477D01*
X3650237Y-8501620D01*
X3650237Y-8573049D01*
X3635951Y-8630192D01*
X3621666Y-8658763D01*
X3607380Y-8673049D01*
X3578808Y-8687334D01*
X3550237Y-8687334D01*
X3521666Y-8673049D01*
X3507380Y-8658763D01*
X3493094Y-8630192D01*
X3478808Y-8573049D01*
X3478808Y-8501620D01*
X3493094Y-8444477D01*
X3507380Y-8415906D01*
X3521666Y-8401620D01*
X3550237Y-8387334D01*
X3778808Y-8687334D02*
X3778808Y-8487334D01*
X3778808Y-8515906D02*
X3793094Y-8501620D01*
X3821666Y-8487334D01*
X3864523Y-8487334D01*
X3893094Y-8501620D01*
X3907380Y-8530192D01*
X3907380Y-8687334D01*
X3907380Y-8530192D02*
X3921666Y-8501620D01*
X3950237Y-8487334D01*
X3993094Y-8487334D01*
X4021666Y-8501620D01*
X4035951Y-8530192D01*
X4035951Y-8687334D01*
X4178808Y-8687334D02*
X4178808Y-8487334D01*
X4178808Y-8515906D02*
X4193094Y-8501620D01*
X4221666Y-8487334D01*
X4264523Y-8487334D01*
X4293094Y-8501620D01*
X4307380Y-8530192D01*
X4307380Y-8687334D01*
X4307380Y-8530192D02*
X4321666Y-8501620D01*
X4350237Y-8487334D01*
X4393094Y-8487334D01*
X4421666Y-8501620D01*
X4435951Y-8530192D01*
X4435951Y-8687334D01*
X5021666Y-8373049D02*
X4764523Y-8758763D01*
X5407380Y-8387334D02*
X5435951Y-8387334D01*
X5464523Y-8401620D01*
X5478808Y-8415906D01*
X5493094Y-8444477D01*
X5507380Y-8501620D01*
X5507380Y-8573049D01*
X5493094Y-8630192D01*
X5478808Y-8658763D01*
X5464523Y-8673049D01*
X5435951Y-8687334D01*
X5407380Y-8687334D01*
X5378808Y-8673049D01*
X5364523Y-8658763D01*
X5350237Y-8630192D01*
X5335951Y-8573049D01*
X5335951Y-8501620D01*
X5350237Y-8444477D01*
X5364523Y-8415906D01*
X5378808Y-8401620D01*
X5407380Y-8387334D01*
X5635951Y-8658763D02*
X5650237Y-8673049D01*
X5635951Y-8687334D01*
X5621666Y-8673049D01*
X5635951Y-8658763D01*
X5635951Y-8687334D01*
X5835951Y-8387334D02*
X5864523Y-8387334D01*
X5893094Y-8401620D01*
X5907380Y-8415906D01*
X5921666Y-8444477D01*
X5935951Y-8501620D01*
X5935951Y-8573049D01*
X5921666Y-8630192D01*
X5907380Y-8658763D01*
X5893094Y-8673049D01*
X5864523Y-8687334D01*
X5835951Y-8687334D01*
X5807380Y-8673049D01*
X5793094Y-8658763D01*
X5778808Y-8630192D01*
X5764523Y-8573049D01*
X5764523Y-8501620D01*
X5778808Y-8444477D01*
X5793094Y-8415906D01*
X5807380Y-8401620D01*
X5835951Y-8387334D01*
X6035951Y-8387334D02*
X6221666Y-8387334D01*
X6121666Y-8501620D01*
X6164523Y-8501620D01*
X6193094Y-8515906D01*
X6207380Y-8530192D01*
X6221666Y-8558763D01*
X6221666Y-8630192D01*
X6207380Y-8658763D01*
X6193094Y-8673049D01*
X6164523Y-8687334D01*
X6078808Y-8687334D01*
X6050237Y-8673049D01*
X6035951Y-8658763D01*
X6364523Y-8687334D02*
X6421666Y-8687334D01*
X6450237Y-8673049D01*
X6464523Y-8658763D01*
X6493094Y-8615906D01*
X6507380Y-8558763D01*
X6507380Y-8444477D01*
X6493094Y-8415906D01*
X6478808Y-8401620D01*
X6450237Y-8387334D01*
X6393094Y-8387334D01*
X6364523Y-8401620D01*
X6350237Y-8415906D01*
X6335951Y-8444477D01*
X6335951Y-8515906D01*
X6350237Y-8544477D01*
X6364523Y-8558763D01*
X6393094Y-8573049D01*
X6450237Y-8573049D01*
X6478808Y-8558763D01*
X6493094Y-8544477D01*
X6507380Y-8515906D01*
X6621666Y-8387334D02*
X6621666Y-8444477D01*
X6735951Y-8387334D02*
X6735951Y-8444477D01*
X7178808Y-8801620D02*
X7164523Y-8787334D01*
X7135951Y-8744477D01*
X7121666Y-8715906D01*
X7107380Y-8673049D01*
X7093094Y-8601620D01*
X7093094Y-8544477D01*
X7107380Y-8473049D01*
X7121666Y-8430192D01*
X7135951Y-8401620D01*
X7164523Y-8358763D01*
X7178808Y-8344477D01*
X7450237Y-8687334D02*
X7278808Y-8687334D01*
X7364523Y-8687334D02*
X7364523Y-8387334D01*
X7335951Y-8430192D01*
X7307380Y-8458763D01*
X7278808Y-8473049D01*
X7807380Y-8687334D02*
X7807380Y-8387334D01*
X7935951Y-8687334D02*
X7935951Y-8530192D01*
X7921666Y-8501620D01*
X7893094Y-8487334D01*
X7850237Y-8487334D01*
X7821666Y-8501620D01*
X7807380Y-8515906D01*
X8121666Y-8687334D02*
X8093094Y-8673049D01*
X8078808Y-8658763D01*
X8064523Y-8630192D01*
X8064523Y-8544477D01*
X8078808Y-8515906D01*
X8093094Y-8501620D01*
X8121666Y-8487334D01*
X8164523Y-8487334D01*
X8193094Y-8501620D01*
X8207380Y-8515906D01*
X8221666Y-8544477D01*
X8221666Y-8630192D01*
X8207380Y-8658763D01*
X8193094Y-8673049D01*
X8164523Y-8687334D01*
X8121666Y-8687334D01*
X8393094Y-8687334D02*
X8364523Y-8673049D01*
X8350237Y-8644477D01*
X8350237Y-8387334D01*
X8621666Y-8673049D02*
X8593094Y-8687334D01*
X8535951Y-8687334D01*
X8507380Y-8673049D01*
X8493094Y-8644477D01*
X8493094Y-8530192D01*
X8507380Y-8501620D01*
X8535951Y-8487334D01*
X8593094Y-8487334D01*
X8621666Y-8501620D01*
X8635951Y-8530192D01*
X8635951Y-8558763D01*
X8493094Y-8587334D01*
X8735951Y-8801620D02*
X8750237Y-8787334D01*
X8778808Y-8744477D01*
X8793094Y-8715906D01*
X8807380Y-8673049D01*
X8821666Y-8601620D01*
X8821666Y-8544477D01*
X8807380Y-8473049D01*
X8793094Y-8430192D01*
X8778808Y-8401620D01*
X8750237Y-8358763D01*
X8735951Y-8344477D01*
M02*
