G04 #@! TF.GenerationSoftware,KiCad,Pcbnew,5.0.0*
G04 #@! TF.CreationDate,2018-09-03T16:08:59-04:00*
G04 #@! TF.ProjectId,controller,636F6E74726F6C6C65722E6B69636164,rev?*
G04 #@! TF.SameCoordinates,Original*
G04 #@! TF.FileFunction,Other,Fab,Top*
%FSLAX46Y46*%
G04 Gerber Fmt 4.6, Leading zero omitted, Abs format (unit mm)*
G04 Created by KiCad (PCBNEW 5.0.0) date Mon Sep  3 16:08:59 2018*
%MOMM*%
%LPD*%
G01*
G04 APERTURE LIST*
%ADD10C,0.100000*%
%ADD11C,0.150000*%
%ADD12C,0.105000*%
%ADD13C,0.075000*%
G04 APERTURE END LIST*
D10*
G04 #@! TO.C,C13*
X73050000Y-55900000D02*
X72050000Y-55900000D01*
X72050000Y-55900000D02*
X72050000Y-55400000D01*
X72050000Y-55400000D02*
X73050000Y-55400000D01*
X73050000Y-55400000D02*
X73050000Y-55900000D01*
G04 #@! TO.C,C12*
X75650000Y-55650000D02*
X75150000Y-55650000D01*
X75650000Y-54650000D02*
X75650000Y-55650000D01*
X75150000Y-54650000D02*
X75650000Y-54650000D01*
X75150000Y-55650000D02*
X75150000Y-54650000D01*
G04 #@! TO.C,C11*
X44550000Y-52700000D02*
X44550000Y-51700000D01*
X44550000Y-51700000D02*
X45050000Y-51700000D01*
X45050000Y-51700000D02*
X45050000Y-52700000D01*
X45050000Y-52700000D02*
X44550000Y-52700000D01*
G04 #@! TO.C,C10*
X44550000Y-53700000D02*
X45050000Y-53700000D01*
X44550000Y-54700000D02*
X44550000Y-53700000D01*
X45050000Y-54700000D02*
X44550000Y-54700000D01*
X45050000Y-53700000D02*
X45050000Y-54700000D01*
G04 #@! TO.C,C9*
X43550000Y-55300000D02*
X43550000Y-54300000D01*
X43550000Y-54300000D02*
X44050000Y-54300000D01*
X44050000Y-54300000D02*
X44050000Y-55300000D01*
X44050000Y-55300000D02*
X43550000Y-55300000D01*
G04 #@! TO.C,C1*
X65600000Y-58100000D02*
X65600000Y-56500000D01*
X65600000Y-56500000D02*
X66400000Y-56500000D01*
X66400000Y-56500000D02*
X66400000Y-58100000D01*
X66400000Y-58100000D02*
X65600000Y-58100000D01*
G04 #@! TO.C,C2*
X32600000Y-55500000D02*
X31800000Y-55500000D01*
X32600000Y-53900000D02*
X32600000Y-55500000D01*
X31800000Y-53900000D02*
X32600000Y-53900000D01*
X31800000Y-55500000D02*
X31800000Y-53900000D01*
G04 #@! TO.C,C17*
X50980000Y-56300000D02*
X52220000Y-56300000D01*
X50980000Y-58300000D02*
X50980000Y-56300000D01*
X52220000Y-58300000D02*
X50980000Y-58300000D01*
X52220000Y-56300000D02*
X52220000Y-58300000D01*
G04 #@! TO.C,Y1*
X47200000Y-52100000D02*
X46200000Y-52100000D01*
X48200000Y-52700000D02*
X47200000Y-52100000D01*
X47200000Y-54000000D02*
X46200000Y-54000000D01*
X48200000Y-53400000D02*
X47200000Y-54000000D01*
X48200000Y-52050000D02*
X48200000Y-54050000D01*
X54200000Y-52050000D02*
X48200000Y-52050000D01*
X54200000Y-54050000D02*
X54200000Y-52050000D01*
X48200000Y-54050000D02*
X54200000Y-54050000D01*
G04 #@! TO.C,R5*
X74400000Y-56900000D02*
X75400000Y-56900000D01*
X75400000Y-56900000D02*
X75400000Y-57400000D01*
X75400000Y-57400000D02*
X74400000Y-57400000D01*
X74400000Y-57400000D02*
X74400000Y-56900000D01*
G04 #@! TO.C,R10*
X35200000Y-56050000D02*
X35200000Y-55550000D01*
X36200000Y-56050000D02*
X35200000Y-56050000D01*
X36200000Y-55550000D02*
X36200000Y-56050000D01*
X35200000Y-55550000D02*
X36200000Y-55550000D01*
G04 #@! TO.C,R12*
X69350000Y-53400000D02*
X69350000Y-52400000D01*
X69350000Y-52400000D02*
X69850000Y-52400000D01*
X69850000Y-52400000D02*
X69850000Y-53400000D01*
X69850000Y-53400000D02*
X69350000Y-53400000D01*
G04 #@! TO.C,R4*
X61200000Y-54550000D02*
X61200000Y-55050000D01*
X60200000Y-54550000D02*
X61200000Y-54550000D01*
X60200000Y-55050000D02*
X60200000Y-54550000D01*
X61200000Y-55050000D02*
X60200000Y-55050000D01*
G04 #@! TO.C,R9*
X35200000Y-54950000D02*
X35200000Y-54450000D01*
X36200000Y-54950000D02*
X35200000Y-54950000D01*
X36200000Y-54450000D02*
X36200000Y-54950000D01*
X35200000Y-54450000D02*
X36200000Y-54450000D01*
G04 #@! TO.C,R1*
X66300000Y-54900000D02*
X64700000Y-54900000D01*
X64700000Y-54900000D02*
X64700000Y-54100000D01*
X64700000Y-54100000D02*
X66300000Y-54100000D01*
X66300000Y-54100000D02*
X66300000Y-54900000D01*
G04 #@! TO.C,R3*
X32600000Y-51900000D02*
X34200000Y-51900000D01*
X34200000Y-51900000D02*
X34200000Y-52700000D01*
X34200000Y-52700000D02*
X32600000Y-52700000D01*
X32600000Y-52700000D02*
X32600000Y-51900000D01*
G04 #@! TO.C,R8*
X61200000Y-51600000D02*
X61200000Y-52400000D01*
X59600000Y-51600000D02*
X61200000Y-51600000D01*
X59600000Y-52400000D02*
X59600000Y-51600000D01*
X61200000Y-52400000D02*
X59600000Y-52400000D01*
G04 #@! TO.C,R11*
X53100000Y-58000000D02*
X53100000Y-56400000D01*
X53100000Y-56400000D02*
X53900000Y-56400000D01*
X53900000Y-56400000D02*
X53900000Y-58000000D01*
X53900000Y-58000000D02*
X53100000Y-58000000D01*
G04 #@! TO.C,J1*
X45870000Y-56730000D02*
X43330000Y-56730000D01*
X45870000Y-59270000D02*
X45870000Y-56730000D01*
X43330000Y-59270000D02*
X45870000Y-59270000D01*
X43330000Y-56730000D02*
X43330000Y-59270000D01*
G04 #@! TO.C,J2*
X28365000Y-53170000D02*
X30905000Y-53170000D01*
X30905000Y-53170000D02*
X30905000Y-50630000D01*
X30905000Y-50630000D02*
X28365000Y-50630000D01*
X28365000Y-50630000D02*
X28365000Y-53170000D01*
G04 #@! TO.C,D1*
X69885000Y-59270000D02*
X69885000Y-56730000D01*
X67345000Y-59270000D02*
X69885000Y-59270000D01*
X67345000Y-56730000D02*
X67345000Y-59270000D01*
X69885000Y-56730000D02*
X67345000Y-56730000D01*
G04 #@! TO.C,J3*
X28965000Y-57030000D02*
X28965000Y-59570000D01*
X32775000Y-57030000D02*
X28965000Y-57030000D01*
X32775000Y-59570000D02*
X32775000Y-57030000D01*
X28965000Y-59570000D02*
X32775000Y-59570000D01*
G04 #@! TO.C,J4*
X50090000Y-56365000D02*
X47040000Y-56365000D01*
X50090000Y-58905000D02*
X50090000Y-56365000D01*
X47040000Y-58905000D02*
X50090000Y-58905000D01*
X47040000Y-56365000D02*
X47040000Y-58905000D01*
G04 #@! TO.C,Q3*
X61800000Y-58520000D02*
X63200000Y-58520000D01*
X63200000Y-55480000D02*
X63200000Y-58520000D01*
X61800000Y-56050000D02*
X62350000Y-55480000D01*
X62350000Y-55480000D02*
X63200000Y-55480000D01*
X61800000Y-56050000D02*
X61800000Y-58500000D01*
D11*
G04 #@! TO.C,U4*
X70900000Y-51750000D02*
X74000000Y-51750000D01*
X74000000Y-51750000D02*
X74000000Y-54350000D01*
X74000000Y-54350000D02*
X70900000Y-54350000D01*
X70900000Y-54350000D02*
X70900000Y-51750000D01*
X70900000Y-52125000D02*
X71375000Y-52125000D01*
X71375000Y-52125000D02*
X71375000Y-52475000D01*
X71375000Y-52475000D02*
X70900000Y-52475000D01*
X70900000Y-52625000D02*
X71375000Y-52625000D01*
X71375000Y-52625000D02*
X71375000Y-52975000D01*
X71375000Y-52975000D02*
X70900000Y-52975000D01*
X70900000Y-53125000D02*
X71375000Y-53125000D01*
X71375000Y-53125000D02*
X71375000Y-53475000D01*
X71375000Y-53475000D02*
X70900000Y-53475000D01*
X70900000Y-53625000D02*
X71375000Y-53625000D01*
X71375000Y-53625000D02*
X71375000Y-53975000D01*
X71375000Y-53975000D02*
X70900000Y-53975000D01*
X71775000Y-54350000D02*
X71775000Y-53875000D01*
X71775000Y-53875000D02*
X72125000Y-53875000D01*
X72125000Y-53875000D02*
X72125000Y-54350000D01*
X72275000Y-54350000D02*
X72275000Y-53875000D01*
X72275000Y-53875000D02*
X72625000Y-53875000D01*
X72625000Y-53875000D02*
X72625000Y-54350000D01*
X72775000Y-54350000D02*
X72775000Y-53875000D01*
X72775000Y-53875000D02*
X73125000Y-53875000D01*
X73125000Y-53875000D02*
X73125000Y-54350000D01*
X74000000Y-53975000D02*
X73525000Y-53975000D01*
X73525000Y-53975000D02*
X73525000Y-53625000D01*
X73525000Y-53625000D02*
X74000000Y-53625000D01*
X74000000Y-53475000D02*
X73525000Y-53475000D01*
X73525000Y-53475000D02*
X73525000Y-53125000D01*
X73525000Y-53125000D02*
X74000000Y-53125000D01*
X74000000Y-52975000D02*
X73525000Y-52975000D01*
X73525000Y-52975000D02*
X73525000Y-52625000D01*
X73525000Y-52625000D02*
X74000000Y-52625000D01*
X74000000Y-52475000D02*
X73525000Y-52475000D01*
X73525000Y-52475000D02*
X73525000Y-52125000D01*
X73525000Y-52125000D02*
X74000000Y-52125000D01*
X73125000Y-51750000D02*
X73125000Y-52225000D01*
X73125000Y-52225000D02*
X72775000Y-52225000D01*
X72775000Y-52225000D02*
X72775000Y-51750000D01*
X72625000Y-51750000D02*
X72625000Y-52225000D01*
X72625000Y-52225000D02*
X72275000Y-52225000D01*
X72275000Y-52225000D02*
X72275000Y-51750000D01*
X72125000Y-51750000D02*
X72125000Y-52225000D01*
X72125000Y-52225000D02*
X71775000Y-52225000D01*
X71775000Y-52225000D02*
X71775000Y-51750000D01*
G04 #@! TO.C,Q1*
X28600000Y-56450000D02*
X28600000Y-53750000D01*
X31400000Y-56450000D02*
X28600000Y-56450000D01*
X31400000Y-53750000D02*
X31400000Y-56450000D01*
X28600000Y-53750000D02*
X31400000Y-53750000D01*
G04 #@! TO.C,U3*
X41600000Y-57100000D02*
X38000000Y-57100000D01*
X38000000Y-57100000D02*
X38000000Y-52500000D01*
X38000000Y-52500000D02*
X41600000Y-52500000D01*
X41600000Y-52500000D02*
X41600000Y-57100000D01*
X41600000Y-56700000D02*
X41200000Y-56700000D01*
X41200000Y-56700000D02*
X41200000Y-56400000D01*
X41200000Y-56400000D02*
X41600000Y-56400000D01*
X41600000Y-56200000D02*
X41200000Y-56200000D01*
X41200000Y-56200000D02*
X41200000Y-55900000D01*
X41200000Y-55900000D02*
X41600000Y-55900000D01*
X41600000Y-55700000D02*
X41200000Y-55700000D01*
X41200000Y-55700000D02*
X41200000Y-55400000D01*
X41200000Y-55400000D02*
X41600000Y-55400000D01*
X41600000Y-55200000D02*
X41200000Y-55200000D01*
X41200000Y-55200000D02*
X41200000Y-54900000D01*
X41200000Y-54900000D02*
X41600000Y-54900000D01*
X41600000Y-54700000D02*
X41200000Y-54700000D01*
X41200000Y-54700000D02*
X41200000Y-54400000D01*
X41200000Y-54400000D02*
X41600000Y-54400000D01*
X41600000Y-54200000D02*
X41200000Y-54200000D01*
X41200000Y-54200000D02*
X41200000Y-53900000D01*
X41200000Y-53900000D02*
X41600000Y-53900000D01*
X41600000Y-53700000D02*
X41200000Y-53700000D01*
X41200000Y-53700000D02*
X41200000Y-53400000D01*
X41200000Y-53400000D02*
X41600000Y-53400000D01*
X41600000Y-53200000D02*
X41200000Y-53200000D01*
X41200000Y-53200000D02*
X41200000Y-52900000D01*
X41200000Y-52900000D02*
X41600000Y-52900000D01*
X40700000Y-52500000D02*
X40700000Y-52900000D01*
X40700000Y-52900000D02*
X40400000Y-52900000D01*
X40400000Y-52900000D02*
X40400000Y-52500000D01*
X40200000Y-52500000D02*
X40200000Y-52900000D01*
X40200000Y-52900000D02*
X39900000Y-52900000D01*
X39900000Y-52900000D02*
X39900000Y-52500000D01*
X39700000Y-52500000D02*
X39700000Y-52900000D01*
X39700000Y-52900000D02*
X39400000Y-52900000D01*
X39400000Y-52900000D02*
X39400000Y-52500000D01*
X39200000Y-52500000D02*
X39200000Y-52900000D01*
X39200000Y-52900000D02*
X38900000Y-52900000D01*
X38900000Y-52900000D02*
X38900000Y-52500000D01*
X38000000Y-52900000D02*
X38400000Y-52900000D01*
X38400000Y-52900000D02*
X38400000Y-53200000D01*
X38400000Y-53200000D02*
X38000000Y-53200000D01*
X38000000Y-53400000D02*
X38400000Y-53400000D01*
X38400000Y-53400000D02*
X38400000Y-53700000D01*
X38400000Y-53700000D02*
X38000000Y-53700000D01*
X38000000Y-53900000D02*
X38400000Y-53900000D01*
X38400000Y-53900000D02*
X38400000Y-54200000D01*
X38400000Y-54200000D02*
X38000000Y-54200000D01*
X38000000Y-54400000D02*
X38400000Y-54400000D01*
X38400000Y-54400000D02*
X38400000Y-54700000D01*
X38400000Y-54700000D02*
X38000000Y-54700000D01*
X38000000Y-54900000D02*
X38400000Y-54900000D01*
X38400000Y-54900000D02*
X38400000Y-55200000D01*
X38400000Y-55200000D02*
X38000000Y-55200000D01*
X38000000Y-55400000D02*
X38400000Y-55400000D01*
X38400000Y-55400000D02*
X38400000Y-55700000D01*
X38400000Y-55700000D02*
X38000000Y-55700000D01*
X38000000Y-55900000D02*
X38400000Y-55900000D01*
X38400000Y-55900000D02*
X38400000Y-56200000D01*
X38400000Y-56200000D02*
X38000000Y-56200000D01*
X38000000Y-56400000D02*
X38400000Y-56400000D01*
X38400000Y-56400000D02*
X38400000Y-56700000D01*
X38400000Y-56700000D02*
X38000000Y-56700000D01*
X38900000Y-57100000D02*
X38900000Y-56700000D01*
X38900000Y-56700000D02*
X39200000Y-56700000D01*
X39200000Y-56700000D02*
X39200000Y-57100000D01*
X39400000Y-57100000D02*
X39400000Y-56700000D01*
X39400000Y-56700000D02*
X39700000Y-56700000D01*
X39700000Y-56700000D02*
X39700000Y-57100000D01*
X39900000Y-57100000D02*
X39900000Y-56700000D01*
X39900000Y-56700000D02*
X40200000Y-56700000D01*
X40200000Y-56700000D02*
X40200000Y-57100000D01*
X40400000Y-57100000D02*
X40400000Y-56700000D01*
X40400000Y-56700000D02*
X40700000Y-56700000D01*
X40700000Y-56700000D02*
X40700000Y-57100000D01*
G04 #@! TD*
G04 #@! TO.C,C13*
X71002380Y-54832380D02*
X70430952Y-54832380D01*
X70716666Y-54832380D02*
X70716666Y-53832380D01*
X70621428Y-53975238D01*
X70526190Y-54070476D01*
X70430952Y-54118095D01*
X71621428Y-53832380D02*
X71716666Y-53832380D01*
X71811904Y-53880000D01*
X71859523Y-53927619D01*
X71907142Y-54022857D01*
X71954761Y-54213333D01*
X71954761Y-54451428D01*
X71907142Y-54641904D01*
X71859523Y-54737142D01*
X71811904Y-54784761D01*
X71716666Y-54832380D01*
X71621428Y-54832380D01*
X71526190Y-54784761D01*
X71478571Y-54737142D01*
X71430952Y-54641904D01*
X71383333Y-54451428D01*
X71383333Y-54213333D01*
X71430952Y-54022857D01*
X71478571Y-53927619D01*
X71526190Y-53880000D01*
X71621428Y-53832380D01*
X72573809Y-53832380D02*
X72669047Y-53832380D01*
X72764285Y-53880000D01*
X72811904Y-53927619D01*
X72859523Y-54022857D01*
X72907142Y-54213333D01*
X72907142Y-54451428D01*
X72859523Y-54641904D01*
X72811904Y-54737142D01*
X72764285Y-54784761D01*
X72669047Y-54832380D01*
X72573809Y-54832380D01*
X72478571Y-54784761D01*
X72430952Y-54737142D01*
X72383333Y-54641904D01*
X72335714Y-54451428D01*
X72335714Y-54213333D01*
X72383333Y-54022857D01*
X72430952Y-53927619D01*
X72478571Y-53880000D01*
X72573809Y-53832380D01*
X73335714Y-54165714D02*
X73335714Y-54832380D01*
X73335714Y-54260952D02*
X73383333Y-54213333D01*
X73478571Y-54165714D01*
X73621428Y-54165714D01*
X73716666Y-54213333D01*
X73764285Y-54308571D01*
X73764285Y-54832380D01*
X74573809Y-54308571D02*
X74240476Y-54308571D01*
X74240476Y-54832380D02*
X74240476Y-53832380D01*
X74716666Y-53832380D01*
X71907142Y-57277142D02*
X71859523Y-57324761D01*
X71716666Y-57372380D01*
X71621428Y-57372380D01*
X71478571Y-57324761D01*
X71383333Y-57229523D01*
X71335714Y-57134285D01*
X71288095Y-56943809D01*
X71288095Y-56800952D01*
X71335714Y-56610476D01*
X71383333Y-56515238D01*
X71478571Y-56420000D01*
X71621428Y-56372380D01*
X71716666Y-56372380D01*
X71859523Y-56420000D01*
X71907142Y-56467619D01*
X72859523Y-57372380D02*
X72288095Y-57372380D01*
X72573809Y-57372380D02*
X72573809Y-56372380D01*
X72478571Y-56515238D01*
X72383333Y-56610476D01*
X72288095Y-56658095D01*
X73192857Y-56372380D02*
X73811904Y-56372380D01*
X73478571Y-56753333D01*
X73621428Y-56753333D01*
X73716666Y-56800952D01*
X73764285Y-56848571D01*
X73811904Y-56943809D01*
X73811904Y-57181904D01*
X73764285Y-57277142D01*
X73716666Y-57324761D01*
X73621428Y-57372380D01*
X73335714Y-57372380D01*
X73240476Y-57324761D01*
X73192857Y-57277142D01*
G04 #@! TO.C,C12*
X77122380Y-56697619D02*
X77122380Y-57269047D01*
X77122380Y-56983333D02*
X76122380Y-56983333D01*
X76265238Y-57078571D01*
X76360476Y-57173809D01*
X76408095Y-57269047D01*
X76122380Y-56078571D02*
X76122380Y-55983333D01*
X76170000Y-55888095D01*
X76217619Y-55840476D01*
X76312857Y-55792857D01*
X76503333Y-55745238D01*
X76741428Y-55745238D01*
X76931904Y-55792857D01*
X77027142Y-55840476D01*
X77074761Y-55888095D01*
X77122380Y-55983333D01*
X77122380Y-56078571D01*
X77074761Y-56173809D01*
X77027142Y-56221428D01*
X76931904Y-56269047D01*
X76741428Y-56316666D01*
X76503333Y-56316666D01*
X76312857Y-56269047D01*
X76217619Y-56221428D01*
X76170000Y-56173809D01*
X76122380Y-56078571D01*
X76122380Y-55126190D02*
X76122380Y-55030952D01*
X76170000Y-54935714D01*
X76217619Y-54888095D01*
X76312857Y-54840476D01*
X76503333Y-54792857D01*
X76741428Y-54792857D01*
X76931904Y-54840476D01*
X77027142Y-54888095D01*
X77074761Y-54935714D01*
X77122380Y-55030952D01*
X77122380Y-55126190D01*
X77074761Y-55221428D01*
X77027142Y-55269047D01*
X76931904Y-55316666D01*
X76741428Y-55364285D01*
X76503333Y-55364285D01*
X76312857Y-55316666D01*
X76217619Y-55269047D01*
X76170000Y-55221428D01*
X76122380Y-55126190D01*
X76455714Y-54364285D02*
X77122380Y-54364285D01*
X76550952Y-54364285D02*
X76503333Y-54316666D01*
X76455714Y-54221428D01*
X76455714Y-54078571D01*
X76503333Y-53983333D01*
X76598571Y-53935714D01*
X77122380Y-53935714D01*
X76598571Y-53126190D02*
X76598571Y-53459523D01*
X77122380Y-53459523D02*
X76122380Y-53459523D01*
X76122380Y-52983333D01*
X74487142Y-55792857D02*
X74534761Y-55840476D01*
X74582380Y-55983333D01*
X74582380Y-56078571D01*
X74534761Y-56221428D01*
X74439523Y-56316666D01*
X74344285Y-56364285D01*
X74153809Y-56411904D01*
X74010952Y-56411904D01*
X73820476Y-56364285D01*
X73725238Y-56316666D01*
X73630000Y-56221428D01*
X73582380Y-56078571D01*
X73582380Y-55983333D01*
X73630000Y-55840476D01*
X73677619Y-55792857D01*
X74582380Y-54840476D02*
X74582380Y-55411904D01*
X74582380Y-55126190D02*
X73582380Y-55126190D01*
X73725238Y-55221428D01*
X73820476Y-55316666D01*
X73868095Y-55411904D01*
X73677619Y-54459523D02*
X73630000Y-54411904D01*
X73582380Y-54316666D01*
X73582380Y-54078571D01*
X73630000Y-53983333D01*
X73677619Y-53935714D01*
X73772857Y-53888095D01*
X73868095Y-53888095D01*
X74010952Y-53935714D01*
X74582380Y-54507142D01*
X74582380Y-53888095D01*
G04 #@! TO.C,C11*
X46522380Y-53271428D02*
X46522380Y-53842857D01*
X46522380Y-53557142D02*
X45522380Y-53557142D01*
X45665238Y-53652380D01*
X45760476Y-53747619D01*
X45808095Y-53842857D01*
X45522380Y-52652380D02*
X45522380Y-52557142D01*
X45570000Y-52461904D01*
X45617619Y-52414285D01*
X45712857Y-52366666D01*
X45903333Y-52319047D01*
X46141428Y-52319047D01*
X46331904Y-52366666D01*
X46427142Y-52414285D01*
X46474761Y-52461904D01*
X46522380Y-52557142D01*
X46522380Y-52652380D01*
X46474761Y-52747619D01*
X46427142Y-52795238D01*
X46331904Y-52842857D01*
X46141428Y-52890476D01*
X45903333Y-52890476D01*
X45712857Y-52842857D01*
X45617619Y-52795238D01*
X45570000Y-52747619D01*
X45522380Y-52652380D01*
X45855714Y-51890476D02*
X46855714Y-51890476D01*
X45903333Y-51890476D02*
X45855714Y-51795238D01*
X45855714Y-51604761D01*
X45903333Y-51509523D01*
X45950952Y-51461904D01*
X46046190Y-51414285D01*
X46331904Y-51414285D01*
X46427142Y-51461904D01*
X46474761Y-51509523D01*
X46522380Y-51604761D01*
X46522380Y-51795238D01*
X46474761Y-51890476D01*
X45998571Y-50652380D02*
X45998571Y-50985714D01*
X46522380Y-50985714D02*
X45522380Y-50985714D01*
X45522380Y-50509523D01*
X43887142Y-52842857D02*
X43934761Y-52890476D01*
X43982380Y-53033333D01*
X43982380Y-53128571D01*
X43934761Y-53271428D01*
X43839523Y-53366666D01*
X43744285Y-53414285D01*
X43553809Y-53461904D01*
X43410952Y-53461904D01*
X43220476Y-53414285D01*
X43125238Y-53366666D01*
X43030000Y-53271428D01*
X42982380Y-53128571D01*
X42982380Y-53033333D01*
X43030000Y-52890476D01*
X43077619Y-52842857D01*
X43982380Y-51890476D02*
X43982380Y-52461904D01*
X43982380Y-52176190D02*
X42982380Y-52176190D01*
X43125238Y-52271428D01*
X43220476Y-52366666D01*
X43268095Y-52461904D01*
X43982380Y-50938095D02*
X43982380Y-51509523D01*
X43982380Y-51223809D02*
X42982380Y-51223809D01*
X43125238Y-51319047D01*
X43220476Y-51414285D01*
X43268095Y-51509523D01*
G04 #@! TO.C,C10*
X43982380Y-55271428D02*
X43982380Y-55842857D01*
X43982380Y-55557142D02*
X42982380Y-55557142D01*
X43125238Y-55652380D01*
X43220476Y-55747619D01*
X43268095Y-55842857D01*
X42982380Y-54652380D02*
X42982380Y-54557142D01*
X43030000Y-54461904D01*
X43077619Y-54414285D01*
X43172857Y-54366666D01*
X43363333Y-54319047D01*
X43601428Y-54319047D01*
X43791904Y-54366666D01*
X43887142Y-54414285D01*
X43934761Y-54461904D01*
X43982380Y-54557142D01*
X43982380Y-54652380D01*
X43934761Y-54747619D01*
X43887142Y-54795238D01*
X43791904Y-54842857D01*
X43601428Y-54890476D01*
X43363333Y-54890476D01*
X43172857Y-54842857D01*
X43077619Y-54795238D01*
X43030000Y-54747619D01*
X42982380Y-54652380D01*
X43315714Y-53890476D02*
X44315714Y-53890476D01*
X43363333Y-53890476D02*
X43315714Y-53795238D01*
X43315714Y-53604761D01*
X43363333Y-53509523D01*
X43410952Y-53461904D01*
X43506190Y-53414285D01*
X43791904Y-53414285D01*
X43887142Y-53461904D01*
X43934761Y-53509523D01*
X43982380Y-53604761D01*
X43982380Y-53795238D01*
X43934761Y-53890476D01*
X43458571Y-52652380D02*
X43458571Y-52985714D01*
X43982380Y-52985714D02*
X42982380Y-52985714D01*
X42982380Y-52509523D01*
X46427142Y-54842857D02*
X46474761Y-54890476D01*
X46522380Y-55033333D01*
X46522380Y-55128571D01*
X46474761Y-55271428D01*
X46379523Y-55366666D01*
X46284285Y-55414285D01*
X46093809Y-55461904D01*
X45950952Y-55461904D01*
X45760476Y-55414285D01*
X45665238Y-55366666D01*
X45570000Y-55271428D01*
X45522380Y-55128571D01*
X45522380Y-55033333D01*
X45570000Y-54890476D01*
X45617619Y-54842857D01*
X46522380Y-53890476D02*
X46522380Y-54461904D01*
X46522380Y-54176190D02*
X45522380Y-54176190D01*
X45665238Y-54271428D01*
X45760476Y-54366666D01*
X45808095Y-54461904D01*
X45522380Y-53271428D02*
X45522380Y-53176190D01*
X45570000Y-53080952D01*
X45617619Y-53033333D01*
X45712857Y-52985714D01*
X45903333Y-52938095D01*
X46141428Y-52938095D01*
X46331904Y-52985714D01*
X46427142Y-53033333D01*
X46474761Y-53080952D01*
X46522380Y-53176190D01*
X46522380Y-53271428D01*
X46474761Y-53366666D01*
X46427142Y-53414285D01*
X46331904Y-53461904D01*
X46141428Y-53509523D01*
X45903333Y-53509523D01*
X45712857Y-53461904D01*
X45617619Y-53414285D01*
X45570000Y-53366666D01*
X45522380Y-53271428D01*
G04 #@! TO.C,C9*
X45522380Y-56347619D02*
X45522380Y-56919047D01*
X45522380Y-56633333D02*
X44522380Y-56633333D01*
X44665238Y-56728571D01*
X44760476Y-56823809D01*
X44808095Y-56919047D01*
X44522380Y-55728571D02*
X44522380Y-55633333D01*
X44570000Y-55538095D01*
X44617619Y-55490476D01*
X44712857Y-55442857D01*
X44903333Y-55395238D01*
X45141428Y-55395238D01*
X45331904Y-55442857D01*
X45427142Y-55490476D01*
X45474761Y-55538095D01*
X45522380Y-55633333D01*
X45522380Y-55728571D01*
X45474761Y-55823809D01*
X45427142Y-55871428D01*
X45331904Y-55919047D01*
X45141428Y-55966666D01*
X44903333Y-55966666D01*
X44712857Y-55919047D01*
X44617619Y-55871428D01*
X44570000Y-55823809D01*
X44522380Y-55728571D01*
X44522380Y-54776190D02*
X44522380Y-54680952D01*
X44570000Y-54585714D01*
X44617619Y-54538095D01*
X44712857Y-54490476D01*
X44903333Y-54442857D01*
X45141428Y-54442857D01*
X45331904Y-54490476D01*
X45427142Y-54538095D01*
X45474761Y-54585714D01*
X45522380Y-54680952D01*
X45522380Y-54776190D01*
X45474761Y-54871428D01*
X45427142Y-54919047D01*
X45331904Y-54966666D01*
X45141428Y-55014285D01*
X44903333Y-55014285D01*
X44712857Y-54966666D01*
X44617619Y-54919047D01*
X44570000Y-54871428D01*
X44522380Y-54776190D01*
X44855714Y-54014285D02*
X45522380Y-54014285D01*
X44950952Y-54014285D02*
X44903333Y-53966666D01*
X44855714Y-53871428D01*
X44855714Y-53728571D01*
X44903333Y-53633333D01*
X44998571Y-53585714D01*
X45522380Y-53585714D01*
X44998571Y-52776190D02*
X44998571Y-53109523D01*
X45522380Y-53109523D02*
X44522380Y-53109523D01*
X44522380Y-52633333D01*
X42887142Y-54966666D02*
X42934761Y-55014285D01*
X42982380Y-55157142D01*
X42982380Y-55252380D01*
X42934761Y-55395238D01*
X42839523Y-55490476D01*
X42744285Y-55538095D01*
X42553809Y-55585714D01*
X42410952Y-55585714D01*
X42220476Y-55538095D01*
X42125238Y-55490476D01*
X42030000Y-55395238D01*
X41982380Y-55252380D01*
X41982380Y-55157142D01*
X42030000Y-55014285D01*
X42077619Y-54966666D01*
X42982380Y-54490476D02*
X42982380Y-54300000D01*
X42934761Y-54204761D01*
X42887142Y-54157142D01*
X42744285Y-54061904D01*
X42553809Y-54014285D01*
X42172857Y-54014285D01*
X42077619Y-54061904D01*
X42030000Y-54109523D01*
X41982380Y-54204761D01*
X41982380Y-54395238D01*
X42030000Y-54490476D01*
X42077619Y-54538095D01*
X42172857Y-54585714D01*
X42410952Y-54585714D01*
X42506190Y-54538095D01*
X42553809Y-54490476D01*
X42601428Y-54395238D01*
X42601428Y-54204761D01*
X42553809Y-54109523D01*
X42506190Y-54061904D01*
X42410952Y-54014285D01*
G04 #@! TO.C,C1*
X67285714Y-58704761D02*
X67952380Y-58704761D01*
X66904761Y-58942857D02*
X67619047Y-59180952D01*
X67619047Y-58561904D01*
X67857142Y-58180952D02*
X67904761Y-58133333D01*
X67952380Y-58180952D01*
X67904761Y-58228571D01*
X67857142Y-58180952D01*
X67952380Y-58180952D01*
X66952380Y-57799999D02*
X66952380Y-57133333D01*
X67952380Y-57561904D01*
X67285714Y-56323809D02*
X67952380Y-56323809D01*
X67285714Y-56752380D02*
X67809523Y-56752380D01*
X67904761Y-56704761D01*
X67952380Y-56609523D01*
X67952380Y-56466666D01*
X67904761Y-56371428D01*
X67857142Y-56323809D01*
X67428571Y-55514285D02*
X67428571Y-55847619D01*
X67952380Y-55847619D02*
X66952380Y-55847619D01*
X66952380Y-55371428D01*
X65107142Y-57466666D02*
X65154761Y-57514285D01*
X65202380Y-57657142D01*
X65202380Y-57752380D01*
X65154761Y-57895238D01*
X65059523Y-57990476D01*
X64964285Y-58038095D01*
X64773809Y-58085714D01*
X64630952Y-58085714D01*
X64440476Y-58038095D01*
X64345238Y-57990476D01*
X64250000Y-57895238D01*
X64202380Y-57752380D01*
X64202380Y-57657142D01*
X64250000Y-57514285D01*
X64297619Y-57466666D01*
X65202380Y-56514285D02*
X65202380Y-57085714D01*
X65202380Y-56800000D02*
X64202380Y-56800000D01*
X64345238Y-56895238D01*
X64440476Y-56990476D01*
X64488095Y-57085714D01*
G04 #@! TO.C,C2*
X33485714Y-56104761D02*
X34152380Y-56104761D01*
X33104761Y-56342857D02*
X33819047Y-56580952D01*
X33819047Y-55961904D01*
X34057142Y-55580952D02*
X34104761Y-55533333D01*
X34152380Y-55580952D01*
X34104761Y-55628571D01*
X34057142Y-55580952D01*
X34152380Y-55580952D01*
X33152380Y-55200000D02*
X33152380Y-54533333D01*
X34152380Y-54961904D01*
X33485714Y-53723809D02*
X34152380Y-53723809D01*
X33485714Y-54152380D02*
X34009523Y-54152380D01*
X34104761Y-54104761D01*
X34152380Y-54009523D01*
X34152380Y-53866666D01*
X34104761Y-53771428D01*
X34057142Y-53723809D01*
X33628571Y-52914285D02*
X33628571Y-53247619D01*
X34152380Y-53247619D02*
X33152380Y-53247619D01*
X33152380Y-52771428D01*
X31307142Y-54866666D02*
X31354761Y-54914285D01*
X31402380Y-55057142D01*
X31402380Y-55152380D01*
X31354761Y-55295238D01*
X31259523Y-55390476D01*
X31164285Y-55438095D01*
X30973809Y-55485714D01*
X30830952Y-55485714D01*
X30640476Y-55438095D01*
X30545238Y-55390476D01*
X30450000Y-55295238D01*
X30402380Y-55152380D01*
X30402380Y-55057142D01*
X30450000Y-54914285D01*
X30497619Y-54866666D01*
X30497619Y-54485714D02*
X30450000Y-54438095D01*
X30402380Y-54342857D01*
X30402380Y-54104761D01*
X30450000Y-54009523D01*
X30497619Y-53961904D01*
X30592857Y-53914285D01*
X30688095Y-53914285D01*
X30830952Y-53961904D01*
X31402380Y-54533333D01*
X31402380Y-53914285D01*
G04 #@! TO.C,C17*
X50302380Y-60752380D02*
X50302380Y-61323809D01*
X50302380Y-61038095D02*
X49302380Y-61038095D01*
X49445238Y-61133333D01*
X49540476Y-61228571D01*
X49588095Y-61323809D01*
X49302380Y-60133333D02*
X49302380Y-60038095D01*
X49350000Y-59942857D01*
X49397619Y-59895238D01*
X49492857Y-59847619D01*
X49683333Y-59800000D01*
X49921428Y-59800000D01*
X50111904Y-59847619D01*
X50207142Y-59895238D01*
X50254761Y-59942857D01*
X50302380Y-60038095D01*
X50302380Y-60133333D01*
X50254761Y-60228571D01*
X50207142Y-60276190D01*
X50111904Y-60323809D01*
X49921428Y-60371428D01*
X49683333Y-60371428D01*
X49492857Y-60323809D01*
X49397619Y-60276190D01*
X49350000Y-60228571D01*
X49302380Y-60133333D01*
X49302380Y-59180952D02*
X49302380Y-59085714D01*
X49350000Y-58990476D01*
X49397619Y-58942857D01*
X49492857Y-58895238D01*
X49683333Y-58847619D01*
X49921428Y-58847619D01*
X50111904Y-58895238D01*
X50207142Y-58942857D01*
X50254761Y-58990476D01*
X50302380Y-59085714D01*
X50302380Y-59180952D01*
X50254761Y-59276190D01*
X50207142Y-59323809D01*
X50111904Y-59371428D01*
X49921428Y-59419047D01*
X49683333Y-59419047D01*
X49492857Y-59371428D01*
X49397619Y-59323809D01*
X49350000Y-59276190D01*
X49302380Y-59180952D01*
X49302380Y-58228571D02*
X49302380Y-58133333D01*
X49350000Y-58038095D01*
X49397619Y-57990476D01*
X49492857Y-57942857D01*
X49683333Y-57895238D01*
X49921428Y-57895238D01*
X50111904Y-57942857D01*
X50207142Y-57990476D01*
X50254761Y-58038095D01*
X50302380Y-58133333D01*
X50302380Y-58228571D01*
X50254761Y-58323809D01*
X50207142Y-58371428D01*
X50111904Y-58419047D01*
X49921428Y-58466666D01*
X49683333Y-58466666D01*
X49492857Y-58419047D01*
X49397619Y-58371428D01*
X49350000Y-58323809D01*
X49302380Y-58228571D01*
X49635714Y-57466666D02*
X50635714Y-57466666D01*
X49683333Y-57466666D02*
X49635714Y-57371428D01*
X49635714Y-57180952D01*
X49683333Y-57085714D01*
X49730952Y-57038095D01*
X49826190Y-56990476D01*
X50111904Y-56990476D01*
X50207142Y-57038095D01*
X50254761Y-57085714D01*
X50302380Y-57180952D01*
X50302380Y-57371428D01*
X50254761Y-57466666D01*
X49778571Y-56228571D02*
X49778571Y-56561904D01*
X50302380Y-56561904D02*
X49302380Y-56561904D01*
X49302380Y-56085714D01*
X49302380Y-54466666D02*
X49302380Y-54942857D01*
X49778571Y-54990476D01*
X49730952Y-54942857D01*
X49683333Y-54847619D01*
X49683333Y-54609523D01*
X49730952Y-54514285D01*
X49778571Y-54466666D01*
X49873809Y-54419047D01*
X50111904Y-54419047D01*
X50207142Y-54466666D01*
X50254761Y-54514285D01*
X50302380Y-54609523D01*
X50302380Y-54847619D01*
X50254761Y-54942857D01*
X50207142Y-54990476D01*
X50302380Y-54038095D02*
X49302380Y-53276190D01*
X49302380Y-53895238D02*
X49350000Y-53800000D01*
X49445238Y-53752380D01*
X49540476Y-53800000D01*
X49588095Y-53895238D01*
X49540476Y-53990476D01*
X49445238Y-54038095D01*
X49350000Y-53990476D01*
X49302380Y-53895238D01*
X50254761Y-53323809D02*
X50159523Y-53276190D01*
X50064285Y-53323809D01*
X50016666Y-53419047D01*
X50064285Y-53514285D01*
X50159523Y-53561904D01*
X50254761Y-53514285D01*
X50302380Y-53419047D01*
X50254761Y-53323809D01*
X53707142Y-57942857D02*
X53754761Y-57990476D01*
X53802380Y-58133333D01*
X53802380Y-58228571D01*
X53754761Y-58371428D01*
X53659523Y-58466666D01*
X53564285Y-58514285D01*
X53373809Y-58561904D01*
X53230952Y-58561904D01*
X53040476Y-58514285D01*
X52945238Y-58466666D01*
X52850000Y-58371428D01*
X52802380Y-58228571D01*
X52802380Y-58133333D01*
X52850000Y-57990476D01*
X52897619Y-57942857D01*
X53802380Y-56990476D02*
X53802380Y-57561904D01*
X53802380Y-57276190D02*
X52802380Y-57276190D01*
X52945238Y-57371428D01*
X53040476Y-57466666D01*
X53088095Y-57561904D01*
X52802380Y-56657142D02*
X52802380Y-55990476D01*
X53802380Y-56419047D01*
G04 #@! TO.C,Y1*
X44015476Y-49982380D02*
X44634523Y-49982380D01*
X44301190Y-50363333D01*
X44444047Y-50363333D01*
X44539285Y-50410952D01*
X44586904Y-50458571D01*
X44634523Y-50553809D01*
X44634523Y-50791904D01*
X44586904Y-50887142D01*
X44539285Y-50934761D01*
X44444047Y-50982380D01*
X44158333Y-50982380D01*
X44063095Y-50934761D01*
X44015476Y-50887142D01*
X45015476Y-50077619D02*
X45063095Y-50030000D01*
X45158333Y-49982380D01*
X45396428Y-49982380D01*
X45491666Y-50030000D01*
X45539285Y-50077619D01*
X45586904Y-50172857D01*
X45586904Y-50268095D01*
X45539285Y-50410952D01*
X44967857Y-50982380D01*
X45586904Y-50982380D01*
X46015476Y-50887142D02*
X46063095Y-50934761D01*
X46015476Y-50982380D01*
X45967857Y-50934761D01*
X46015476Y-50887142D01*
X46015476Y-50982380D01*
X46396428Y-49982380D02*
X47063095Y-49982380D01*
X46634523Y-50982380D01*
X47586904Y-50410952D02*
X47491666Y-50363333D01*
X47444047Y-50315714D01*
X47396428Y-50220476D01*
X47396428Y-50172857D01*
X47444047Y-50077619D01*
X47491666Y-50030000D01*
X47586904Y-49982380D01*
X47777380Y-49982380D01*
X47872619Y-50030000D01*
X47920238Y-50077619D01*
X47967857Y-50172857D01*
X47967857Y-50220476D01*
X47920238Y-50315714D01*
X47872619Y-50363333D01*
X47777380Y-50410952D01*
X47586904Y-50410952D01*
X47491666Y-50458571D01*
X47444047Y-50506190D01*
X47396428Y-50601428D01*
X47396428Y-50791904D01*
X47444047Y-50887142D01*
X47491666Y-50934761D01*
X47586904Y-50982380D01*
X47777380Y-50982380D01*
X47872619Y-50934761D01*
X47920238Y-50887142D01*
X47967857Y-50791904D01*
X47967857Y-50601428D01*
X47920238Y-50506190D01*
X47872619Y-50458571D01*
X47777380Y-50410952D01*
X48825000Y-49982380D02*
X48634523Y-49982380D01*
X48539285Y-50030000D01*
X48491666Y-50077619D01*
X48396428Y-50220476D01*
X48348809Y-50410952D01*
X48348809Y-50791904D01*
X48396428Y-50887142D01*
X48444047Y-50934761D01*
X48539285Y-50982380D01*
X48729761Y-50982380D01*
X48825000Y-50934761D01*
X48872619Y-50887142D01*
X48920238Y-50791904D01*
X48920238Y-50553809D01*
X48872619Y-50458571D01*
X48825000Y-50410952D01*
X48729761Y-50363333D01*
X48539285Y-50363333D01*
X48444047Y-50410952D01*
X48396428Y-50458571D01*
X48348809Y-50553809D01*
X49348809Y-50982380D02*
X49348809Y-49982380D01*
X49444047Y-50601428D02*
X49729761Y-50982380D01*
X49729761Y-50315714D02*
X49348809Y-50696666D01*
X50158333Y-50982380D02*
X50158333Y-49982380D01*
X50158333Y-50458571D02*
X50729761Y-50458571D01*
X50729761Y-50982380D02*
X50729761Y-49982380D01*
X51110714Y-50315714D02*
X51634523Y-50315714D01*
X51110714Y-50982380D01*
X51634523Y-50982380D01*
D12*
X50616666Y-52983333D02*
X50616666Y-53316666D01*
X50383333Y-52616666D02*
X50616666Y-52983333D01*
X50850000Y-52616666D01*
X51450000Y-53316666D02*
X51050000Y-53316666D01*
X51250000Y-53316666D02*
X51250000Y-52616666D01*
X51183333Y-52716666D01*
X51116666Y-52783333D01*
X51050000Y-52816666D01*
G04 #@! TO.C,R5*
D11*
X73971428Y-58385714D02*
X73971428Y-59052380D01*
X73733333Y-58004761D02*
X73495238Y-58719047D01*
X74114285Y-58719047D01*
X74495238Y-58957142D02*
X74542857Y-59004761D01*
X74495238Y-59052380D01*
X74447619Y-59004761D01*
X74495238Y-58957142D01*
X74495238Y-59052380D01*
X74876190Y-58052380D02*
X75542857Y-58052380D01*
X75114285Y-59052380D01*
X75923809Y-59052380D02*
X75923809Y-58052380D01*
X76019047Y-58671428D02*
X76304761Y-59052380D01*
X76304761Y-58385714D02*
X75923809Y-58766666D01*
X74733333Y-56252380D02*
X74400000Y-55776190D01*
X74161904Y-56252380D02*
X74161904Y-55252380D01*
X74542857Y-55252380D01*
X74638095Y-55300000D01*
X74685714Y-55347619D01*
X74733333Y-55442857D01*
X74733333Y-55585714D01*
X74685714Y-55680952D01*
X74638095Y-55728571D01*
X74542857Y-55776190D01*
X74161904Y-55776190D01*
X75638095Y-55252380D02*
X75161904Y-55252380D01*
X75114285Y-55728571D01*
X75161904Y-55680952D01*
X75257142Y-55633333D01*
X75495238Y-55633333D01*
X75590476Y-55680952D01*
X75638095Y-55728571D01*
X75685714Y-55823809D01*
X75685714Y-56061904D01*
X75638095Y-56157142D01*
X75590476Y-56204761D01*
X75495238Y-56252380D01*
X75257142Y-56252380D01*
X75161904Y-56204761D01*
X75114285Y-56157142D01*
G04 #@! TO.C,R10*
X34938095Y-57035714D02*
X34938095Y-57702380D01*
X34700000Y-56654761D02*
X34461904Y-57369047D01*
X35080952Y-57369047D01*
X35366666Y-56702380D02*
X36033333Y-56702380D01*
X35604761Y-57702380D01*
X36604761Y-56702380D02*
X36700000Y-56702380D01*
X36795238Y-56750000D01*
X36842857Y-56797619D01*
X36890476Y-56892857D01*
X36938095Y-57083333D01*
X36938095Y-57321428D01*
X36890476Y-57511904D01*
X36842857Y-57607142D01*
X36795238Y-57654761D01*
X36700000Y-57702380D01*
X36604761Y-57702380D01*
X36509523Y-57654761D01*
X36461904Y-57607142D01*
X36414285Y-57511904D01*
X36366666Y-57321428D01*
X36366666Y-57083333D01*
X36414285Y-56892857D01*
X36461904Y-56797619D01*
X36509523Y-56750000D01*
X36604761Y-56702380D01*
X35057142Y-54902380D02*
X34723809Y-54426190D01*
X34485714Y-54902380D02*
X34485714Y-53902380D01*
X34866666Y-53902380D01*
X34961904Y-53950000D01*
X35009523Y-53997619D01*
X35057142Y-54092857D01*
X35057142Y-54235714D01*
X35009523Y-54330952D01*
X34961904Y-54378571D01*
X34866666Y-54426190D01*
X34485714Y-54426190D01*
X36009523Y-54902380D02*
X35438095Y-54902380D01*
X35723809Y-54902380D02*
X35723809Y-53902380D01*
X35628571Y-54045238D01*
X35533333Y-54140476D01*
X35438095Y-54188095D01*
X36628571Y-53902380D02*
X36723809Y-53902380D01*
X36819047Y-53950000D01*
X36866666Y-53997619D01*
X36914285Y-54092857D01*
X36961904Y-54283333D01*
X36961904Y-54521428D01*
X36914285Y-54711904D01*
X36866666Y-54807142D01*
X36819047Y-54854761D01*
X36723809Y-54902380D01*
X36628571Y-54902380D01*
X36533333Y-54854761D01*
X36485714Y-54807142D01*
X36438095Y-54711904D01*
X36390476Y-54521428D01*
X36390476Y-54283333D01*
X36438095Y-54092857D01*
X36485714Y-53997619D01*
X36533333Y-53950000D01*
X36628571Y-53902380D01*
G04 #@! TO.C,R12*
X70835714Y-53828571D02*
X71502380Y-53828571D01*
X70454761Y-54066666D02*
X71169047Y-54304761D01*
X71169047Y-53685714D01*
X71407142Y-53304761D02*
X71454761Y-53257142D01*
X71502380Y-53304761D01*
X71454761Y-53352380D01*
X71407142Y-53304761D01*
X71502380Y-53304761D01*
X70502380Y-52923809D02*
X70502380Y-52257142D01*
X71502380Y-52685714D01*
X71502380Y-51876190D02*
X70502380Y-51876190D01*
X71121428Y-51780952D02*
X71502380Y-51495238D01*
X70835714Y-51495238D02*
X71216666Y-51876190D01*
X68702380Y-53542857D02*
X68226190Y-53876190D01*
X68702380Y-54114285D02*
X67702380Y-54114285D01*
X67702380Y-53733333D01*
X67750000Y-53638095D01*
X67797619Y-53590476D01*
X67892857Y-53542857D01*
X68035714Y-53542857D01*
X68130952Y-53590476D01*
X68178571Y-53638095D01*
X68226190Y-53733333D01*
X68226190Y-54114285D01*
X68702380Y-52590476D02*
X68702380Y-53161904D01*
X68702380Y-52876190D02*
X67702380Y-52876190D01*
X67845238Y-52971428D01*
X67940476Y-53066666D01*
X67988095Y-53161904D01*
X67797619Y-52209523D02*
X67750000Y-52161904D01*
X67702380Y-52066666D01*
X67702380Y-51828571D01*
X67750000Y-51733333D01*
X67797619Y-51685714D01*
X67892857Y-51638095D01*
X67988095Y-51638095D01*
X68130952Y-51685714D01*
X68702380Y-52257142D01*
X68702380Y-51638095D01*
G04 #@! TO.C,R4*
X59938095Y-53135714D02*
X59938095Y-53802380D01*
X59700000Y-52754761D02*
X59461904Y-53469047D01*
X60080952Y-53469047D01*
X60366666Y-52802380D02*
X61033333Y-52802380D01*
X60604761Y-53802380D01*
X61604761Y-52802380D02*
X61700000Y-52802380D01*
X61795238Y-52850000D01*
X61842857Y-52897619D01*
X61890476Y-52992857D01*
X61938095Y-53183333D01*
X61938095Y-53421428D01*
X61890476Y-53611904D01*
X61842857Y-53707142D01*
X61795238Y-53754761D01*
X61700000Y-53802380D01*
X61604761Y-53802380D01*
X61509523Y-53754761D01*
X61461904Y-53707142D01*
X61414285Y-53611904D01*
X61366666Y-53421428D01*
X61366666Y-53183333D01*
X61414285Y-52992857D01*
X61461904Y-52897619D01*
X61509523Y-52850000D01*
X61604761Y-52802380D01*
X60533333Y-56602380D02*
X60200000Y-56126190D01*
X59961904Y-56602380D02*
X59961904Y-55602380D01*
X60342857Y-55602380D01*
X60438095Y-55650000D01*
X60485714Y-55697619D01*
X60533333Y-55792857D01*
X60533333Y-55935714D01*
X60485714Y-56030952D01*
X60438095Y-56078571D01*
X60342857Y-56126190D01*
X59961904Y-56126190D01*
X61390476Y-55935714D02*
X61390476Y-56602380D01*
X61152380Y-55554761D02*
X60914285Y-56269047D01*
X61533333Y-56269047D01*
G04 #@! TO.C,R9*
X34938095Y-55935714D02*
X34938095Y-56602380D01*
X34700000Y-55554761D02*
X34461904Y-56269047D01*
X35080952Y-56269047D01*
X35366666Y-55602380D02*
X36033333Y-55602380D01*
X35604761Y-56602380D01*
X36604761Y-55602380D02*
X36700000Y-55602380D01*
X36795238Y-55650000D01*
X36842857Y-55697619D01*
X36890476Y-55792857D01*
X36938095Y-55983333D01*
X36938095Y-56221428D01*
X36890476Y-56411904D01*
X36842857Y-56507142D01*
X36795238Y-56554761D01*
X36700000Y-56602380D01*
X36604761Y-56602380D01*
X36509523Y-56554761D01*
X36461904Y-56507142D01*
X36414285Y-56411904D01*
X36366666Y-56221428D01*
X36366666Y-55983333D01*
X36414285Y-55792857D01*
X36461904Y-55697619D01*
X36509523Y-55650000D01*
X36604761Y-55602380D01*
X35533333Y-53802380D02*
X35200000Y-53326190D01*
X34961904Y-53802380D02*
X34961904Y-52802380D01*
X35342857Y-52802380D01*
X35438095Y-52850000D01*
X35485714Y-52897619D01*
X35533333Y-52992857D01*
X35533333Y-53135714D01*
X35485714Y-53230952D01*
X35438095Y-53278571D01*
X35342857Y-53326190D01*
X34961904Y-53326190D01*
X36009523Y-53802380D02*
X36200000Y-53802380D01*
X36295238Y-53754761D01*
X36342857Y-53707142D01*
X36438095Y-53564285D01*
X36485714Y-53373809D01*
X36485714Y-52992857D01*
X36438095Y-52897619D01*
X36390476Y-52850000D01*
X36295238Y-52802380D01*
X36104761Y-52802380D01*
X36009523Y-52850000D01*
X35961904Y-52897619D01*
X35914285Y-52992857D01*
X35914285Y-53230952D01*
X35961904Y-53326190D01*
X36009523Y-53373809D01*
X36104761Y-53421428D01*
X36295238Y-53421428D01*
X36390476Y-53373809D01*
X36438095Y-53326190D01*
X36485714Y-53230952D01*
G04 #@! TO.C,R1*
X65380952Y-53402380D02*
X64809523Y-53402380D01*
X65095238Y-53402380D02*
X65095238Y-52402380D01*
X65000000Y-52545238D01*
X64904761Y-52640476D01*
X64809523Y-52688095D01*
X65809523Y-53402380D02*
X65809523Y-52402380D01*
X65904761Y-53021428D02*
X66190476Y-53402380D01*
X66190476Y-52735714D02*
X65809523Y-53116666D01*
D13*
X65433333Y-54680952D02*
X65300000Y-54490476D01*
X65204761Y-54680952D02*
X65204761Y-54280952D01*
X65357142Y-54280952D01*
X65395238Y-54300000D01*
X65414285Y-54319047D01*
X65433333Y-54357142D01*
X65433333Y-54414285D01*
X65414285Y-54452380D01*
X65395238Y-54471428D01*
X65357142Y-54490476D01*
X65204761Y-54490476D01*
X65814285Y-54680952D02*
X65585714Y-54680952D01*
X65700000Y-54680952D02*
X65700000Y-54280952D01*
X65661904Y-54338095D01*
X65623809Y-54376190D01*
X65585714Y-54395238D01*
G04 #@! TO.C,R3*
D11*
X33280952Y-54302380D02*
X32709523Y-54302380D01*
X32995238Y-54302380D02*
X32995238Y-53302380D01*
X32900000Y-53445238D01*
X32804761Y-53540476D01*
X32709523Y-53588095D01*
X33709523Y-54302380D02*
X33709523Y-53302380D01*
X33804761Y-53921428D02*
X34090476Y-54302380D01*
X34090476Y-53635714D02*
X33709523Y-54016666D01*
D13*
X33333333Y-52480952D02*
X33200000Y-52290476D01*
X33104761Y-52480952D02*
X33104761Y-52080952D01*
X33257142Y-52080952D01*
X33295238Y-52100000D01*
X33314285Y-52119047D01*
X33333333Y-52157142D01*
X33333333Y-52214285D01*
X33314285Y-52252380D01*
X33295238Y-52271428D01*
X33257142Y-52290476D01*
X33104761Y-52290476D01*
X33466666Y-52080952D02*
X33714285Y-52080952D01*
X33580952Y-52233333D01*
X33638095Y-52233333D01*
X33676190Y-52252380D01*
X33695238Y-52271428D01*
X33714285Y-52309523D01*
X33714285Y-52404761D01*
X33695238Y-52442857D01*
X33676190Y-52461904D01*
X33638095Y-52480952D01*
X33523809Y-52480952D01*
X33485714Y-52461904D01*
X33466666Y-52442857D01*
G04 #@! TO.C,R8*
D11*
X60280952Y-50902380D02*
X59709523Y-50902380D01*
X59995238Y-50902380D02*
X59995238Y-49902380D01*
X59900000Y-50045238D01*
X59804761Y-50140476D01*
X59709523Y-50188095D01*
X60709523Y-50902380D02*
X60709523Y-49902380D01*
X60804761Y-50521428D02*
X61090476Y-50902380D01*
X61090476Y-50235714D02*
X60709523Y-50616666D01*
D13*
X60333333Y-52180952D02*
X60200000Y-51990476D01*
X60104761Y-52180952D02*
X60104761Y-51780952D01*
X60257142Y-51780952D01*
X60295238Y-51800000D01*
X60314285Y-51819047D01*
X60333333Y-51857142D01*
X60333333Y-51914285D01*
X60314285Y-51952380D01*
X60295238Y-51971428D01*
X60257142Y-51990476D01*
X60104761Y-51990476D01*
X60561904Y-51952380D02*
X60523809Y-51933333D01*
X60504761Y-51914285D01*
X60485714Y-51876190D01*
X60485714Y-51857142D01*
X60504761Y-51819047D01*
X60523809Y-51800000D01*
X60561904Y-51780952D01*
X60638095Y-51780952D01*
X60676190Y-51800000D01*
X60695238Y-51819047D01*
X60714285Y-51857142D01*
X60714285Y-51876190D01*
X60695238Y-51914285D01*
X60676190Y-51933333D01*
X60638095Y-51952380D01*
X60561904Y-51952380D01*
X60523809Y-51971428D01*
X60504761Y-51990476D01*
X60485714Y-52028571D01*
X60485714Y-52104761D01*
X60504761Y-52142857D01*
X60523809Y-52161904D01*
X60561904Y-52180952D01*
X60638095Y-52180952D01*
X60676190Y-52161904D01*
X60695238Y-52142857D01*
X60714285Y-52104761D01*
X60714285Y-52028571D01*
X60695238Y-51990476D01*
X60676190Y-51971428D01*
X60638095Y-51952380D01*
G04 #@! TO.C,R11*
D11*
X54835714Y-57890476D02*
X55502380Y-57890476D01*
X54454761Y-58128571D02*
X55169047Y-58366666D01*
X55169047Y-57747619D01*
X54502380Y-57461904D02*
X54502380Y-56795238D01*
X55502380Y-57223809D01*
X55502380Y-56414285D02*
X54502380Y-56414285D01*
X55121428Y-56319047D02*
X55502380Y-56033333D01*
X54835714Y-56033333D02*
X55216666Y-56414285D01*
D13*
X53680952Y-57457142D02*
X53490476Y-57590476D01*
X53680952Y-57685714D02*
X53280952Y-57685714D01*
X53280952Y-57533333D01*
X53300000Y-57495238D01*
X53319047Y-57476190D01*
X53357142Y-57457142D01*
X53414285Y-57457142D01*
X53452380Y-57476190D01*
X53471428Y-57495238D01*
X53490476Y-57533333D01*
X53490476Y-57685714D01*
X53680952Y-57076190D02*
X53680952Y-57304761D01*
X53680952Y-57190476D02*
X53280952Y-57190476D01*
X53338095Y-57228571D01*
X53376190Y-57266666D01*
X53395238Y-57304761D01*
X53680952Y-56695238D02*
X53680952Y-56923809D01*
X53680952Y-56809523D02*
X53280952Y-56809523D01*
X53338095Y-56847619D01*
X53376190Y-56885714D01*
X53395238Y-56923809D01*
G04 #@! TO.C,J1*
D11*
X40861904Y-60687142D02*
X40814285Y-60734761D01*
X40671428Y-60782380D01*
X40576190Y-60782380D01*
X40433333Y-60734761D01*
X40338095Y-60639523D01*
X40290476Y-60544285D01*
X40242857Y-60353809D01*
X40242857Y-60210952D01*
X40290476Y-60020476D01*
X40338095Y-59925238D01*
X40433333Y-59830000D01*
X40576190Y-59782380D01*
X40671428Y-59782380D01*
X40814285Y-59830000D01*
X40861904Y-59877619D01*
X41433333Y-60782380D02*
X41338095Y-60734761D01*
X41290476Y-60687142D01*
X41242857Y-60591904D01*
X41242857Y-60306190D01*
X41290476Y-60210952D01*
X41338095Y-60163333D01*
X41433333Y-60115714D01*
X41576190Y-60115714D01*
X41671428Y-60163333D01*
X41719047Y-60210952D01*
X41766666Y-60306190D01*
X41766666Y-60591904D01*
X41719047Y-60687142D01*
X41671428Y-60734761D01*
X41576190Y-60782380D01*
X41433333Y-60782380D01*
X42195238Y-60115714D02*
X42195238Y-60782380D01*
X42195238Y-60210952D02*
X42242857Y-60163333D01*
X42338095Y-60115714D01*
X42480952Y-60115714D01*
X42576190Y-60163333D01*
X42623809Y-60258571D01*
X42623809Y-60782380D01*
X43100000Y-60115714D02*
X43100000Y-60782380D01*
X43100000Y-60210952D02*
X43147619Y-60163333D01*
X43242857Y-60115714D01*
X43385714Y-60115714D01*
X43480952Y-60163333D01*
X43528571Y-60258571D01*
X43528571Y-60782380D01*
X43766666Y-60877619D02*
X44528571Y-60877619D01*
X44957142Y-59782380D02*
X45052380Y-59782380D01*
X45147619Y-59830000D01*
X45195238Y-59877619D01*
X45242857Y-59972857D01*
X45290476Y-60163333D01*
X45290476Y-60401428D01*
X45242857Y-60591904D01*
X45195238Y-60687142D01*
X45147619Y-60734761D01*
X45052380Y-60782380D01*
X44957142Y-60782380D01*
X44861904Y-60734761D01*
X44814285Y-60687142D01*
X44766666Y-60591904D01*
X44719047Y-60401428D01*
X44719047Y-60163333D01*
X44766666Y-59972857D01*
X44814285Y-59877619D01*
X44861904Y-59830000D01*
X44957142Y-59782380D01*
X46242857Y-60782380D02*
X45671428Y-60782380D01*
X45957142Y-60782380D02*
X45957142Y-59782380D01*
X45861904Y-59925238D01*
X45766666Y-60020476D01*
X45671428Y-60068095D01*
X46576190Y-60782380D02*
X47100000Y-60115714D01*
X46576190Y-60115714D02*
X47100000Y-60782380D01*
X47671428Y-59782380D02*
X47766666Y-59782380D01*
X47861904Y-59830000D01*
X47909523Y-59877619D01*
X47957142Y-59972857D01*
X48004761Y-60163333D01*
X48004761Y-60401428D01*
X47957142Y-60591904D01*
X47909523Y-60687142D01*
X47861904Y-60734761D01*
X47766666Y-60782380D01*
X47671428Y-60782380D01*
X47576190Y-60734761D01*
X47528571Y-60687142D01*
X47480952Y-60591904D01*
X47433333Y-60401428D01*
X47433333Y-60163333D01*
X47480952Y-59972857D01*
X47528571Y-59877619D01*
X47576190Y-59830000D01*
X47671428Y-59782380D01*
X48957142Y-60782380D02*
X48385714Y-60782380D01*
X48671428Y-60782380D02*
X48671428Y-59782380D01*
X48576190Y-59925238D01*
X48480952Y-60020476D01*
X48385714Y-60068095D01*
X44266666Y-55122380D02*
X44266666Y-55836666D01*
X44219047Y-55979523D01*
X44123809Y-56074761D01*
X43980952Y-56122380D01*
X43885714Y-56122380D01*
X45266666Y-56122380D02*
X44695238Y-56122380D01*
X44980952Y-56122380D02*
X44980952Y-55122380D01*
X44885714Y-55265238D01*
X44790476Y-55360476D01*
X44695238Y-55408095D01*
G04 #@! TO.C,J2*
X32322142Y-55638095D02*
X32369761Y-55685714D01*
X32417380Y-55828571D01*
X32417380Y-55923809D01*
X32369761Y-56066666D01*
X32274523Y-56161904D01*
X32179285Y-56209523D01*
X31988809Y-56257142D01*
X31845952Y-56257142D01*
X31655476Y-56209523D01*
X31560238Y-56161904D01*
X31465000Y-56066666D01*
X31417380Y-55923809D01*
X31417380Y-55828571D01*
X31465000Y-55685714D01*
X31512619Y-55638095D01*
X32417380Y-55066666D02*
X32369761Y-55161904D01*
X32322142Y-55209523D01*
X32226904Y-55257142D01*
X31941190Y-55257142D01*
X31845952Y-55209523D01*
X31798333Y-55161904D01*
X31750714Y-55066666D01*
X31750714Y-54923809D01*
X31798333Y-54828571D01*
X31845952Y-54780952D01*
X31941190Y-54733333D01*
X32226904Y-54733333D01*
X32322142Y-54780952D01*
X32369761Y-54828571D01*
X32417380Y-54923809D01*
X32417380Y-55066666D01*
X31750714Y-54304761D02*
X32417380Y-54304761D01*
X31845952Y-54304761D02*
X31798333Y-54257142D01*
X31750714Y-54161904D01*
X31750714Y-54019047D01*
X31798333Y-53923809D01*
X31893571Y-53876190D01*
X32417380Y-53876190D01*
X31750714Y-53400000D02*
X32417380Y-53400000D01*
X31845952Y-53400000D02*
X31798333Y-53352380D01*
X31750714Y-53257142D01*
X31750714Y-53114285D01*
X31798333Y-53019047D01*
X31893571Y-52971428D01*
X32417380Y-52971428D01*
X32512619Y-52733333D02*
X32512619Y-51971428D01*
X31417380Y-51542857D02*
X31417380Y-51447619D01*
X31465000Y-51352380D01*
X31512619Y-51304761D01*
X31607857Y-51257142D01*
X31798333Y-51209523D01*
X32036428Y-51209523D01*
X32226904Y-51257142D01*
X32322142Y-51304761D01*
X32369761Y-51352380D01*
X32417380Y-51447619D01*
X32417380Y-51542857D01*
X32369761Y-51638095D01*
X32322142Y-51685714D01*
X32226904Y-51733333D01*
X32036428Y-51780952D01*
X31798333Y-51780952D01*
X31607857Y-51733333D01*
X31512619Y-51685714D01*
X31465000Y-51638095D01*
X31417380Y-51542857D01*
X32417380Y-50257142D02*
X32417380Y-50828571D01*
X32417380Y-50542857D02*
X31417380Y-50542857D01*
X31560238Y-50638095D01*
X31655476Y-50733333D01*
X31703095Y-50828571D01*
X32417380Y-49923809D02*
X31750714Y-49400000D01*
X31750714Y-49923809D02*
X32417380Y-49400000D01*
X31417380Y-48828571D02*
X31417380Y-48733333D01*
X31465000Y-48638095D01*
X31512619Y-48590476D01*
X31607857Y-48542857D01*
X31798333Y-48495238D01*
X32036428Y-48495238D01*
X32226904Y-48542857D01*
X32322142Y-48590476D01*
X32369761Y-48638095D01*
X32417380Y-48733333D01*
X32417380Y-48828571D01*
X32369761Y-48923809D01*
X32322142Y-48971428D01*
X32226904Y-49019047D01*
X32036428Y-49066666D01*
X31798333Y-49066666D01*
X31607857Y-49019047D01*
X31512619Y-48971428D01*
X31465000Y-48923809D01*
X31417380Y-48828571D01*
X31512619Y-48114285D02*
X31465000Y-48066666D01*
X31417380Y-47971428D01*
X31417380Y-47733333D01*
X31465000Y-47638095D01*
X31512619Y-47590476D01*
X31607857Y-47542857D01*
X31703095Y-47542857D01*
X31845952Y-47590476D01*
X32417380Y-48161904D01*
X32417380Y-47542857D01*
X26757380Y-52233333D02*
X27471666Y-52233333D01*
X27614523Y-52280952D01*
X27709761Y-52376190D01*
X27757380Y-52519047D01*
X27757380Y-52614285D01*
X26852619Y-51804761D02*
X26805000Y-51757142D01*
X26757380Y-51661904D01*
X26757380Y-51423809D01*
X26805000Y-51328571D01*
X26852619Y-51280952D01*
X26947857Y-51233333D01*
X27043095Y-51233333D01*
X27185952Y-51280952D01*
X27757380Y-51852380D01*
X27757380Y-51233333D01*
G04 #@! TO.C,D1*
X66737380Y-58642857D02*
X66737380Y-59119047D01*
X65737380Y-59119047D01*
X66213571Y-58309523D02*
X66213571Y-57976190D01*
X66737380Y-57833333D02*
X66737380Y-58309523D01*
X65737380Y-58309523D01*
X65737380Y-57833333D01*
X66737380Y-57404761D02*
X65737380Y-57404761D01*
X65737380Y-57166666D01*
X65785000Y-57023809D01*
X65880238Y-56928571D01*
X65975476Y-56880952D01*
X66165952Y-56833333D01*
X66308809Y-56833333D01*
X66499285Y-56880952D01*
X66594523Y-56928571D01*
X66689761Y-57023809D01*
X66737380Y-57166666D01*
X66737380Y-57404761D01*
X71397380Y-58738095D02*
X70397380Y-58738095D01*
X70397380Y-58500000D01*
X70445000Y-58357142D01*
X70540238Y-58261904D01*
X70635476Y-58214285D01*
X70825952Y-58166666D01*
X70968809Y-58166666D01*
X71159285Y-58214285D01*
X71254523Y-58261904D01*
X71349761Y-58357142D01*
X71397380Y-58500000D01*
X71397380Y-58738095D01*
X71397380Y-57214285D02*
X71397380Y-57785714D01*
X71397380Y-57500000D02*
X70397380Y-57500000D01*
X70540238Y-57595238D01*
X70635476Y-57690476D01*
X70683095Y-57785714D01*
G04 #@! TO.C,J3*
X34192142Y-62038095D02*
X34239761Y-62085714D01*
X34287380Y-62228571D01*
X34287380Y-62323809D01*
X34239761Y-62466666D01*
X34144523Y-62561904D01*
X34049285Y-62609523D01*
X33858809Y-62657142D01*
X33715952Y-62657142D01*
X33525476Y-62609523D01*
X33430238Y-62561904D01*
X33335000Y-62466666D01*
X33287380Y-62323809D01*
X33287380Y-62228571D01*
X33335000Y-62085714D01*
X33382619Y-62038095D01*
X34287380Y-61466666D02*
X34239761Y-61561904D01*
X34192142Y-61609523D01*
X34096904Y-61657142D01*
X33811190Y-61657142D01*
X33715952Y-61609523D01*
X33668333Y-61561904D01*
X33620714Y-61466666D01*
X33620714Y-61323809D01*
X33668333Y-61228571D01*
X33715952Y-61180952D01*
X33811190Y-61133333D01*
X34096904Y-61133333D01*
X34192142Y-61180952D01*
X34239761Y-61228571D01*
X34287380Y-61323809D01*
X34287380Y-61466666D01*
X33620714Y-60704761D02*
X34287380Y-60704761D01*
X33715952Y-60704761D02*
X33668333Y-60657142D01*
X33620714Y-60561904D01*
X33620714Y-60419047D01*
X33668333Y-60323809D01*
X33763571Y-60276190D01*
X34287380Y-60276190D01*
X33620714Y-59800000D02*
X34287380Y-59800000D01*
X33715952Y-59800000D02*
X33668333Y-59752380D01*
X33620714Y-59657142D01*
X33620714Y-59514285D01*
X33668333Y-59419047D01*
X33763571Y-59371428D01*
X34287380Y-59371428D01*
X34382619Y-59133333D02*
X34382619Y-58371428D01*
X33287380Y-57942857D02*
X33287380Y-57847619D01*
X33335000Y-57752380D01*
X33382619Y-57704761D01*
X33477857Y-57657142D01*
X33668333Y-57609523D01*
X33906428Y-57609523D01*
X34096904Y-57657142D01*
X34192142Y-57704761D01*
X34239761Y-57752380D01*
X34287380Y-57847619D01*
X34287380Y-57942857D01*
X34239761Y-58038095D01*
X34192142Y-58085714D01*
X34096904Y-58133333D01*
X33906428Y-58180952D01*
X33668333Y-58180952D01*
X33477857Y-58133333D01*
X33382619Y-58085714D01*
X33335000Y-58038095D01*
X33287380Y-57942857D01*
X34287380Y-56657142D02*
X34287380Y-57228571D01*
X34287380Y-56942857D02*
X33287380Y-56942857D01*
X33430238Y-57038095D01*
X33525476Y-57133333D01*
X33573095Y-57228571D01*
X34287380Y-56323809D02*
X33620714Y-55800000D01*
X33620714Y-56323809D02*
X34287380Y-55800000D01*
X33287380Y-55228571D02*
X33287380Y-55133333D01*
X33335000Y-55038095D01*
X33382619Y-54990476D01*
X33477857Y-54942857D01*
X33668333Y-54895238D01*
X33906428Y-54895238D01*
X34096904Y-54942857D01*
X34192142Y-54990476D01*
X34239761Y-55038095D01*
X34287380Y-55133333D01*
X34287380Y-55228571D01*
X34239761Y-55323809D01*
X34192142Y-55371428D01*
X34096904Y-55419047D01*
X33906428Y-55466666D01*
X33668333Y-55466666D01*
X33477857Y-55419047D01*
X33382619Y-55371428D01*
X33335000Y-55323809D01*
X33287380Y-55228571D01*
X33287380Y-54561904D02*
X33287380Y-53942857D01*
X33668333Y-54276190D01*
X33668333Y-54133333D01*
X33715952Y-54038095D01*
X33763571Y-53990476D01*
X33858809Y-53942857D01*
X34096904Y-53942857D01*
X34192142Y-53990476D01*
X34239761Y-54038095D01*
X34287380Y-54133333D01*
X34287380Y-54419047D01*
X34239761Y-54514285D01*
X34192142Y-54561904D01*
X27357380Y-58633333D02*
X28071666Y-58633333D01*
X28214523Y-58680952D01*
X28309761Y-58776190D01*
X28357380Y-58919047D01*
X28357380Y-59014285D01*
X27357380Y-58252380D02*
X27357380Y-57633333D01*
X27738333Y-57966666D01*
X27738333Y-57823809D01*
X27785952Y-57728571D01*
X27833571Y-57680952D01*
X27928809Y-57633333D01*
X28166904Y-57633333D01*
X28262142Y-57680952D01*
X28309761Y-57728571D01*
X28357380Y-57823809D01*
X28357380Y-58109523D01*
X28309761Y-58204761D01*
X28262142Y-58252380D01*
G04 #@! TO.C,J4*
X40922142Y-60322142D02*
X40874523Y-60369761D01*
X40731666Y-60417380D01*
X40636428Y-60417380D01*
X40493571Y-60369761D01*
X40398333Y-60274523D01*
X40350714Y-60179285D01*
X40303095Y-59988809D01*
X40303095Y-59845952D01*
X40350714Y-59655476D01*
X40398333Y-59560238D01*
X40493571Y-59465000D01*
X40636428Y-59417380D01*
X40731666Y-59417380D01*
X40874523Y-59465000D01*
X40922142Y-59512619D01*
X41493571Y-60417380D02*
X41398333Y-60369761D01*
X41350714Y-60322142D01*
X41303095Y-60226904D01*
X41303095Y-59941190D01*
X41350714Y-59845952D01*
X41398333Y-59798333D01*
X41493571Y-59750714D01*
X41636428Y-59750714D01*
X41731666Y-59798333D01*
X41779285Y-59845952D01*
X41826904Y-59941190D01*
X41826904Y-60226904D01*
X41779285Y-60322142D01*
X41731666Y-60369761D01*
X41636428Y-60417380D01*
X41493571Y-60417380D01*
X42255476Y-59750714D02*
X42255476Y-60417380D01*
X42255476Y-59845952D02*
X42303095Y-59798333D01*
X42398333Y-59750714D01*
X42541190Y-59750714D01*
X42636428Y-59798333D01*
X42684047Y-59893571D01*
X42684047Y-60417380D01*
X43160238Y-59750714D02*
X43160238Y-60417380D01*
X43160238Y-59845952D02*
X43207857Y-59798333D01*
X43303095Y-59750714D01*
X43445952Y-59750714D01*
X43541190Y-59798333D01*
X43588809Y-59893571D01*
X43588809Y-60417380D01*
X43826904Y-60512619D02*
X44588809Y-60512619D01*
X45017380Y-59417380D02*
X45112619Y-59417380D01*
X45207857Y-59465000D01*
X45255476Y-59512619D01*
X45303095Y-59607857D01*
X45350714Y-59798333D01*
X45350714Y-60036428D01*
X45303095Y-60226904D01*
X45255476Y-60322142D01*
X45207857Y-60369761D01*
X45112619Y-60417380D01*
X45017380Y-60417380D01*
X44922142Y-60369761D01*
X44874523Y-60322142D01*
X44826904Y-60226904D01*
X44779285Y-60036428D01*
X44779285Y-59798333D01*
X44826904Y-59607857D01*
X44874523Y-59512619D01*
X44922142Y-59465000D01*
X45017380Y-59417380D01*
X45731666Y-59512619D02*
X45779285Y-59465000D01*
X45874523Y-59417380D01*
X46112619Y-59417380D01*
X46207857Y-59465000D01*
X46255476Y-59512619D01*
X46303095Y-59607857D01*
X46303095Y-59703095D01*
X46255476Y-59845952D01*
X45684047Y-60417380D01*
X46303095Y-60417380D01*
X46636428Y-60417380D02*
X47160238Y-59750714D01*
X46636428Y-59750714D02*
X47160238Y-60417380D01*
X47731666Y-59417380D02*
X47826904Y-59417380D01*
X47922142Y-59465000D01*
X47969761Y-59512619D01*
X48017380Y-59607857D01*
X48065000Y-59798333D01*
X48065000Y-60036428D01*
X48017380Y-60226904D01*
X47969761Y-60322142D01*
X47922142Y-60369761D01*
X47826904Y-60417380D01*
X47731666Y-60417380D01*
X47636428Y-60369761D01*
X47588809Y-60322142D01*
X47541190Y-60226904D01*
X47493571Y-60036428D01*
X47493571Y-59798333D01*
X47541190Y-59607857D01*
X47588809Y-59512619D01*
X47636428Y-59465000D01*
X47731666Y-59417380D01*
X48445952Y-59512619D02*
X48493571Y-59465000D01*
X48588809Y-59417380D01*
X48826904Y-59417380D01*
X48922142Y-59465000D01*
X48969761Y-59512619D01*
X49017380Y-59607857D01*
X49017380Y-59703095D01*
X48969761Y-59845952D01*
X48398333Y-60417380D01*
X49017380Y-60417380D01*
X49207857Y-60512619D02*
X49969761Y-60512619D01*
X50398333Y-59417380D02*
X50588809Y-59417380D01*
X50684047Y-59465000D01*
X50779285Y-59560238D01*
X50826904Y-59750714D01*
X50826904Y-60084047D01*
X50779285Y-60274523D01*
X50684047Y-60369761D01*
X50588809Y-60417380D01*
X50398333Y-60417380D01*
X50303095Y-60369761D01*
X50207857Y-60274523D01*
X50160238Y-60084047D01*
X50160238Y-59750714D01*
X50207857Y-59560238D01*
X50303095Y-59465000D01*
X50398333Y-59417380D01*
X51684047Y-60417380D02*
X51684047Y-59417380D01*
X51684047Y-60369761D02*
X51588809Y-60417380D01*
X51398333Y-60417380D01*
X51303095Y-60369761D01*
X51255476Y-60322142D01*
X51207857Y-60226904D01*
X51207857Y-59941190D01*
X51255476Y-59845952D01*
X51303095Y-59798333D01*
X51398333Y-59750714D01*
X51588809Y-59750714D01*
X51684047Y-59798333D01*
X52588809Y-60417380D02*
X52588809Y-59417380D01*
X52588809Y-60369761D02*
X52493571Y-60417380D01*
X52303095Y-60417380D01*
X52207857Y-60369761D01*
X52160238Y-60322142D01*
X52112619Y-60226904D01*
X52112619Y-59941190D01*
X52160238Y-59845952D01*
X52207857Y-59798333D01*
X52303095Y-59750714D01*
X52493571Y-59750714D01*
X52588809Y-59798333D01*
X52826904Y-60512619D02*
X53588809Y-60512619D01*
X53826904Y-59893571D02*
X54160238Y-59893571D01*
X54303095Y-60417380D02*
X53826904Y-60417380D01*
X53826904Y-59417380D01*
X54303095Y-59417380D01*
X54636428Y-59750714D02*
X54874523Y-60417380D01*
X55112619Y-59750714D01*
X55874523Y-60369761D02*
X55779285Y-60417380D01*
X55588809Y-60417380D01*
X55493571Y-60369761D01*
X55445952Y-60274523D01*
X55445952Y-59893571D01*
X55493571Y-59798333D01*
X55588809Y-59750714D01*
X55779285Y-59750714D01*
X55874523Y-59798333D01*
X55922142Y-59893571D01*
X55922142Y-59988809D01*
X55445952Y-60084047D01*
X56350714Y-59750714D02*
X56350714Y-60417380D01*
X56350714Y-59845952D02*
X56398333Y-59798333D01*
X56493571Y-59750714D01*
X56636428Y-59750714D01*
X56731666Y-59798333D01*
X56779285Y-59893571D01*
X56779285Y-60417380D01*
X48231666Y-54757380D02*
X48231666Y-55471666D01*
X48184047Y-55614523D01*
X48088809Y-55709761D01*
X47945952Y-55757380D01*
X47850714Y-55757380D01*
X49136428Y-55090714D02*
X49136428Y-55757380D01*
X48898333Y-54709761D02*
X48660238Y-55424047D01*
X49279285Y-55424047D01*
G04 #@! TO.C,Q3*
X58380952Y-59428571D02*
X58523809Y-59476190D01*
X58571428Y-59523809D01*
X58619047Y-59619047D01*
X58619047Y-59761904D01*
X58571428Y-59857142D01*
X58523809Y-59904761D01*
X58428571Y-59952380D01*
X58047619Y-59952380D01*
X58047619Y-58952380D01*
X58380952Y-58952380D01*
X58476190Y-59000000D01*
X58523809Y-59047619D01*
X58571428Y-59142857D01*
X58571428Y-59238095D01*
X58523809Y-59333333D01*
X58476190Y-59380952D01*
X58380952Y-59428571D01*
X58047619Y-59428571D01*
X59619047Y-59857142D02*
X59571428Y-59904761D01*
X59428571Y-59952380D01*
X59333333Y-59952380D01*
X59190476Y-59904761D01*
X59095238Y-59809523D01*
X59047619Y-59714285D01*
X59000000Y-59523809D01*
X59000000Y-59380952D01*
X59047619Y-59190476D01*
X59095238Y-59095238D01*
X59190476Y-59000000D01*
X59333333Y-58952380D01*
X59428571Y-58952380D01*
X59571428Y-59000000D01*
X59619047Y-59047619D01*
X60190476Y-59380952D02*
X60095238Y-59333333D01*
X60047619Y-59285714D01*
X60000000Y-59190476D01*
X60000000Y-59142857D01*
X60047619Y-59047619D01*
X60095238Y-59000000D01*
X60190476Y-58952380D01*
X60380952Y-58952380D01*
X60476190Y-59000000D01*
X60523809Y-59047619D01*
X60571428Y-59142857D01*
X60571428Y-59190476D01*
X60523809Y-59285714D01*
X60476190Y-59333333D01*
X60380952Y-59380952D01*
X60190476Y-59380952D01*
X60095238Y-59428571D01*
X60047619Y-59476190D01*
X60000000Y-59571428D01*
X60000000Y-59761904D01*
X60047619Y-59857142D01*
X60095238Y-59904761D01*
X60190476Y-59952380D01*
X60380952Y-59952380D01*
X60476190Y-59904761D01*
X60523809Y-59857142D01*
X60571428Y-59761904D01*
X60571428Y-59571428D01*
X60523809Y-59476190D01*
X60476190Y-59428571D01*
X60380952Y-59380952D01*
X61428571Y-59285714D02*
X61428571Y-59952380D01*
X61190476Y-58904761D02*
X60952380Y-59619047D01*
X61571428Y-59619047D01*
X61857142Y-58952380D02*
X62523809Y-58952380D01*
X62095238Y-59952380D01*
X63238095Y-59428571D02*
X63380952Y-59476190D01*
X63428571Y-59523809D01*
X63476190Y-59619047D01*
X63476190Y-59761904D01*
X63428571Y-59857142D01*
X63380952Y-59904761D01*
X63285714Y-59952380D01*
X62904761Y-59952380D01*
X62904761Y-58952380D01*
X63238095Y-58952380D01*
X63333333Y-59000000D01*
X63380952Y-59047619D01*
X63428571Y-59142857D01*
X63428571Y-59238095D01*
X63380952Y-59333333D01*
X63333333Y-59380952D01*
X63238095Y-59428571D01*
X62904761Y-59428571D01*
X64380952Y-59952380D02*
X63904761Y-59952380D01*
X63904761Y-58952380D01*
X64571428Y-58952380D02*
X65142857Y-58952380D01*
X64857142Y-59952380D02*
X64857142Y-58952380D01*
X66000000Y-59952380D02*
X65428571Y-59952380D01*
X65714285Y-59952380D02*
X65714285Y-58952380D01*
X65619047Y-59095238D01*
X65523809Y-59190476D01*
X65428571Y-59238095D01*
X66952380Y-59000000D02*
X66857142Y-58952380D01*
X66714285Y-58952380D01*
X66571428Y-59000000D01*
X66476190Y-59095238D01*
X66428571Y-59190476D01*
X66380952Y-59380952D01*
X66380952Y-59523809D01*
X66428571Y-59714285D01*
X66476190Y-59809523D01*
X66571428Y-59904761D01*
X66714285Y-59952380D01*
X66809523Y-59952380D01*
X66952380Y-59904761D01*
X67000000Y-59857142D01*
X67000000Y-59523809D01*
X66809523Y-59523809D01*
D13*
X62773809Y-57047619D02*
X62750000Y-57095238D01*
X62702380Y-57142857D01*
X62630952Y-57214285D01*
X62607142Y-57261904D01*
X62607142Y-57309523D01*
X62726190Y-57285714D02*
X62702380Y-57333333D01*
X62654761Y-57380952D01*
X62559523Y-57404761D01*
X62392857Y-57404761D01*
X62297619Y-57380952D01*
X62250000Y-57333333D01*
X62226190Y-57285714D01*
X62226190Y-57190476D01*
X62250000Y-57142857D01*
X62297619Y-57095238D01*
X62392857Y-57071428D01*
X62559523Y-57071428D01*
X62654761Y-57095238D01*
X62702380Y-57142857D01*
X62726190Y-57190476D01*
X62726190Y-57285714D01*
X62226190Y-56904761D02*
X62226190Y-56595238D01*
X62416666Y-56761904D01*
X62416666Y-56690476D01*
X62440476Y-56642857D01*
X62464285Y-56619047D01*
X62511904Y-56595238D01*
X62630952Y-56595238D01*
X62678571Y-56619047D01*
X62702380Y-56642857D01*
X62726190Y-56690476D01*
X62726190Y-56833333D01*
X62702380Y-56880952D01*
X62678571Y-56904761D01*
G04 #@! TO.C,U4*
D11*
X70021428Y-52478571D02*
X70164285Y-52526190D01*
X70211904Y-52573809D01*
X70259523Y-52669047D01*
X70259523Y-52811904D01*
X70211904Y-52907142D01*
X70164285Y-52954761D01*
X70069047Y-53002380D01*
X69688095Y-53002380D01*
X69688095Y-52002380D01*
X70021428Y-52002380D01*
X70116666Y-52050000D01*
X70164285Y-52097619D01*
X70211904Y-52192857D01*
X70211904Y-52288095D01*
X70164285Y-52383333D01*
X70116666Y-52430952D01*
X70021428Y-52478571D01*
X69688095Y-52478571D01*
X70688095Y-53002380D02*
X70688095Y-52002380D01*
X71021428Y-52716666D01*
X71354761Y-52002380D01*
X71354761Y-53002380D01*
X72354761Y-52050000D02*
X72259523Y-52002380D01*
X72116666Y-52002380D01*
X71973809Y-52050000D01*
X71878571Y-52145238D01*
X71830952Y-52240476D01*
X71783333Y-52430952D01*
X71783333Y-52573809D01*
X71830952Y-52764285D01*
X71878571Y-52859523D01*
X71973809Y-52954761D01*
X72116666Y-53002380D01*
X72211904Y-53002380D01*
X72354761Y-52954761D01*
X72402380Y-52907142D01*
X72402380Y-52573809D01*
X72211904Y-52573809D01*
X72783333Y-52097619D02*
X72830952Y-52050000D01*
X72926190Y-52002380D01*
X73164285Y-52002380D01*
X73259523Y-52050000D01*
X73307142Y-52097619D01*
X73354761Y-52192857D01*
X73354761Y-52288095D01*
X73307142Y-52430952D01*
X72735714Y-53002380D01*
X73354761Y-53002380D01*
X74259523Y-52002380D02*
X73783333Y-52002380D01*
X73735714Y-52478571D01*
X73783333Y-52430952D01*
X73878571Y-52383333D01*
X74116666Y-52383333D01*
X74211904Y-52430952D01*
X74259523Y-52478571D01*
X74307142Y-52573809D01*
X74307142Y-52811904D01*
X74259523Y-52907142D01*
X74211904Y-52954761D01*
X74116666Y-53002380D01*
X73878571Y-53002380D01*
X73783333Y-52954761D01*
X73735714Y-52907142D01*
X74926190Y-52002380D02*
X75021428Y-52002380D01*
X75116666Y-52050000D01*
X75164285Y-52097619D01*
X75211904Y-52192857D01*
X75259523Y-52383333D01*
X75259523Y-52621428D01*
X75211904Y-52811904D01*
X75164285Y-52907142D01*
X75116666Y-52954761D01*
X75021428Y-53002380D01*
X74926190Y-53002380D01*
X74830952Y-52954761D01*
X74783333Y-52907142D01*
X74735714Y-52811904D01*
X74688095Y-52621428D01*
X74688095Y-52383333D01*
X74735714Y-52192857D01*
X74783333Y-52097619D01*
X74830952Y-52050000D01*
X74926190Y-52002380D01*
G04 #@! TO.C,Q1*
X24219047Y-52802380D02*
X23885714Y-52326190D01*
X23647619Y-52802380D02*
X23647619Y-51802380D01*
X24028571Y-51802380D01*
X24123809Y-51850000D01*
X24171428Y-51897619D01*
X24219047Y-51992857D01*
X24219047Y-52135714D01*
X24171428Y-52230952D01*
X24123809Y-52278571D01*
X24028571Y-52326190D01*
X23647619Y-52326190D01*
X24647619Y-51802380D02*
X24647619Y-52611904D01*
X24695238Y-52707142D01*
X24742857Y-52754761D01*
X24838095Y-52802380D01*
X25028571Y-52802380D01*
X25123809Y-52754761D01*
X25171428Y-52707142D01*
X25219047Y-52611904D01*
X25219047Y-51802380D01*
X26219047Y-52802380D02*
X25647619Y-52802380D01*
X25933333Y-52802380D02*
X25933333Y-51802380D01*
X25838095Y-51945238D01*
X25742857Y-52040476D01*
X25647619Y-52088095D01*
X27219047Y-52707142D02*
X27171428Y-52754761D01*
X27028571Y-52802380D01*
X26933333Y-52802380D01*
X26790476Y-52754761D01*
X26695238Y-52659523D01*
X26647619Y-52564285D01*
X26600000Y-52373809D01*
X26600000Y-52230952D01*
X26647619Y-52040476D01*
X26695238Y-51945238D01*
X26790476Y-51850000D01*
X26933333Y-51802380D01*
X27028571Y-51802380D01*
X27171428Y-51850000D01*
X27219047Y-51897619D01*
X27838095Y-51802380D02*
X27933333Y-51802380D01*
X28028571Y-51850000D01*
X28076190Y-51897619D01*
X28123809Y-51992857D01*
X28171428Y-52183333D01*
X28171428Y-52421428D01*
X28123809Y-52611904D01*
X28076190Y-52707142D01*
X28028571Y-52754761D01*
X27933333Y-52802380D01*
X27838095Y-52802380D01*
X27742857Y-52754761D01*
X27695238Y-52707142D01*
X27647619Y-52611904D01*
X27600000Y-52421428D01*
X27600000Y-52183333D01*
X27647619Y-51992857D01*
X27695238Y-51897619D01*
X27742857Y-51850000D01*
X27838095Y-51802380D01*
X28790476Y-51802380D02*
X28885714Y-51802380D01*
X28980952Y-51850000D01*
X29028571Y-51897619D01*
X29076190Y-51992857D01*
X29123809Y-52183333D01*
X29123809Y-52421428D01*
X29076190Y-52611904D01*
X29028571Y-52707142D01*
X28980952Y-52754761D01*
X28885714Y-52802380D01*
X28790476Y-52802380D01*
X28695238Y-52754761D01*
X28647619Y-52707142D01*
X28600000Y-52611904D01*
X28552380Y-52421428D01*
X28552380Y-52183333D01*
X28600000Y-51992857D01*
X28647619Y-51897619D01*
X28695238Y-51850000D01*
X28790476Y-51802380D01*
X30076190Y-52802380D02*
X29504761Y-52802380D01*
X29790476Y-52802380D02*
X29790476Y-51802380D01*
X29695238Y-51945238D01*
X29600000Y-52040476D01*
X29504761Y-52088095D01*
X30409523Y-51802380D02*
X31076190Y-51802380D01*
X30409523Y-52802380D01*
X31076190Y-52802380D01*
X31457142Y-52802380D02*
X31457142Y-51802380D01*
X31838095Y-51802380D01*
X31933333Y-51850000D01*
X31980952Y-51897619D01*
X32028571Y-51992857D01*
X32028571Y-52135714D01*
X31980952Y-52230952D01*
X31933333Y-52278571D01*
X31838095Y-52326190D01*
X31457142Y-52326190D01*
X32314285Y-51802380D02*
X32885714Y-51802380D01*
X32600000Y-52802380D02*
X32600000Y-51802380D01*
X33695238Y-52802380D02*
X33219047Y-52802380D01*
X33219047Y-51802380D01*
G04 #@! TO.C,Q2*
X29266666Y-52907142D02*
X29219047Y-52954761D01*
X29076190Y-53002380D01*
X28980952Y-53002380D01*
X28838095Y-52954761D01*
X28742857Y-52859523D01*
X28695238Y-52764285D01*
X28647619Y-52573809D01*
X28647619Y-52430952D01*
X28695238Y-52240476D01*
X28742857Y-52145238D01*
X28838095Y-52050000D01*
X28980952Y-52002380D01*
X29076190Y-52002380D01*
X29219047Y-52050000D01*
X29266666Y-52097619D01*
X29647619Y-52954761D02*
X29790476Y-53002380D01*
X30028571Y-53002380D01*
X30123809Y-52954761D01*
X30171428Y-52907142D01*
X30219047Y-52811904D01*
X30219047Y-52716666D01*
X30171428Y-52621428D01*
X30123809Y-52573809D01*
X30028571Y-52526190D01*
X29838095Y-52478571D01*
X29742857Y-52430952D01*
X29695238Y-52383333D01*
X29647619Y-52288095D01*
X29647619Y-52192857D01*
X29695238Y-52097619D01*
X29742857Y-52050000D01*
X29838095Y-52002380D01*
X30076190Y-52002380D01*
X30219047Y-52050000D01*
X30647619Y-53002380D02*
X30647619Y-52002380D01*
X30885714Y-52002380D01*
X31028571Y-52050000D01*
X31123809Y-52145238D01*
X31171428Y-52240476D01*
X31219047Y-52430952D01*
X31219047Y-52573809D01*
X31171428Y-52764285D01*
X31123809Y-52859523D01*
X31028571Y-52954761D01*
X30885714Y-53002380D01*
X30647619Y-53002380D01*
X31600000Y-52097619D02*
X31647619Y-52050000D01*
X31742857Y-52002380D01*
X31980952Y-52002380D01*
X32076190Y-52050000D01*
X32123809Y-52097619D01*
X32171428Y-52192857D01*
X32171428Y-52288095D01*
X32123809Y-52430952D01*
X31552380Y-53002380D01*
X32171428Y-53002380D01*
X33076190Y-52002380D02*
X32600000Y-52002380D01*
X32552380Y-52478571D01*
X32600000Y-52430952D01*
X32695238Y-52383333D01*
X32933333Y-52383333D01*
X33028571Y-52430952D01*
X33076190Y-52478571D01*
X33123809Y-52573809D01*
X33123809Y-52811904D01*
X33076190Y-52907142D01*
X33028571Y-52954761D01*
X32933333Y-53002380D01*
X32695238Y-53002380D01*
X32600000Y-52954761D01*
X32552380Y-52907142D01*
X33980952Y-52335714D02*
X33980952Y-53002380D01*
X33742857Y-51954761D02*
X33504761Y-52669047D01*
X34123809Y-52669047D01*
X34647619Y-52430952D02*
X34552380Y-52383333D01*
X34504761Y-52335714D01*
X34457142Y-52240476D01*
X34457142Y-52192857D01*
X34504761Y-52097619D01*
X34552380Y-52050000D01*
X34647619Y-52002380D01*
X34838095Y-52002380D01*
X34933333Y-52050000D01*
X34980952Y-52097619D01*
X35028571Y-52192857D01*
X35028571Y-52240476D01*
X34980952Y-52335714D01*
X34933333Y-52383333D01*
X34838095Y-52430952D01*
X34647619Y-52430952D01*
X34552380Y-52478571D01*
X34504761Y-52526190D01*
X34457142Y-52621428D01*
X34457142Y-52811904D01*
X34504761Y-52907142D01*
X34552380Y-52954761D01*
X34647619Y-53002380D01*
X34838095Y-53002380D01*
X34933333Y-52954761D01*
X34980952Y-52907142D01*
X35028571Y-52811904D01*
X35028571Y-52621428D01*
X34980952Y-52526190D01*
X34933333Y-52478571D01*
X34838095Y-52430952D01*
X35980952Y-53002380D02*
X35409523Y-53002380D01*
X35695238Y-53002380D02*
X35695238Y-52002380D01*
X35600000Y-52145238D01*
X35504761Y-52240476D01*
X35409523Y-52288095D01*
X36742857Y-52478571D02*
X36409523Y-52478571D01*
X36409523Y-53002380D02*
X36409523Y-52002380D01*
X36885714Y-52002380D01*
X37695238Y-52335714D02*
X37695238Y-53002380D01*
X37457142Y-51954761D02*
X37219047Y-52669047D01*
X37838095Y-52669047D01*
X38076190Y-52002380D02*
X38647619Y-52002380D01*
X38361904Y-53002380D02*
X38361904Y-52002380D01*
G04 #@! TO.C,U3*
X32061904Y-55752380D02*
X32061904Y-54752380D01*
X32395238Y-55466666D01*
X32728571Y-54752380D01*
X32728571Y-55752380D01*
X33157142Y-55704761D02*
X33300000Y-55752380D01*
X33538095Y-55752380D01*
X33633333Y-55704761D01*
X33680952Y-55657142D01*
X33728571Y-55561904D01*
X33728571Y-55466666D01*
X33680952Y-55371428D01*
X33633333Y-55323809D01*
X33538095Y-55276190D01*
X33347619Y-55228571D01*
X33252380Y-55180952D01*
X33204761Y-55133333D01*
X33157142Y-55038095D01*
X33157142Y-54942857D01*
X33204761Y-54847619D01*
X33252380Y-54800000D01*
X33347619Y-54752380D01*
X33585714Y-54752380D01*
X33728571Y-54800000D01*
X34157142Y-55752380D02*
X34157142Y-54752380D01*
X34538095Y-54752380D01*
X34633333Y-54800000D01*
X34680952Y-54847619D01*
X34728571Y-54942857D01*
X34728571Y-55085714D01*
X34680952Y-55180952D01*
X34633333Y-55228571D01*
X34538095Y-55276190D01*
X34157142Y-55276190D01*
X35585714Y-55085714D02*
X35585714Y-55752380D01*
X35347619Y-54704761D02*
X35109523Y-55419047D01*
X35728571Y-55419047D01*
X36014285Y-54752380D02*
X36633333Y-54752380D01*
X36300000Y-55133333D01*
X36442857Y-55133333D01*
X36538095Y-55180952D01*
X36585714Y-55228571D01*
X36633333Y-55323809D01*
X36633333Y-55561904D01*
X36585714Y-55657142D01*
X36538095Y-55704761D01*
X36442857Y-55752380D01*
X36157142Y-55752380D01*
X36061904Y-55704761D01*
X36014285Y-55657142D01*
X37252380Y-54752380D02*
X37347619Y-54752380D01*
X37442857Y-54800000D01*
X37490476Y-54847619D01*
X37538095Y-54942857D01*
X37585714Y-55133333D01*
X37585714Y-55371428D01*
X37538095Y-55561904D01*
X37490476Y-55657142D01*
X37442857Y-55704761D01*
X37347619Y-55752380D01*
X37252380Y-55752380D01*
X37157142Y-55704761D01*
X37109523Y-55657142D01*
X37061904Y-55561904D01*
X37014285Y-55371428D01*
X37014285Y-55133333D01*
X37061904Y-54942857D01*
X37109523Y-54847619D01*
X37157142Y-54800000D01*
X37252380Y-54752380D01*
X38347619Y-55228571D02*
X38014285Y-55228571D01*
X38014285Y-55752380D02*
X38014285Y-54752380D01*
X38490476Y-54752380D01*
X39442857Y-55752380D02*
X39109523Y-55276190D01*
X38871428Y-55752380D02*
X38871428Y-54752380D01*
X39252380Y-54752380D01*
X39347619Y-54800000D01*
X39395238Y-54847619D01*
X39442857Y-54942857D01*
X39442857Y-55085714D01*
X39395238Y-55180952D01*
X39347619Y-55228571D01*
X39252380Y-55276190D01*
X38871428Y-55276190D01*
X39823809Y-54847619D02*
X39871428Y-54800000D01*
X39966666Y-54752380D01*
X40204761Y-54752380D01*
X40300000Y-54800000D01*
X40347619Y-54847619D01*
X40395238Y-54942857D01*
X40395238Y-55038095D01*
X40347619Y-55180952D01*
X39776190Y-55752380D01*
X40395238Y-55752380D01*
X41300000Y-54752380D02*
X40823809Y-54752380D01*
X40776190Y-55228571D01*
X40823809Y-55180952D01*
X40919047Y-55133333D01*
X41157142Y-55133333D01*
X41252380Y-55180952D01*
X41300000Y-55228571D01*
X41347619Y-55323809D01*
X41347619Y-55561904D01*
X41300000Y-55657142D01*
X41252380Y-55704761D01*
X41157142Y-55752380D01*
X40919047Y-55752380D01*
X40823809Y-55704761D01*
X40776190Y-55657142D01*
X42300000Y-55752380D02*
X41728571Y-55752380D01*
X42014285Y-55752380D02*
X42014285Y-54752380D01*
X41919047Y-54895238D01*
X41823809Y-54990476D01*
X41728571Y-55038095D01*
X42680952Y-54847619D02*
X42728571Y-54800000D01*
X42823809Y-54752380D01*
X43061904Y-54752380D01*
X43157142Y-54800000D01*
X43204761Y-54847619D01*
X43252380Y-54942857D01*
X43252380Y-55038095D01*
X43204761Y-55180952D01*
X42633333Y-55752380D01*
X43252380Y-55752380D01*
X43680952Y-55752380D02*
X43680952Y-54752380D01*
X44728571Y-55752380D02*
X44395238Y-55276190D01*
X44157142Y-55752380D02*
X44157142Y-54752380D01*
X44538095Y-54752380D01*
X44633333Y-54800000D01*
X44680952Y-54847619D01*
X44728571Y-54942857D01*
X44728571Y-55085714D01*
X44680952Y-55180952D01*
X44633333Y-55228571D01*
X44538095Y-55276190D01*
X44157142Y-55276190D01*
X45157142Y-55752380D02*
X45157142Y-54752380D01*
X45157142Y-55228571D02*
X45728571Y-55228571D01*
X45728571Y-55752380D02*
X45728571Y-54752380D01*
X46680952Y-55752380D02*
X46204761Y-55752380D01*
X46204761Y-54752380D01*
X47585714Y-55752380D02*
X47252380Y-55276190D01*
X47014285Y-55752380D02*
X47014285Y-54752380D01*
X47395238Y-54752380D01*
X47490476Y-54800000D01*
X47538095Y-54847619D01*
X47585714Y-54942857D01*
X47585714Y-55085714D01*
X47538095Y-55180952D01*
X47490476Y-55228571D01*
X47395238Y-55276190D01*
X47014285Y-55276190D01*
G04 #@! TD*
M02*
