G04 #@! TF.GenerationSoftware,KiCad,Pcbnew,5.0.1*
G04 #@! TF.CreationDate,2018-12-09T15:50:33-05:00*
G04 #@! TF.ProjectId,controller,636F6E74726F6C6C65722E6B69636164,rev?*
G04 #@! TF.SameCoordinates,Original*
G04 #@! TF.FileFunction,Paste,Top*
G04 #@! TF.FilePolarity,Positive*
%FSLAX46Y46*%
G04 Gerber Fmt 4.6, Leading zero omitted, Abs format (unit mm)*
G04 Created by KiCad (PCBNEW 5.0.1) date Sun 09 Dec 2018 03:50:33 PM EST*
%MOMM*%
%LPD*%
G01*
G04 APERTURE LIST*
%ADD10R,1.047600X0.747600*%
%ADD11R,0.347600X0.447600*%
%ADD12R,0.597600X1.047600*%
%ADD13R,1.407600X0.497600*%
%ADD14R,1.747600X0.647600*%
%ADD15R,0.447600X0.347600*%
%ADD16R,1.097600X1.347600*%
%ADD17R,0.247600X0.447600*%
%ADD18R,0.447600X0.247600*%
%ADD19R,0.747600X1.047600*%
%ADD20R,0.522600X0.097600*%
%ADD21R,0.097600X0.522600*%
%ADD22R,0.447600X0.087600*%
%ADD23R,0.087600X0.447600*%
%ADD24R,1.897600X2.897600*%
%ADD25R,0.587600X0.172600*%
G04 APERTURE END LIST*
D10*
G04 #@! TO.C,R13*
X49930000Y-58440000D03*
X47730000Y-58440000D03*
G04 #@! TD*
G04 #@! TO.C,R3*
X39840000Y-56320000D03*
X37640000Y-56320000D03*
G04 #@! TD*
D11*
G04 #@! TO.C,C10*
X52450000Y-53490000D03*
X52450000Y-54590000D03*
G04 #@! TD*
D12*
G04 #@! TO.C,C18*
X35320000Y-54610000D03*
X35320000Y-52710000D03*
G04 #@! TD*
D13*
G04 #@! TO.C,U5*
X40020000Y-53680000D03*
X40020000Y-52730000D03*
X40020000Y-54630000D03*
X37320000Y-54630000D03*
X37320000Y-53680000D03*
X37320000Y-52730000D03*
G04 #@! TD*
D14*
G04 #@! TO.C,Q1*
X30160000Y-55170000D03*
X27160000Y-56120000D03*
X27160000Y-54220000D03*
G04 #@! TD*
D15*
G04 #@! TO.C,C13*
X79650000Y-55490000D03*
X80750000Y-55490000D03*
G04 #@! TD*
D11*
G04 #@! TO.C,C12*
X83050000Y-55540000D03*
X83050000Y-54440000D03*
G04 #@! TD*
G04 #@! TO.C,C11*
X52450000Y-51490000D03*
X52450000Y-52590000D03*
G04 #@! TD*
D15*
G04 #@! TO.C,C9*
X51280000Y-55050000D03*
X50180000Y-55050000D03*
G04 #@! TD*
D12*
G04 #@! TO.C,C1*
X73650000Y-56190000D03*
X73650000Y-58090000D03*
G04 #@! TD*
G04 #@! TO.C,C2*
X66130000Y-55860000D03*
X66130000Y-57760000D03*
G04 #@! TD*
D16*
G04 #@! TO.C,C17*
X59250000Y-55890000D03*
X59250000Y-58390000D03*
G04 #@! TD*
D17*
G04 #@! TO.C,R5*
X83000000Y-56990000D03*
X82100000Y-56990000D03*
G04 #@! TD*
G04 #@! TO.C,R10*
X34910000Y-57520000D03*
X35810000Y-57520000D03*
G04 #@! TD*
D18*
G04 #@! TO.C,R12*
X77250000Y-52290000D03*
X77250000Y-53190000D03*
G04 #@! TD*
D17*
G04 #@! TO.C,R4*
X68800000Y-54640000D03*
X67900000Y-54640000D03*
G04 #@! TD*
G04 #@! TO.C,R9*
X34920000Y-56530000D03*
X35820000Y-56530000D03*
G04 #@! TD*
D10*
G04 #@! TO.C,R1*
X72050000Y-54340000D03*
X74250000Y-54340000D03*
G04 #@! TD*
G04 #@! TO.C,R8*
X69150000Y-51840000D03*
X66950000Y-51840000D03*
G04 #@! TD*
D19*
G04 #@! TO.C,R11*
X61150000Y-55940000D03*
X61150000Y-58140000D03*
G04 #@! TD*
D14*
G04 #@! TO.C,Q3*
X71650000Y-56840000D03*
X68650000Y-57790000D03*
X68650000Y-55890000D03*
G04 #@! TD*
D20*
G04 #@! TO.C,U4*
X78837500Y-52140000D03*
X78837500Y-52640000D03*
X78837500Y-53140000D03*
X78837500Y-53640000D03*
D21*
X79600000Y-53902500D03*
X80100000Y-53902500D03*
X80600000Y-53902500D03*
D20*
X81362500Y-53640000D03*
X81362500Y-53140000D03*
X81362500Y-52640000D03*
X81362500Y-52140000D03*
D21*
X80600000Y-51877500D03*
X80100000Y-51877500D03*
X79600000Y-51877500D03*
G04 #@! TD*
D22*
G04 #@! TO.C,U3*
X47510000Y-56390000D03*
X47510000Y-55890000D03*
X47510000Y-55390000D03*
X47510000Y-54890000D03*
X47510000Y-54390000D03*
X47510000Y-53890000D03*
X47510000Y-53390000D03*
X47510000Y-52890000D03*
D23*
X46610000Y-52490000D03*
X46110000Y-52490000D03*
X45610000Y-52490000D03*
X45110000Y-52490000D03*
D22*
X44210000Y-52890000D03*
X44210000Y-53390000D03*
X44210000Y-53890000D03*
X44210000Y-54390000D03*
X44210000Y-54890000D03*
X44210000Y-55390000D03*
X44210000Y-55890000D03*
X44210000Y-56390000D03*
D23*
X45110000Y-56790000D03*
X45610000Y-56790000D03*
X46110000Y-56790000D03*
X46610000Y-56790000D03*
D24*
X45860000Y-54640000D03*
D25*
X45860000Y-52952500D03*
X45860000Y-56327500D03*
G04 #@! TD*
M02*
