%FSLAX45Y45*%
G04 Gerber Fmt 4.5, Leading zero omitted, Abs format (unit mm)*
G04 Created by KiCad (PCBNEW 5.0.0) date Mon Sep  3 16:34:51 2018*
%MOMM*%
%LPD*%
G01*
G04 APERTURE LIST*
%ADD10C,0.152400*%
%ADD11C,0.200000*%
%ADD12C,0.300000*%
G04 APERTURE END LIST*
D10*
X2500000Y-6000000D02*
X2500000Y-5000000D01*
X7900000Y-6000000D02*
X2500000Y-6000000D01*
X7900000Y-5000000D02*
X7900000Y-6000000D01*
X2500000Y-5000000D02*
X7900000Y-5000000D01*
D11*
X2798490Y-5573490D02*
X2831510Y-5606510D01*
X2831510Y-5573490D02*
X2798490Y-5606510D01*
X3333490Y-5533490D02*
X3366510Y-5566510D01*
X3366510Y-5533490D02*
X3333490Y-5566510D01*
X3388490Y-5733490D02*
X3421510Y-5766510D01*
X3421510Y-5733490D02*
X3388490Y-5766510D01*
X3433490Y-5213490D02*
X3466510Y-5246510D01*
X3466510Y-5213490D02*
X3433490Y-5246510D01*
X3468490Y-5358490D02*
X3501510Y-5391510D01*
X3501510Y-5358490D02*
X3468490Y-5391510D01*
X3653490Y-5845229D02*
X3686510Y-5878249D01*
X3686510Y-5845229D02*
X3653490Y-5878249D01*
X3659130Y-5591658D02*
X3692150Y-5624678D01*
X3692150Y-5591658D02*
X3659130Y-5624678D01*
X3708490Y-5698490D02*
X3741510Y-5731510D01*
X3741510Y-5698490D02*
X3708490Y-5731510D01*
X3893490Y-5133490D02*
X3926510Y-5166510D01*
X3926510Y-5133490D02*
X3893490Y-5166510D01*
X3893490Y-5353490D02*
X3926510Y-5386510D01*
X3926510Y-5353490D02*
X3893490Y-5386510D01*
X3963490Y-5463490D02*
X3996510Y-5496510D01*
X3996510Y-5463490D02*
X3963490Y-5496510D01*
X3963490Y-5553490D02*
X3996510Y-5586510D01*
X3996510Y-5553490D02*
X3963490Y-5586510D01*
X4056700Y-5182679D02*
X4089720Y-5215699D01*
X4089720Y-5182679D02*
X4056700Y-5215699D01*
X4073490Y-5838490D02*
X4106510Y-5871510D01*
X4106510Y-5838490D02*
X4073490Y-5871510D01*
X4208653Y-5231242D02*
X4241673Y-5264262D01*
X4241673Y-5231242D02*
X4208653Y-5264262D01*
X4274386Y-5530149D02*
X4307406Y-5563169D01*
X4307406Y-5530149D02*
X4274386Y-5563169D01*
X4463490Y-5458490D02*
X4496510Y-5491510D01*
X4496510Y-5458490D02*
X4463490Y-5491510D01*
X4763490Y-5478490D02*
X4796510Y-5511510D01*
X4796510Y-5478490D02*
X4763490Y-5511510D01*
X4848250Y-5527450D02*
X4881270Y-5560470D01*
X4881270Y-5527450D02*
X4848250Y-5560470D01*
X4938490Y-5513490D02*
X4971510Y-5546510D01*
X4971510Y-5513490D02*
X4938490Y-5546510D01*
X5143490Y-5838490D02*
X5176510Y-5871510D01*
X5176510Y-5838490D02*
X5143490Y-5871510D01*
X5533802Y-5403179D02*
X5566822Y-5436199D01*
X5566822Y-5403179D02*
X5533802Y-5436199D01*
X5599242Y-5770701D02*
X5632262Y-5803721D01*
X5632262Y-5770701D02*
X5599242Y-5803721D01*
X5618490Y-5268490D02*
X5651510Y-5301510D01*
X5651510Y-5268490D02*
X5618490Y-5301510D01*
X5618490Y-5418490D02*
X5651510Y-5451510D01*
X5651510Y-5418490D02*
X5618490Y-5451510D01*
X5633490Y-5168490D02*
X5666510Y-5201510D01*
X5666510Y-5168490D02*
X5633490Y-5201510D01*
X5908490Y-5108490D02*
X5941510Y-5141510D01*
X5941510Y-5108490D02*
X5908490Y-5141510D01*
X6493490Y-5168891D02*
X6526510Y-5201911D01*
X6526510Y-5168891D02*
X6493490Y-5201911D01*
X6579242Y-5570701D02*
X6612262Y-5603721D01*
X6612262Y-5570701D02*
X6579242Y-5603721D01*
X6579242Y-5820701D02*
X6612262Y-5853721D01*
X6612262Y-5820701D02*
X6579242Y-5853721D01*
X6658490Y-5128490D02*
X6691510Y-5161510D01*
X6691510Y-5128490D02*
X6658490Y-5161510D01*
X6858490Y-5323490D02*
X6891510Y-5356510D01*
X6891510Y-5323490D02*
X6858490Y-5356510D01*
X7243490Y-5283490D02*
X7276510Y-5316510D01*
X7276510Y-5283490D02*
X7243490Y-5316510D01*
X7393490Y-5708490D02*
X7426510Y-5741510D01*
X7426510Y-5708490D02*
X7393490Y-5741510D01*
X7453490Y-5323490D02*
X7486510Y-5356510D01*
X7486510Y-5323490D02*
X7453490Y-5356510D01*
X7493490Y-5158490D02*
X7526510Y-5191510D01*
X7526510Y-5158490D02*
X7493490Y-5191510D01*
X4645000Y-5210000D02*
G75*
G03X4645000Y-5210000I-25000J0D01*
G01*
X4645000Y-5400000D02*
G75*
G03X4645000Y-5400000I-25000J0D01*
G01*
X6798000Y-5765000D02*
X6798000Y-5835000D01*
X6763000Y-5800000D02*
X6833000Y-5800000D01*
X6925000Y-5765000D02*
X6925000Y-5835000D01*
X6890000Y-5800000D02*
X6960000Y-5800000D01*
X4793000Y-5665000D02*
X4793000Y-5735000D01*
X4758000Y-5700000D02*
X4828000Y-5700000D01*
X4793000Y-5792000D02*
X4793000Y-5862000D01*
X4758000Y-5827000D02*
X4828000Y-5827000D01*
X4920000Y-5665000D02*
X4920000Y-5735000D01*
X4885000Y-5700000D02*
X4955000Y-5700000D01*
X4920000Y-5792000D02*
X4920000Y-5862000D01*
X4885000Y-5827000D02*
X4955000Y-5827000D01*
X2960000Y-5795000D02*
X2960000Y-5865000D01*
X2925000Y-5830000D02*
X2995000Y-5830000D01*
X3087000Y-5795000D02*
X3087000Y-5865000D01*
X3052000Y-5830000D02*
X3122000Y-5830000D01*
X3214000Y-5795000D02*
X3214000Y-5865000D01*
X3179000Y-5830000D02*
X3249000Y-5830000D01*
X2900000Y-5155000D02*
X2900000Y-5225000D01*
X2865000Y-5190000D02*
X2935000Y-5190000D01*
X3027000Y-5155000D02*
X3027000Y-5225000D01*
X2992000Y-5190000D02*
X3062000Y-5190000D01*
X4495356Y-5835356D02*
X4495356Y-5764644D01*
X4424644Y-5764644D01*
X4424644Y-5835356D01*
X4495356Y-5835356D01*
D12*
X2778808Y-6473334D02*
X2778808Y-6173334D01*
X2850237Y-6173334D01*
X2893094Y-6187620D01*
X2921666Y-6216191D01*
X2935951Y-6244763D01*
X2950237Y-6301906D01*
X2950237Y-6344763D01*
X2935951Y-6401906D01*
X2921666Y-6430477D01*
X2893094Y-6459049D01*
X2850237Y-6473334D01*
X2778808Y-6473334D01*
X3078808Y-6473334D02*
X3078808Y-6273334D01*
X3078808Y-6330477D02*
X3093094Y-6301906D01*
X3107380Y-6287620D01*
X3135951Y-6273334D01*
X3164523Y-6273334D01*
X3264523Y-6473334D02*
X3264523Y-6273334D01*
X3264523Y-6173334D02*
X3250237Y-6187620D01*
X3264523Y-6201906D01*
X3278808Y-6187620D01*
X3264523Y-6173334D01*
X3264523Y-6201906D01*
X3450237Y-6473334D02*
X3421666Y-6459049D01*
X3407380Y-6430477D01*
X3407380Y-6173334D01*
X3607380Y-6473334D02*
X3578808Y-6459049D01*
X3564523Y-6430477D01*
X3564523Y-6173334D01*
X3950237Y-6473334D02*
X3950237Y-6173334D01*
X4050237Y-6387620D01*
X4150237Y-6173334D01*
X4150237Y-6473334D01*
X4421666Y-6473334D02*
X4421666Y-6316191D01*
X4407380Y-6287620D01*
X4378808Y-6273334D01*
X4321666Y-6273334D01*
X4293094Y-6287620D01*
X4421666Y-6459049D02*
X4393094Y-6473334D01*
X4321666Y-6473334D01*
X4293094Y-6459049D01*
X4278808Y-6430477D01*
X4278808Y-6401906D01*
X4293094Y-6373334D01*
X4321666Y-6359049D01*
X4393094Y-6359049D01*
X4421666Y-6344763D01*
X4564523Y-6273334D02*
X4564523Y-6573334D01*
X4564523Y-6287620D02*
X4593094Y-6273334D01*
X4650237Y-6273334D01*
X4678808Y-6287620D01*
X4693094Y-6301906D01*
X4707380Y-6330477D01*
X4707380Y-6416191D01*
X4693094Y-6444763D01*
X4678808Y-6459049D01*
X4650237Y-6473334D01*
X4593094Y-6473334D01*
X4564523Y-6459049D01*
X4835951Y-6444763D02*
X4850237Y-6459049D01*
X4835951Y-6473334D01*
X4821666Y-6459049D01*
X4835951Y-6444763D01*
X4835951Y-6473334D01*
X4835951Y-6287620D02*
X4850237Y-6301906D01*
X4835951Y-6316191D01*
X4821666Y-6301906D01*
X4835951Y-6287620D01*
X4835951Y-6316191D01*
X2459360Y-6951110D02*
X2492380Y-6984130D01*
X2492380Y-6951110D02*
X2459360Y-6984130D01*
X2835951Y-6803334D02*
X2864523Y-6803334D01*
X2893094Y-6817620D01*
X2907380Y-6831906D01*
X2921666Y-6860477D01*
X2935951Y-6917620D01*
X2935951Y-6989049D01*
X2921666Y-7046191D01*
X2907380Y-7074763D01*
X2893094Y-7089049D01*
X2864523Y-7103334D01*
X2835951Y-7103334D01*
X2807380Y-7089049D01*
X2793094Y-7074763D01*
X2778808Y-7046191D01*
X2764523Y-6989049D01*
X2764523Y-6917620D01*
X2778808Y-6860477D01*
X2793094Y-6831906D01*
X2807380Y-6817620D01*
X2835951Y-6803334D01*
X3064523Y-7074763D02*
X3078808Y-7089049D01*
X3064523Y-7103334D01*
X3050237Y-7089049D01*
X3064523Y-7074763D01*
X3064523Y-7103334D01*
X3178808Y-6803334D02*
X3364523Y-6803334D01*
X3264523Y-6917620D01*
X3307380Y-6917620D01*
X3335951Y-6931906D01*
X3350237Y-6946191D01*
X3364523Y-6974763D01*
X3364523Y-7046191D01*
X3350237Y-7074763D01*
X3335951Y-7089049D01*
X3307380Y-7103334D01*
X3221666Y-7103334D01*
X3193094Y-7089049D01*
X3178808Y-7074763D01*
X3464523Y-6803334D02*
X3650237Y-6803334D01*
X3550237Y-6917620D01*
X3593094Y-6917620D01*
X3621666Y-6931906D01*
X3635951Y-6946191D01*
X3650237Y-6974763D01*
X3650237Y-7046191D01*
X3635951Y-7074763D01*
X3621666Y-7089049D01*
X3593094Y-7103334D01*
X3507380Y-7103334D01*
X3478808Y-7089049D01*
X3464523Y-7074763D01*
X3778808Y-7103334D02*
X3778808Y-6903334D01*
X3778808Y-6931906D02*
X3793094Y-6917620D01*
X3821666Y-6903334D01*
X3864523Y-6903334D01*
X3893094Y-6917620D01*
X3907380Y-6946191D01*
X3907380Y-7103334D01*
X3907380Y-6946191D02*
X3921666Y-6917620D01*
X3950237Y-6903334D01*
X3993094Y-6903334D01*
X4021666Y-6917620D01*
X4035951Y-6946191D01*
X4035951Y-7103334D01*
X4178808Y-7103334D02*
X4178808Y-6903334D01*
X4178808Y-6931906D02*
X4193094Y-6917620D01*
X4221666Y-6903334D01*
X4264523Y-6903334D01*
X4293094Y-6917620D01*
X4307380Y-6946191D01*
X4307380Y-7103334D01*
X4307380Y-6946191D02*
X4321666Y-6917620D01*
X4350237Y-6903334D01*
X4393094Y-6903334D01*
X4421666Y-6917620D01*
X4435951Y-6946191D01*
X4435951Y-7103334D01*
X5021666Y-6789049D02*
X4764523Y-7174763D01*
X5407380Y-6803334D02*
X5435951Y-6803334D01*
X5464523Y-6817620D01*
X5478808Y-6831906D01*
X5493094Y-6860477D01*
X5507380Y-6917620D01*
X5507380Y-6989049D01*
X5493094Y-7046191D01*
X5478808Y-7074763D01*
X5464523Y-7089049D01*
X5435951Y-7103334D01*
X5407380Y-7103334D01*
X5378808Y-7089049D01*
X5364523Y-7074763D01*
X5350237Y-7046191D01*
X5335951Y-6989049D01*
X5335951Y-6917620D01*
X5350237Y-6860477D01*
X5364523Y-6831906D01*
X5378808Y-6817620D01*
X5407380Y-6803334D01*
X5635951Y-7074763D02*
X5650237Y-7089049D01*
X5635951Y-7103334D01*
X5621666Y-7089049D01*
X5635951Y-7074763D01*
X5635951Y-7103334D01*
X5835951Y-6803334D02*
X5864523Y-6803334D01*
X5893094Y-6817620D01*
X5907380Y-6831906D01*
X5921666Y-6860477D01*
X5935951Y-6917620D01*
X5935951Y-6989049D01*
X5921666Y-7046191D01*
X5907380Y-7074763D01*
X5893094Y-7089049D01*
X5864523Y-7103334D01*
X5835951Y-7103334D01*
X5807380Y-7089049D01*
X5793094Y-7074763D01*
X5778808Y-7046191D01*
X5764523Y-6989049D01*
X5764523Y-6917620D01*
X5778808Y-6860477D01*
X5793094Y-6831906D01*
X5807380Y-6817620D01*
X5835951Y-6803334D01*
X6221666Y-7103334D02*
X6050237Y-7103334D01*
X6135951Y-7103334D02*
X6135951Y-6803334D01*
X6107380Y-6846191D01*
X6078808Y-6874763D01*
X6050237Y-6889049D01*
X6321666Y-6803334D02*
X6507380Y-6803334D01*
X6407380Y-6917620D01*
X6450237Y-6917620D01*
X6478808Y-6931906D01*
X6493094Y-6946191D01*
X6507380Y-6974763D01*
X6507380Y-7046191D01*
X6493094Y-7074763D01*
X6478808Y-7089049D01*
X6450237Y-7103334D01*
X6364523Y-7103334D01*
X6335951Y-7089049D01*
X6321666Y-7074763D01*
X6621666Y-6803334D02*
X6621666Y-6860477D01*
X6735951Y-6803334D02*
X6735951Y-6860477D01*
X7178808Y-7217620D02*
X7164523Y-7203334D01*
X7135951Y-7160477D01*
X7121666Y-7131906D01*
X7107380Y-7089049D01*
X7093094Y-7017620D01*
X7093094Y-6960477D01*
X7107380Y-6889049D01*
X7121666Y-6846191D01*
X7135951Y-6817620D01*
X7164523Y-6774763D01*
X7178808Y-6760477D01*
X7264523Y-6803334D02*
X7450237Y-6803334D01*
X7350237Y-6917620D01*
X7393094Y-6917620D01*
X7421666Y-6931906D01*
X7435951Y-6946191D01*
X7450237Y-6974763D01*
X7450237Y-7046191D01*
X7435951Y-7074763D01*
X7421666Y-7089049D01*
X7393094Y-7103334D01*
X7307380Y-7103334D01*
X7278808Y-7089049D01*
X7264523Y-7074763D01*
X7707380Y-6803334D02*
X7650237Y-6803334D01*
X7621666Y-6817620D01*
X7607380Y-6831906D01*
X7578808Y-6874763D01*
X7564523Y-6931906D01*
X7564523Y-7046191D01*
X7578808Y-7074763D01*
X7593094Y-7089049D01*
X7621666Y-7103334D01*
X7678808Y-7103334D01*
X7707380Y-7089049D01*
X7721666Y-7074763D01*
X7735951Y-7046191D01*
X7735951Y-6974763D01*
X7721666Y-6946191D01*
X7707380Y-6931906D01*
X7678808Y-6917620D01*
X7621666Y-6917620D01*
X7593094Y-6931906D01*
X7578808Y-6946191D01*
X7564523Y-6974763D01*
X8093094Y-7103334D02*
X8093094Y-6803334D01*
X8221666Y-7103334D02*
X8221666Y-6946191D01*
X8207380Y-6917620D01*
X8178808Y-6903334D01*
X8135951Y-6903334D01*
X8107380Y-6917620D01*
X8093094Y-6931906D01*
X8407380Y-7103334D02*
X8378808Y-7089049D01*
X8364523Y-7074763D01*
X8350237Y-7046191D01*
X8350237Y-6960477D01*
X8364523Y-6931906D01*
X8378808Y-6917620D01*
X8407380Y-6903334D01*
X8450237Y-6903334D01*
X8478808Y-6917620D01*
X8493094Y-6931906D01*
X8507380Y-6960477D01*
X8507380Y-7046191D01*
X8493094Y-7074763D01*
X8478808Y-7089049D01*
X8450237Y-7103334D01*
X8407380Y-7103334D01*
X8678808Y-7103334D02*
X8650237Y-7089049D01*
X8635951Y-7060477D01*
X8635951Y-6803334D01*
X8907380Y-7089049D02*
X8878808Y-7103334D01*
X8821666Y-7103334D01*
X8793094Y-7089049D01*
X8778808Y-7060477D01*
X8778808Y-6946191D01*
X8793094Y-6917620D01*
X8821666Y-6903334D01*
X8878808Y-6903334D01*
X8907380Y-6917620D01*
X8921666Y-6946191D01*
X8921666Y-6974763D01*
X8778808Y-7003334D01*
X9035951Y-7089049D02*
X9064523Y-7103334D01*
X9121666Y-7103334D01*
X9150237Y-7089049D01*
X9164523Y-7060477D01*
X9164523Y-7046191D01*
X9150237Y-7017620D01*
X9121666Y-7003334D01*
X9078808Y-7003334D01*
X9050237Y-6989049D01*
X9035951Y-6960477D01*
X9035951Y-6946191D01*
X9050237Y-6917620D01*
X9078808Y-6903334D01*
X9121666Y-6903334D01*
X9150237Y-6917620D01*
X9264523Y-7217620D02*
X9278808Y-7203334D01*
X9307380Y-7160477D01*
X9321666Y-7131906D01*
X9335951Y-7089049D01*
X9350237Y-7017620D01*
X9350237Y-6960477D01*
X9335951Y-6889049D01*
X9321666Y-6846191D01*
X9307380Y-6817620D01*
X9278808Y-6774763D01*
X9264523Y-6760477D01*
X2492380Y-7363620D02*
G75*
G03X2492380Y-7363620I-25000J0D01*
G01*
X2835951Y-7199334D02*
X2864523Y-7199334D01*
X2893094Y-7213620D01*
X2907380Y-7227906D01*
X2921666Y-7256477D01*
X2935951Y-7313620D01*
X2935951Y-7385049D01*
X2921666Y-7442191D01*
X2907380Y-7470763D01*
X2893094Y-7485049D01*
X2864523Y-7499334D01*
X2835951Y-7499334D01*
X2807380Y-7485049D01*
X2793094Y-7470763D01*
X2778808Y-7442191D01*
X2764523Y-7385049D01*
X2764523Y-7313620D01*
X2778808Y-7256477D01*
X2793094Y-7227906D01*
X2807380Y-7213620D01*
X2835951Y-7199334D01*
X3064523Y-7470763D02*
X3078808Y-7485049D01*
X3064523Y-7499334D01*
X3050237Y-7485049D01*
X3064523Y-7470763D01*
X3064523Y-7499334D01*
X3350237Y-7199334D02*
X3207380Y-7199334D01*
X3193094Y-7342191D01*
X3207380Y-7327906D01*
X3235951Y-7313620D01*
X3307380Y-7313620D01*
X3335951Y-7327906D01*
X3350237Y-7342191D01*
X3364523Y-7370763D01*
X3364523Y-7442191D01*
X3350237Y-7470763D01*
X3335951Y-7485049D01*
X3307380Y-7499334D01*
X3235951Y-7499334D01*
X3207380Y-7485049D01*
X3193094Y-7470763D01*
X3550237Y-7199334D02*
X3578808Y-7199334D01*
X3607380Y-7213620D01*
X3621666Y-7227906D01*
X3635951Y-7256477D01*
X3650237Y-7313620D01*
X3650237Y-7385049D01*
X3635951Y-7442191D01*
X3621666Y-7470763D01*
X3607380Y-7485049D01*
X3578808Y-7499334D01*
X3550237Y-7499334D01*
X3521666Y-7485049D01*
X3507380Y-7470763D01*
X3493094Y-7442191D01*
X3478808Y-7385049D01*
X3478808Y-7313620D01*
X3493094Y-7256477D01*
X3507380Y-7227906D01*
X3521666Y-7213620D01*
X3550237Y-7199334D01*
X3778808Y-7499334D02*
X3778808Y-7299334D01*
X3778808Y-7327906D02*
X3793094Y-7313620D01*
X3821666Y-7299334D01*
X3864523Y-7299334D01*
X3893094Y-7313620D01*
X3907380Y-7342191D01*
X3907380Y-7499334D01*
X3907380Y-7342191D02*
X3921666Y-7313620D01*
X3950237Y-7299334D01*
X3993094Y-7299334D01*
X4021666Y-7313620D01*
X4035951Y-7342191D01*
X4035951Y-7499334D01*
X4178808Y-7499334D02*
X4178808Y-7299334D01*
X4178808Y-7327906D02*
X4193094Y-7313620D01*
X4221666Y-7299334D01*
X4264523Y-7299334D01*
X4293094Y-7313620D01*
X4307380Y-7342191D01*
X4307380Y-7499334D01*
X4307380Y-7342191D02*
X4321666Y-7313620D01*
X4350237Y-7299334D01*
X4393094Y-7299334D01*
X4421666Y-7313620D01*
X4435951Y-7342191D01*
X4435951Y-7499334D01*
X5021666Y-7185049D02*
X4764523Y-7570763D01*
X5407380Y-7199334D02*
X5435951Y-7199334D01*
X5464523Y-7213620D01*
X5478808Y-7227906D01*
X5493094Y-7256477D01*
X5507380Y-7313620D01*
X5507380Y-7385049D01*
X5493094Y-7442191D01*
X5478808Y-7470763D01*
X5464523Y-7485049D01*
X5435951Y-7499334D01*
X5407380Y-7499334D01*
X5378808Y-7485049D01*
X5364523Y-7470763D01*
X5350237Y-7442191D01*
X5335951Y-7385049D01*
X5335951Y-7313620D01*
X5350237Y-7256477D01*
X5364523Y-7227906D01*
X5378808Y-7213620D01*
X5407380Y-7199334D01*
X5635951Y-7470763D02*
X5650237Y-7485049D01*
X5635951Y-7499334D01*
X5621666Y-7485049D01*
X5635951Y-7470763D01*
X5635951Y-7499334D01*
X5835951Y-7199334D02*
X5864523Y-7199334D01*
X5893094Y-7213620D01*
X5907380Y-7227906D01*
X5921666Y-7256477D01*
X5935951Y-7313620D01*
X5935951Y-7385049D01*
X5921666Y-7442191D01*
X5907380Y-7470763D01*
X5893094Y-7485049D01*
X5864523Y-7499334D01*
X5835951Y-7499334D01*
X5807380Y-7485049D01*
X5793094Y-7470763D01*
X5778808Y-7442191D01*
X5764523Y-7385049D01*
X5764523Y-7313620D01*
X5778808Y-7256477D01*
X5793094Y-7227906D01*
X5807380Y-7213620D01*
X5835951Y-7199334D01*
X6050237Y-7227906D02*
X6064523Y-7213620D01*
X6093094Y-7199334D01*
X6164523Y-7199334D01*
X6193094Y-7213620D01*
X6207380Y-7227906D01*
X6221666Y-7256477D01*
X6221666Y-7285049D01*
X6207380Y-7327906D01*
X6035951Y-7499334D01*
X6221666Y-7499334D01*
X6407380Y-7199334D02*
X6435951Y-7199334D01*
X6464523Y-7213620D01*
X6478808Y-7227906D01*
X6493094Y-7256477D01*
X6507380Y-7313620D01*
X6507380Y-7385049D01*
X6493094Y-7442191D01*
X6478808Y-7470763D01*
X6464523Y-7485049D01*
X6435951Y-7499334D01*
X6407380Y-7499334D01*
X6378808Y-7485049D01*
X6364523Y-7470763D01*
X6350237Y-7442191D01*
X6335951Y-7385049D01*
X6335951Y-7313620D01*
X6350237Y-7256477D01*
X6364523Y-7227906D01*
X6378808Y-7213620D01*
X6407380Y-7199334D01*
X6621666Y-7199334D02*
X6621666Y-7256477D01*
X6735951Y-7199334D02*
X6735951Y-7256477D01*
X7178808Y-7613620D02*
X7164523Y-7599334D01*
X7135951Y-7556477D01*
X7121666Y-7527906D01*
X7107380Y-7485049D01*
X7093094Y-7413620D01*
X7093094Y-7356477D01*
X7107380Y-7285049D01*
X7121666Y-7242191D01*
X7135951Y-7213620D01*
X7164523Y-7170763D01*
X7178808Y-7156477D01*
X7278808Y-7227906D02*
X7293094Y-7213620D01*
X7321666Y-7199334D01*
X7393094Y-7199334D01*
X7421666Y-7213620D01*
X7435951Y-7227906D01*
X7450237Y-7256477D01*
X7450237Y-7285049D01*
X7435951Y-7327906D01*
X7264523Y-7499334D01*
X7450237Y-7499334D01*
X7807380Y-7499334D02*
X7807380Y-7199334D01*
X7935951Y-7499334D02*
X7935951Y-7342191D01*
X7921666Y-7313620D01*
X7893094Y-7299334D01*
X7850237Y-7299334D01*
X7821666Y-7313620D01*
X7807380Y-7327906D01*
X8121666Y-7499334D02*
X8093094Y-7485049D01*
X8078808Y-7470763D01*
X8064523Y-7442191D01*
X8064523Y-7356477D01*
X8078808Y-7327906D01*
X8093094Y-7313620D01*
X8121666Y-7299334D01*
X8164523Y-7299334D01*
X8193094Y-7313620D01*
X8207380Y-7327906D01*
X8221666Y-7356477D01*
X8221666Y-7442191D01*
X8207380Y-7470763D01*
X8193094Y-7485049D01*
X8164523Y-7499334D01*
X8121666Y-7499334D01*
X8393094Y-7499334D02*
X8364523Y-7485049D01*
X8350237Y-7456477D01*
X8350237Y-7199334D01*
X8621666Y-7485049D02*
X8593094Y-7499334D01*
X8535951Y-7499334D01*
X8507380Y-7485049D01*
X8493094Y-7456477D01*
X8493094Y-7342191D01*
X8507380Y-7313620D01*
X8535951Y-7299334D01*
X8593094Y-7299334D01*
X8621666Y-7313620D01*
X8635951Y-7342191D01*
X8635951Y-7370763D01*
X8493094Y-7399334D01*
X8750237Y-7485049D02*
X8778808Y-7499334D01*
X8835951Y-7499334D01*
X8864523Y-7485049D01*
X8878808Y-7456477D01*
X8878808Y-7442191D01*
X8864523Y-7413620D01*
X8835951Y-7399334D01*
X8793094Y-7399334D01*
X8764523Y-7385049D01*
X8750237Y-7356477D01*
X8750237Y-7342191D01*
X8764523Y-7313620D01*
X8793094Y-7299334D01*
X8835951Y-7299334D01*
X8864523Y-7313620D01*
X8978808Y-7613620D02*
X8993094Y-7599334D01*
X9021666Y-7556477D01*
X9035951Y-7527906D01*
X9050237Y-7485049D01*
X9064523Y-7413620D01*
X9064523Y-7356477D01*
X9050237Y-7285049D01*
X9035951Y-7242191D01*
X9021666Y-7213620D01*
X8993094Y-7170763D01*
X8978808Y-7156477D01*
X2457380Y-7724620D02*
X2457380Y-7794620D01*
X2422380Y-7759620D02*
X2492380Y-7759620D01*
X2835951Y-7595334D02*
X2864523Y-7595334D01*
X2893094Y-7609620D01*
X2907380Y-7623906D01*
X2921666Y-7652477D01*
X2935951Y-7709620D01*
X2935951Y-7781049D01*
X2921666Y-7838191D01*
X2907380Y-7866763D01*
X2893094Y-7881049D01*
X2864523Y-7895334D01*
X2835951Y-7895334D01*
X2807380Y-7881049D01*
X2793094Y-7866763D01*
X2778808Y-7838191D01*
X2764523Y-7781049D01*
X2764523Y-7709620D01*
X2778808Y-7652477D01*
X2793094Y-7623906D01*
X2807380Y-7609620D01*
X2835951Y-7595334D01*
X3064523Y-7866763D02*
X3078808Y-7881049D01*
X3064523Y-7895334D01*
X3050237Y-7881049D01*
X3064523Y-7866763D01*
X3064523Y-7895334D01*
X3178808Y-7595334D02*
X3378808Y-7595334D01*
X3250237Y-7895334D01*
X3550237Y-7595334D02*
X3578808Y-7595334D01*
X3607380Y-7609620D01*
X3621666Y-7623906D01*
X3635951Y-7652477D01*
X3650237Y-7709620D01*
X3650237Y-7781049D01*
X3635951Y-7838191D01*
X3621666Y-7866763D01*
X3607380Y-7881049D01*
X3578808Y-7895334D01*
X3550237Y-7895334D01*
X3521666Y-7881049D01*
X3507380Y-7866763D01*
X3493094Y-7838191D01*
X3478808Y-7781049D01*
X3478808Y-7709620D01*
X3493094Y-7652477D01*
X3507380Y-7623906D01*
X3521666Y-7609620D01*
X3550237Y-7595334D01*
X3778808Y-7895334D02*
X3778808Y-7695334D01*
X3778808Y-7723906D02*
X3793094Y-7709620D01*
X3821666Y-7695334D01*
X3864523Y-7695334D01*
X3893094Y-7709620D01*
X3907380Y-7738191D01*
X3907380Y-7895334D01*
X3907380Y-7738191D02*
X3921666Y-7709620D01*
X3950237Y-7695334D01*
X3993094Y-7695334D01*
X4021666Y-7709620D01*
X4035951Y-7738191D01*
X4035951Y-7895334D01*
X4178808Y-7895334D02*
X4178808Y-7695334D01*
X4178808Y-7723906D02*
X4193094Y-7709620D01*
X4221666Y-7695334D01*
X4264523Y-7695334D01*
X4293094Y-7709620D01*
X4307380Y-7738191D01*
X4307380Y-7895334D01*
X4307380Y-7738191D02*
X4321666Y-7709620D01*
X4350237Y-7695334D01*
X4393094Y-7695334D01*
X4421666Y-7709620D01*
X4435951Y-7738191D01*
X4435951Y-7895334D01*
X5021666Y-7581049D02*
X4764523Y-7966763D01*
X5407380Y-7595334D02*
X5435951Y-7595334D01*
X5464523Y-7609620D01*
X5478808Y-7623906D01*
X5493094Y-7652477D01*
X5507380Y-7709620D01*
X5507380Y-7781049D01*
X5493094Y-7838191D01*
X5478808Y-7866763D01*
X5464523Y-7881049D01*
X5435951Y-7895334D01*
X5407380Y-7895334D01*
X5378808Y-7881049D01*
X5364523Y-7866763D01*
X5350237Y-7838191D01*
X5335951Y-7781049D01*
X5335951Y-7709620D01*
X5350237Y-7652477D01*
X5364523Y-7623906D01*
X5378808Y-7609620D01*
X5407380Y-7595334D01*
X5635951Y-7866763D02*
X5650237Y-7881049D01*
X5635951Y-7895334D01*
X5621666Y-7881049D01*
X5635951Y-7866763D01*
X5635951Y-7895334D01*
X5835951Y-7595334D02*
X5864523Y-7595334D01*
X5893094Y-7609620D01*
X5907380Y-7623906D01*
X5921666Y-7652477D01*
X5935951Y-7709620D01*
X5935951Y-7781049D01*
X5921666Y-7838191D01*
X5907380Y-7866763D01*
X5893094Y-7881049D01*
X5864523Y-7895334D01*
X5835951Y-7895334D01*
X5807380Y-7881049D01*
X5793094Y-7866763D01*
X5778808Y-7838191D01*
X5764523Y-7781049D01*
X5764523Y-7709620D01*
X5778808Y-7652477D01*
X5793094Y-7623906D01*
X5807380Y-7609620D01*
X5835951Y-7595334D01*
X6050237Y-7623906D02*
X6064523Y-7609620D01*
X6093094Y-7595334D01*
X6164523Y-7595334D01*
X6193094Y-7609620D01*
X6207380Y-7623906D01*
X6221666Y-7652477D01*
X6221666Y-7681049D01*
X6207380Y-7723906D01*
X6035951Y-7895334D01*
X6221666Y-7895334D01*
X6393094Y-7723906D02*
X6364523Y-7709620D01*
X6350237Y-7695334D01*
X6335951Y-7666763D01*
X6335951Y-7652477D01*
X6350237Y-7623906D01*
X6364523Y-7609620D01*
X6393094Y-7595334D01*
X6450237Y-7595334D01*
X6478808Y-7609620D01*
X6493094Y-7623906D01*
X6507380Y-7652477D01*
X6507380Y-7666763D01*
X6493094Y-7695334D01*
X6478808Y-7709620D01*
X6450237Y-7723906D01*
X6393094Y-7723906D01*
X6364523Y-7738191D01*
X6350237Y-7752477D01*
X6335951Y-7781049D01*
X6335951Y-7838191D01*
X6350237Y-7866763D01*
X6364523Y-7881049D01*
X6393094Y-7895334D01*
X6450237Y-7895334D01*
X6478808Y-7881049D01*
X6493094Y-7866763D01*
X6507380Y-7838191D01*
X6507380Y-7781049D01*
X6493094Y-7752477D01*
X6478808Y-7738191D01*
X6450237Y-7723906D01*
X6621666Y-7595334D02*
X6621666Y-7652477D01*
X6735951Y-7595334D02*
X6735951Y-7652477D01*
X7178808Y-8009620D02*
X7164523Y-7995334D01*
X7135951Y-7952477D01*
X7121666Y-7923906D01*
X7107380Y-7881049D01*
X7093094Y-7809620D01*
X7093094Y-7752477D01*
X7107380Y-7681049D01*
X7121666Y-7638191D01*
X7135951Y-7609620D01*
X7164523Y-7566763D01*
X7178808Y-7552477D01*
X7450237Y-7895334D02*
X7278808Y-7895334D01*
X7364523Y-7895334D02*
X7364523Y-7595334D01*
X7335951Y-7638191D01*
X7307380Y-7666763D01*
X7278808Y-7681049D01*
X7735951Y-7895334D02*
X7564523Y-7895334D01*
X7650237Y-7895334D02*
X7650237Y-7595334D01*
X7621666Y-7638191D01*
X7593094Y-7666763D01*
X7564523Y-7681049D01*
X8093094Y-7895334D02*
X8093094Y-7595334D01*
X8221666Y-7895334D02*
X8221666Y-7738191D01*
X8207380Y-7709620D01*
X8178808Y-7695334D01*
X8135951Y-7695334D01*
X8107380Y-7709620D01*
X8093094Y-7723906D01*
X8407380Y-7895334D02*
X8378808Y-7881049D01*
X8364523Y-7866763D01*
X8350237Y-7838191D01*
X8350237Y-7752477D01*
X8364523Y-7723906D01*
X8378808Y-7709620D01*
X8407380Y-7695334D01*
X8450237Y-7695334D01*
X8478808Y-7709620D01*
X8493094Y-7723906D01*
X8507380Y-7752477D01*
X8507380Y-7838191D01*
X8493094Y-7866763D01*
X8478808Y-7881049D01*
X8450237Y-7895334D01*
X8407380Y-7895334D01*
X8678808Y-7895334D02*
X8650237Y-7881049D01*
X8635951Y-7852477D01*
X8635951Y-7595334D01*
X8907380Y-7881049D02*
X8878808Y-7895334D01*
X8821666Y-7895334D01*
X8793094Y-7881049D01*
X8778808Y-7852477D01*
X8778808Y-7738191D01*
X8793094Y-7709620D01*
X8821666Y-7695334D01*
X8878808Y-7695334D01*
X8907380Y-7709620D01*
X8921666Y-7738191D01*
X8921666Y-7766763D01*
X8778808Y-7795334D01*
X9035951Y-7881049D02*
X9064523Y-7895334D01*
X9121666Y-7895334D01*
X9150237Y-7881049D01*
X9164523Y-7852477D01*
X9164523Y-7838191D01*
X9150237Y-7809620D01*
X9121666Y-7795334D01*
X9078808Y-7795334D01*
X9050237Y-7781049D01*
X9035951Y-7752477D01*
X9035951Y-7738191D01*
X9050237Y-7709620D01*
X9078808Y-7695334D01*
X9121666Y-7695334D01*
X9150237Y-7709620D01*
X9264523Y-8009620D02*
X9278808Y-7995334D01*
X9307380Y-7952477D01*
X9321666Y-7923906D01*
X9335951Y-7881049D01*
X9350237Y-7809620D01*
X9350237Y-7752477D01*
X9335951Y-7681049D01*
X9321666Y-7638191D01*
X9307380Y-7609620D01*
X9278808Y-7566763D01*
X9264523Y-7552477D01*
X2477736Y-8190976D02*
X2477736Y-8120264D01*
X2407024Y-8120264D01*
X2407024Y-8190976D01*
X2477736Y-8190976D01*
X2935951Y-8291334D02*
X2764523Y-8291334D01*
X2850237Y-8291334D02*
X2850237Y-7991334D01*
X2821666Y-8034191D01*
X2793094Y-8062763D01*
X2764523Y-8077049D01*
X3064523Y-8262763D02*
X3078808Y-8277049D01*
X3064523Y-8291334D01*
X3050237Y-8277049D01*
X3064523Y-8262763D01*
X3064523Y-8291334D01*
X3264523Y-7991334D02*
X3293094Y-7991334D01*
X3321666Y-8005620D01*
X3335951Y-8019906D01*
X3350237Y-8048477D01*
X3364523Y-8105620D01*
X3364523Y-8177049D01*
X3350237Y-8234191D01*
X3335951Y-8262763D01*
X3321666Y-8277049D01*
X3293094Y-8291334D01*
X3264523Y-8291334D01*
X3235951Y-8277049D01*
X3221666Y-8262763D01*
X3207380Y-8234191D01*
X3193094Y-8177049D01*
X3193094Y-8105620D01*
X3207380Y-8048477D01*
X3221666Y-8019906D01*
X3235951Y-8005620D01*
X3264523Y-7991334D01*
X3550237Y-7991334D02*
X3578808Y-7991334D01*
X3607380Y-8005620D01*
X3621666Y-8019906D01*
X3635951Y-8048477D01*
X3650237Y-8105620D01*
X3650237Y-8177049D01*
X3635951Y-8234191D01*
X3621666Y-8262763D01*
X3607380Y-8277049D01*
X3578808Y-8291334D01*
X3550237Y-8291334D01*
X3521666Y-8277049D01*
X3507380Y-8262763D01*
X3493094Y-8234191D01*
X3478808Y-8177049D01*
X3478808Y-8105620D01*
X3493094Y-8048477D01*
X3507380Y-8019906D01*
X3521666Y-8005620D01*
X3550237Y-7991334D01*
X3778808Y-8291334D02*
X3778808Y-8091334D01*
X3778808Y-8119906D02*
X3793094Y-8105620D01*
X3821666Y-8091334D01*
X3864523Y-8091334D01*
X3893094Y-8105620D01*
X3907380Y-8134191D01*
X3907380Y-8291334D01*
X3907380Y-8134191D02*
X3921666Y-8105620D01*
X3950237Y-8091334D01*
X3993094Y-8091334D01*
X4021666Y-8105620D01*
X4035951Y-8134191D01*
X4035951Y-8291334D01*
X4178808Y-8291334D02*
X4178808Y-8091334D01*
X4178808Y-8119906D02*
X4193094Y-8105620D01*
X4221666Y-8091334D01*
X4264523Y-8091334D01*
X4293094Y-8105620D01*
X4307380Y-8134191D01*
X4307380Y-8291334D01*
X4307380Y-8134191D02*
X4321666Y-8105620D01*
X4350237Y-8091334D01*
X4393094Y-8091334D01*
X4421666Y-8105620D01*
X4435951Y-8134191D01*
X4435951Y-8291334D01*
X5021666Y-7977049D02*
X4764523Y-8362763D01*
X5407380Y-7991334D02*
X5435951Y-7991334D01*
X5464523Y-8005620D01*
X5478808Y-8019906D01*
X5493094Y-8048477D01*
X5507380Y-8105620D01*
X5507380Y-8177049D01*
X5493094Y-8234191D01*
X5478808Y-8262763D01*
X5464523Y-8277049D01*
X5435951Y-8291334D01*
X5407380Y-8291334D01*
X5378808Y-8277049D01*
X5364523Y-8262763D01*
X5350237Y-8234191D01*
X5335951Y-8177049D01*
X5335951Y-8105620D01*
X5350237Y-8048477D01*
X5364523Y-8019906D01*
X5378808Y-8005620D01*
X5407380Y-7991334D01*
X5635951Y-8262763D02*
X5650237Y-8277049D01*
X5635951Y-8291334D01*
X5621666Y-8277049D01*
X5635951Y-8262763D01*
X5635951Y-8291334D01*
X5835951Y-7991334D02*
X5864523Y-7991334D01*
X5893094Y-8005620D01*
X5907380Y-8019906D01*
X5921666Y-8048477D01*
X5935951Y-8105620D01*
X5935951Y-8177049D01*
X5921666Y-8234191D01*
X5907380Y-8262763D01*
X5893094Y-8277049D01*
X5864523Y-8291334D01*
X5835951Y-8291334D01*
X5807380Y-8277049D01*
X5793094Y-8262763D01*
X5778808Y-8234191D01*
X5764523Y-8177049D01*
X5764523Y-8105620D01*
X5778808Y-8048477D01*
X5793094Y-8019906D01*
X5807380Y-8005620D01*
X5835951Y-7991334D01*
X6035951Y-7991334D02*
X6221666Y-7991334D01*
X6121666Y-8105620D01*
X6164523Y-8105620D01*
X6193094Y-8119906D01*
X6207380Y-8134191D01*
X6221666Y-8162763D01*
X6221666Y-8234191D01*
X6207380Y-8262763D01*
X6193094Y-8277049D01*
X6164523Y-8291334D01*
X6078808Y-8291334D01*
X6050237Y-8277049D01*
X6035951Y-8262763D01*
X6364523Y-8291334D02*
X6421666Y-8291334D01*
X6450237Y-8277049D01*
X6464523Y-8262763D01*
X6493094Y-8219906D01*
X6507380Y-8162763D01*
X6507380Y-8048477D01*
X6493094Y-8019906D01*
X6478808Y-8005620D01*
X6450237Y-7991334D01*
X6393094Y-7991334D01*
X6364523Y-8005620D01*
X6350237Y-8019906D01*
X6335951Y-8048477D01*
X6335951Y-8119906D01*
X6350237Y-8148477D01*
X6364523Y-8162763D01*
X6393094Y-8177049D01*
X6450237Y-8177049D01*
X6478808Y-8162763D01*
X6493094Y-8148477D01*
X6507380Y-8119906D01*
X6621666Y-7991334D02*
X6621666Y-8048477D01*
X6735951Y-7991334D02*
X6735951Y-8048477D01*
X7178808Y-8405620D02*
X7164523Y-8391334D01*
X7135951Y-8348477D01*
X7121666Y-8319906D01*
X7107380Y-8277049D01*
X7093094Y-8205620D01*
X7093094Y-8148477D01*
X7107380Y-8077049D01*
X7121666Y-8034191D01*
X7135951Y-8005620D01*
X7164523Y-7962763D01*
X7178808Y-7948477D01*
X7450237Y-8291334D02*
X7278808Y-8291334D01*
X7364523Y-8291334D02*
X7364523Y-7991334D01*
X7335951Y-8034191D01*
X7307380Y-8062763D01*
X7278808Y-8077049D01*
X7807380Y-8291334D02*
X7807380Y-7991334D01*
X7935951Y-8291334D02*
X7935951Y-8134191D01*
X7921666Y-8105620D01*
X7893094Y-8091334D01*
X7850237Y-8091334D01*
X7821666Y-8105620D01*
X7807380Y-8119906D01*
X8121666Y-8291334D02*
X8093094Y-8277049D01*
X8078808Y-8262763D01*
X8064523Y-8234191D01*
X8064523Y-8148477D01*
X8078808Y-8119906D01*
X8093094Y-8105620D01*
X8121666Y-8091334D01*
X8164523Y-8091334D01*
X8193094Y-8105620D01*
X8207380Y-8119906D01*
X8221666Y-8148477D01*
X8221666Y-8234191D01*
X8207380Y-8262763D01*
X8193094Y-8277049D01*
X8164523Y-8291334D01*
X8121666Y-8291334D01*
X8393094Y-8291334D02*
X8364523Y-8277049D01*
X8350237Y-8248477D01*
X8350237Y-7991334D01*
X8621666Y-8277049D02*
X8593094Y-8291334D01*
X8535951Y-8291334D01*
X8507380Y-8277049D01*
X8493094Y-8248477D01*
X8493094Y-8134191D01*
X8507380Y-8105620D01*
X8535951Y-8091334D01*
X8593094Y-8091334D01*
X8621666Y-8105620D01*
X8635951Y-8134191D01*
X8635951Y-8162763D01*
X8493094Y-8191334D01*
X8735951Y-8405620D02*
X8750237Y-8391334D01*
X8778808Y-8348477D01*
X8793094Y-8319906D01*
X8807380Y-8277049D01*
X8821666Y-8205620D01*
X8821666Y-8148477D01*
X8807380Y-8077049D01*
X8793094Y-8034191D01*
X8778808Y-8005620D01*
X8750237Y-7962763D01*
X8735951Y-7948477D01*
M02*
