G04 #@! TF.GenerationSoftware,KiCad,Pcbnew,5.0.0*
G04 #@! TF.CreationDate,2018-09-03T16:34:48-04:00*
G04 #@! TF.ProjectId,controller,636F6E74726F6C6C65722E6B69636164,rev?*
G04 #@! TF.SameCoordinates,Original*
G04 #@! TF.FileFunction,Paste,Bot*
G04 #@! TF.FilePolarity,Positive*
%FSLAX46Y46*%
G04 Gerber Fmt 4.6, Leading zero omitted, Abs format (unit mm)*
G04 Created by KiCad (PCBNEW 5.0.0) date Mon Sep  3 16:34:48 2018*
%MOMM*%
%LPD*%
G01*
G04 APERTURE LIST*
%ADD10R,0.347600X0.447600*%
%ADD11R,0.447600X0.347600*%
%ADD12R,1.047600X0.597600*%
%ADD13R,0.597600X1.047600*%
%ADD14R,1.097600X1.347600*%
%ADD15R,2.047600X1.672600*%
%ADD16R,0.447600X0.247600*%
%ADD17R,0.747600X1.047600*%
%ADD18R,1.407600X0.497600*%
%ADD19R,0.147600X0.247600*%
%ADD20R,0.247600X0.147600*%
G04 APERTURE END LIST*
D10*
G04 #@! TO.C,C16*
X36534053Y-56081676D03*
X36534053Y-57181676D03*
G04 #@! TD*
G04 #@! TO.C,C15*
X35734053Y-57181676D03*
X35734053Y-56081676D03*
G04 #@! TD*
G04 #@! TO.C,C14*
X34900000Y-56100000D03*
X34900000Y-57200000D03*
G04 #@! TD*
D11*
G04 #@! TO.C,C6*
X74750000Y-54300000D03*
X73650000Y-54300000D03*
G04 #@! TD*
G04 #@! TO.C,C5*
X73650000Y-55100000D03*
X74750000Y-55100000D03*
G04 #@! TD*
D12*
G04 #@! TO.C,C7*
X72800000Y-53400000D03*
X74700000Y-53400000D03*
G04 #@! TD*
D13*
G04 #@! TO.C,C8*
X42800000Y-55750000D03*
X42800000Y-53850000D03*
G04 #@! TD*
G04 #@! TO.C,C3*
X56157516Y-57872111D03*
X56157516Y-55972111D03*
G04 #@! TD*
D14*
G04 #@! TO.C,C4*
X65957516Y-58372111D03*
X65957516Y-55872111D03*
G04 #@! TD*
D15*
G04 #@! TO.C,L1*
X58457516Y-58209611D03*
X58457516Y-55634611D03*
G04 #@! TD*
D16*
G04 #@! TO.C,R6*
X41600000Y-53350000D03*
X41600000Y-54250000D03*
G04 #@! TD*
G04 #@! TO.C,R7*
X40600000Y-54250000D03*
X40600000Y-53350000D03*
G04 #@! TD*
D17*
G04 #@! TO.C,R2*
X33500000Y-55500000D03*
X33500000Y-53300000D03*
G04 #@! TD*
D18*
G04 #@! TO.C,U1*
X63807516Y-57972111D03*
X63807516Y-56072111D03*
X61107516Y-56072111D03*
X61107516Y-57022111D03*
X61107516Y-57972111D03*
G04 #@! TD*
D19*
G04 #@! TO.C,U2*
X74850000Y-58000000D03*
X74350000Y-58000000D03*
X73850000Y-58000000D03*
X73350000Y-58000000D03*
D20*
X73300000Y-57450000D03*
X73300000Y-56950000D03*
D19*
X73350000Y-56400000D03*
X73850000Y-56400000D03*
X74350000Y-56400000D03*
X74850000Y-56400000D03*
D20*
X74900000Y-56950000D03*
X74900000Y-57450000D03*
G04 #@! TD*
M02*
