G04 #@! TF.GenerationSoftware,KiCad,Pcbnew,5.0.1*
G04 #@! TF.CreationDate,2018-12-09T15:50:33-05:00*
G04 #@! TF.ProjectId,controller,636F6E74726F6C6C65722E6B69636164,rev?*
G04 #@! TF.SameCoordinates,Original*
G04 #@! TF.FileFunction,Soldermask,Top*
G04 #@! TF.FilePolarity,Negative*
%FSLAX46Y46*%
G04 Gerber Fmt 4.6, Leading zero omitted, Abs format (unit mm)*
G04 Created by KiCad (PCBNEW 5.0.1) date Sun 09 Dec 2018 03:50:33 PM EST*
%MOMM*%
%LPD*%
G01*
G04 APERTURE LIST*
%ADD10C,0.100000*%
G04 APERTURE END LIST*
D10*
G36*
X59951200Y-59216200D02*
X58548800Y-59216200D01*
X58548800Y-57563800D01*
X59951200Y-57563800D01*
X59951200Y-59216200D01*
X59951200Y-59216200D01*
G37*
G36*
X50606200Y-58966200D02*
X49253800Y-58966200D01*
X49253800Y-57913800D01*
X50606200Y-57913800D01*
X50606200Y-58966200D01*
X50606200Y-58966200D01*
G37*
G36*
X48406200Y-58966200D02*
X47053800Y-58966200D01*
X47053800Y-57913800D01*
X48406200Y-57913800D01*
X48406200Y-58966200D01*
X48406200Y-58966200D01*
G37*
G36*
X32252951Y-57732137D02*
X32252954Y-57732138D01*
X32252955Y-57732138D01*
X32278421Y-57739863D01*
X32361568Y-57765085D01*
X32461670Y-57818591D01*
X32549406Y-57890594D01*
X32621409Y-57978330D01*
X32674915Y-58078432D01*
X32707863Y-58187049D01*
X32718988Y-58300000D01*
X32707863Y-58412951D01*
X32707862Y-58412954D01*
X32707862Y-58412955D01*
X32702185Y-58431668D01*
X32674915Y-58521568D01*
X32621409Y-58621670D01*
X32549406Y-58709406D01*
X32461670Y-58781409D01*
X32361568Y-58834915D01*
X32278421Y-58860137D01*
X32252955Y-58867862D01*
X32252954Y-58867862D01*
X32252951Y-58867863D01*
X32168303Y-58876200D01*
X32111697Y-58876200D01*
X32027049Y-58867863D01*
X32027046Y-58867862D01*
X32027045Y-58867862D01*
X32001579Y-58860137D01*
X31918432Y-58834915D01*
X31818330Y-58781409D01*
X31730594Y-58709406D01*
X31658591Y-58621670D01*
X31605085Y-58521568D01*
X31577815Y-58431668D01*
X31572138Y-58412955D01*
X31572138Y-58412954D01*
X31572137Y-58412951D01*
X31561012Y-58300000D01*
X31572137Y-58187049D01*
X31605085Y-58078432D01*
X31658591Y-57978330D01*
X31730594Y-57890594D01*
X31818330Y-57818591D01*
X31918432Y-57765085D01*
X32001579Y-57739863D01*
X32027045Y-57732138D01*
X32027046Y-57732138D01*
X32027049Y-57732137D01*
X32111697Y-57723800D01*
X32168303Y-57723800D01*
X32252951Y-57732137D01*
X32252951Y-57732137D01*
G37*
G36*
X30982951Y-57732137D02*
X30982954Y-57732138D01*
X30982955Y-57732138D01*
X31008421Y-57739863D01*
X31091568Y-57765085D01*
X31191670Y-57818591D01*
X31279406Y-57890594D01*
X31351409Y-57978330D01*
X31404915Y-58078432D01*
X31437863Y-58187049D01*
X31448988Y-58300000D01*
X31437863Y-58412951D01*
X31437862Y-58412954D01*
X31437862Y-58412955D01*
X31432185Y-58431668D01*
X31404915Y-58521568D01*
X31351409Y-58621670D01*
X31279406Y-58709406D01*
X31191670Y-58781409D01*
X31091568Y-58834915D01*
X31008421Y-58860137D01*
X30982955Y-58867862D01*
X30982954Y-58867862D01*
X30982951Y-58867863D01*
X30898303Y-58876200D01*
X30841697Y-58876200D01*
X30757049Y-58867863D01*
X30757046Y-58867862D01*
X30757045Y-58867862D01*
X30731579Y-58860137D01*
X30648432Y-58834915D01*
X30548330Y-58781409D01*
X30460594Y-58709406D01*
X30388591Y-58621670D01*
X30335085Y-58521568D01*
X30307815Y-58431668D01*
X30302138Y-58412955D01*
X30302138Y-58412954D01*
X30302137Y-58412951D01*
X30291012Y-58300000D01*
X30302137Y-58187049D01*
X30335085Y-58078432D01*
X30388591Y-57978330D01*
X30460594Y-57890594D01*
X30548330Y-57818591D01*
X30648432Y-57765085D01*
X30731579Y-57739863D01*
X30757045Y-57732138D01*
X30757046Y-57732138D01*
X30757049Y-57732137D01*
X30841697Y-57723800D01*
X30898303Y-57723800D01*
X30982951Y-57732137D01*
X30982951Y-57732137D01*
G37*
G36*
X30176200Y-58876200D02*
X29023800Y-58876200D01*
X29023800Y-57723800D01*
X30176200Y-57723800D01*
X30176200Y-58876200D01*
X30176200Y-58876200D01*
G37*
G36*
X61676200Y-58816200D02*
X60623800Y-58816200D01*
X60623800Y-57463800D01*
X61676200Y-57463800D01*
X61676200Y-58816200D01*
X61676200Y-58816200D01*
G37*
G36*
X53176200Y-58766200D02*
X51323800Y-58766200D01*
X51323800Y-56913800D01*
X53176200Y-56913800D01*
X53176200Y-58766200D01*
X53176200Y-58766200D01*
G37*
G36*
X74101200Y-58766200D02*
X73198800Y-58766200D01*
X73198800Y-57413800D01*
X74101200Y-57413800D01*
X74101200Y-58766200D01*
X74101200Y-58766200D01*
G37*
G36*
X56962951Y-57542137D02*
X56962954Y-57542138D01*
X56962955Y-57542138D01*
X56988421Y-57549863D01*
X57071568Y-57575085D01*
X57171670Y-57628591D01*
X57259406Y-57700594D01*
X57331409Y-57788330D01*
X57384915Y-57888432D01*
X57417863Y-57997049D01*
X57428988Y-58110000D01*
X57417863Y-58222951D01*
X57384915Y-58331568D01*
X57331409Y-58431670D01*
X57259406Y-58519406D01*
X57171670Y-58591409D01*
X57071568Y-58644915D01*
X56988421Y-58670137D01*
X56962955Y-58677862D01*
X56962954Y-58677862D01*
X56962951Y-58677863D01*
X56878303Y-58686200D01*
X56821697Y-58686200D01*
X56737049Y-58677863D01*
X56737046Y-58677862D01*
X56737045Y-58677862D01*
X56711579Y-58670137D01*
X56628432Y-58644915D01*
X56528330Y-58591409D01*
X56440594Y-58519406D01*
X56368591Y-58431670D01*
X56315085Y-58331568D01*
X56282137Y-58222951D01*
X56271012Y-58110000D01*
X56282137Y-57997049D01*
X56315085Y-57888432D01*
X56368591Y-57788330D01*
X56440594Y-57700594D01*
X56528330Y-57628591D01*
X56628432Y-57575085D01*
X56711579Y-57549863D01*
X56737045Y-57542138D01*
X56737046Y-57542138D01*
X56737049Y-57542137D01*
X56821697Y-57533800D01*
X56878303Y-57533800D01*
X56962951Y-57542137D01*
X56962951Y-57542137D01*
G37*
G36*
X55692951Y-57542137D02*
X55692954Y-57542138D01*
X55692955Y-57542138D01*
X55718421Y-57549863D01*
X55801568Y-57575085D01*
X55901670Y-57628591D01*
X55989406Y-57700594D01*
X56061409Y-57788330D01*
X56114915Y-57888432D01*
X56147863Y-57997049D01*
X56158988Y-58110000D01*
X56147863Y-58222951D01*
X56114915Y-58331568D01*
X56061409Y-58431670D01*
X55989406Y-58519406D01*
X55901670Y-58591409D01*
X55801568Y-58644915D01*
X55718421Y-58670137D01*
X55692955Y-58677862D01*
X55692954Y-58677862D01*
X55692951Y-58677863D01*
X55608303Y-58686200D01*
X55551697Y-58686200D01*
X55467049Y-58677863D01*
X55467046Y-58677862D01*
X55467045Y-58677862D01*
X55441579Y-58670137D01*
X55358432Y-58644915D01*
X55258330Y-58591409D01*
X55170594Y-58519406D01*
X55098591Y-58431670D01*
X55045085Y-58331568D01*
X55012137Y-58222951D01*
X55001012Y-58110000D01*
X55012137Y-57997049D01*
X55045085Y-57888432D01*
X55098591Y-57788330D01*
X55170594Y-57700594D01*
X55258330Y-57628591D01*
X55358432Y-57575085D01*
X55441579Y-57549863D01*
X55467045Y-57542138D01*
X55467046Y-57542138D01*
X55467049Y-57542137D01*
X55551697Y-57533800D01*
X55608303Y-57533800D01*
X55692951Y-57542137D01*
X55692951Y-57542137D01*
G37*
G36*
X66581200Y-58436200D02*
X65678800Y-58436200D01*
X65678800Y-57083800D01*
X66581200Y-57083800D01*
X66581200Y-58436200D01*
X66581200Y-58436200D01*
G37*
G36*
X77476200Y-58416200D02*
X76323800Y-58416200D01*
X76323800Y-57263800D01*
X77476200Y-57263800D01*
X77476200Y-58416200D01*
X77476200Y-58416200D01*
G37*
G36*
X75742951Y-57272137D02*
X75742954Y-57272138D01*
X75742955Y-57272138D01*
X75768421Y-57279863D01*
X75851568Y-57305085D01*
X75951670Y-57358591D01*
X76039406Y-57430594D01*
X76111409Y-57518330D01*
X76164915Y-57618432D01*
X76189838Y-57700594D01*
X76196878Y-57723800D01*
X76197863Y-57727049D01*
X76208988Y-57840000D01*
X76197863Y-57952951D01*
X76164915Y-58061568D01*
X76111409Y-58161670D01*
X76039406Y-58249406D01*
X75951670Y-58321409D01*
X75851568Y-58374915D01*
X75768421Y-58400137D01*
X75742955Y-58407862D01*
X75742954Y-58407862D01*
X75742951Y-58407863D01*
X75658303Y-58416200D01*
X75601697Y-58416200D01*
X75517049Y-58407863D01*
X75517046Y-58407862D01*
X75517045Y-58407862D01*
X75491579Y-58400137D01*
X75408432Y-58374915D01*
X75308330Y-58321409D01*
X75220594Y-58249406D01*
X75148591Y-58161670D01*
X75095085Y-58061568D01*
X75062137Y-57952951D01*
X75051012Y-57840000D01*
X75062137Y-57727049D01*
X75063123Y-57723800D01*
X75070162Y-57700594D01*
X75095085Y-57618432D01*
X75148591Y-57518330D01*
X75220594Y-57430594D01*
X75308330Y-57358591D01*
X75408432Y-57305085D01*
X75491579Y-57279863D01*
X75517045Y-57272138D01*
X75517046Y-57272138D01*
X75517049Y-57272137D01*
X75601697Y-57263800D01*
X75658303Y-57263800D01*
X75742951Y-57272137D01*
X75742951Y-57272137D01*
G37*
G36*
X69676200Y-58266200D02*
X67623800Y-58266200D01*
X67623800Y-57313800D01*
X69676200Y-57313800D01*
X69676200Y-58266200D01*
X69676200Y-58266200D01*
G37*
G36*
X35186200Y-57896200D02*
X34633800Y-57896200D01*
X34633800Y-57143800D01*
X35186200Y-57143800D01*
X35186200Y-57896200D01*
X35186200Y-57896200D01*
G37*
G36*
X36086200Y-57896200D02*
X35533800Y-57896200D01*
X35533800Y-57143800D01*
X36086200Y-57143800D01*
X36086200Y-57896200D01*
X36086200Y-57896200D01*
G37*
G36*
X57426200Y-57416200D02*
X56273800Y-57416200D01*
X56273800Y-56263800D01*
X57426200Y-56263800D01*
X57426200Y-57416200D01*
X57426200Y-57416200D01*
G37*
G36*
X55692951Y-56272137D02*
X55692954Y-56272138D01*
X55692955Y-56272138D01*
X55705320Y-56275889D01*
X55801568Y-56305085D01*
X55901670Y-56358591D01*
X55989406Y-56430594D01*
X56061409Y-56518330D01*
X56114915Y-56618432D01*
X56147863Y-56727049D01*
X56158988Y-56840000D01*
X56147863Y-56952951D01*
X56114915Y-57061568D01*
X56061409Y-57161670D01*
X55989406Y-57249406D01*
X55901670Y-57321409D01*
X55801568Y-57374915D01*
X55718421Y-57400137D01*
X55692955Y-57407862D01*
X55692954Y-57407862D01*
X55692951Y-57407863D01*
X55608303Y-57416200D01*
X55551697Y-57416200D01*
X55467049Y-57407863D01*
X55467046Y-57407862D01*
X55467045Y-57407862D01*
X55441579Y-57400137D01*
X55358432Y-57374915D01*
X55258330Y-57321409D01*
X55170594Y-57249406D01*
X55098591Y-57161670D01*
X55045085Y-57061568D01*
X55012137Y-56952951D01*
X55001012Y-56840000D01*
X55012137Y-56727049D01*
X55045085Y-56618432D01*
X55098591Y-56518330D01*
X55170594Y-56430594D01*
X55258330Y-56358591D01*
X55358432Y-56305085D01*
X55454680Y-56275889D01*
X55467045Y-56272138D01*
X55467046Y-56272138D01*
X55467049Y-56272137D01*
X55551697Y-56263800D01*
X55608303Y-56263800D01*
X55692951Y-56272137D01*
X55692951Y-56272137D01*
G37*
G36*
X82376200Y-57366200D02*
X81823800Y-57366200D01*
X81823800Y-56613800D01*
X82376200Y-56613800D01*
X82376200Y-57366200D01*
X82376200Y-57366200D01*
G37*
G36*
X83276200Y-57366200D02*
X82723800Y-57366200D01*
X82723800Y-56613800D01*
X83276200Y-56613800D01*
X83276200Y-57366200D01*
X83276200Y-57366200D01*
G37*
G36*
X72676200Y-57316200D02*
X70623800Y-57316200D01*
X70623800Y-56363800D01*
X72676200Y-56363800D01*
X72676200Y-57316200D01*
X72676200Y-57316200D01*
G37*
G36*
X46800000Y-57160000D02*
X46420000Y-57160000D01*
X46420000Y-56420000D01*
X46800000Y-56420000D01*
X46800000Y-57160000D01*
X46800000Y-57160000D01*
G37*
G36*
X45800000Y-52669200D02*
X45800976Y-52679111D01*
X45803867Y-52688640D01*
X45808561Y-52697423D01*
X45814879Y-52705121D01*
X45822577Y-52711439D01*
X45831360Y-52716133D01*
X45840889Y-52719024D01*
X45850800Y-52720000D01*
X45869200Y-52720000D01*
X45879111Y-52719024D01*
X45888640Y-52716133D01*
X45897423Y-52711439D01*
X45905121Y-52705121D01*
X45911439Y-52697423D01*
X45916133Y-52688640D01*
X45919024Y-52679111D01*
X45920000Y-52669200D01*
X45920000Y-52120000D01*
X46300000Y-52120000D01*
X46300000Y-52994200D01*
X46300976Y-53004111D01*
X46303867Y-53013640D01*
X46308561Y-53022423D01*
X46314879Y-53030121D01*
X46322577Y-53036439D01*
X46331360Y-53041133D01*
X46340889Y-53044024D01*
X46350800Y-53045000D01*
X46955000Y-53045000D01*
X46955000Y-56235000D01*
X46350800Y-56235000D01*
X46340889Y-56235976D01*
X46331360Y-56238867D01*
X46322577Y-56243561D01*
X46314879Y-56249879D01*
X46308561Y-56257577D01*
X46303867Y-56266360D01*
X46300976Y-56275889D01*
X46300000Y-56285800D01*
X46300000Y-57160000D01*
X45920000Y-57160000D01*
X45920000Y-56610800D01*
X45919024Y-56600889D01*
X45916133Y-56591360D01*
X45911439Y-56582577D01*
X45905121Y-56574879D01*
X45897423Y-56568561D01*
X45888640Y-56563867D01*
X45879111Y-56560976D01*
X45869200Y-56560000D01*
X45850800Y-56560000D01*
X45840889Y-56560976D01*
X45831360Y-56563867D01*
X45822577Y-56568561D01*
X45814879Y-56574879D01*
X45808561Y-56582577D01*
X45803867Y-56591360D01*
X45800976Y-56600889D01*
X45800000Y-56610800D01*
X45800000Y-57160000D01*
X45420000Y-57160000D01*
X45420000Y-56285800D01*
X45419024Y-56275889D01*
X45416133Y-56266360D01*
X45411439Y-56257577D01*
X45405121Y-56249879D01*
X45397423Y-56243561D01*
X45388640Y-56238867D01*
X45379111Y-56235976D01*
X45369200Y-56235000D01*
X44765000Y-56235000D01*
X44765000Y-53045000D01*
X45369200Y-53045000D01*
X45379111Y-53044024D01*
X45388640Y-53041133D01*
X45397423Y-53036439D01*
X45405121Y-53030121D01*
X45411439Y-53022423D01*
X45416133Y-53013640D01*
X45419024Y-53004111D01*
X45420000Y-52994200D01*
X45420000Y-52120000D01*
X45800000Y-52120000D01*
X45800000Y-52669200D01*
X45800000Y-52669200D01*
G37*
G36*
X45300000Y-57160000D02*
X44920000Y-57160000D01*
X44920000Y-56420000D01*
X45300000Y-56420000D01*
X45300000Y-57160000D01*
X45300000Y-57160000D01*
G37*
G36*
X36096200Y-56906200D02*
X35543800Y-56906200D01*
X35543800Y-56153800D01*
X36096200Y-56153800D01*
X36096200Y-56906200D01*
X36096200Y-56906200D01*
G37*
G36*
X35196200Y-56906200D02*
X34643800Y-56906200D01*
X34643800Y-56153800D01*
X35196200Y-56153800D01*
X35196200Y-56906200D01*
X35196200Y-56906200D01*
G37*
G36*
X74101200Y-56866200D02*
X73198800Y-56866200D01*
X73198800Y-55513800D01*
X74101200Y-55513800D01*
X74101200Y-56866200D01*
X74101200Y-56866200D01*
G37*
G36*
X38316200Y-56846200D02*
X36963800Y-56846200D01*
X36963800Y-55793800D01*
X38316200Y-55793800D01*
X38316200Y-56846200D01*
X38316200Y-56846200D01*
G37*
G36*
X40516200Y-56846200D02*
X39163800Y-56846200D01*
X39163800Y-55793800D01*
X40516200Y-55793800D01*
X40516200Y-56846200D01*
X40516200Y-56846200D01*
G37*
G36*
X59951200Y-56716200D02*
X58548800Y-56716200D01*
X58548800Y-55063800D01*
X59951200Y-55063800D01*
X59951200Y-56716200D01*
X59951200Y-56716200D01*
G37*
G36*
X61676200Y-56616200D02*
X60623800Y-56616200D01*
X60623800Y-55263800D01*
X61676200Y-55263800D01*
X61676200Y-56616200D01*
X61676200Y-56616200D01*
G37*
G36*
X28186200Y-56596200D02*
X26133800Y-56596200D01*
X26133800Y-55643800D01*
X28186200Y-55643800D01*
X28186200Y-56596200D01*
X28186200Y-56596200D01*
G37*
G36*
X44580000Y-56580000D02*
X43840000Y-56580000D01*
X43840000Y-56200000D01*
X44580000Y-56200000D01*
X44580000Y-56580000D01*
X44580000Y-56580000D01*
G37*
G36*
X47880000Y-56580000D02*
X47140000Y-56580000D01*
X47140000Y-56200000D01*
X47880000Y-56200000D01*
X47880000Y-56580000D01*
X47880000Y-56580000D01*
G37*
G36*
X66581200Y-56536200D02*
X65678800Y-56536200D01*
X65678800Y-55183800D01*
X66581200Y-55183800D01*
X66581200Y-56536200D01*
X66581200Y-56536200D01*
G37*
G36*
X69676200Y-56366200D02*
X67623800Y-56366200D01*
X67623800Y-55413800D01*
X69676200Y-55413800D01*
X69676200Y-56366200D01*
X69676200Y-56366200D01*
G37*
G36*
X47880000Y-56080000D02*
X47140000Y-56080000D01*
X47140000Y-55700000D01*
X47880000Y-55700000D01*
X47880000Y-56080000D01*
X47880000Y-56080000D01*
G37*
G36*
X44580000Y-56080000D02*
X43840000Y-56080000D01*
X43840000Y-55700000D01*
X44580000Y-55700000D01*
X44580000Y-56080000D01*
X44580000Y-56080000D01*
G37*
G36*
X83376200Y-55916200D02*
X82723800Y-55916200D01*
X82723800Y-55163800D01*
X83376200Y-55163800D01*
X83376200Y-55916200D01*
X83376200Y-55916200D01*
G37*
G36*
X80026200Y-55816200D02*
X79273800Y-55816200D01*
X79273800Y-55163800D01*
X80026200Y-55163800D01*
X80026200Y-55816200D01*
X80026200Y-55816200D01*
G37*
G36*
X81126200Y-55816200D02*
X80373800Y-55816200D01*
X80373800Y-55163800D01*
X81126200Y-55163800D01*
X81126200Y-55816200D01*
X81126200Y-55816200D01*
G37*
G36*
X31186200Y-55646200D02*
X29133800Y-55646200D01*
X29133800Y-54693800D01*
X31186200Y-54693800D01*
X31186200Y-55646200D01*
X31186200Y-55646200D01*
G37*
G36*
X44580000Y-55580000D02*
X43840000Y-55580000D01*
X43840000Y-55200000D01*
X44580000Y-55200000D01*
X44580000Y-55580000D01*
X44580000Y-55580000D01*
G37*
G36*
X47880000Y-55580000D02*
X47140000Y-55580000D01*
X47140000Y-55200000D01*
X47880000Y-55200000D01*
X47880000Y-55580000D01*
X47880000Y-55580000D01*
G37*
G36*
X51656200Y-55376200D02*
X50903800Y-55376200D01*
X50903800Y-54723800D01*
X51656200Y-54723800D01*
X51656200Y-55376200D01*
X51656200Y-55376200D01*
G37*
G36*
X50556200Y-55376200D02*
X49803800Y-55376200D01*
X49803800Y-54723800D01*
X50556200Y-54723800D01*
X50556200Y-55376200D01*
X50556200Y-55376200D01*
G37*
G36*
X35771200Y-55286200D02*
X34868800Y-55286200D01*
X34868800Y-53933800D01*
X35771200Y-53933800D01*
X35771200Y-55286200D01*
X35771200Y-55286200D01*
G37*
G36*
X47880000Y-55080000D02*
X47140000Y-55080000D01*
X47140000Y-54700000D01*
X47880000Y-54700000D01*
X47880000Y-55080000D01*
X47880000Y-55080000D01*
G37*
G36*
X44580000Y-55080000D02*
X43840000Y-55080000D01*
X43840000Y-54700000D01*
X44580000Y-54700000D01*
X44580000Y-55080000D01*
X44580000Y-55080000D01*
G37*
G36*
X38176200Y-55031200D02*
X36463800Y-55031200D01*
X36463800Y-54228800D01*
X38176200Y-54228800D01*
X38176200Y-55031200D01*
X38176200Y-55031200D01*
G37*
G36*
X40876200Y-55031200D02*
X39163800Y-55031200D01*
X39163800Y-54228800D01*
X40876200Y-54228800D01*
X40876200Y-55031200D01*
X40876200Y-55031200D01*
G37*
G36*
X69076200Y-55016200D02*
X68523800Y-55016200D01*
X68523800Y-54263800D01*
X69076200Y-54263800D01*
X69076200Y-55016200D01*
X69076200Y-55016200D01*
G37*
G36*
X68176200Y-55016200D02*
X67623800Y-55016200D01*
X67623800Y-54263800D01*
X68176200Y-54263800D01*
X68176200Y-55016200D01*
X68176200Y-55016200D01*
G37*
G36*
X52776200Y-54966200D02*
X52123800Y-54966200D01*
X52123800Y-54213800D01*
X52776200Y-54213800D01*
X52776200Y-54966200D01*
X52776200Y-54966200D01*
G37*
G36*
X74926200Y-54866200D02*
X73573800Y-54866200D01*
X73573800Y-53813800D01*
X74926200Y-53813800D01*
X74926200Y-54866200D01*
X74926200Y-54866200D01*
G37*
G36*
X72726200Y-54866200D02*
X71373800Y-54866200D01*
X71373800Y-53813800D01*
X72726200Y-53813800D01*
X72726200Y-54866200D01*
X72726200Y-54866200D01*
G37*
G36*
X83376200Y-54816200D02*
X82723800Y-54816200D01*
X82723800Y-54063800D01*
X83376200Y-54063800D01*
X83376200Y-54816200D01*
X83376200Y-54816200D01*
G37*
G36*
X28186200Y-54696200D02*
X26133800Y-54696200D01*
X26133800Y-53743800D01*
X28186200Y-53743800D01*
X28186200Y-54696200D01*
X28186200Y-54696200D01*
G37*
G36*
X47880000Y-54580000D02*
X47140000Y-54580000D01*
X47140000Y-54200000D01*
X47880000Y-54200000D01*
X47880000Y-54580000D01*
X47880000Y-54580000D01*
G37*
G36*
X44580000Y-54580000D02*
X43840000Y-54580000D01*
X43840000Y-54200000D01*
X44580000Y-54200000D01*
X44580000Y-54580000D01*
X44580000Y-54580000D01*
G37*
G36*
X54018072Y-53285943D02*
X54122931Y-53329377D01*
X54122933Y-53329378D01*
X54207973Y-53386200D01*
X54217307Y-53392437D01*
X54297563Y-53472693D01*
X54360623Y-53567069D01*
X54404057Y-53671928D01*
X54426200Y-53783249D01*
X54426200Y-53896751D01*
X54404057Y-54008072D01*
X54374263Y-54080000D01*
X54360622Y-54112933D01*
X54297564Y-54207306D01*
X54217306Y-54287564D01*
X54122933Y-54350622D01*
X54122932Y-54350623D01*
X54122931Y-54350623D01*
X54018072Y-54394057D01*
X53906751Y-54416200D01*
X53793249Y-54416200D01*
X53681928Y-54394057D01*
X53577069Y-54350623D01*
X53577068Y-54350623D01*
X53577067Y-54350622D01*
X53482694Y-54287564D01*
X53402436Y-54207306D01*
X53339378Y-54112933D01*
X53325737Y-54080000D01*
X53295943Y-54008072D01*
X53273800Y-53896751D01*
X53273800Y-53783249D01*
X53295943Y-53671928D01*
X53339377Y-53567069D01*
X53402437Y-53472693D01*
X53482693Y-53392437D01*
X53492027Y-53386200D01*
X53577067Y-53329378D01*
X53577069Y-53329377D01*
X53681928Y-53285943D01*
X53793249Y-53263800D01*
X53906751Y-53263800D01*
X54018072Y-53285943D01*
X54018072Y-53285943D01*
G37*
G36*
X79795000Y-54310000D02*
X79405000Y-54310000D01*
X79405000Y-53495000D01*
X79795000Y-53495000D01*
X79795000Y-54310000D01*
X79795000Y-54310000D01*
G37*
G36*
X80295000Y-54310000D02*
X79905000Y-54310000D01*
X79905000Y-53495000D01*
X80295000Y-53495000D01*
X80295000Y-54310000D01*
X80295000Y-54310000D01*
G37*
G36*
X80795000Y-54310000D02*
X80405000Y-54310000D01*
X80405000Y-53495000D01*
X80795000Y-53495000D01*
X80795000Y-54310000D01*
X80795000Y-54310000D01*
G37*
G36*
X38176200Y-54081200D02*
X36463800Y-54081200D01*
X36463800Y-53278800D01*
X38176200Y-53278800D01*
X38176200Y-54081200D01*
X38176200Y-54081200D01*
G37*
G36*
X40876200Y-54081200D02*
X39163800Y-54081200D01*
X39163800Y-53278800D01*
X40876200Y-53278800D01*
X40876200Y-54081200D01*
X40876200Y-54081200D01*
G37*
G36*
X47880000Y-54080000D02*
X47140000Y-54080000D01*
X47140000Y-53700000D01*
X47880000Y-53700000D01*
X47880000Y-54080000D01*
X47880000Y-54080000D01*
G37*
G36*
X44580000Y-54080000D02*
X43840000Y-54080000D01*
X43840000Y-53700000D01*
X44580000Y-53700000D01*
X44580000Y-54080000D01*
X44580000Y-54080000D01*
G37*
G36*
X52776200Y-53866200D02*
X52123800Y-53866200D01*
X52123800Y-53113800D01*
X52776200Y-53113800D01*
X52776200Y-53866200D01*
X52776200Y-53866200D01*
G37*
G36*
X79245000Y-53835000D02*
X78430000Y-53835000D01*
X78430000Y-53445000D01*
X79245000Y-53445000D01*
X79245000Y-53835000D01*
X79245000Y-53835000D01*
G37*
G36*
X81770000Y-53835000D02*
X80955000Y-53835000D01*
X80955000Y-53445000D01*
X81770000Y-53445000D01*
X81770000Y-53835000D01*
X81770000Y-53835000D01*
G37*
G36*
X47880000Y-53580000D02*
X47140000Y-53580000D01*
X47140000Y-53200000D01*
X47880000Y-53200000D01*
X47880000Y-53580000D01*
X47880000Y-53580000D01*
G37*
G36*
X44580000Y-53580000D02*
X43840000Y-53580000D01*
X43840000Y-53200000D01*
X44580000Y-53200000D01*
X44580000Y-53580000D01*
X44580000Y-53580000D01*
G37*
G36*
X77626200Y-53466200D02*
X76873800Y-53466200D01*
X76873800Y-52913800D01*
X77626200Y-52913800D01*
X77626200Y-53466200D01*
X77626200Y-53466200D01*
G37*
G36*
X35771200Y-53386200D02*
X34868800Y-53386200D01*
X34868800Y-52033800D01*
X35771200Y-52033800D01*
X35771200Y-53386200D01*
X35771200Y-53386200D01*
G37*
G36*
X81770000Y-53335000D02*
X80955000Y-53335000D01*
X80955000Y-52945000D01*
X81770000Y-52945000D01*
X81770000Y-53335000D01*
X81770000Y-53335000D01*
G37*
G36*
X79245000Y-53335000D02*
X78430000Y-53335000D01*
X78430000Y-52945000D01*
X79245000Y-52945000D01*
X79245000Y-53335000D01*
X79245000Y-53335000D01*
G37*
G36*
X40876200Y-53131200D02*
X39163800Y-53131200D01*
X39163800Y-52328800D01*
X40876200Y-52328800D01*
X40876200Y-53131200D01*
X40876200Y-53131200D01*
G37*
G36*
X38176200Y-53131200D02*
X36463800Y-53131200D01*
X36463800Y-52328800D01*
X38176200Y-52328800D01*
X38176200Y-53131200D01*
X38176200Y-53131200D01*
G37*
G36*
X47880000Y-53080000D02*
X47140000Y-53080000D01*
X47140000Y-52700000D01*
X47880000Y-52700000D01*
X47880000Y-53080000D01*
X47880000Y-53080000D01*
G37*
G36*
X44580000Y-53080000D02*
X43840000Y-53080000D01*
X43840000Y-52700000D01*
X44580000Y-52700000D01*
X44580000Y-53080000D01*
X44580000Y-53080000D01*
G37*
G36*
X52776200Y-52966200D02*
X52123800Y-52966200D01*
X52123800Y-52213800D01*
X52776200Y-52213800D01*
X52776200Y-52966200D01*
X52776200Y-52966200D01*
G37*
G36*
X45300000Y-52860000D02*
X44920000Y-52860000D01*
X44920000Y-52120000D01*
X45300000Y-52120000D01*
X45300000Y-52860000D01*
X45300000Y-52860000D01*
G37*
G36*
X46800000Y-52860000D02*
X46420000Y-52860000D01*
X46420000Y-52120000D01*
X46800000Y-52120000D01*
X46800000Y-52860000D01*
X46800000Y-52860000D01*
G37*
G36*
X79245000Y-52835000D02*
X78430000Y-52835000D01*
X78430000Y-52445000D01*
X79245000Y-52445000D01*
X79245000Y-52835000D01*
X79245000Y-52835000D01*
G37*
G36*
X81770000Y-52835000D02*
X80955000Y-52835000D01*
X80955000Y-52445000D01*
X81770000Y-52445000D01*
X81770000Y-52835000D01*
X81770000Y-52835000D01*
G37*
G36*
X77626200Y-52566200D02*
X76873800Y-52566200D01*
X76873800Y-52013800D01*
X77626200Y-52013800D01*
X77626200Y-52566200D01*
X77626200Y-52566200D01*
G37*
G36*
X54018072Y-51385943D02*
X54096891Y-51418591D01*
X54122933Y-51429378D01*
X54183728Y-51470000D01*
X54217307Y-51492437D01*
X54297563Y-51572693D01*
X54360623Y-51667069D01*
X54404057Y-51771928D01*
X54426200Y-51883249D01*
X54426200Y-51996751D01*
X54404057Y-52108072D01*
X54398466Y-52121569D01*
X54360622Y-52212933D01*
X54297564Y-52307306D01*
X54217306Y-52387564D01*
X54122933Y-52450622D01*
X54122932Y-52450623D01*
X54122931Y-52450623D01*
X54018072Y-52494057D01*
X53906751Y-52516200D01*
X53793249Y-52516200D01*
X53681928Y-52494057D01*
X53577069Y-52450623D01*
X53577068Y-52450623D01*
X53577067Y-52450622D01*
X53482694Y-52387564D01*
X53402436Y-52307306D01*
X53339378Y-52212933D01*
X53301534Y-52121569D01*
X53295943Y-52108072D01*
X53273800Y-51996751D01*
X53273800Y-51883249D01*
X53295943Y-51771928D01*
X53339377Y-51667069D01*
X53402437Y-51572693D01*
X53482693Y-51492437D01*
X53516272Y-51470000D01*
X53577067Y-51429378D01*
X53603109Y-51418591D01*
X53681928Y-51385943D01*
X53793249Y-51363800D01*
X53906751Y-51363800D01*
X54018072Y-51385943D01*
X54018072Y-51385943D01*
G37*
G36*
X30382951Y-51332137D02*
X30382954Y-51332138D01*
X30382955Y-51332138D01*
X30408421Y-51339863D01*
X30491568Y-51365085D01*
X30591670Y-51418591D01*
X30679406Y-51490594D01*
X30751409Y-51578330D01*
X30804915Y-51678432D01*
X30830137Y-51761579D01*
X30833277Y-51771929D01*
X30837863Y-51787049D01*
X30848988Y-51900000D01*
X30837863Y-52012951D01*
X30837862Y-52012954D01*
X30837862Y-52012955D01*
X30831539Y-52033800D01*
X30804915Y-52121568D01*
X30751409Y-52221670D01*
X30679406Y-52309406D01*
X30591670Y-52381409D01*
X30491568Y-52434915D01*
X30408421Y-52460137D01*
X30382955Y-52467862D01*
X30382954Y-52467862D01*
X30382951Y-52467863D01*
X30298303Y-52476200D01*
X30241697Y-52476200D01*
X30157049Y-52467863D01*
X30157046Y-52467862D01*
X30157045Y-52467862D01*
X30131579Y-52460137D01*
X30048432Y-52434915D01*
X29948330Y-52381409D01*
X29860594Y-52309406D01*
X29788591Y-52221670D01*
X29735085Y-52121568D01*
X29708461Y-52033800D01*
X29702138Y-52012955D01*
X29702138Y-52012954D01*
X29702137Y-52012951D01*
X29691012Y-51900000D01*
X29702137Y-51787049D01*
X29706724Y-51771929D01*
X29709863Y-51761579D01*
X29735085Y-51678432D01*
X29788591Y-51578330D01*
X29860594Y-51490594D01*
X29948330Y-51418591D01*
X30048432Y-51365085D01*
X30131579Y-51339863D01*
X30157045Y-51332138D01*
X30157046Y-51332138D01*
X30157049Y-51332137D01*
X30241697Y-51323800D01*
X30298303Y-51323800D01*
X30382951Y-51332137D01*
X30382951Y-51332137D01*
G37*
G36*
X29576200Y-52476200D02*
X28423800Y-52476200D01*
X28423800Y-51323800D01*
X29576200Y-51323800D01*
X29576200Y-52476200D01*
X29576200Y-52476200D01*
G37*
G36*
X69826200Y-52366200D02*
X68473800Y-52366200D01*
X68473800Y-51313800D01*
X69826200Y-51313800D01*
X69826200Y-52366200D01*
X69826200Y-52366200D01*
G37*
G36*
X67626200Y-52366200D02*
X66273800Y-52366200D01*
X66273800Y-51313800D01*
X67626200Y-51313800D01*
X67626200Y-52366200D01*
X67626200Y-52366200D01*
G37*
G36*
X79245000Y-52335000D02*
X78430000Y-52335000D01*
X78430000Y-51945000D01*
X79245000Y-51945000D01*
X79245000Y-52335000D01*
X79245000Y-52335000D01*
G37*
G36*
X81770000Y-52335000D02*
X80955000Y-52335000D01*
X80955000Y-51945000D01*
X81770000Y-51945000D01*
X81770000Y-52335000D01*
X81770000Y-52335000D01*
G37*
G36*
X79795000Y-52285000D02*
X79405000Y-52285000D01*
X79405000Y-51470000D01*
X79795000Y-51470000D01*
X79795000Y-52285000D01*
X79795000Y-52285000D01*
G37*
G36*
X80295000Y-52285000D02*
X79905000Y-52285000D01*
X79905000Y-51470000D01*
X80295000Y-51470000D01*
X80295000Y-52285000D01*
X80295000Y-52285000D01*
G37*
G36*
X80795000Y-52285000D02*
X80405000Y-52285000D01*
X80405000Y-51470000D01*
X80795000Y-51470000D01*
X80795000Y-52285000D01*
X80795000Y-52285000D01*
G37*
G36*
X52776200Y-51866200D02*
X52123800Y-51866200D01*
X52123800Y-51113800D01*
X52776200Y-51113800D01*
X52776200Y-51866200D01*
X52776200Y-51866200D01*
G37*
M02*
