G04 #@! TF.GenerationSoftware,KiCad,Pcbnew,5.0.1*
G04 #@! TF.CreationDate,2018-12-09T15:50:33-05:00*
G04 #@! TF.ProjectId,controller,636F6E74726F6C6C65722E6B69636164,rev?*
G04 #@! TF.SameCoordinates,Original*
G04 #@! TF.FileFunction,Copper,L1,Top,Signal*
G04 #@! TF.FilePolarity,Positive*
%FSLAX46Y46*%
G04 Gerber Fmt 4.6, Leading zero omitted, Abs format (unit mm)*
G04 Created by KiCad (PCBNEW 5.0.1) date Sun 09 Dec 2018 03:50:33 PM EST*
%MOMM*%
%LPD*%
G01*
G04 APERTURE LIST*
G04 #@! TA.AperFunction,SMDPad,CuDef*
%ADD10R,1.200000X0.900000*%
G04 #@! TD*
G04 #@! TA.AperFunction,SMDPad,CuDef*
%ADD11R,0.500000X0.600000*%
G04 #@! TD*
G04 #@! TA.AperFunction,SMDPad,CuDef*
%ADD12R,0.750000X1.200000*%
G04 #@! TD*
G04 #@! TA.AperFunction,SMDPad,CuDef*
%ADD13R,1.560000X0.650000*%
G04 #@! TD*
G04 #@! TA.AperFunction,SMDPad,CuDef*
%ADD14R,1.900000X0.800000*%
G04 #@! TD*
G04 #@! TA.AperFunction,SMDPad,CuDef*
%ADD15R,0.600000X0.500000*%
G04 #@! TD*
G04 #@! TA.AperFunction,SMDPad,CuDef*
%ADD16R,1.250000X1.500000*%
G04 #@! TD*
G04 #@! TA.AperFunction,ComponentPad*
%ADD17C,1.000000*%
G04 #@! TD*
G04 #@! TA.AperFunction,SMDPad,CuDef*
%ADD18R,0.400000X0.600000*%
G04 #@! TD*
G04 #@! TA.AperFunction,SMDPad,CuDef*
%ADD19R,0.600000X0.400000*%
G04 #@! TD*
G04 #@! TA.AperFunction,SMDPad,CuDef*
%ADD20R,0.900000X1.200000*%
G04 #@! TD*
G04 #@! TA.AperFunction,ComponentPad*
%ADD21R,1.700000X1.700000*%
G04 #@! TD*
G04 #@! TA.AperFunction,ComponentPad*
%ADD22R,1.000000X1.000000*%
G04 #@! TD*
G04 #@! TA.AperFunction,ComponentPad*
%ADD23O,1.000000X1.000000*%
G04 #@! TD*
G04 #@! TA.AperFunction,SMDPad,CuDef*
%ADD24R,0.675000X0.250000*%
G04 #@! TD*
G04 #@! TA.AperFunction,SMDPad,CuDef*
%ADD25R,0.250000X0.675000*%
G04 #@! TD*
G04 #@! TA.AperFunction,SMDPad,CuDef*
%ADD26R,0.600000X0.240000*%
G04 #@! TD*
G04 #@! TA.AperFunction,SMDPad,CuDef*
%ADD27R,0.240000X0.600000*%
G04 #@! TD*
G04 #@! TA.AperFunction,SMDPad,CuDef*
%ADD28R,2.050000X3.050000*%
G04 #@! TD*
G04 #@! TA.AperFunction,SMDPad,CuDef*
%ADD29R,0.740000X0.325000*%
G04 #@! TD*
G04 #@! TA.AperFunction,ViaPad*
%ADD30C,0.508000*%
G04 #@! TD*
G04 #@! TA.AperFunction,ViaPad*
%ADD31C,0.685800*%
G04 #@! TD*
G04 #@! TA.AperFunction,Conductor*
%ADD32C,0.254000*%
G04 #@! TD*
G04 #@! TA.AperFunction,Conductor*
%ADD33C,0.508000*%
G04 #@! TD*
G04 #@! TA.AperFunction,Conductor*
%ADD34C,0.152400*%
G04 #@! TD*
G04 #@! TA.AperFunction,Conductor*
%ADD35C,0.762000*%
G04 #@! TD*
G04 APERTURE END LIST*
D10*
G04 #@! TO.P,R13,2*
G04 #@! TO.N,Net-(J1-Pad1)*
X49930000Y-58440000D03*
G04 #@! TO.P,R13,1*
G04 #@! TO.N,/CAP*
X47730000Y-58440000D03*
G04 #@! TD*
G04 #@! TO.P,R3,2*
G04 #@! TO.N,GND*
X39840000Y-56320000D03*
G04 #@! TO.P,R3,1*
G04 #@! TO.N,/BOOT_EN*
X37640000Y-56320000D03*
G04 #@! TD*
D11*
G04 #@! TO.P,C10,1*
G04 #@! TO.N,Net-(C10-Pad1)*
X52450000Y-53490000D03*
G04 #@! TO.P,C10,2*
G04 #@! TO.N,GND*
X52450000Y-54590000D03*
G04 #@! TD*
D12*
G04 #@! TO.P,C18,2*
G04 #@! TO.N,GND*
X35320000Y-54610000D03*
G04 #@! TO.P,C18,1*
G04 #@! TO.N,Net-(C18-Pad1)*
X35320000Y-52710000D03*
G04 #@! TD*
D13*
G04 #@! TO.P,U5,5*
G04 #@! TO.N,Net-(U5-Pad5)*
X40020000Y-53680000D03*
G04 #@! TO.P,U5,6*
G04 #@! TO.N,/+VAUX*
X40020000Y-52730000D03*
G04 #@! TO.P,U5,4*
G04 #@! TO.N,Net-(C21-Pad1)*
X40020000Y-54630000D03*
G04 #@! TO.P,U5,3*
G04 #@! TO.N,/BOOT_EN*
X37320000Y-54630000D03*
G04 #@! TO.P,U5,2*
G04 #@! TO.N,GND*
X37320000Y-53680000D03*
G04 #@! TO.P,U5,1*
G04 #@! TO.N,Net-(C18-Pad1)*
X37320000Y-52730000D03*
G04 #@! TD*
D14*
G04 #@! TO.P,Q1,3*
G04 #@! TO.N,Net-(C18-Pad1)*
X30160000Y-55170000D03*
G04 #@! TO.P,Q1,2*
G04 #@! TO.N,Net-(J2-Pad1)*
X27160000Y-56120000D03*
G04 #@! TO.P,Q1,1*
G04 #@! TO.N,GND*
X27160000Y-54220000D03*
G04 #@! TD*
D15*
G04 #@! TO.P,C13,2*
G04 #@! TO.N,/+VAUX_F*
X79650000Y-55490000D03*
G04 #@! TO.P,C13,1*
G04 #@! TO.N,GND*
X80750000Y-55490000D03*
G04 #@! TD*
D11*
G04 #@! TO.P,C12,1*
G04 #@! TO.N,GND*
X83050000Y-55540000D03*
G04 #@! TO.P,C12,2*
G04 #@! TO.N,/+VAUX_F*
X83050000Y-54440000D03*
G04 #@! TD*
G04 #@! TO.P,C11,2*
G04 #@! TO.N,GND*
X52450000Y-51490000D03*
G04 #@! TO.P,C11,1*
G04 #@! TO.N,Net-(C11-Pad1)*
X52450000Y-52590000D03*
G04 #@! TD*
D15*
G04 #@! TO.P,C9,2*
G04 #@! TO.N,GND*
X51280000Y-55050000D03*
G04 #@! TO.P,C9,1*
G04 #@! TO.N,/+VBAT*
X50180000Y-55050000D03*
G04 #@! TD*
D12*
G04 #@! TO.P,C1,2*
G04 #@! TO.N,/+5V*
X73650000Y-56190000D03*
G04 #@! TO.P,C1,1*
G04 #@! TO.N,GND*
X73650000Y-58090000D03*
G04 #@! TD*
G04 #@! TO.P,C2,1*
G04 #@! TO.N,/+VAUX*
X66130000Y-55860000D03*
G04 #@! TO.P,C2,2*
G04 #@! TO.N,GND*
X66130000Y-57760000D03*
G04 #@! TD*
D16*
G04 #@! TO.P,C17,1*
G04 #@! TO.N,/SBWTDIO*
X59250000Y-55890000D03*
G04 #@! TO.P,C17,2*
G04 #@! TO.N,GND*
X59250000Y-58390000D03*
G04 #@! TD*
D17*
G04 #@! TO.P,Y1,2*
G04 #@! TO.N,Net-(C11-Pad1)*
X53850000Y-51940000D03*
G04 #@! TO.P,Y1,1*
G04 #@! TO.N,Net-(C10-Pad1)*
X53850000Y-53840000D03*
G04 #@! TD*
D18*
G04 #@! TO.P,R5,2*
G04 #@! TO.N,/+VAUX_F*
X83000000Y-56990000D03*
G04 #@! TO.P,R5,1*
G04 #@! TO.N,Net-(R5-Pad1)*
X82100000Y-56990000D03*
G04 #@! TD*
G04 #@! TO.P,R10,1*
G04 #@! TO.N,Net-(J3-Pad2)*
X34910000Y-57520000D03*
G04 #@! TO.P,R10,2*
G04 #@! TO.N,Net-(R10-Pad2)*
X35810000Y-57520000D03*
G04 #@! TD*
D19*
G04 #@! TO.P,R12,2*
G04 #@! TO.N,Net-(R12-Pad2)*
X77250000Y-52290000D03*
G04 #@! TO.P,R12,1*
G04 #@! TO.N,GND*
X77250000Y-53190000D03*
G04 #@! TD*
D18*
G04 #@! TO.P,R4,1*
G04 #@! TO.N,Net-(Q3-Pad1)*
X68800000Y-54640000D03*
G04 #@! TO.P,R4,2*
G04 #@! TO.N,/LED_EN*
X67900000Y-54640000D03*
G04 #@! TD*
G04 #@! TO.P,R9,1*
G04 #@! TO.N,Net-(J3-Pad1)*
X34920000Y-56530000D03*
G04 #@! TO.P,R9,2*
G04 #@! TO.N,Net-(R9-Pad2)*
X35820000Y-56530000D03*
G04 #@! TD*
D10*
G04 #@! TO.P,R1,2*
G04 #@! TO.N,Net-(Q3-Pad3)*
X72050000Y-54340000D03*
G04 #@! TO.P,R1,1*
G04 #@! TO.N,Net-(D1-Pad1)*
X74250000Y-54340000D03*
G04 #@! TD*
G04 #@! TO.P,R8,1*
G04 #@! TO.N,/GYRO_RDY*
X69150000Y-51840000D03*
G04 #@! TO.P,R8,2*
G04 #@! TO.N,Net-(R8-Pad2)*
X66950000Y-51840000D03*
G04 #@! TD*
D20*
G04 #@! TO.P,R11,2*
G04 #@! TO.N,/SBWTDIO*
X61150000Y-55940000D03*
G04 #@! TO.P,R11,1*
G04 #@! TO.N,/+VBAT*
X61150000Y-58140000D03*
G04 #@! TD*
D21*
G04 #@! TO.P,J1,1*
G04 #@! TO.N,Net-(J1-Pad1)*
X52250000Y-57840000D03*
G04 #@! TD*
D22*
G04 #@! TO.P,J2,1*
G04 #@! TO.N,Net-(J2-Pad1)*
X29000000Y-51900000D03*
D23*
G04 #@! TO.P,J2,2*
G04 #@! TO.N,GND*
X30270000Y-51900000D03*
G04 #@! TD*
G04 #@! TO.P,D1,2*
G04 #@! TO.N,/+5V*
X75630000Y-57840000D03*
D22*
G04 #@! TO.P,D1,1*
G04 #@! TO.N,Net-(D1-Pad1)*
X76900000Y-57840000D03*
G04 #@! TD*
D23*
G04 #@! TO.P,J3,3*
G04 #@! TO.N,GND*
X32140000Y-58300000D03*
G04 #@! TO.P,J3,2*
G04 #@! TO.N,Net-(J3-Pad2)*
X30870000Y-58300000D03*
D22*
G04 #@! TO.P,J3,1*
G04 #@! TO.N,Net-(J3-Pad1)*
X29600000Y-58300000D03*
G04 #@! TD*
D23*
G04 #@! TO.P,J4,4*
G04 #@! TO.N,GND*
X55580000Y-58110000D03*
G04 #@! TO.P,J4,3*
G04 #@! TO.N,/SBWTCK*
X56850000Y-58110000D03*
G04 #@! TO.P,J4,2*
G04 #@! TO.N,/SBWTDIO*
X55580000Y-56840000D03*
D22*
G04 #@! TO.P,J4,1*
G04 #@! TO.N,/+VBAT*
X56850000Y-56840000D03*
G04 #@! TD*
D14*
G04 #@! TO.P,Q3,3*
G04 #@! TO.N,Net-(Q3-Pad3)*
X71650000Y-56840000D03*
G04 #@! TO.P,Q3,2*
G04 #@! TO.N,GND*
X68650000Y-57790000D03*
G04 #@! TO.P,Q3,1*
G04 #@! TO.N,Net-(Q3-Pad1)*
X68650000Y-55890000D03*
G04 #@! TD*
D24*
G04 #@! TO.P,U4,1*
G04 #@! TO.N,Net-(R12-Pad2)*
X78837500Y-52140000D03*
G04 #@! TO.P,U4,2*
G04 #@! TO.N,Net-(U4-Pad2)*
X78837500Y-52640000D03*
G04 #@! TO.P,U4,3*
G04 #@! TO.N,Net-(U4-Pad3)*
X78837500Y-53140000D03*
G04 #@! TO.P,U4,4*
G04 #@! TO.N,/GYRO_RDY*
X78837500Y-53640000D03*
D25*
G04 #@! TO.P,U4,5*
G04 #@! TO.N,/+VAUX_F*
X79600000Y-53902500D03*
G04 #@! TO.P,U4,6*
G04 #@! TO.N,GND*
X80100000Y-53902500D03*
G04 #@! TO.P,U4,7*
X80600000Y-53902500D03*
D24*
G04 #@! TO.P,U4,8*
G04 #@! TO.N,/+VAUX_F*
X81362500Y-53640000D03*
G04 #@! TO.P,U4,9*
G04 #@! TO.N,Net-(U4-Pad9)*
X81362500Y-53140000D03*
G04 #@! TO.P,U4,10*
G04 #@! TO.N,Net-(U4-Pad10)*
X81362500Y-52640000D03*
G04 #@! TO.P,U4,11*
G04 #@! TO.N,Net-(U4-Pad11)*
X81362500Y-52140000D03*
D25*
G04 #@! TO.P,U4,12*
G04 #@! TO.N,/+VAUX_F*
X80600000Y-51877500D03*
G04 #@! TO.P,U4,13*
G04 #@! TO.N,/SCL*
X80100000Y-51877500D03*
G04 #@! TO.P,U4,14*
G04 #@! TO.N,/SDA*
X79600000Y-51877500D03*
G04 #@! TD*
D26*
G04 #@! TO.P,U3,2*
G04 #@! TO.N,Net-(U3-Pad2)*
X47510000Y-56390000D03*
G04 #@! TO.P,U3,3*
G04 #@! TO.N,/SBWTCK*
X47510000Y-55890000D03*
G04 #@! TO.P,U3,4*
G04 #@! TO.N,/SBWTDIO*
X47510000Y-55390000D03*
G04 #@! TO.P,U3,5*
G04 #@! TO.N,/+VBAT*
X47510000Y-54890000D03*
G04 #@! TO.P,U3,6*
G04 #@! TO.N,GND*
X47510000Y-54390000D03*
G04 #@! TO.P,U3,7*
G04 #@! TO.N,Net-(C10-Pad1)*
X47510000Y-53890000D03*
G04 #@! TO.P,U3,8*
G04 #@! TO.N,Net-(C11-Pad1)*
X47510000Y-53390000D03*
G04 #@! TO.P,U3,9*
G04 #@! TO.N,/SCL*
X47510000Y-52890000D03*
D27*
G04 #@! TO.P,U3,10*
G04 #@! TO.N,/SDA*
X46610000Y-52490000D03*
G04 #@! TO.P,U3,21*
G04 #@! TO.N,GND*
X46110000Y-52490000D03*
X45610000Y-52490000D03*
G04 #@! TO.P,U3,11*
G04 #@! TO.N,Net-(R8-Pad2)*
X45110000Y-52490000D03*
D26*
G04 #@! TO.P,U3,12*
G04 #@! TO.N,/BOOT_EN*
X44210000Y-52890000D03*
G04 #@! TO.P,U3,13*
G04 #@! TO.N,/LED_EN*
X44210000Y-53390000D03*
G04 #@! TO.P,U3,14*
G04 #@! TO.N,Net-(U3-Pad14)*
X44210000Y-53890000D03*
G04 #@! TO.P,U3,15*
G04 #@! TO.N,Net-(U3-Pad15)*
X44210000Y-54390000D03*
G04 #@! TO.P,U3,16*
G04 #@! TO.N,Net-(R9-Pad2)*
X44210000Y-54890000D03*
G04 #@! TO.P,U3,17*
G04 #@! TO.N,Net-(R10-Pad2)*
X44210000Y-55390000D03*
G04 #@! TO.P,U3,18*
G04 #@! TO.N,Net-(C14-Pad2)*
X44210000Y-55890000D03*
G04 #@! TO.P,U3,19*
G04 #@! TO.N,Net-(U3-Pad19)*
X44210000Y-56390000D03*
D27*
G04 #@! TO.P,U3,20*
G04 #@! TO.N,Net-(U3-Pad20)*
X45110000Y-56790000D03*
G04 #@! TO.P,U3,21*
G04 #@! TO.N,GND*
X45610000Y-56790000D03*
X46110000Y-56790000D03*
G04 #@! TO.P,U3,1*
G04 #@! TO.N,/CAP*
X46610000Y-56790000D03*
D28*
G04 #@! TO.P,U3,21*
G04 #@! TO.N,GND*
X45860000Y-54640000D03*
D29*
X45860000Y-52952500D03*
X45860000Y-56327500D03*
G04 #@! TD*
D30*
G04 #@! TO.N,/+VBAT*
X56297598Y-55279598D03*
D31*
X49477623Y-54961902D03*
X53360000Y-55270000D03*
D30*
G04 #@! TO.N,GND*
X52450000Y-54590000D03*
X59250000Y-58390000D03*
X45860000Y-54640000D03*
X45860000Y-55540000D03*
X63807516Y-57712111D03*
X73607516Y-58212111D03*
X76400000Y-53240000D03*
X45160000Y-53540000D03*
X63153115Y-54036885D03*
X64150000Y-51690000D03*
X80250000Y-52840000D03*
D31*
X40430000Y-56410000D03*
X35320000Y-54610000D03*
X44730000Y-58700000D03*
X41405302Y-58950000D03*
X68757516Y-56862111D03*
X63153115Y-55690000D03*
X79420000Y-59030000D03*
X82750000Y-52369698D03*
X49931780Y-54212461D03*
X52041157Y-55100690D03*
D30*
X55450000Y-54619188D03*
D31*
X55450000Y-52890000D03*
X51520000Y-51700000D03*
D30*
G04 #@! TO.N,/SCL*
X72750000Y-51694009D03*
X82750000Y-51590000D03*
D31*
X50369154Y-51850000D03*
X48810000Y-52700000D03*
D30*
G04 #@! TO.N,/SDA*
X46792099Y-51831894D03*
X74400000Y-51290000D03*
D31*
X48180000Y-51980000D03*
D30*
G04 #@! TO.N,Net-(R8-Pad2)*
X66900000Y-51090000D03*
X45084375Y-51309200D03*
D31*
G04 #@! TO.N,/BOOT_EN*
X41690000Y-52840000D03*
X37240000Y-55410000D03*
D30*
G04 #@! TO.N,/LED_EN*
X57200000Y-55140000D03*
D31*
X41761711Y-53764462D03*
X42280000Y-56540000D03*
X50841018Y-56915110D03*
D30*
G04 #@! TO.N,Net-(C14-Pad2)*
X42008961Y-55450994D03*
D31*
G04 #@! TO.N,/+VAUX*
X64730000Y-53970000D03*
X66130000Y-55860000D03*
D30*
G04 #@! TO.N,Net-(R5-Pad1)*
X81750000Y-57090000D03*
G04 #@! TO.N,/+5V*
X73607516Y-55712111D03*
D31*
G04 #@! TO.N,Net-(C18-Pad1)*
X32280000Y-53950000D03*
D30*
G04 #@! TO.N,/+VAUX_F*
X82350000Y-53240000D03*
D31*
X78120000Y-55260000D03*
G04 #@! TO.N,Net-(C21-Pad1)*
X38705518Y-52890119D03*
G04 #@! TD*
D32*
G04 #@! TO.N,/SBWTCK*
X56070000Y-58890000D02*
X56350001Y-58609999D01*
X50477192Y-56292808D02*
X51187673Y-56292808D01*
X56350001Y-58609999D02*
X56850000Y-58110000D01*
X54800599Y-58484113D02*
X55206486Y-58890000D01*
X51187673Y-56292808D02*
X51334865Y-56440000D01*
X55206486Y-58890000D02*
X56070000Y-58890000D01*
X54800599Y-58254784D02*
X54800599Y-58484113D01*
X52985815Y-56440000D02*
X54800599Y-58254784D01*
X51334865Y-56440000D02*
X52985815Y-56440000D01*
X49142808Y-56292808D02*
X50477192Y-56292808D01*
X47510000Y-55890000D02*
X48740000Y-55890000D01*
X48740000Y-55890000D02*
X49142808Y-56292808D01*
G04 #@! TO.N,/SBWTDIO*
X61100000Y-55890000D02*
X61150000Y-55940000D01*
X59250000Y-55890000D02*
X61100000Y-55890000D01*
X59250000Y-55890000D02*
X56081751Y-55890000D01*
X56081751Y-55890000D02*
X55580000Y-56391751D01*
X55580000Y-56391751D02*
X55580000Y-56840000D01*
X54763411Y-56023411D02*
X55080001Y-56340001D01*
X48954750Y-55390000D02*
X49451147Y-55886397D01*
X47510000Y-55390000D02*
X48954750Y-55390000D01*
X55080001Y-56340001D02*
X55580000Y-56840000D01*
X51356013Y-55886397D02*
X51493027Y-56023411D01*
X51493027Y-56023411D02*
X54763411Y-56023411D01*
X49451147Y-55886397D02*
X51356013Y-55886397D01*
G04 #@! TO.N,/+VBAT*
X61150000Y-57990000D02*
X61150000Y-58140000D01*
X60446000Y-57286000D02*
X61150000Y-57990000D01*
X58050000Y-57286000D02*
X60446000Y-57286000D01*
X57604000Y-56840000D02*
X58050000Y-57286000D01*
X56850000Y-56840000D02*
X57604000Y-56840000D01*
D33*
X55937796Y-55279598D02*
X55938388Y-55279598D01*
X55938388Y-55279598D02*
X56297598Y-55279598D01*
D32*
X47510000Y-54890000D02*
X48530000Y-54890000D01*
X48790000Y-54870000D02*
X47390000Y-54870000D01*
X48881902Y-54961902D02*
X49477623Y-54961902D01*
X48790000Y-54870000D02*
X48881902Y-54961902D01*
X50091902Y-54961902D02*
X50180000Y-55050000D01*
X49477623Y-54961902D02*
X50091902Y-54961902D01*
D33*
X53854531Y-55279598D02*
X55938388Y-55279598D01*
X53844933Y-55270000D02*
X53854531Y-55279598D01*
X53360000Y-55270000D02*
X53844933Y-55270000D01*
D32*
G04 #@! TO.N,GND*
X51450000Y-54090000D02*
X51950000Y-54090000D01*
X51950000Y-54090000D02*
X52450000Y-54590000D01*
X54224113Y-51160599D02*
X54629401Y-51565887D01*
X53283401Y-51160599D02*
X54224113Y-51160599D01*
X52450000Y-51490000D02*
X52954000Y-51490000D01*
X52954000Y-51490000D02*
X53283401Y-51160599D01*
X52954000Y-54590000D02*
X52450000Y-54590000D01*
X52983401Y-54619401D02*
X52954000Y-54590000D01*
X54629401Y-54310599D02*
X54320599Y-54619401D01*
X45610000Y-52702500D02*
X45860000Y-52952500D01*
X45610000Y-52490000D02*
X45610000Y-52702500D01*
X45860000Y-52952500D02*
X45860000Y-54640000D01*
X45610000Y-54890000D02*
X45860000Y-54640000D01*
X45610000Y-56790000D02*
X45610000Y-54890000D01*
X46110000Y-55790000D02*
X45860000Y-55540000D01*
X46110000Y-56790000D02*
X46110000Y-55790000D01*
X45860000Y-56327500D02*
X45860000Y-55540000D01*
X52450000Y-51490000D02*
X51946000Y-51490000D01*
X51946000Y-51490000D02*
X51579411Y-51123411D01*
X68650000Y-57790000D02*
X63885405Y-57790000D01*
X63885405Y-57790000D02*
X63807516Y-57712111D01*
D33*
X68950000Y-58090000D02*
X68650000Y-57790000D01*
X73650000Y-58090000D02*
X68950000Y-58090000D01*
D32*
X80100000Y-54840000D02*
X80750000Y-55490000D01*
X80100000Y-53902500D02*
X80100000Y-54840000D01*
X80600000Y-55340000D02*
X80750000Y-55490000D01*
X80600000Y-53902500D02*
X80600000Y-55340000D01*
X80800000Y-55540000D02*
X80750000Y-55490000D01*
X83050000Y-55540000D02*
X80800000Y-55540000D01*
X76450000Y-53190000D02*
X76400000Y-53240000D01*
X77250000Y-53190000D02*
X76450000Y-53190000D01*
X80600000Y-53902500D02*
X80600000Y-53390000D01*
X80100000Y-53902500D02*
X80100000Y-53590000D01*
X54320599Y-54619401D02*
X52983401Y-54619401D01*
X62006230Y-52890000D02*
X63153115Y-54036885D01*
X54629401Y-51565887D02*
X54629401Y-52890000D01*
X54629401Y-52890000D02*
X54629401Y-54310599D01*
D34*
X65700000Y-53240000D02*
X76400000Y-53240000D01*
X64150000Y-51690000D02*
X65700000Y-53240000D01*
D32*
X80600000Y-53390000D02*
X80600000Y-53190000D01*
X80600000Y-53190000D02*
X80250000Y-52840000D01*
X80100000Y-52990000D02*
X80250000Y-52840000D01*
X80100000Y-53902500D02*
X80100000Y-52990000D01*
D33*
X29803599Y-50993599D02*
X30160000Y-51350000D01*
X28174879Y-50993599D02*
X29803599Y-50993599D01*
X27160000Y-54220000D02*
X27160000Y-52008478D01*
X27160000Y-52008478D02*
X28174879Y-50993599D01*
D32*
X48064000Y-54390000D02*
X49230000Y-54390000D01*
X47510000Y-54390000D02*
X48064000Y-54390000D01*
X49100000Y-54390000D02*
X49230000Y-54390000D01*
X39770000Y-56310000D02*
X40330000Y-56310000D01*
X40330000Y-56310000D02*
X40430000Y-56410000D01*
X46110000Y-54390000D02*
X45860000Y-54640000D01*
X47510000Y-54390000D02*
X46110000Y-54390000D01*
X51579411Y-51123411D02*
X48010000Y-51123411D01*
X48010000Y-51123411D02*
X47716589Y-51123411D01*
X36250000Y-53680000D02*
X35320000Y-54610000D01*
X37320000Y-53680000D02*
X36250000Y-53680000D01*
X45610000Y-56790000D02*
X45610000Y-57820000D01*
X45610000Y-57820000D02*
X45320000Y-58110000D01*
X45320000Y-58110000D02*
X44730000Y-58700000D01*
D33*
X32790000Y-58950000D02*
X32140000Y-58300000D01*
X41405302Y-58950000D02*
X32790000Y-58950000D01*
X63855405Y-57760000D02*
X63807516Y-57712111D01*
X66130000Y-57760000D02*
X63855405Y-57760000D01*
X68757516Y-57682484D02*
X68650000Y-57790000D01*
X68757516Y-56862111D02*
X68757516Y-57682484D01*
X67469516Y-56862111D02*
X66970000Y-56362595D01*
X68757516Y-56862111D02*
X67469516Y-56862111D01*
X66970000Y-56362595D02*
X66970000Y-54993478D01*
X66830121Y-54853599D02*
X65429879Y-54853599D01*
X66970000Y-54993478D02*
X66830121Y-54853599D01*
X65429879Y-54853599D02*
X64593478Y-55690000D01*
X64593478Y-55690000D02*
X63153115Y-55690000D01*
D32*
X79904933Y-59030000D02*
X79934933Y-59000000D01*
X79420000Y-59030000D02*
X79904933Y-59030000D01*
X81992922Y-59000000D02*
X84400000Y-56592922D01*
X79934933Y-59000000D02*
X81992922Y-59000000D01*
X84400000Y-54019698D02*
X82750000Y-52369698D01*
X84400000Y-56592922D02*
X84400000Y-54019698D01*
X49322637Y-54297363D02*
X49846878Y-54297363D01*
X49846878Y-54297363D02*
X49931780Y-54212461D01*
X49230000Y-54390000D02*
X49322637Y-54297363D01*
X50054241Y-54090000D02*
X49931780Y-54212461D01*
X51450000Y-54090000D02*
X50054241Y-54090000D01*
X45470000Y-57960000D02*
X44730000Y-58700000D01*
X46110000Y-56790000D02*
X46110000Y-57960000D01*
X46110000Y-57960000D02*
X45470000Y-57960000D01*
X46126589Y-51123411D02*
X48010000Y-51123411D01*
X45886589Y-51123411D02*
X46126589Y-51123411D01*
X45610000Y-52490000D02*
X45610000Y-51400000D01*
X45610000Y-51400000D02*
X45886589Y-51123411D01*
X46110000Y-51140000D02*
X46126589Y-51123411D01*
X46110000Y-52490000D02*
X46110000Y-51140000D01*
X50442461Y-54212461D02*
X49931780Y-54212461D01*
X51280000Y-55050000D02*
X50442461Y-54212461D01*
X51280000Y-55050000D02*
X51990467Y-55050000D01*
X51990467Y-55050000D02*
X52041157Y-55100690D01*
X54629401Y-54310599D02*
X55141411Y-54310599D01*
X55141411Y-54310599D02*
X55196001Y-54365189D01*
X55196001Y-54365189D02*
X55450000Y-54619188D01*
X54629401Y-52890000D02*
X55450000Y-52890000D01*
D33*
X55450000Y-54619188D02*
X55450000Y-52890000D01*
D32*
X55450000Y-52890000D02*
X62006230Y-52890000D01*
D34*
X51730000Y-51490000D02*
X51520000Y-51700000D01*
X52450000Y-51490000D02*
X51730000Y-51490000D01*
D32*
G04 #@! TO.N,Net-(C10-Pad1)*
X53500000Y-53490000D02*
X53850000Y-53840000D01*
X52450000Y-53490000D02*
X53500000Y-53490000D01*
X48064000Y-53890000D02*
X49240000Y-53890000D01*
X47510000Y-53890000D02*
X48064000Y-53890000D01*
X49100000Y-53890000D02*
X49240000Y-53890000D01*
X49878656Y-53490000D02*
X51946000Y-53490000D01*
X49240000Y-53890000D02*
X49355286Y-53890000D01*
X49855834Y-53512822D02*
X49878656Y-53490000D01*
X49355286Y-53890000D02*
X49732464Y-53512822D01*
X49732464Y-53512822D02*
X49855834Y-53512822D01*
X51946000Y-53490000D02*
X52450000Y-53490000D01*
G04 #@! TO.N,Net-(C11-Pad1)*
X53200000Y-52590000D02*
X53850000Y-51940000D01*
X52450000Y-52590000D02*
X53200000Y-52590000D01*
X47510000Y-53390000D02*
X49221006Y-53390000D01*
X49221006Y-53390000D02*
X49504595Y-53106411D01*
X51946000Y-52590000D02*
X52450000Y-52590000D01*
X50203904Y-52590000D02*
X51946000Y-52590000D01*
X49504595Y-53106411D02*
X49687494Y-53106411D01*
X49687494Y-53106411D02*
X50203904Y-52590000D01*
G04 #@! TO.N,/SCL*
X47510000Y-52890000D02*
X47690000Y-52890000D01*
X79654000Y-50840000D02*
X74739434Y-50840000D01*
X73003999Y-51440010D02*
X72750000Y-51694009D01*
X80100000Y-51877500D02*
X80100000Y-51286000D01*
X73687410Y-50756599D02*
X73003999Y-51440010D01*
X74739434Y-50840000D02*
X74656033Y-50756599D01*
X74656033Y-50756599D02*
X73687410Y-50756599D01*
X80100000Y-51286000D02*
X79654000Y-50840000D01*
X82359210Y-50840000D02*
X79654000Y-50840000D01*
X82750000Y-51230790D02*
X82359210Y-50840000D01*
X82750000Y-51590000D02*
X82750000Y-51230790D01*
X48810000Y-52700000D02*
X49519154Y-52700000D01*
X49519154Y-52700000D02*
X50369154Y-51850000D01*
X48620000Y-52890000D02*
X48810000Y-52700000D01*
X47510000Y-52890000D02*
X48620000Y-52890000D01*
G04 #@! TO.N,/SDA*
X46714106Y-51831894D02*
X46792099Y-51831894D01*
X46610000Y-52490000D02*
X46610000Y-51936000D01*
X46610000Y-51936000D02*
X46714106Y-51831894D01*
X79600000Y-51665000D02*
X79600000Y-51877500D01*
X79016500Y-51286000D02*
X79221000Y-51286000D01*
X79012500Y-51290000D02*
X79016500Y-51286000D01*
X79221000Y-51286000D02*
X79600000Y-51665000D01*
X74400000Y-51290000D02*
X79012500Y-51290000D01*
X46940205Y-51980000D02*
X46792099Y-51831894D01*
X48180000Y-51980000D02*
X46940205Y-51980000D01*
D34*
G04 #@! TO.N,Net-(R8-Pad2)*
X66950000Y-51840000D02*
X66950000Y-51140000D01*
X66950000Y-51140000D02*
X66900000Y-51090000D01*
D32*
X45110000Y-51334825D02*
X45084375Y-51309200D01*
X45110000Y-52490000D02*
X45110000Y-51334825D01*
G04 #@! TO.N,/BOOT_EN*
X37240000Y-55980000D02*
X37570000Y-56310000D01*
X37240000Y-55410000D02*
X37240000Y-55980000D01*
X37240000Y-54710000D02*
X37320000Y-54630000D01*
X37240000Y-55410000D02*
X37240000Y-54710000D01*
X41740000Y-52890000D02*
X41690000Y-52840000D01*
X44210000Y-52890000D02*
X41740000Y-52890000D01*
D34*
G04 #@! TO.N,/LED_EN*
X43200000Y-53390000D02*
X42747600Y-53390000D01*
D32*
X42136173Y-53390000D02*
X41761711Y-53764462D01*
X43200000Y-53390000D02*
X42136173Y-53390000D01*
X42280000Y-56540000D02*
X42280000Y-58640000D01*
X42280000Y-58640000D02*
X43040000Y-59400000D01*
D34*
X65413363Y-54187600D02*
X67095200Y-54187600D01*
X67095200Y-54187600D02*
X67547600Y-54640000D01*
X57200000Y-55140000D02*
X57453999Y-54886001D01*
X64714963Y-54886001D02*
X65413363Y-54187600D01*
X67547600Y-54640000D02*
X67900000Y-54640000D01*
X57453999Y-54886001D02*
X64714963Y-54886001D01*
D32*
X43200000Y-53390000D02*
X44210000Y-53390000D01*
X44050000Y-59400000D02*
X44590000Y-59400000D01*
X43040000Y-59400000D02*
X44590000Y-59400000D01*
X49534890Y-56915110D02*
X50841018Y-56915110D01*
X49050599Y-57399401D02*
X49534890Y-56915110D01*
X49050599Y-58672323D02*
X49050599Y-57399401D01*
X48322922Y-59400000D02*
X49050599Y-58672323D01*
X44590000Y-59400000D02*
X48322922Y-59400000D01*
G04 #@! TO.N,Net-(R9-Pad2)*
X43200000Y-54890000D02*
X42777078Y-54890000D01*
X37224000Y-57480000D02*
X36274000Y-56530000D01*
X42273855Y-54386778D02*
X41567748Y-54386778D01*
X36274000Y-56530000D02*
X35820000Y-56530000D01*
X41079401Y-54875125D02*
X41079401Y-55178521D01*
X40241008Y-57480000D02*
X37224000Y-57480000D01*
X41052302Y-55205620D02*
X41052302Y-56668706D01*
X41052302Y-56668706D02*
X40241008Y-57480000D01*
X42777078Y-54890000D02*
X42273855Y-54386778D01*
X41567748Y-54386778D02*
X41079401Y-54875125D01*
X41079401Y-55178521D02*
X41052302Y-55205620D01*
X43200000Y-54890000D02*
X44210000Y-54890000D01*
G04 #@! TO.N,Net-(R10-Pad2)*
X42646000Y-55390000D02*
X42644274Y-55388274D01*
X43200000Y-55390000D02*
X42646000Y-55390000D01*
X36818000Y-58074000D02*
X36264000Y-57520000D01*
X40261759Y-58074000D02*
X36818000Y-58074000D01*
X41458713Y-56877046D02*
X40261759Y-58074000D01*
X41458713Y-55373960D02*
X41458713Y-56877046D01*
X41485812Y-55346861D02*
X41458713Y-55373960D01*
X41752930Y-54793188D02*
X41485812Y-55060306D01*
X36264000Y-57520000D02*
X35810000Y-57520000D01*
X42105515Y-54793188D02*
X41752930Y-54793188D01*
X42646000Y-55333673D02*
X42105515Y-54793188D01*
X41485812Y-55060306D02*
X41485812Y-55346861D01*
X42646000Y-55390000D02*
X42646000Y-55333673D01*
X43200000Y-55390000D02*
X44210000Y-55390000D01*
G04 #@! TO.N,Net-(C14-Pad2)*
X43200000Y-55890000D02*
X44210000Y-55890000D01*
X42008961Y-55450994D02*
X42447967Y-55890000D01*
X42447967Y-55890000D02*
X43200000Y-55890000D01*
G04 #@! TO.N,/CAP*
X46610000Y-58174000D02*
X46610000Y-57490000D01*
X46876000Y-58440000D02*
X46610000Y-58174000D01*
X47730000Y-58440000D02*
X46876000Y-58440000D01*
X46610000Y-56790000D02*
X46610000Y-57490000D01*
X46610000Y-57490000D02*
X46610000Y-57700000D01*
D33*
G04 #@! TO.N,/+VAUX*
X46164356Y-50560000D02*
X61320000Y-50560000D01*
X42648410Y-50556590D02*
X46160946Y-50556590D01*
X61320000Y-50560000D02*
X64387101Y-53627101D01*
X46160946Y-50556590D02*
X46164356Y-50560000D01*
X40020000Y-52730000D02*
X40475000Y-52730000D01*
X64387101Y-53627101D02*
X64730000Y-53970000D01*
X40475000Y-52730000D02*
X42648410Y-50556590D01*
D32*
G04 #@! TO.N,Net-(R5-Pad1)*
X82100000Y-56990000D02*
X81850000Y-56990000D01*
X81850000Y-56990000D02*
X81750000Y-57090000D01*
D33*
G04 #@! TO.N,Net-(J2-Pad1)*
X27710000Y-56120000D02*
X27160000Y-56120000D01*
X28618000Y-55212000D02*
X27710000Y-56120000D01*
X28618000Y-53290000D02*
X28618000Y-55212000D01*
X29000000Y-52908000D02*
X28618000Y-53290000D01*
X29000000Y-51900000D02*
X29000000Y-52908000D01*
D32*
G04 #@! TO.N,Net-(R12-Pad2)*
X77400000Y-52140000D02*
X78837500Y-52140000D01*
X77250000Y-52290000D02*
X77400000Y-52140000D01*
D34*
G04 #@! TO.N,/GYRO_RDY*
X76502400Y-52442400D02*
X76821399Y-52761399D01*
X78271399Y-53073899D02*
X78271399Y-53563799D01*
X69150000Y-51840000D02*
X69300000Y-51840000D01*
X69902400Y-52442400D02*
X76502400Y-52442400D01*
X69300000Y-51840000D02*
X69902400Y-52442400D01*
X76821399Y-52761399D02*
X77958899Y-52761399D01*
X77958899Y-52761399D02*
X78271399Y-53073899D01*
X78347600Y-53640000D02*
X78837500Y-53640000D01*
X78271399Y-53563799D02*
X78347600Y-53640000D01*
D33*
G04 #@! TO.N,Net-(Q3-Pad3)*
X71554339Y-56840000D02*
X71650000Y-56840000D01*
X70900000Y-56185661D02*
X71554339Y-56840000D01*
X72050000Y-54340000D02*
X72050000Y-54488561D01*
X70900000Y-55638561D02*
X70900000Y-56185661D01*
X72050000Y-54488561D02*
X70900000Y-55638561D01*
D32*
G04 #@! TO.N,Net-(Q3-Pad1)*
X68800000Y-55740000D02*
X68650000Y-55890000D01*
X68800000Y-54640000D02*
X68800000Y-55740000D01*
D33*
G04 #@! TO.N,/+5V*
X73980000Y-56190000D02*
X75630000Y-57840000D01*
X73650000Y-56190000D02*
X73980000Y-56190000D01*
D32*
G04 #@! TO.N,Net-(J3-Pad2)*
X33240566Y-57520000D02*
X34910000Y-57520000D01*
X33239967Y-57520599D02*
X33240566Y-57520000D01*
X30870000Y-58300000D02*
X31649401Y-57520599D01*
X31649401Y-57520599D02*
X33239967Y-57520599D01*
G04 #@! TO.N,Net-(J3-Pad1)*
X30031812Y-57114188D02*
X32935812Y-57114188D01*
X29600000Y-57546000D02*
X30031812Y-57114188D01*
X29600000Y-58300000D02*
X29600000Y-57546000D01*
X33520000Y-56530000D02*
X34920000Y-56530000D01*
X32935812Y-57114188D02*
X33520000Y-56530000D01*
D33*
G04 #@! TO.N,Net-(D1-Pad1)*
X74250000Y-54340000D02*
X74450000Y-54340000D01*
X76900000Y-55882000D02*
X76900000Y-56832000D01*
X75358000Y-54340000D02*
X76900000Y-55882000D01*
X76900000Y-56832000D02*
X76900000Y-57840000D01*
X74250000Y-54340000D02*
X75358000Y-54340000D01*
D32*
G04 #@! TO.N,Net-(J1-Pad1)*
X51650000Y-58440000D02*
X52250000Y-57840000D01*
X49930000Y-58440000D02*
X51650000Y-58440000D01*
D35*
G04 #@! TO.N,Net-(C18-Pad1)*
X30160000Y-55170000D02*
X31060000Y-55170000D01*
X31060000Y-55170000D02*
X32280000Y-53950000D01*
X33520000Y-52710000D02*
X32280000Y-53950000D01*
X35320000Y-52710000D02*
X33520000Y-52710000D01*
D33*
X37300000Y-52710000D02*
X37320000Y-52730000D01*
X35320000Y-52710000D02*
X37300000Y-52710000D01*
D32*
G04 #@! TO.N,/+VAUX_F*
X82250000Y-53640000D02*
X83050000Y-54440000D01*
X81362500Y-53640000D02*
X82250000Y-53640000D01*
X82250000Y-53240000D02*
X82250000Y-53640000D01*
X83000000Y-56890000D02*
X83000000Y-56990000D01*
X83579401Y-54465401D02*
X83579401Y-56310599D01*
X83554000Y-54440000D02*
X83579401Y-54465401D01*
X83050000Y-54440000D02*
X83554000Y-54440000D01*
X82250000Y-53240000D02*
X82350000Y-53240000D01*
X83579401Y-56310599D02*
X83000000Y-56890000D01*
X83000000Y-56990000D02*
X83000000Y-56436000D01*
X83000000Y-56436000D02*
X82583401Y-56019401D01*
X82583401Y-56019401D02*
X80229401Y-56019401D01*
X78350000Y-55490000D02*
X78120000Y-55260000D01*
X79650000Y-55490000D02*
X78350000Y-55490000D01*
X79600000Y-55440000D02*
X79650000Y-55490000D01*
X79600000Y-53902500D02*
X79600000Y-55440000D01*
X79700000Y-55490000D02*
X80229401Y-56019401D01*
X79650000Y-55490000D02*
X79700000Y-55490000D01*
X80979000Y-51286000D02*
X81372706Y-51286000D01*
X80600000Y-51877500D02*
X80600000Y-51665000D01*
X82127698Y-52040992D02*
X82127698Y-53117698D01*
X81372706Y-51286000D02*
X82127698Y-52040992D01*
X80600000Y-51665000D02*
X80979000Y-51286000D01*
X82127698Y-53117698D02*
X82250000Y-53240000D01*
G04 #@! TO.N,Net-(C21-Pad1)*
X38705518Y-54349518D02*
X38986000Y-54630000D01*
X38986000Y-54630000D02*
X40020000Y-54630000D01*
X38705518Y-52890119D02*
X38705518Y-54349518D01*
G04 #@! TD*
G04 #@! TO.N,GND*
G36*
X77925484Y-56237900D02*
X78204066Y-56237900D01*
X78274952Y-56252000D01*
X78274956Y-56252000D01*
X78349999Y-56266927D01*
X78425042Y-56252000D01*
X78973293Y-56252000D01*
X79102235Y-56338157D01*
X79350000Y-56387440D01*
X79519809Y-56387440D01*
X79637518Y-56505149D01*
X79680030Y-56568772D01*
X79743652Y-56611283D01*
X79782616Y-56637318D01*
X79932084Y-56737189D01*
X80154353Y-56781401D01*
X80154357Y-56781401D01*
X80229400Y-56796328D01*
X80304443Y-56781401D01*
X80915579Y-56781401D01*
X80861000Y-56913167D01*
X80861000Y-57266833D01*
X80996342Y-57593578D01*
X81246422Y-57843658D01*
X81573167Y-57979000D01*
X81926833Y-57979000D01*
X82027168Y-57937440D01*
X82300000Y-57937440D01*
X82547765Y-57888157D01*
X82550000Y-57886664D01*
X82552235Y-57888157D01*
X82800000Y-57937440D01*
X83200000Y-57937440D01*
X83447765Y-57888157D01*
X83657809Y-57747809D01*
X83798157Y-57537765D01*
X83847440Y-57290000D01*
X83847440Y-57120191D01*
X84065150Y-56902481D01*
X84128772Y-56859970D01*
X84175525Y-56790000D01*
X84239591Y-56694118D01*
X84288801Y-56620470D01*
X84288801Y-59288800D01*
X74238704Y-59288800D01*
X74384699Y-59228327D01*
X74563327Y-59049698D01*
X74660000Y-58816309D01*
X74660000Y-58431237D01*
X74811711Y-58658289D01*
X75187145Y-58909146D01*
X75518217Y-58975000D01*
X75741783Y-58975000D01*
X76072855Y-58909146D01*
X76090836Y-58897131D01*
X76152235Y-58938157D01*
X76400000Y-58987440D01*
X77400000Y-58987440D01*
X77647765Y-58938157D01*
X77857809Y-58797809D01*
X77998157Y-58587765D01*
X78047440Y-58340000D01*
X78047440Y-57340000D01*
X77998157Y-57092235D01*
X77857809Y-56882191D01*
X77789000Y-56836214D01*
X77789000Y-56181366D01*
X77925484Y-56237900D01*
X77925484Y-56237900D01*
G37*
X77925484Y-56237900D02*
X78204066Y-56237900D01*
X78274952Y-56252000D01*
X78274956Y-56252000D01*
X78349999Y-56266927D01*
X78425042Y-56252000D01*
X78973293Y-56252000D01*
X79102235Y-56338157D01*
X79350000Y-56387440D01*
X79519809Y-56387440D01*
X79637518Y-56505149D01*
X79680030Y-56568772D01*
X79743652Y-56611283D01*
X79782616Y-56637318D01*
X79932084Y-56737189D01*
X80154353Y-56781401D01*
X80154357Y-56781401D01*
X80229400Y-56796328D01*
X80304443Y-56781401D01*
X80915579Y-56781401D01*
X80861000Y-56913167D01*
X80861000Y-57266833D01*
X80996342Y-57593578D01*
X81246422Y-57843658D01*
X81573167Y-57979000D01*
X81926833Y-57979000D01*
X82027168Y-57937440D01*
X82300000Y-57937440D01*
X82547765Y-57888157D01*
X82550000Y-57886664D01*
X82552235Y-57888157D01*
X82800000Y-57937440D01*
X83200000Y-57937440D01*
X83447765Y-57888157D01*
X83657809Y-57747809D01*
X83798157Y-57537765D01*
X83847440Y-57290000D01*
X83847440Y-57120191D01*
X84065150Y-56902481D01*
X84128772Y-56859970D01*
X84175525Y-56790000D01*
X84239591Y-56694118D01*
X84288801Y-56620470D01*
X84288801Y-59288800D01*
X74238704Y-59288800D01*
X74384699Y-59228327D01*
X74563327Y-59049698D01*
X74660000Y-58816309D01*
X74660000Y-58431237D01*
X74811711Y-58658289D01*
X75187145Y-58909146D01*
X75518217Y-58975000D01*
X75741783Y-58975000D01*
X76072855Y-58909146D01*
X76090836Y-58897131D01*
X76152235Y-58938157D01*
X76400000Y-58987440D01*
X77400000Y-58987440D01*
X77647765Y-58938157D01*
X77857809Y-58797809D01*
X77998157Y-58587765D01*
X78047440Y-58340000D01*
X78047440Y-57340000D01*
X77998157Y-57092235D01*
X77857809Y-56882191D01*
X77789000Y-56836214D01*
X77789000Y-56181366D01*
X77925484Y-56237900D01*
G36*
X41518001Y-58564952D02*
X41503073Y-58640000D01*
X41562213Y-58937317D01*
X41683135Y-59118289D01*
X41730630Y-59189371D01*
X41794251Y-59231881D01*
X41851170Y-59288800D01*
X32696169Y-59288800D01*
X32700209Y-59287127D01*
X33035323Y-58997604D01*
X33234132Y-58601877D01*
X33109135Y-58427000D01*
X32267000Y-58427000D01*
X32267000Y-58447000D01*
X32013000Y-58447000D01*
X32013000Y-58427000D01*
X32001973Y-58427000D01*
X32027235Y-58300000D01*
X32023774Y-58282599D01*
X33164924Y-58282599D01*
X33239967Y-58297526D01*
X33315010Y-58282599D01*
X33315015Y-58282599D01*
X33318026Y-58282000D01*
X34258463Y-58282000D01*
X34462235Y-58418157D01*
X34710000Y-58467440D01*
X35110000Y-58467440D01*
X35357765Y-58418157D01*
X35360000Y-58416664D01*
X35362235Y-58418157D01*
X35610000Y-58467440D01*
X36010000Y-58467440D01*
X36113268Y-58446899D01*
X36226118Y-58559749D01*
X36268629Y-58623371D01*
X36332251Y-58665882D01*
X36520681Y-58791787D01*
X36520682Y-58791787D01*
X36520683Y-58791788D01*
X36742952Y-58836000D01*
X36742956Y-58836000D01*
X36817999Y-58850927D01*
X36893042Y-58836000D01*
X40186716Y-58836000D01*
X40261759Y-58850927D01*
X40336802Y-58836000D01*
X40336807Y-58836000D01*
X40559076Y-58791788D01*
X40811130Y-58623371D01*
X40853642Y-58559747D01*
X41518001Y-57895389D01*
X41518001Y-58564952D01*
X41518001Y-58564952D01*
G37*
X41518001Y-58564952D02*
X41503073Y-58640000D01*
X41562213Y-58937317D01*
X41683135Y-59118289D01*
X41730630Y-59189371D01*
X41794251Y-59231881D01*
X41851170Y-59288800D01*
X32696169Y-59288800D01*
X32700209Y-59287127D01*
X33035323Y-58997604D01*
X33234132Y-58601877D01*
X33109135Y-58427000D01*
X32267000Y-58427000D01*
X32267000Y-58447000D01*
X32013000Y-58447000D01*
X32013000Y-58427000D01*
X32001973Y-58427000D01*
X32027235Y-58300000D01*
X32023774Y-58282599D01*
X33164924Y-58282599D01*
X33239967Y-58297526D01*
X33315010Y-58282599D01*
X33315015Y-58282599D01*
X33318026Y-58282000D01*
X34258463Y-58282000D01*
X34462235Y-58418157D01*
X34710000Y-58467440D01*
X35110000Y-58467440D01*
X35357765Y-58418157D01*
X35360000Y-58416664D01*
X35362235Y-58418157D01*
X35610000Y-58467440D01*
X36010000Y-58467440D01*
X36113268Y-58446899D01*
X36226118Y-58559749D01*
X36268629Y-58623371D01*
X36332251Y-58665882D01*
X36520681Y-58791787D01*
X36520682Y-58791787D01*
X36520683Y-58791788D01*
X36742952Y-58836000D01*
X36742956Y-58836000D01*
X36817999Y-58850927D01*
X36893042Y-58836000D01*
X40186716Y-58836000D01*
X40261759Y-58850927D01*
X40336802Y-58836000D01*
X40336807Y-58836000D01*
X40559076Y-58791788D01*
X40811130Y-58623371D01*
X40853642Y-58559747D01*
X41518001Y-57895389D01*
X41518001Y-58564952D01*
G36*
X34310000Y-53883691D02*
X34310000Y-54324250D01*
X34468750Y-54483000D01*
X35193000Y-54483000D01*
X35193000Y-54463000D01*
X35447000Y-54463000D01*
X35447000Y-54483000D01*
X35467000Y-54483000D01*
X35467000Y-54737000D01*
X35447000Y-54737000D01*
X35447000Y-54757000D01*
X35193000Y-54757000D01*
X35193000Y-54737000D01*
X34468750Y-54737000D01*
X34310000Y-54895750D01*
X34310000Y-55336309D01*
X34406673Y-55569698D01*
X34470186Y-55633212D01*
X34268463Y-55768000D01*
X33595047Y-55768000D01*
X33520000Y-55753072D01*
X33444953Y-55768000D01*
X33444952Y-55768000D01*
X33222683Y-55812212D01*
X33103507Y-55891843D01*
X33036311Y-55936742D01*
X32970629Y-55980629D01*
X32928118Y-56044251D01*
X32620182Y-56352188D01*
X30106854Y-56352188D01*
X30031811Y-56337261D01*
X29956768Y-56352188D01*
X29956764Y-56352188D01*
X29734495Y-56396400D01*
X29734494Y-56396401D01*
X29734493Y-56396401D01*
X29675229Y-56436000D01*
X29482441Y-56564817D01*
X29439928Y-56628442D01*
X29114252Y-56954118D01*
X29050630Y-56996629D01*
X29008119Y-57060251D01*
X29008118Y-57060252D01*
X28922903Y-57187786D01*
X28852235Y-57201843D01*
X28642191Y-57342191D01*
X28501843Y-57552235D01*
X28452560Y-57800000D01*
X28452560Y-58800000D01*
X28501843Y-59047765D01*
X28642191Y-59257809D01*
X28688572Y-59288800D01*
X25711200Y-59288800D01*
X25711200Y-56916462D01*
X25752191Y-56977809D01*
X25962235Y-57118157D01*
X26210000Y-57167440D01*
X28110000Y-57167440D01*
X28357765Y-57118157D01*
X28567809Y-56977809D01*
X28708157Y-56767765D01*
X28757440Y-56520000D01*
X28757440Y-56329795D01*
X28936365Y-56150871D01*
X28962235Y-56168157D01*
X29210000Y-56217440D01*
X31110000Y-56217440D01*
X31357765Y-56168157D01*
X31403542Y-56137570D01*
X31456423Y-56127051D01*
X31792495Y-55902495D01*
X31849179Y-55817661D01*
X33069177Y-54597664D01*
X33069179Y-54597661D01*
X33940841Y-53726000D01*
X34375318Y-53726000D01*
X34310000Y-53883691D01*
X34310000Y-53883691D01*
G37*
X34310000Y-53883691D02*
X34310000Y-54324250D01*
X34468750Y-54483000D01*
X35193000Y-54483000D01*
X35193000Y-54463000D01*
X35447000Y-54463000D01*
X35447000Y-54483000D01*
X35467000Y-54483000D01*
X35467000Y-54737000D01*
X35447000Y-54737000D01*
X35447000Y-54757000D01*
X35193000Y-54757000D01*
X35193000Y-54737000D01*
X34468750Y-54737000D01*
X34310000Y-54895750D01*
X34310000Y-55336309D01*
X34406673Y-55569698D01*
X34470186Y-55633212D01*
X34268463Y-55768000D01*
X33595047Y-55768000D01*
X33520000Y-55753072D01*
X33444953Y-55768000D01*
X33444952Y-55768000D01*
X33222683Y-55812212D01*
X33103507Y-55891843D01*
X33036311Y-55936742D01*
X32970629Y-55980629D01*
X32928118Y-56044251D01*
X32620182Y-56352188D01*
X30106854Y-56352188D01*
X30031811Y-56337261D01*
X29956768Y-56352188D01*
X29956764Y-56352188D01*
X29734495Y-56396400D01*
X29734494Y-56396401D01*
X29734493Y-56396401D01*
X29675229Y-56436000D01*
X29482441Y-56564817D01*
X29439928Y-56628442D01*
X29114252Y-56954118D01*
X29050630Y-56996629D01*
X29008119Y-57060251D01*
X29008118Y-57060252D01*
X28922903Y-57187786D01*
X28852235Y-57201843D01*
X28642191Y-57342191D01*
X28501843Y-57552235D01*
X28452560Y-57800000D01*
X28452560Y-58800000D01*
X28501843Y-59047765D01*
X28642191Y-59257809D01*
X28688572Y-59288800D01*
X25711200Y-59288800D01*
X25711200Y-56916462D01*
X25752191Y-56977809D01*
X25962235Y-57118157D01*
X26210000Y-57167440D01*
X28110000Y-57167440D01*
X28357765Y-57118157D01*
X28567809Y-56977809D01*
X28708157Y-56767765D01*
X28757440Y-56520000D01*
X28757440Y-56329795D01*
X28936365Y-56150871D01*
X28962235Y-56168157D01*
X29210000Y-56217440D01*
X31110000Y-56217440D01*
X31357765Y-56168157D01*
X31403542Y-56137570D01*
X31456423Y-56127051D01*
X31792495Y-55902495D01*
X31849179Y-55817661D01*
X33069177Y-54597664D01*
X33069179Y-54597661D01*
X33940841Y-53726000D01*
X34375318Y-53726000D01*
X34310000Y-53883691D01*
G36*
X65107560Y-56460000D02*
X65156843Y-56707765D01*
X65217873Y-56799102D01*
X65216673Y-56800302D01*
X65120000Y-57033691D01*
X65120000Y-57474250D01*
X65278750Y-57633000D01*
X66003000Y-57633000D01*
X66003000Y-57613000D01*
X66257000Y-57613000D01*
X66257000Y-57633000D01*
X66981250Y-57633000D01*
X67087500Y-57526750D01*
X67223750Y-57663000D01*
X68523000Y-57663000D01*
X68523000Y-57643000D01*
X68777000Y-57643000D01*
X68777000Y-57663000D01*
X70076250Y-57663000D01*
X70161781Y-57577469D01*
X70242191Y-57697809D01*
X70452235Y-57838157D01*
X70700000Y-57887440D01*
X72600000Y-57887440D01*
X72702752Y-57867002D01*
X72798750Y-57963000D01*
X73523000Y-57963000D01*
X73523000Y-57943000D01*
X73777000Y-57943000D01*
X73777000Y-57963000D01*
X73797000Y-57963000D01*
X73797000Y-58217000D01*
X73777000Y-58217000D01*
X73777000Y-58237000D01*
X73523000Y-58237000D01*
X73523000Y-58217000D01*
X72798750Y-58217000D01*
X72640000Y-58375750D01*
X72640000Y-58816309D01*
X72736673Y-59049698D01*
X72915301Y-59228327D01*
X73061296Y-59288800D01*
X61921632Y-59288800D01*
X62057809Y-59197809D01*
X62198157Y-58987765D01*
X62247440Y-58740000D01*
X62247440Y-58045750D01*
X65120000Y-58045750D01*
X65120000Y-58486309D01*
X65216673Y-58719698D01*
X65395301Y-58898327D01*
X65628690Y-58995000D01*
X65844250Y-58995000D01*
X66003000Y-58836250D01*
X66003000Y-57887000D01*
X66257000Y-57887000D01*
X66257000Y-58836250D01*
X66415750Y-58995000D01*
X66631310Y-58995000D01*
X66864699Y-58898327D01*
X67043327Y-58719698D01*
X67137708Y-58491842D01*
X67161673Y-58549699D01*
X67340302Y-58728327D01*
X67573691Y-58825000D01*
X68364250Y-58825000D01*
X68523000Y-58666250D01*
X68523000Y-57917000D01*
X68777000Y-57917000D01*
X68777000Y-58666250D01*
X68935750Y-58825000D01*
X69726309Y-58825000D01*
X69959698Y-58728327D01*
X70138327Y-58549699D01*
X70235000Y-58316310D01*
X70235000Y-58075750D01*
X70076250Y-57917000D01*
X68777000Y-57917000D01*
X68523000Y-57917000D01*
X67223750Y-57917000D01*
X67117500Y-58023250D01*
X66981250Y-57887000D01*
X66257000Y-57887000D01*
X66003000Y-57887000D01*
X65278750Y-57887000D01*
X65120000Y-58045750D01*
X62247440Y-58045750D01*
X62247440Y-57540000D01*
X62198157Y-57292235D01*
X62057809Y-57082191D01*
X61994666Y-57040000D01*
X62057809Y-56997809D01*
X62198157Y-56787765D01*
X62247440Y-56540000D01*
X62247440Y-55597201D01*
X64644922Y-55597201D01*
X64714963Y-55611133D01*
X64785005Y-55597201D01*
X64785009Y-55597201D01*
X64992459Y-55555937D01*
X65107560Y-55479028D01*
X65107560Y-56460000D01*
X65107560Y-56460000D01*
G37*
X65107560Y-56460000D02*
X65156843Y-56707765D01*
X65217873Y-56799102D01*
X65216673Y-56800302D01*
X65120000Y-57033691D01*
X65120000Y-57474250D01*
X65278750Y-57633000D01*
X66003000Y-57633000D01*
X66003000Y-57613000D01*
X66257000Y-57613000D01*
X66257000Y-57633000D01*
X66981250Y-57633000D01*
X67087500Y-57526750D01*
X67223750Y-57663000D01*
X68523000Y-57663000D01*
X68523000Y-57643000D01*
X68777000Y-57643000D01*
X68777000Y-57663000D01*
X70076250Y-57663000D01*
X70161781Y-57577469D01*
X70242191Y-57697809D01*
X70452235Y-57838157D01*
X70700000Y-57887440D01*
X72600000Y-57887440D01*
X72702752Y-57867002D01*
X72798750Y-57963000D01*
X73523000Y-57963000D01*
X73523000Y-57943000D01*
X73777000Y-57943000D01*
X73777000Y-57963000D01*
X73797000Y-57963000D01*
X73797000Y-58217000D01*
X73777000Y-58217000D01*
X73777000Y-58237000D01*
X73523000Y-58237000D01*
X73523000Y-58217000D01*
X72798750Y-58217000D01*
X72640000Y-58375750D01*
X72640000Y-58816309D01*
X72736673Y-59049698D01*
X72915301Y-59228327D01*
X73061296Y-59288800D01*
X61921632Y-59288800D01*
X62057809Y-59197809D01*
X62198157Y-58987765D01*
X62247440Y-58740000D01*
X62247440Y-58045750D01*
X65120000Y-58045750D01*
X65120000Y-58486309D01*
X65216673Y-58719698D01*
X65395301Y-58898327D01*
X65628690Y-58995000D01*
X65844250Y-58995000D01*
X66003000Y-58836250D01*
X66003000Y-57887000D01*
X66257000Y-57887000D01*
X66257000Y-58836250D01*
X66415750Y-58995000D01*
X66631310Y-58995000D01*
X66864699Y-58898327D01*
X67043327Y-58719698D01*
X67137708Y-58491842D01*
X67161673Y-58549699D01*
X67340302Y-58728327D01*
X67573691Y-58825000D01*
X68364250Y-58825000D01*
X68523000Y-58666250D01*
X68523000Y-57917000D01*
X68777000Y-57917000D01*
X68777000Y-58666250D01*
X68935750Y-58825000D01*
X69726309Y-58825000D01*
X69959698Y-58728327D01*
X70138327Y-58549699D01*
X70235000Y-58316310D01*
X70235000Y-58075750D01*
X70076250Y-57917000D01*
X68777000Y-57917000D01*
X68523000Y-57917000D01*
X67223750Y-57917000D01*
X67117500Y-58023250D01*
X66981250Y-57887000D01*
X66257000Y-57887000D01*
X66003000Y-57887000D01*
X65278750Y-57887000D01*
X65120000Y-58045750D01*
X62247440Y-58045750D01*
X62247440Y-57540000D01*
X62198157Y-57292235D01*
X62057809Y-57082191D01*
X61994666Y-57040000D01*
X62057809Y-56997809D01*
X62198157Y-56787765D01*
X62247440Y-56540000D01*
X62247440Y-55597201D01*
X64644922Y-55597201D01*
X64714963Y-55611133D01*
X64785005Y-55597201D01*
X64785009Y-55597201D01*
X64992459Y-55555937D01*
X65107560Y-55479028D01*
X65107560Y-56460000D01*
G36*
X58148750Y-58263000D02*
X59123000Y-58263000D01*
X59123000Y-58243000D01*
X59377000Y-58243000D01*
X59377000Y-58263000D01*
X59397000Y-58263000D01*
X59397000Y-58517000D01*
X59377000Y-58517000D01*
X59377000Y-58537000D01*
X59123000Y-58537000D01*
X59123000Y-58517000D01*
X58148750Y-58517000D01*
X57990000Y-58675750D01*
X57990000Y-59266309D01*
X57999316Y-59288800D01*
X56748830Y-59288800D01*
X56792630Y-59245000D01*
X56961783Y-59245000D01*
X57292855Y-59179146D01*
X57668289Y-58928289D01*
X57919146Y-58552855D01*
X58005330Y-58119580D01*
X58148750Y-58263000D01*
X58148750Y-58263000D01*
G37*
X58148750Y-58263000D02*
X59123000Y-58263000D01*
X59123000Y-58243000D01*
X59377000Y-58243000D01*
X59377000Y-58263000D01*
X59397000Y-58263000D01*
X59397000Y-58517000D01*
X59377000Y-58517000D01*
X59377000Y-58537000D01*
X59123000Y-58537000D01*
X59123000Y-58517000D01*
X58148750Y-58517000D01*
X57990000Y-58675750D01*
X57990000Y-59266309D01*
X57999316Y-59288800D01*
X56748830Y-59288800D01*
X56792630Y-59245000D01*
X56961783Y-59245000D01*
X57292855Y-59179146D01*
X57668289Y-58928289D01*
X57919146Y-58552855D01*
X58005330Y-58119580D01*
X58148750Y-58263000D01*
G36*
X43311843Y-56757765D02*
X43452191Y-56967809D01*
X43662235Y-57108157D01*
X43910000Y-57157440D01*
X44355975Y-57157440D01*
X44391843Y-57337765D01*
X44532191Y-57547809D01*
X44742235Y-57688157D01*
X44990000Y-57737440D01*
X45230000Y-57737440D01*
X45340608Y-57715439D01*
X45363691Y-57725000D01*
X45391250Y-57725000D01*
X45415759Y-57700491D01*
X45477765Y-57688157D01*
X45605069Y-57603094D01*
X45630302Y-57628327D01*
X45804043Y-57700293D01*
X45828750Y-57725000D01*
X45848000Y-57725000D01*
X45848000Y-58098957D01*
X45833073Y-58174000D01*
X45848000Y-58249043D01*
X45848000Y-58249047D01*
X45892212Y-58471316D01*
X46003586Y-58638000D01*
X43355631Y-58638000D01*
X43042000Y-58324370D01*
X43042000Y-57160959D01*
X43109023Y-57093936D01*
X43257900Y-56734516D01*
X43257900Y-56652000D01*
X43290805Y-56652000D01*
X43311843Y-56757765D01*
X43311843Y-56757765D01*
G37*
X43311843Y-56757765D02*
X43452191Y-56967809D01*
X43662235Y-57108157D01*
X43910000Y-57157440D01*
X44355975Y-57157440D01*
X44391843Y-57337765D01*
X44532191Y-57547809D01*
X44742235Y-57688157D01*
X44990000Y-57737440D01*
X45230000Y-57737440D01*
X45340608Y-57715439D01*
X45363691Y-57725000D01*
X45391250Y-57725000D01*
X45415759Y-57700491D01*
X45477765Y-57688157D01*
X45605069Y-57603094D01*
X45630302Y-57628327D01*
X45804043Y-57700293D01*
X45828750Y-57725000D01*
X45848000Y-57725000D01*
X45848000Y-58098957D01*
X45833073Y-58174000D01*
X45848000Y-58249043D01*
X45848000Y-58249047D01*
X45892212Y-58471316D01*
X46003586Y-58638000D01*
X43355631Y-58638000D01*
X43042000Y-58324370D01*
X43042000Y-57160959D01*
X43109023Y-57093936D01*
X43257900Y-56734516D01*
X43257900Y-56652000D01*
X43290805Y-56652000D01*
X43311843Y-56757765D01*
G36*
X55707000Y-57983000D02*
X55718027Y-57983000D01*
X55692765Y-58110000D01*
X55696345Y-58128000D01*
X55552308Y-58128000D01*
X55521875Y-57975000D01*
X55691783Y-57975000D01*
X55707000Y-57971973D01*
X55707000Y-57983000D01*
X55707000Y-57983000D01*
G37*
X55707000Y-57983000D02*
X55718027Y-57983000D01*
X55692765Y-58110000D01*
X55696345Y-58128000D01*
X55552308Y-58128000D01*
X55521875Y-57975000D01*
X55691783Y-57975000D01*
X55707000Y-57971973D01*
X55707000Y-57983000D01*
G36*
X67242191Y-56747809D02*
X67375694Y-56837013D01*
X67340302Y-56851673D01*
X67161673Y-57030301D01*
X67140000Y-57082624D01*
X67140000Y-57033691D01*
X67043327Y-56800302D01*
X67042127Y-56799102D01*
X67103157Y-56707765D01*
X67128913Y-56578278D01*
X67242191Y-56747809D01*
X67242191Y-56747809D01*
G37*
X67242191Y-56747809D02*
X67375694Y-56837013D01*
X67340302Y-56851673D01*
X67161673Y-57030301D01*
X67140000Y-57082624D01*
X67140000Y-57033691D01*
X67043327Y-56800302D01*
X67042127Y-56799102D01*
X67103157Y-56707765D01*
X67128913Y-56578278D01*
X67242191Y-56747809D01*
G36*
X39967000Y-56193000D02*
X39987000Y-56193000D01*
X39987000Y-56447000D01*
X39967000Y-56447000D01*
X39967000Y-56467000D01*
X39713000Y-56467000D01*
X39713000Y-56447000D01*
X39693000Y-56447000D01*
X39693000Y-56193000D01*
X39713000Y-56193000D01*
X39713000Y-56173000D01*
X39967000Y-56173000D01*
X39967000Y-56193000D01*
X39967000Y-56193000D01*
G37*
X39967000Y-56193000D02*
X39987000Y-56193000D01*
X39987000Y-56447000D01*
X39967000Y-56447000D01*
X39967000Y-56467000D01*
X39713000Y-56467000D01*
X39713000Y-56447000D01*
X39693000Y-56447000D01*
X39693000Y-56193000D01*
X39713000Y-56193000D01*
X39713000Y-56173000D01*
X39967000Y-56173000D01*
X39967000Y-56193000D01*
G36*
X66045571Y-50829705D02*
X65892191Y-50932191D01*
X65751843Y-51142235D01*
X65702560Y-51390000D01*
X65702560Y-52290000D01*
X65751843Y-52537765D01*
X65892191Y-52747809D01*
X66102235Y-52888157D01*
X66350000Y-52937440D01*
X67550000Y-52937440D01*
X67797765Y-52888157D01*
X68007809Y-52747809D01*
X68050000Y-52684666D01*
X68092191Y-52747809D01*
X68302235Y-52888157D01*
X68550000Y-52937440D01*
X69377823Y-52937440D01*
X69389654Y-52955146D01*
X69449033Y-52994822D01*
X69449035Y-52994824D01*
X69624902Y-53112335D01*
X69624903Y-53112335D01*
X69624904Y-53112336D01*
X69832354Y-53153600D01*
X69832357Y-53153600D01*
X69902399Y-53167532D01*
X69972441Y-53153600D01*
X76207812Y-53153600D01*
X76268975Y-53214763D01*
X76308653Y-53274145D01*
X76315000Y-53278386D01*
X76315000Y-53317002D01*
X76372793Y-53317002D01*
X76417126Y-53346624D01*
X76315000Y-53448750D01*
X76315000Y-53516309D01*
X76411673Y-53749698D01*
X76590301Y-53928327D01*
X76823690Y-54025000D01*
X76964250Y-54025000D01*
X77123000Y-53866250D01*
X77123000Y-53472599D01*
X77377000Y-53472599D01*
X77377000Y-53866250D01*
X77535750Y-54025000D01*
X77676310Y-54025000D01*
X77713828Y-54009460D01*
X77718975Y-54017163D01*
X77718977Y-54017165D01*
X77758654Y-54076545D01*
X77804331Y-54107066D01*
X77834854Y-54152746D01*
X78028445Y-54282100D01*
X77925484Y-54282100D01*
X77566064Y-54430977D01*
X77290977Y-54706064D01*
X77200274Y-54925039D01*
X76048531Y-53773296D01*
X75998933Y-53699067D01*
X75704870Y-53502581D01*
X75445556Y-53451000D01*
X75445555Y-53451000D01*
X75358000Y-53433584D01*
X75314519Y-53442233D01*
X75307809Y-53432191D01*
X75097765Y-53291843D01*
X74850000Y-53242560D01*
X73650000Y-53242560D01*
X73402235Y-53291843D01*
X73192191Y-53432191D01*
X73150000Y-53495334D01*
X73107809Y-53432191D01*
X72897765Y-53291843D01*
X72650000Y-53242560D01*
X71450000Y-53242560D01*
X71202235Y-53291843D01*
X70992191Y-53432191D01*
X70851843Y-53642235D01*
X70802560Y-53890000D01*
X70802560Y-54478766D01*
X70333296Y-54948030D01*
X70259067Y-54997628D01*
X70146892Y-55165511D01*
X70057809Y-55032191D01*
X69847765Y-54891843D01*
X69647440Y-54851996D01*
X69647440Y-54340000D01*
X69598157Y-54092235D01*
X69457809Y-53882191D01*
X69247765Y-53741843D01*
X69000000Y-53692560D01*
X68600000Y-53692560D01*
X68352235Y-53741843D01*
X68350000Y-53743336D01*
X68347765Y-53741843D01*
X68100000Y-53692560D01*
X67700000Y-53692560D01*
X67629188Y-53706645D01*
X67607946Y-53674854D01*
X67372696Y-53517664D01*
X67165246Y-53476400D01*
X67165241Y-53476400D01*
X67095200Y-53462468D01*
X67025159Y-53476400D01*
X65584015Y-53476400D01*
X65559023Y-53416064D01*
X65283936Y-53140977D01*
X65069313Y-53052077D01*
X62728435Y-50711200D01*
X66094657Y-50711200D01*
X66045571Y-50829705D01*
X66045571Y-50829705D01*
G37*
X66045571Y-50829705D02*
X65892191Y-50932191D01*
X65751843Y-51142235D01*
X65702560Y-51390000D01*
X65702560Y-52290000D01*
X65751843Y-52537765D01*
X65892191Y-52747809D01*
X66102235Y-52888157D01*
X66350000Y-52937440D01*
X67550000Y-52937440D01*
X67797765Y-52888157D01*
X68007809Y-52747809D01*
X68050000Y-52684666D01*
X68092191Y-52747809D01*
X68302235Y-52888157D01*
X68550000Y-52937440D01*
X69377823Y-52937440D01*
X69389654Y-52955146D01*
X69449033Y-52994822D01*
X69449035Y-52994824D01*
X69624902Y-53112335D01*
X69624903Y-53112335D01*
X69624904Y-53112336D01*
X69832354Y-53153600D01*
X69832357Y-53153600D01*
X69902399Y-53167532D01*
X69972441Y-53153600D01*
X76207812Y-53153600D01*
X76268975Y-53214763D01*
X76308653Y-53274145D01*
X76315000Y-53278386D01*
X76315000Y-53317002D01*
X76372793Y-53317002D01*
X76417126Y-53346624D01*
X76315000Y-53448750D01*
X76315000Y-53516309D01*
X76411673Y-53749698D01*
X76590301Y-53928327D01*
X76823690Y-54025000D01*
X76964250Y-54025000D01*
X77123000Y-53866250D01*
X77123000Y-53472599D01*
X77377000Y-53472599D01*
X77377000Y-53866250D01*
X77535750Y-54025000D01*
X77676310Y-54025000D01*
X77713828Y-54009460D01*
X77718975Y-54017163D01*
X77718977Y-54017165D01*
X77758654Y-54076545D01*
X77804331Y-54107066D01*
X77834854Y-54152746D01*
X78028445Y-54282100D01*
X77925484Y-54282100D01*
X77566064Y-54430977D01*
X77290977Y-54706064D01*
X77200274Y-54925039D01*
X76048531Y-53773296D01*
X75998933Y-53699067D01*
X75704870Y-53502581D01*
X75445556Y-53451000D01*
X75445555Y-53451000D01*
X75358000Y-53433584D01*
X75314519Y-53442233D01*
X75307809Y-53432191D01*
X75097765Y-53291843D01*
X74850000Y-53242560D01*
X73650000Y-53242560D01*
X73402235Y-53291843D01*
X73192191Y-53432191D01*
X73150000Y-53495334D01*
X73107809Y-53432191D01*
X72897765Y-53291843D01*
X72650000Y-53242560D01*
X71450000Y-53242560D01*
X71202235Y-53291843D01*
X70992191Y-53432191D01*
X70851843Y-53642235D01*
X70802560Y-53890000D01*
X70802560Y-54478766D01*
X70333296Y-54948030D01*
X70259067Y-54997628D01*
X70146892Y-55165511D01*
X70057809Y-55032191D01*
X69847765Y-54891843D01*
X69647440Y-54851996D01*
X69647440Y-54340000D01*
X69598157Y-54092235D01*
X69457809Y-53882191D01*
X69247765Y-53741843D01*
X69000000Y-53692560D01*
X68600000Y-53692560D01*
X68352235Y-53741843D01*
X68350000Y-53743336D01*
X68347765Y-53741843D01*
X68100000Y-53692560D01*
X67700000Y-53692560D01*
X67629188Y-53706645D01*
X67607946Y-53674854D01*
X67372696Y-53517664D01*
X67165246Y-53476400D01*
X67165241Y-53476400D01*
X67095200Y-53462468D01*
X67025159Y-53476400D01*
X65584015Y-53476400D01*
X65559023Y-53416064D01*
X65283936Y-53140977D01*
X65069313Y-53052077D01*
X62728435Y-50711200D01*
X66094657Y-50711200D01*
X66045571Y-50829705D01*
G36*
X51407000Y-54925000D02*
X51427000Y-54925000D01*
X51427000Y-55123590D01*
X51356013Y-55109470D01*
X51280970Y-55124397D01*
X51133000Y-55124397D01*
X51133000Y-54925000D01*
X51153000Y-54925000D01*
X51153000Y-54903000D01*
X51407000Y-54903000D01*
X51407000Y-54925000D01*
X51407000Y-54925000D01*
G37*
X51407000Y-54925000D02*
X51427000Y-54925000D01*
X51427000Y-55123590D01*
X51356013Y-55109470D01*
X51280970Y-55124397D01*
X51133000Y-55124397D01*
X51133000Y-54925000D01*
X51153000Y-54925000D01*
X51153000Y-54903000D01*
X51407000Y-54903000D01*
X51407000Y-54925000D01*
G36*
X45987000Y-54513000D02*
X46007000Y-54513000D01*
X46007000Y-54767000D01*
X45987000Y-54767000D01*
X45987000Y-54787000D01*
X45733000Y-54787000D01*
X45733000Y-54767000D01*
X45713000Y-54767000D01*
X45713000Y-54513000D01*
X45733000Y-54513000D01*
X45733000Y-54493000D01*
X45987000Y-54493000D01*
X45987000Y-54513000D01*
X45987000Y-54513000D01*
G37*
X45987000Y-54513000D02*
X46007000Y-54513000D01*
X46007000Y-54767000D01*
X45987000Y-54767000D01*
X45987000Y-54787000D01*
X45733000Y-54787000D01*
X45733000Y-54767000D01*
X45713000Y-54767000D01*
X45713000Y-54513000D01*
X45733000Y-54513000D01*
X45733000Y-54493000D01*
X45987000Y-54493000D01*
X45987000Y-54513000D01*
G36*
X52575000Y-54463000D02*
X52597000Y-54463000D01*
X52597000Y-54650041D01*
X52530977Y-54716064D01*
X52522305Y-54737000D01*
X52325000Y-54737000D01*
X52325000Y-54717000D01*
X52303000Y-54717000D01*
X52303000Y-54463000D01*
X52325000Y-54463000D01*
X52325000Y-54443000D01*
X52575000Y-54443000D01*
X52575000Y-54463000D01*
X52575000Y-54463000D01*
G37*
X52575000Y-54463000D02*
X52597000Y-54463000D01*
X52597000Y-54650041D01*
X52530977Y-54716064D01*
X52522305Y-54737000D01*
X52325000Y-54737000D01*
X52325000Y-54717000D01*
X52303000Y-54717000D01*
X52303000Y-54463000D01*
X52325000Y-54463000D01*
X52325000Y-54443000D01*
X52575000Y-54443000D01*
X52575000Y-54463000D01*
G36*
X63677565Y-54174801D02*
X57524041Y-54174801D01*
X57453999Y-54160869D01*
X57383958Y-54174801D01*
X57383953Y-54174801D01*
X57176503Y-54216065D01*
X57124219Y-54251000D01*
X57023167Y-54251000D01*
X56696422Y-54386342D01*
X56641229Y-54441535D01*
X56556913Y-54424763D01*
X56474431Y-54390598D01*
X54850450Y-54390598D01*
X54985000Y-54065766D01*
X54985000Y-53614234D01*
X54812207Y-53197074D01*
X54505133Y-52890000D01*
X54812207Y-52582926D01*
X54985000Y-52165766D01*
X54985000Y-51714234D01*
X54875137Y-51449000D01*
X60951765Y-51449000D01*
X63677565Y-54174801D01*
X63677565Y-54174801D01*
G37*
X63677565Y-54174801D02*
X57524041Y-54174801D01*
X57453999Y-54160869D01*
X57383958Y-54174801D01*
X57383953Y-54174801D01*
X57176503Y-54216065D01*
X57124219Y-54251000D01*
X57023167Y-54251000D01*
X56696422Y-54386342D01*
X56641229Y-54441535D01*
X56556913Y-54424763D01*
X56474431Y-54390598D01*
X54850450Y-54390598D01*
X54985000Y-54065766D01*
X54985000Y-53614234D01*
X54812207Y-53197074D01*
X54505133Y-52890000D01*
X54812207Y-52582926D01*
X54985000Y-52165766D01*
X54985000Y-51714234D01*
X54875137Y-51449000D01*
X60951765Y-51449000D01*
X63677565Y-54174801D01*
G36*
X40190205Y-51757560D02*
X39240000Y-51757560D01*
X38992235Y-51806843D01*
X38834530Y-51912219D01*
X38511002Y-51912219D01*
X38507587Y-51913634D01*
X38347765Y-51806843D01*
X38100000Y-51757560D01*
X36540000Y-51757560D01*
X36292235Y-51806843D01*
X36271048Y-51821000D01*
X36265604Y-51821000D01*
X36152809Y-51652191D01*
X35942765Y-51511843D01*
X35695000Y-51462560D01*
X34945000Y-51462560D01*
X34697235Y-51511843D01*
X34487191Y-51652191D01*
X34459255Y-51694000D01*
X33620063Y-51694000D01*
X33520000Y-51674096D01*
X33419936Y-51694000D01*
X33419935Y-51694000D01*
X33123577Y-51752949D01*
X32787505Y-51977505D01*
X32730822Y-52062337D01*
X31632339Y-53160821D01*
X31632336Y-53160823D01*
X30670600Y-54122560D01*
X29507000Y-54122560D01*
X29507000Y-53658235D01*
X29566704Y-53598531D01*
X29640933Y-53548933D01*
X29768734Y-53357664D01*
X29837419Y-53254871D01*
X29895286Y-52963952D01*
X29968126Y-52994119D01*
X30143000Y-52867954D01*
X30143000Y-52422322D01*
X30147440Y-52400000D01*
X30147440Y-52027000D01*
X30397000Y-52027000D01*
X30397000Y-52867954D01*
X30571874Y-52994119D01*
X30830209Y-52887127D01*
X31165323Y-52597604D01*
X31364132Y-52201877D01*
X31239135Y-52027000D01*
X30397000Y-52027000D01*
X30147440Y-52027000D01*
X30147440Y-51400000D01*
X30143000Y-51377678D01*
X30143000Y-50932046D01*
X30397000Y-50932046D01*
X30397000Y-51773000D01*
X31239135Y-51773000D01*
X31364132Y-51598123D01*
X31165323Y-51202396D01*
X30830209Y-50912873D01*
X30571874Y-50805881D01*
X30397000Y-50932046D01*
X30143000Y-50932046D01*
X29968126Y-50805881D01*
X29835817Y-50860678D01*
X29747765Y-50801843D01*
X29500000Y-50752560D01*
X28500000Y-50752560D01*
X28252235Y-50801843D01*
X28042191Y-50942191D01*
X27901843Y-51152235D01*
X27852560Y-51400000D01*
X27852560Y-52400000D01*
X27901843Y-52647765D01*
X27939890Y-52704706D01*
X27780581Y-52943131D01*
X27732470Y-53185000D01*
X27445750Y-53185000D01*
X27287000Y-53343750D01*
X27287000Y-54093000D01*
X27307000Y-54093000D01*
X27307000Y-54347000D01*
X27287000Y-54347000D01*
X27287000Y-54367000D01*
X27033000Y-54367000D01*
X27033000Y-54347000D01*
X27013000Y-54347000D01*
X27013000Y-54093000D01*
X27033000Y-54093000D01*
X27033000Y-53343750D01*
X26874250Y-53185000D01*
X26083691Y-53185000D01*
X25850302Y-53281673D01*
X25711200Y-53420774D01*
X25711200Y-50711200D01*
X41236564Y-50711200D01*
X40190205Y-51757560D01*
X40190205Y-51757560D01*
G37*
X40190205Y-51757560D02*
X39240000Y-51757560D01*
X38992235Y-51806843D01*
X38834530Y-51912219D01*
X38511002Y-51912219D01*
X38507587Y-51913634D01*
X38347765Y-51806843D01*
X38100000Y-51757560D01*
X36540000Y-51757560D01*
X36292235Y-51806843D01*
X36271048Y-51821000D01*
X36265604Y-51821000D01*
X36152809Y-51652191D01*
X35942765Y-51511843D01*
X35695000Y-51462560D01*
X34945000Y-51462560D01*
X34697235Y-51511843D01*
X34487191Y-51652191D01*
X34459255Y-51694000D01*
X33620063Y-51694000D01*
X33520000Y-51674096D01*
X33419936Y-51694000D01*
X33419935Y-51694000D01*
X33123577Y-51752949D01*
X32787505Y-51977505D01*
X32730822Y-52062337D01*
X31632339Y-53160821D01*
X31632336Y-53160823D01*
X30670600Y-54122560D01*
X29507000Y-54122560D01*
X29507000Y-53658235D01*
X29566704Y-53598531D01*
X29640933Y-53548933D01*
X29768734Y-53357664D01*
X29837419Y-53254871D01*
X29895286Y-52963952D01*
X29968126Y-52994119D01*
X30143000Y-52867954D01*
X30143000Y-52422322D01*
X30147440Y-52400000D01*
X30147440Y-52027000D01*
X30397000Y-52027000D01*
X30397000Y-52867954D01*
X30571874Y-52994119D01*
X30830209Y-52887127D01*
X31165323Y-52597604D01*
X31364132Y-52201877D01*
X31239135Y-52027000D01*
X30397000Y-52027000D01*
X30147440Y-52027000D01*
X30147440Y-51400000D01*
X30143000Y-51377678D01*
X30143000Y-50932046D01*
X30397000Y-50932046D01*
X30397000Y-51773000D01*
X31239135Y-51773000D01*
X31364132Y-51598123D01*
X31165323Y-51202396D01*
X30830209Y-50912873D01*
X30571874Y-50805881D01*
X30397000Y-50932046D01*
X30143000Y-50932046D01*
X29968126Y-50805881D01*
X29835817Y-50860678D01*
X29747765Y-50801843D01*
X29500000Y-50752560D01*
X28500000Y-50752560D01*
X28252235Y-50801843D01*
X28042191Y-50942191D01*
X27901843Y-51152235D01*
X27852560Y-51400000D01*
X27852560Y-52400000D01*
X27901843Y-52647765D01*
X27939890Y-52704706D01*
X27780581Y-52943131D01*
X27732470Y-53185000D01*
X27445750Y-53185000D01*
X27287000Y-53343750D01*
X27287000Y-54093000D01*
X27307000Y-54093000D01*
X27307000Y-54347000D01*
X27287000Y-54347000D01*
X27287000Y-54367000D01*
X27033000Y-54367000D01*
X27033000Y-54347000D01*
X27013000Y-54347000D01*
X27013000Y-54093000D01*
X27033000Y-54093000D01*
X27033000Y-53343750D01*
X26874250Y-53185000D01*
X26083691Y-53185000D01*
X25850302Y-53281673D01*
X25711200Y-53420774D01*
X25711200Y-50711200D01*
X41236564Y-50711200D01*
X40190205Y-51757560D01*
G36*
X51407002Y-54323748D02*
X51407002Y-54252000D01*
X51478750Y-54252000D01*
X51407002Y-54323748D01*
X51407002Y-54323748D01*
G37*
X51407002Y-54323748D02*
X51407002Y-54252000D01*
X51478750Y-54252000D01*
X51407002Y-54323748D01*
G36*
X84288800Y-54155530D02*
X84128772Y-53916030D01*
X84113545Y-53905856D01*
X84103371Y-53890629D01*
X83851317Y-53722212D01*
X83774316Y-53706896D01*
X83757809Y-53682191D01*
X83547765Y-53541843D01*
X83300000Y-53492560D01*
X83207633Y-53492560D01*
X83239000Y-53416833D01*
X83239000Y-53063167D01*
X83103658Y-52736422D01*
X82889698Y-52522462D01*
X82889698Y-52479000D01*
X82926833Y-52479000D01*
X83253578Y-52343658D01*
X83503658Y-52093578D01*
X83639000Y-51766833D01*
X83639000Y-51413167D01*
X83503658Y-51086422D01*
X83496859Y-51079623D01*
X83467788Y-50933473D01*
X83319270Y-50711200D01*
X84288800Y-50711200D01*
X84288800Y-54155530D01*
X84288800Y-54155530D01*
G37*
X84288800Y-54155530D02*
X84128772Y-53916030D01*
X84113545Y-53905856D01*
X84103371Y-53890629D01*
X83851317Y-53722212D01*
X83774316Y-53706896D01*
X83757809Y-53682191D01*
X83547765Y-53541843D01*
X83300000Y-53492560D01*
X83207633Y-53492560D01*
X83239000Y-53416833D01*
X83239000Y-53063167D01*
X83103658Y-52736422D01*
X82889698Y-52522462D01*
X82889698Y-52479000D01*
X82926833Y-52479000D01*
X83253578Y-52343658D01*
X83503658Y-52093578D01*
X83639000Y-51766833D01*
X83639000Y-51413167D01*
X83503658Y-51086422D01*
X83496859Y-51079623D01*
X83467788Y-50933473D01*
X83319270Y-50711200D01*
X84288800Y-50711200D01*
X84288800Y-54155530D01*
G36*
X80393726Y-52846274D02*
X80402424Y-52890000D01*
X80391860Y-52943110D01*
X80378750Y-52930000D01*
X80321250Y-52930000D01*
X80301846Y-52949404D01*
X80115302Y-53026673D01*
X80094075Y-53047900D01*
X79972765Y-52966843D01*
X79901397Y-52952647D01*
X79878750Y-52930000D01*
X79848691Y-52930000D01*
X79828853Y-52938217D01*
X79806274Y-52933726D01*
X79797576Y-52890000D01*
X79806274Y-52846274D01*
X79850000Y-52837576D01*
X79975000Y-52862440D01*
X80225000Y-52862440D01*
X80350000Y-52837576D01*
X80393726Y-52846274D01*
X80393726Y-52846274D01*
G37*
X80393726Y-52846274D02*
X80402424Y-52890000D01*
X80391860Y-52943110D01*
X80378750Y-52930000D01*
X80321250Y-52930000D01*
X80301846Y-52949404D01*
X80115302Y-53026673D01*
X80094075Y-53047900D01*
X79972765Y-52966843D01*
X79901397Y-52952647D01*
X79878750Y-52930000D01*
X79848691Y-52930000D01*
X79828853Y-52938217D01*
X79806274Y-52933726D01*
X79797576Y-52890000D01*
X79806274Y-52846274D01*
X79850000Y-52837576D01*
X79975000Y-52862440D01*
X80225000Y-52862440D01*
X80350000Y-52837576D01*
X80393726Y-52846274D01*
G36*
X52597000Y-51617000D02*
X52575000Y-51617000D01*
X52575000Y-51637000D01*
X52325000Y-51637000D01*
X52325000Y-51617000D01*
X51723750Y-51617000D01*
X51565000Y-51775750D01*
X51565000Y-51828000D01*
X51347054Y-51828000D01*
X51347054Y-51655484D01*
X51261525Y-51449000D01*
X52597000Y-51449000D01*
X52597000Y-51617000D01*
X52597000Y-51617000D01*
G37*
X52597000Y-51617000D02*
X52575000Y-51617000D01*
X52575000Y-51637000D01*
X52325000Y-51637000D01*
X52325000Y-51617000D01*
X51723750Y-51617000D01*
X51565000Y-51775750D01*
X51565000Y-51828000D01*
X51347054Y-51828000D01*
X51347054Y-51655484D01*
X51261525Y-51449000D01*
X52597000Y-51449000D01*
X52597000Y-51617000D01*
G04 #@! TD*
M02*
