G04 #@! TF.GenerationSoftware,KiCad,Pcbnew,5.0.1*
G04 #@! TF.CreationDate,2018-12-09T15:50:33-05:00*
G04 #@! TF.ProjectId,controller,636F6E74726F6C6C65722E6B69636164,rev?*
G04 #@! TF.SameCoordinates,Original*
G04 #@! TF.FileFunction,Legend,Bot*
G04 #@! TF.FilePolarity,Positive*
%FSLAX46Y46*%
G04 Gerber Fmt 4.6, Leading zero omitted, Abs format (unit mm)*
G04 Created by KiCad (PCBNEW 5.0.1) date Sun 09 Dec 2018 03:50:33 PM EST*
%MOMM*%
%LPD*%
G01*
G04 APERTURE LIST*
%ADD10C,0.152400*%
%ADD11C,0.120000*%
%ADD12C,0.150000*%
G04 APERTURE END LIST*
D10*
X40710000Y-57160000D02*
X40710000Y-55190000D01*
X37860000Y-57160000D02*
X40710000Y-57160000D01*
X37380000Y-56570000D02*
X37660000Y-56140000D01*
X33830000Y-56540000D02*
X37380000Y-56570000D01*
X33520000Y-56820000D02*
X33830000Y-56540000D01*
X49460000Y-52580000D02*
X49200000Y-53100000D01*
X80310000Y-54960000D02*
X80810000Y-54940000D01*
X83250000Y-54790000D02*
X82950000Y-54290000D01*
D11*
G04 #@! TO.C,R14*
X76520000Y-55940000D02*
X77520000Y-55940000D01*
X77520000Y-54580000D02*
X76520000Y-54580000D01*
G04 #@! TO.C,C20*
X48260000Y-57280000D02*
X47560000Y-57280000D01*
X47560000Y-58480000D02*
X48260000Y-58480000D01*
G04 #@! TO.C,C19*
X47560000Y-57020000D02*
X48260000Y-57020000D01*
X48260000Y-55820000D02*
X47560000Y-55820000D01*
G04 #@! TO.C,C21*
X39360000Y-54720000D02*
X38360000Y-54720000D01*
X38360000Y-53020000D02*
X39360000Y-53020000D01*
G04 #@! TO.C,C16*
X39384053Y-56231676D02*
X39384053Y-55731676D01*
X40324053Y-55731676D02*
X40324053Y-56231676D01*
G04 #@! TO.C,C15*
X39524053Y-55731676D02*
X39524053Y-56231676D01*
X38584053Y-56231676D02*
X38584053Y-55731676D01*
G04 #@! TO.C,C14*
X37750000Y-56250000D02*
X37750000Y-55750000D01*
X38690000Y-55750000D02*
X38690000Y-56250000D01*
G04 #@! TO.C,C6*
X81600000Y-53670000D02*
X82100000Y-53670000D01*
X82100000Y-54610000D02*
X81600000Y-54610000D01*
G04 #@! TO.C,C5*
X82100000Y-55410000D02*
X81600000Y-55410000D01*
X81600000Y-54470000D02*
X82100000Y-54470000D01*
G04 #@! TO.C,C7*
X81050000Y-53840000D02*
X81750000Y-53840000D01*
X81750000Y-52640000D02*
X81050000Y-52640000D01*
G04 #@! TO.C,C8*
X51050000Y-54990000D02*
X51050000Y-54290000D01*
X49850000Y-54290000D02*
X49850000Y-54990000D01*
G04 #@! TO.C,C3*
X41610000Y-58340000D02*
X40910000Y-58340000D01*
X40910000Y-59540000D02*
X41610000Y-59540000D01*
G04 #@! TO.C,C4*
X74457516Y-56462111D02*
X74457516Y-57462111D01*
X72757516Y-57462111D02*
X72757516Y-56462111D01*
D12*
G04 #@! TO.C,L1*
X67407516Y-54562111D02*
X67407516Y-58962111D01*
X64807516Y-54562111D02*
X64807516Y-58962111D01*
D11*
G04 #@! TO.C,R6*
X48410000Y-54370000D02*
X48410000Y-53870000D01*
X49470000Y-53870000D02*
X49470000Y-54370000D01*
G04 #@! TO.C,R7*
X48470000Y-53870000D02*
X48470000Y-54370000D01*
X47410000Y-54370000D02*
X47410000Y-53870000D01*
G04 #@! TO.C,R2*
X34120000Y-54880000D02*
X34120000Y-53880000D01*
X32760000Y-53880000D02*
X32760000Y-54880000D01*
G04 #@! TO.C,U1*
X71007516Y-58472111D02*
X68557516Y-58472111D01*
X69207516Y-55252111D02*
X71007516Y-55252111D01*
D12*
G04 #@! TO.C,U2*
X82850000Y-58240000D02*
X82950000Y-57640000D01*
X82950000Y-56440000D02*
X82950000Y-55840000D01*
X82950000Y-55840000D02*
X82850000Y-55840000D01*
X80650000Y-55840000D02*
X80550000Y-55840000D01*
X80550000Y-55840000D02*
X80550000Y-56440000D01*
X80550000Y-57640000D02*
X80550000Y-58240000D01*
X80550000Y-58240000D02*
X80650000Y-58240000D01*
X83275000Y-58265000D02*
G75*
G03X83275000Y-58265000I-150000J0D01*
G01*
G04 #@! TO.C,R14*
X77602857Y-54512380D02*
X77936190Y-54036190D01*
X78174285Y-54512380D02*
X78174285Y-53512380D01*
X77793333Y-53512380D01*
X77698095Y-53560000D01*
X77650476Y-53607619D01*
X77602857Y-53702857D01*
X77602857Y-53845714D01*
X77650476Y-53940952D01*
X77698095Y-53988571D01*
X77793333Y-54036190D01*
X78174285Y-54036190D01*
X76650476Y-54512380D02*
X77221904Y-54512380D01*
X76936190Y-54512380D02*
X76936190Y-53512380D01*
X77031428Y-53655238D01*
X77126666Y-53750476D01*
X77221904Y-53798095D01*
X75793333Y-53845714D02*
X75793333Y-54512380D01*
X76031428Y-53464761D02*
X76269523Y-54179047D01*
X75650476Y-54179047D01*
G04 #@! TO.C,C20*
X45192857Y-58217142D02*
X45240476Y-58264761D01*
X45383333Y-58312380D01*
X45478571Y-58312380D01*
X45621428Y-58264761D01*
X45716666Y-58169523D01*
X45764285Y-58074285D01*
X45811904Y-57883809D01*
X45811904Y-57740952D01*
X45764285Y-57550476D01*
X45716666Y-57455238D01*
X45621428Y-57360000D01*
X45478571Y-57312380D01*
X45383333Y-57312380D01*
X45240476Y-57360000D01*
X45192857Y-57407619D01*
X44811904Y-57407619D02*
X44764285Y-57360000D01*
X44669047Y-57312380D01*
X44430952Y-57312380D01*
X44335714Y-57360000D01*
X44288095Y-57407619D01*
X44240476Y-57502857D01*
X44240476Y-57598095D01*
X44288095Y-57740952D01*
X44859523Y-58312380D01*
X44240476Y-58312380D01*
X43621428Y-57312380D02*
X43526190Y-57312380D01*
X43430952Y-57360000D01*
X43383333Y-57407619D01*
X43335714Y-57502857D01*
X43288095Y-57693333D01*
X43288095Y-57931428D01*
X43335714Y-58121904D01*
X43383333Y-58217142D01*
X43430952Y-58264761D01*
X43526190Y-58312380D01*
X43621428Y-58312380D01*
X43716666Y-58264761D01*
X43764285Y-58217142D01*
X43811904Y-58121904D01*
X43859523Y-57931428D01*
X43859523Y-57693333D01*
X43811904Y-57502857D01*
X43764285Y-57407619D01*
X43716666Y-57360000D01*
X43621428Y-57312380D01*
G04 #@! TO.C,C19*
X45292857Y-56827142D02*
X45340476Y-56874761D01*
X45483333Y-56922380D01*
X45578571Y-56922380D01*
X45721428Y-56874761D01*
X45816666Y-56779523D01*
X45864285Y-56684285D01*
X45911904Y-56493809D01*
X45911904Y-56350952D01*
X45864285Y-56160476D01*
X45816666Y-56065238D01*
X45721428Y-55970000D01*
X45578571Y-55922380D01*
X45483333Y-55922380D01*
X45340476Y-55970000D01*
X45292857Y-56017619D01*
X44340476Y-56922380D02*
X44911904Y-56922380D01*
X44626190Y-56922380D02*
X44626190Y-55922380D01*
X44721428Y-56065238D01*
X44816666Y-56160476D01*
X44911904Y-56208095D01*
X43864285Y-56922380D02*
X43673809Y-56922380D01*
X43578571Y-56874761D01*
X43530952Y-56827142D01*
X43435714Y-56684285D01*
X43388095Y-56493809D01*
X43388095Y-56112857D01*
X43435714Y-56017619D01*
X43483333Y-55970000D01*
X43578571Y-55922380D01*
X43769047Y-55922380D01*
X43864285Y-55970000D01*
X43911904Y-56017619D01*
X43959523Y-56112857D01*
X43959523Y-56350952D01*
X43911904Y-56446190D01*
X43864285Y-56493809D01*
X43769047Y-56541428D01*
X43578571Y-56541428D01*
X43483333Y-56493809D01*
X43435714Y-56446190D01*
X43388095Y-56350952D01*
G04 #@! TO.C,C21*
X39502857Y-52477142D02*
X39550476Y-52524761D01*
X39693333Y-52572380D01*
X39788571Y-52572380D01*
X39931428Y-52524761D01*
X40026666Y-52429523D01*
X40074285Y-52334285D01*
X40121904Y-52143809D01*
X40121904Y-52000952D01*
X40074285Y-51810476D01*
X40026666Y-51715238D01*
X39931428Y-51620000D01*
X39788571Y-51572380D01*
X39693333Y-51572380D01*
X39550476Y-51620000D01*
X39502857Y-51667619D01*
X39121904Y-51667619D02*
X39074285Y-51620000D01*
X38979047Y-51572380D01*
X38740952Y-51572380D01*
X38645714Y-51620000D01*
X38598095Y-51667619D01*
X38550476Y-51762857D01*
X38550476Y-51858095D01*
X38598095Y-52000952D01*
X39169523Y-52572380D01*
X38550476Y-52572380D01*
X37598095Y-52572380D02*
X38169523Y-52572380D01*
X37883809Y-52572380D02*
X37883809Y-51572380D01*
X37979047Y-51715238D01*
X38074285Y-51810476D01*
X38169523Y-51858095D01*
G04 #@! TO.C,C16*
X37287142Y-57447142D02*
X37334761Y-57399523D01*
X37382380Y-57256666D01*
X37382380Y-57161428D01*
X37334761Y-57018571D01*
X37239523Y-56923333D01*
X37144285Y-56875714D01*
X36953809Y-56828095D01*
X36810952Y-56828095D01*
X36620476Y-56875714D01*
X36525238Y-56923333D01*
X36430000Y-57018571D01*
X36382380Y-57161428D01*
X36382380Y-57256666D01*
X36430000Y-57399523D01*
X36477619Y-57447142D01*
X37382380Y-58399523D02*
X37382380Y-57828095D01*
X37382380Y-58113809D02*
X36382380Y-58113809D01*
X36525238Y-58018571D01*
X36620476Y-57923333D01*
X36668095Y-57828095D01*
X36382380Y-59256666D02*
X36382380Y-59066190D01*
X36430000Y-58970952D01*
X36477619Y-58923333D01*
X36620476Y-58828095D01*
X36810952Y-58780476D01*
X37191904Y-58780476D01*
X37287142Y-58828095D01*
X37334761Y-58875714D01*
X37382380Y-58970952D01*
X37382380Y-59161428D01*
X37334761Y-59256666D01*
X37287142Y-59304285D01*
X37191904Y-59351904D01*
X36953809Y-59351904D01*
X36858571Y-59304285D01*
X36810952Y-59256666D01*
X36763333Y-59161428D01*
X36763333Y-58970952D01*
X36810952Y-58875714D01*
X36858571Y-58828095D01*
X36953809Y-58780476D01*
G04 #@! TO.C,C15*
X35937142Y-57417142D02*
X35984761Y-57369523D01*
X36032380Y-57226666D01*
X36032380Y-57131428D01*
X35984761Y-56988571D01*
X35889523Y-56893333D01*
X35794285Y-56845714D01*
X35603809Y-56798095D01*
X35460952Y-56798095D01*
X35270476Y-56845714D01*
X35175238Y-56893333D01*
X35080000Y-56988571D01*
X35032380Y-57131428D01*
X35032380Y-57226666D01*
X35080000Y-57369523D01*
X35127619Y-57417142D01*
X36032380Y-58369523D02*
X36032380Y-57798095D01*
X36032380Y-58083809D02*
X35032380Y-58083809D01*
X35175238Y-57988571D01*
X35270476Y-57893333D01*
X35318095Y-57798095D01*
X35032380Y-59274285D02*
X35032380Y-58798095D01*
X35508571Y-58750476D01*
X35460952Y-58798095D01*
X35413333Y-58893333D01*
X35413333Y-59131428D01*
X35460952Y-59226666D01*
X35508571Y-59274285D01*
X35603809Y-59321904D01*
X35841904Y-59321904D01*
X35937142Y-59274285D01*
X35984761Y-59226666D01*
X36032380Y-59131428D01*
X36032380Y-58893333D01*
X35984761Y-58798095D01*
X35937142Y-58750476D01*
G04 #@! TO.C,C14*
X34577142Y-57387142D02*
X34624761Y-57339523D01*
X34672380Y-57196666D01*
X34672380Y-57101428D01*
X34624761Y-56958571D01*
X34529523Y-56863333D01*
X34434285Y-56815714D01*
X34243809Y-56768095D01*
X34100952Y-56768095D01*
X33910476Y-56815714D01*
X33815238Y-56863333D01*
X33720000Y-56958571D01*
X33672380Y-57101428D01*
X33672380Y-57196666D01*
X33720000Y-57339523D01*
X33767619Y-57387142D01*
X34672380Y-58339523D02*
X34672380Y-57768095D01*
X34672380Y-58053809D02*
X33672380Y-58053809D01*
X33815238Y-57958571D01*
X33910476Y-57863333D01*
X33958095Y-57768095D01*
X34005714Y-59196666D02*
X34672380Y-59196666D01*
X33624761Y-58958571D02*
X34339047Y-58720476D01*
X34339047Y-59339523D01*
G04 #@! TO.C,C6*
X84357142Y-54573333D02*
X84404761Y-54525714D01*
X84452380Y-54382857D01*
X84452380Y-54287619D01*
X84404761Y-54144761D01*
X84309523Y-54049523D01*
X84214285Y-54001904D01*
X84023809Y-53954285D01*
X83880952Y-53954285D01*
X83690476Y-54001904D01*
X83595238Y-54049523D01*
X83500000Y-54144761D01*
X83452380Y-54287619D01*
X83452380Y-54382857D01*
X83500000Y-54525714D01*
X83547619Y-54573333D01*
X83452380Y-55430476D02*
X83452380Y-55240000D01*
X83500000Y-55144761D01*
X83547619Y-55097142D01*
X83690476Y-55001904D01*
X83880952Y-54954285D01*
X84261904Y-54954285D01*
X84357142Y-55001904D01*
X84404761Y-55049523D01*
X84452380Y-55144761D01*
X84452380Y-55335238D01*
X84404761Y-55430476D01*
X84357142Y-55478095D01*
X84261904Y-55525714D01*
X84023809Y-55525714D01*
X83928571Y-55478095D01*
X83880952Y-55430476D01*
X83833333Y-55335238D01*
X83833333Y-55144761D01*
X83880952Y-55049523D01*
X83928571Y-55001904D01*
X84023809Y-54954285D01*
G04 #@! TO.C,C5*
X79516666Y-55297142D02*
X79564285Y-55344761D01*
X79707142Y-55392380D01*
X79802380Y-55392380D01*
X79945238Y-55344761D01*
X80040476Y-55249523D01*
X80088095Y-55154285D01*
X80135714Y-54963809D01*
X80135714Y-54820952D01*
X80088095Y-54630476D01*
X80040476Y-54535238D01*
X79945238Y-54440000D01*
X79802380Y-54392380D01*
X79707142Y-54392380D01*
X79564285Y-54440000D01*
X79516666Y-54487619D01*
X78611904Y-54392380D02*
X79088095Y-54392380D01*
X79135714Y-54868571D01*
X79088095Y-54820952D01*
X78992857Y-54773333D01*
X78754761Y-54773333D01*
X78659523Y-54820952D01*
X78611904Y-54868571D01*
X78564285Y-54963809D01*
X78564285Y-55201904D01*
X78611904Y-55297142D01*
X78659523Y-55344761D01*
X78754761Y-55392380D01*
X78992857Y-55392380D01*
X79088095Y-55344761D01*
X79135714Y-55297142D01*
G04 #@! TO.C,C7*
X81566666Y-52347142D02*
X81614285Y-52394761D01*
X81757142Y-52442380D01*
X81852380Y-52442380D01*
X81995238Y-52394761D01*
X82090476Y-52299523D01*
X82138095Y-52204285D01*
X82185714Y-52013809D01*
X82185714Y-51870952D01*
X82138095Y-51680476D01*
X82090476Y-51585238D01*
X81995238Y-51490000D01*
X81852380Y-51442380D01*
X81757142Y-51442380D01*
X81614285Y-51490000D01*
X81566666Y-51537619D01*
X81233333Y-51442380D02*
X80566666Y-51442380D01*
X80995238Y-52442380D01*
G04 #@! TO.C,C8*
X52057142Y-54473333D02*
X52104761Y-54425714D01*
X52152380Y-54282857D01*
X52152380Y-54187619D01*
X52104761Y-54044761D01*
X52009523Y-53949523D01*
X51914285Y-53901904D01*
X51723809Y-53854285D01*
X51580952Y-53854285D01*
X51390476Y-53901904D01*
X51295238Y-53949523D01*
X51200000Y-54044761D01*
X51152380Y-54187619D01*
X51152380Y-54282857D01*
X51200000Y-54425714D01*
X51247619Y-54473333D01*
X51580952Y-55044761D02*
X51533333Y-54949523D01*
X51485714Y-54901904D01*
X51390476Y-54854285D01*
X51342857Y-54854285D01*
X51247619Y-54901904D01*
X51200000Y-54949523D01*
X51152380Y-55044761D01*
X51152380Y-55235238D01*
X51200000Y-55330476D01*
X51247619Y-55378095D01*
X51342857Y-55425714D01*
X51390476Y-55425714D01*
X51485714Y-55378095D01*
X51533333Y-55330476D01*
X51580952Y-55235238D01*
X51580952Y-55044761D01*
X51628571Y-54949523D01*
X51676190Y-54901904D01*
X51771428Y-54854285D01*
X51961904Y-54854285D01*
X52057142Y-54901904D01*
X52104761Y-54949523D01*
X52152380Y-55044761D01*
X52152380Y-55235238D01*
X52104761Y-55330476D01*
X52057142Y-55378095D01*
X51961904Y-55425714D01*
X51771428Y-55425714D01*
X51676190Y-55378095D01*
X51628571Y-55330476D01*
X51580952Y-55235238D01*
G04 #@! TO.C,C3*
X41496666Y-58237142D02*
X41544285Y-58284761D01*
X41687142Y-58332380D01*
X41782380Y-58332380D01*
X41925238Y-58284761D01*
X42020476Y-58189523D01*
X42068095Y-58094285D01*
X42115714Y-57903809D01*
X42115714Y-57760952D01*
X42068095Y-57570476D01*
X42020476Y-57475238D01*
X41925238Y-57380000D01*
X41782380Y-57332380D01*
X41687142Y-57332380D01*
X41544285Y-57380000D01*
X41496666Y-57427619D01*
X41163333Y-57332380D02*
X40544285Y-57332380D01*
X40877619Y-57713333D01*
X40734761Y-57713333D01*
X40639523Y-57760952D01*
X40591904Y-57808571D01*
X40544285Y-57903809D01*
X40544285Y-58141904D01*
X40591904Y-58237142D01*
X40639523Y-58284761D01*
X40734761Y-58332380D01*
X41020476Y-58332380D01*
X41115714Y-58284761D01*
X41163333Y-58237142D01*
G04 #@! TO.C,C4*
X73957142Y-53573333D02*
X74004761Y-53525714D01*
X74052380Y-53382857D01*
X74052380Y-53287619D01*
X74004761Y-53144761D01*
X73909523Y-53049523D01*
X73814285Y-53001904D01*
X73623809Y-52954285D01*
X73480952Y-52954285D01*
X73290476Y-53001904D01*
X73195238Y-53049523D01*
X73100000Y-53144761D01*
X73052380Y-53287619D01*
X73052380Y-53382857D01*
X73100000Y-53525714D01*
X73147619Y-53573333D01*
X73385714Y-54430476D02*
X74052380Y-54430476D01*
X73004761Y-54192380D02*
X73719047Y-53954285D01*
X73719047Y-54573333D01*
G04 #@! TO.C,L1*
X66216666Y-53942380D02*
X66692857Y-53942380D01*
X66692857Y-52942380D01*
X65359523Y-53942380D02*
X65930952Y-53942380D01*
X65645238Y-53942380D02*
X65645238Y-52942380D01*
X65740476Y-53085238D01*
X65835714Y-53180476D01*
X65930952Y-53228095D01*
G04 #@! TO.C,R6*
X49702380Y-51383333D02*
X49226190Y-51050000D01*
X49702380Y-50811904D02*
X48702380Y-50811904D01*
X48702380Y-51192857D01*
X48750000Y-51288095D01*
X48797619Y-51335714D01*
X48892857Y-51383333D01*
X49035714Y-51383333D01*
X49130952Y-51335714D01*
X49178571Y-51288095D01*
X49226190Y-51192857D01*
X49226190Y-50811904D01*
X48702380Y-52240476D02*
X48702380Y-52050000D01*
X48750000Y-51954761D01*
X48797619Y-51907142D01*
X48940476Y-51811904D01*
X49130952Y-51764285D01*
X49511904Y-51764285D01*
X49607142Y-51811904D01*
X49654761Y-51859523D01*
X49702380Y-51954761D01*
X49702380Y-52145238D01*
X49654761Y-52240476D01*
X49607142Y-52288095D01*
X49511904Y-52335714D01*
X49273809Y-52335714D01*
X49178571Y-52288095D01*
X49130952Y-52240476D01*
X49083333Y-52145238D01*
X49083333Y-51954761D01*
X49130952Y-51859523D01*
X49178571Y-51811904D01*
X49273809Y-51764285D01*
G04 #@! TO.C,R7*
X47352380Y-53903333D02*
X46876190Y-53570000D01*
X47352380Y-53331904D02*
X46352380Y-53331904D01*
X46352380Y-53712857D01*
X46400000Y-53808095D01*
X46447619Y-53855714D01*
X46542857Y-53903333D01*
X46685714Y-53903333D01*
X46780952Y-53855714D01*
X46828571Y-53808095D01*
X46876190Y-53712857D01*
X46876190Y-53331904D01*
X46352380Y-54236666D02*
X46352380Y-54903333D01*
X47352380Y-54474761D01*
G04 #@! TO.C,R2*
X35442380Y-54263333D02*
X34966190Y-53930000D01*
X35442380Y-53691904D02*
X34442380Y-53691904D01*
X34442380Y-54072857D01*
X34490000Y-54168095D01*
X34537619Y-54215714D01*
X34632857Y-54263333D01*
X34775714Y-54263333D01*
X34870952Y-54215714D01*
X34918571Y-54168095D01*
X34966190Y-54072857D01*
X34966190Y-53691904D01*
X34537619Y-54644285D02*
X34490000Y-54691904D01*
X34442380Y-54787142D01*
X34442380Y-55025238D01*
X34490000Y-55120476D01*
X34537619Y-55168095D01*
X34632857Y-55215714D01*
X34728095Y-55215714D01*
X34870952Y-55168095D01*
X35442380Y-54596666D01*
X35442380Y-55215714D01*
G04 #@! TO.C,U1*
X70811904Y-53842380D02*
X70811904Y-54651904D01*
X70764285Y-54747142D01*
X70716666Y-54794761D01*
X70621428Y-54842380D01*
X70430952Y-54842380D01*
X70335714Y-54794761D01*
X70288095Y-54747142D01*
X70240476Y-54651904D01*
X70240476Y-53842380D01*
X69240476Y-54842380D02*
X69811904Y-54842380D01*
X69526190Y-54842380D02*
X69526190Y-53842380D01*
X69621428Y-53985238D01*
X69716666Y-54080476D01*
X69811904Y-54128095D01*
G04 #@! TO.C,U2*
X83352380Y-56278095D02*
X84161904Y-56278095D01*
X84257142Y-56325714D01*
X84304761Y-56373333D01*
X84352380Y-56468571D01*
X84352380Y-56659047D01*
X84304761Y-56754285D01*
X84257142Y-56801904D01*
X84161904Y-56849523D01*
X83352380Y-56849523D01*
X83447619Y-57278095D02*
X83400000Y-57325714D01*
X83352380Y-57420952D01*
X83352380Y-57659047D01*
X83400000Y-57754285D01*
X83447619Y-57801904D01*
X83542857Y-57849523D01*
X83638095Y-57849523D01*
X83780952Y-57801904D01*
X84352380Y-57230476D01*
X84352380Y-57849523D01*
G04 #@! TD*
M02*
