G04 #@! TF.GenerationSoftware,KiCad,Pcbnew,5.0.1*
G04 #@! TF.CreationDate,2018-12-09T15:50:33-05:00*
G04 #@! TF.ProjectId,controller,636F6E74726F6C6C65722E6B69636164,rev?*
G04 #@! TF.SameCoordinates,Original*
G04 #@! TF.FileFunction,Other,Fab,Top*
%FSLAX46Y46*%
G04 Gerber Fmt 4.6, Leading zero omitted, Abs format (unit mm)*
G04 Created by KiCad (PCBNEW 5.0.1) date Sun 09 Dec 2018 03:50:33 PM EST*
%MOMM*%
%LPD*%
G01*
G04 APERTURE LIST*
%ADD10C,0.100000*%
%ADD11C,0.150000*%
%ADD12C,0.075000*%
%ADD13C,0.105000*%
G04 APERTURE END LIST*
D10*
G04 #@! TO.C,R13*
X48030000Y-58040000D02*
X49630000Y-58040000D01*
X49630000Y-58040000D02*
X49630000Y-58840000D01*
X49630000Y-58840000D02*
X48030000Y-58840000D01*
X48030000Y-58840000D02*
X48030000Y-58040000D01*
G04 #@! TO.C,R3*
X37940000Y-55920000D02*
X39540000Y-55920000D01*
X39540000Y-55920000D02*
X39540000Y-56720000D01*
X39540000Y-56720000D02*
X37940000Y-56720000D01*
X37940000Y-56720000D02*
X37940000Y-55920000D01*
G04 #@! TO.C,C10*
X52200000Y-53540000D02*
X52700000Y-53540000D01*
X52200000Y-54540000D02*
X52200000Y-53540000D01*
X52700000Y-54540000D02*
X52200000Y-54540000D01*
X52700000Y-53540000D02*
X52700000Y-54540000D01*
G04 #@! TO.C,C18*
X35720000Y-52860000D02*
X35720000Y-54460000D01*
X35720000Y-54460000D02*
X34920000Y-54460000D01*
X34920000Y-54460000D02*
X34920000Y-52860000D01*
X34920000Y-52860000D02*
X35720000Y-52860000D01*
G04 #@! TO.C,U5*
X39570000Y-52130000D02*
X39570000Y-55230000D01*
X39570000Y-55230000D02*
X37770000Y-55230000D01*
X37770000Y-52780000D02*
X37770000Y-55230000D01*
X39570000Y-52130000D02*
X38420000Y-52130000D01*
X37770000Y-52780000D02*
X38420000Y-52130000D01*
G04 #@! TO.C,Q1*
X27960000Y-56690000D02*
X29360000Y-56690000D01*
X29360000Y-53650000D02*
X29360000Y-56690000D01*
X27960000Y-54220000D02*
X28510000Y-53650000D01*
X28510000Y-53650000D02*
X29360000Y-53650000D01*
X27960000Y-54220000D02*
X27960000Y-56670000D01*
G04 #@! TO.C,C13*
X80700000Y-55740000D02*
X79700000Y-55740000D01*
X79700000Y-55740000D02*
X79700000Y-55240000D01*
X79700000Y-55240000D02*
X80700000Y-55240000D01*
X80700000Y-55240000D02*
X80700000Y-55740000D01*
G04 #@! TO.C,C12*
X83300000Y-55490000D02*
X82800000Y-55490000D01*
X83300000Y-54490000D02*
X83300000Y-55490000D01*
X82800000Y-54490000D02*
X83300000Y-54490000D01*
X82800000Y-55490000D02*
X82800000Y-54490000D01*
G04 #@! TO.C,C11*
X52200000Y-52540000D02*
X52200000Y-51540000D01*
X52200000Y-51540000D02*
X52700000Y-51540000D01*
X52700000Y-51540000D02*
X52700000Y-52540000D01*
X52700000Y-52540000D02*
X52200000Y-52540000D01*
G04 #@! TO.C,C9*
X50230000Y-54800000D02*
X51230000Y-54800000D01*
X51230000Y-54800000D02*
X51230000Y-55300000D01*
X51230000Y-55300000D02*
X50230000Y-55300000D01*
X50230000Y-55300000D02*
X50230000Y-54800000D01*
G04 #@! TO.C,C1*
X73250000Y-57940000D02*
X73250000Y-56340000D01*
X73250000Y-56340000D02*
X74050000Y-56340000D01*
X74050000Y-56340000D02*
X74050000Y-57940000D01*
X74050000Y-57940000D02*
X73250000Y-57940000D01*
G04 #@! TO.C,C2*
X65730000Y-56010000D02*
X66530000Y-56010000D01*
X65730000Y-57610000D02*
X65730000Y-56010000D01*
X66530000Y-57610000D02*
X65730000Y-57610000D01*
X66530000Y-56010000D02*
X66530000Y-57610000D01*
G04 #@! TO.C,C17*
X58630000Y-56140000D02*
X59870000Y-56140000D01*
X58630000Y-58140000D02*
X58630000Y-56140000D01*
X59870000Y-58140000D02*
X58630000Y-58140000D01*
X59870000Y-56140000D02*
X59870000Y-58140000D01*
G04 #@! TO.C,Y1*
X54850000Y-51940000D02*
X53850000Y-51940000D01*
X55850000Y-52540000D02*
X54850000Y-51940000D01*
X54850000Y-53840000D02*
X53850000Y-53840000D01*
X55850000Y-53240000D02*
X54850000Y-53840000D01*
X55850000Y-51890000D02*
X55850000Y-53890000D01*
X61850000Y-51890000D02*
X55850000Y-51890000D01*
X61850000Y-53890000D02*
X61850000Y-51890000D01*
X55850000Y-53890000D02*
X61850000Y-53890000D01*
G04 #@! TO.C,R5*
X82050000Y-56740000D02*
X83050000Y-56740000D01*
X83050000Y-56740000D02*
X83050000Y-57240000D01*
X83050000Y-57240000D02*
X82050000Y-57240000D01*
X82050000Y-57240000D02*
X82050000Y-56740000D01*
G04 #@! TO.C,R10*
X34860000Y-57770000D02*
X34860000Y-57270000D01*
X35860000Y-57770000D02*
X34860000Y-57770000D01*
X35860000Y-57270000D02*
X35860000Y-57770000D01*
X34860000Y-57270000D02*
X35860000Y-57270000D01*
G04 #@! TO.C,R12*
X77000000Y-53240000D02*
X77000000Y-52240000D01*
X77000000Y-52240000D02*
X77500000Y-52240000D01*
X77500000Y-52240000D02*
X77500000Y-53240000D01*
X77500000Y-53240000D02*
X77000000Y-53240000D01*
G04 #@! TO.C,R4*
X68850000Y-54390000D02*
X68850000Y-54890000D01*
X67850000Y-54390000D02*
X68850000Y-54390000D01*
X67850000Y-54890000D02*
X67850000Y-54390000D01*
X68850000Y-54890000D02*
X67850000Y-54890000D01*
G04 #@! TO.C,R9*
X34870000Y-56780000D02*
X34870000Y-56280000D01*
X35870000Y-56780000D02*
X34870000Y-56780000D01*
X35870000Y-56280000D02*
X35870000Y-56780000D01*
X34870000Y-56280000D02*
X35870000Y-56280000D01*
G04 #@! TO.C,R1*
X73950000Y-54740000D02*
X72350000Y-54740000D01*
X72350000Y-54740000D02*
X72350000Y-53940000D01*
X72350000Y-53940000D02*
X73950000Y-53940000D01*
X73950000Y-53940000D02*
X73950000Y-54740000D01*
G04 #@! TO.C,R8*
X68850000Y-51440000D02*
X68850000Y-52240000D01*
X67250000Y-51440000D02*
X68850000Y-51440000D01*
X67250000Y-52240000D02*
X67250000Y-51440000D01*
X68850000Y-52240000D02*
X67250000Y-52240000D01*
G04 #@! TO.C,R11*
X60750000Y-57840000D02*
X60750000Y-56240000D01*
X60750000Y-56240000D02*
X61550000Y-56240000D01*
X61550000Y-56240000D02*
X61550000Y-57840000D01*
X61550000Y-57840000D02*
X60750000Y-57840000D01*
G04 #@! TO.C,J1*
X53520000Y-56570000D02*
X50980000Y-56570000D01*
X53520000Y-59110000D02*
X53520000Y-56570000D01*
X50980000Y-59110000D02*
X53520000Y-59110000D01*
X50980000Y-56570000D02*
X50980000Y-59110000D01*
G04 #@! TO.C,J2*
X28365000Y-53170000D02*
X30905000Y-53170000D01*
X30905000Y-53170000D02*
X30905000Y-50630000D01*
X30905000Y-50630000D02*
X28365000Y-50630000D01*
X28365000Y-50630000D02*
X28365000Y-53170000D01*
G04 #@! TO.C,D1*
X77535000Y-59110000D02*
X77535000Y-56570000D01*
X74995000Y-59110000D02*
X77535000Y-59110000D01*
X74995000Y-56570000D02*
X74995000Y-59110000D01*
X77535000Y-56570000D02*
X74995000Y-56570000D01*
G04 #@! TO.C,J3*
X28965000Y-57030000D02*
X28965000Y-59570000D01*
X32775000Y-57030000D02*
X28965000Y-57030000D01*
X32775000Y-59570000D02*
X32775000Y-57030000D01*
X28965000Y-59570000D02*
X32775000Y-59570000D01*
G04 #@! TO.C,J4*
X57740000Y-56205000D02*
X54690000Y-56205000D01*
X57740000Y-58745000D02*
X57740000Y-56205000D01*
X54690000Y-58745000D02*
X57740000Y-58745000D01*
X54690000Y-56205000D02*
X54690000Y-58745000D01*
G04 #@! TO.C,Q3*
X69450000Y-58360000D02*
X70850000Y-58360000D01*
X70850000Y-55320000D02*
X70850000Y-58360000D01*
X69450000Y-55890000D02*
X70000000Y-55320000D01*
X70000000Y-55320000D02*
X70850000Y-55320000D01*
X69450000Y-55890000D02*
X69450000Y-58340000D01*
D11*
G04 #@! TO.C,U4*
X78550000Y-51590000D02*
X81650000Y-51590000D01*
X81650000Y-51590000D02*
X81650000Y-54190000D01*
X81650000Y-54190000D02*
X78550000Y-54190000D01*
X78550000Y-54190000D02*
X78550000Y-51590000D01*
X78550000Y-51965000D02*
X79025000Y-51965000D01*
X79025000Y-51965000D02*
X79025000Y-52315000D01*
X79025000Y-52315000D02*
X78550000Y-52315000D01*
X78550000Y-52465000D02*
X79025000Y-52465000D01*
X79025000Y-52465000D02*
X79025000Y-52815000D01*
X79025000Y-52815000D02*
X78550000Y-52815000D01*
X78550000Y-52965000D02*
X79025000Y-52965000D01*
X79025000Y-52965000D02*
X79025000Y-53315000D01*
X79025000Y-53315000D02*
X78550000Y-53315000D01*
X78550000Y-53465000D02*
X79025000Y-53465000D01*
X79025000Y-53465000D02*
X79025000Y-53815000D01*
X79025000Y-53815000D02*
X78550000Y-53815000D01*
X79425000Y-54190000D02*
X79425000Y-53715000D01*
X79425000Y-53715000D02*
X79775000Y-53715000D01*
X79775000Y-53715000D02*
X79775000Y-54190000D01*
X79925000Y-54190000D02*
X79925000Y-53715000D01*
X79925000Y-53715000D02*
X80275000Y-53715000D01*
X80275000Y-53715000D02*
X80275000Y-54190000D01*
X80425000Y-54190000D02*
X80425000Y-53715000D01*
X80425000Y-53715000D02*
X80775000Y-53715000D01*
X80775000Y-53715000D02*
X80775000Y-54190000D01*
X81650000Y-53815000D02*
X81175000Y-53815000D01*
X81175000Y-53815000D02*
X81175000Y-53465000D01*
X81175000Y-53465000D02*
X81650000Y-53465000D01*
X81650000Y-53315000D02*
X81175000Y-53315000D01*
X81175000Y-53315000D02*
X81175000Y-52965000D01*
X81175000Y-52965000D02*
X81650000Y-52965000D01*
X81650000Y-52815000D02*
X81175000Y-52815000D01*
X81175000Y-52815000D02*
X81175000Y-52465000D01*
X81175000Y-52465000D02*
X81650000Y-52465000D01*
X81650000Y-52315000D02*
X81175000Y-52315000D01*
X81175000Y-52315000D02*
X81175000Y-51965000D01*
X81175000Y-51965000D02*
X81650000Y-51965000D01*
X80775000Y-51590000D02*
X80775000Y-52065000D01*
X80775000Y-52065000D02*
X80425000Y-52065000D01*
X80425000Y-52065000D02*
X80425000Y-51590000D01*
X80275000Y-51590000D02*
X80275000Y-52065000D01*
X80275000Y-52065000D02*
X79925000Y-52065000D01*
X79925000Y-52065000D02*
X79925000Y-51590000D01*
X79775000Y-51590000D02*
X79775000Y-52065000D01*
X79775000Y-52065000D02*
X79425000Y-52065000D01*
X79425000Y-52065000D02*
X79425000Y-51590000D01*
G04 #@! TO.C,U3*
X47660000Y-56940000D02*
X44060000Y-56940000D01*
X44060000Y-56940000D02*
X44060000Y-52340000D01*
X44060000Y-52340000D02*
X47660000Y-52340000D01*
X47660000Y-52340000D02*
X47660000Y-56940000D01*
X47660000Y-56540000D02*
X47260000Y-56540000D01*
X47260000Y-56540000D02*
X47260000Y-56240000D01*
X47260000Y-56240000D02*
X47660000Y-56240000D01*
X47660000Y-56040000D02*
X47260000Y-56040000D01*
X47260000Y-56040000D02*
X47260000Y-55740000D01*
X47260000Y-55740000D02*
X47660000Y-55740000D01*
X47660000Y-55540000D02*
X47260000Y-55540000D01*
X47260000Y-55540000D02*
X47260000Y-55240000D01*
X47260000Y-55240000D02*
X47660000Y-55240000D01*
X47660000Y-55040000D02*
X47260000Y-55040000D01*
X47260000Y-55040000D02*
X47260000Y-54740000D01*
X47260000Y-54740000D02*
X47660000Y-54740000D01*
X47660000Y-54540000D02*
X47260000Y-54540000D01*
X47260000Y-54540000D02*
X47260000Y-54240000D01*
X47260000Y-54240000D02*
X47660000Y-54240000D01*
X47660000Y-54040000D02*
X47260000Y-54040000D01*
X47260000Y-54040000D02*
X47260000Y-53740000D01*
X47260000Y-53740000D02*
X47660000Y-53740000D01*
X47660000Y-53540000D02*
X47260000Y-53540000D01*
X47260000Y-53540000D02*
X47260000Y-53240000D01*
X47260000Y-53240000D02*
X47660000Y-53240000D01*
X47660000Y-53040000D02*
X47260000Y-53040000D01*
X47260000Y-53040000D02*
X47260000Y-52740000D01*
X47260000Y-52740000D02*
X47660000Y-52740000D01*
X46760000Y-52340000D02*
X46760000Y-52740000D01*
X46760000Y-52740000D02*
X46460000Y-52740000D01*
X46460000Y-52740000D02*
X46460000Y-52340000D01*
X46260000Y-52340000D02*
X46260000Y-52740000D01*
X46260000Y-52740000D02*
X45960000Y-52740000D01*
X45960000Y-52740000D02*
X45960000Y-52340000D01*
X45760000Y-52340000D02*
X45760000Y-52740000D01*
X45760000Y-52740000D02*
X45460000Y-52740000D01*
X45460000Y-52740000D02*
X45460000Y-52340000D01*
X45260000Y-52340000D02*
X45260000Y-52740000D01*
X45260000Y-52740000D02*
X44960000Y-52740000D01*
X44960000Y-52740000D02*
X44960000Y-52340000D01*
X44060000Y-52740000D02*
X44460000Y-52740000D01*
X44460000Y-52740000D02*
X44460000Y-53040000D01*
X44460000Y-53040000D02*
X44060000Y-53040000D01*
X44060000Y-53240000D02*
X44460000Y-53240000D01*
X44460000Y-53240000D02*
X44460000Y-53540000D01*
X44460000Y-53540000D02*
X44060000Y-53540000D01*
X44060000Y-53740000D02*
X44460000Y-53740000D01*
X44460000Y-53740000D02*
X44460000Y-54040000D01*
X44460000Y-54040000D02*
X44060000Y-54040000D01*
X44060000Y-54240000D02*
X44460000Y-54240000D01*
X44460000Y-54240000D02*
X44460000Y-54540000D01*
X44460000Y-54540000D02*
X44060000Y-54540000D01*
X44060000Y-54740000D02*
X44460000Y-54740000D01*
X44460000Y-54740000D02*
X44460000Y-55040000D01*
X44460000Y-55040000D02*
X44060000Y-55040000D01*
X44060000Y-55240000D02*
X44460000Y-55240000D01*
X44460000Y-55240000D02*
X44460000Y-55540000D01*
X44460000Y-55540000D02*
X44060000Y-55540000D01*
X44060000Y-55740000D02*
X44460000Y-55740000D01*
X44460000Y-55740000D02*
X44460000Y-56040000D01*
X44460000Y-56040000D02*
X44060000Y-56040000D01*
X44060000Y-56240000D02*
X44460000Y-56240000D01*
X44460000Y-56240000D02*
X44460000Y-56540000D01*
X44460000Y-56540000D02*
X44060000Y-56540000D01*
X44960000Y-56940000D02*
X44960000Y-56540000D01*
X44960000Y-56540000D02*
X45260000Y-56540000D01*
X45260000Y-56540000D02*
X45260000Y-56940000D01*
X45460000Y-56940000D02*
X45460000Y-56540000D01*
X45460000Y-56540000D02*
X45760000Y-56540000D01*
X45760000Y-56540000D02*
X45760000Y-56940000D01*
X45960000Y-56940000D02*
X45960000Y-56540000D01*
X45960000Y-56540000D02*
X46260000Y-56540000D01*
X46260000Y-56540000D02*
X46260000Y-56940000D01*
X46460000Y-56940000D02*
X46460000Y-56540000D01*
X46460000Y-56540000D02*
X46760000Y-56540000D01*
X46760000Y-56540000D02*
X46760000Y-56940000D01*
G04 #@! TD*
G04 #@! TO.C,R13*
X48020476Y-59442380D02*
X48639523Y-59442380D01*
X48306190Y-59823333D01*
X48449047Y-59823333D01*
X48544285Y-59870952D01*
X48591904Y-59918571D01*
X48639523Y-60013809D01*
X48639523Y-60251904D01*
X48591904Y-60347142D01*
X48544285Y-60394761D01*
X48449047Y-60442380D01*
X48163333Y-60442380D01*
X48068095Y-60394761D01*
X48020476Y-60347142D01*
X48972857Y-59442380D02*
X49591904Y-59442380D01*
X49258571Y-59823333D01*
X49401428Y-59823333D01*
X49496666Y-59870952D01*
X49544285Y-59918571D01*
X49591904Y-60013809D01*
X49591904Y-60251904D01*
X49544285Y-60347142D01*
X49496666Y-60394761D01*
X49401428Y-60442380D01*
X49115714Y-60442380D01*
X49020476Y-60394761D01*
X48972857Y-60347142D01*
D12*
X48572857Y-58620952D02*
X48439523Y-58430476D01*
X48344285Y-58620952D02*
X48344285Y-58220952D01*
X48496666Y-58220952D01*
X48534761Y-58240000D01*
X48553809Y-58259047D01*
X48572857Y-58297142D01*
X48572857Y-58354285D01*
X48553809Y-58392380D01*
X48534761Y-58411428D01*
X48496666Y-58430476D01*
X48344285Y-58430476D01*
X48953809Y-58620952D02*
X48725238Y-58620952D01*
X48839523Y-58620952D02*
X48839523Y-58220952D01*
X48801428Y-58278095D01*
X48763333Y-58316190D01*
X48725238Y-58335238D01*
X49087142Y-58220952D02*
X49334761Y-58220952D01*
X49201428Y-58373333D01*
X49258571Y-58373333D01*
X49296666Y-58392380D01*
X49315714Y-58411428D01*
X49334761Y-58449523D01*
X49334761Y-58544761D01*
X49315714Y-58582857D01*
X49296666Y-58601904D01*
X49258571Y-58620952D01*
X49144285Y-58620952D01*
X49106190Y-58601904D01*
X49087142Y-58582857D01*
G04 #@! TO.C,R3*
D11*
X38049523Y-57655714D02*
X38049523Y-58322380D01*
X37811428Y-57274761D02*
X37573333Y-57989047D01*
X38192380Y-57989047D01*
X38478095Y-57322380D02*
X39144761Y-57322380D01*
X38716190Y-58322380D01*
X39525714Y-58322380D02*
X39525714Y-57322380D01*
X39620952Y-57941428D02*
X39906666Y-58322380D01*
X39906666Y-57655714D02*
X39525714Y-58036666D01*
D12*
X38673333Y-56500952D02*
X38540000Y-56310476D01*
X38444761Y-56500952D02*
X38444761Y-56100952D01*
X38597142Y-56100952D01*
X38635238Y-56120000D01*
X38654285Y-56139047D01*
X38673333Y-56177142D01*
X38673333Y-56234285D01*
X38654285Y-56272380D01*
X38635238Y-56291428D01*
X38597142Y-56310476D01*
X38444761Y-56310476D01*
X38806666Y-56100952D02*
X39054285Y-56100952D01*
X38920952Y-56253333D01*
X38978095Y-56253333D01*
X39016190Y-56272380D01*
X39035238Y-56291428D01*
X39054285Y-56329523D01*
X39054285Y-56424761D01*
X39035238Y-56462857D01*
X39016190Y-56481904D01*
X38978095Y-56500952D01*
X38863809Y-56500952D01*
X38825714Y-56481904D01*
X38806666Y-56462857D01*
G04 #@! TO.C,C10*
D11*
X51632380Y-55111428D02*
X51632380Y-55682857D01*
X51632380Y-55397142D02*
X50632380Y-55397142D01*
X50775238Y-55492380D01*
X50870476Y-55587619D01*
X50918095Y-55682857D01*
X50632380Y-54492380D02*
X50632380Y-54397142D01*
X50680000Y-54301904D01*
X50727619Y-54254285D01*
X50822857Y-54206666D01*
X51013333Y-54159047D01*
X51251428Y-54159047D01*
X51441904Y-54206666D01*
X51537142Y-54254285D01*
X51584761Y-54301904D01*
X51632380Y-54397142D01*
X51632380Y-54492380D01*
X51584761Y-54587619D01*
X51537142Y-54635238D01*
X51441904Y-54682857D01*
X51251428Y-54730476D01*
X51013333Y-54730476D01*
X50822857Y-54682857D01*
X50727619Y-54635238D01*
X50680000Y-54587619D01*
X50632380Y-54492380D01*
X50965714Y-53730476D02*
X51965714Y-53730476D01*
X51013333Y-53730476D02*
X50965714Y-53635238D01*
X50965714Y-53444761D01*
X51013333Y-53349523D01*
X51060952Y-53301904D01*
X51156190Y-53254285D01*
X51441904Y-53254285D01*
X51537142Y-53301904D01*
X51584761Y-53349523D01*
X51632380Y-53444761D01*
X51632380Y-53635238D01*
X51584761Y-53730476D01*
X51108571Y-52492380D02*
X51108571Y-52825714D01*
X51632380Y-52825714D02*
X50632380Y-52825714D01*
X50632380Y-52349523D01*
X54077142Y-54682857D02*
X54124761Y-54730476D01*
X54172380Y-54873333D01*
X54172380Y-54968571D01*
X54124761Y-55111428D01*
X54029523Y-55206666D01*
X53934285Y-55254285D01*
X53743809Y-55301904D01*
X53600952Y-55301904D01*
X53410476Y-55254285D01*
X53315238Y-55206666D01*
X53220000Y-55111428D01*
X53172380Y-54968571D01*
X53172380Y-54873333D01*
X53220000Y-54730476D01*
X53267619Y-54682857D01*
X54172380Y-53730476D02*
X54172380Y-54301904D01*
X54172380Y-54016190D02*
X53172380Y-54016190D01*
X53315238Y-54111428D01*
X53410476Y-54206666D01*
X53458095Y-54301904D01*
X53172380Y-53111428D02*
X53172380Y-53016190D01*
X53220000Y-52920952D01*
X53267619Y-52873333D01*
X53362857Y-52825714D01*
X53553333Y-52778095D01*
X53791428Y-52778095D01*
X53981904Y-52825714D01*
X54077142Y-52873333D01*
X54124761Y-52920952D01*
X54172380Y-53016190D01*
X54172380Y-53111428D01*
X54124761Y-53206666D01*
X54077142Y-53254285D01*
X53981904Y-53301904D01*
X53791428Y-53349523D01*
X53553333Y-53349523D01*
X53362857Y-53301904D01*
X53267619Y-53254285D01*
X53220000Y-53206666D01*
X53172380Y-53111428D01*
G04 #@! TO.C,C18*
X33605714Y-55064761D02*
X34272380Y-55064761D01*
X33224761Y-55302857D02*
X33939047Y-55540952D01*
X33939047Y-54921904D01*
X34177142Y-54540952D02*
X34224761Y-54493333D01*
X34272380Y-54540952D01*
X34224761Y-54588571D01*
X34177142Y-54540952D01*
X34272380Y-54540952D01*
X33272380Y-54160000D02*
X33272380Y-53493333D01*
X34272380Y-53921904D01*
X33605714Y-52683809D02*
X34272380Y-52683809D01*
X33605714Y-53112380D02*
X34129523Y-53112380D01*
X34224761Y-53064761D01*
X34272380Y-52969523D01*
X34272380Y-52826666D01*
X34224761Y-52731428D01*
X34177142Y-52683809D01*
X33748571Y-51874285D02*
X33748571Y-52207619D01*
X34272380Y-52207619D02*
X33272380Y-52207619D01*
X33272380Y-51731428D01*
X36927142Y-54302857D02*
X36974761Y-54350476D01*
X37022380Y-54493333D01*
X37022380Y-54588571D01*
X36974761Y-54731428D01*
X36879523Y-54826666D01*
X36784285Y-54874285D01*
X36593809Y-54921904D01*
X36450952Y-54921904D01*
X36260476Y-54874285D01*
X36165238Y-54826666D01*
X36070000Y-54731428D01*
X36022380Y-54588571D01*
X36022380Y-54493333D01*
X36070000Y-54350476D01*
X36117619Y-54302857D01*
X37022380Y-53350476D02*
X37022380Y-53921904D01*
X37022380Y-53636190D02*
X36022380Y-53636190D01*
X36165238Y-53731428D01*
X36260476Y-53826666D01*
X36308095Y-53921904D01*
X36450952Y-52779047D02*
X36403333Y-52874285D01*
X36355714Y-52921904D01*
X36260476Y-52969523D01*
X36212857Y-52969523D01*
X36117619Y-52921904D01*
X36070000Y-52874285D01*
X36022380Y-52779047D01*
X36022380Y-52588571D01*
X36070000Y-52493333D01*
X36117619Y-52445714D01*
X36212857Y-52398095D01*
X36260476Y-52398095D01*
X36355714Y-52445714D01*
X36403333Y-52493333D01*
X36450952Y-52588571D01*
X36450952Y-52779047D01*
X36498571Y-52874285D01*
X36546190Y-52921904D01*
X36641428Y-52969523D01*
X36831904Y-52969523D01*
X36927142Y-52921904D01*
X36974761Y-52874285D01*
X37022380Y-52779047D01*
X37022380Y-52588571D01*
X36974761Y-52493333D01*
X36927142Y-52445714D01*
X36831904Y-52398095D01*
X36641428Y-52398095D01*
X36546190Y-52445714D01*
X36498571Y-52493333D01*
X36450952Y-52588571D01*
G04 #@! TO.C,U5*
X33098571Y-56032380D02*
X33670000Y-56032380D01*
X33384285Y-57032380D02*
X33384285Y-56032380D01*
X34003333Y-57032380D02*
X34003333Y-56032380D01*
X34384285Y-56032380D01*
X34479523Y-56080000D01*
X34527142Y-56127619D01*
X34574761Y-56222857D01*
X34574761Y-56365714D01*
X34527142Y-56460952D01*
X34479523Y-56508571D01*
X34384285Y-56556190D01*
X34003333Y-56556190D01*
X34955714Y-56984761D02*
X35098571Y-57032380D01*
X35336666Y-57032380D01*
X35431904Y-56984761D01*
X35479523Y-56937142D01*
X35527142Y-56841904D01*
X35527142Y-56746666D01*
X35479523Y-56651428D01*
X35431904Y-56603809D01*
X35336666Y-56556190D01*
X35146190Y-56508571D01*
X35050952Y-56460952D01*
X35003333Y-56413333D01*
X34955714Y-56318095D01*
X34955714Y-56222857D01*
X35003333Y-56127619D01*
X35050952Y-56080000D01*
X35146190Y-56032380D01*
X35384285Y-56032380D01*
X35527142Y-56080000D01*
X35908095Y-56127619D02*
X35955714Y-56080000D01*
X36050952Y-56032380D01*
X36289047Y-56032380D01*
X36384285Y-56080000D01*
X36431904Y-56127619D01*
X36479523Y-56222857D01*
X36479523Y-56318095D01*
X36431904Y-56460952D01*
X35860476Y-57032380D01*
X36479523Y-57032380D01*
X36860476Y-56127619D02*
X36908095Y-56080000D01*
X37003333Y-56032380D01*
X37241428Y-56032380D01*
X37336666Y-56080000D01*
X37384285Y-56127619D01*
X37431904Y-56222857D01*
X37431904Y-56318095D01*
X37384285Y-56460952D01*
X36812857Y-57032380D01*
X37431904Y-57032380D01*
X37908095Y-57032380D02*
X38098571Y-57032380D01*
X38193809Y-56984761D01*
X38241428Y-56937142D01*
X38336666Y-56794285D01*
X38384285Y-56603809D01*
X38384285Y-56222857D01*
X38336666Y-56127619D01*
X38289047Y-56080000D01*
X38193809Y-56032380D01*
X38003333Y-56032380D01*
X37908095Y-56080000D01*
X37860476Y-56127619D01*
X37812857Y-56222857D01*
X37812857Y-56460952D01*
X37860476Y-56556190D01*
X37908095Y-56603809D01*
X38003333Y-56651428D01*
X38193809Y-56651428D01*
X38289047Y-56603809D01*
X38336666Y-56556190D01*
X38384285Y-56460952D01*
X39336666Y-57032380D02*
X38765238Y-57032380D01*
X39050952Y-57032380D02*
X39050952Y-56032380D01*
X38955714Y-56175238D01*
X38860476Y-56270476D01*
X38765238Y-56318095D01*
X39670000Y-56032380D02*
X40336666Y-56032380D01*
X39908095Y-57032380D01*
X40717619Y-57032380D02*
X40717619Y-56032380D01*
X40955714Y-56032380D01*
X41098571Y-56080000D01*
X41193809Y-56175238D01*
X41241428Y-56270476D01*
X41289047Y-56460952D01*
X41289047Y-56603809D01*
X41241428Y-56794285D01*
X41193809Y-56889523D01*
X41098571Y-56984761D01*
X40955714Y-57032380D01*
X40717619Y-57032380D01*
X42050952Y-56508571D02*
X42193809Y-56556190D01*
X42241428Y-56603809D01*
X42289047Y-56699047D01*
X42289047Y-56841904D01*
X42241428Y-56937142D01*
X42193809Y-56984761D01*
X42098571Y-57032380D01*
X41717619Y-57032380D01*
X41717619Y-56032380D01*
X42050952Y-56032380D01*
X42146190Y-56080000D01*
X42193809Y-56127619D01*
X42241428Y-56222857D01*
X42241428Y-56318095D01*
X42193809Y-56413333D01*
X42146190Y-56460952D01*
X42050952Y-56508571D01*
X41717619Y-56508571D01*
X42574761Y-56032380D02*
X42908095Y-57032380D01*
X43241428Y-56032380D01*
X44146190Y-57032380D02*
X43812857Y-56556190D01*
X43574761Y-57032380D02*
X43574761Y-56032380D01*
X43955714Y-56032380D01*
X44050952Y-56080000D01*
X44098571Y-56127619D01*
X44146190Y-56222857D01*
X44146190Y-56365714D01*
X44098571Y-56460952D01*
X44050952Y-56508571D01*
X43955714Y-56556190D01*
X43574761Y-56556190D01*
D12*
X38396190Y-54060952D02*
X38800952Y-54060952D01*
X38848571Y-54037142D01*
X38872380Y-54013333D01*
X38896190Y-53965714D01*
X38896190Y-53870476D01*
X38872380Y-53822857D01*
X38848571Y-53799047D01*
X38800952Y-53775238D01*
X38396190Y-53775238D01*
X38396190Y-53299047D02*
X38396190Y-53537142D01*
X38634285Y-53560952D01*
X38610476Y-53537142D01*
X38586666Y-53489523D01*
X38586666Y-53370476D01*
X38610476Y-53322857D01*
X38634285Y-53299047D01*
X38681904Y-53275238D01*
X38800952Y-53275238D01*
X38848571Y-53299047D01*
X38872380Y-53322857D01*
X38896190Y-53370476D01*
X38896190Y-53489523D01*
X38872380Y-53537142D01*
X38848571Y-53560952D01*
G04 #@! TO.C,Q1*
D11*
X23921904Y-58122380D02*
X23921904Y-57122380D01*
X24160000Y-57122380D01*
X24302857Y-57170000D01*
X24398095Y-57265238D01*
X24445714Y-57360476D01*
X24493333Y-57550952D01*
X24493333Y-57693809D01*
X24445714Y-57884285D01*
X24398095Y-57979523D01*
X24302857Y-58074761D01*
X24160000Y-58122380D01*
X23921904Y-58122380D01*
X24921904Y-58122380D02*
X24921904Y-57122380D01*
X25255238Y-57836666D01*
X25588571Y-57122380D01*
X25588571Y-58122380D01*
X26064761Y-58122380D02*
X26064761Y-57122380D01*
X26445714Y-57122380D01*
X26540952Y-57170000D01*
X26588571Y-57217619D01*
X26636190Y-57312857D01*
X26636190Y-57455714D01*
X26588571Y-57550952D01*
X26540952Y-57598571D01*
X26445714Y-57646190D01*
X26064761Y-57646190D01*
X26969523Y-57122380D02*
X27588571Y-57122380D01*
X27255238Y-57503333D01*
X27398095Y-57503333D01*
X27493333Y-57550952D01*
X27540952Y-57598571D01*
X27588571Y-57693809D01*
X27588571Y-57931904D01*
X27540952Y-58027142D01*
X27493333Y-58074761D01*
X27398095Y-58122380D01*
X27112380Y-58122380D01*
X27017142Y-58074761D01*
X26969523Y-58027142D01*
X28207619Y-57122380D02*
X28302857Y-57122380D01*
X28398095Y-57170000D01*
X28445714Y-57217619D01*
X28493333Y-57312857D01*
X28540952Y-57503333D01*
X28540952Y-57741428D01*
X28493333Y-57931904D01*
X28445714Y-58027142D01*
X28398095Y-58074761D01*
X28302857Y-58122380D01*
X28207619Y-58122380D01*
X28112380Y-58074761D01*
X28064761Y-58027142D01*
X28017142Y-57931904D01*
X27969523Y-57741428D01*
X27969523Y-57503333D01*
X28017142Y-57312857D01*
X28064761Y-57217619D01*
X28112380Y-57170000D01*
X28207619Y-57122380D01*
X29017142Y-58122380D02*
X29207619Y-58122380D01*
X29302857Y-58074761D01*
X29350476Y-58027142D01*
X29445714Y-57884285D01*
X29493333Y-57693809D01*
X29493333Y-57312857D01*
X29445714Y-57217619D01*
X29398095Y-57170000D01*
X29302857Y-57122380D01*
X29112380Y-57122380D01*
X29017142Y-57170000D01*
X28969523Y-57217619D01*
X28921904Y-57312857D01*
X28921904Y-57550952D01*
X28969523Y-57646190D01*
X29017142Y-57693809D01*
X29112380Y-57741428D01*
X29302857Y-57741428D01*
X29398095Y-57693809D01*
X29445714Y-57646190D01*
X29493333Y-57550952D01*
X29969523Y-58122380D02*
X30160000Y-58122380D01*
X30255238Y-58074761D01*
X30302857Y-58027142D01*
X30398095Y-57884285D01*
X30445714Y-57693809D01*
X30445714Y-57312857D01*
X30398095Y-57217619D01*
X30350476Y-57170000D01*
X30255238Y-57122380D01*
X30064761Y-57122380D01*
X29969523Y-57170000D01*
X29921904Y-57217619D01*
X29874285Y-57312857D01*
X29874285Y-57550952D01*
X29921904Y-57646190D01*
X29969523Y-57693809D01*
X30064761Y-57741428D01*
X30255238Y-57741428D01*
X30350476Y-57693809D01*
X30398095Y-57646190D01*
X30445714Y-57550952D01*
X31350476Y-58122380D02*
X30874285Y-58122380D01*
X30874285Y-57122380D01*
X31683809Y-57741428D02*
X32445714Y-57741428D01*
X32826666Y-57122380D02*
X33493333Y-57122380D01*
X33064761Y-58122380D01*
D12*
X28933809Y-55217619D02*
X28910000Y-55265238D01*
X28862380Y-55312857D01*
X28790952Y-55384285D01*
X28767142Y-55431904D01*
X28767142Y-55479523D01*
X28886190Y-55455714D02*
X28862380Y-55503333D01*
X28814761Y-55550952D01*
X28719523Y-55574761D01*
X28552857Y-55574761D01*
X28457619Y-55550952D01*
X28410000Y-55503333D01*
X28386190Y-55455714D01*
X28386190Y-55360476D01*
X28410000Y-55312857D01*
X28457619Y-55265238D01*
X28552857Y-55241428D01*
X28719523Y-55241428D01*
X28814761Y-55265238D01*
X28862380Y-55312857D01*
X28886190Y-55360476D01*
X28886190Y-55455714D01*
X28886190Y-54765238D02*
X28886190Y-55050952D01*
X28886190Y-54908095D02*
X28386190Y-54908095D01*
X28457619Y-54955714D01*
X28505238Y-55003333D01*
X28529047Y-55050952D01*
G04 #@! TO.C,C13*
D11*
X78652380Y-54672380D02*
X78080952Y-54672380D01*
X78366666Y-54672380D02*
X78366666Y-53672380D01*
X78271428Y-53815238D01*
X78176190Y-53910476D01*
X78080952Y-53958095D01*
X79271428Y-53672380D02*
X79366666Y-53672380D01*
X79461904Y-53720000D01*
X79509523Y-53767619D01*
X79557142Y-53862857D01*
X79604761Y-54053333D01*
X79604761Y-54291428D01*
X79557142Y-54481904D01*
X79509523Y-54577142D01*
X79461904Y-54624761D01*
X79366666Y-54672380D01*
X79271428Y-54672380D01*
X79176190Y-54624761D01*
X79128571Y-54577142D01*
X79080952Y-54481904D01*
X79033333Y-54291428D01*
X79033333Y-54053333D01*
X79080952Y-53862857D01*
X79128571Y-53767619D01*
X79176190Y-53720000D01*
X79271428Y-53672380D01*
X80223809Y-53672380D02*
X80319047Y-53672380D01*
X80414285Y-53720000D01*
X80461904Y-53767619D01*
X80509523Y-53862857D01*
X80557142Y-54053333D01*
X80557142Y-54291428D01*
X80509523Y-54481904D01*
X80461904Y-54577142D01*
X80414285Y-54624761D01*
X80319047Y-54672380D01*
X80223809Y-54672380D01*
X80128571Y-54624761D01*
X80080952Y-54577142D01*
X80033333Y-54481904D01*
X79985714Y-54291428D01*
X79985714Y-54053333D01*
X80033333Y-53862857D01*
X80080952Y-53767619D01*
X80128571Y-53720000D01*
X80223809Y-53672380D01*
X80985714Y-54005714D02*
X80985714Y-54672380D01*
X80985714Y-54100952D02*
X81033333Y-54053333D01*
X81128571Y-54005714D01*
X81271428Y-54005714D01*
X81366666Y-54053333D01*
X81414285Y-54148571D01*
X81414285Y-54672380D01*
X82223809Y-54148571D02*
X81890476Y-54148571D01*
X81890476Y-54672380D02*
X81890476Y-53672380D01*
X82366666Y-53672380D01*
X79557142Y-57117142D02*
X79509523Y-57164761D01*
X79366666Y-57212380D01*
X79271428Y-57212380D01*
X79128571Y-57164761D01*
X79033333Y-57069523D01*
X78985714Y-56974285D01*
X78938095Y-56783809D01*
X78938095Y-56640952D01*
X78985714Y-56450476D01*
X79033333Y-56355238D01*
X79128571Y-56260000D01*
X79271428Y-56212380D01*
X79366666Y-56212380D01*
X79509523Y-56260000D01*
X79557142Y-56307619D01*
X80509523Y-57212380D02*
X79938095Y-57212380D01*
X80223809Y-57212380D02*
X80223809Y-56212380D01*
X80128571Y-56355238D01*
X80033333Y-56450476D01*
X79938095Y-56498095D01*
X80842857Y-56212380D02*
X81461904Y-56212380D01*
X81128571Y-56593333D01*
X81271428Y-56593333D01*
X81366666Y-56640952D01*
X81414285Y-56688571D01*
X81461904Y-56783809D01*
X81461904Y-57021904D01*
X81414285Y-57117142D01*
X81366666Y-57164761D01*
X81271428Y-57212380D01*
X80985714Y-57212380D01*
X80890476Y-57164761D01*
X80842857Y-57117142D01*
G04 #@! TO.C,C12*
X84772380Y-56537619D02*
X84772380Y-57109047D01*
X84772380Y-56823333D02*
X83772380Y-56823333D01*
X83915238Y-56918571D01*
X84010476Y-57013809D01*
X84058095Y-57109047D01*
X83772380Y-55918571D02*
X83772380Y-55823333D01*
X83820000Y-55728095D01*
X83867619Y-55680476D01*
X83962857Y-55632857D01*
X84153333Y-55585238D01*
X84391428Y-55585238D01*
X84581904Y-55632857D01*
X84677142Y-55680476D01*
X84724761Y-55728095D01*
X84772380Y-55823333D01*
X84772380Y-55918571D01*
X84724761Y-56013809D01*
X84677142Y-56061428D01*
X84581904Y-56109047D01*
X84391428Y-56156666D01*
X84153333Y-56156666D01*
X83962857Y-56109047D01*
X83867619Y-56061428D01*
X83820000Y-56013809D01*
X83772380Y-55918571D01*
X83772380Y-54966190D02*
X83772380Y-54870952D01*
X83820000Y-54775714D01*
X83867619Y-54728095D01*
X83962857Y-54680476D01*
X84153333Y-54632857D01*
X84391428Y-54632857D01*
X84581904Y-54680476D01*
X84677142Y-54728095D01*
X84724761Y-54775714D01*
X84772380Y-54870952D01*
X84772380Y-54966190D01*
X84724761Y-55061428D01*
X84677142Y-55109047D01*
X84581904Y-55156666D01*
X84391428Y-55204285D01*
X84153333Y-55204285D01*
X83962857Y-55156666D01*
X83867619Y-55109047D01*
X83820000Y-55061428D01*
X83772380Y-54966190D01*
X84105714Y-54204285D02*
X84772380Y-54204285D01*
X84200952Y-54204285D02*
X84153333Y-54156666D01*
X84105714Y-54061428D01*
X84105714Y-53918571D01*
X84153333Y-53823333D01*
X84248571Y-53775714D01*
X84772380Y-53775714D01*
X84248571Y-52966190D02*
X84248571Y-53299523D01*
X84772380Y-53299523D02*
X83772380Y-53299523D01*
X83772380Y-52823333D01*
X82137142Y-55632857D02*
X82184761Y-55680476D01*
X82232380Y-55823333D01*
X82232380Y-55918571D01*
X82184761Y-56061428D01*
X82089523Y-56156666D01*
X81994285Y-56204285D01*
X81803809Y-56251904D01*
X81660952Y-56251904D01*
X81470476Y-56204285D01*
X81375238Y-56156666D01*
X81280000Y-56061428D01*
X81232380Y-55918571D01*
X81232380Y-55823333D01*
X81280000Y-55680476D01*
X81327619Y-55632857D01*
X82232380Y-54680476D02*
X82232380Y-55251904D01*
X82232380Y-54966190D02*
X81232380Y-54966190D01*
X81375238Y-55061428D01*
X81470476Y-55156666D01*
X81518095Y-55251904D01*
X81327619Y-54299523D02*
X81280000Y-54251904D01*
X81232380Y-54156666D01*
X81232380Y-53918571D01*
X81280000Y-53823333D01*
X81327619Y-53775714D01*
X81422857Y-53728095D01*
X81518095Y-53728095D01*
X81660952Y-53775714D01*
X82232380Y-54347142D01*
X82232380Y-53728095D01*
G04 #@! TO.C,C11*
X54172380Y-53111428D02*
X54172380Y-53682857D01*
X54172380Y-53397142D02*
X53172380Y-53397142D01*
X53315238Y-53492380D01*
X53410476Y-53587619D01*
X53458095Y-53682857D01*
X53172380Y-52492380D02*
X53172380Y-52397142D01*
X53220000Y-52301904D01*
X53267619Y-52254285D01*
X53362857Y-52206666D01*
X53553333Y-52159047D01*
X53791428Y-52159047D01*
X53981904Y-52206666D01*
X54077142Y-52254285D01*
X54124761Y-52301904D01*
X54172380Y-52397142D01*
X54172380Y-52492380D01*
X54124761Y-52587619D01*
X54077142Y-52635238D01*
X53981904Y-52682857D01*
X53791428Y-52730476D01*
X53553333Y-52730476D01*
X53362857Y-52682857D01*
X53267619Y-52635238D01*
X53220000Y-52587619D01*
X53172380Y-52492380D01*
X53505714Y-51730476D02*
X54505714Y-51730476D01*
X53553333Y-51730476D02*
X53505714Y-51635238D01*
X53505714Y-51444761D01*
X53553333Y-51349523D01*
X53600952Y-51301904D01*
X53696190Y-51254285D01*
X53981904Y-51254285D01*
X54077142Y-51301904D01*
X54124761Y-51349523D01*
X54172380Y-51444761D01*
X54172380Y-51635238D01*
X54124761Y-51730476D01*
X53648571Y-50492380D02*
X53648571Y-50825714D01*
X54172380Y-50825714D02*
X53172380Y-50825714D01*
X53172380Y-50349523D01*
X51537142Y-52682857D02*
X51584761Y-52730476D01*
X51632380Y-52873333D01*
X51632380Y-52968571D01*
X51584761Y-53111428D01*
X51489523Y-53206666D01*
X51394285Y-53254285D01*
X51203809Y-53301904D01*
X51060952Y-53301904D01*
X50870476Y-53254285D01*
X50775238Y-53206666D01*
X50680000Y-53111428D01*
X50632380Y-52968571D01*
X50632380Y-52873333D01*
X50680000Y-52730476D01*
X50727619Y-52682857D01*
X51632380Y-51730476D02*
X51632380Y-52301904D01*
X51632380Y-52016190D02*
X50632380Y-52016190D01*
X50775238Y-52111428D01*
X50870476Y-52206666D01*
X50918095Y-52301904D01*
X51632380Y-50778095D02*
X51632380Y-51349523D01*
X51632380Y-51063809D02*
X50632380Y-51063809D01*
X50775238Y-51159047D01*
X50870476Y-51254285D01*
X50918095Y-51349523D01*
G04 #@! TO.C,C9*
X49182380Y-56772380D02*
X48610952Y-56772380D01*
X48896666Y-56772380D02*
X48896666Y-55772380D01*
X48801428Y-55915238D01*
X48706190Y-56010476D01*
X48610952Y-56058095D01*
X49801428Y-55772380D02*
X49896666Y-55772380D01*
X49991904Y-55820000D01*
X50039523Y-55867619D01*
X50087142Y-55962857D01*
X50134761Y-56153333D01*
X50134761Y-56391428D01*
X50087142Y-56581904D01*
X50039523Y-56677142D01*
X49991904Y-56724761D01*
X49896666Y-56772380D01*
X49801428Y-56772380D01*
X49706190Y-56724761D01*
X49658571Y-56677142D01*
X49610952Y-56581904D01*
X49563333Y-56391428D01*
X49563333Y-56153333D01*
X49610952Y-55962857D01*
X49658571Y-55867619D01*
X49706190Y-55820000D01*
X49801428Y-55772380D01*
X50753809Y-55772380D02*
X50849047Y-55772380D01*
X50944285Y-55820000D01*
X50991904Y-55867619D01*
X51039523Y-55962857D01*
X51087142Y-56153333D01*
X51087142Y-56391428D01*
X51039523Y-56581904D01*
X50991904Y-56677142D01*
X50944285Y-56724761D01*
X50849047Y-56772380D01*
X50753809Y-56772380D01*
X50658571Y-56724761D01*
X50610952Y-56677142D01*
X50563333Y-56581904D01*
X50515714Y-56391428D01*
X50515714Y-56153333D01*
X50563333Y-55962857D01*
X50610952Y-55867619D01*
X50658571Y-55820000D01*
X50753809Y-55772380D01*
X51515714Y-56105714D02*
X51515714Y-56772380D01*
X51515714Y-56200952D02*
X51563333Y-56153333D01*
X51658571Y-56105714D01*
X51801428Y-56105714D01*
X51896666Y-56153333D01*
X51944285Y-56248571D01*
X51944285Y-56772380D01*
X52753809Y-56248571D02*
X52420476Y-56248571D01*
X52420476Y-56772380D02*
X52420476Y-55772380D01*
X52896666Y-55772380D01*
X50563333Y-54137142D02*
X50515714Y-54184761D01*
X50372857Y-54232380D01*
X50277619Y-54232380D01*
X50134761Y-54184761D01*
X50039523Y-54089523D01*
X49991904Y-53994285D01*
X49944285Y-53803809D01*
X49944285Y-53660952D01*
X49991904Y-53470476D01*
X50039523Y-53375238D01*
X50134761Y-53280000D01*
X50277619Y-53232380D01*
X50372857Y-53232380D01*
X50515714Y-53280000D01*
X50563333Y-53327619D01*
X51039523Y-54232380D02*
X51230000Y-54232380D01*
X51325238Y-54184761D01*
X51372857Y-54137142D01*
X51468095Y-53994285D01*
X51515714Y-53803809D01*
X51515714Y-53422857D01*
X51468095Y-53327619D01*
X51420476Y-53280000D01*
X51325238Y-53232380D01*
X51134761Y-53232380D01*
X51039523Y-53280000D01*
X50991904Y-53327619D01*
X50944285Y-53422857D01*
X50944285Y-53660952D01*
X50991904Y-53756190D01*
X51039523Y-53803809D01*
X51134761Y-53851428D01*
X51325238Y-53851428D01*
X51420476Y-53803809D01*
X51468095Y-53756190D01*
X51515714Y-53660952D01*
G04 #@! TO.C,C1*
X74935714Y-58544761D02*
X75602380Y-58544761D01*
X74554761Y-58782857D02*
X75269047Y-59020952D01*
X75269047Y-58401904D01*
X75507142Y-58020952D02*
X75554761Y-57973333D01*
X75602380Y-58020952D01*
X75554761Y-58068571D01*
X75507142Y-58020952D01*
X75602380Y-58020952D01*
X74602380Y-57640000D02*
X74602380Y-56973333D01*
X75602380Y-57401904D01*
X74935714Y-56163809D02*
X75602380Y-56163809D01*
X74935714Y-56592380D02*
X75459523Y-56592380D01*
X75554761Y-56544761D01*
X75602380Y-56449523D01*
X75602380Y-56306666D01*
X75554761Y-56211428D01*
X75507142Y-56163809D01*
X75078571Y-55354285D02*
X75078571Y-55687619D01*
X75602380Y-55687619D02*
X74602380Y-55687619D01*
X74602380Y-55211428D01*
X72757142Y-57306666D02*
X72804761Y-57354285D01*
X72852380Y-57497142D01*
X72852380Y-57592380D01*
X72804761Y-57735238D01*
X72709523Y-57830476D01*
X72614285Y-57878095D01*
X72423809Y-57925714D01*
X72280952Y-57925714D01*
X72090476Y-57878095D01*
X71995238Y-57830476D01*
X71900000Y-57735238D01*
X71852380Y-57592380D01*
X71852380Y-57497142D01*
X71900000Y-57354285D01*
X71947619Y-57306666D01*
X72852380Y-56354285D02*
X72852380Y-56925714D01*
X72852380Y-56640000D02*
X71852380Y-56640000D01*
X71995238Y-56735238D01*
X72090476Y-56830476D01*
X72138095Y-56925714D01*
G04 #@! TO.C,C2*
X64415714Y-58214761D02*
X65082380Y-58214761D01*
X64034761Y-58452857D02*
X64749047Y-58690952D01*
X64749047Y-58071904D01*
X64987142Y-57690952D02*
X65034761Y-57643333D01*
X65082380Y-57690952D01*
X65034761Y-57738571D01*
X64987142Y-57690952D01*
X65082380Y-57690952D01*
X64082380Y-57309999D02*
X64082380Y-56643333D01*
X65082380Y-57071904D01*
X64415714Y-55833809D02*
X65082380Y-55833809D01*
X64415714Y-56262380D02*
X64939523Y-56262380D01*
X65034761Y-56214761D01*
X65082380Y-56119523D01*
X65082380Y-55976666D01*
X65034761Y-55881428D01*
X64987142Y-55833809D01*
X64558571Y-55024285D02*
X64558571Y-55357619D01*
X65082380Y-55357619D02*
X64082380Y-55357619D01*
X64082380Y-54881428D01*
X67737142Y-56976666D02*
X67784761Y-57024285D01*
X67832380Y-57167142D01*
X67832380Y-57262380D01*
X67784761Y-57405238D01*
X67689523Y-57500476D01*
X67594285Y-57548095D01*
X67403809Y-57595714D01*
X67260952Y-57595714D01*
X67070476Y-57548095D01*
X66975238Y-57500476D01*
X66880000Y-57405238D01*
X66832380Y-57262380D01*
X66832380Y-57167142D01*
X66880000Y-57024285D01*
X66927619Y-56976666D01*
X66927619Y-56595714D02*
X66880000Y-56548095D01*
X66832380Y-56452857D01*
X66832380Y-56214761D01*
X66880000Y-56119523D01*
X66927619Y-56071904D01*
X67022857Y-56024285D01*
X67118095Y-56024285D01*
X67260952Y-56071904D01*
X67832380Y-56643333D01*
X67832380Y-56024285D01*
G04 #@! TO.C,C17*
X57952380Y-60592380D02*
X57952380Y-61163809D01*
X57952380Y-60878095D02*
X56952380Y-60878095D01*
X57095238Y-60973333D01*
X57190476Y-61068571D01*
X57238095Y-61163809D01*
X56952380Y-59973333D02*
X56952380Y-59878095D01*
X57000000Y-59782857D01*
X57047619Y-59735238D01*
X57142857Y-59687619D01*
X57333333Y-59640000D01*
X57571428Y-59640000D01*
X57761904Y-59687619D01*
X57857142Y-59735238D01*
X57904761Y-59782857D01*
X57952380Y-59878095D01*
X57952380Y-59973333D01*
X57904761Y-60068571D01*
X57857142Y-60116190D01*
X57761904Y-60163809D01*
X57571428Y-60211428D01*
X57333333Y-60211428D01*
X57142857Y-60163809D01*
X57047619Y-60116190D01*
X57000000Y-60068571D01*
X56952380Y-59973333D01*
X56952380Y-59020952D02*
X56952380Y-58925714D01*
X57000000Y-58830476D01*
X57047619Y-58782857D01*
X57142857Y-58735238D01*
X57333333Y-58687619D01*
X57571428Y-58687619D01*
X57761904Y-58735238D01*
X57857142Y-58782857D01*
X57904761Y-58830476D01*
X57952380Y-58925714D01*
X57952380Y-59020952D01*
X57904761Y-59116190D01*
X57857142Y-59163809D01*
X57761904Y-59211428D01*
X57571428Y-59259047D01*
X57333333Y-59259047D01*
X57142857Y-59211428D01*
X57047619Y-59163809D01*
X57000000Y-59116190D01*
X56952380Y-59020952D01*
X56952380Y-58068571D02*
X56952380Y-57973333D01*
X57000000Y-57878095D01*
X57047619Y-57830476D01*
X57142857Y-57782857D01*
X57333333Y-57735238D01*
X57571428Y-57735238D01*
X57761904Y-57782857D01*
X57857142Y-57830476D01*
X57904761Y-57878095D01*
X57952380Y-57973333D01*
X57952380Y-58068571D01*
X57904761Y-58163809D01*
X57857142Y-58211428D01*
X57761904Y-58259047D01*
X57571428Y-58306666D01*
X57333333Y-58306666D01*
X57142857Y-58259047D01*
X57047619Y-58211428D01*
X57000000Y-58163809D01*
X56952380Y-58068571D01*
X57285714Y-57306666D02*
X58285714Y-57306666D01*
X57333333Y-57306666D02*
X57285714Y-57211428D01*
X57285714Y-57020952D01*
X57333333Y-56925714D01*
X57380952Y-56878095D01*
X57476190Y-56830476D01*
X57761904Y-56830476D01*
X57857142Y-56878095D01*
X57904761Y-56925714D01*
X57952380Y-57020952D01*
X57952380Y-57211428D01*
X57904761Y-57306666D01*
X57428571Y-56068571D02*
X57428571Y-56401904D01*
X57952380Y-56401904D02*
X56952380Y-56401904D01*
X56952380Y-55925714D01*
X56952380Y-54306666D02*
X56952380Y-54782857D01*
X57428571Y-54830476D01*
X57380952Y-54782857D01*
X57333333Y-54687619D01*
X57333333Y-54449523D01*
X57380952Y-54354285D01*
X57428571Y-54306666D01*
X57523809Y-54259047D01*
X57761904Y-54259047D01*
X57857142Y-54306666D01*
X57904761Y-54354285D01*
X57952380Y-54449523D01*
X57952380Y-54687619D01*
X57904761Y-54782857D01*
X57857142Y-54830476D01*
X57952380Y-53878095D02*
X56952380Y-53116190D01*
X56952380Y-53735238D02*
X57000000Y-53640000D01*
X57095238Y-53592380D01*
X57190476Y-53640000D01*
X57238095Y-53735238D01*
X57190476Y-53830476D01*
X57095238Y-53878095D01*
X57000000Y-53830476D01*
X56952380Y-53735238D01*
X57904761Y-53163809D02*
X57809523Y-53116190D01*
X57714285Y-53163809D01*
X57666666Y-53259047D01*
X57714285Y-53354285D01*
X57809523Y-53401904D01*
X57904761Y-53354285D01*
X57952380Y-53259047D01*
X57904761Y-53163809D01*
X61357142Y-57782857D02*
X61404761Y-57830476D01*
X61452380Y-57973333D01*
X61452380Y-58068571D01*
X61404761Y-58211428D01*
X61309523Y-58306666D01*
X61214285Y-58354285D01*
X61023809Y-58401904D01*
X60880952Y-58401904D01*
X60690476Y-58354285D01*
X60595238Y-58306666D01*
X60500000Y-58211428D01*
X60452380Y-58068571D01*
X60452380Y-57973333D01*
X60500000Y-57830476D01*
X60547619Y-57782857D01*
X61452380Y-56830476D02*
X61452380Y-57401904D01*
X61452380Y-57116190D02*
X60452380Y-57116190D01*
X60595238Y-57211428D01*
X60690476Y-57306666D01*
X60738095Y-57401904D01*
X60452380Y-56497142D02*
X60452380Y-55830476D01*
X61452380Y-56259047D01*
G04 #@! TO.C,Y1*
X51665476Y-49822380D02*
X52284523Y-49822380D01*
X51951190Y-50203333D01*
X52094047Y-50203333D01*
X52189285Y-50250952D01*
X52236904Y-50298571D01*
X52284523Y-50393809D01*
X52284523Y-50631904D01*
X52236904Y-50727142D01*
X52189285Y-50774761D01*
X52094047Y-50822380D01*
X51808333Y-50822380D01*
X51713095Y-50774761D01*
X51665476Y-50727142D01*
X52665476Y-49917619D02*
X52713095Y-49870000D01*
X52808333Y-49822380D01*
X53046428Y-49822380D01*
X53141666Y-49870000D01*
X53189285Y-49917619D01*
X53236904Y-50012857D01*
X53236904Y-50108095D01*
X53189285Y-50250952D01*
X52617857Y-50822380D01*
X53236904Y-50822380D01*
X53665476Y-50727142D02*
X53713095Y-50774761D01*
X53665476Y-50822380D01*
X53617857Y-50774761D01*
X53665476Y-50727142D01*
X53665476Y-50822380D01*
X54046428Y-49822380D02*
X54713095Y-49822380D01*
X54284523Y-50822380D01*
X55236904Y-50250952D02*
X55141666Y-50203333D01*
X55094047Y-50155714D01*
X55046428Y-50060476D01*
X55046428Y-50012857D01*
X55094047Y-49917619D01*
X55141666Y-49870000D01*
X55236904Y-49822380D01*
X55427380Y-49822380D01*
X55522619Y-49870000D01*
X55570238Y-49917619D01*
X55617857Y-50012857D01*
X55617857Y-50060476D01*
X55570238Y-50155714D01*
X55522619Y-50203333D01*
X55427380Y-50250952D01*
X55236904Y-50250952D01*
X55141666Y-50298571D01*
X55094047Y-50346190D01*
X55046428Y-50441428D01*
X55046428Y-50631904D01*
X55094047Y-50727142D01*
X55141666Y-50774761D01*
X55236904Y-50822380D01*
X55427380Y-50822380D01*
X55522619Y-50774761D01*
X55570238Y-50727142D01*
X55617857Y-50631904D01*
X55617857Y-50441428D01*
X55570238Y-50346190D01*
X55522619Y-50298571D01*
X55427380Y-50250952D01*
X56475000Y-49822380D02*
X56284523Y-49822380D01*
X56189285Y-49870000D01*
X56141666Y-49917619D01*
X56046428Y-50060476D01*
X55998809Y-50250952D01*
X55998809Y-50631904D01*
X56046428Y-50727142D01*
X56094047Y-50774761D01*
X56189285Y-50822380D01*
X56379761Y-50822380D01*
X56475000Y-50774761D01*
X56522619Y-50727142D01*
X56570238Y-50631904D01*
X56570238Y-50393809D01*
X56522619Y-50298571D01*
X56475000Y-50250952D01*
X56379761Y-50203333D01*
X56189285Y-50203333D01*
X56094047Y-50250952D01*
X56046428Y-50298571D01*
X55998809Y-50393809D01*
X56998809Y-50822380D02*
X56998809Y-49822380D01*
X57094047Y-50441428D02*
X57379761Y-50822380D01*
X57379761Y-50155714D02*
X56998809Y-50536666D01*
X57808333Y-50822380D02*
X57808333Y-49822380D01*
X57808333Y-50298571D02*
X58379761Y-50298571D01*
X58379761Y-50822380D02*
X58379761Y-49822380D01*
X58760714Y-50155714D02*
X59284523Y-50155714D01*
X58760714Y-50822380D01*
X59284523Y-50822380D01*
D13*
X58266666Y-52823333D02*
X58266666Y-53156666D01*
X58033333Y-52456666D02*
X58266666Y-52823333D01*
X58500000Y-52456666D01*
X59100000Y-53156666D02*
X58700000Y-53156666D01*
X58900000Y-53156666D02*
X58900000Y-52456666D01*
X58833333Y-52556666D01*
X58766666Y-52623333D01*
X58700000Y-52656666D01*
G04 #@! TO.C,R5*
D11*
X81621428Y-58225714D02*
X81621428Y-58892380D01*
X81383333Y-57844761D02*
X81145238Y-58559047D01*
X81764285Y-58559047D01*
X82145238Y-58797142D02*
X82192857Y-58844761D01*
X82145238Y-58892380D01*
X82097619Y-58844761D01*
X82145238Y-58797142D01*
X82145238Y-58892380D01*
X82526190Y-57892380D02*
X83192857Y-57892380D01*
X82764285Y-58892380D01*
X83573809Y-58892380D02*
X83573809Y-57892380D01*
X83669047Y-58511428D02*
X83954761Y-58892380D01*
X83954761Y-58225714D02*
X83573809Y-58606666D01*
X82383333Y-56092380D02*
X82050000Y-55616190D01*
X81811904Y-56092380D02*
X81811904Y-55092380D01*
X82192857Y-55092380D01*
X82288095Y-55140000D01*
X82335714Y-55187619D01*
X82383333Y-55282857D01*
X82383333Y-55425714D01*
X82335714Y-55520952D01*
X82288095Y-55568571D01*
X82192857Y-55616190D01*
X81811904Y-55616190D01*
X83288095Y-55092380D02*
X82811904Y-55092380D01*
X82764285Y-55568571D01*
X82811904Y-55520952D01*
X82907142Y-55473333D01*
X83145238Y-55473333D01*
X83240476Y-55520952D01*
X83288095Y-55568571D01*
X83335714Y-55663809D01*
X83335714Y-55901904D01*
X83288095Y-55997142D01*
X83240476Y-56044761D01*
X83145238Y-56092380D01*
X82907142Y-56092380D01*
X82811904Y-56044761D01*
X82764285Y-55997142D01*
G04 #@! TO.C,R10*
X34598095Y-58755714D02*
X34598095Y-59422380D01*
X34360000Y-58374761D02*
X34121904Y-59089047D01*
X34740952Y-59089047D01*
X35026666Y-58422380D02*
X35693333Y-58422380D01*
X35264761Y-59422380D01*
X36264761Y-58422380D02*
X36360000Y-58422380D01*
X36455238Y-58470000D01*
X36502857Y-58517619D01*
X36550476Y-58612857D01*
X36598095Y-58803333D01*
X36598095Y-59041428D01*
X36550476Y-59231904D01*
X36502857Y-59327142D01*
X36455238Y-59374761D01*
X36360000Y-59422380D01*
X36264761Y-59422380D01*
X36169523Y-59374761D01*
X36121904Y-59327142D01*
X36074285Y-59231904D01*
X36026666Y-59041428D01*
X36026666Y-58803333D01*
X36074285Y-58612857D01*
X36121904Y-58517619D01*
X36169523Y-58470000D01*
X36264761Y-58422380D01*
X34717142Y-56622380D02*
X34383809Y-56146190D01*
X34145714Y-56622380D02*
X34145714Y-55622380D01*
X34526666Y-55622380D01*
X34621904Y-55670000D01*
X34669523Y-55717619D01*
X34717142Y-55812857D01*
X34717142Y-55955714D01*
X34669523Y-56050952D01*
X34621904Y-56098571D01*
X34526666Y-56146190D01*
X34145714Y-56146190D01*
X35669523Y-56622380D02*
X35098095Y-56622380D01*
X35383809Y-56622380D02*
X35383809Y-55622380D01*
X35288571Y-55765238D01*
X35193333Y-55860476D01*
X35098095Y-55908095D01*
X36288571Y-55622380D02*
X36383809Y-55622380D01*
X36479047Y-55670000D01*
X36526666Y-55717619D01*
X36574285Y-55812857D01*
X36621904Y-56003333D01*
X36621904Y-56241428D01*
X36574285Y-56431904D01*
X36526666Y-56527142D01*
X36479047Y-56574761D01*
X36383809Y-56622380D01*
X36288571Y-56622380D01*
X36193333Y-56574761D01*
X36145714Y-56527142D01*
X36098095Y-56431904D01*
X36050476Y-56241428D01*
X36050476Y-56003333D01*
X36098095Y-55812857D01*
X36145714Y-55717619D01*
X36193333Y-55670000D01*
X36288571Y-55622380D01*
G04 #@! TO.C,R12*
X78485714Y-53668571D02*
X79152380Y-53668571D01*
X78104761Y-53906666D02*
X78819047Y-54144761D01*
X78819047Y-53525714D01*
X79057142Y-53144761D02*
X79104761Y-53097142D01*
X79152380Y-53144761D01*
X79104761Y-53192380D01*
X79057142Y-53144761D01*
X79152380Y-53144761D01*
X78152380Y-52763809D02*
X78152380Y-52097142D01*
X79152380Y-52525714D01*
X79152380Y-51716190D02*
X78152380Y-51716190D01*
X78771428Y-51620952D02*
X79152380Y-51335238D01*
X78485714Y-51335238D02*
X78866666Y-51716190D01*
X76352380Y-53382857D02*
X75876190Y-53716190D01*
X76352380Y-53954285D02*
X75352380Y-53954285D01*
X75352380Y-53573333D01*
X75400000Y-53478095D01*
X75447619Y-53430476D01*
X75542857Y-53382857D01*
X75685714Y-53382857D01*
X75780952Y-53430476D01*
X75828571Y-53478095D01*
X75876190Y-53573333D01*
X75876190Y-53954285D01*
X76352380Y-52430476D02*
X76352380Y-53001904D01*
X76352380Y-52716190D02*
X75352380Y-52716190D01*
X75495238Y-52811428D01*
X75590476Y-52906666D01*
X75638095Y-53001904D01*
X75447619Y-52049523D02*
X75400000Y-52001904D01*
X75352380Y-51906666D01*
X75352380Y-51668571D01*
X75400000Y-51573333D01*
X75447619Y-51525714D01*
X75542857Y-51478095D01*
X75638095Y-51478095D01*
X75780952Y-51525714D01*
X76352380Y-52097142D01*
X76352380Y-51478095D01*
G04 #@! TO.C,R4*
X67588095Y-52975714D02*
X67588095Y-53642380D01*
X67350000Y-52594761D02*
X67111904Y-53309047D01*
X67730952Y-53309047D01*
X68016666Y-52642380D02*
X68683333Y-52642380D01*
X68254761Y-53642380D01*
X69254761Y-52642380D02*
X69350000Y-52642380D01*
X69445238Y-52690000D01*
X69492857Y-52737619D01*
X69540476Y-52832857D01*
X69588095Y-53023333D01*
X69588095Y-53261428D01*
X69540476Y-53451904D01*
X69492857Y-53547142D01*
X69445238Y-53594761D01*
X69350000Y-53642380D01*
X69254761Y-53642380D01*
X69159523Y-53594761D01*
X69111904Y-53547142D01*
X69064285Y-53451904D01*
X69016666Y-53261428D01*
X69016666Y-53023333D01*
X69064285Y-52832857D01*
X69111904Y-52737619D01*
X69159523Y-52690000D01*
X69254761Y-52642380D01*
X68183333Y-56442380D02*
X67850000Y-55966190D01*
X67611904Y-56442380D02*
X67611904Y-55442380D01*
X67992857Y-55442380D01*
X68088095Y-55490000D01*
X68135714Y-55537619D01*
X68183333Y-55632857D01*
X68183333Y-55775714D01*
X68135714Y-55870952D01*
X68088095Y-55918571D01*
X67992857Y-55966190D01*
X67611904Y-55966190D01*
X69040476Y-55775714D02*
X69040476Y-56442380D01*
X68802380Y-55394761D02*
X68564285Y-56109047D01*
X69183333Y-56109047D01*
G04 #@! TO.C,R9*
X34608095Y-57765714D02*
X34608095Y-58432380D01*
X34370000Y-57384761D02*
X34131904Y-58099047D01*
X34750952Y-58099047D01*
X35036666Y-57432380D02*
X35703333Y-57432380D01*
X35274761Y-58432380D01*
X36274761Y-57432380D02*
X36370000Y-57432380D01*
X36465238Y-57480000D01*
X36512857Y-57527619D01*
X36560476Y-57622857D01*
X36608095Y-57813333D01*
X36608095Y-58051428D01*
X36560476Y-58241904D01*
X36512857Y-58337142D01*
X36465238Y-58384761D01*
X36370000Y-58432380D01*
X36274761Y-58432380D01*
X36179523Y-58384761D01*
X36131904Y-58337142D01*
X36084285Y-58241904D01*
X36036666Y-58051428D01*
X36036666Y-57813333D01*
X36084285Y-57622857D01*
X36131904Y-57527619D01*
X36179523Y-57480000D01*
X36274761Y-57432380D01*
X35203333Y-55632380D02*
X34870000Y-55156190D01*
X34631904Y-55632380D02*
X34631904Y-54632380D01*
X35012857Y-54632380D01*
X35108095Y-54680000D01*
X35155714Y-54727619D01*
X35203333Y-54822857D01*
X35203333Y-54965714D01*
X35155714Y-55060952D01*
X35108095Y-55108571D01*
X35012857Y-55156190D01*
X34631904Y-55156190D01*
X35679523Y-55632380D02*
X35870000Y-55632380D01*
X35965238Y-55584761D01*
X36012857Y-55537142D01*
X36108095Y-55394285D01*
X36155714Y-55203809D01*
X36155714Y-54822857D01*
X36108095Y-54727619D01*
X36060476Y-54680000D01*
X35965238Y-54632380D01*
X35774761Y-54632380D01*
X35679523Y-54680000D01*
X35631904Y-54727619D01*
X35584285Y-54822857D01*
X35584285Y-55060952D01*
X35631904Y-55156190D01*
X35679523Y-55203809D01*
X35774761Y-55251428D01*
X35965238Y-55251428D01*
X36060476Y-55203809D01*
X36108095Y-55156190D01*
X36155714Y-55060952D01*
G04 #@! TO.C,R1*
X72340476Y-52242380D02*
X72959523Y-52242380D01*
X72626190Y-52623333D01*
X72769047Y-52623333D01*
X72864285Y-52670952D01*
X72911904Y-52718571D01*
X72959523Y-52813809D01*
X72959523Y-53051904D01*
X72911904Y-53147142D01*
X72864285Y-53194761D01*
X72769047Y-53242380D01*
X72483333Y-53242380D01*
X72388095Y-53194761D01*
X72340476Y-53147142D01*
X73292857Y-52242380D02*
X73911904Y-52242380D01*
X73578571Y-52623333D01*
X73721428Y-52623333D01*
X73816666Y-52670952D01*
X73864285Y-52718571D01*
X73911904Y-52813809D01*
X73911904Y-53051904D01*
X73864285Y-53147142D01*
X73816666Y-53194761D01*
X73721428Y-53242380D01*
X73435714Y-53242380D01*
X73340476Y-53194761D01*
X73292857Y-53147142D01*
D12*
X73083333Y-54520952D02*
X72950000Y-54330476D01*
X72854761Y-54520952D02*
X72854761Y-54120952D01*
X73007142Y-54120952D01*
X73045238Y-54140000D01*
X73064285Y-54159047D01*
X73083333Y-54197142D01*
X73083333Y-54254285D01*
X73064285Y-54292380D01*
X73045238Y-54311428D01*
X73007142Y-54330476D01*
X72854761Y-54330476D01*
X73464285Y-54520952D02*
X73235714Y-54520952D01*
X73350000Y-54520952D02*
X73350000Y-54120952D01*
X73311904Y-54178095D01*
X73273809Y-54216190D01*
X73235714Y-54235238D01*
G04 #@! TO.C,R8*
D11*
X67930952Y-50742380D02*
X67359523Y-50742380D01*
X67645238Y-50742380D02*
X67645238Y-49742380D01*
X67550000Y-49885238D01*
X67454761Y-49980476D01*
X67359523Y-50028095D01*
X68359523Y-50742380D02*
X68359523Y-49742380D01*
X68454761Y-50361428D02*
X68740476Y-50742380D01*
X68740476Y-50075714D02*
X68359523Y-50456666D01*
D12*
X67983333Y-52020952D02*
X67850000Y-51830476D01*
X67754761Y-52020952D02*
X67754761Y-51620952D01*
X67907142Y-51620952D01*
X67945238Y-51640000D01*
X67964285Y-51659047D01*
X67983333Y-51697142D01*
X67983333Y-51754285D01*
X67964285Y-51792380D01*
X67945238Y-51811428D01*
X67907142Y-51830476D01*
X67754761Y-51830476D01*
X68211904Y-51792380D02*
X68173809Y-51773333D01*
X68154761Y-51754285D01*
X68135714Y-51716190D01*
X68135714Y-51697142D01*
X68154761Y-51659047D01*
X68173809Y-51640000D01*
X68211904Y-51620952D01*
X68288095Y-51620952D01*
X68326190Y-51640000D01*
X68345238Y-51659047D01*
X68364285Y-51697142D01*
X68364285Y-51716190D01*
X68345238Y-51754285D01*
X68326190Y-51773333D01*
X68288095Y-51792380D01*
X68211904Y-51792380D01*
X68173809Y-51811428D01*
X68154761Y-51830476D01*
X68135714Y-51868571D01*
X68135714Y-51944761D01*
X68154761Y-51982857D01*
X68173809Y-52001904D01*
X68211904Y-52020952D01*
X68288095Y-52020952D01*
X68326190Y-52001904D01*
X68345238Y-51982857D01*
X68364285Y-51944761D01*
X68364285Y-51868571D01*
X68345238Y-51830476D01*
X68326190Y-51811428D01*
X68288095Y-51792380D01*
G04 #@! TO.C,R11*
D11*
X62485714Y-57730476D02*
X63152380Y-57730476D01*
X62104761Y-57968571D02*
X62819047Y-58206666D01*
X62819047Y-57587619D01*
X62152380Y-57301904D02*
X62152380Y-56635238D01*
X63152380Y-57063809D01*
X63152380Y-56254285D02*
X62152380Y-56254285D01*
X62771428Y-56159047D02*
X63152380Y-55873333D01*
X62485714Y-55873333D02*
X62866666Y-56254285D01*
D12*
X61330952Y-57297142D02*
X61140476Y-57430476D01*
X61330952Y-57525714D02*
X60930952Y-57525714D01*
X60930952Y-57373333D01*
X60950000Y-57335238D01*
X60969047Y-57316190D01*
X61007142Y-57297142D01*
X61064285Y-57297142D01*
X61102380Y-57316190D01*
X61121428Y-57335238D01*
X61140476Y-57373333D01*
X61140476Y-57525714D01*
X61330952Y-56916190D02*
X61330952Y-57144761D01*
X61330952Y-57030476D02*
X60930952Y-57030476D01*
X60988095Y-57068571D01*
X61026190Y-57106666D01*
X61045238Y-57144761D01*
X61330952Y-56535238D02*
X61330952Y-56763809D01*
X61330952Y-56649523D02*
X60930952Y-56649523D01*
X60988095Y-56687619D01*
X61026190Y-56725714D01*
X61045238Y-56763809D01*
G04 #@! TO.C,J1*
D11*
X48511904Y-60527142D02*
X48464285Y-60574761D01*
X48321428Y-60622380D01*
X48226190Y-60622380D01*
X48083333Y-60574761D01*
X47988095Y-60479523D01*
X47940476Y-60384285D01*
X47892857Y-60193809D01*
X47892857Y-60050952D01*
X47940476Y-59860476D01*
X47988095Y-59765238D01*
X48083333Y-59670000D01*
X48226190Y-59622380D01*
X48321428Y-59622380D01*
X48464285Y-59670000D01*
X48511904Y-59717619D01*
X49083333Y-60622380D02*
X48988095Y-60574761D01*
X48940476Y-60527142D01*
X48892857Y-60431904D01*
X48892857Y-60146190D01*
X48940476Y-60050952D01*
X48988095Y-60003333D01*
X49083333Y-59955714D01*
X49226190Y-59955714D01*
X49321428Y-60003333D01*
X49369047Y-60050952D01*
X49416666Y-60146190D01*
X49416666Y-60431904D01*
X49369047Y-60527142D01*
X49321428Y-60574761D01*
X49226190Y-60622380D01*
X49083333Y-60622380D01*
X49845238Y-59955714D02*
X49845238Y-60622380D01*
X49845238Y-60050952D02*
X49892857Y-60003333D01*
X49988095Y-59955714D01*
X50130952Y-59955714D01*
X50226190Y-60003333D01*
X50273809Y-60098571D01*
X50273809Y-60622380D01*
X50750000Y-59955714D02*
X50750000Y-60622380D01*
X50750000Y-60050952D02*
X50797619Y-60003333D01*
X50892857Y-59955714D01*
X51035714Y-59955714D01*
X51130952Y-60003333D01*
X51178571Y-60098571D01*
X51178571Y-60622380D01*
X51416666Y-60717619D02*
X52178571Y-60717619D01*
X52607142Y-59622380D02*
X52702380Y-59622380D01*
X52797619Y-59670000D01*
X52845238Y-59717619D01*
X52892857Y-59812857D01*
X52940476Y-60003333D01*
X52940476Y-60241428D01*
X52892857Y-60431904D01*
X52845238Y-60527142D01*
X52797619Y-60574761D01*
X52702380Y-60622380D01*
X52607142Y-60622380D01*
X52511904Y-60574761D01*
X52464285Y-60527142D01*
X52416666Y-60431904D01*
X52369047Y-60241428D01*
X52369047Y-60003333D01*
X52416666Y-59812857D01*
X52464285Y-59717619D01*
X52511904Y-59670000D01*
X52607142Y-59622380D01*
X53892857Y-60622380D02*
X53321428Y-60622380D01*
X53607142Y-60622380D02*
X53607142Y-59622380D01*
X53511904Y-59765238D01*
X53416666Y-59860476D01*
X53321428Y-59908095D01*
X54226190Y-60622380D02*
X54750000Y-59955714D01*
X54226190Y-59955714D02*
X54750000Y-60622380D01*
X55321428Y-59622380D02*
X55416666Y-59622380D01*
X55511904Y-59670000D01*
X55559523Y-59717619D01*
X55607142Y-59812857D01*
X55654761Y-60003333D01*
X55654761Y-60241428D01*
X55607142Y-60431904D01*
X55559523Y-60527142D01*
X55511904Y-60574761D01*
X55416666Y-60622380D01*
X55321428Y-60622380D01*
X55226190Y-60574761D01*
X55178571Y-60527142D01*
X55130952Y-60431904D01*
X55083333Y-60241428D01*
X55083333Y-60003333D01*
X55130952Y-59812857D01*
X55178571Y-59717619D01*
X55226190Y-59670000D01*
X55321428Y-59622380D01*
X56607142Y-60622380D02*
X56035714Y-60622380D01*
X56321428Y-60622380D02*
X56321428Y-59622380D01*
X56226190Y-59765238D01*
X56130952Y-59860476D01*
X56035714Y-59908095D01*
X51916666Y-54962380D02*
X51916666Y-55676666D01*
X51869047Y-55819523D01*
X51773809Y-55914761D01*
X51630952Y-55962380D01*
X51535714Y-55962380D01*
X52916666Y-55962380D02*
X52345238Y-55962380D01*
X52630952Y-55962380D02*
X52630952Y-54962380D01*
X52535714Y-55105238D01*
X52440476Y-55200476D01*
X52345238Y-55248095D01*
G04 #@! TO.C,J2*
X32322142Y-55638095D02*
X32369761Y-55685714D01*
X32417380Y-55828571D01*
X32417380Y-55923809D01*
X32369761Y-56066666D01*
X32274523Y-56161904D01*
X32179285Y-56209523D01*
X31988809Y-56257142D01*
X31845952Y-56257142D01*
X31655476Y-56209523D01*
X31560238Y-56161904D01*
X31465000Y-56066666D01*
X31417380Y-55923809D01*
X31417380Y-55828571D01*
X31465000Y-55685714D01*
X31512619Y-55638095D01*
X32417380Y-55066666D02*
X32369761Y-55161904D01*
X32322142Y-55209523D01*
X32226904Y-55257142D01*
X31941190Y-55257142D01*
X31845952Y-55209523D01*
X31798333Y-55161904D01*
X31750714Y-55066666D01*
X31750714Y-54923809D01*
X31798333Y-54828571D01*
X31845952Y-54780952D01*
X31941190Y-54733333D01*
X32226904Y-54733333D01*
X32322142Y-54780952D01*
X32369761Y-54828571D01*
X32417380Y-54923809D01*
X32417380Y-55066666D01*
X31750714Y-54304761D02*
X32417380Y-54304761D01*
X31845952Y-54304761D02*
X31798333Y-54257142D01*
X31750714Y-54161904D01*
X31750714Y-54019047D01*
X31798333Y-53923809D01*
X31893571Y-53876190D01*
X32417380Y-53876190D01*
X31750714Y-53400000D02*
X32417380Y-53400000D01*
X31845952Y-53400000D02*
X31798333Y-53352380D01*
X31750714Y-53257142D01*
X31750714Y-53114285D01*
X31798333Y-53019047D01*
X31893571Y-52971428D01*
X32417380Y-52971428D01*
X32512619Y-52733333D02*
X32512619Y-51971428D01*
X31417380Y-51542857D02*
X31417380Y-51447619D01*
X31465000Y-51352380D01*
X31512619Y-51304761D01*
X31607857Y-51257142D01*
X31798333Y-51209523D01*
X32036428Y-51209523D01*
X32226904Y-51257142D01*
X32322142Y-51304761D01*
X32369761Y-51352380D01*
X32417380Y-51447619D01*
X32417380Y-51542857D01*
X32369761Y-51638095D01*
X32322142Y-51685714D01*
X32226904Y-51733333D01*
X32036428Y-51780952D01*
X31798333Y-51780952D01*
X31607857Y-51733333D01*
X31512619Y-51685714D01*
X31465000Y-51638095D01*
X31417380Y-51542857D01*
X32417380Y-50257142D02*
X32417380Y-50828571D01*
X32417380Y-50542857D02*
X31417380Y-50542857D01*
X31560238Y-50638095D01*
X31655476Y-50733333D01*
X31703095Y-50828571D01*
X32417380Y-49923809D02*
X31750714Y-49400000D01*
X31750714Y-49923809D02*
X32417380Y-49400000D01*
X31417380Y-48828571D02*
X31417380Y-48733333D01*
X31465000Y-48638095D01*
X31512619Y-48590476D01*
X31607857Y-48542857D01*
X31798333Y-48495238D01*
X32036428Y-48495238D01*
X32226904Y-48542857D01*
X32322142Y-48590476D01*
X32369761Y-48638095D01*
X32417380Y-48733333D01*
X32417380Y-48828571D01*
X32369761Y-48923809D01*
X32322142Y-48971428D01*
X32226904Y-49019047D01*
X32036428Y-49066666D01*
X31798333Y-49066666D01*
X31607857Y-49019047D01*
X31512619Y-48971428D01*
X31465000Y-48923809D01*
X31417380Y-48828571D01*
X31512619Y-48114285D02*
X31465000Y-48066666D01*
X31417380Y-47971428D01*
X31417380Y-47733333D01*
X31465000Y-47638095D01*
X31512619Y-47590476D01*
X31607857Y-47542857D01*
X31703095Y-47542857D01*
X31845952Y-47590476D01*
X32417380Y-48161904D01*
X32417380Y-47542857D01*
X26757380Y-52233333D02*
X27471666Y-52233333D01*
X27614523Y-52280952D01*
X27709761Y-52376190D01*
X27757380Y-52519047D01*
X27757380Y-52614285D01*
X26852619Y-51804761D02*
X26805000Y-51757142D01*
X26757380Y-51661904D01*
X26757380Y-51423809D01*
X26805000Y-51328571D01*
X26852619Y-51280952D01*
X26947857Y-51233333D01*
X27043095Y-51233333D01*
X27185952Y-51280952D01*
X27757380Y-51852380D01*
X27757380Y-51233333D01*
G04 #@! TO.C,D1*
X74387380Y-58482857D02*
X74387380Y-58959047D01*
X73387380Y-58959047D01*
X73863571Y-58149523D02*
X73863571Y-57816190D01*
X74387380Y-57673333D02*
X74387380Y-58149523D01*
X73387380Y-58149523D01*
X73387380Y-57673333D01*
X74387380Y-57244761D02*
X73387380Y-57244761D01*
X73387380Y-57006666D01*
X73435000Y-56863809D01*
X73530238Y-56768571D01*
X73625476Y-56720952D01*
X73815952Y-56673333D01*
X73958809Y-56673333D01*
X74149285Y-56720952D01*
X74244523Y-56768571D01*
X74339761Y-56863809D01*
X74387380Y-57006666D01*
X74387380Y-57244761D01*
X79047380Y-58578095D02*
X78047380Y-58578095D01*
X78047380Y-58340000D01*
X78095000Y-58197142D01*
X78190238Y-58101904D01*
X78285476Y-58054285D01*
X78475952Y-58006666D01*
X78618809Y-58006666D01*
X78809285Y-58054285D01*
X78904523Y-58101904D01*
X78999761Y-58197142D01*
X79047380Y-58340000D01*
X79047380Y-58578095D01*
X79047380Y-57054285D02*
X79047380Y-57625714D01*
X79047380Y-57340000D02*
X78047380Y-57340000D01*
X78190238Y-57435238D01*
X78285476Y-57530476D01*
X78333095Y-57625714D01*
G04 #@! TO.C,J3*
X34192142Y-62038095D02*
X34239761Y-62085714D01*
X34287380Y-62228571D01*
X34287380Y-62323809D01*
X34239761Y-62466666D01*
X34144523Y-62561904D01*
X34049285Y-62609523D01*
X33858809Y-62657142D01*
X33715952Y-62657142D01*
X33525476Y-62609523D01*
X33430238Y-62561904D01*
X33335000Y-62466666D01*
X33287380Y-62323809D01*
X33287380Y-62228571D01*
X33335000Y-62085714D01*
X33382619Y-62038095D01*
X34287380Y-61466666D02*
X34239761Y-61561904D01*
X34192142Y-61609523D01*
X34096904Y-61657142D01*
X33811190Y-61657142D01*
X33715952Y-61609523D01*
X33668333Y-61561904D01*
X33620714Y-61466666D01*
X33620714Y-61323809D01*
X33668333Y-61228571D01*
X33715952Y-61180952D01*
X33811190Y-61133333D01*
X34096904Y-61133333D01*
X34192142Y-61180952D01*
X34239761Y-61228571D01*
X34287380Y-61323809D01*
X34287380Y-61466666D01*
X33620714Y-60704761D02*
X34287380Y-60704761D01*
X33715952Y-60704761D02*
X33668333Y-60657142D01*
X33620714Y-60561904D01*
X33620714Y-60419047D01*
X33668333Y-60323809D01*
X33763571Y-60276190D01*
X34287380Y-60276190D01*
X33620714Y-59800000D02*
X34287380Y-59800000D01*
X33715952Y-59800000D02*
X33668333Y-59752380D01*
X33620714Y-59657142D01*
X33620714Y-59514285D01*
X33668333Y-59419047D01*
X33763571Y-59371428D01*
X34287380Y-59371428D01*
X34382619Y-59133333D02*
X34382619Y-58371428D01*
X33287380Y-57942857D02*
X33287380Y-57847619D01*
X33335000Y-57752380D01*
X33382619Y-57704761D01*
X33477857Y-57657142D01*
X33668333Y-57609523D01*
X33906428Y-57609523D01*
X34096904Y-57657142D01*
X34192142Y-57704761D01*
X34239761Y-57752380D01*
X34287380Y-57847619D01*
X34287380Y-57942857D01*
X34239761Y-58038095D01*
X34192142Y-58085714D01*
X34096904Y-58133333D01*
X33906428Y-58180952D01*
X33668333Y-58180952D01*
X33477857Y-58133333D01*
X33382619Y-58085714D01*
X33335000Y-58038095D01*
X33287380Y-57942857D01*
X34287380Y-56657142D02*
X34287380Y-57228571D01*
X34287380Y-56942857D02*
X33287380Y-56942857D01*
X33430238Y-57038095D01*
X33525476Y-57133333D01*
X33573095Y-57228571D01*
X34287380Y-56323809D02*
X33620714Y-55800000D01*
X33620714Y-56323809D02*
X34287380Y-55800000D01*
X33287380Y-55228571D02*
X33287380Y-55133333D01*
X33335000Y-55038095D01*
X33382619Y-54990476D01*
X33477857Y-54942857D01*
X33668333Y-54895238D01*
X33906428Y-54895238D01*
X34096904Y-54942857D01*
X34192142Y-54990476D01*
X34239761Y-55038095D01*
X34287380Y-55133333D01*
X34287380Y-55228571D01*
X34239761Y-55323809D01*
X34192142Y-55371428D01*
X34096904Y-55419047D01*
X33906428Y-55466666D01*
X33668333Y-55466666D01*
X33477857Y-55419047D01*
X33382619Y-55371428D01*
X33335000Y-55323809D01*
X33287380Y-55228571D01*
X33287380Y-54561904D02*
X33287380Y-53942857D01*
X33668333Y-54276190D01*
X33668333Y-54133333D01*
X33715952Y-54038095D01*
X33763571Y-53990476D01*
X33858809Y-53942857D01*
X34096904Y-53942857D01*
X34192142Y-53990476D01*
X34239761Y-54038095D01*
X34287380Y-54133333D01*
X34287380Y-54419047D01*
X34239761Y-54514285D01*
X34192142Y-54561904D01*
X27357380Y-58633333D02*
X28071666Y-58633333D01*
X28214523Y-58680952D01*
X28309761Y-58776190D01*
X28357380Y-58919047D01*
X28357380Y-59014285D01*
X27357380Y-58252380D02*
X27357380Y-57633333D01*
X27738333Y-57966666D01*
X27738333Y-57823809D01*
X27785952Y-57728571D01*
X27833571Y-57680952D01*
X27928809Y-57633333D01*
X28166904Y-57633333D01*
X28262142Y-57680952D01*
X28309761Y-57728571D01*
X28357380Y-57823809D01*
X28357380Y-58109523D01*
X28309761Y-58204761D01*
X28262142Y-58252380D01*
G04 #@! TO.C,J4*
X48572142Y-60162142D02*
X48524523Y-60209761D01*
X48381666Y-60257380D01*
X48286428Y-60257380D01*
X48143571Y-60209761D01*
X48048333Y-60114523D01*
X48000714Y-60019285D01*
X47953095Y-59828809D01*
X47953095Y-59685952D01*
X48000714Y-59495476D01*
X48048333Y-59400238D01*
X48143571Y-59305000D01*
X48286428Y-59257380D01*
X48381666Y-59257380D01*
X48524523Y-59305000D01*
X48572142Y-59352619D01*
X49143571Y-60257380D02*
X49048333Y-60209761D01*
X49000714Y-60162142D01*
X48953095Y-60066904D01*
X48953095Y-59781190D01*
X49000714Y-59685952D01*
X49048333Y-59638333D01*
X49143571Y-59590714D01*
X49286428Y-59590714D01*
X49381666Y-59638333D01*
X49429285Y-59685952D01*
X49476904Y-59781190D01*
X49476904Y-60066904D01*
X49429285Y-60162142D01*
X49381666Y-60209761D01*
X49286428Y-60257380D01*
X49143571Y-60257380D01*
X49905476Y-59590714D02*
X49905476Y-60257380D01*
X49905476Y-59685952D02*
X49953095Y-59638333D01*
X50048333Y-59590714D01*
X50191190Y-59590714D01*
X50286428Y-59638333D01*
X50334047Y-59733571D01*
X50334047Y-60257380D01*
X50810238Y-59590714D02*
X50810238Y-60257380D01*
X50810238Y-59685952D02*
X50857857Y-59638333D01*
X50953095Y-59590714D01*
X51095952Y-59590714D01*
X51191190Y-59638333D01*
X51238809Y-59733571D01*
X51238809Y-60257380D01*
X51476904Y-60352619D02*
X52238809Y-60352619D01*
X52667380Y-59257380D02*
X52762619Y-59257380D01*
X52857857Y-59305000D01*
X52905476Y-59352619D01*
X52953095Y-59447857D01*
X53000714Y-59638333D01*
X53000714Y-59876428D01*
X52953095Y-60066904D01*
X52905476Y-60162142D01*
X52857857Y-60209761D01*
X52762619Y-60257380D01*
X52667380Y-60257380D01*
X52572142Y-60209761D01*
X52524523Y-60162142D01*
X52476904Y-60066904D01*
X52429285Y-59876428D01*
X52429285Y-59638333D01*
X52476904Y-59447857D01*
X52524523Y-59352619D01*
X52572142Y-59305000D01*
X52667380Y-59257380D01*
X53381666Y-59352619D02*
X53429285Y-59305000D01*
X53524523Y-59257380D01*
X53762619Y-59257380D01*
X53857857Y-59305000D01*
X53905476Y-59352619D01*
X53953095Y-59447857D01*
X53953095Y-59543095D01*
X53905476Y-59685952D01*
X53334047Y-60257380D01*
X53953095Y-60257380D01*
X54286428Y-60257380D02*
X54810238Y-59590714D01*
X54286428Y-59590714D02*
X54810238Y-60257380D01*
X55381666Y-59257380D02*
X55476904Y-59257380D01*
X55572142Y-59305000D01*
X55619761Y-59352619D01*
X55667380Y-59447857D01*
X55715000Y-59638333D01*
X55715000Y-59876428D01*
X55667380Y-60066904D01*
X55619761Y-60162142D01*
X55572142Y-60209761D01*
X55476904Y-60257380D01*
X55381666Y-60257380D01*
X55286428Y-60209761D01*
X55238809Y-60162142D01*
X55191190Y-60066904D01*
X55143571Y-59876428D01*
X55143571Y-59638333D01*
X55191190Y-59447857D01*
X55238809Y-59352619D01*
X55286428Y-59305000D01*
X55381666Y-59257380D01*
X56095952Y-59352619D02*
X56143571Y-59305000D01*
X56238809Y-59257380D01*
X56476904Y-59257380D01*
X56572142Y-59305000D01*
X56619761Y-59352619D01*
X56667380Y-59447857D01*
X56667380Y-59543095D01*
X56619761Y-59685952D01*
X56048333Y-60257380D01*
X56667380Y-60257380D01*
X56857857Y-60352619D02*
X57619761Y-60352619D01*
X58048333Y-59257380D02*
X58238809Y-59257380D01*
X58334047Y-59305000D01*
X58429285Y-59400238D01*
X58476904Y-59590714D01*
X58476904Y-59924047D01*
X58429285Y-60114523D01*
X58334047Y-60209761D01*
X58238809Y-60257380D01*
X58048333Y-60257380D01*
X57953095Y-60209761D01*
X57857857Y-60114523D01*
X57810238Y-59924047D01*
X57810238Y-59590714D01*
X57857857Y-59400238D01*
X57953095Y-59305000D01*
X58048333Y-59257380D01*
X59334047Y-60257380D02*
X59334047Y-59257380D01*
X59334047Y-60209761D02*
X59238809Y-60257380D01*
X59048333Y-60257380D01*
X58953095Y-60209761D01*
X58905476Y-60162142D01*
X58857857Y-60066904D01*
X58857857Y-59781190D01*
X58905476Y-59685952D01*
X58953095Y-59638333D01*
X59048333Y-59590714D01*
X59238809Y-59590714D01*
X59334047Y-59638333D01*
X60238809Y-60257380D02*
X60238809Y-59257380D01*
X60238809Y-60209761D02*
X60143571Y-60257380D01*
X59953095Y-60257380D01*
X59857857Y-60209761D01*
X59810238Y-60162142D01*
X59762619Y-60066904D01*
X59762619Y-59781190D01*
X59810238Y-59685952D01*
X59857857Y-59638333D01*
X59953095Y-59590714D01*
X60143571Y-59590714D01*
X60238809Y-59638333D01*
X60476904Y-60352619D02*
X61238809Y-60352619D01*
X61476904Y-59733571D02*
X61810238Y-59733571D01*
X61953095Y-60257380D02*
X61476904Y-60257380D01*
X61476904Y-59257380D01*
X61953095Y-59257380D01*
X62286428Y-59590714D02*
X62524523Y-60257380D01*
X62762619Y-59590714D01*
X63524523Y-60209761D02*
X63429285Y-60257380D01*
X63238809Y-60257380D01*
X63143571Y-60209761D01*
X63095952Y-60114523D01*
X63095952Y-59733571D01*
X63143571Y-59638333D01*
X63238809Y-59590714D01*
X63429285Y-59590714D01*
X63524523Y-59638333D01*
X63572142Y-59733571D01*
X63572142Y-59828809D01*
X63095952Y-59924047D01*
X64000714Y-59590714D02*
X64000714Y-60257380D01*
X64000714Y-59685952D02*
X64048333Y-59638333D01*
X64143571Y-59590714D01*
X64286428Y-59590714D01*
X64381666Y-59638333D01*
X64429285Y-59733571D01*
X64429285Y-60257380D01*
X55881666Y-54597380D02*
X55881666Y-55311666D01*
X55834047Y-55454523D01*
X55738809Y-55549761D01*
X55595952Y-55597380D01*
X55500714Y-55597380D01*
X56786428Y-54930714D02*
X56786428Y-55597380D01*
X56548333Y-54549761D02*
X56310238Y-55264047D01*
X56929285Y-55264047D01*
G04 #@! TO.C,Q3*
X66030952Y-59268571D02*
X66173809Y-59316190D01*
X66221428Y-59363809D01*
X66269047Y-59459047D01*
X66269047Y-59601904D01*
X66221428Y-59697142D01*
X66173809Y-59744761D01*
X66078571Y-59792380D01*
X65697619Y-59792380D01*
X65697619Y-58792380D01*
X66030952Y-58792380D01*
X66126190Y-58840000D01*
X66173809Y-58887619D01*
X66221428Y-58982857D01*
X66221428Y-59078095D01*
X66173809Y-59173333D01*
X66126190Y-59220952D01*
X66030952Y-59268571D01*
X65697619Y-59268571D01*
X67269047Y-59697142D02*
X67221428Y-59744761D01*
X67078571Y-59792380D01*
X66983333Y-59792380D01*
X66840476Y-59744761D01*
X66745238Y-59649523D01*
X66697619Y-59554285D01*
X66650000Y-59363809D01*
X66650000Y-59220952D01*
X66697619Y-59030476D01*
X66745238Y-58935238D01*
X66840476Y-58840000D01*
X66983333Y-58792380D01*
X67078571Y-58792380D01*
X67221428Y-58840000D01*
X67269047Y-58887619D01*
X67840476Y-59220952D02*
X67745238Y-59173333D01*
X67697619Y-59125714D01*
X67650000Y-59030476D01*
X67650000Y-58982857D01*
X67697619Y-58887619D01*
X67745238Y-58840000D01*
X67840476Y-58792380D01*
X68030952Y-58792380D01*
X68126190Y-58840000D01*
X68173809Y-58887619D01*
X68221428Y-58982857D01*
X68221428Y-59030476D01*
X68173809Y-59125714D01*
X68126190Y-59173333D01*
X68030952Y-59220952D01*
X67840476Y-59220952D01*
X67745238Y-59268571D01*
X67697619Y-59316190D01*
X67650000Y-59411428D01*
X67650000Y-59601904D01*
X67697619Y-59697142D01*
X67745238Y-59744761D01*
X67840476Y-59792380D01*
X68030952Y-59792380D01*
X68126190Y-59744761D01*
X68173809Y-59697142D01*
X68221428Y-59601904D01*
X68221428Y-59411428D01*
X68173809Y-59316190D01*
X68126190Y-59268571D01*
X68030952Y-59220952D01*
X69078571Y-59125714D02*
X69078571Y-59792380D01*
X68840476Y-58744761D02*
X68602380Y-59459047D01*
X69221428Y-59459047D01*
X69507142Y-58792380D02*
X70173809Y-58792380D01*
X69745238Y-59792380D01*
X70888095Y-59268571D02*
X71030952Y-59316190D01*
X71078571Y-59363809D01*
X71126190Y-59459047D01*
X71126190Y-59601904D01*
X71078571Y-59697142D01*
X71030952Y-59744761D01*
X70935714Y-59792380D01*
X70554761Y-59792380D01*
X70554761Y-58792380D01*
X70888095Y-58792380D01*
X70983333Y-58840000D01*
X71030952Y-58887619D01*
X71078571Y-58982857D01*
X71078571Y-59078095D01*
X71030952Y-59173333D01*
X70983333Y-59220952D01*
X70888095Y-59268571D01*
X70554761Y-59268571D01*
X72030952Y-59792380D02*
X71554761Y-59792380D01*
X71554761Y-58792380D01*
X72221428Y-58792380D02*
X72792857Y-58792380D01*
X72507142Y-59792380D02*
X72507142Y-58792380D01*
X73650000Y-59792380D02*
X73078571Y-59792380D01*
X73364285Y-59792380D02*
X73364285Y-58792380D01*
X73269047Y-58935238D01*
X73173809Y-59030476D01*
X73078571Y-59078095D01*
X74602380Y-58840000D02*
X74507142Y-58792380D01*
X74364285Y-58792380D01*
X74221428Y-58840000D01*
X74126190Y-58935238D01*
X74078571Y-59030476D01*
X74030952Y-59220952D01*
X74030952Y-59363809D01*
X74078571Y-59554285D01*
X74126190Y-59649523D01*
X74221428Y-59744761D01*
X74364285Y-59792380D01*
X74459523Y-59792380D01*
X74602380Y-59744761D01*
X74650000Y-59697142D01*
X74650000Y-59363809D01*
X74459523Y-59363809D01*
D12*
X70423809Y-56887619D02*
X70400000Y-56935238D01*
X70352380Y-56982857D01*
X70280952Y-57054285D01*
X70257142Y-57101904D01*
X70257142Y-57149523D01*
X70376190Y-57125714D02*
X70352380Y-57173333D01*
X70304761Y-57220952D01*
X70209523Y-57244761D01*
X70042857Y-57244761D01*
X69947619Y-57220952D01*
X69900000Y-57173333D01*
X69876190Y-57125714D01*
X69876190Y-57030476D01*
X69900000Y-56982857D01*
X69947619Y-56935238D01*
X70042857Y-56911428D01*
X70209523Y-56911428D01*
X70304761Y-56935238D01*
X70352380Y-56982857D01*
X70376190Y-57030476D01*
X70376190Y-57125714D01*
X69876190Y-56744761D02*
X69876190Y-56435238D01*
X70066666Y-56601904D01*
X70066666Y-56530476D01*
X70090476Y-56482857D01*
X70114285Y-56459047D01*
X70161904Y-56435238D01*
X70280952Y-56435238D01*
X70328571Y-56459047D01*
X70352380Y-56482857D01*
X70376190Y-56530476D01*
X70376190Y-56673333D01*
X70352380Y-56720952D01*
X70328571Y-56744761D01*
G04 #@! TO.C,U4*
D11*
X77671428Y-52318571D02*
X77814285Y-52366190D01*
X77861904Y-52413809D01*
X77909523Y-52509047D01*
X77909523Y-52651904D01*
X77861904Y-52747142D01*
X77814285Y-52794761D01*
X77719047Y-52842380D01*
X77338095Y-52842380D01*
X77338095Y-51842380D01*
X77671428Y-51842380D01*
X77766666Y-51890000D01*
X77814285Y-51937619D01*
X77861904Y-52032857D01*
X77861904Y-52128095D01*
X77814285Y-52223333D01*
X77766666Y-52270952D01*
X77671428Y-52318571D01*
X77338095Y-52318571D01*
X78338095Y-52842380D02*
X78338095Y-51842380D01*
X78671428Y-52556666D01*
X79004761Y-51842380D01*
X79004761Y-52842380D01*
X80004761Y-51890000D02*
X79909523Y-51842380D01*
X79766666Y-51842380D01*
X79623809Y-51890000D01*
X79528571Y-51985238D01*
X79480952Y-52080476D01*
X79433333Y-52270952D01*
X79433333Y-52413809D01*
X79480952Y-52604285D01*
X79528571Y-52699523D01*
X79623809Y-52794761D01*
X79766666Y-52842380D01*
X79861904Y-52842380D01*
X80004761Y-52794761D01*
X80052380Y-52747142D01*
X80052380Y-52413809D01*
X79861904Y-52413809D01*
X80433333Y-51937619D02*
X80480952Y-51890000D01*
X80576190Y-51842380D01*
X80814285Y-51842380D01*
X80909523Y-51890000D01*
X80957142Y-51937619D01*
X81004761Y-52032857D01*
X81004761Y-52128095D01*
X80957142Y-52270952D01*
X80385714Y-52842380D01*
X81004761Y-52842380D01*
X81909523Y-51842380D02*
X81433333Y-51842380D01*
X81385714Y-52318571D01*
X81433333Y-52270952D01*
X81528571Y-52223333D01*
X81766666Y-52223333D01*
X81861904Y-52270952D01*
X81909523Y-52318571D01*
X81957142Y-52413809D01*
X81957142Y-52651904D01*
X81909523Y-52747142D01*
X81861904Y-52794761D01*
X81766666Y-52842380D01*
X81528571Y-52842380D01*
X81433333Y-52794761D01*
X81385714Y-52747142D01*
X82576190Y-51842380D02*
X82671428Y-51842380D01*
X82766666Y-51890000D01*
X82814285Y-51937619D01*
X82861904Y-52032857D01*
X82909523Y-52223333D01*
X82909523Y-52461428D01*
X82861904Y-52651904D01*
X82814285Y-52747142D01*
X82766666Y-52794761D01*
X82671428Y-52842380D01*
X82576190Y-52842380D01*
X82480952Y-52794761D01*
X82433333Y-52747142D01*
X82385714Y-52651904D01*
X82338095Y-52461428D01*
X82338095Y-52223333D01*
X82385714Y-52032857D01*
X82433333Y-51937619D01*
X82480952Y-51890000D01*
X82576190Y-51842380D01*
G04 #@! TO.C,U3*
X38121904Y-55592380D02*
X38121904Y-54592380D01*
X38455238Y-55306666D01*
X38788571Y-54592380D01*
X38788571Y-55592380D01*
X39217142Y-55544761D02*
X39360000Y-55592380D01*
X39598095Y-55592380D01*
X39693333Y-55544761D01*
X39740952Y-55497142D01*
X39788571Y-55401904D01*
X39788571Y-55306666D01*
X39740952Y-55211428D01*
X39693333Y-55163809D01*
X39598095Y-55116190D01*
X39407619Y-55068571D01*
X39312380Y-55020952D01*
X39264761Y-54973333D01*
X39217142Y-54878095D01*
X39217142Y-54782857D01*
X39264761Y-54687619D01*
X39312380Y-54640000D01*
X39407619Y-54592380D01*
X39645714Y-54592380D01*
X39788571Y-54640000D01*
X40217142Y-55592380D02*
X40217142Y-54592380D01*
X40598095Y-54592380D01*
X40693333Y-54640000D01*
X40740952Y-54687619D01*
X40788571Y-54782857D01*
X40788571Y-54925714D01*
X40740952Y-55020952D01*
X40693333Y-55068571D01*
X40598095Y-55116190D01*
X40217142Y-55116190D01*
X41645714Y-54925714D02*
X41645714Y-55592380D01*
X41407619Y-54544761D02*
X41169523Y-55259047D01*
X41788571Y-55259047D01*
X42074285Y-54592380D02*
X42693333Y-54592380D01*
X42360000Y-54973333D01*
X42502857Y-54973333D01*
X42598095Y-55020952D01*
X42645714Y-55068571D01*
X42693333Y-55163809D01*
X42693333Y-55401904D01*
X42645714Y-55497142D01*
X42598095Y-55544761D01*
X42502857Y-55592380D01*
X42217142Y-55592380D01*
X42121904Y-55544761D01*
X42074285Y-55497142D01*
X43312380Y-54592380D02*
X43407619Y-54592380D01*
X43502857Y-54640000D01*
X43550476Y-54687619D01*
X43598095Y-54782857D01*
X43645714Y-54973333D01*
X43645714Y-55211428D01*
X43598095Y-55401904D01*
X43550476Y-55497142D01*
X43502857Y-55544761D01*
X43407619Y-55592380D01*
X43312380Y-55592380D01*
X43217142Y-55544761D01*
X43169523Y-55497142D01*
X43121904Y-55401904D01*
X43074285Y-55211428D01*
X43074285Y-54973333D01*
X43121904Y-54782857D01*
X43169523Y-54687619D01*
X43217142Y-54640000D01*
X43312380Y-54592380D01*
X44407619Y-55068571D02*
X44074285Y-55068571D01*
X44074285Y-55592380D02*
X44074285Y-54592380D01*
X44550476Y-54592380D01*
X45502857Y-55592380D02*
X45169523Y-55116190D01*
X44931428Y-55592380D02*
X44931428Y-54592380D01*
X45312380Y-54592380D01*
X45407619Y-54640000D01*
X45455238Y-54687619D01*
X45502857Y-54782857D01*
X45502857Y-54925714D01*
X45455238Y-55020952D01*
X45407619Y-55068571D01*
X45312380Y-55116190D01*
X44931428Y-55116190D01*
X45883809Y-54687619D02*
X45931428Y-54640000D01*
X46026666Y-54592380D01*
X46264761Y-54592380D01*
X46360000Y-54640000D01*
X46407619Y-54687619D01*
X46455238Y-54782857D01*
X46455238Y-54878095D01*
X46407619Y-55020952D01*
X45836190Y-55592380D01*
X46455238Y-55592380D01*
X47360000Y-54592380D02*
X46883809Y-54592380D01*
X46836190Y-55068571D01*
X46883809Y-55020952D01*
X46979047Y-54973333D01*
X47217142Y-54973333D01*
X47312380Y-55020952D01*
X47360000Y-55068571D01*
X47407619Y-55163809D01*
X47407619Y-55401904D01*
X47360000Y-55497142D01*
X47312380Y-55544761D01*
X47217142Y-55592380D01*
X46979047Y-55592380D01*
X46883809Y-55544761D01*
X46836190Y-55497142D01*
X48360000Y-55592380D02*
X47788571Y-55592380D01*
X48074285Y-55592380D02*
X48074285Y-54592380D01*
X47979047Y-54735238D01*
X47883809Y-54830476D01*
X47788571Y-54878095D01*
X48740952Y-54687619D02*
X48788571Y-54640000D01*
X48883809Y-54592380D01*
X49121904Y-54592380D01*
X49217142Y-54640000D01*
X49264761Y-54687619D01*
X49312380Y-54782857D01*
X49312380Y-54878095D01*
X49264761Y-55020952D01*
X48693333Y-55592380D01*
X49312380Y-55592380D01*
X49740952Y-55592380D02*
X49740952Y-54592380D01*
X50788571Y-55592380D02*
X50455238Y-55116190D01*
X50217142Y-55592380D02*
X50217142Y-54592380D01*
X50598095Y-54592380D01*
X50693333Y-54640000D01*
X50740952Y-54687619D01*
X50788571Y-54782857D01*
X50788571Y-54925714D01*
X50740952Y-55020952D01*
X50693333Y-55068571D01*
X50598095Y-55116190D01*
X50217142Y-55116190D01*
X51217142Y-55592380D02*
X51217142Y-54592380D01*
X51217142Y-55068571D02*
X51788571Y-55068571D01*
X51788571Y-55592380D02*
X51788571Y-54592380D01*
X52740952Y-55592380D02*
X52264761Y-55592380D01*
X52264761Y-54592380D01*
X53645714Y-55592380D02*
X53312380Y-55116190D01*
X53074285Y-55592380D02*
X53074285Y-54592380D01*
X53455238Y-54592380D01*
X53550476Y-54640000D01*
X53598095Y-54687619D01*
X53645714Y-54782857D01*
X53645714Y-54925714D01*
X53598095Y-55020952D01*
X53550476Y-55068571D01*
X53455238Y-55116190D01*
X53074285Y-55116190D01*
G04 #@! TD*
M02*
