G04 #@! TF.GenerationSoftware,KiCad,Pcbnew,5.0.1*
G04 #@! TF.CreationDate,2018-12-11T18:26:41-05:00*
G04 #@! TF.ProjectId,controller,636F6E74726F6C6C65722E6B69636164,rev?*
G04 #@! TF.SameCoordinates,Original*
G04 #@! TF.FileFunction,Paste,Bot*
G04 #@! TF.FilePolarity,Positive*
%FSLAX46Y46*%
G04 Gerber Fmt 4.6, Leading zero omitted, Abs format (unit mm)*
G04 Created by KiCad (PCBNEW 5.0.1) date Tue 11 Dec 2018 06:26:41 PM EST*
%MOMM*%
%LPD*%
G01*
G04 APERTURE LIST*
%ADD10R,1.047600X0.747600*%
%ADD11R,1.047600X0.597600*%
%ADD12R,1.347600X1.097600*%
%ADD13R,0.347600X0.447600*%
%ADD14R,0.447600X0.347600*%
%ADD15R,0.597600X1.047600*%
%ADD16R,1.097600X1.347600*%
%ADD17R,2.047600X1.672600*%
%ADD18R,0.447600X0.247600*%
%ADD19R,0.747600X1.047600*%
%ADD20R,1.407600X0.497600*%
%ADD21R,0.147600X0.247600*%
%ADD22R,0.247600X0.147600*%
G04 APERTURE END LIST*
D10*
G04 #@! TO.C,R14*
X78120000Y-55260000D03*
X75920000Y-55260000D03*
G04 #@! TD*
D11*
G04 #@! TO.C,C20*
X48860000Y-57880000D03*
X46960000Y-57880000D03*
G04 #@! TD*
G04 #@! TO.C,C19*
X46960000Y-56420000D03*
X48860000Y-56420000D03*
G04 #@! TD*
D12*
G04 #@! TO.C,C21*
X37610000Y-53870000D03*
X40110000Y-53870000D03*
G04 #@! TD*
D13*
G04 #@! TO.C,C16*
X39854053Y-55431676D03*
X39854053Y-56531676D03*
G04 #@! TD*
G04 #@! TO.C,C15*
X39054053Y-56531676D03*
X39054053Y-55431676D03*
G04 #@! TD*
G04 #@! TO.C,C14*
X38220000Y-55450000D03*
X38220000Y-56550000D03*
G04 #@! TD*
D14*
G04 #@! TO.C,C6*
X82400000Y-54140000D03*
X81300000Y-54140000D03*
G04 #@! TD*
G04 #@! TO.C,C5*
X81300000Y-54940000D03*
X82400000Y-54940000D03*
G04 #@! TD*
D11*
G04 #@! TO.C,C7*
X80450000Y-53240000D03*
X82350000Y-53240000D03*
G04 #@! TD*
D15*
G04 #@! TO.C,C8*
X50450000Y-55590000D03*
X50450000Y-53690000D03*
G04 #@! TD*
D11*
G04 #@! TO.C,C3*
X42210000Y-58940000D03*
X40310000Y-58940000D03*
G04 #@! TD*
D16*
G04 #@! TO.C,C4*
X73607516Y-58212111D03*
X73607516Y-55712111D03*
G04 #@! TD*
D17*
G04 #@! TO.C,L1*
X66107516Y-58049611D03*
X66107516Y-55474611D03*
G04 #@! TD*
D18*
G04 #@! TO.C,R6*
X48940000Y-53670000D03*
X48940000Y-54570000D03*
G04 #@! TD*
G04 #@! TO.C,R7*
X47940000Y-54570000D03*
X47940000Y-53670000D03*
G04 #@! TD*
D19*
G04 #@! TO.C,R2*
X33440000Y-53280000D03*
X33440000Y-55480000D03*
G04 #@! TD*
D20*
G04 #@! TO.C,U1*
X71457516Y-57812111D03*
X71457516Y-55912111D03*
X68757516Y-55912111D03*
X68757516Y-56862111D03*
X68757516Y-57812111D03*
G04 #@! TD*
D21*
G04 #@! TO.C,U2*
X82500000Y-57840000D03*
X82000000Y-57840000D03*
X81500000Y-57840000D03*
X81000000Y-57840000D03*
D22*
X80950000Y-57290000D03*
X80950000Y-56790000D03*
D21*
X81000000Y-56240000D03*
X81500000Y-56240000D03*
X82000000Y-56240000D03*
X82500000Y-56240000D03*
D22*
X82550000Y-56790000D03*
X82550000Y-57290000D03*
G04 #@! TD*
M02*
