%FSLAX45Y45*%
G04 Gerber Fmt 4.5, Leading zero omitted, Abs format (unit mm)*
G04 Created by KiCad (PCBNEW 5.0.0) date Mon Sep  3 16:34:51 2018*
%MOMM*%
%LPD*%
G01*
G04 APERTURE LIST*
%ADD10C,0.152400*%
%ADD11C,0.200000*%
%ADD12C,0.300000*%
G04 APERTURE END LIST*
D10*
X2500000Y-6000000D02*
X2500000Y-5000000D01*
X7900000Y-6000000D02*
X2500000Y-6000000D01*
X7900000Y-5000000D02*
X7900000Y-6000000D01*
X2500000Y-5000000D02*
X7900000Y-5000000D01*
D11*
D12*
X2778808Y-6473334D02*
X2778808Y-6173334D01*
X2850237Y-6173334D01*
X2893094Y-6187620D01*
X2921666Y-6216191D01*
X2935951Y-6244763D01*
X2950237Y-6301906D01*
X2950237Y-6344763D01*
X2935951Y-6401906D01*
X2921666Y-6430477D01*
X2893094Y-6459049D01*
X2850237Y-6473334D01*
X2778808Y-6473334D01*
X3078808Y-6473334D02*
X3078808Y-6273334D01*
X3078808Y-6330477D02*
X3093094Y-6301906D01*
X3107380Y-6287620D01*
X3135951Y-6273334D01*
X3164523Y-6273334D01*
X3264523Y-6473334D02*
X3264523Y-6273334D01*
X3264523Y-6173334D02*
X3250237Y-6187620D01*
X3264523Y-6201906D01*
X3278808Y-6187620D01*
X3264523Y-6173334D01*
X3264523Y-6201906D01*
X3450237Y-6473334D02*
X3421666Y-6459049D01*
X3407380Y-6430477D01*
X3407380Y-6173334D01*
X3607380Y-6473334D02*
X3578808Y-6459049D01*
X3564523Y-6430477D01*
X3564523Y-6173334D01*
X3950237Y-6473334D02*
X3950237Y-6173334D01*
X4050237Y-6387620D01*
X4150237Y-6173334D01*
X4150237Y-6473334D01*
X4421666Y-6473334D02*
X4421666Y-6316191D01*
X4407380Y-6287620D01*
X4378808Y-6273334D01*
X4321666Y-6273334D01*
X4293094Y-6287620D01*
X4421666Y-6459049D02*
X4393094Y-6473334D01*
X4321666Y-6473334D01*
X4293094Y-6459049D01*
X4278808Y-6430477D01*
X4278808Y-6401906D01*
X4293094Y-6373334D01*
X4321666Y-6359049D01*
X4393094Y-6359049D01*
X4421666Y-6344763D01*
X4564523Y-6273334D02*
X4564523Y-6573334D01*
X4564523Y-6287620D02*
X4593094Y-6273334D01*
X4650237Y-6273334D01*
X4678808Y-6287620D01*
X4693094Y-6301906D01*
X4707380Y-6330477D01*
X4707380Y-6416191D01*
X4693094Y-6444763D01*
X4678808Y-6459049D01*
X4650237Y-6473334D01*
X4593094Y-6473334D01*
X4564523Y-6459049D01*
X4835951Y-6444763D02*
X4850237Y-6459049D01*
X4835951Y-6473334D01*
X4821666Y-6459049D01*
X4835951Y-6444763D01*
X4835951Y-6473334D01*
X4835951Y-6287620D02*
X4850237Y-6301906D01*
X4835951Y-6316191D01*
X4821666Y-6301906D01*
X4835951Y-6287620D01*
X4835951Y-6316191D01*
M02*
