G04 #@! TF.GenerationSoftware,KiCad,Pcbnew,5.0.0*
G04 #@! TF.CreationDate,2018-09-03T16:34:48-04:00*
G04 #@! TF.ProjectId,controller,636F6E74726F6C6C65722E6B69636164,rev?*
G04 #@! TF.SameCoordinates,Original*
G04 #@! TF.FileFunction,Soldermask,Bot*
G04 #@! TF.FilePolarity,Negative*
%FSLAX46Y46*%
G04 Gerber Fmt 4.6, Leading zero omitted, Abs format (unit mm)*
G04 Created by KiCad (PCBNEW 5.0.0) date Mon Sep  3 16:34:48 2018*
%MOMM*%
%LPD*%
G01*
G04 APERTURE LIST*
%ADD10C,0.100000*%
G04 APERTURE END LIST*
D10*
G36*
X66658716Y-59198311D02*
X65256316Y-59198311D01*
X65256316Y-57545911D01*
X66658716Y-57545911D01*
X66658716Y-59198311D01*
X66658716Y-59198311D01*
G37*
G36*
X59633716Y-59198311D02*
X57281316Y-59198311D01*
X57281316Y-57220911D01*
X59633716Y-57220911D01*
X59633716Y-59198311D01*
X59633716Y-59198311D01*
G37*
G36*
X45526200Y-58926200D02*
X43673800Y-58926200D01*
X43673800Y-57073800D01*
X45526200Y-57073800D01*
X45526200Y-58926200D01*
X45526200Y-58926200D01*
G37*
G36*
X30176200Y-58876200D02*
X29023800Y-58876200D01*
X29023800Y-57723800D01*
X30176200Y-57723800D01*
X30176200Y-58876200D01*
X30176200Y-58876200D01*
G37*
G36*
X30982951Y-57732137D02*
X30982954Y-57732138D01*
X30982955Y-57732138D01*
X30992673Y-57735086D01*
X31091568Y-57765085D01*
X31191670Y-57818591D01*
X31279406Y-57890594D01*
X31351409Y-57978330D01*
X31404915Y-58078432D01*
X31437863Y-58187049D01*
X31448988Y-58300000D01*
X31437863Y-58412951D01*
X31404915Y-58521568D01*
X31351409Y-58621670D01*
X31279406Y-58709406D01*
X31191670Y-58781409D01*
X31091568Y-58834915D01*
X31008421Y-58860137D01*
X30982955Y-58867862D01*
X30982954Y-58867862D01*
X30982951Y-58867863D01*
X30898303Y-58876200D01*
X30841697Y-58876200D01*
X30757049Y-58867863D01*
X30757046Y-58867862D01*
X30757045Y-58867862D01*
X30731579Y-58860137D01*
X30648432Y-58834915D01*
X30548330Y-58781409D01*
X30460594Y-58709406D01*
X30388591Y-58621670D01*
X30335085Y-58521568D01*
X30302137Y-58412951D01*
X30291012Y-58300000D01*
X30302137Y-58187049D01*
X30335085Y-58078432D01*
X30388591Y-57978330D01*
X30460594Y-57890594D01*
X30548330Y-57818591D01*
X30648432Y-57765085D01*
X30747327Y-57735086D01*
X30757045Y-57732138D01*
X30757046Y-57732138D01*
X30757049Y-57732137D01*
X30841697Y-57723800D01*
X30898303Y-57723800D01*
X30982951Y-57732137D01*
X30982951Y-57732137D01*
G37*
G36*
X32252951Y-57732137D02*
X32252954Y-57732138D01*
X32252955Y-57732138D01*
X32262673Y-57735086D01*
X32361568Y-57765085D01*
X32461670Y-57818591D01*
X32549406Y-57890594D01*
X32621409Y-57978330D01*
X32674915Y-58078432D01*
X32707863Y-58187049D01*
X32718988Y-58300000D01*
X32707863Y-58412951D01*
X32674915Y-58521568D01*
X32621409Y-58621670D01*
X32549406Y-58709406D01*
X32461670Y-58781409D01*
X32361568Y-58834915D01*
X32278421Y-58860137D01*
X32252955Y-58867862D01*
X32252954Y-58867862D01*
X32252951Y-58867863D01*
X32168303Y-58876200D01*
X32111697Y-58876200D01*
X32027049Y-58867863D01*
X32027046Y-58867862D01*
X32027045Y-58867862D01*
X32001579Y-58860137D01*
X31918432Y-58834915D01*
X31818330Y-58781409D01*
X31730594Y-58709406D01*
X31658591Y-58621670D01*
X31605085Y-58521568D01*
X31572137Y-58412951D01*
X31561012Y-58300000D01*
X31572137Y-58187049D01*
X31605085Y-58078432D01*
X31658591Y-57978330D01*
X31730594Y-57890594D01*
X31818330Y-57818591D01*
X31918432Y-57765085D01*
X32017327Y-57735086D01*
X32027045Y-57732138D01*
X32027046Y-57732138D01*
X32027049Y-57732137D01*
X32111697Y-57723800D01*
X32168303Y-57723800D01*
X32252951Y-57732137D01*
X32252951Y-57732137D01*
G37*
G36*
X48042951Y-57702137D02*
X48042954Y-57702138D01*
X48042955Y-57702138D01*
X48060377Y-57707423D01*
X48151568Y-57735085D01*
X48251670Y-57788591D01*
X48339406Y-57860594D01*
X48411409Y-57948330D01*
X48464915Y-58048432D01*
X48497863Y-58157049D01*
X48508988Y-58270000D01*
X48497863Y-58382951D01*
X48464915Y-58491568D01*
X48411409Y-58591670D01*
X48339406Y-58679406D01*
X48251670Y-58751409D01*
X48151568Y-58804915D01*
X48068421Y-58830137D01*
X48042955Y-58837862D01*
X48042954Y-58837862D01*
X48042951Y-58837863D01*
X47958303Y-58846200D01*
X47901697Y-58846200D01*
X47817049Y-58837863D01*
X47817046Y-58837862D01*
X47817045Y-58837862D01*
X47791579Y-58830137D01*
X47708432Y-58804915D01*
X47608330Y-58751409D01*
X47520594Y-58679406D01*
X47448591Y-58591670D01*
X47395085Y-58491568D01*
X47362137Y-58382951D01*
X47351012Y-58270000D01*
X47362137Y-58157049D01*
X47395085Y-58048432D01*
X47448591Y-57948330D01*
X47520594Y-57860594D01*
X47608330Y-57788591D01*
X47708432Y-57735085D01*
X47799623Y-57707423D01*
X47817045Y-57702138D01*
X47817046Y-57702138D01*
X47817049Y-57702137D01*
X47901697Y-57693800D01*
X47958303Y-57693800D01*
X48042951Y-57702137D01*
X48042951Y-57702137D01*
G37*
G36*
X49312951Y-57702137D02*
X49312954Y-57702138D01*
X49312955Y-57702138D01*
X49330377Y-57707423D01*
X49421568Y-57735085D01*
X49521670Y-57788591D01*
X49609406Y-57860594D01*
X49681409Y-57948330D01*
X49734915Y-58048432D01*
X49767863Y-58157049D01*
X49778988Y-58270000D01*
X49767863Y-58382951D01*
X49734915Y-58491568D01*
X49681409Y-58591670D01*
X49609406Y-58679406D01*
X49521670Y-58751409D01*
X49421568Y-58804915D01*
X49338421Y-58830137D01*
X49312955Y-58837862D01*
X49312954Y-58837862D01*
X49312951Y-58837863D01*
X49228303Y-58846200D01*
X49171697Y-58846200D01*
X49087049Y-58837863D01*
X49087046Y-58837862D01*
X49087045Y-58837862D01*
X49061579Y-58830137D01*
X48978432Y-58804915D01*
X48878330Y-58751409D01*
X48790594Y-58679406D01*
X48718591Y-58591670D01*
X48665085Y-58491568D01*
X48632137Y-58382951D01*
X48621012Y-58270000D01*
X48632137Y-58157049D01*
X48665085Y-58048432D01*
X48718591Y-57948330D01*
X48790594Y-57860594D01*
X48878330Y-57788591D01*
X48978432Y-57735085D01*
X49069623Y-57707423D01*
X49087045Y-57702138D01*
X49087046Y-57702138D01*
X49087049Y-57702137D01*
X49171697Y-57693800D01*
X49228303Y-57693800D01*
X49312951Y-57702137D01*
X49312951Y-57702137D01*
G37*
G36*
X68092951Y-57432137D02*
X68092954Y-57432138D01*
X68092955Y-57432138D01*
X68118421Y-57439863D01*
X68201568Y-57465085D01*
X68301670Y-57518591D01*
X68389406Y-57590594D01*
X68461409Y-57678330D01*
X68514915Y-57778432D01*
X68547863Y-57887049D01*
X68558988Y-58000000D01*
X68547863Y-58112951D01*
X68514915Y-58221568D01*
X68461409Y-58321670D01*
X68389406Y-58409406D01*
X68301670Y-58481409D01*
X68201568Y-58534915D01*
X68118421Y-58560137D01*
X68092955Y-58567862D01*
X68092954Y-58567862D01*
X68092951Y-58567863D01*
X68008303Y-58576200D01*
X67951697Y-58576200D01*
X67867049Y-58567863D01*
X67867046Y-58567862D01*
X67867045Y-58567862D01*
X67841579Y-58560137D01*
X67758432Y-58534915D01*
X67658330Y-58481409D01*
X67570594Y-58409406D01*
X67498591Y-58321670D01*
X67445085Y-58221568D01*
X67412137Y-58112951D01*
X67401012Y-58000000D01*
X67412137Y-57887049D01*
X67445085Y-57778432D01*
X67498591Y-57678330D01*
X67570594Y-57590594D01*
X67658330Y-57518591D01*
X67758432Y-57465085D01*
X67841579Y-57439863D01*
X67867045Y-57432138D01*
X67867046Y-57432138D01*
X67867049Y-57432137D01*
X67951697Y-57423800D01*
X68008303Y-57423800D01*
X68092951Y-57432137D01*
X68092951Y-57432137D01*
G37*
G36*
X69826200Y-58576200D02*
X68673800Y-58576200D01*
X68673800Y-57423800D01*
X69826200Y-57423800D01*
X69826200Y-58576200D01*
X69826200Y-58576200D01*
G37*
G36*
X56608716Y-58548311D02*
X55706316Y-58548311D01*
X55706316Y-57195911D01*
X56608716Y-57195911D01*
X56608716Y-58548311D01*
X56608716Y-58548311D01*
G37*
G36*
X61963716Y-58373311D02*
X60251316Y-58373311D01*
X60251316Y-57570911D01*
X61963716Y-57570911D01*
X61963716Y-58373311D01*
X61963716Y-58373311D01*
G37*
G36*
X64663716Y-58373311D02*
X62951316Y-58373311D01*
X62951316Y-57570911D01*
X64663716Y-57570911D01*
X64663716Y-58373311D01*
X64663716Y-58373311D01*
G37*
G36*
X75070000Y-56679200D02*
X75070976Y-56689111D01*
X75073867Y-56698640D01*
X75078561Y-56707423D01*
X75084879Y-56715121D01*
X75092577Y-56721439D01*
X75101360Y-56726133D01*
X75110889Y-56729024D01*
X75120800Y-56730000D01*
X75170000Y-56730000D01*
X75170000Y-57670000D01*
X75120800Y-57670000D01*
X75110889Y-57670976D01*
X75101360Y-57673867D01*
X75092577Y-57678561D01*
X75084879Y-57684879D01*
X75078561Y-57692577D01*
X75073867Y-57701360D01*
X75070976Y-57710889D01*
X75070000Y-57720800D01*
X75070000Y-58270000D01*
X73130000Y-58270000D01*
X73130000Y-57720800D01*
X73129024Y-57710889D01*
X73126133Y-57701360D01*
X73121439Y-57692577D01*
X73115121Y-57684879D01*
X73107423Y-57678561D01*
X73098640Y-57673867D01*
X73089111Y-57670976D01*
X73079200Y-57670000D01*
X73030000Y-57670000D01*
X73030000Y-56730000D01*
X73079200Y-56730000D01*
X73089111Y-56729024D01*
X73098640Y-56726133D01*
X73107423Y-56721439D01*
X73108201Y-56720800D01*
X73570000Y-56720800D01*
X73570000Y-57679200D01*
X73570976Y-57689111D01*
X73573867Y-57698640D01*
X73578561Y-57707423D01*
X73584879Y-57715121D01*
X73592577Y-57721439D01*
X73601360Y-57726133D01*
X73610889Y-57729024D01*
X73620800Y-57730000D01*
X74579200Y-57730000D01*
X74589111Y-57729024D01*
X74598640Y-57726133D01*
X74607423Y-57721439D01*
X74615121Y-57715121D01*
X74621439Y-57707423D01*
X74626133Y-57698640D01*
X74629024Y-57689111D01*
X74630000Y-57679200D01*
X74630000Y-56720800D01*
X74629024Y-56710889D01*
X74626133Y-56701360D01*
X74621439Y-56692577D01*
X74615121Y-56684879D01*
X74607423Y-56678561D01*
X74598640Y-56673867D01*
X74589111Y-56670976D01*
X74579200Y-56670000D01*
X73620800Y-56670000D01*
X73610889Y-56670976D01*
X73601360Y-56673867D01*
X73592577Y-56678561D01*
X73584879Y-56684879D01*
X73578561Y-56692577D01*
X73573867Y-56701360D01*
X73570976Y-56710889D01*
X73570000Y-56720800D01*
X73108201Y-56720800D01*
X73115121Y-56715121D01*
X73121439Y-56707423D01*
X73126133Y-56698640D01*
X73129024Y-56689111D01*
X73130000Y-56679200D01*
X73130000Y-56130000D01*
X75070000Y-56130000D01*
X75070000Y-56679200D01*
X75070000Y-56679200D01*
G37*
G36*
X48042951Y-56432137D02*
X48042954Y-56432138D01*
X48042955Y-56432138D01*
X48068421Y-56439863D01*
X48151568Y-56465085D01*
X48251670Y-56518591D01*
X48339406Y-56590594D01*
X48411409Y-56678330D01*
X48464915Y-56778432D01*
X48497863Y-56887049D01*
X48508988Y-57000000D01*
X48497863Y-57112951D01*
X48464915Y-57221568D01*
X48411409Y-57321670D01*
X48339406Y-57409406D01*
X48251670Y-57481409D01*
X48151568Y-57534915D01*
X48075874Y-57557876D01*
X48042955Y-57567862D01*
X48042954Y-57567862D01*
X48042951Y-57567863D01*
X47958303Y-57576200D01*
X47901697Y-57576200D01*
X47817049Y-57567863D01*
X47817046Y-57567862D01*
X47817045Y-57567862D01*
X47784126Y-57557876D01*
X47708432Y-57534915D01*
X47608330Y-57481409D01*
X47520594Y-57409406D01*
X47448591Y-57321670D01*
X47395085Y-57221568D01*
X47362137Y-57112951D01*
X47351012Y-57000000D01*
X47362137Y-56887049D01*
X47395085Y-56778432D01*
X47448591Y-56678330D01*
X47520594Y-56590594D01*
X47608330Y-56518591D01*
X47708432Y-56465085D01*
X47791579Y-56439863D01*
X47817045Y-56432138D01*
X47817046Y-56432138D01*
X47817049Y-56432137D01*
X47901697Y-56423800D01*
X47958303Y-56423800D01*
X48042951Y-56432137D01*
X48042951Y-56432137D01*
G37*
G36*
X49776200Y-57576200D02*
X48623800Y-57576200D01*
X48623800Y-56423800D01*
X49776200Y-56423800D01*
X49776200Y-57576200D01*
X49776200Y-57576200D01*
G37*
G36*
X35226200Y-57576200D02*
X34573800Y-57576200D01*
X34573800Y-56823800D01*
X35226200Y-56823800D01*
X35226200Y-57576200D01*
X35226200Y-57576200D01*
G37*
G36*
X36860253Y-57557876D02*
X36207853Y-57557876D01*
X36207853Y-56805476D01*
X36860253Y-56805476D01*
X36860253Y-57557876D01*
X36860253Y-57557876D01*
G37*
G36*
X36060253Y-57557876D02*
X35407853Y-57557876D01*
X35407853Y-56805476D01*
X36060253Y-56805476D01*
X36060253Y-57557876D01*
X36060253Y-57557876D01*
G37*
G36*
X61963716Y-57423311D02*
X60251316Y-57423311D01*
X60251316Y-56620911D01*
X61963716Y-56620911D01*
X61963716Y-57423311D01*
X61963716Y-57423311D01*
G37*
G36*
X66658716Y-56698311D02*
X65256316Y-56698311D01*
X65256316Y-55045911D01*
X66658716Y-55045911D01*
X66658716Y-56698311D01*
X66658716Y-56698311D01*
G37*
G36*
X56608716Y-56648311D02*
X55706316Y-56648311D01*
X55706316Y-55295911D01*
X56608716Y-55295911D01*
X56608716Y-56648311D01*
X56608716Y-56648311D01*
G37*
G36*
X59633716Y-56623311D02*
X57281316Y-56623311D01*
X57281316Y-54645911D01*
X59633716Y-54645911D01*
X59633716Y-56623311D01*
X59633716Y-56623311D01*
G37*
G36*
X35226200Y-56476200D02*
X34573800Y-56476200D01*
X34573800Y-55723800D01*
X35226200Y-55723800D01*
X35226200Y-56476200D01*
X35226200Y-56476200D01*
G37*
G36*
X64663716Y-56473311D02*
X62951316Y-56473311D01*
X62951316Y-55670911D01*
X64663716Y-55670911D01*
X64663716Y-56473311D01*
X64663716Y-56473311D01*
G37*
G36*
X61963716Y-56473311D02*
X60251316Y-56473311D01*
X60251316Y-55670911D01*
X61963716Y-55670911D01*
X61963716Y-56473311D01*
X61963716Y-56473311D01*
G37*
G36*
X36860253Y-56457876D02*
X36207853Y-56457876D01*
X36207853Y-55705476D01*
X36860253Y-55705476D01*
X36860253Y-56457876D01*
X36860253Y-56457876D01*
G37*
G36*
X36060253Y-56457876D02*
X35407853Y-56457876D01*
X35407853Y-55705476D01*
X36060253Y-55705476D01*
X36060253Y-56457876D01*
X36060253Y-56457876D01*
G37*
G36*
X43251200Y-56426200D02*
X42348800Y-56426200D01*
X42348800Y-55073800D01*
X43251200Y-55073800D01*
X43251200Y-56426200D01*
X43251200Y-56426200D01*
G37*
G36*
X34026200Y-56176200D02*
X32973800Y-56176200D01*
X32973800Y-54823800D01*
X34026200Y-54823800D01*
X34026200Y-56176200D01*
X34026200Y-56176200D01*
G37*
G36*
X74026200Y-55426200D02*
X73273800Y-55426200D01*
X73273800Y-54773800D01*
X74026200Y-54773800D01*
X74026200Y-55426200D01*
X74026200Y-55426200D01*
G37*
G36*
X75126200Y-55426200D02*
X74373800Y-55426200D01*
X74373800Y-54773800D01*
X75126200Y-54773800D01*
X75126200Y-55426200D01*
X75126200Y-55426200D01*
G37*
G36*
X75126200Y-54626200D02*
X74373800Y-54626200D01*
X74373800Y-53973800D01*
X75126200Y-53973800D01*
X75126200Y-54626200D01*
X75126200Y-54626200D01*
G37*
G36*
X74026200Y-54626200D02*
X73273800Y-54626200D01*
X73273800Y-53973800D01*
X74026200Y-53973800D01*
X74026200Y-54626200D01*
X74026200Y-54626200D01*
G37*
G36*
X46368072Y-53445943D02*
X46472931Y-53489377D01*
X46472933Y-53489378D01*
X46567306Y-53552436D01*
X46647564Y-53632694D01*
X46710622Y-53727067D01*
X46754057Y-53831929D01*
X46776200Y-53943249D01*
X46776200Y-54056751D01*
X46754057Y-54168071D01*
X46710622Y-54272933D01*
X46647564Y-54367306D01*
X46567306Y-54447564D01*
X46472933Y-54510622D01*
X46472932Y-54510623D01*
X46472931Y-54510623D01*
X46368072Y-54554057D01*
X46256751Y-54576200D01*
X46143249Y-54576200D01*
X46031928Y-54554057D01*
X45927069Y-54510623D01*
X45927068Y-54510623D01*
X45927067Y-54510622D01*
X45832694Y-54447564D01*
X45752436Y-54367306D01*
X45689378Y-54272933D01*
X45645943Y-54168071D01*
X45623800Y-54056751D01*
X45623800Y-53943249D01*
X45645943Y-53831929D01*
X45689378Y-53727067D01*
X45752436Y-53632694D01*
X45832694Y-53552436D01*
X45927067Y-53489378D01*
X45927069Y-53489377D01*
X46031928Y-53445943D01*
X46143249Y-53423800D01*
X46256751Y-53423800D01*
X46368072Y-53445943D01*
X46368072Y-53445943D01*
G37*
G36*
X43251200Y-54526200D02*
X42348800Y-54526200D01*
X42348800Y-53173800D01*
X43251200Y-53173800D01*
X43251200Y-54526200D01*
X43251200Y-54526200D01*
G37*
G36*
X41976200Y-54526200D02*
X41223800Y-54526200D01*
X41223800Y-53973800D01*
X41976200Y-53973800D01*
X41976200Y-54526200D01*
X41976200Y-54526200D01*
G37*
G36*
X40976200Y-54526200D02*
X40223800Y-54526200D01*
X40223800Y-53973800D01*
X40976200Y-53973800D01*
X40976200Y-54526200D01*
X40976200Y-54526200D01*
G37*
G36*
X34026200Y-53976200D02*
X32973800Y-53976200D01*
X32973800Y-52623800D01*
X34026200Y-52623800D01*
X34026200Y-53976200D01*
X34026200Y-53976200D01*
G37*
G36*
X73476200Y-53851200D02*
X72123800Y-53851200D01*
X72123800Y-52948800D01*
X73476200Y-52948800D01*
X73476200Y-53851200D01*
X73476200Y-53851200D01*
G37*
G36*
X75376200Y-53851200D02*
X74023800Y-53851200D01*
X74023800Y-52948800D01*
X75376200Y-52948800D01*
X75376200Y-53851200D01*
X75376200Y-53851200D01*
G37*
G36*
X40976200Y-53626200D02*
X40223800Y-53626200D01*
X40223800Y-53073800D01*
X40976200Y-53073800D01*
X40976200Y-53626200D01*
X40976200Y-53626200D01*
G37*
G36*
X41976200Y-53626200D02*
X41223800Y-53626200D01*
X41223800Y-53073800D01*
X41976200Y-53073800D01*
X41976200Y-53626200D01*
X41976200Y-53626200D01*
G37*
G36*
X46368072Y-51545943D02*
X46472931Y-51589377D01*
X46472933Y-51589378D01*
X46567306Y-51652436D01*
X46647564Y-51732694D01*
X46710622Y-51827067D01*
X46754057Y-51931929D01*
X46776200Y-52043249D01*
X46776200Y-52156751D01*
X46754057Y-52268071D01*
X46710622Y-52372933D01*
X46647564Y-52467306D01*
X46567306Y-52547564D01*
X46472933Y-52610622D01*
X46472932Y-52610623D01*
X46472931Y-52610623D01*
X46368072Y-52654057D01*
X46256751Y-52676200D01*
X46143249Y-52676200D01*
X46031928Y-52654057D01*
X45927069Y-52610623D01*
X45927068Y-52610623D01*
X45927067Y-52610622D01*
X45832694Y-52547564D01*
X45752436Y-52467306D01*
X45689378Y-52372933D01*
X45645943Y-52268071D01*
X45623800Y-52156751D01*
X45623800Y-52043249D01*
X45645943Y-51931929D01*
X45689378Y-51827067D01*
X45752436Y-51732694D01*
X45832694Y-51652436D01*
X45927067Y-51589378D01*
X45927069Y-51589377D01*
X46031928Y-51545943D01*
X46143249Y-51523800D01*
X46256751Y-51523800D01*
X46368072Y-51545943D01*
X46368072Y-51545943D01*
G37*
G36*
X29576200Y-52476200D02*
X28423800Y-52476200D01*
X28423800Y-51323800D01*
X29576200Y-51323800D01*
X29576200Y-52476200D01*
X29576200Y-52476200D01*
G37*
G36*
X30382951Y-51332137D02*
X30382954Y-51332138D01*
X30382955Y-51332138D01*
X30408421Y-51339863D01*
X30491568Y-51365085D01*
X30591670Y-51418591D01*
X30679406Y-51490594D01*
X30751409Y-51578330D01*
X30804915Y-51678432D01*
X30837863Y-51787049D01*
X30848988Y-51900000D01*
X30837863Y-52012951D01*
X30804915Y-52121568D01*
X30751409Y-52221670D01*
X30679406Y-52309406D01*
X30591670Y-52381409D01*
X30491568Y-52434915D01*
X30408421Y-52460137D01*
X30382955Y-52467862D01*
X30382954Y-52467862D01*
X30382951Y-52467863D01*
X30298303Y-52476200D01*
X30241697Y-52476200D01*
X30157049Y-52467863D01*
X30157046Y-52467862D01*
X30157045Y-52467862D01*
X30131579Y-52460137D01*
X30048432Y-52434915D01*
X29948330Y-52381409D01*
X29860594Y-52309406D01*
X29788591Y-52221670D01*
X29735085Y-52121568D01*
X29702137Y-52012951D01*
X29691012Y-51900000D01*
X29702137Y-51787049D01*
X29735085Y-51678432D01*
X29788591Y-51578330D01*
X29860594Y-51490594D01*
X29948330Y-51418591D01*
X30048432Y-51365085D01*
X30131579Y-51339863D01*
X30157045Y-51332138D01*
X30157046Y-51332138D01*
X30157049Y-51332137D01*
X30241697Y-51323800D01*
X30298303Y-51323800D01*
X30382951Y-51332137D01*
X30382951Y-51332137D01*
G37*
M02*
