G04 #@! TF.GenerationSoftware,KiCad,Pcbnew,5.0.1*
G04 #@! TF.CreationDate,2018-12-09T15:50:33-05:00*
G04 #@! TF.ProjectId,controller,636F6E74726F6C6C65722E6B69636164,rev?*
G04 #@! TF.SameCoordinates,Original*
G04 #@! TF.FileFunction,Copper,L2,Bot,Signal*
G04 #@! TF.FilePolarity,Positive*
%FSLAX46Y46*%
G04 Gerber Fmt 4.6, Leading zero omitted, Abs format (unit mm)*
G04 Created by KiCad (PCBNEW 5.0.1) date Sun 09 Dec 2018 03:50:33 PM EST*
%MOMM*%
%LPD*%
G01*
G04 APERTURE LIST*
G04 #@! TA.AperFunction,SMDPad,CuDef*
%ADD10R,1.200000X0.900000*%
G04 #@! TD*
G04 #@! TA.AperFunction,SMDPad,CuDef*
%ADD11R,1.200000X0.750000*%
G04 #@! TD*
G04 #@! TA.AperFunction,SMDPad,CuDef*
%ADD12R,1.500000X1.250000*%
G04 #@! TD*
G04 #@! TA.AperFunction,SMDPad,CuDef*
%ADD13R,0.500000X0.600000*%
G04 #@! TD*
G04 #@! TA.AperFunction,SMDPad,CuDef*
%ADD14R,0.600000X0.500000*%
G04 #@! TD*
G04 #@! TA.AperFunction,SMDPad,CuDef*
%ADD15R,0.750000X1.200000*%
G04 #@! TD*
G04 #@! TA.AperFunction,SMDPad,CuDef*
%ADD16R,1.250000X1.500000*%
G04 #@! TD*
G04 #@! TA.AperFunction,ComponentPad*
%ADD17C,1.000000*%
G04 #@! TD*
G04 #@! TA.AperFunction,SMDPad,CuDef*
%ADD18R,2.200000X1.825000*%
G04 #@! TD*
G04 #@! TA.AperFunction,SMDPad,CuDef*
%ADD19R,0.600000X0.400000*%
G04 #@! TD*
G04 #@! TA.AperFunction,SMDPad,CuDef*
%ADD20R,0.900000X1.200000*%
G04 #@! TD*
G04 #@! TA.AperFunction,ComponentPad*
%ADD21R,1.700000X1.700000*%
G04 #@! TD*
G04 #@! TA.AperFunction,ComponentPad*
%ADD22R,1.000000X1.000000*%
G04 #@! TD*
G04 #@! TA.AperFunction,ComponentPad*
%ADD23O,1.000000X1.000000*%
G04 #@! TD*
G04 #@! TA.AperFunction,SMDPad,CuDef*
%ADD24R,1.560000X0.650000*%
G04 #@! TD*
G04 #@! TA.AperFunction,SMDPad,CuDef*
%ADD25R,0.300000X0.400000*%
G04 #@! TD*
G04 #@! TA.AperFunction,SMDPad,CuDef*
%ADD26R,0.400000X0.300000*%
G04 #@! TD*
G04 #@! TA.AperFunction,ViaPad*
%ADD27C,0.508000*%
G04 #@! TD*
G04 #@! TA.AperFunction,ViaPad*
%ADD28C,0.685800*%
G04 #@! TD*
G04 #@! TA.AperFunction,Conductor*
%ADD29C,0.254000*%
G04 #@! TD*
G04 #@! TA.AperFunction,Conductor*
%ADD30C,0.508000*%
G04 #@! TD*
G04 #@! TA.AperFunction,Conductor*
%ADD31C,0.762000*%
G04 #@! TD*
G04 #@! TA.AperFunction,Conductor*
%ADD32C,0.152400*%
G04 #@! TD*
G04 APERTURE END LIST*
D10*
G04 #@! TO.P,R14,2*
G04 #@! TO.N,/+VAUX_F*
X78120000Y-55260000D03*
G04 #@! TO.P,R14,1*
G04 #@! TO.N,/+VAUX*
X75920000Y-55260000D03*
G04 #@! TD*
D11*
G04 #@! TO.P,C20,1*
G04 #@! TO.N,/+VBAT*
X48860000Y-57880000D03*
G04 #@! TO.P,C20,2*
G04 #@! TO.N,GND*
X46960000Y-57880000D03*
G04 #@! TD*
G04 #@! TO.P,C19,2*
G04 #@! TO.N,GND*
X46960000Y-56420000D03*
G04 #@! TO.P,C19,1*
G04 #@! TO.N,/+VBAT*
X48860000Y-56420000D03*
G04 #@! TD*
D12*
G04 #@! TO.P,C21,2*
G04 #@! TO.N,GND*
X37610000Y-53870000D03*
G04 #@! TO.P,C21,1*
G04 #@! TO.N,Net-(C21-Pad1)*
X40110000Y-53870000D03*
G04 #@! TD*
D13*
G04 #@! TO.P,C16,2*
G04 #@! TO.N,Net-(C14-Pad2)*
X39854053Y-55431676D03*
G04 #@! TO.P,C16,1*
G04 #@! TO.N,GND*
X39854053Y-56531676D03*
G04 #@! TD*
G04 #@! TO.P,C15,1*
G04 #@! TO.N,GND*
X39054053Y-56531676D03*
G04 #@! TO.P,C15,2*
G04 #@! TO.N,Net-(C14-Pad2)*
X39054053Y-55431676D03*
G04 #@! TD*
G04 #@! TO.P,C14,2*
G04 #@! TO.N,Net-(C14-Pad2)*
X38220000Y-55450000D03*
G04 #@! TO.P,C14,1*
G04 #@! TO.N,GND*
X38220000Y-56550000D03*
G04 #@! TD*
D14*
G04 #@! TO.P,C6,2*
G04 #@! TO.N,/+VAUX_F*
X82400000Y-54140000D03*
G04 #@! TO.P,C6,1*
G04 #@! TO.N,GND*
X81300000Y-54140000D03*
G04 #@! TD*
G04 #@! TO.P,C5,1*
G04 #@! TO.N,GND*
X81300000Y-54940000D03*
G04 #@! TO.P,C5,2*
G04 #@! TO.N,/+VAUX_F*
X82400000Y-54940000D03*
G04 #@! TD*
D11*
G04 #@! TO.P,C7,2*
G04 #@! TO.N,GND*
X80450000Y-53240000D03*
G04 #@! TO.P,C7,1*
G04 #@! TO.N,/+VAUX_F*
X82350000Y-53240000D03*
G04 #@! TD*
D15*
G04 #@! TO.P,C8,1*
G04 #@! TO.N,/+VBAT*
X50450000Y-55590000D03*
G04 #@! TO.P,C8,2*
G04 #@! TO.N,GND*
X50450000Y-53690000D03*
G04 #@! TD*
D11*
G04 #@! TO.P,C3,2*
G04 #@! TO.N,GND*
X42210000Y-58940000D03*
G04 #@! TO.P,C3,1*
G04 #@! TO.N,/+VBAT*
X40310000Y-58940000D03*
G04 #@! TD*
D16*
G04 #@! TO.P,C4,2*
G04 #@! TO.N,GND*
X73607516Y-58212111D03*
G04 #@! TO.P,C4,1*
G04 #@! TO.N,/+5V*
X73607516Y-55712111D03*
G04 #@! TD*
D17*
G04 #@! TO.P,Y1,2*
G04 #@! TO.N,Net-(C11-Pad1)*
X53850000Y-51940000D03*
G04 #@! TO.P,Y1,1*
G04 #@! TO.N,Net-(C10-Pad1)*
X53850000Y-53840000D03*
G04 #@! TD*
D18*
G04 #@! TO.P,L1,2*
G04 #@! TO.N,Net-(L1-Pad2)*
X66107516Y-58049611D03*
G04 #@! TO.P,L1,1*
G04 #@! TO.N,/+VAUX*
X66107516Y-55474611D03*
G04 #@! TD*
D19*
G04 #@! TO.P,R6,2*
G04 #@! TO.N,/SCL*
X48940000Y-53670000D03*
G04 #@! TO.P,R6,1*
G04 #@! TO.N,/+VBAT*
X48940000Y-54570000D03*
G04 #@! TD*
G04 #@! TO.P,R7,2*
G04 #@! TO.N,/+VBAT*
X47940000Y-54570000D03*
G04 #@! TO.P,R7,1*
G04 #@! TO.N,/SDA*
X47940000Y-53670000D03*
G04 #@! TD*
D20*
G04 #@! TO.P,R2,1*
G04 #@! TO.N,Net-(C18-Pad1)*
X33440000Y-53280000D03*
G04 #@! TO.P,R2,2*
G04 #@! TO.N,/+VBAT*
X33440000Y-55480000D03*
G04 #@! TD*
D21*
G04 #@! TO.P,J1,1*
G04 #@! TO.N,Net-(J1-Pad1)*
X52250000Y-57840000D03*
G04 #@! TD*
D22*
G04 #@! TO.P,J2,1*
G04 #@! TO.N,Net-(J2-Pad1)*
X29000000Y-51900000D03*
D23*
G04 #@! TO.P,J2,2*
G04 #@! TO.N,GND*
X30270000Y-51900000D03*
G04 #@! TD*
G04 #@! TO.P,D1,2*
G04 #@! TO.N,/+5V*
X75630000Y-57840000D03*
D22*
G04 #@! TO.P,D1,1*
G04 #@! TO.N,Net-(D1-Pad1)*
X76900000Y-57840000D03*
G04 #@! TD*
D23*
G04 #@! TO.P,J3,3*
G04 #@! TO.N,GND*
X32140000Y-58300000D03*
G04 #@! TO.P,J3,2*
G04 #@! TO.N,Net-(J3-Pad2)*
X30870000Y-58300000D03*
D22*
G04 #@! TO.P,J3,1*
G04 #@! TO.N,Net-(J3-Pad1)*
X29600000Y-58300000D03*
G04 #@! TD*
D23*
G04 #@! TO.P,J4,4*
G04 #@! TO.N,GND*
X55580000Y-58110000D03*
G04 #@! TO.P,J4,3*
G04 #@! TO.N,/SBWTCK*
X56850000Y-58110000D03*
G04 #@! TO.P,J4,2*
G04 #@! TO.N,/SBWTDIO*
X55580000Y-56840000D03*
D22*
G04 #@! TO.P,J4,1*
G04 #@! TO.N,/+VBAT*
X56850000Y-56840000D03*
G04 #@! TD*
D24*
G04 #@! TO.P,U1,5*
G04 #@! TO.N,Net-(U1-Pad5)*
X71457516Y-57812111D03*
G04 #@! TO.P,U1,4*
G04 #@! TO.N,/+5V*
X71457516Y-55912111D03*
G04 #@! TO.P,U1,3*
G04 #@! TO.N,Net-(U1-Pad3)*
X68757516Y-55912111D03*
G04 #@! TO.P,U1,2*
G04 #@! TO.N,GND*
X68757516Y-56862111D03*
G04 #@! TO.P,U1,1*
G04 #@! TO.N,Net-(L1-Pad2)*
X68757516Y-57812111D03*
G04 #@! TD*
D25*
G04 #@! TO.P,U2,1*
G04 #@! TO.N,/SCL*
X82500000Y-57840000D03*
G04 #@! TO.P,U2,2*
G04 #@! TO.N,Net-(R5-Pad1)*
X82000000Y-57840000D03*
G04 #@! TO.P,U2,3*
G04 #@! TO.N,Net-(U2-Pad3)*
X81500000Y-57840000D03*
G04 #@! TO.P,U2,4*
G04 #@! TO.N,/SDA*
X81000000Y-57840000D03*
D26*
G04 #@! TO.P,U2,5*
G04 #@! TO.N,GND*
X80950000Y-57290000D03*
G04 #@! TO.P,U2,6*
X80950000Y-56790000D03*
D25*
G04 #@! TO.P,U2,7*
X81000000Y-56240000D03*
G04 #@! TO.P,U2,8*
X81500000Y-56240000D03*
G04 #@! TO.P,U2,9*
G04 #@! TO.N,/+VAUX_F*
X82000000Y-56240000D03*
G04 #@! TO.P,U2,10*
X82500000Y-56240000D03*
D26*
G04 #@! TO.P,U2,11*
G04 #@! TO.N,Net-(U2-Pad11)*
X82550000Y-56790000D03*
G04 #@! TO.P,U2,12*
G04 #@! TO.N,Net-(U2-Pad12)*
X82550000Y-57290000D03*
G04 #@! TD*
D27*
G04 #@! TO.N,/+VBAT*
X56297598Y-55279598D03*
D28*
X49477623Y-54961902D03*
X53360000Y-55270000D03*
D27*
G04 #@! TO.N,GND*
X52450000Y-54590000D03*
X59250000Y-58390000D03*
X45860000Y-54640000D03*
X45860000Y-55540000D03*
X63807516Y-57712111D03*
X73607516Y-58212111D03*
X76400000Y-53240000D03*
X45160000Y-53540000D03*
X63153115Y-54036885D03*
X64150000Y-51690000D03*
X80250000Y-52840000D03*
D28*
X40430000Y-56410000D03*
X35320000Y-54610000D03*
X44730000Y-58700000D03*
X41405302Y-58950000D03*
X68757516Y-56862111D03*
X63153115Y-55690000D03*
X79420000Y-59030000D03*
X82750000Y-52369698D03*
X49931780Y-54212461D03*
X52041157Y-55100690D03*
D27*
X55450000Y-54619188D03*
D28*
X55450000Y-52890000D03*
X51520000Y-51700000D03*
D27*
G04 #@! TO.N,/SCL*
X72750000Y-51694009D03*
X82750000Y-51590000D03*
D28*
X50369154Y-51850000D03*
X48810000Y-52700000D03*
D27*
G04 #@! TO.N,/SDA*
X46792099Y-51831894D03*
X74400000Y-51290000D03*
D28*
X48180000Y-51980000D03*
D27*
G04 #@! TO.N,Net-(R8-Pad2)*
X66900000Y-51090000D03*
X45084375Y-51309200D03*
D28*
G04 #@! TO.N,/BOOT_EN*
X41690000Y-52840000D03*
X37240000Y-55410000D03*
D27*
G04 #@! TO.N,/LED_EN*
X57200000Y-55140000D03*
D28*
X41761711Y-53764462D03*
X42280000Y-56540000D03*
X50841018Y-56915110D03*
D27*
G04 #@! TO.N,Net-(C14-Pad2)*
X42008961Y-55450994D03*
D28*
G04 #@! TO.N,/+VAUX*
X64730000Y-53970000D03*
X66130000Y-55860000D03*
D27*
G04 #@! TO.N,Net-(R5-Pad1)*
X81750000Y-57090000D03*
G04 #@! TO.N,/+5V*
X73607516Y-55712111D03*
D28*
G04 #@! TO.N,Net-(C18-Pad1)*
X32280000Y-53950000D03*
D27*
G04 #@! TO.N,/+VAUX_F*
X82350000Y-53240000D03*
D28*
X78120000Y-55260000D03*
G04 #@! TO.N,Net-(C21-Pad1)*
X38705518Y-52890119D03*
G04 #@! TD*
D29*
G04 #@! TO.N,/+VBAT*
X47940000Y-54570000D02*
X48940000Y-54570000D01*
X48940000Y-54570000D02*
X49040000Y-54570000D01*
D30*
X56850000Y-55832000D02*
X56297598Y-55279598D01*
X56850000Y-56840000D02*
X56850000Y-55832000D01*
D31*
X48860000Y-57880000D02*
X48860000Y-56420000D01*
D30*
X33500000Y-55500000D02*
X33500000Y-55650000D01*
X33440000Y-55480000D02*
X35870000Y-55480000D01*
X35870000Y-55480000D02*
X38290000Y-57900000D01*
X40310000Y-58940000D02*
X40310000Y-57900000D01*
X38290000Y-57900000D02*
X40310000Y-57900000D01*
X48635000Y-57880000D02*
X48860000Y-57880000D01*
X45814010Y-57900000D02*
X45953599Y-58039589D01*
X40310000Y-57900000D02*
X45814010Y-57900000D01*
X45953599Y-58580121D02*
X46034879Y-58661401D01*
X45953599Y-58039589D02*
X45953599Y-58580121D01*
X46034879Y-58661401D02*
X47853599Y-58661401D01*
X47853599Y-58661401D02*
X48635000Y-57880000D01*
D31*
X48860000Y-55283000D02*
X49181098Y-54961902D01*
D29*
X49134724Y-54619003D02*
X49477623Y-54961902D01*
X49085721Y-54570000D02*
X49134724Y-54619003D01*
X48940000Y-54570000D02*
X49085721Y-54570000D01*
D31*
X49181098Y-54961902D02*
X49477623Y-54961902D01*
X48860000Y-56420000D02*
X48860000Y-55283000D01*
X49167000Y-55590000D02*
X50450000Y-55590000D01*
X48860000Y-55283000D02*
X49167000Y-55590000D01*
D30*
X50450000Y-55590000D02*
X50980000Y-55590000D01*
X50980000Y-55590000D02*
X51240000Y-55850000D01*
X51240000Y-55850000D02*
X52780000Y-55850000D01*
X52780000Y-55850000D02*
X53360000Y-55270000D01*
D29*
G04 #@! TO.N,GND*
X51350000Y-54590000D02*
X50450000Y-53690000D01*
X52450000Y-54590000D02*
X51350000Y-54590000D01*
X58750599Y-58889401D02*
X59250000Y-58390000D01*
X56359401Y-58889401D02*
X58750599Y-58889401D01*
X55580000Y-58110000D02*
X56359401Y-58889401D01*
X47139000Y-54640000D02*
X45860000Y-54640000D01*
X50450000Y-53690000D02*
X50450000Y-53915000D01*
X45860000Y-54640000D02*
X45860000Y-55540000D01*
X39885729Y-56500000D02*
X39854053Y-56531676D01*
X39054053Y-56531676D02*
X39854053Y-56531676D01*
X39035729Y-56550000D02*
X39054053Y-56531676D01*
X38220000Y-56550000D02*
X39035729Y-56550000D01*
X67723516Y-56862111D02*
X68757516Y-56862111D01*
X64436917Y-56857710D02*
X67719115Y-56857710D01*
X67719115Y-56857710D02*
X67723516Y-56862111D01*
X63807516Y-57487111D02*
X64436917Y-56857710D01*
X63807516Y-57712111D02*
X63807516Y-57487111D01*
D30*
X54593599Y-59096401D02*
X55080001Y-58609999D01*
X55080001Y-58609999D02*
X55580000Y-58110000D01*
X63129627Y-58390000D02*
X63807516Y-57712111D01*
X59250000Y-58390000D02*
X63129627Y-58390000D01*
D29*
X81300000Y-56040000D02*
X81500000Y-56240000D01*
X81300000Y-54940000D02*
X81300000Y-56040000D01*
X81300000Y-55940000D02*
X81000000Y-56240000D01*
X81300000Y-54940000D02*
X81300000Y-55940000D01*
X80950000Y-56290000D02*
X81000000Y-56240000D01*
X80950000Y-56790000D02*
X80950000Y-56290000D01*
X80950000Y-57290000D02*
X80950000Y-56790000D01*
X81300000Y-54940000D02*
X81300000Y-54140000D01*
X81300000Y-54090000D02*
X80450000Y-53240000D01*
X81300000Y-54140000D02*
X81300000Y-54090000D01*
X63807516Y-57487111D02*
X63153115Y-56832710D01*
X63153115Y-54036885D02*
X63950000Y-53240000D01*
X63950000Y-53240000D02*
X76400000Y-53240000D01*
X76400000Y-53240000D02*
X80450000Y-53240000D01*
X45860000Y-54640000D02*
X45860000Y-54240000D01*
X45860000Y-54240000D02*
X45160000Y-53540000D01*
D32*
X63153115Y-52686885D02*
X64150000Y-51690000D01*
X63153115Y-54036885D02*
X63153115Y-52686885D01*
D29*
X80250000Y-53040000D02*
X80450000Y-53240000D01*
X80250000Y-52840000D02*
X80250000Y-53040000D01*
X39975729Y-56410000D02*
X39854053Y-56531676D01*
X40430000Y-56410000D02*
X39975729Y-56410000D01*
X47533589Y-52466411D02*
X45860000Y-54140000D01*
X50450000Y-53690000D02*
X49821000Y-53690000D01*
X49512302Y-52391294D02*
X48478706Y-51357698D01*
X47533589Y-51745403D02*
X47533589Y-52466411D01*
X45860000Y-54140000D02*
X45860000Y-54640000D01*
X47921294Y-51357698D02*
X47533589Y-51745403D01*
X48478706Y-51357698D02*
X47921294Y-51357698D01*
X49512302Y-53381302D02*
X49512302Y-52391294D01*
X49821000Y-53690000D02*
X49512302Y-53381302D01*
D32*
X37610000Y-53870000D02*
X36060000Y-53870000D01*
X36060000Y-53870000D02*
X35320000Y-54610000D01*
D30*
X46960000Y-57880000D02*
X46960000Y-56420000D01*
X46740000Y-56420000D02*
X45860000Y-55540000D01*
X46960000Y-56420000D02*
X46740000Y-56420000D01*
X54593599Y-59096401D02*
X48433599Y-59096401D01*
X45139516Y-58700000D02*
X44730000Y-58700000D01*
X45761328Y-59321812D02*
X45139516Y-58700000D01*
X48158672Y-59321812D02*
X45761328Y-59321812D01*
X48408841Y-59071643D02*
X48158672Y-59321812D01*
X48433599Y-59096401D02*
X48408841Y-59071643D01*
X44490000Y-58940000D02*
X44730000Y-58700000D01*
D29*
X40430000Y-56410000D02*
X41182302Y-57162302D01*
X41182302Y-57162302D02*
X42827698Y-57162302D01*
X45860000Y-55140000D02*
X45860000Y-54640000D01*
X42827698Y-57162302D02*
X44850000Y-55140000D01*
D30*
X42210000Y-58940000D02*
X41415302Y-58940000D01*
X41415302Y-58940000D02*
X41405302Y-58950000D01*
X33882001Y-51400001D02*
X36352000Y-53870000D01*
X36352000Y-53870000D02*
X37610000Y-53870000D01*
X30769999Y-51400001D02*
X33882001Y-51400001D01*
X30270000Y-51900000D02*
X30769999Y-51400001D01*
D29*
X63153115Y-56832710D02*
X63153115Y-55690000D01*
X63153115Y-55690000D02*
X63153115Y-54036885D01*
X75304405Y-59030000D02*
X79420000Y-59030000D01*
X73607516Y-58212111D02*
X74486516Y-58212111D01*
X74486516Y-58212111D02*
X75304405Y-59030000D01*
X80503999Y-52586001D02*
X80250000Y-52840000D01*
X80720302Y-52369698D02*
X80503999Y-52586001D01*
X82750000Y-52369698D02*
X80720302Y-52369698D01*
D30*
X45360000Y-55140000D02*
X45860000Y-54640000D01*
X44850000Y-55140000D02*
X45360000Y-55140000D01*
X43420000Y-58700000D02*
X44730000Y-58700000D01*
X43180000Y-58940000D02*
X43420000Y-58700000D01*
X42210000Y-58940000D02*
X43180000Y-58940000D01*
X43180000Y-58940000D02*
X43480000Y-58940000D01*
D29*
X50274679Y-53869562D02*
X49931780Y-54212461D01*
X50450000Y-53694241D02*
X50274679Y-53869562D01*
X50450000Y-53690000D02*
X50450000Y-53694241D01*
X51152928Y-54212461D02*
X51698258Y-54757791D01*
X51698258Y-54757791D02*
X52041157Y-55100690D01*
X49931780Y-54212461D02*
X51152928Y-54212461D01*
X54800599Y-57330599D02*
X54800599Y-55268589D01*
X55196001Y-54873187D02*
X55450000Y-54619188D01*
X54800599Y-55268589D02*
X55196001Y-54873187D01*
X55580000Y-58110000D02*
X54800599Y-57330599D01*
D32*
X50450000Y-53465000D02*
X50450000Y-53690000D01*
X51862899Y-52052101D02*
X50450000Y-53465000D01*
X51862899Y-52042899D02*
X51862899Y-52052101D01*
X51520000Y-51700000D02*
X51862899Y-52042899D01*
D29*
G04 #@! TO.N,/SCL*
X48940000Y-53670000D02*
X48940000Y-52830000D01*
X48940000Y-52830000D02*
X48810000Y-52700000D01*
X83550000Y-57194000D02*
X83550000Y-52128692D01*
X82500000Y-57840000D02*
X82904000Y-57840000D01*
X82904000Y-57840000D02*
X83550000Y-57194000D01*
X83011308Y-51590000D02*
X82750000Y-51590000D01*
X83550000Y-52128692D02*
X83011308Y-51590000D01*
D32*
X72416596Y-52027413D02*
X72496001Y-51948008D01*
X64632602Y-51817921D02*
X64842094Y-52027413D01*
X50369154Y-51850000D02*
X51090655Y-51128499D01*
X72496001Y-51948008D02*
X72750000Y-51694009D01*
X64842094Y-52027413D02*
X72416596Y-52027413D01*
X51873220Y-51207398D02*
X64381650Y-51207398D01*
X64632602Y-51458350D02*
X64632602Y-51817921D01*
X64381650Y-51207398D02*
X64632602Y-51458350D01*
X51794321Y-51128499D02*
X51873220Y-51207398D01*
X51090655Y-51128499D02*
X51794321Y-51128499D01*
D29*
G04 #@! TO.N,/SDA*
X46660000Y-51963993D02*
X46792099Y-51831894D01*
D32*
X66168251Y-51036001D02*
X66250000Y-51036001D01*
X68568249Y-51036001D02*
X74146001Y-51036001D01*
X74146001Y-51036001D02*
X74400000Y-51290000D01*
X68031649Y-51572601D02*
X68568249Y-51036001D01*
X66668351Y-51572601D02*
X68031649Y-51572601D01*
X66250000Y-51154250D02*
X66668351Y-51572601D01*
X66250000Y-51036001D02*
X66250000Y-51154250D01*
D29*
X47940000Y-52220000D02*
X48180000Y-51980000D01*
X47940000Y-53670000D02*
X47940000Y-52220000D01*
X81025401Y-58319401D02*
X81000000Y-58294000D01*
X74400000Y-51290000D02*
X74653999Y-51036001D01*
X84000000Y-58090000D02*
X83770599Y-58319401D01*
X74653999Y-51036001D02*
X83032060Y-51036001D01*
X81000000Y-58294000D02*
X81000000Y-57840000D01*
X84000000Y-52003941D02*
X84000000Y-58090000D01*
X83032060Y-51036001D02*
X84000000Y-52003941D01*
X83770599Y-58319401D02*
X81025401Y-58319401D01*
D32*
X51920577Y-50823688D02*
X51999476Y-50902587D01*
X47800305Y-50823688D02*
X51920577Y-50823688D01*
X46792099Y-51831894D02*
X47800305Y-50823688D01*
X66116586Y-50902587D02*
X66250000Y-51036001D01*
X51999476Y-50902587D02*
X66116586Y-50902587D01*
G04 #@! TO.N,Net-(R8-Pad2)*
X66284790Y-50474790D02*
X66900000Y-51090000D01*
X47615210Y-50474790D02*
X47680000Y-50474790D01*
X47680000Y-50474790D02*
X66284790Y-50474790D01*
X47680000Y-50474790D02*
X46845590Y-51309200D01*
X45443585Y-51309200D02*
X45084375Y-51309200D01*
X46845590Y-51309200D02*
X45443585Y-51309200D01*
D29*
G04 #@! TO.N,/BOOT_EN*
X37582899Y-55067101D02*
X37240000Y-55410000D01*
X37797725Y-54852275D02*
X37582899Y-55067101D01*
X41005647Y-54852275D02*
X37797725Y-54852275D01*
X41139401Y-54718521D02*
X41005647Y-54852275D01*
X41139401Y-53390599D02*
X41139401Y-54718521D01*
X41690000Y-52840000D02*
X41139401Y-53390599D01*
G04 #@! TO.N,/LED_EN*
X41761711Y-53764462D02*
X42610000Y-54612751D01*
X42610000Y-54612751D02*
X42610000Y-56210000D01*
X42610000Y-56210000D02*
X42280000Y-56540000D01*
D32*
X55218351Y-54136587D02*
X56196587Y-54136587D01*
X52903537Y-56572211D02*
X54967399Y-54508349D01*
X54967399Y-54508349D02*
X54967399Y-54387539D01*
X56196587Y-54136587D02*
X56946001Y-54886001D01*
X50841018Y-56915110D02*
X51183917Y-56572211D01*
X54967399Y-54387539D02*
X55218351Y-54136587D01*
X56946001Y-54886001D02*
X57200000Y-55140000D01*
X51183917Y-56572211D02*
X52903537Y-56572211D01*
D29*
G04 #@! TO.N,Net-(C14-Pad2)*
X39035729Y-55450000D02*
X39054053Y-55431676D01*
X38220000Y-55450000D02*
X39035729Y-55450000D01*
X39054053Y-55431676D02*
X39854053Y-55431676D01*
X39854053Y-55431676D02*
X41989643Y-55431676D01*
X41989643Y-55431676D02*
X42008961Y-55450994D01*
D30*
G04 #@! TO.N,/+VAUX*
X64730000Y-54097095D02*
X66107516Y-55474611D01*
X64730000Y-53970000D02*
X64730000Y-54097095D01*
X66295016Y-55474611D02*
X66107516Y-55474611D01*
X67715516Y-54054111D02*
X66295016Y-55474611D01*
X74564111Y-54054111D02*
X67715516Y-54054111D01*
X75770000Y-55260000D02*
X74564111Y-54054111D01*
X75920000Y-55260000D02*
X75770000Y-55260000D01*
D29*
G04 #@! TO.N,Net-(R5-Pad1)*
X82000000Y-57340000D02*
X82000000Y-57840000D01*
X81750000Y-57090000D02*
X82000000Y-57340000D01*
D30*
G04 #@! TO.N,/+5V*
X71657516Y-55712111D02*
X71457516Y-55912111D01*
X73607516Y-55712111D02*
X71657516Y-55712111D01*
G04 #@! TO.N,Net-(L1-Pad2)*
X66345016Y-57812111D02*
X66107516Y-58049611D01*
X68757516Y-57812111D02*
X66345016Y-57812111D01*
D31*
G04 #@! TO.N,Net-(C18-Pad1)*
X32770000Y-53950000D02*
X33440000Y-53280000D01*
X32280000Y-53950000D02*
X32770000Y-53950000D01*
D29*
G04 #@! TO.N,/+VAUX_F*
X82400000Y-56140000D02*
X82500000Y-56240000D01*
X82400000Y-54940000D02*
X82400000Y-56140000D01*
X82000000Y-55340000D02*
X82400000Y-54940000D01*
X82000000Y-56240000D02*
X82000000Y-55340000D01*
X82350000Y-54090000D02*
X82400000Y-54140000D01*
X82350000Y-53240000D02*
X82350000Y-54090000D01*
X82400000Y-54140000D02*
X82400000Y-54940000D01*
D32*
G04 #@! TO.N,Net-(C21-Pad1)*
X39685399Y-53870000D02*
X40110000Y-53870000D01*
X38705518Y-52890119D02*
X39685399Y-53870000D01*
G04 #@! TD*
D29*
G04 #@! TO.N,GND*
G36*
X73646342Y-51793578D02*
X73896422Y-52043658D01*
X74223167Y-52179000D01*
X74576833Y-52179000D01*
X74903578Y-52043658D01*
X75149235Y-51798001D01*
X81873910Y-51798001D01*
X81996342Y-52093578D01*
X82120324Y-52217560D01*
X81750000Y-52217560D01*
X81502235Y-52266843D01*
X81410898Y-52327873D01*
X81409698Y-52326673D01*
X81176309Y-52230000D01*
X80735750Y-52230000D01*
X80577000Y-52388750D01*
X80577000Y-53113000D01*
X80597000Y-53113000D01*
X80597000Y-53367000D01*
X80577000Y-53367000D01*
X80577000Y-53414975D01*
X80461673Y-53530301D01*
X80365000Y-53763690D01*
X80365000Y-53856250D01*
X80523750Y-54015000D01*
X80577000Y-54015000D01*
X80577000Y-54091250D01*
X80638862Y-54153112D01*
X80526974Y-54265000D01*
X80523750Y-54265000D01*
X80365000Y-54423750D01*
X80365000Y-54516310D01*
X80374813Y-54540000D01*
X80365000Y-54563690D01*
X80365000Y-54656250D01*
X80523750Y-54815000D01*
X80526974Y-54815000D01*
X80640302Y-54928327D01*
X80873691Y-55025000D01*
X81014250Y-55025000D01*
X81172998Y-54866252D01*
X81172998Y-55025000D01*
X81294028Y-55025000D01*
X81282213Y-55042683D01*
X81273398Y-55087000D01*
X81173000Y-55087000D01*
X81173000Y-55065000D01*
X80523750Y-55065000D01*
X80365000Y-55223750D01*
X80365000Y-55316310D01*
X80455992Y-55535983D01*
X80311673Y-55680302D01*
X80215000Y-55913691D01*
X80215000Y-55981250D01*
X80362862Y-56129112D01*
X80211673Y-56280302D01*
X80115000Y-56513691D01*
X80115000Y-56556250D01*
X80273750Y-56715000D01*
X80276590Y-56715000D01*
X80276703Y-56715272D01*
X80211673Y-56780302D01*
X80115000Y-57013691D01*
X80115000Y-57066309D01*
X80211673Y-57299698D01*
X80272818Y-57360844D01*
X80262572Y-57376178D01*
X80115000Y-57523750D01*
X80115000Y-57566309D01*
X80202560Y-57777697D01*
X80202560Y-58040000D01*
X80238000Y-58218171D01*
X80238000Y-58218957D01*
X80223073Y-58294000D01*
X80238000Y-58369043D01*
X80238000Y-58369047D01*
X80282212Y-58591316D01*
X80450629Y-58843371D01*
X80465856Y-58853545D01*
X80476030Y-58868772D01*
X80728084Y-59037189D01*
X80950353Y-59081401D01*
X80950357Y-59081401D01*
X81025400Y-59096328D01*
X81100443Y-59081401D01*
X83695556Y-59081401D01*
X83770599Y-59096328D01*
X83845642Y-59081401D01*
X83845647Y-59081401D01*
X84067916Y-59037189D01*
X84288801Y-58889599D01*
X84288801Y-59288800D01*
X74784516Y-59288800D01*
X74867516Y-59088420D01*
X74867516Y-58695577D01*
X75187145Y-58909146D01*
X75518217Y-58975000D01*
X75741783Y-58975000D01*
X76072855Y-58909146D01*
X76090836Y-58897131D01*
X76152235Y-58938157D01*
X76400000Y-58987440D01*
X77400000Y-58987440D01*
X77647765Y-58938157D01*
X77857809Y-58797809D01*
X77998157Y-58587765D01*
X78047440Y-58340000D01*
X78047440Y-57340000D01*
X77998157Y-57092235D01*
X77857809Y-56882191D01*
X77647765Y-56741843D01*
X77400000Y-56692560D01*
X76400000Y-56692560D01*
X76152235Y-56741843D01*
X76090836Y-56782869D01*
X76072855Y-56770854D01*
X75741783Y-56705000D01*
X75518217Y-56705000D01*
X75187145Y-56770854D01*
X74811711Y-57021711D01*
X74763017Y-57094587D01*
X74629196Y-56960765D01*
X74690325Y-56919920D01*
X74830673Y-56709876D01*
X74879956Y-56462111D01*
X74879956Y-56179679D01*
X75072235Y-56308157D01*
X75320000Y-56357440D01*
X76520000Y-56357440D01*
X76767765Y-56308157D01*
X76977809Y-56167809D01*
X77020000Y-56104666D01*
X77062191Y-56167809D01*
X77272235Y-56308157D01*
X77520000Y-56357440D01*
X78720000Y-56357440D01*
X78967765Y-56308157D01*
X79177809Y-56167809D01*
X79318157Y-55957765D01*
X79367440Y-55710000D01*
X79367440Y-54810000D01*
X79318157Y-54562235D01*
X79177809Y-54352191D01*
X78967765Y-54211843D01*
X78720000Y-54162560D01*
X77520000Y-54162560D01*
X77272235Y-54211843D01*
X77062191Y-54352191D01*
X77020000Y-54415334D01*
X76977809Y-54352191D01*
X76767765Y-54211843D01*
X76520000Y-54162560D01*
X75929796Y-54162560D01*
X75292986Y-53525750D01*
X79215000Y-53525750D01*
X79215000Y-53741310D01*
X79311673Y-53974699D01*
X79490302Y-54153327D01*
X79723691Y-54250000D01*
X80164250Y-54250000D01*
X80323000Y-54091250D01*
X80323000Y-53367000D01*
X79373750Y-53367000D01*
X79215000Y-53525750D01*
X75292986Y-53525750D01*
X75254642Y-53487407D01*
X75205044Y-53413178D01*
X74910981Y-53216692D01*
X74651667Y-53165111D01*
X74651666Y-53165111D01*
X74564111Y-53147695D01*
X74476556Y-53165111D01*
X67803066Y-53165111D01*
X67715515Y-53147696D01*
X67627964Y-53165111D01*
X67627960Y-53165111D01*
X67368646Y-53216692D01*
X67074583Y-53413178D01*
X67024987Y-53487404D01*
X66597720Y-53914671D01*
X65804811Y-53914671D01*
X65707900Y-53817760D01*
X65707900Y-53775484D01*
X65559023Y-53416064D01*
X65283936Y-53140977D01*
X64924516Y-52992100D01*
X64535484Y-52992100D01*
X64176064Y-53140977D01*
X63900977Y-53416064D01*
X63752100Y-53775484D01*
X63752100Y-54164516D01*
X63900977Y-54523936D01*
X64036708Y-54659667D01*
X64089067Y-54738028D01*
X64163295Y-54787626D01*
X64360076Y-54984406D01*
X64360076Y-56387111D01*
X64409359Y-56634876D01*
X64494375Y-56762111D01*
X64409359Y-56889346D01*
X64360076Y-57137111D01*
X64360076Y-58962111D01*
X64409359Y-59209876D01*
X64462095Y-59288800D01*
X53344532Y-59288800D01*
X53347765Y-59288157D01*
X53557809Y-59147809D01*
X53698157Y-58937765D01*
X53747440Y-58690000D01*
X53747440Y-58411874D01*
X54485881Y-58411874D01*
X54592873Y-58670209D01*
X54882396Y-59005323D01*
X55278123Y-59204132D01*
X55453000Y-59079135D01*
X55453000Y-58237000D01*
X54612046Y-58237000D01*
X54485881Y-58411874D01*
X53747440Y-58411874D01*
X53747440Y-56990000D01*
X53704983Y-56776553D01*
X55420768Y-55060769D01*
X55427993Y-55055941D01*
X55408598Y-55102765D01*
X55408598Y-55192043D01*
X55391182Y-55279598D01*
X55408598Y-55367153D01*
X55408598Y-55456431D01*
X55442765Y-55538917D01*
X55460180Y-55626468D01*
X55509773Y-55700690D01*
X55511558Y-55705000D01*
X55468217Y-55705000D01*
X55137145Y-55770854D01*
X54761711Y-56021711D01*
X54510854Y-56397145D01*
X54422765Y-56840000D01*
X54510854Y-57282855D01*
X54647199Y-57486910D01*
X54592873Y-57549791D01*
X54485881Y-57808126D01*
X54612046Y-57983000D01*
X55453000Y-57983000D01*
X55453000Y-57971973D01*
X55468217Y-57975000D01*
X55691783Y-57975000D01*
X55707000Y-57971973D01*
X55707000Y-57983000D01*
X55718027Y-57983000D01*
X55692765Y-58110000D01*
X55718027Y-58237000D01*
X55707000Y-58237000D01*
X55707000Y-59079135D01*
X55881877Y-59204132D01*
X56203053Y-59042776D01*
X56407145Y-59179146D01*
X56738217Y-59245000D01*
X56961783Y-59245000D01*
X57292855Y-59179146D01*
X57668289Y-58928289D01*
X57919146Y-58552855D01*
X58007235Y-58110000D01*
X57919146Y-57667145D01*
X57907131Y-57649164D01*
X57948157Y-57587765D01*
X57997440Y-57340000D01*
X57997440Y-56340000D01*
X57948157Y-56092235D01*
X57807809Y-55882191D01*
X57753632Y-55845991D01*
X57754224Y-55843012D01*
X57953658Y-55643578D01*
X58089000Y-55316833D01*
X58089000Y-54963167D01*
X57953658Y-54636422D01*
X57703578Y-54386342D01*
X57376833Y-54251000D01*
X57316789Y-54251000D01*
X56749011Y-53683223D01*
X56709333Y-53623841D01*
X56474083Y-53466651D01*
X56266633Y-53425387D01*
X56266628Y-53425387D01*
X56196587Y-53411455D01*
X56126546Y-53425387D01*
X55288393Y-53425387D01*
X55218351Y-53411455D01*
X55148310Y-53425387D01*
X55148305Y-53425387D01*
X54940855Y-53466651D01*
X54927551Y-53475540D01*
X54812207Y-53197074D01*
X54505133Y-52890000D01*
X54812207Y-52582926D01*
X54985000Y-52165766D01*
X54985000Y-51918598D01*
X63927495Y-51918598D01*
X63962666Y-52095417D01*
X64015519Y-52174516D01*
X64080178Y-52271285D01*
X64080180Y-52271287D01*
X64119857Y-52330667D01*
X64179236Y-52370343D01*
X64289670Y-52480777D01*
X64329348Y-52540159D01*
X64564598Y-52697349D01*
X64772048Y-52738613D01*
X64772052Y-52738613D01*
X64842093Y-52752545D01*
X64912135Y-52738613D01*
X72346555Y-52738613D01*
X72416596Y-52752545D01*
X72486249Y-52738690D01*
X79215000Y-52738690D01*
X79215000Y-52954250D01*
X79373750Y-53113000D01*
X80323000Y-53113000D01*
X80323000Y-52388750D01*
X80164250Y-52230000D01*
X79723691Y-52230000D01*
X79490302Y-52326673D01*
X79311673Y-52505301D01*
X79215000Y-52738690D01*
X72486249Y-52738690D01*
X72486637Y-52738613D01*
X72486642Y-52738613D01*
X72694092Y-52697349D01*
X72865213Y-52583009D01*
X72926833Y-52583009D01*
X73253578Y-52447667D01*
X73503658Y-52197587D01*
X73639000Y-51870842D01*
X73639000Y-51775853D01*
X73646342Y-51793578D01*
X73646342Y-51793578D01*
G37*
X73646342Y-51793578D02*
X73896422Y-52043658D01*
X74223167Y-52179000D01*
X74576833Y-52179000D01*
X74903578Y-52043658D01*
X75149235Y-51798001D01*
X81873910Y-51798001D01*
X81996342Y-52093578D01*
X82120324Y-52217560D01*
X81750000Y-52217560D01*
X81502235Y-52266843D01*
X81410898Y-52327873D01*
X81409698Y-52326673D01*
X81176309Y-52230000D01*
X80735750Y-52230000D01*
X80577000Y-52388750D01*
X80577000Y-53113000D01*
X80597000Y-53113000D01*
X80597000Y-53367000D01*
X80577000Y-53367000D01*
X80577000Y-53414975D01*
X80461673Y-53530301D01*
X80365000Y-53763690D01*
X80365000Y-53856250D01*
X80523750Y-54015000D01*
X80577000Y-54015000D01*
X80577000Y-54091250D01*
X80638862Y-54153112D01*
X80526974Y-54265000D01*
X80523750Y-54265000D01*
X80365000Y-54423750D01*
X80365000Y-54516310D01*
X80374813Y-54540000D01*
X80365000Y-54563690D01*
X80365000Y-54656250D01*
X80523750Y-54815000D01*
X80526974Y-54815000D01*
X80640302Y-54928327D01*
X80873691Y-55025000D01*
X81014250Y-55025000D01*
X81172998Y-54866252D01*
X81172998Y-55025000D01*
X81294028Y-55025000D01*
X81282213Y-55042683D01*
X81273398Y-55087000D01*
X81173000Y-55087000D01*
X81173000Y-55065000D01*
X80523750Y-55065000D01*
X80365000Y-55223750D01*
X80365000Y-55316310D01*
X80455992Y-55535983D01*
X80311673Y-55680302D01*
X80215000Y-55913691D01*
X80215000Y-55981250D01*
X80362862Y-56129112D01*
X80211673Y-56280302D01*
X80115000Y-56513691D01*
X80115000Y-56556250D01*
X80273750Y-56715000D01*
X80276590Y-56715000D01*
X80276703Y-56715272D01*
X80211673Y-56780302D01*
X80115000Y-57013691D01*
X80115000Y-57066309D01*
X80211673Y-57299698D01*
X80272818Y-57360844D01*
X80262572Y-57376178D01*
X80115000Y-57523750D01*
X80115000Y-57566309D01*
X80202560Y-57777697D01*
X80202560Y-58040000D01*
X80238000Y-58218171D01*
X80238000Y-58218957D01*
X80223073Y-58294000D01*
X80238000Y-58369043D01*
X80238000Y-58369047D01*
X80282212Y-58591316D01*
X80450629Y-58843371D01*
X80465856Y-58853545D01*
X80476030Y-58868772D01*
X80728084Y-59037189D01*
X80950353Y-59081401D01*
X80950357Y-59081401D01*
X81025400Y-59096328D01*
X81100443Y-59081401D01*
X83695556Y-59081401D01*
X83770599Y-59096328D01*
X83845642Y-59081401D01*
X83845647Y-59081401D01*
X84067916Y-59037189D01*
X84288801Y-58889599D01*
X84288801Y-59288800D01*
X74784516Y-59288800D01*
X74867516Y-59088420D01*
X74867516Y-58695577D01*
X75187145Y-58909146D01*
X75518217Y-58975000D01*
X75741783Y-58975000D01*
X76072855Y-58909146D01*
X76090836Y-58897131D01*
X76152235Y-58938157D01*
X76400000Y-58987440D01*
X77400000Y-58987440D01*
X77647765Y-58938157D01*
X77857809Y-58797809D01*
X77998157Y-58587765D01*
X78047440Y-58340000D01*
X78047440Y-57340000D01*
X77998157Y-57092235D01*
X77857809Y-56882191D01*
X77647765Y-56741843D01*
X77400000Y-56692560D01*
X76400000Y-56692560D01*
X76152235Y-56741843D01*
X76090836Y-56782869D01*
X76072855Y-56770854D01*
X75741783Y-56705000D01*
X75518217Y-56705000D01*
X75187145Y-56770854D01*
X74811711Y-57021711D01*
X74763017Y-57094587D01*
X74629196Y-56960765D01*
X74690325Y-56919920D01*
X74830673Y-56709876D01*
X74879956Y-56462111D01*
X74879956Y-56179679D01*
X75072235Y-56308157D01*
X75320000Y-56357440D01*
X76520000Y-56357440D01*
X76767765Y-56308157D01*
X76977809Y-56167809D01*
X77020000Y-56104666D01*
X77062191Y-56167809D01*
X77272235Y-56308157D01*
X77520000Y-56357440D01*
X78720000Y-56357440D01*
X78967765Y-56308157D01*
X79177809Y-56167809D01*
X79318157Y-55957765D01*
X79367440Y-55710000D01*
X79367440Y-54810000D01*
X79318157Y-54562235D01*
X79177809Y-54352191D01*
X78967765Y-54211843D01*
X78720000Y-54162560D01*
X77520000Y-54162560D01*
X77272235Y-54211843D01*
X77062191Y-54352191D01*
X77020000Y-54415334D01*
X76977809Y-54352191D01*
X76767765Y-54211843D01*
X76520000Y-54162560D01*
X75929796Y-54162560D01*
X75292986Y-53525750D01*
X79215000Y-53525750D01*
X79215000Y-53741310D01*
X79311673Y-53974699D01*
X79490302Y-54153327D01*
X79723691Y-54250000D01*
X80164250Y-54250000D01*
X80323000Y-54091250D01*
X80323000Y-53367000D01*
X79373750Y-53367000D01*
X79215000Y-53525750D01*
X75292986Y-53525750D01*
X75254642Y-53487407D01*
X75205044Y-53413178D01*
X74910981Y-53216692D01*
X74651667Y-53165111D01*
X74651666Y-53165111D01*
X74564111Y-53147695D01*
X74476556Y-53165111D01*
X67803066Y-53165111D01*
X67715515Y-53147696D01*
X67627964Y-53165111D01*
X67627960Y-53165111D01*
X67368646Y-53216692D01*
X67074583Y-53413178D01*
X67024987Y-53487404D01*
X66597720Y-53914671D01*
X65804811Y-53914671D01*
X65707900Y-53817760D01*
X65707900Y-53775484D01*
X65559023Y-53416064D01*
X65283936Y-53140977D01*
X64924516Y-52992100D01*
X64535484Y-52992100D01*
X64176064Y-53140977D01*
X63900977Y-53416064D01*
X63752100Y-53775484D01*
X63752100Y-54164516D01*
X63900977Y-54523936D01*
X64036708Y-54659667D01*
X64089067Y-54738028D01*
X64163295Y-54787626D01*
X64360076Y-54984406D01*
X64360076Y-56387111D01*
X64409359Y-56634876D01*
X64494375Y-56762111D01*
X64409359Y-56889346D01*
X64360076Y-57137111D01*
X64360076Y-58962111D01*
X64409359Y-59209876D01*
X64462095Y-59288800D01*
X53344532Y-59288800D01*
X53347765Y-59288157D01*
X53557809Y-59147809D01*
X53698157Y-58937765D01*
X53747440Y-58690000D01*
X53747440Y-58411874D01*
X54485881Y-58411874D01*
X54592873Y-58670209D01*
X54882396Y-59005323D01*
X55278123Y-59204132D01*
X55453000Y-59079135D01*
X55453000Y-58237000D01*
X54612046Y-58237000D01*
X54485881Y-58411874D01*
X53747440Y-58411874D01*
X53747440Y-56990000D01*
X53704983Y-56776553D01*
X55420768Y-55060769D01*
X55427993Y-55055941D01*
X55408598Y-55102765D01*
X55408598Y-55192043D01*
X55391182Y-55279598D01*
X55408598Y-55367153D01*
X55408598Y-55456431D01*
X55442765Y-55538917D01*
X55460180Y-55626468D01*
X55509773Y-55700690D01*
X55511558Y-55705000D01*
X55468217Y-55705000D01*
X55137145Y-55770854D01*
X54761711Y-56021711D01*
X54510854Y-56397145D01*
X54422765Y-56840000D01*
X54510854Y-57282855D01*
X54647199Y-57486910D01*
X54592873Y-57549791D01*
X54485881Y-57808126D01*
X54612046Y-57983000D01*
X55453000Y-57983000D01*
X55453000Y-57971973D01*
X55468217Y-57975000D01*
X55691783Y-57975000D01*
X55707000Y-57971973D01*
X55707000Y-57983000D01*
X55718027Y-57983000D01*
X55692765Y-58110000D01*
X55718027Y-58237000D01*
X55707000Y-58237000D01*
X55707000Y-59079135D01*
X55881877Y-59204132D01*
X56203053Y-59042776D01*
X56407145Y-59179146D01*
X56738217Y-59245000D01*
X56961783Y-59245000D01*
X57292855Y-59179146D01*
X57668289Y-58928289D01*
X57919146Y-58552855D01*
X58007235Y-58110000D01*
X57919146Y-57667145D01*
X57907131Y-57649164D01*
X57948157Y-57587765D01*
X57997440Y-57340000D01*
X57997440Y-56340000D01*
X57948157Y-56092235D01*
X57807809Y-55882191D01*
X57753632Y-55845991D01*
X57754224Y-55843012D01*
X57953658Y-55643578D01*
X58089000Y-55316833D01*
X58089000Y-54963167D01*
X57953658Y-54636422D01*
X57703578Y-54386342D01*
X57376833Y-54251000D01*
X57316789Y-54251000D01*
X56749011Y-53683223D01*
X56709333Y-53623841D01*
X56474083Y-53466651D01*
X56266633Y-53425387D01*
X56266628Y-53425387D01*
X56196587Y-53411455D01*
X56126546Y-53425387D01*
X55288393Y-53425387D01*
X55218351Y-53411455D01*
X55148310Y-53425387D01*
X55148305Y-53425387D01*
X54940855Y-53466651D01*
X54927551Y-53475540D01*
X54812207Y-53197074D01*
X54505133Y-52890000D01*
X54812207Y-52582926D01*
X54985000Y-52165766D01*
X54985000Y-51918598D01*
X63927495Y-51918598D01*
X63962666Y-52095417D01*
X64015519Y-52174516D01*
X64080178Y-52271285D01*
X64080180Y-52271287D01*
X64119857Y-52330667D01*
X64179236Y-52370343D01*
X64289670Y-52480777D01*
X64329348Y-52540159D01*
X64564598Y-52697349D01*
X64772048Y-52738613D01*
X64772052Y-52738613D01*
X64842093Y-52752545D01*
X64912135Y-52738613D01*
X72346555Y-52738613D01*
X72416596Y-52752545D01*
X72486249Y-52738690D01*
X79215000Y-52738690D01*
X79215000Y-52954250D01*
X79373750Y-53113000D01*
X80323000Y-53113000D01*
X80323000Y-52388750D01*
X80164250Y-52230000D01*
X79723691Y-52230000D01*
X79490302Y-52326673D01*
X79311673Y-52505301D01*
X79215000Y-52738690D01*
X72486249Y-52738690D01*
X72486637Y-52738613D01*
X72486642Y-52738613D01*
X72694092Y-52697349D01*
X72865213Y-52583009D01*
X72926833Y-52583009D01*
X73253578Y-52447667D01*
X73503658Y-52197587D01*
X73639000Y-51870842D01*
X73639000Y-51775853D01*
X73646342Y-51793578D01*
G36*
X45116180Y-58926991D02*
X45312667Y-59221054D01*
X45361389Y-59253609D01*
X45384903Y-59288800D01*
X43445000Y-59288800D01*
X43445000Y-59225750D01*
X43286250Y-59067000D01*
X42337000Y-59067000D01*
X42337000Y-59087000D01*
X42083000Y-59087000D01*
X42083000Y-59067000D01*
X42063000Y-59067000D01*
X42063000Y-58813000D01*
X42083000Y-58813000D01*
X42083000Y-58793000D01*
X42337000Y-58793000D01*
X42337000Y-58813000D01*
X43286250Y-58813000D01*
X43310250Y-58789000D01*
X45088732Y-58789000D01*
X45116180Y-58926991D01*
X45116180Y-58926991D01*
G37*
X45116180Y-58926991D02*
X45312667Y-59221054D01*
X45361389Y-59253609D01*
X45384903Y-59288800D01*
X43445000Y-59288800D01*
X43445000Y-59225750D01*
X43286250Y-59067000D01*
X42337000Y-59067000D01*
X42337000Y-59087000D01*
X42083000Y-59087000D01*
X42083000Y-59067000D01*
X42063000Y-59067000D01*
X42063000Y-58813000D01*
X42083000Y-58813000D01*
X42083000Y-58793000D01*
X42337000Y-58793000D01*
X42337000Y-58813000D01*
X43286250Y-58813000D01*
X43310250Y-58789000D01*
X45088732Y-58789000D01*
X45116180Y-58926991D01*
G36*
X50287082Y-57744133D02*
X50646502Y-57893010D01*
X50752560Y-57893010D01*
X50752560Y-58690000D01*
X50801843Y-58937765D01*
X50942191Y-59147809D01*
X51152235Y-59288157D01*
X51155468Y-59288800D01*
X48503575Y-59288800D01*
X48544130Y-59228105D01*
X48856940Y-58915295D01*
X48860000Y-58915904D01*
X48927688Y-58902440D01*
X49460000Y-58902440D01*
X49707765Y-58853157D01*
X49917809Y-58712809D01*
X50058157Y-58502765D01*
X50107440Y-58255000D01*
X50107440Y-57564491D01*
X50287082Y-57744133D01*
X50287082Y-57744133D01*
G37*
X50287082Y-57744133D02*
X50646502Y-57893010D01*
X50752560Y-57893010D01*
X50752560Y-58690000D01*
X50801843Y-58937765D01*
X50942191Y-59147809D01*
X51152235Y-59288157D01*
X51155468Y-59288800D01*
X48503575Y-59288800D01*
X48544130Y-59228105D01*
X48856940Y-58915295D01*
X48860000Y-58915904D01*
X48927688Y-58902440D01*
X49460000Y-58902440D01*
X49707765Y-58853157D01*
X49917809Y-58712809D01*
X50058157Y-58502765D01*
X50107440Y-58255000D01*
X50107440Y-57564491D01*
X50287082Y-57744133D01*
G36*
X44330717Y-50805622D02*
X44195375Y-51132367D01*
X44195375Y-51486033D01*
X44330717Y-51812778D01*
X44580797Y-52062858D01*
X44907542Y-52198200D01*
X45261208Y-52198200D01*
X45587953Y-52062858D01*
X45630411Y-52020400D01*
X45894293Y-52020400D01*
X45942213Y-52261310D01*
X46110629Y-52513364D01*
X46362683Y-52681780D01*
X46660000Y-52740920D01*
X46760678Y-52720894D01*
X46968932Y-52720894D01*
X47178001Y-52634295D01*
X47178000Y-53018463D01*
X47041843Y-53222235D01*
X46992560Y-53470000D01*
X46992560Y-53870000D01*
X47041843Y-54117765D01*
X47043336Y-54120000D01*
X47041843Y-54122235D01*
X46992560Y-54370000D01*
X46992560Y-54770000D01*
X47041843Y-55017765D01*
X47182191Y-55227809D01*
X47392235Y-55368157D01*
X47602596Y-55410000D01*
X47245750Y-55410000D01*
X47087000Y-55568750D01*
X47087000Y-56293000D01*
X47107000Y-56293000D01*
X47107000Y-56547000D01*
X47087000Y-56547000D01*
X47087000Y-57753000D01*
X47107000Y-57753000D01*
X47107000Y-57772401D01*
X46813000Y-57772401D01*
X46813000Y-57753000D01*
X46833000Y-57753000D01*
X46833000Y-56547000D01*
X45883750Y-56547000D01*
X45725000Y-56705750D01*
X45725000Y-56921310D01*
X45759434Y-57004440D01*
X45726455Y-57011000D01*
X43143376Y-57011000D01*
X43257900Y-56734516D01*
X43257900Y-56611912D01*
X43327788Y-56507317D01*
X43372000Y-56285048D01*
X43372000Y-56285044D01*
X43386927Y-56210001D01*
X43372000Y-56134958D01*
X43372000Y-55918690D01*
X45725000Y-55918690D01*
X45725000Y-56134250D01*
X45883750Y-56293000D01*
X46833000Y-56293000D01*
X46833000Y-55568750D01*
X46674250Y-55410000D01*
X46233691Y-55410000D01*
X46000302Y-55506673D01*
X45821673Y-55685301D01*
X45725000Y-55918690D01*
X43372000Y-55918690D01*
X43372000Y-54687798D01*
X43386928Y-54612751D01*
X43371168Y-54533519D01*
X43327788Y-54315434D01*
X43219472Y-54153327D01*
X43201882Y-54127002D01*
X43159371Y-54063380D01*
X43095750Y-54020870D01*
X42739611Y-53664731D01*
X42739611Y-53569946D01*
X42592864Y-53215668D01*
X42667900Y-53034516D01*
X42667900Y-52645484D01*
X42519023Y-52286064D01*
X42243936Y-52010977D01*
X41884516Y-51862100D01*
X41495484Y-51862100D01*
X41136064Y-52010977D01*
X40860977Y-52286064D01*
X40731951Y-52597560D01*
X39642807Y-52597560D01*
X39534541Y-52336183D01*
X39259454Y-52061096D01*
X38900034Y-51912219D01*
X38511002Y-51912219D01*
X38151582Y-52061096D01*
X37876495Y-52336183D01*
X37727618Y-52695603D01*
X37727618Y-53084635D01*
X37737000Y-53107285D01*
X37737000Y-53743000D01*
X37757000Y-53743000D01*
X37757000Y-53997000D01*
X37737000Y-53997000D01*
X37737000Y-54017000D01*
X37483000Y-54017000D01*
X37483000Y-53997000D01*
X36383750Y-53997000D01*
X36225000Y-54155750D01*
X36225000Y-54621310D01*
X36240294Y-54658232D01*
X36216870Y-54642581D01*
X35957556Y-54591000D01*
X35957555Y-54591000D01*
X35870000Y-54573584D01*
X35782445Y-54591000D01*
X34460604Y-54591000D01*
X34347809Y-54422191D01*
X34284666Y-54380000D01*
X34347809Y-54337809D01*
X34488157Y-54127765D01*
X34537440Y-53880000D01*
X34537440Y-53118690D01*
X36225000Y-53118690D01*
X36225000Y-53584250D01*
X36383750Y-53743000D01*
X37483000Y-53743000D01*
X37483000Y-52768750D01*
X37324250Y-52610000D01*
X36733691Y-52610000D01*
X36500302Y-52706673D01*
X36321673Y-52885301D01*
X36225000Y-53118690D01*
X34537440Y-53118690D01*
X34537440Y-52680000D01*
X34488157Y-52432235D01*
X34347809Y-52222191D01*
X34137765Y-52081843D01*
X33890000Y-52032560D01*
X32990000Y-52032560D01*
X32742235Y-52081843D01*
X32532191Y-52222191D01*
X32391843Y-52432235D01*
X32342560Y-52680000D01*
X32342560Y-52934000D01*
X32179935Y-52934000D01*
X31883577Y-52992949D01*
X31547505Y-53217505D01*
X31322949Y-53553577D01*
X31244096Y-53950000D01*
X31322949Y-54346423D01*
X31547505Y-54682495D01*
X31883577Y-54907051D01*
X32179935Y-54966000D01*
X32342560Y-54966000D01*
X32342560Y-56080000D01*
X32391843Y-56327765D01*
X32532191Y-56537809D01*
X32742235Y-56678157D01*
X32990000Y-56727440D01*
X33890000Y-56727440D01*
X34137765Y-56678157D01*
X34347809Y-56537809D01*
X34460604Y-56369000D01*
X35501765Y-56369000D01*
X37599470Y-58466706D01*
X37649067Y-58540933D01*
X37943130Y-58737419D01*
X38202444Y-58789000D01*
X38202445Y-58789000D01*
X38290000Y-58806416D01*
X38377555Y-58789000D01*
X39062560Y-58789000D01*
X39062560Y-59288800D01*
X32696169Y-59288800D01*
X32700209Y-59287127D01*
X33035323Y-58997604D01*
X33234132Y-58601877D01*
X33109135Y-58427000D01*
X32267000Y-58427000D01*
X32267000Y-58447000D01*
X32013000Y-58447000D01*
X32013000Y-58427000D01*
X32001973Y-58427000D01*
X32027235Y-58300000D01*
X32001973Y-58173000D01*
X32013000Y-58173000D01*
X32013000Y-57332046D01*
X32267000Y-57332046D01*
X32267000Y-58173000D01*
X33109135Y-58173000D01*
X33234132Y-57998123D01*
X33035323Y-57602396D01*
X32700209Y-57312873D01*
X32441874Y-57205881D01*
X32267000Y-57332046D01*
X32013000Y-57332046D01*
X31838126Y-57205881D01*
X31579791Y-57312873D01*
X31516910Y-57367199D01*
X31312855Y-57230854D01*
X30981783Y-57165000D01*
X30758217Y-57165000D01*
X30427145Y-57230854D01*
X30409164Y-57242869D01*
X30347765Y-57201843D01*
X30100000Y-57152560D01*
X29100000Y-57152560D01*
X28852235Y-57201843D01*
X28642191Y-57342191D01*
X28501843Y-57552235D01*
X28452560Y-57800000D01*
X28452560Y-58800000D01*
X28501843Y-59047765D01*
X28642191Y-59257809D01*
X28688572Y-59288800D01*
X25711200Y-59288800D01*
X25711200Y-51400000D01*
X27852560Y-51400000D01*
X27852560Y-52400000D01*
X27901843Y-52647765D01*
X28042191Y-52857809D01*
X28252235Y-52998157D01*
X28500000Y-53047440D01*
X29500000Y-53047440D01*
X29747765Y-52998157D01*
X29835817Y-52939322D01*
X29968126Y-52994119D01*
X30143000Y-52867954D01*
X30143000Y-52422322D01*
X30147440Y-52400000D01*
X30147440Y-52027000D01*
X30397000Y-52027000D01*
X30397000Y-52867954D01*
X30571874Y-52994119D01*
X30830209Y-52887127D01*
X31165323Y-52597604D01*
X31364132Y-52201877D01*
X31239135Y-52027000D01*
X30397000Y-52027000D01*
X30147440Y-52027000D01*
X30147440Y-51400000D01*
X30143000Y-51377678D01*
X30143000Y-50932046D01*
X30397000Y-50932046D01*
X30397000Y-51773000D01*
X31239135Y-51773000D01*
X31364132Y-51598123D01*
X31165323Y-51202396D01*
X30830209Y-50912873D01*
X30571874Y-50805881D01*
X30397000Y-50932046D01*
X30143000Y-50932046D01*
X29968126Y-50805881D01*
X29835817Y-50860678D01*
X29747765Y-50801843D01*
X29500000Y-50752560D01*
X28500000Y-50752560D01*
X28252235Y-50801843D01*
X28042191Y-50942191D01*
X27901843Y-51152235D01*
X27852560Y-51400000D01*
X25711200Y-51400000D01*
X25711200Y-50711200D01*
X44425139Y-50711200D01*
X44330717Y-50805622D01*
X44330717Y-50805622D01*
G37*
X44330717Y-50805622D02*
X44195375Y-51132367D01*
X44195375Y-51486033D01*
X44330717Y-51812778D01*
X44580797Y-52062858D01*
X44907542Y-52198200D01*
X45261208Y-52198200D01*
X45587953Y-52062858D01*
X45630411Y-52020400D01*
X45894293Y-52020400D01*
X45942213Y-52261310D01*
X46110629Y-52513364D01*
X46362683Y-52681780D01*
X46660000Y-52740920D01*
X46760678Y-52720894D01*
X46968932Y-52720894D01*
X47178001Y-52634295D01*
X47178000Y-53018463D01*
X47041843Y-53222235D01*
X46992560Y-53470000D01*
X46992560Y-53870000D01*
X47041843Y-54117765D01*
X47043336Y-54120000D01*
X47041843Y-54122235D01*
X46992560Y-54370000D01*
X46992560Y-54770000D01*
X47041843Y-55017765D01*
X47182191Y-55227809D01*
X47392235Y-55368157D01*
X47602596Y-55410000D01*
X47245750Y-55410000D01*
X47087000Y-55568750D01*
X47087000Y-56293000D01*
X47107000Y-56293000D01*
X47107000Y-56547000D01*
X47087000Y-56547000D01*
X47087000Y-57753000D01*
X47107000Y-57753000D01*
X47107000Y-57772401D01*
X46813000Y-57772401D01*
X46813000Y-57753000D01*
X46833000Y-57753000D01*
X46833000Y-56547000D01*
X45883750Y-56547000D01*
X45725000Y-56705750D01*
X45725000Y-56921310D01*
X45759434Y-57004440D01*
X45726455Y-57011000D01*
X43143376Y-57011000D01*
X43257900Y-56734516D01*
X43257900Y-56611912D01*
X43327788Y-56507317D01*
X43372000Y-56285048D01*
X43372000Y-56285044D01*
X43386927Y-56210001D01*
X43372000Y-56134958D01*
X43372000Y-55918690D01*
X45725000Y-55918690D01*
X45725000Y-56134250D01*
X45883750Y-56293000D01*
X46833000Y-56293000D01*
X46833000Y-55568750D01*
X46674250Y-55410000D01*
X46233691Y-55410000D01*
X46000302Y-55506673D01*
X45821673Y-55685301D01*
X45725000Y-55918690D01*
X43372000Y-55918690D01*
X43372000Y-54687798D01*
X43386928Y-54612751D01*
X43371168Y-54533519D01*
X43327788Y-54315434D01*
X43219472Y-54153327D01*
X43201882Y-54127002D01*
X43159371Y-54063380D01*
X43095750Y-54020870D01*
X42739611Y-53664731D01*
X42739611Y-53569946D01*
X42592864Y-53215668D01*
X42667900Y-53034516D01*
X42667900Y-52645484D01*
X42519023Y-52286064D01*
X42243936Y-52010977D01*
X41884516Y-51862100D01*
X41495484Y-51862100D01*
X41136064Y-52010977D01*
X40860977Y-52286064D01*
X40731951Y-52597560D01*
X39642807Y-52597560D01*
X39534541Y-52336183D01*
X39259454Y-52061096D01*
X38900034Y-51912219D01*
X38511002Y-51912219D01*
X38151582Y-52061096D01*
X37876495Y-52336183D01*
X37727618Y-52695603D01*
X37727618Y-53084635D01*
X37737000Y-53107285D01*
X37737000Y-53743000D01*
X37757000Y-53743000D01*
X37757000Y-53997000D01*
X37737000Y-53997000D01*
X37737000Y-54017000D01*
X37483000Y-54017000D01*
X37483000Y-53997000D01*
X36383750Y-53997000D01*
X36225000Y-54155750D01*
X36225000Y-54621310D01*
X36240294Y-54658232D01*
X36216870Y-54642581D01*
X35957556Y-54591000D01*
X35957555Y-54591000D01*
X35870000Y-54573584D01*
X35782445Y-54591000D01*
X34460604Y-54591000D01*
X34347809Y-54422191D01*
X34284666Y-54380000D01*
X34347809Y-54337809D01*
X34488157Y-54127765D01*
X34537440Y-53880000D01*
X34537440Y-53118690D01*
X36225000Y-53118690D01*
X36225000Y-53584250D01*
X36383750Y-53743000D01*
X37483000Y-53743000D01*
X37483000Y-52768750D01*
X37324250Y-52610000D01*
X36733691Y-52610000D01*
X36500302Y-52706673D01*
X36321673Y-52885301D01*
X36225000Y-53118690D01*
X34537440Y-53118690D01*
X34537440Y-52680000D01*
X34488157Y-52432235D01*
X34347809Y-52222191D01*
X34137765Y-52081843D01*
X33890000Y-52032560D01*
X32990000Y-52032560D01*
X32742235Y-52081843D01*
X32532191Y-52222191D01*
X32391843Y-52432235D01*
X32342560Y-52680000D01*
X32342560Y-52934000D01*
X32179935Y-52934000D01*
X31883577Y-52992949D01*
X31547505Y-53217505D01*
X31322949Y-53553577D01*
X31244096Y-53950000D01*
X31322949Y-54346423D01*
X31547505Y-54682495D01*
X31883577Y-54907051D01*
X32179935Y-54966000D01*
X32342560Y-54966000D01*
X32342560Y-56080000D01*
X32391843Y-56327765D01*
X32532191Y-56537809D01*
X32742235Y-56678157D01*
X32990000Y-56727440D01*
X33890000Y-56727440D01*
X34137765Y-56678157D01*
X34347809Y-56537809D01*
X34460604Y-56369000D01*
X35501765Y-56369000D01*
X37599470Y-58466706D01*
X37649067Y-58540933D01*
X37943130Y-58737419D01*
X38202444Y-58789000D01*
X38202445Y-58789000D01*
X38290000Y-58806416D01*
X38377555Y-58789000D01*
X39062560Y-58789000D01*
X39062560Y-59288800D01*
X32696169Y-59288800D01*
X32700209Y-59287127D01*
X33035323Y-58997604D01*
X33234132Y-58601877D01*
X33109135Y-58427000D01*
X32267000Y-58427000D01*
X32267000Y-58447000D01*
X32013000Y-58447000D01*
X32013000Y-58427000D01*
X32001973Y-58427000D01*
X32027235Y-58300000D01*
X32001973Y-58173000D01*
X32013000Y-58173000D01*
X32013000Y-57332046D01*
X32267000Y-57332046D01*
X32267000Y-58173000D01*
X33109135Y-58173000D01*
X33234132Y-57998123D01*
X33035323Y-57602396D01*
X32700209Y-57312873D01*
X32441874Y-57205881D01*
X32267000Y-57332046D01*
X32013000Y-57332046D01*
X31838126Y-57205881D01*
X31579791Y-57312873D01*
X31516910Y-57367199D01*
X31312855Y-57230854D01*
X30981783Y-57165000D01*
X30758217Y-57165000D01*
X30427145Y-57230854D01*
X30409164Y-57242869D01*
X30347765Y-57201843D01*
X30100000Y-57152560D01*
X29100000Y-57152560D01*
X28852235Y-57201843D01*
X28642191Y-57342191D01*
X28501843Y-57552235D01*
X28452560Y-57800000D01*
X28452560Y-58800000D01*
X28501843Y-59047765D01*
X28642191Y-59257809D01*
X28688572Y-59288800D01*
X25711200Y-59288800D01*
X25711200Y-51400000D01*
X27852560Y-51400000D01*
X27852560Y-52400000D01*
X27901843Y-52647765D01*
X28042191Y-52857809D01*
X28252235Y-52998157D01*
X28500000Y-53047440D01*
X29500000Y-53047440D01*
X29747765Y-52998157D01*
X29835817Y-52939322D01*
X29968126Y-52994119D01*
X30143000Y-52867954D01*
X30143000Y-52422322D01*
X30147440Y-52400000D01*
X30147440Y-52027000D01*
X30397000Y-52027000D01*
X30397000Y-52867954D01*
X30571874Y-52994119D01*
X30830209Y-52887127D01*
X31165323Y-52597604D01*
X31364132Y-52201877D01*
X31239135Y-52027000D01*
X30397000Y-52027000D01*
X30147440Y-52027000D01*
X30147440Y-51400000D01*
X30143000Y-51377678D01*
X30143000Y-50932046D01*
X30397000Y-50932046D01*
X30397000Y-51773000D01*
X31239135Y-51773000D01*
X31364132Y-51598123D01*
X31165323Y-51202396D01*
X30830209Y-50912873D01*
X30571874Y-50805881D01*
X30397000Y-50932046D01*
X30143000Y-50932046D01*
X29968126Y-50805881D01*
X29835817Y-50860678D01*
X29747765Y-50801843D01*
X29500000Y-50752560D01*
X28500000Y-50752560D01*
X28252235Y-50801843D01*
X28042191Y-50942191D01*
X27901843Y-51152235D01*
X27852560Y-51400000D01*
X25711200Y-51400000D01*
X25711200Y-50711200D01*
X44425139Y-50711200D01*
X44330717Y-50805622D01*
G36*
X73734516Y-58085111D02*
X73754516Y-58085111D01*
X73754516Y-58339111D01*
X73734516Y-58339111D01*
X73734516Y-58359111D01*
X73480516Y-58359111D01*
X73480516Y-58339111D01*
X73460516Y-58339111D01*
X73460516Y-58085111D01*
X73480516Y-58085111D01*
X73480516Y-58065111D01*
X73734516Y-58065111D01*
X73734516Y-58085111D01*
X73734516Y-58085111D01*
G37*
X73734516Y-58085111D02*
X73754516Y-58085111D01*
X73754516Y-58339111D01*
X73734516Y-58339111D01*
X73734516Y-58359111D01*
X73480516Y-58359111D01*
X73480516Y-58339111D01*
X73460516Y-58339111D01*
X73460516Y-58085111D01*
X73480516Y-58085111D01*
X73480516Y-58065111D01*
X73734516Y-58065111D01*
X73734516Y-58085111D01*
G36*
X41302100Y-56345484D02*
X41302100Y-56734516D01*
X41416624Y-57011000D01*
X40717093Y-57011000D01*
X40739053Y-56957985D01*
X40739053Y-56817426D01*
X40580303Y-56658676D01*
X39979053Y-56658676D01*
X39979053Y-56678676D01*
X39800303Y-56678676D01*
X39780303Y-56658676D01*
X39127803Y-56658676D01*
X39107803Y-56678676D01*
X38947926Y-56678676D01*
X38946250Y-56677000D01*
X38929053Y-56677000D01*
X38929053Y-56658676D01*
X38907053Y-56658676D01*
X38907053Y-56423000D01*
X38946250Y-56423000D01*
X38984574Y-56384676D01*
X39107803Y-56384676D01*
X39127803Y-56404676D01*
X39780303Y-56404676D01*
X39800303Y-56384676D01*
X39979053Y-56384676D01*
X39979053Y-56404676D01*
X40580303Y-56404676D01*
X40739053Y-56245926D01*
X40739053Y-56193676D01*
X41364981Y-56193676D01*
X41302100Y-56345484D01*
X41302100Y-56345484D01*
G37*
X41302100Y-56345484D02*
X41302100Y-56734516D01*
X41416624Y-57011000D01*
X40717093Y-57011000D01*
X40739053Y-56957985D01*
X40739053Y-56817426D01*
X40580303Y-56658676D01*
X39979053Y-56658676D01*
X39979053Y-56678676D01*
X39800303Y-56678676D01*
X39780303Y-56658676D01*
X39127803Y-56658676D01*
X39107803Y-56678676D01*
X38947926Y-56678676D01*
X38946250Y-56677000D01*
X38929053Y-56677000D01*
X38929053Y-56658676D01*
X38907053Y-56658676D01*
X38907053Y-56423000D01*
X38946250Y-56423000D01*
X38984574Y-56384676D01*
X39107803Y-56384676D01*
X39127803Y-56404676D01*
X39780303Y-56404676D01*
X39800303Y-56384676D01*
X39979053Y-56384676D01*
X39979053Y-56404676D01*
X40580303Y-56404676D01*
X40739053Y-56245926D01*
X40739053Y-56193676D01*
X41364981Y-56193676D01*
X41302100Y-56345484D01*
G36*
X38316857Y-56669622D02*
X38305913Y-56658678D01*
X38327801Y-56658678D01*
X38316857Y-56669622D01*
X38316857Y-56669622D01*
G37*
X38316857Y-56669622D02*
X38305913Y-56658678D01*
X38327801Y-56658678D01*
X38316857Y-56669622D01*
G36*
X38327801Y-56404674D02*
X38169053Y-56404674D01*
X38169053Y-56521817D01*
X38073000Y-56425764D01*
X38073000Y-56423000D01*
X38095000Y-56423000D01*
X38095000Y-56403000D01*
X38326127Y-56403000D01*
X38327801Y-56404674D01*
X38327801Y-56404674D01*
G37*
X38327801Y-56404674D02*
X38169053Y-56404674D01*
X38169053Y-56521817D01*
X38073000Y-56425764D01*
X38073000Y-56423000D01*
X38095000Y-56423000D01*
X38095000Y-56403000D01*
X38326127Y-56403000D01*
X38327801Y-56404674D01*
G36*
X51595724Y-51877334D02*
X51803174Y-51918598D01*
X51803178Y-51918598D01*
X51873219Y-51932530D01*
X51943261Y-51918598D01*
X52715000Y-51918598D01*
X52715000Y-52165766D01*
X52887793Y-52582926D01*
X53194867Y-52890000D01*
X52887793Y-53197074D01*
X52715000Y-53614234D01*
X52715000Y-54065766D01*
X52860993Y-54418225D01*
X52806064Y-54440977D01*
X52530977Y-54716064D01*
X52442077Y-54930688D01*
X52411765Y-54961000D01*
X51628906Y-54961000D01*
X51620933Y-54949067D01*
X51440289Y-54828365D01*
X51423157Y-54742235D01*
X51362127Y-54650898D01*
X51363327Y-54649698D01*
X51460000Y-54416309D01*
X51460000Y-53975750D01*
X51301250Y-53817000D01*
X50577000Y-53817000D01*
X50577000Y-53837000D01*
X50323000Y-53837000D01*
X50323000Y-53817000D01*
X50303000Y-53817000D01*
X50303000Y-53563000D01*
X50323000Y-53563000D01*
X50323000Y-53543000D01*
X50577000Y-53543000D01*
X50577000Y-53563000D01*
X51301250Y-53563000D01*
X51460000Y-53404250D01*
X51460000Y-52963691D01*
X51363327Y-52730302D01*
X51184699Y-52551673D01*
X51089764Y-52512349D01*
X51198177Y-52403936D01*
X51347054Y-52044516D01*
X51347054Y-51877888D01*
X51385243Y-51839699D01*
X51539400Y-51839699D01*
X51595724Y-51877334D01*
X51595724Y-51877334D01*
G37*
X51595724Y-51877334D02*
X51803174Y-51918598D01*
X51803178Y-51918598D01*
X51873219Y-51932530D01*
X51943261Y-51918598D01*
X52715000Y-51918598D01*
X52715000Y-52165766D01*
X52887793Y-52582926D01*
X53194867Y-52890000D01*
X52887793Y-53197074D01*
X52715000Y-53614234D01*
X52715000Y-54065766D01*
X52860993Y-54418225D01*
X52806064Y-54440977D01*
X52530977Y-54716064D01*
X52442077Y-54930688D01*
X52411765Y-54961000D01*
X51628906Y-54961000D01*
X51620933Y-54949067D01*
X51440289Y-54828365D01*
X51423157Y-54742235D01*
X51362127Y-54650898D01*
X51363327Y-54649698D01*
X51460000Y-54416309D01*
X51460000Y-53975750D01*
X51301250Y-53817000D01*
X50577000Y-53817000D01*
X50577000Y-53837000D01*
X50323000Y-53837000D01*
X50323000Y-53817000D01*
X50303000Y-53817000D01*
X50303000Y-53563000D01*
X50323000Y-53563000D01*
X50323000Y-53543000D01*
X50577000Y-53543000D01*
X50577000Y-53563000D01*
X51301250Y-53563000D01*
X51460000Y-53404250D01*
X51460000Y-52963691D01*
X51363327Y-52730302D01*
X51184699Y-52551673D01*
X51089764Y-52512349D01*
X51198177Y-52403936D01*
X51347054Y-52044516D01*
X51347054Y-51877888D01*
X51385243Y-51839699D01*
X51539400Y-51839699D01*
X51595724Y-51877334D01*
G36*
X81447000Y-54176250D02*
X81447000Y-54193750D01*
X81427002Y-54213748D01*
X81427002Y-54162887D01*
X81447000Y-54176250D01*
X81447000Y-54176250D01*
G37*
X81447000Y-54176250D02*
X81447000Y-54193750D01*
X81427002Y-54213748D01*
X81427002Y-54162887D01*
X81447000Y-54176250D01*
G04 #@! TD*
M02*
