G04 #@! TF.GenerationSoftware,KiCad,Pcbnew,5.0.1*
G04 #@! TF.CreationDate,2018-12-11T18:26:41-05:00*
G04 #@! TF.ProjectId,controller,636F6E74726F6C6C65722E6B69636164,rev?*
G04 #@! TF.SameCoordinates,Original*
G04 #@! TF.FileFunction,Legend,Top*
G04 #@! TF.FilePolarity,Positive*
%FSLAX46Y46*%
G04 Gerber Fmt 4.6, Leading zero omitted, Abs format (unit mm)*
G04 Created by KiCad (PCBNEW 5.0.1) date Tue 11 Dec 2018 06:26:41 PM EST*
%MOMM*%
%LPD*%
G01*
G04 APERTURE LIST*
%ADD10C,0.152400*%
%ADD11C,0.120000*%
%ADD12C,0.150000*%
G04 APERTURE END LIST*
D10*
X52690000Y-55320000D02*
X52470000Y-55300000D01*
X53050000Y-55680000D02*
X52690000Y-55320000D01*
X64250000Y-58240000D02*
X62000000Y-58240000D01*
X64550000Y-57740000D02*
X64250000Y-58240000D01*
X59450000Y-54490000D02*
X59350000Y-54790000D01*
X62000000Y-54440000D02*
X59450000Y-54490000D01*
X62350000Y-54740000D02*
X62000000Y-54440000D01*
D11*
G04 #@! TO.C,R13*
X48330000Y-57760000D02*
X49330000Y-57760000D01*
X49330000Y-59120000D02*
X48330000Y-59120000D01*
G04 #@! TO.C,R3*
X38240000Y-55640000D02*
X39240000Y-55640000D01*
X39240000Y-57000000D02*
X38240000Y-57000000D01*
G04 #@! TO.C,C10*
X52920000Y-54290000D02*
X52920000Y-53790000D01*
X51980000Y-53790000D02*
X51980000Y-54290000D01*
G04 #@! TO.C,C18*
X34720000Y-54010000D02*
X34720000Y-53310000D01*
X35920000Y-53310000D02*
X35920000Y-54010000D01*
G04 #@! TO.C,U5*
X39570000Y-52070000D02*
X36620000Y-52070000D01*
X37770000Y-55290000D02*
X39570000Y-55290000D01*
G04 #@! TO.C,Q1*
X29420000Y-56750000D02*
X27960000Y-56750000D01*
X29420000Y-53590000D02*
X26260000Y-53590000D01*
X29420000Y-53590000D02*
X29420000Y-54520000D01*
X29420000Y-56750000D02*
X29420000Y-55820000D01*
G04 #@! TO.C,C13*
X80450000Y-55020000D02*
X79950000Y-55020000D01*
X79950000Y-55960000D02*
X80450000Y-55960000D01*
G04 #@! TO.C,C12*
X82580000Y-54740000D02*
X82580000Y-55240000D01*
X83520000Y-55240000D02*
X83520000Y-54740000D01*
G04 #@! TO.C,C11*
X52920000Y-52290000D02*
X52920000Y-51790000D01*
X51980000Y-51790000D02*
X51980000Y-52290000D01*
G04 #@! TO.C,C9*
X50480000Y-55520000D02*
X50980000Y-55520000D01*
X50980000Y-54580000D02*
X50480000Y-54580000D01*
G04 #@! TO.C,C1*
X74250000Y-56790000D02*
X74250000Y-57490000D01*
X73050000Y-57490000D02*
X73050000Y-56790000D01*
G04 #@! TO.C,C2*
X66730000Y-56460000D02*
X66730000Y-57160000D01*
X65530000Y-57160000D02*
X65530000Y-56460000D01*
G04 #@! TO.C,C17*
X60100000Y-57640000D02*
X60100000Y-56640000D01*
X58400000Y-56640000D02*
X58400000Y-57640000D01*
G04 #@! TO.C,Y1*
X54750000Y-51940000D02*
X54550000Y-51940000D01*
X55650000Y-52540000D02*
X54750000Y-51940000D01*
X54750000Y-53840000D02*
X54550000Y-53840000D01*
X55650000Y-53240000D02*
X54750000Y-53840000D01*
X55650000Y-51690000D02*
X55650000Y-54090000D01*
X62050000Y-51690000D02*
X55650000Y-51690000D01*
X62050000Y-54090000D02*
X62050000Y-51690000D01*
X55650000Y-54090000D02*
X62050000Y-54090000D01*
G04 #@! TO.C,R5*
X82300000Y-57520000D02*
X82800000Y-57520000D01*
X82800000Y-56460000D02*
X82300000Y-56460000D01*
G04 #@! TO.C,R10*
X35610000Y-56990000D02*
X35110000Y-56990000D01*
X35110000Y-58050000D02*
X35610000Y-58050000D01*
G04 #@! TO.C,R12*
X77780000Y-52990000D02*
X77780000Y-52490000D01*
X76720000Y-52490000D02*
X76720000Y-52990000D01*
G04 #@! TO.C,R4*
X68100000Y-55170000D02*
X68600000Y-55170000D01*
X68600000Y-54110000D02*
X68100000Y-54110000D01*
G04 #@! TO.C,R9*
X35620000Y-56000000D02*
X35120000Y-56000000D01*
X35120000Y-57060000D02*
X35620000Y-57060000D01*
G04 #@! TO.C,R1*
X73650000Y-55020000D02*
X72650000Y-55020000D01*
X72650000Y-53660000D02*
X73650000Y-53660000D01*
G04 #@! TO.C,R8*
X67550000Y-51160000D02*
X68550000Y-51160000D01*
X68550000Y-52520000D02*
X67550000Y-52520000D01*
G04 #@! TO.C,R11*
X60470000Y-57540000D02*
X60470000Y-56540000D01*
X61830000Y-56540000D02*
X61830000Y-57540000D01*
G04 #@! TO.C,J1*
X50920000Y-56510000D02*
X52250000Y-56510000D01*
X50920000Y-57840000D02*
X50920000Y-56510000D01*
X53580000Y-59110000D02*
X50920000Y-59110000D01*
X53580000Y-59170000D02*
X53580000Y-59110000D01*
X50920000Y-59170000D02*
X53580000Y-59170000D01*
X50920000Y-59110000D02*
X50920000Y-59170000D01*
G04 #@! TO.C,J2*
X29635000Y-53230000D02*
X30965000Y-53230000D01*
X30965000Y-53230000D02*
X30965000Y-50570000D01*
X30965000Y-50570000D02*
X29635000Y-50570000D01*
X29635000Y-50570000D02*
X29635000Y-53230000D01*
X29000000Y-53230000D02*
X28305000Y-53230000D01*
X28305000Y-53230000D02*
X28305000Y-51900000D01*
G04 #@! TO.C,D1*
X77595000Y-56510000D02*
X77595000Y-57840000D01*
X76900000Y-56510000D02*
X77595000Y-56510000D01*
X76265000Y-59170000D02*
X76265000Y-56510000D01*
X74935000Y-59170000D02*
X76265000Y-59170000D01*
X74935000Y-56510000D02*
X74935000Y-59170000D01*
X76265000Y-56510000D02*
X74935000Y-56510000D01*
G04 #@! TO.C,J3*
X28905000Y-59630000D02*
X28905000Y-58300000D01*
X29600000Y-59630000D02*
X28905000Y-59630000D01*
X30235000Y-56970000D02*
X30235000Y-59630000D01*
X32835000Y-56970000D02*
X30235000Y-56970000D01*
X32835000Y-59630000D02*
X32835000Y-56970000D01*
X30235000Y-59630000D02*
X32835000Y-59630000D01*
G04 #@! TO.C,J4*
X57800000Y-56145000D02*
X57165000Y-56145000D01*
X57800000Y-56840000D02*
X57800000Y-56145000D01*
X56215000Y-57475000D02*
X57800000Y-57475000D01*
X56215000Y-56145000D02*
X56215000Y-57475000D01*
X54630000Y-56145000D02*
X56215000Y-56145000D01*
X54630000Y-58805000D02*
X54630000Y-56145000D01*
X57800000Y-58805000D02*
X54630000Y-58805000D01*
X57800000Y-57475000D02*
X57800000Y-58805000D01*
G04 #@! TO.C,Q3*
X70910000Y-58420000D02*
X69450000Y-58420000D01*
X70910000Y-55260000D02*
X67750000Y-55260000D01*
X70910000Y-55260000D02*
X70910000Y-56190000D01*
X70910000Y-58420000D02*
X70910000Y-57490000D01*
D12*
G04 #@! TO.C,U4*
X78400000Y-51815000D02*
X79275000Y-51440000D01*
X80925000Y-51440000D02*
X81800000Y-51440000D01*
X81800000Y-51440000D02*
X81800000Y-51815000D01*
X81800000Y-53965000D02*
X81800000Y-54340000D01*
X81800000Y-54340000D02*
X80925000Y-54340000D01*
X79275000Y-54340000D02*
X78400000Y-54340000D01*
X78400000Y-54340000D02*
X78400000Y-53965000D01*
X78525000Y-51265000D02*
G75*
G03X78525000Y-51265000I-150000J0D01*
G01*
G04 #@! TO.C,U3*
X47810000Y-56710000D02*
X46930000Y-57090000D01*
X44790000Y-57090000D02*
X43910000Y-57090000D01*
X43910000Y-57090000D02*
X43910000Y-56710000D01*
X43910000Y-52570000D02*
X43910000Y-52190000D01*
X43910000Y-52190000D02*
X44790000Y-52190000D01*
X46930000Y-52190000D02*
X47810000Y-52190000D01*
X47810000Y-52190000D02*
X47810000Y-52570000D01*
X47985000Y-57265000D02*
G75*
G03X47985000Y-57265000I-150000J0D01*
G01*
G04 #@! TO.C,R13*
X48785714Y-57561904D02*
X48519047Y-57180952D01*
X48328571Y-57561904D02*
X48328571Y-56761904D01*
X48633333Y-56761904D01*
X48709523Y-56800000D01*
X48747619Y-56838095D01*
X48785714Y-56914285D01*
X48785714Y-57028571D01*
X48747619Y-57104761D01*
X48709523Y-57142857D01*
X48633333Y-57180952D01*
X48328571Y-57180952D01*
X49547619Y-57561904D02*
X49090476Y-57561904D01*
X49319047Y-57561904D02*
X49319047Y-56761904D01*
X49242857Y-56876190D01*
X49166666Y-56952380D01*
X49090476Y-56990476D01*
X49814285Y-56761904D02*
X50309523Y-56761904D01*
X50042857Y-57066666D01*
X50157142Y-57066666D01*
X50233333Y-57104761D01*
X50271428Y-57142857D01*
X50309523Y-57219047D01*
X50309523Y-57409523D01*
X50271428Y-57485714D01*
X50233333Y-57523809D01*
X50157142Y-57561904D01*
X49928571Y-57561904D01*
X49852380Y-57523809D01*
X49814285Y-57485714D01*
G04 #@! TO.C,R3*
X38573333Y-58212380D02*
X38240000Y-57736190D01*
X38001904Y-58212380D02*
X38001904Y-57212380D01*
X38382857Y-57212380D01*
X38478095Y-57260000D01*
X38525714Y-57307619D01*
X38573333Y-57402857D01*
X38573333Y-57545714D01*
X38525714Y-57640952D01*
X38478095Y-57688571D01*
X38382857Y-57736190D01*
X38001904Y-57736190D01*
X38906666Y-57212380D02*
X39525714Y-57212380D01*
X39192380Y-57593333D01*
X39335238Y-57593333D01*
X39430476Y-57640952D01*
X39478095Y-57688571D01*
X39525714Y-57783809D01*
X39525714Y-58021904D01*
X39478095Y-58117142D01*
X39430476Y-58164761D01*
X39335238Y-58212380D01*
X39049523Y-58212380D01*
X38954285Y-58164761D01*
X38906666Y-58117142D01*
G04 #@! TO.C,C10*
X50295714Y-54135714D02*
X50257619Y-54173809D01*
X50143333Y-54211904D01*
X50067142Y-54211904D01*
X49952857Y-54173809D01*
X49876666Y-54097619D01*
X49838571Y-54021428D01*
X49800476Y-53869047D01*
X49800476Y-53754761D01*
X49838571Y-53602380D01*
X49876666Y-53526190D01*
X49952857Y-53450000D01*
X50067142Y-53411904D01*
X50143333Y-53411904D01*
X50257619Y-53450000D01*
X50295714Y-53488095D01*
X51057619Y-54211904D02*
X50600476Y-54211904D01*
X50829047Y-54211904D02*
X50829047Y-53411904D01*
X50752857Y-53526190D01*
X50676666Y-53602380D01*
X50600476Y-53640476D01*
X51552857Y-53411904D02*
X51629047Y-53411904D01*
X51705238Y-53450000D01*
X51743333Y-53488095D01*
X51781428Y-53564285D01*
X51819523Y-53716666D01*
X51819523Y-53907142D01*
X51781428Y-54059523D01*
X51743333Y-54135714D01*
X51705238Y-54173809D01*
X51629047Y-54211904D01*
X51552857Y-54211904D01*
X51476666Y-54173809D01*
X51438571Y-54135714D01*
X51400476Y-54059523D01*
X51362380Y-53907142D01*
X51362380Y-53716666D01*
X51400476Y-53564285D01*
X51438571Y-53488095D01*
X51476666Y-53450000D01*
X51552857Y-53411904D01*
G04 #@! TO.C,C18*
X34317142Y-54282857D02*
X34364761Y-54330476D01*
X34412380Y-54473333D01*
X34412380Y-54568571D01*
X34364761Y-54711428D01*
X34269523Y-54806666D01*
X34174285Y-54854285D01*
X33983809Y-54901904D01*
X33840952Y-54901904D01*
X33650476Y-54854285D01*
X33555238Y-54806666D01*
X33460000Y-54711428D01*
X33412380Y-54568571D01*
X33412380Y-54473333D01*
X33460000Y-54330476D01*
X33507619Y-54282857D01*
X34412380Y-53330476D02*
X34412380Y-53901904D01*
X34412380Y-53616190D02*
X33412380Y-53616190D01*
X33555238Y-53711428D01*
X33650476Y-53806666D01*
X33698095Y-53901904D01*
X33840952Y-52759047D02*
X33793333Y-52854285D01*
X33745714Y-52901904D01*
X33650476Y-52949523D01*
X33602857Y-52949523D01*
X33507619Y-52901904D01*
X33460000Y-52854285D01*
X33412380Y-52759047D01*
X33412380Y-52568571D01*
X33460000Y-52473333D01*
X33507619Y-52425714D01*
X33602857Y-52378095D01*
X33650476Y-52378095D01*
X33745714Y-52425714D01*
X33793333Y-52473333D01*
X33840952Y-52568571D01*
X33840952Y-52759047D01*
X33888571Y-52854285D01*
X33936190Y-52901904D01*
X34031428Y-52949523D01*
X34221904Y-52949523D01*
X34317142Y-52901904D01*
X34364761Y-52854285D01*
X34412380Y-52759047D01*
X34412380Y-52568571D01*
X34364761Y-52473333D01*
X34317142Y-52425714D01*
X34221904Y-52378095D01*
X34031428Y-52378095D01*
X33936190Y-52425714D01*
X33888571Y-52473333D01*
X33840952Y-52568571D01*
G04 #@! TO.C,U5*
X37958095Y-50952380D02*
X37958095Y-51761904D01*
X38005714Y-51857142D01*
X38053333Y-51904761D01*
X38148571Y-51952380D01*
X38339047Y-51952380D01*
X38434285Y-51904761D01*
X38481904Y-51857142D01*
X38529523Y-51761904D01*
X38529523Y-50952380D01*
X39481904Y-50952380D02*
X39005714Y-50952380D01*
X38958095Y-51428571D01*
X39005714Y-51380952D01*
X39100952Y-51333333D01*
X39339047Y-51333333D01*
X39434285Y-51380952D01*
X39481904Y-51428571D01*
X39529523Y-51523809D01*
X39529523Y-51761904D01*
X39481904Y-51857142D01*
X39434285Y-51904761D01*
X39339047Y-51952380D01*
X39100952Y-51952380D01*
X39005714Y-51904761D01*
X38958095Y-51857142D01*
G04 #@! TO.C,Q1*
X30484761Y-54477619D02*
X30389523Y-54430000D01*
X30294285Y-54334761D01*
X30151428Y-54191904D01*
X30056190Y-54144285D01*
X29960952Y-54144285D01*
X30008571Y-54382380D02*
X29913333Y-54334761D01*
X29818095Y-54239523D01*
X29770476Y-54049047D01*
X29770476Y-53715714D01*
X29818095Y-53525238D01*
X29913333Y-53430000D01*
X30008571Y-53382380D01*
X30199047Y-53382380D01*
X30294285Y-53430000D01*
X30389523Y-53525238D01*
X30437142Y-53715714D01*
X30437142Y-54049047D01*
X30389523Y-54239523D01*
X30294285Y-54334761D01*
X30199047Y-54382380D01*
X30008571Y-54382380D01*
X31389523Y-54382380D02*
X30818095Y-54382380D01*
X31103809Y-54382380D02*
X31103809Y-53382380D01*
X31008571Y-53525238D01*
X30913333Y-53620476D01*
X30818095Y-53668095D01*
G04 #@! TO.C,C13*
X79557142Y-57117142D02*
X79509523Y-57164761D01*
X79366666Y-57212380D01*
X79271428Y-57212380D01*
X79128571Y-57164761D01*
X79033333Y-57069523D01*
X78985714Y-56974285D01*
X78938095Y-56783809D01*
X78938095Y-56640952D01*
X78985714Y-56450476D01*
X79033333Y-56355238D01*
X79128571Y-56260000D01*
X79271428Y-56212380D01*
X79366666Y-56212380D01*
X79509523Y-56260000D01*
X79557142Y-56307619D01*
X80509523Y-57212380D02*
X79938095Y-57212380D01*
X80223809Y-57212380D02*
X80223809Y-56212380D01*
X80128571Y-56355238D01*
X80033333Y-56450476D01*
X79938095Y-56498095D01*
X80842857Y-56212380D02*
X81461904Y-56212380D01*
X81128571Y-56593333D01*
X81271428Y-56593333D01*
X81366666Y-56640952D01*
X81414285Y-56688571D01*
X81461904Y-56783809D01*
X81461904Y-57021904D01*
X81414285Y-57117142D01*
X81366666Y-57164761D01*
X81271428Y-57212380D01*
X80985714Y-57212380D01*
X80890476Y-57164761D01*
X80842857Y-57117142D01*
G04 #@! TO.C,C12*
X84405714Y-55554285D02*
X84443809Y-55592380D01*
X84481904Y-55706666D01*
X84481904Y-55782857D01*
X84443809Y-55897142D01*
X84367619Y-55973333D01*
X84291428Y-56011428D01*
X84139047Y-56049523D01*
X84024761Y-56049523D01*
X83872380Y-56011428D01*
X83796190Y-55973333D01*
X83720000Y-55897142D01*
X83681904Y-55782857D01*
X83681904Y-55706666D01*
X83720000Y-55592380D01*
X83758095Y-55554285D01*
X84481904Y-54792380D02*
X84481904Y-55249523D01*
X84481904Y-55020952D02*
X83681904Y-55020952D01*
X83796190Y-55097142D01*
X83872380Y-55173333D01*
X83910476Y-55249523D01*
X83758095Y-54487619D02*
X83720000Y-54449523D01*
X83681904Y-54373333D01*
X83681904Y-54182857D01*
X83720000Y-54106666D01*
X83758095Y-54068571D01*
X83834285Y-54030476D01*
X83910476Y-54030476D01*
X84024761Y-54068571D01*
X84481904Y-54525714D01*
X84481904Y-54030476D01*
G04 #@! TO.C,C11*
X51825714Y-52394285D02*
X51863809Y-52432380D01*
X51901904Y-52546666D01*
X51901904Y-52622857D01*
X51863809Y-52737142D01*
X51787619Y-52813333D01*
X51711428Y-52851428D01*
X51559047Y-52889523D01*
X51444761Y-52889523D01*
X51292380Y-52851428D01*
X51216190Y-52813333D01*
X51140000Y-52737142D01*
X51101904Y-52622857D01*
X51101904Y-52546666D01*
X51140000Y-52432380D01*
X51178095Y-52394285D01*
X51901904Y-51632380D02*
X51901904Y-52089523D01*
X51901904Y-51860952D02*
X51101904Y-51860952D01*
X51216190Y-51937142D01*
X51292380Y-52013333D01*
X51330476Y-52089523D01*
X51901904Y-50870476D02*
X51901904Y-51327619D01*
X51901904Y-51099047D02*
X51101904Y-51099047D01*
X51216190Y-51175238D01*
X51292380Y-51251428D01*
X51330476Y-51327619D01*
G04 #@! TO.C,C9*
X53656666Y-56385714D02*
X53618571Y-56423809D01*
X53504285Y-56461904D01*
X53428095Y-56461904D01*
X53313809Y-56423809D01*
X53237619Y-56347619D01*
X53199523Y-56271428D01*
X53161428Y-56119047D01*
X53161428Y-56004761D01*
X53199523Y-55852380D01*
X53237619Y-55776190D01*
X53313809Y-55700000D01*
X53428095Y-55661904D01*
X53504285Y-55661904D01*
X53618571Y-55700000D01*
X53656666Y-55738095D01*
X54037619Y-56461904D02*
X54190000Y-56461904D01*
X54266190Y-56423809D01*
X54304285Y-56385714D01*
X54380476Y-56271428D01*
X54418571Y-56119047D01*
X54418571Y-55814285D01*
X54380476Y-55738095D01*
X54342380Y-55700000D01*
X54266190Y-55661904D01*
X54113809Y-55661904D01*
X54037619Y-55700000D01*
X53999523Y-55738095D01*
X53961428Y-55814285D01*
X53961428Y-56004761D01*
X53999523Y-56080952D01*
X54037619Y-56119047D01*
X54113809Y-56157142D01*
X54266190Y-56157142D01*
X54342380Y-56119047D01*
X54380476Y-56080952D01*
X54418571Y-56004761D01*
G04 #@! TO.C,C1*
X72307142Y-58506666D02*
X72354761Y-58554285D01*
X72402380Y-58697142D01*
X72402380Y-58792380D01*
X72354761Y-58935238D01*
X72259523Y-59030476D01*
X72164285Y-59078095D01*
X71973809Y-59125714D01*
X71830952Y-59125714D01*
X71640476Y-59078095D01*
X71545238Y-59030476D01*
X71450000Y-58935238D01*
X71402380Y-58792380D01*
X71402380Y-58697142D01*
X71450000Y-58554285D01*
X71497619Y-58506666D01*
X72402380Y-57554285D02*
X72402380Y-58125714D01*
X72402380Y-57840000D02*
X71402380Y-57840000D01*
X71545238Y-57935238D01*
X71640476Y-58030476D01*
X71688095Y-58125714D01*
G04 #@! TO.C,C2*
X66023333Y-54787142D02*
X65975714Y-54834761D01*
X65832857Y-54882380D01*
X65737619Y-54882380D01*
X65594761Y-54834761D01*
X65499523Y-54739523D01*
X65451904Y-54644285D01*
X65404285Y-54453809D01*
X65404285Y-54310952D01*
X65451904Y-54120476D01*
X65499523Y-54025238D01*
X65594761Y-53930000D01*
X65737619Y-53882380D01*
X65832857Y-53882380D01*
X65975714Y-53930000D01*
X66023333Y-53977619D01*
X66404285Y-53977619D02*
X66451904Y-53930000D01*
X66547142Y-53882380D01*
X66785238Y-53882380D01*
X66880476Y-53930000D01*
X66928095Y-53977619D01*
X66975714Y-54072857D01*
X66975714Y-54168095D01*
X66928095Y-54310952D01*
X66356666Y-54882380D01*
X66975714Y-54882380D01*
G04 #@! TO.C,C17*
X63307142Y-56932857D02*
X63354761Y-56980476D01*
X63402380Y-57123333D01*
X63402380Y-57218571D01*
X63354761Y-57361428D01*
X63259523Y-57456666D01*
X63164285Y-57504285D01*
X62973809Y-57551904D01*
X62830952Y-57551904D01*
X62640476Y-57504285D01*
X62545238Y-57456666D01*
X62450000Y-57361428D01*
X62402380Y-57218571D01*
X62402380Y-57123333D01*
X62450000Y-56980476D01*
X62497619Y-56932857D01*
X63402380Y-55980476D02*
X63402380Y-56551904D01*
X63402380Y-56266190D02*
X62402380Y-56266190D01*
X62545238Y-56361428D01*
X62640476Y-56456666D01*
X62688095Y-56551904D01*
X62402380Y-55647142D02*
X62402380Y-54980476D01*
X63402380Y-55409047D01*
G04 #@! TO.C,Y1*
X63226190Y-53016190D02*
X63702380Y-53016190D01*
X62702380Y-53349523D02*
X63226190Y-53016190D01*
X62702380Y-52682857D01*
X63702380Y-51825714D02*
X63702380Y-52397142D01*
X63702380Y-52111428D02*
X62702380Y-52111428D01*
X62845238Y-52206666D01*
X62940476Y-52301904D01*
X62988095Y-52397142D01*
G04 #@! TO.C,R5*
X82383333Y-58692380D02*
X82050000Y-58216190D01*
X81811904Y-58692380D02*
X81811904Y-57692380D01*
X82192857Y-57692380D01*
X82288095Y-57740000D01*
X82335714Y-57787619D01*
X82383333Y-57882857D01*
X82383333Y-58025714D01*
X82335714Y-58120952D01*
X82288095Y-58168571D01*
X82192857Y-58216190D01*
X81811904Y-58216190D01*
X83288095Y-57692380D02*
X82811904Y-57692380D01*
X82764285Y-58168571D01*
X82811904Y-58120952D01*
X82907142Y-58073333D01*
X83145238Y-58073333D01*
X83240476Y-58120952D01*
X83288095Y-58168571D01*
X83335714Y-58263809D01*
X83335714Y-58501904D01*
X83288095Y-58597142D01*
X83240476Y-58644761D01*
X83145238Y-58692380D01*
X82907142Y-58692380D01*
X82811904Y-58644761D01*
X82764285Y-58597142D01*
G04 #@! TO.C,R10*
X34467142Y-59222380D02*
X34133809Y-58746190D01*
X33895714Y-59222380D02*
X33895714Y-58222380D01*
X34276666Y-58222380D01*
X34371904Y-58270000D01*
X34419523Y-58317619D01*
X34467142Y-58412857D01*
X34467142Y-58555714D01*
X34419523Y-58650952D01*
X34371904Y-58698571D01*
X34276666Y-58746190D01*
X33895714Y-58746190D01*
X35419523Y-59222380D02*
X34848095Y-59222380D01*
X35133809Y-59222380D02*
X35133809Y-58222380D01*
X35038571Y-58365238D01*
X34943333Y-58460476D01*
X34848095Y-58508095D01*
X36038571Y-58222380D02*
X36133809Y-58222380D01*
X36229047Y-58270000D01*
X36276666Y-58317619D01*
X36324285Y-58412857D01*
X36371904Y-58603333D01*
X36371904Y-58841428D01*
X36324285Y-59031904D01*
X36276666Y-59127142D01*
X36229047Y-59174761D01*
X36133809Y-59222380D01*
X36038571Y-59222380D01*
X35943333Y-59174761D01*
X35895714Y-59127142D01*
X35848095Y-59031904D01*
X35800476Y-58841428D01*
X35800476Y-58603333D01*
X35848095Y-58412857D01*
X35895714Y-58317619D01*
X35943333Y-58270000D01*
X36038571Y-58222380D01*
G04 #@! TO.C,R12*
X76352380Y-53382857D02*
X75876190Y-53716190D01*
X76352380Y-53954285D02*
X75352380Y-53954285D01*
X75352380Y-53573333D01*
X75400000Y-53478095D01*
X75447619Y-53430476D01*
X75542857Y-53382857D01*
X75685714Y-53382857D01*
X75780952Y-53430476D01*
X75828571Y-53478095D01*
X75876190Y-53573333D01*
X75876190Y-53954285D01*
X76352380Y-52430476D02*
X76352380Y-53001904D01*
X76352380Y-52716190D02*
X75352380Y-52716190D01*
X75495238Y-52811428D01*
X75590476Y-52906666D01*
X75638095Y-53001904D01*
X75447619Y-52049523D02*
X75400000Y-52001904D01*
X75352380Y-51906666D01*
X75352380Y-51668571D01*
X75400000Y-51573333D01*
X75447619Y-51525714D01*
X75542857Y-51478095D01*
X75638095Y-51478095D01*
X75780952Y-51525714D01*
X76352380Y-52097142D01*
X76352380Y-51478095D01*
G04 #@! TO.C,R4*
X68183333Y-54042380D02*
X67850000Y-53566190D01*
X67611904Y-54042380D02*
X67611904Y-53042380D01*
X67992857Y-53042380D01*
X68088095Y-53090000D01*
X68135714Y-53137619D01*
X68183333Y-53232857D01*
X68183333Y-53375714D01*
X68135714Y-53470952D01*
X68088095Y-53518571D01*
X67992857Y-53566190D01*
X67611904Y-53566190D01*
X69040476Y-53375714D02*
X69040476Y-54042380D01*
X68802380Y-52994761D02*
X68564285Y-53709047D01*
X69183333Y-53709047D01*
G04 #@! TO.C,R9*
X33323333Y-56612380D02*
X32990000Y-56136190D01*
X32751904Y-56612380D02*
X32751904Y-55612380D01*
X33132857Y-55612380D01*
X33228095Y-55660000D01*
X33275714Y-55707619D01*
X33323333Y-55802857D01*
X33323333Y-55945714D01*
X33275714Y-56040952D01*
X33228095Y-56088571D01*
X33132857Y-56136190D01*
X32751904Y-56136190D01*
X33799523Y-56612380D02*
X33990000Y-56612380D01*
X34085238Y-56564761D01*
X34132857Y-56517142D01*
X34228095Y-56374285D01*
X34275714Y-56183809D01*
X34275714Y-55802857D01*
X34228095Y-55707619D01*
X34180476Y-55660000D01*
X34085238Y-55612380D01*
X33894761Y-55612380D01*
X33799523Y-55660000D01*
X33751904Y-55707619D01*
X33704285Y-55802857D01*
X33704285Y-56040952D01*
X33751904Y-56136190D01*
X33799523Y-56183809D01*
X33894761Y-56231428D01*
X34085238Y-56231428D01*
X34180476Y-56183809D01*
X34228095Y-56136190D01*
X34275714Y-56040952D01*
G04 #@! TO.C,R1*
X72983333Y-53442380D02*
X72650000Y-52966190D01*
X72411904Y-53442380D02*
X72411904Y-52442380D01*
X72792857Y-52442380D01*
X72888095Y-52490000D01*
X72935714Y-52537619D01*
X72983333Y-52632857D01*
X72983333Y-52775714D01*
X72935714Y-52870952D01*
X72888095Y-52918571D01*
X72792857Y-52966190D01*
X72411904Y-52966190D01*
X73935714Y-53442380D02*
X73364285Y-53442380D01*
X73650000Y-53442380D02*
X73650000Y-52442380D01*
X73554761Y-52585238D01*
X73459523Y-52680476D01*
X73364285Y-52728095D01*
G04 #@! TO.C,R8*
X70883333Y-52242380D02*
X70550000Y-51766190D01*
X70311904Y-52242380D02*
X70311904Y-51242380D01*
X70692857Y-51242380D01*
X70788095Y-51290000D01*
X70835714Y-51337619D01*
X70883333Y-51432857D01*
X70883333Y-51575714D01*
X70835714Y-51670952D01*
X70788095Y-51718571D01*
X70692857Y-51766190D01*
X70311904Y-51766190D01*
X71454761Y-51670952D02*
X71359523Y-51623333D01*
X71311904Y-51575714D01*
X71264285Y-51480476D01*
X71264285Y-51432857D01*
X71311904Y-51337619D01*
X71359523Y-51290000D01*
X71454761Y-51242380D01*
X71645238Y-51242380D01*
X71740476Y-51290000D01*
X71788095Y-51337619D01*
X71835714Y-51432857D01*
X71835714Y-51480476D01*
X71788095Y-51575714D01*
X71740476Y-51623333D01*
X71645238Y-51670952D01*
X71454761Y-51670952D01*
X71359523Y-51718571D01*
X71311904Y-51766190D01*
X71264285Y-51861428D01*
X71264285Y-52051904D01*
X71311904Y-52147142D01*
X71359523Y-52194761D01*
X71454761Y-52242380D01*
X71645238Y-52242380D01*
X71740476Y-52194761D01*
X71788095Y-52147142D01*
X71835714Y-52051904D01*
X71835714Y-51861428D01*
X71788095Y-51766190D01*
X71740476Y-51718571D01*
X71645238Y-51670952D01*
G04 #@! TO.C,R11*
X65002380Y-56882857D02*
X64526190Y-57216190D01*
X65002380Y-57454285D02*
X64002380Y-57454285D01*
X64002380Y-57073333D01*
X64050000Y-56978095D01*
X64097619Y-56930476D01*
X64192857Y-56882857D01*
X64335714Y-56882857D01*
X64430952Y-56930476D01*
X64478571Y-56978095D01*
X64526190Y-57073333D01*
X64526190Y-57454285D01*
X65002380Y-55930476D02*
X65002380Y-56501904D01*
X65002380Y-56216190D02*
X64002380Y-56216190D01*
X64145238Y-56311428D01*
X64240476Y-56406666D01*
X64288095Y-56501904D01*
X65002380Y-54978095D02*
X65002380Y-55549523D01*
X65002380Y-55263809D02*
X64002380Y-55263809D01*
X64145238Y-55359047D01*
X64240476Y-55454285D01*
X64288095Y-55549523D01*
G04 #@! TO.C,J1*
X52013333Y-55631904D02*
X52013333Y-56203333D01*
X51975238Y-56317619D01*
X51899047Y-56393809D01*
X51784761Y-56431904D01*
X51708571Y-56431904D01*
X52813333Y-56431904D02*
X52356190Y-56431904D01*
X52584761Y-56431904D02*
X52584761Y-55631904D01*
X52508571Y-55746190D01*
X52432380Y-55822380D01*
X52356190Y-55860476D01*
G04 #@! TO.C,J2*
X26757380Y-52233333D02*
X27471666Y-52233333D01*
X27614523Y-52280952D01*
X27709761Y-52376190D01*
X27757380Y-52519047D01*
X27757380Y-52614285D01*
X26852619Y-51804761D02*
X26805000Y-51757142D01*
X26757380Y-51661904D01*
X26757380Y-51423809D01*
X26805000Y-51328571D01*
X26852619Y-51280952D01*
X26947857Y-51233333D01*
X27043095Y-51233333D01*
X27185952Y-51280952D01*
X27757380Y-51852380D01*
X27757380Y-51233333D01*
G04 #@! TO.C,D1*
X75411904Y-56392380D02*
X75411904Y-55392380D01*
X75650000Y-55392380D01*
X75792857Y-55440000D01*
X75888095Y-55535238D01*
X75935714Y-55630476D01*
X75983333Y-55820952D01*
X75983333Y-55963809D01*
X75935714Y-56154285D01*
X75888095Y-56249523D01*
X75792857Y-56344761D01*
X75650000Y-56392380D01*
X75411904Y-56392380D01*
X76935714Y-56392380D02*
X76364285Y-56392380D01*
X76650000Y-56392380D02*
X76650000Y-55392380D01*
X76554761Y-55535238D01*
X76459523Y-55630476D01*
X76364285Y-55678095D01*
G04 #@! TO.C,J3*
X27357380Y-58633333D02*
X28071666Y-58633333D01*
X28214523Y-58680952D01*
X28309761Y-58776190D01*
X28357380Y-58919047D01*
X28357380Y-59014285D01*
X27357380Y-58252380D02*
X27357380Y-57633333D01*
X27738333Y-57966666D01*
X27738333Y-57823809D01*
X27785952Y-57728571D01*
X27833571Y-57680952D01*
X27928809Y-57633333D01*
X28166904Y-57633333D01*
X28262142Y-57680952D01*
X28309761Y-57728571D01*
X28357380Y-57823809D01*
X28357380Y-58109523D01*
X28309761Y-58204761D01*
X28262142Y-58252380D01*
G04 #@! TO.C,J4*
X55881666Y-54597380D02*
X55881666Y-55311666D01*
X55834047Y-55454523D01*
X55738809Y-55549761D01*
X55595952Y-55597380D01*
X55500714Y-55597380D01*
X56786428Y-54930714D02*
X56786428Y-55597380D01*
X56548333Y-54549761D02*
X56310238Y-55264047D01*
X56929285Y-55264047D01*
G04 #@! TO.C,Q3*
X70224761Y-54827619D02*
X70129523Y-54780000D01*
X70034285Y-54684761D01*
X69891428Y-54541904D01*
X69796190Y-54494285D01*
X69700952Y-54494285D01*
X69748571Y-54732380D02*
X69653333Y-54684761D01*
X69558095Y-54589523D01*
X69510476Y-54399047D01*
X69510476Y-54065714D01*
X69558095Y-53875238D01*
X69653333Y-53780000D01*
X69748571Y-53732380D01*
X69939047Y-53732380D01*
X70034285Y-53780000D01*
X70129523Y-53875238D01*
X70177142Y-54065714D01*
X70177142Y-54399047D01*
X70129523Y-54589523D01*
X70034285Y-54684761D01*
X69939047Y-54732380D01*
X69748571Y-54732380D01*
X70510476Y-53732380D02*
X71129523Y-53732380D01*
X70796190Y-54113333D01*
X70939047Y-54113333D01*
X71034285Y-54160952D01*
X71081904Y-54208571D01*
X71129523Y-54303809D01*
X71129523Y-54541904D01*
X71081904Y-54637142D01*
X71034285Y-54684761D01*
X70939047Y-54732380D01*
X70653333Y-54732380D01*
X70558095Y-54684761D01*
X70510476Y-54637142D01*
G04 #@! TO.C,U4*
X76974026Y-51241522D02*
X77546446Y-51813942D01*
X77647461Y-51847614D01*
X77714805Y-51847614D01*
X77815820Y-51813942D01*
X77950507Y-51679255D01*
X77984179Y-51578240D01*
X77984179Y-51510896D01*
X77950507Y-51409881D01*
X77378087Y-50837461D01*
X78253553Y-50433400D02*
X78724957Y-50904805D01*
X77815820Y-50332385D02*
X78152538Y-51005820D01*
X78590270Y-50568087D01*
G04 #@! TO.C,U3*
X44848095Y-57692380D02*
X44848095Y-58501904D01*
X44895714Y-58597142D01*
X44943333Y-58644761D01*
X45038571Y-58692380D01*
X45229047Y-58692380D01*
X45324285Y-58644761D01*
X45371904Y-58597142D01*
X45419523Y-58501904D01*
X45419523Y-57692380D01*
X45800476Y-57692380D02*
X46419523Y-57692380D01*
X46086190Y-58073333D01*
X46229047Y-58073333D01*
X46324285Y-58120952D01*
X46371904Y-58168571D01*
X46419523Y-58263809D01*
X46419523Y-58501904D01*
X46371904Y-58597142D01*
X46324285Y-58644761D01*
X46229047Y-58692380D01*
X45943333Y-58692380D01*
X45848095Y-58644761D01*
X45800476Y-58597142D01*
G04 #@! TD*
M02*
