G04 #@! TF.GenerationSoftware,KiCad,Pcbnew,5.0.1*
G04 #@! TF.CreationDate,2018-12-11T18:26:41-05:00*
G04 #@! TF.ProjectId,controller,636F6E74726F6C6C65722E6B69636164,rev?*
G04 #@! TF.SameCoordinates,Original*
G04 #@! TF.FileFunction,Soldermask,Bot*
G04 #@! TF.FilePolarity,Negative*
%FSLAX46Y46*%
G04 Gerber Fmt 4.6, Leading zero omitted, Abs format (unit mm)*
G04 Created by KiCad (PCBNEW 5.0.1) date Tue 11 Dec 2018 06:26:41 PM EST*
%MOMM*%
%LPD*%
G01*
G04 APERTURE LIST*
%ADD10C,0.100000*%
G04 APERTURE END LIST*
D10*
G36*
X42886200Y-59391200D02*
X41533800Y-59391200D01*
X41533800Y-58488800D01*
X42886200Y-58488800D01*
X42886200Y-59391200D01*
X42886200Y-59391200D01*
G37*
G36*
X40986200Y-59391200D02*
X39633800Y-59391200D01*
X39633800Y-58488800D01*
X40986200Y-58488800D01*
X40986200Y-59391200D01*
X40986200Y-59391200D01*
G37*
G36*
X74308716Y-59038311D02*
X72906316Y-59038311D01*
X72906316Y-57385911D01*
X74308716Y-57385911D01*
X74308716Y-59038311D01*
X74308716Y-59038311D01*
G37*
G36*
X67283716Y-59038311D02*
X64931316Y-59038311D01*
X64931316Y-57060911D01*
X67283716Y-57060911D01*
X67283716Y-59038311D01*
X67283716Y-59038311D01*
G37*
G36*
X30982951Y-57732137D02*
X30982954Y-57732138D01*
X30982955Y-57732138D01*
X31008421Y-57739863D01*
X31091568Y-57765085D01*
X31191670Y-57818591D01*
X31279406Y-57890594D01*
X31351409Y-57978330D01*
X31404915Y-58078432D01*
X31437863Y-58187049D01*
X31448988Y-58300000D01*
X31437863Y-58412951D01*
X31437862Y-58412954D01*
X31437862Y-58412955D01*
X31432185Y-58431668D01*
X31404915Y-58521568D01*
X31351409Y-58621670D01*
X31279406Y-58709406D01*
X31191670Y-58781409D01*
X31091568Y-58834915D01*
X31008421Y-58860137D01*
X30982955Y-58867862D01*
X30982954Y-58867862D01*
X30982951Y-58867863D01*
X30898303Y-58876200D01*
X30841697Y-58876200D01*
X30757049Y-58867863D01*
X30757046Y-58867862D01*
X30757045Y-58867862D01*
X30731579Y-58860137D01*
X30648432Y-58834915D01*
X30548330Y-58781409D01*
X30460594Y-58709406D01*
X30388591Y-58621670D01*
X30335085Y-58521568D01*
X30307815Y-58431668D01*
X30302138Y-58412955D01*
X30302138Y-58412954D01*
X30302137Y-58412951D01*
X30291012Y-58300000D01*
X30302137Y-58187049D01*
X30335085Y-58078432D01*
X30388591Y-57978330D01*
X30460594Y-57890594D01*
X30548330Y-57818591D01*
X30648432Y-57765085D01*
X30731579Y-57739863D01*
X30757045Y-57732138D01*
X30757046Y-57732138D01*
X30757049Y-57732137D01*
X30841697Y-57723800D01*
X30898303Y-57723800D01*
X30982951Y-57732137D01*
X30982951Y-57732137D01*
G37*
G36*
X30176200Y-58876200D02*
X29023800Y-58876200D01*
X29023800Y-57723800D01*
X30176200Y-57723800D01*
X30176200Y-58876200D01*
X30176200Y-58876200D01*
G37*
G36*
X32252951Y-57732137D02*
X32252954Y-57732138D01*
X32252955Y-57732138D01*
X32278421Y-57739863D01*
X32361568Y-57765085D01*
X32461670Y-57818591D01*
X32549406Y-57890594D01*
X32621409Y-57978330D01*
X32674915Y-58078432D01*
X32707863Y-58187049D01*
X32718988Y-58300000D01*
X32707863Y-58412951D01*
X32707862Y-58412954D01*
X32707862Y-58412955D01*
X32702185Y-58431668D01*
X32674915Y-58521568D01*
X32621409Y-58621670D01*
X32549406Y-58709406D01*
X32461670Y-58781409D01*
X32361568Y-58834915D01*
X32278421Y-58860137D01*
X32252955Y-58867862D01*
X32252954Y-58867862D01*
X32252951Y-58867863D01*
X32168303Y-58876200D01*
X32111697Y-58876200D01*
X32027049Y-58867863D01*
X32027046Y-58867862D01*
X32027045Y-58867862D01*
X32001579Y-58860137D01*
X31918432Y-58834915D01*
X31818330Y-58781409D01*
X31730594Y-58709406D01*
X31658591Y-58621670D01*
X31605085Y-58521568D01*
X31577815Y-58431668D01*
X31572138Y-58412955D01*
X31572138Y-58412954D01*
X31572137Y-58412951D01*
X31561012Y-58300000D01*
X31572137Y-58187049D01*
X31605085Y-58078432D01*
X31658591Y-57978330D01*
X31730594Y-57890594D01*
X31818330Y-57818591D01*
X31918432Y-57765085D01*
X32001579Y-57739863D01*
X32027045Y-57732138D01*
X32027046Y-57732138D01*
X32027049Y-57732137D01*
X32111697Y-57723800D01*
X32168303Y-57723800D01*
X32252951Y-57732137D01*
X32252951Y-57732137D01*
G37*
G36*
X53176200Y-58766200D02*
X51323800Y-58766200D01*
X51323800Y-56913800D01*
X53176200Y-56913800D01*
X53176200Y-58766200D01*
X53176200Y-58766200D01*
G37*
G36*
X55692951Y-57542137D02*
X55692954Y-57542138D01*
X55692955Y-57542138D01*
X55710377Y-57547423D01*
X55801568Y-57575085D01*
X55901670Y-57628591D01*
X55989406Y-57700594D01*
X56061409Y-57788330D01*
X56114915Y-57888432D01*
X56147863Y-57997049D01*
X56158988Y-58110000D01*
X56147863Y-58222951D01*
X56114915Y-58331568D01*
X56061409Y-58431670D01*
X55989406Y-58519406D01*
X55901670Y-58591409D01*
X55801568Y-58644915D01*
X55718421Y-58670137D01*
X55692955Y-58677862D01*
X55692954Y-58677862D01*
X55692951Y-58677863D01*
X55608303Y-58686200D01*
X55551697Y-58686200D01*
X55467049Y-58677863D01*
X55467046Y-58677862D01*
X55467045Y-58677862D01*
X55441579Y-58670137D01*
X55358432Y-58644915D01*
X55258330Y-58591409D01*
X55170594Y-58519406D01*
X55098591Y-58431670D01*
X55045085Y-58331568D01*
X55012137Y-58222951D01*
X55001012Y-58110000D01*
X55012137Y-57997049D01*
X55045085Y-57888432D01*
X55098591Y-57788330D01*
X55170594Y-57700594D01*
X55258330Y-57628591D01*
X55358432Y-57575085D01*
X55449623Y-57547423D01*
X55467045Y-57542138D01*
X55467046Y-57542138D01*
X55467049Y-57542137D01*
X55551697Y-57533800D01*
X55608303Y-57533800D01*
X55692951Y-57542137D01*
X55692951Y-57542137D01*
G37*
G36*
X56962951Y-57542137D02*
X56962954Y-57542138D01*
X56962955Y-57542138D01*
X56980377Y-57547423D01*
X57071568Y-57575085D01*
X57171670Y-57628591D01*
X57259406Y-57700594D01*
X57331409Y-57788330D01*
X57384915Y-57888432D01*
X57417863Y-57997049D01*
X57428988Y-58110000D01*
X57417863Y-58222951D01*
X57384915Y-58331568D01*
X57331409Y-58431670D01*
X57259406Y-58519406D01*
X57171670Y-58591409D01*
X57071568Y-58644915D01*
X56988421Y-58670137D01*
X56962955Y-58677862D01*
X56962954Y-58677862D01*
X56962951Y-58677863D01*
X56878303Y-58686200D01*
X56821697Y-58686200D01*
X56737049Y-58677863D01*
X56737046Y-58677862D01*
X56737045Y-58677862D01*
X56711579Y-58670137D01*
X56628432Y-58644915D01*
X56528330Y-58591409D01*
X56440594Y-58519406D01*
X56368591Y-58431670D01*
X56315085Y-58331568D01*
X56282137Y-58222951D01*
X56271012Y-58110000D01*
X56282137Y-57997049D01*
X56315085Y-57888432D01*
X56368591Y-57788330D01*
X56440594Y-57700594D01*
X56528330Y-57628591D01*
X56628432Y-57575085D01*
X56719623Y-57547423D01*
X56737045Y-57542138D01*
X56737046Y-57542138D01*
X56737049Y-57542137D01*
X56821697Y-57533800D01*
X56878303Y-57533800D01*
X56962951Y-57542137D01*
X56962951Y-57542137D01*
G37*
G36*
X75742951Y-57272137D02*
X75742954Y-57272138D01*
X75742955Y-57272138D01*
X75768421Y-57279863D01*
X75851568Y-57305085D01*
X75951670Y-57358591D01*
X76039406Y-57430594D01*
X76111409Y-57518330D01*
X76164915Y-57618432D01*
X76189838Y-57700594D01*
X76196878Y-57723800D01*
X76197863Y-57727049D01*
X76208988Y-57840000D01*
X76197863Y-57952951D01*
X76164915Y-58061568D01*
X76111409Y-58161670D01*
X76039406Y-58249406D01*
X75951670Y-58321409D01*
X75851568Y-58374915D01*
X75768421Y-58400137D01*
X75742955Y-58407862D01*
X75742954Y-58407862D01*
X75742951Y-58407863D01*
X75658303Y-58416200D01*
X75601697Y-58416200D01*
X75517049Y-58407863D01*
X75517046Y-58407862D01*
X75517045Y-58407862D01*
X75491579Y-58400137D01*
X75408432Y-58374915D01*
X75308330Y-58321409D01*
X75220594Y-58249406D01*
X75148591Y-58161670D01*
X75095085Y-58061568D01*
X75062137Y-57952951D01*
X75051012Y-57840000D01*
X75062137Y-57727049D01*
X75063123Y-57723800D01*
X75070162Y-57700594D01*
X75095085Y-57618432D01*
X75148591Y-57518330D01*
X75220594Y-57430594D01*
X75308330Y-57358591D01*
X75408432Y-57305085D01*
X75491579Y-57279863D01*
X75517045Y-57272138D01*
X75517046Y-57272138D01*
X75517049Y-57272137D01*
X75601697Y-57263800D01*
X75658303Y-57263800D01*
X75742951Y-57272137D01*
X75742951Y-57272137D01*
G37*
G36*
X77476200Y-58416200D02*
X76323800Y-58416200D01*
X76323800Y-57263800D01*
X77476200Y-57263800D01*
X77476200Y-58416200D01*
X77476200Y-58416200D01*
G37*
G36*
X47636200Y-58331200D02*
X46283800Y-58331200D01*
X46283800Y-57428800D01*
X47636200Y-57428800D01*
X47636200Y-58331200D01*
X47636200Y-58331200D01*
G37*
G36*
X49536200Y-58331200D02*
X48183800Y-58331200D01*
X48183800Y-57428800D01*
X49536200Y-57428800D01*
X49536200Y-58331200D01*
X49536200Y-58331200D01*
G37*
G36*
X69613716Y-58213311D02*
X67901316Y-58213311D01*
X67901316Y-57410911D01*
X69613716Y-57410911D01*
X69613716Y-58213311D01*
X69613716Y-58213311D01*
G37*
G36*
X72313716Y-58213311D02*
X70601316Y-58213311D01*
X70601316Y-57410911D01*
X72313716Y-57410911D01*
X72313716Y-58213311D01*
X72313716Y-58213311D01*
G37*
G36*
X82720000Y-56519200D02*
X82720976Y-56529111D01*
X82723867Y-56538640D01*
X82728561Y-56547423D01*
X82734879Y-56555121D01*
X82742577Y-56561439D01*
X82751360Y-56566133D01*
X82760889Y-56569024D01*
X82770800Y-56570000D01*
X82820000Y-56570000D01*
X82820000Y-57510000D01*
X82770800Y-57510000D01*
X82760889Y-57510976D01*
X82751360Y-57513867D01*
X82742577Y-57518561D01*
X82734879Y-57524879D01*
X82728561Y-57532577D01*
X82723867Y-57541360D01*
X82720976Y-57550889D01*
X82720000Y-57560800D01*
X82720000Y-58110000D01*
X80780000Y-58110000D01*
X80780000Y-57560800D01*
X80779024Y-57550889D01*
X80776133Y-57541360D01*
X80771439Y-57532577D01*
X80765121Y-57524879D01*
X80757423Y-57518561D01*
X80748640Y-57513867D01*
X80739111Y-57510976D01*
X80729200Y-57510000D01*
X80680000Y-57510000D01*
X80680000Y-56570000D01*
X80729200Y-56570000D01*
X80739111Y-56569024D01*
X80748640Y-56566133D01*
X80757423Y-56561439D01*
X80758201Y-56560800D01*
X81220000Y-56560800D01*
X81220000Y-57519200D01*
X81220976Y-57529111D01*
X81223867Y-57538640D01*
X81228561Y-57547423D01*
X81234879Y-57555121D01*
X81242577Y-57561439D01*
X81251360Y-57566133D01*
X81260889Y-57569024D01*
X81270800Y-57570000D01*
X82229200Y-57570000D01*
X82239111Y-57569024D01*
X82248640Y-57566133D01*
X82257423Y-57561439D01*
X82265121Y-57555121D01*
X82271439Y-57547423D01*
X82276133Y-57538640D01*
X82279024Y-57529111D01*
X82280000Y-57519200D01*
X82280000Y-56560800D01*
X82279024Y-56550889D01*
X82276133Y-56541360D01*
X82271439Y-56532577D01*
X82265121Y-56524879D01*
X82257423Y-56518561D01*
X82248640Y-56513867D01*
X82239111Y-56510976D01*
X82229200Y-56510000D01*
X81270800Y-56510000D01*
X81260889Y-56510976D01*
X81251360Y-56513867D01*
X81242577Y-56518561D01*
X81234879Y-56524879D01*
X81228561Y-56532577D01*
X81223867Y-56541360D01*
X81220976Y-56550889D01*
X81220000Y-56560800D01*
X80758201Y-56560800D01*
X80765121Y-56555121D01*
X80771439Y-56547423D01*
X80776133Y-56538640D01*
X80779024Y-56529111D01*
X80780000Y-56519200D01*
X80780000Y-55970000D01*
X82720000Y-55970000D01*
X82720000Y-56519200D01*
X82720000Y-56519200D01*
G37*
G36*
X57426200Y-57416200D02*
X56273800Y-57416200D01*
X56273800Y-56263800D01*
X57426200Y-56263800D01*
X57426200Y-57416200D01*
X57426200Y-57416200D01*
G37*
G36*
X55692951Y-56272137D02*
X55692954Y-56272138D01*
X55692955Y-56272138D01*
X55718421Y-56279863D01*
X55801568Y-56305085D01*
X55901670Y-56358591D01*
X55989406Y-56430594D01*
X56061409Y-56518330D01*
X56114915Y-56618432D01*
X56147863Y-56727049D01*
X56158988Y-56840000D01*
X56147863Y-56952951D01*
X56114915Y-57061568D01*
X56061409Y-57161670D01*
X55989406Y-57249406D01*
X55901670Y-57321409D01*
X55801568Y-57374915D01*
X55718421Y-57400137D01*
X55692955Y-57407862D01*
X55692954Y-57407862D01*
X55692951Y-57407863D01*
X55608303Y-57416200D01*
X55551697Y-57416200D01*
X55467049Y-57407863D01*
X55467046Y-57407862D01*
X55467045Y-57407862D01*
X55441579Y-57400137D01*
X55358432Y-57374915D01*
X55258330Y-57321409D01*
X55170594Y-57249406D01*
X55098591Y-57161670D01*
X55045085Y-57061568D01*
X55012137Y-56952951D01*
X55001012Y-56840000D01*
X55012137Y-56727049D01*
X55045085Y-56618432D01*
X55098591Y-56518330D01*
X55170594Y-56430594D01*
X55258330Y-56358591D01*
X55358432Y-56305085D01*
X55441579Y-56279863D01*
X55467045Y-56272138D01*
X55467046Y-56272138D01*
X55467049Y-56272137D01*
X55551697Y-56263800D01*
X55608303Y-56263800D01*
X55692951Y-56272137D01*
X55692951Y-56272137D01*
G37*
G36*
X69613716Y-57263311D02*
X67901316Y-57263311D01*
X67901316Y-56460911D01*
X69613716Y-56460911D01*
X69613716Y-57263311D01*
X69613716Y-57263311D01*
G37*
G36*
X38546200Y-56926200D02*
X37893800Y-56926200D01*
X37893800Y-56173800D01*
X38546200Y-56173800D01*
X38546200Y-56926200D01*
X38546200Y-56926200D01*
G37*
G36*
X40180253Y-56907876D02*
X39527853Y-56907876D01*
X39527853Y-56155476D01*
X40180253Y-56155476D01*
X40180253Y-56907876D01*
X40180253Y-56907876D01*
G37*
G36*
X39380253Y-56907876D02*
X38727853Y-56907876D01*
X38727853Y-56155476D01*
X39380253Y-56155476D01*
X39380253Y-56907876D01*
X39380253Y-56907876D01*
G37*
G36*
X49536200Y-56871200D02*
X48183800Y-56871200D01*
X48183800Y-55968800D01*
X49536200Y-55968800D01*
X49536200Y-56871200D01*
X49536200Y-56871200D01*
G37*
G36*
X47636200Y-56871200D02*
X46283800Y-56871200D01*
X46283800Y-55968800D01*
X47636200Y-55968800D01*
X47636200Y-56871200D01*
X47636200Y-56871200D01*
G37*
G36*
X74308716Y-56538311D02*
X72906316Y-56538311D01*
X72906316Y-54885911D01*
X74308716Y-54885911D01*
X74308716Y-56538311D01*
X74308716Y-56538311D01*
G37*
G36*
X67283716Y-56463311D02*
X64931316Y-56463311D01*
X64931316Y-54485911D01*
X67283716Y-54485911D01*
X67283716Y-56463311D01*
X67283716Y-56463311D01*
G37*
G36*
X69613716Y-56313311D02*
X67901316Y-56313311D01*
X67901316Y-55510911D01*
X69613716Y-55510911D01*
X69613716Y-56313311D01*
X69613716Y-56313311D01*
G37*
G36*
X72313716Y-56313311D02*
X70601316Y-56313311D01*
X70601316Y-55510911D01*
X72313716Y-55510911D01*
X72313716Y-56313311D01*
X72313716Y-56313311D01*
G37*
G36*
X50901200Y-56266200D02*
X49998800Y-56266200D01*
X49998800Y-54913800D01*
X50901200Y-54913800D01*
X50901200Y-56266200D01*
X50901200Y-56266200D01*
G37*
G36*
X33966200Y-56156200D02*
X32913800Y-56156200D01*
X32913800Y-54803800D01*
X33966200Y-54803800D01*
X33966200Y-56156200D01*
X33966200Y-56156200D01*
G37*
G36*
X38546200Y-55826200D02*
X37893800Y-55826200D01*
X37893800Y-55073800D01*
X38546200Y-55073800D01*
X38546200Y-55826200D01*
X38546200Y-55826200D01*
G37*
G36*
X39380253Y-55807876D02*
X38727853Y-55807876D01*
X38727853Y-55055476D01*
X39380253Y-55055476D01*
X39380253Y-55807876D01*
X39380253Y-55807876D01*
G37*
G36*
X40180253Y-55807876D02*
X39527853Y-55807876D01*
X39527853Y-55055476D01*
X40180253Y-55055476D01*
X40180253Y-55807876D01*
X40180253Y-55807876D01*
G37*
G36*
X78796200Y-55786200D02*
X77443800Y-55786200D01*
X77443800Y-54733800D01*
X78796200Y-54733800D01*
X78796200Y-55786200D01*
X78796200Y-55786200D01*
G37*
G36*
X76596200Y-55786200D02*
X75243800Y-55786200D01*
X75243800Y-54733800D01*
X76596200Y-54733800D01*
X76596200Y-55786200D01*
X76596200Y-55786200D01*
G37*
G36*
X82776200Y-55266200D02*
X82023800Y-55266200D01*
X82023800Y-54613800D01*
X82776200Y-54613800D01*
X82776200Y-55266200D01*
X82776200Y-55266200D01*
G37*
G36*
X81676200Y-55266200D02*
X80923800Y-55266200D01*
X80923800Y-54613800D01*
X81676200Y-54613800D01*
X81676200Y-55266200D01*
X81676200Y-55266200D01*
G37*
G36*
X48316200Y-54846200D02*
X47563800Y-54846200D01*
X47563800Y-54293800D01*
X48316200Y-54293800D01*
X48316200Y-54846200D01*
X48316200Y-54846200D01*
G37*
G36*
X49316200Y-54846200D02*
X48563800Y-54846200D01*
X48563800Y-54293800D01*
X49316200Y-54293800D01*
X49316200Y-54846200D01*
X49316200Y-54846200D01*
G37*
G36*
X40936200Y-54571200D02*
X39283800Y-54571200D01*
X39283800Y-53168800D01*
X40936200Y-53168800D01*
X40936200Y-54571200D01*
X40936200Y-54571200D01*
G37*
G36*
X38436200Y-54571200D02*
X36783800Y-54571200D01*
X36783800Y-53168800D01*
X38436200Y-53168800D01*
X38436200Y-54571200D01*
X38436200Y-54571200D01*
G37*
G36*
X82776200Y-54466200D02*
X82023800Y-54466200D01*
X82023800Y-53813800D01*
X82776200Y-53813800D01*
X82776200Y-54466200D01*
X82776200Y-54466200D01*
G37*
G36*
X81676200Y-54466200D02*
X80923800Y-54466200D01*
X80923800Y-53813800D01*
X81676200Y-53813800D01*
X81676200Y-54466200D01*
X81676200Y-54466200D01*
G37*
G36*
X54018072Y-53285943D02*
X54122931Y-53329377D01*
X54122933Y-53329378D01*
X54217306Y-53392436D01*
X54297564Y-53472694D01*
X54360622Y-53567067D01*
X54404057Y-53671929D01*
X54426200Y-53783249D01*
X54426200Y-53896751D01*
X54404057Y-54008071D01*
X54360622Y-54112933D01*
X54297564Y-54207306D01*
X54217306Y-54287564D01*
X54122933Y-54350622D01*
X54122932Y-54350623D01*
X54122931Y-54350623D01*
X54018072Y-54394057D01*
X53906751Y-54416200D01*
X53793249Y-54416200D01*
X53681928Y-54394057D01*
X53577069Y-54350623D01*
X53577068Y-54350623D01*
X53577067Y-54350622D01*
X53482694Y-54287564D01*
X53402436Y-54207306D01*
X53339378Y-54112933D01*
X53295943Y-54008071D01*
X53273800Y-53896751D01*
X53273800Y-53783249D01*
X53295943Y-53671929D01*
X53339378Y-53567067D01*
X53402436Y-53472694D01*
X53482694Y-53392436D01*
X53577067Y-53329378D01*
X53577069Y-53329377D01*
X53681928Y-53285943D01*
X53793249Y-53263800D01*
X53906751Y-53263800D01*
X54018072Y-53285943D01*
X54018072Y-53285943D01*
G37*
G36*
X50901200Y-54366200D02*
X49998800Y-54366200D01*
X49998800Y-53013800D01*
X50901200Y-53013800D01*
X50901200Y-54366200D01*
X50901200Y-54366200D01*
G37*
G36*
X33966200Y-53956200D02*
X32913800Y-53956200D01*
X32913800Y-52603800D01*
X33966200Y-52603800D01*
X33966200Y-53956200D01*
X33966200Y-53956200D01*
G37*
G36*
X48316200Y-53946200D02*
X47563800Y-53946200D01*
X47563800Y-53393800D01*
X48316200Y-53393800D01*
X48316200Y-53946200D01*
X48316200Y-53946200D01*
G37*
G36*
X49316200Y-53946200D02*
X48563800Y-53946200D01*
X48563800Y-53393800D01*
X49316200Y-53393800D01*
X49316200Y-53946200D01*
X49316200Y-53946200D01*
G37*
G36*
X83026200Y-53691200D02*
X81673800Y-53691200D01*
X81673800Y-52788800D01*
X83026200Y-52788800D01*
X83026200Y-53691200D01*
X83026200Y-53691200D01*
G37*
G36*
X81126200Y-53691200D02*
X79773800Y-53691200D01*
X79773800Y-52788800D01*
X81126200Y-52788800D01*
X81126200Y-53691200D01*
X81126200Y-53691200D01*
G37*
G36*
X54018072Y-51385943D02*
X54096891Y-51418591D01*
X54122933Y-51429378D01*
X54214549Y-51490594D01*
X54217307Y-51492437D01*
X54297563Y-51572693D01*
X54360623Y-51667069D01*
X54404057Y-51771928D01*
X54426200Y-51883249D01*
X54426200Y-51996751D01*
X54404057Y-52108072D01*
X54398466Y-52121569D01*
X54360622Y-52212933D01*
X54297564Y-52307306D01*
X54217306Y-52387564D01*
X54122933Y-52450622D01*
X54122932Y-52450623D01*
X54122931Y-52450623D01*
X54018072Y-52494057D01*
X53906751Y-52516200D01*
X53793249Y-52516200D01*
X53681928Y-52494057D01*
X53577069Y-52450623D01*
X53577068Y-52450623D01*
X53577067Y-52450622D01*
X53482694Y-52387564D01*
X53402436Y-52307306D01*
X53339378Y-52212933D01*
X53301534Y-52121569D01*
X53295943Y-52108072D01*
X53273800Y-51996751D01*
X53273800Y-51883249D01*
X53295943Y-51771928D01*
X53339377Y-51667069D01*
X53402437Y-51572693D01*
X53482693Y-51492437D01*
X53485451Y-51490594D01*
X53577067Y-51429378D01*
X53603109Y-51418591D01*
X53681928Y-51385943D01*
X53793249Y-51363800D01*
X53906751Y-51363800D01*
X54018072Y-51385943D01*
X54018072Y-51385943D01*
G37*
G36*
X30382951Y-51332137D02*
X30382954Y-51332138D01*
X30382955Y-51332138D01*
X30408421Y-51339863D01*
X30491568Y-51365085D01*
X30591670Y-51418591D01*
X30679406Y-51490594D01*
X30751409Y-51578330D01*
X30804915Y-51678432D01*
X30830137Y-51761579D01*
X30833277Y-51771929D01*
X30837863Y-51787049D01*
X30848988Y-51900000D01*
X30837863Y-52012951D01*
X30804915Y-52121568D01*
X30751409Y-52221670D01*
X30679406Y-52309406D01*
X30591670Y-52381409D01*
X30491568Y-52434915D01*
X30408421Y-52460137D01*
X30382955Y-52467862D01*
X30382954Y-52467862D01*
X30382951Y-52467863D01*
X30298303Y-52476200D01*
X30241697Y-52476200D01*
X30157049Y-52467863D01*
X30157046Y-52467862D01*
X30157045Y-52467862D01*
X30131579Y-52460137D01*
X30048432Y-52434915D01*
X29948330Y-52381409D01*
X29860594Y-52309406D01*
X29788591Y-52221670D01*
X29735085Y-52121568D01*
X29702137Y-52012951D01*
X29691012Y-51900000D01*
X29702137Y-51787049D01*
X29706724Y-51771929D01*
X29709863Y-51761579D01*
X29735085Y-51678432D01*
X29788591Y-51578330D01*
X29860594Y-51490594D01*
X29948330Y-51418591D01*
X30048432Y-51365085D01*
X30131579Y-51339863D01*
X30157045Y-51332138D01*
X30157046Y-51332138D01*
X30157049Y-51332137D01*
X30241697Y-51323800D01*
X30298303Y-51323800D01*
X30382951Y-51332137D01*
X30382951Y-51332137D01*
G37*
G36*
X29576200Y-52476200D02*
X28423800Y-52476200D01*
X28423800Y-51323800D01*
X29576200Y-51323800D01*
X29576200Y-52476200D01*
X29576200Y-52476200D01*
G37*
M02*
