M48
;DRILL file {KiCad 5.0.1} date Sun 09 Dec 2018 03:50:40 PM EST
;FORMAT={-:-/ absolute / inch / decimal}
FMAT,2
INCH,TZ
T1C0.0130
T2C0.0197
T3C0.0276
T4C0.0394
%
G90
G05
M72
T1
X1.2709Y-2.124
X1.3906Y-2.15
X1.4661Y-2.1815
X1.5238Y-2.0823
X1.5917Y-2.2209
X1.6301Y-2.3209
X1.6413Y-2.0803
X1.6442Y-2.1167
X1.6539Y-2.1831
X1.6646Y-2.226
X1.761Y-2.311
X1.775Y-2.02
X1.778Y-2.1079
X1.8055Y-2.1512
X1.8055Y-2.1866
X1.8422Y-2.0406
X1.8969Y-2.0465
X1.9217Y-2.0748
X1.9479Y-2.1639
X1.9658Y-2.1343
X1.983Y-2.0413
X2.0016Y-2.2408
X2.0283Y-2.0354
X2.0489Y-2.1693
X2.065Y-2.1492
X2.1008Y-2.176
X2.1831Y-2.0823
X2.1831Y-2.1504
X2.2164Y-2.1764
X2.252Y-2.1709
X2.3327Y-2.2988
X2.4863Y-2.1274
X2.4863Y-2.1925
X2.5121Y-2.2721
X2.5256Y-2.035
X2.5484Y-2.1248
X2.6035Y-2.1992
X2.6339Y-2.0114
X2.707Y-2.2387
X2.8642Y-2.0352
X2.8979Y-2.1934
X2.8979Y-2.2918
X2.9291Y-2.0193
X3.0079Y-2.0961
X3.0756Y-2.1756
X3.1268Y-2.324
X3.1594Y-2.0803
X3.2185Y-2.2476
X3.2421Y-2.0961
X3.2579Y-2.0311
X3.2579Y-2.0618
T2
X2.1201Y-2.0449
X2.1201Y-2.1197
T3
X2.9776Y-2.2772
X3.0276Y-2.2772
X2.1882Y-2.2378
X2.1882Y-2.2878
X2.2382Y-2.2378
X2.2382Y-2.2878
X1.1417Y-2.0433
X1.1917Y-2.0433
X1.1654Y-2.2953
X1.2154Y-2.2953
X1.2654Y-2.2953
T4
X2.0571Y-2.2772
T0
M30
