G04 #@! TF.GenerationSoftware,KiCad,Pcbnew,5.0.1*
G04 #@! TF.CreationDate,2018-12-04T21:14:06-05:00*
G04 #@! TF.ProjectId,receiver,72656365697665722E6B696361645F70,rev?*
G04 #@! TF.SameCoordinates,Original*
G04 #@! TF.FileFunction,Copper,L2,Bot,Signal*
G04 #@! TF.FilePolarity,Positive*
%FSLAX46Y46*%
G04 Gerber Fmt 4.6, Leading zero omitted, Abs format (unit mm)*
G04 Created by KiCad (PCBNEW 5.0.1) date Tue 04 Dec 2018 09:14:06 PM EST*
%MOMM*%
%LPD*%
G01*
G04 APERTURE LIST*
G04 #@! TA.AperFunction,BGAPad,CuDef*
%ADD10C,1.500000*%
G04 #@! TD*
G04 #@! TA.AperFunction,SMDPad,CuDef*
%ADD11R,1.200000X0.750000*%
G04 #@! TD*
G04 #@! TA.AperFunction,SMDPad,CuDef*
%ADD12R,0.750000X1.200000*%
G04 #@! TD*
G04 #@! TA.AperFunction,SMDPad,CuDef*
%ADD13R,1.250000X1.500000*%
G04 #@! TD*
G04 #@! TA.AperFunction,SMDPad,CuDef*
%ADD14R,1.500000X1.250000*%
G04 #@! TD*
G04 #@! TA.AperFunction,ComponentPad*
%ADD15C,1.800000*%
G04 #@! TD*
G04 #@! TA.AperFunction,ComponentPad*
%ADD16R,1.800000X1.800000*%
G04 #@! TD*
G04 #@! TA.AperFunction,SMDPad,CuDef*
%ADD17R,0.400000X0.600000*%
G04 #@! TD*
G04 #@! TA.AperFunction,SMDPad,CuDef*
%ADD18R,0.900000X1.200000*%
G04 #@! TD*
G04 #@! TA.AperFunction,ComponentPad*
%ADD19O,1.700000X1.700000*%
G04 #@! TD*
G04 #@! TA.AperFunction,ComponentPad*
%ADD20R,1.700000X1.700000*%
G04 #@! TD*
G04 #@! TA.AperFunction,ComponentPad*
%ADD21O,1.250000X0.950000*%
G04 #@! TD*
G04 #@! TA.AperFunction,ComponentPad*
%ADD22O,1.000000X1.550000*%
G04 #@! TD*
G04 #@! TA.AperFunction,ViaPad*
%ADD23C,0.685800*%
G04 #@! TD*
G04 #@! TA.AperFunction,Conductor*
%ADD24C,0.508000*%
G04 #@! TD*
G04 #@! TA.AperFunction,Conductor*
%ADD25C,0.254000*%
G04 #@! TD*
G04 #@! TA.AperFunction,Conductor*
%ADD26C,0.762000*%
G04 #@! TD*
G04 #@! TA.AperFunction,Conductor*
%ADD27C,0.330200*%
G04 #@! TD*
G04 #@! TA.AperFunction,Conductor*
%ADD28C,0.381000*%
G04 #@! TD*
G04 #@! TA.AperFunction,Conductor*
%ADD29C,0.304800*%
G04 #@! TD*
G04 #@! TA.AperFunction,Conductor*
%ADD30C,1.270000*%
G04 #@! TD*
G04 #@! TA.AperFunction,Conductor*
%ADD31C,0.152400*%
G04 #@! TD*
G04 APERTURE END LIST*
D10*
G04 #@! TO.P,TP208,1*
G04 #@! TO.N,Net-(C228-Pad2)*
X53600000Y-159500000D03*
G04 #@! TD*
G04 #@! TO.P,TP202,1*
G04 #@! TO.N,/Photodiode/+1V0*
X49850000Y-187175000D03*
G04 #@! TD*
G04 #@! TO.P,TP207,1*
G04 #@! TO.N,Net-(C219-Pad2)*
X47775000Y-181100000D03*
G04 #@! TD*
D11*
G04 #@! TO.P,C227,1*
G04 #@! TO.N,Net-(C226-Pad1)*
X71550000Y-173800000D03*
G04 #@! TO.P,C227,2*
G04 #@! TO.N,GND*
X69650000Y-173800000D03*
G04 #@! TD*
D12*
G04 #@! TO.P,C238,2*
G04 #@! TO.N,GND*
X49800000Y-163100000D03*
G04 #@! TO.P,C238,1*
G04 #@! TO.N,Net-(C237-Pad1)*
X49800000Y-161200000D03*
G04 #@! TD*
D11*
G04 #@! TO.P,C235,2*
G04 #@! TO.N,GND*
X41900000Y-181600000D03*
G04 #@! TO.P,C235,1*
G04 #@! TO.N,Net-(C234-Pad1)*
X43800000Y-181600000D03*
G04 #@! TD*
G04 #@! TO.P,C302,1*
G04 #@! TO.N,/Digital/+3V3*
X50000000Y-133300000D03*
G04 #@! TO.P,C302,2*
G04 #@! TO.N,GND*
X51900000Y-133300000D03*
G04 #@! TD*
G04 #@! TO.P,C309,1*
G04 #@! TO.N,/Digital/+3V3*
X48100000Y-124650000D03*
G04 #@! TO.P,C309,2*
G04 #@! TO.N,GND*
X46200000Y-124650000D03*
G04 #@! TD*
G04 #@! TO.P,C308,2*
G04 #@! TO.N,GND*
X46150000Y-126200000D03*
G04 #@! TO.P,C308,1*
G04 #@! TO.N,/Digital/+3V3*
X48050000Y-126200000D03*
G04 #@! TD*
G04 #@! TO.P,C307,1*
G04 #@! TO.N,/Digital/+3V3*
X50000000Y-124650000D03*
G04 #@! TO.P,C307,2*
G04 #@! TO.N,GND*
X51900000Y-124650000D03*
G04 #@! TD*
G04 #@! TO.P,C305,1*
G04 #@! TO.N,/Digital/+3V3*
X50000000Y-126200000D03*
G04 #@! TO.P,C305,2*
G04 #@! TO.N,GND*
X51900000Y-126200000D03*
G04 #@! TD*
G04 #@! TO.P,C301,2*
G04 #@! TO.N,GND*
X51900000Y-131800000D03*
G04 #@! TO.P,C301,1*
G04 #@! TO.N,/Digital/+3V3*
X50000000Y-131800000D03*
G04 #@! TD*
D13*
G04 #@! TO.P,C203,2*
G04 #@! TO.N,GND*
X33000000Y-184350000D03*
G04 #@! TO.P,C203,1*
G04 #@! TO.N,Net-(C203-Pad1)*
X33000000Y-186850000D03*
G04 #@! TD*
D14*
G04 #@! TO.P,C205,1*
G04 #@! TO.N,Net-(C205-Pad1)*
X31864491Y-179453465D03*
G04 #@! TO.P,C205,2*
G04 #@! TO.N,GND*
X34364491Y-179453465D03*
G04 #@! TD*
D13*
G04 #@! TO.P,C319,2*
G04 #@! TO.N,GND*
X34300000Y-130800000D03*
G04 #@! TO.P,C319,1*
G04 #@! TO.N,/Digital/+3V3*
X34300000Y-133300000D03*
G04 #@! TD*
G04 #@! TO.P,C314,1*
G04 #@! TO.N,/Digital/+3V3A*
X34358196Y-140809047D03*
G04 #@! TO.P,C314,2*
G04 #@! TO.N,GND*
X34358196Y-138309047D03*
G04 #@! TD*
G04 #@! TO.P,C315,2*
G04 #@! TO.N,GND*
X36458196Y-138359047D03*
G04 #@! TO.P,C315,1*
G04 #@! TO.N,/Digital/+3V3A*
X36458196Y-140859047D03*
G04 #@! TD*
D15*
G04 #@! TO.P,D203,2*
G04 #@! TO.N,Net-(D201-Pad2)*
X36714491Y-186743465D03*
D16*
G04 #@! TO.P,D203,1*
G04 #@! TO.N,Net-(C210-Pad1)*
X36714491Y-184203465D03*
G04 #@! TD*
D17*
G04 #@! TO.P,R311,1*
G04 #@! TO.N,/Digital/ADC_MOSI*
X52350000Y-127800000D03*
G04 #@! TO.P,R311,2*
G04 #@! TO.N,GND*
X51450000Y-127800000D03*
G04 #@! TD*
D18*
G04 #@! TO.P,R209,2*
G04 #@! TO.N,Net-(C205-Pad1)*
X32514491Y-177253465D03*
G04 #@! TO.P,R209,1*
G04 #@! TO.N,/Photodiode/+10V*
X32514491Y-175053465D03*
G04 #@! TD*
G04 #@! TO.P,R214,1*
G04 #@! TO.N,/Photodiode/+10V*
X32514491Y-173053465D03*
G04 #@! TO.P,R214,2*
G04 #@! TO.N,Net-(C211-Pad1)*
X32514491Y-170853465D03*
G04 #@! TD*
G04 #@! TO.P,R239,2*
G04 #@! TO.N,Net-(C237-Pad1)*
X48050000Y-161050000D03*
G04 #@! TO.P,R239,1*
G04 #@! TO.N,/Photodiode/+10V*
X48050000Y-163250000D03*
G04 #@! TD*
D19*
G04 #@! TO.P,J101,2*
G04 #@! TO.N,Net-(D103-Pad2)*
X79740000Y-116700000D03*
D20*
G04 #@! TO.P,J101,1*
G04 #@! TO.N,GND*
X77200000Y-116700000D03*
G04 #@! TD*
G04 #@! TO.P,J301,1*
G04 #@! TO.N,GND*
X61100000Y-147500000D03*
D19*
G04 #@! TO.P,J301,2*
G04 #@! TO.N,Net-(J301-Pad2)*
X61100000Y-144960000D03*
G04 #@! TO.P,J301,3*
G04 #@! TO.N,Net-(J301-Pad3)*
X61100000Y-142420000D03*
G04 #@! TD*
G04 #@! TO.P,J303,3*
G04 #@! TO.N,/Digital/+3V3*
X86450000Y-167230000D03*
G04 #@! TO.P,J303,2*
G04 #@! TO.N,Net-(J303-Pad2)*
X86450000Y-164690000D03*
D20*
G04 #@! TO.P,J303,1*
G04 #@! TO.N,GND*
X86450000Y-162150000D03*
G04 #@! TD*
D19*
G04 #@! TO.P,J302,4*
G04 #@! TO.N,/Digital/STM32_SWDIO*
X40210000Y-125190000D03*
G04 #@! TO.P,J302,3*
G04 #@! TO.N,/Digital/STM32_SWCLK*
X42750000Y-125190000D03*
G04 #@! TO.P,J302,2*
G04 #@! TO.N,/Digital/STM32_NRST*
X40210000Y-122650000D03*
D20*
G04 #@! TO.P,J302,1*
G04 #@! TO.N,GND*
X42750000Y-122650000D03*
G04 #@! TD*
D21*
G04 #@! TO.P,J304,6*
G04 #@! TO.N,GND*
X46850000Y-117850000D03*
X51850000Y-117850000D03*
D22*
X45850000Y-115150000D03*
X52850000Y-115150000D03*
G04 #@! TD*
D23*
G04 #@! TO.N,GND*
X50500000Y-179600000D03*
X50500000Y-174600000D03*
X45250000Y-176250000D03*
X50300000Y-127700000D03*
X53200000Y-123450000D03*
X58350000Y-125050000D03*
X34300000Y-130800000D03*
X53150000Y-119950000D03*
X41800000Y-182650000D03*
X34550000Y-180500000D03*
X46600000Y-162800000D03*
X34300000Y-138300000D03*
X40600000Y-141650000D03*
X40450000Y-140600000D03*
X38300000Y-149550000D03*
X29200000Y-151150000D03*
X47650000Y-135250000D03*
X64700000Y-175900000D03*
X50712103Y-162999099D03*
X73500000Y-184400000D03*
X73800000Y-185950000D03*
X73900000Y-187450000D03*
X51250000Y-135950000D03*
X69650000Y-173800000D03*
X76550000Y-174650000D03*
X79400000Y-174700000D03*
X63750000Y-180550000D03*
X61600000Y-184500000D03*
X66300000Y-184500000D03*
X60100000Y-177800000D03*
X62050000Y-171500000D03*
X81750000Y-180250000D03*
X77400000Y-163250000D03*
X62150000Y-123450000D03*
X71050000Y-123650000D03*
X79750000Y-131500000D03*
X42200000Y-166000000D03*
X41850000Y-163400000D03*
X39200000Y-165950000D03*
X38300000Y-155506000D03*
X42444000Y-159650000D03*
X54500000Y-155750000D03*
X28750000Y-146700000D03*
X41250000Y-137600000D03*
X46200000Y-131250000D03*
X34500000Y-142700000D03*
X30100000Y-144250000D03*
X38300000Y-143900000D03*
X44800000Y-137300000D03*
X83700000Y-145700000D03*
X72200000Y-146450000D03*
X73050000Y-131850000D03*
X68900000Y-131650000D03*
X72050000Y-142750000D03*
X74450000Y-134400000D03*
X76250000Y-133450000D03*
X70150000Y-143750000D03*
X62750000Y-153700000D03*
X88400000Y-186000000D03*
X86450000Y-176800000D03*
X52000000Y-170050000D03*
X42014491Y-186503465D03*
X43714491Y-186503465D03*
X43750000Y-188500000D03*
X48650000Y-189250000D03*
X54700000Y-187650000D03*
X54600000Y-186000000D03*
X53200000Y-184200000D03*
X35014491Y-172903465D03*
X50100000Y-151450000D03*
X53700000Y-148250000D03*
X66200000Y-155700000D03*
X84150000Y-151250000D03*
X77300000Y-146450000D03*
X85700000Y-154900000D03*
X85900000Y-156750000D03*
X87150000Y-151400000D03*
X75850000Y-144750000D03*
X57500000Y-152050000D03*
X60900000Y-151850000D03*
X55350000Y-133100000D03*
X60400000Y-165600000D03*
X64200000Y-168350000D03*
G04 #@! TO.N,+5V_USB*
X69900000Y-119100000D03*
X62700000Y-118650000D03*
X61000000Y-150750000D03*
X63750000Y-122850000D03*
G04 #@! TO.N,/+5V*
X82150000Y-129850000D03*
X70850000Y-128650000D03*
G04 #@! TO.N,-12V*
X83900000Y-161100000D03*
X77100000Y-154950000D03*
G04 #@! TO.N,Net-(C228-Pad2)*
X53900000Y-159000000D03*
G04 #@! TO.N,Net-(C237-Pad1)*
X46600000Y-160300000D03*
G04 #@! TO.N,Net-(C226-Pad1)*
X71550000Y-173800000D03*
G04 #@! TO.N,/Digital/GAIN_ADC*
X75750000Y-170950000D03*
X79950000Y-168800000D03*
X71350000Y-164850000D03*
G04 #@! TO.N,/Photodiode/+5V0_PWR*
X61750000Y-172950000D03*
X66550000Y-175000000D03*
G04 #@! TO.N,Net-(Q205-Pad1)*
X69550000Y-179200000D03*
X69200000Y-175950000D03*
G04 #@! TO.N,/Digital/STM32_NRST*
X40100000Y-130100000D03*
G04 #@! TO.N,/Digital/+3V3*
X51300000Y-123450000D03*
X58350000Y-121450000D03*
X71050000Y-120650000D03*
X34300000Y-133300000D03*
X38950000Y-135950000D03*
X50550000Y-130700000D03*
X45950000Y-122650000D03*
X37350000Y-127850000D03*
X48450000Y-130750000D03*
X66545157Y-157104843D03*
X55100000Y-129500000D03*
X56850000Y-124250000D03*
G04 #@! TO.N,/Digital/ADC_NSS*
X55250000Y-135050000D03*
X54200000Y-137300000D03*
G04 #@! TO.N,/Digital/ADC_SCK*
X51100000Y-128750000D03*
X53876118Y-129050690D03*
G04 #@! TO.N,/Digital/ADC_MOSI*
X52900000Y-127800000D03*
G04 #@! TO.N,/ANALOG_EN*
X55300000Y-127900000D03*
X52350000Y-128644279D03*
G04 #@! TO.N,/Digital/+3V3A*
X36458196Y-140859047D03*
X35150000Y-142050000D03*
G04 #@! TO.N,+12V*
X82650000Y-170450000D03*
X78450000Y-169800000D03*
X74300000Y-167850000D03*
X72250000Y-166350000D03*
X82050000Y-140000000D03*
X83400000Y-139250000D03*
G04 #@! TO.N,Net-(C219-Pad2)*
X48714491Y-180525000D03*
G04 #@! TO.N,Net-(C234-Pad1)*
X43900000Y-180600000D03*
G04 #@! TO.N,Net-(C205-Pad1)*
X32350000Y-178200000D03*
G04 #@! TO.N,/Photodiode/REF_5V0*
X62650000Y-177250000D03*
X62195302Y-181650000D03*
G04 #@! TO.N,/Photodiode/+10V*
X71200000Y-181750000D03*
X32350000Y-188950000D03*
X35757834Y-165600000D03*
G04 #@! TO.N,Net-(C203-Pad1)*
X30314491Y-186753465D03*
G04 #@! TO.N,/Photodiode/+2V5*
X50450000Y-181750000D03*
X52450000Y-181650000D03*
X54400000Y-175550000D03*
X54550000Y-172600000D03*
X57350000Y-161050000D03*
X57112505Y-164463387D03*
G04 #@! TO.N,Net-(C211-Pad1)*
X33650000Y-170050000D03*
G04 #@! TO.N,/Photodiode/+1V0*
X49700000Y-188100000D03*
G04 #@! TD*
D24*
G04 #@! TO.N,GND*
X46200000Y-126150000D02*
X46150000Y-126200000D01*
X46200000Y-124650000D02*
X46200000Y-126150000D01*
X46767000Y-127700000D02*
X49815067Y-127700000D01*
X46150000Y-127083000D02*
X46767000Y-127700000D01*
X49815067Y-127700000D02*
X50300000Y-127700000D01*
X46150000Y-126200000D02*
X46150000Y-127083000D01*
X50300000Y-127700000D02*
X50400000Y-127700000D01*
X51900000Y-126200000D02*
X51900000Y-124650000D01*
X51900000Y-124650000D02*
X52000000Y-124650000D01*
X52000000Y-124650000D02*
X53200000Y-123450000D01*
X57042000Y-123242000D02*
X58350000Y-124550000D01*
X56958000Y-123242000D02*
X57042000Y-123242000D01*
X56750000Y-123450000D02*
X56958000Y-123242000D01*
X53200000Y-123450000D02*
X56750000Y-123450000D01*
D25*
X52000000Y-117850000D02*
X51850000Y-117850000D01*
X53150000Y-119000000D02*
X52000000Y-117850000D01*
X53150000Y-119950000D02*
X53150000Y-119000000D01*
D26*
X44200000Y-122650000D02*
X46200000Y-124650000D01*
X42750000Y-122650000D02*
X44200000Y-122650000D01*
D27*
X41800000Y-181700000D02*
X41900000Y-181600000D01*
X41800000Y-182650000D02*
X41800000Y-181700000D01*
D28*
X34550000Y-179638974D02*
X34364491Y-179453465D01*
X34550000Y-180500000D02*
X34550000Y-179638974D01*
X49007099Y-162307099D02*
X47092901Y-162307099D01*
X49800000Y-163100000D02*
X49007099Y-162307099D01*
X47092901Y-162307099D02*
X46600000Y-162800000D01*
X40600000Y-140750000D02*
X40450000Y-140600000D01*
X40600000Y-141650000D02*
X40600000Y-140750000D01*
X36458196Y-138484047D02*
X36458196Y-138359047D01*
X38574149Y-140600000D02*
X36458196Y-138484047D01*
X40450000Y-140600000D02*
X38574149Y-140600000D01*
X45594000Y-162800000D02*
X46600000Y-162800000D01*
X29200000Y-151150000D02*
X35200000Y-151150000D01*
X35200000Y-151150000D02*
X38300000Y-154250000D01*
X38300000Y-149550000D02*
X38300000Y-154250000D01*
X38300000Y-154250000D02*
X38300000Y-155506000D01*
X49800000Y-163100000D02*
X50611202Y-163100000D01*
X50611202Y-163100000D02*
X50712103Y-162999099D01*
X79350000Y-174650000D02*
X79400000Y-174700000D01*
X76550000Y-174650000D02*
X79350000Y-174650000D01*
X69650000Y-174556000D02*
X69650000Y-173800000D01*
X69744000Y-174650000D02*
X69650000Y-174556000D01*
X76550000Y-174650000D02*
X69744000Y-174650000D01*
X69425000Y-173800000D02*
X69650000Y-173800000D01*
X67325000Y-175900000D02*
X69425000Y-173800000D01*
X63750000Y-176094000D02*
X63944000Y-175900000D01*
X63750000Y-180550000D02*
X63750000Y-176094000D01*
X63750000Y-180550000D02*
X63750000Y-182350000D01*
X63750000Y-182350000D02*
X61600000Y-184500000D01*
X66300000Y-183744000D02*
X67050000Y-182994000D01*
X67050000Y-182994000D02*
X67050000Y-175900000D01*
X66300000Y-184500000D02*
X66300000Y-183744000D01*
X64700000Y-175900000D02*
X67050000Y-175900000D01*
X67050000Y-175900000D02*
X67325000Y-175900000D01*
X63944000Y-175900000D02*
X64700000Y-175900000D01*
X62125000Y-175900000D02*
X63944000Y-175900000D01*
X60225000Y-177800000D02*
X62125000Y-175900000D01*
X60100000Y-177800000D02*
X60225000Y-177800000D01*
X68669000Y-173800000D02*
X69650000Y-173800000D01*
X66711899Y-171842899D02*
X68669000Y-173800000D01*
X62050000Y-171500000D02*
X62392899Y-171842899D01*
X73500000Y-184400000D02*
X76550000Y-181350000D01*
X73800000Y-184100000D02*
X76550000Y-181350000D01*
X73800000Y-185950000D02*
X73800000Y-184100000D01*
X73900000Y-184000000D02*
X76550000Y-181350000D01*
X73900000Y-187450000D02*
X73900000Y-184000000D01*
X77194000Y-176700000D02*
X76550000Y-176700000D01*
X80744000Y-180250000D02*
X77194000Y-176700000D01*
X81750000Y-180250000D02*
X80744000Y-180250000D01*
X76550000Y-181350000D02*
X76550000Y-176700000D01*
X76550000Y-176700000D02*
X76550000Y-174650000D01*
D25*
X87554000Y-162150000D02*
X86450000Y-162150000D01*
X87579401Y-167772113D02*
X87579401Y-162175401D01*
X86451514Y-168900000D02*
X87579401Y-167772113D01*
X87579401Y-162175401D02*
X87554000Y-162150000D01*
D26*
X34358196Y-136797047D02*
X34358196Y-138309047D01*
X32913000Y-135351851D02*
X34358196Y-136797047D01*
X32913000Y-132312000D02*
X32913000Y-135351851D01*
X34300000Y-130925000D02*
X32913000Y-132312000D01*
X34300000Y-130800000D02*
X34300000Y-130925000D01*
X36399149Y-138300000D02*
X36458196Y-138359047D01*
X34300000Y-138300000D02*
X36399149Y-138300000D01*
D24*
X71050000Y-123650000D02*
X71050000Y-122850000D01*
X71050000Y-122850000D02*
X72350000Y-121550000D01*
X72350000Y-121550000D02*
X72350000Y-118650000D01*
X68850000Y-115150000D02*
X52850000Y-115150000D01*
X72350000Y-118650000D02*
X68850000Y-115150000D01*
D28*
X41850000Y-163400000D02*
X42192899Y-163057101D01*
X38300000Y-155506000D02*
X42144000Y-159350000D01*
X42192899Y-159398899D02*
X42144000Y-159350000D01*
X42192899Y-163057101D02*
X42192899Y-159398899D01*
X42150000Y-165950000D02*
X42200000Y-166000000D01*
X39200000Y-165950000D02*
X42150000Y-165950000D01*
X42144000Y-159350000D02*
X42444000Y-159650000D01*
X42444000Y-159650000D02*
X45594000Y-162800000D01*
X50712103Y-159537897D02*
X50712103Y-162999099D01*
X54500000Y-155750000D02*
X50712103Y-159537897D01*
X31600000Y-149550000D02*
X38300000Y-149550000D01*
X28750000Y-146700000D02*
X31600000Y-149550000D01*
X51900000Y-131800000D02*
X51900000Y-133300000D01*
X50300000Y-128184933D02*
X50300000Y-127700000D01*
X50300000Y-129444000D02*
X50300000Y-128184933D01*
X51900000Y-131044000D02*
X50300000Y-129444000D01*
X51900000Y-131800000D02*
X51900000Y-131044000D01*
X51450000Y-127650000D02*
X50950000Y-127150000D01*
X51450000Y-127800000D02*
X51450000Y-127650000D01*
D24*
X50400000Y-127700000D02*
X50950000Y-127150000D01*
X50950000Y-127150000D02*
X51900000Y-126200000D01*
D28*
X36458196Y-138359047D02*
X40490953Y-138359047D01*
X40490953Y-138359047D02*
X41250000Y-137600000D01*
X46542899Y-130907101D02*
X46542899Y-127924101D01*
X46542899Y-127924101D02*
X46767000Y-127700000D01*
X46200000Y-131250000D02*
X46542899Y-130907101D01*
D29*
X34500000Y-142700000D02*
X32950000Y-144250000D01*
X32950000Y-144250000D02*
X30100000Y-144250000D01*
X37100000Y-142700000D02*
X34500000Y-142700000D01*
X38300000Y-143900000D02*
X37100000Y-142700000D01*
D24*
X71050000Y-123650000D02*
X69500698Y-122100698D01*
X62607302Y-122100698D02*
X59658000Y-125050000D01*
X59658000Y-125050000D02*
X58350000Y-125050000D01*
X69500698Y-122100698D02*
X62607302Y-122100698D01*
D28*
X45600000Y-137300000D02*
X47650000Y-135250000D01*
X44800000Y-137300000D02*
X45600000Y-137300000D01*
X50706000Y-135250000D02*
X48134933Y-135250000D01*
X48134933Y-135250000D02*
X47650000Y-135250000D01*
X51900000Y-134056000D02*
X50706000Y-135250000D01*
X51900000Y-133300000D02*
X51900000Y-134056000D01*
D26*
X83700000Y-145700000D02*
X82950000Y-146450000D01*
X82950000Y-146450000D02*
X79500000Y-146450000D01*
D28*
X72850000Y-131650000D02*
X73050000Y-131850000D01*
X68900000Y-131650000D02*
X72850000Y-131650000D01*
D30*
X72050000Y-142750000D02*
X72050000Y-136800000D01*
X72050000Y-136800000D02*
X74450000Y-134400000D01*
D26*
X77200000Y-118312000D02*
X75250000Y-120262000D01*
X77200000Y-116700000D02*
X77200000Y-118312000D01*
X75250000Y-120262000D02*
X75250000Y-121400000D01*
X72218409Y-131018409D02*
X73050000Y-131850000D01*
X69200000Y-128652380D02*
X71566029Y-131018409D01*
X71566029Y-131018409D02*
X72218409Y-131018409D01*
X69200000Y-127450000D02*
X69200000Y-128652380D01*
D30*
X75400000Y-133450000D02*
X74450000Y-134400000D01*
X76250000Y-133450000D02*
X75400000Y-133450000D01*
X76861591Y-122550000D02*
X74100000Y-122550000D01*
D26*
X74100000Y-122550000D02*
X69200000Y-127450000D01*
X75250000Y-121400000D02*
X74100000Y-122550000D01*
D30*
X79750000Y-131500000D02*
X82511591Y-131500000D01*
X83572410Y-130439181D02*
X83572410Y-129260819D01*
X82511591Y-131500000D02*
X83572410Y-130439181D01*
X83572410Y-129260819D02*
X76861591Y-122550000D01*
X71050000Y-143750000D02*
X72050000Y-142750000D01*
X70150000Y-143750000D02*
X71050000Y-143750000D01*
X68427590Y-146558437D02*
X68427590Y-168077590D01*
X70150000Y-143750000D02*
X70150000Y-144836028D01*
X70150000Y-144836028D02*
X68427590Y-146558437D01*
X69650000Y-169300000D02*
X69650000Y-173800000D01*
X68427590Y-168077590D02*
X69650000Y-169300000D01*
X79400000Y-174700000D02*
X81450000Y-174700000D01*
X84250000Y-171900000D02*
X84250000Y-168900000D01*
X81450000Y-174700000D02*
X84250000Y-171900000D01*
D25*
X84250000Y-168900000D02*
X86451514Y-168900000D01*
D30*
X83050000Y-168900000D02*
X77400000Y-163250000D01*
X84250000Y-168900000D02*
X83050000Y-168900000D01*
D24*
X46350000Y-137300000D02*
X44800000Y-137300000D01*
X49800000Y-167850000D02*
X49800000Y-163100000D01*
X52000000Y-170050000D02*
X49800000Y-167850000D01*
X52000000Y-173100000D02*
X50500000Y-174600000D01*
X52000000Y-170050000D02*
X52000000Y-173100000D01*
X44117000Y-176250000D02*
X45250000Y-176250000D01*
X41900000Y-178467000D02*
X44117000Y-176250000D01*
X50500000Y-179600000D02*
X42950000Y-179600000D01*
X42950000Y-179600000D02*
X41900000Y-180650000D01*
X41900000Y-181600000D02*
X41900000Y-180650000D01*
X41900000Y-180650000D02*
X41900000Y-178467000D01*
X50500000Y-174600000D02*
X50500000Y-179600000D01*
X41800000Y-182650000D02*
X41800000Y-186288974D01*
X41800000Y-186288974D02*
X42014491Y-186503465D01*
X43714491Y-188464491D02*
X43750000Y-188500000D01*
X47900000Y-188500000D02*
X48650000Y-189250000D01*
X54600000Y-186000000D02*
X54000000Y-185400000D01*
X54000000Y-185400000D02*
X52450000Y-185400000D01*
X54700000Y-187650000D02*
X52450000Y-185400000D01*
X52092000Y-184200000D02*
X51892000Y-184000000D01*
X53200000Y-184200000D02*
X52092000Y-184200000D01*
X52450000Y-185400000D02*
X51050000Y-184000000D01*
X51892000Y-184000000D02*
X51050000Y-184000000D01*
X51050000Y-184000000D02*
X49700000Y-182650000D01*
X43714491Y-185395465D02*
X44300000Y-184809956D01*
X44300000Y-184809956D02*
X44300000Y-182650000D01*
X43714491Y-186503465D02*
X43714491Y-185395465D01*
X44300000Y-182650000D02*
X41800000Y-182650000D01*
X45700000Y-188500000D02*
X45700000Y-182650000D01*
X45700000Y-182650000D02*
X44300000Y-182650000D01*
X49700000Y-182650000D02*
X45700000Y-182650000D01*
X43750000Y-188500000D02*
X45700000Y-188500000D01*
X45700000Y-188500000D02*
X47900000Y-188500000D01*
X34364491Y-173553465D02*
X35014491Y-172903465D01*
X34364491Y-179453465D02*
X34364491Y-173553465D01*
X34133000Y-184350000D02*
X33000000Y-184350000D01*
X34550000Y-183933000D02*
X34133000Y-184350000D01*
X34550000Y-180500000D02*
X34550000Y-183933000D01*
X40636465Y-179453465D02*
X41900000Y-180717000D01*
X41900000Y-180717000D02*
X41900000Y-181600000D01*
X34364491Y-179453465D02*
X40636465Y-179453465D01*
X59742000Y-147500000D02*
X57200000Y-144958000D01*
X61100000Y-147500000D02*
X59742000Y-147500000D01*
X58350000Y-143808000D02*
X58350000Y-125050000D01*
X57200000Y-144958000D02*
X58350000Y-143808000D01*
D29*
X54400000Y-155750000D02*
X54500000Y-155750000D01*
X50100000Y-151450000D02*
X54400000Y-155750000D01*
X61150000Y-155700000D02*
X66200000Y-155700000D01*
D30*
X81750000Y-180250000D02*
X83000000Y-180250000D01*
X88400000Y-185515067D02*
X85150000Y-182265067D01*
X85150000Y-182265067D02*
X85150000Y-178100000D01*
X88400000Y-186000000D02*
X88400000Y-185515067D01*
X83000000Y-180250000D02*
X85150000Y-178100000D01*
X85150000Y-178100000D02*
X86450000Y-176800000D01*
D26*
X79500000Y-146450000D02*
X77300000Y-146450000D01*
X77300000Y-146450000D02*
X72200000Y-146450000D01*
X83700000Y-150800000D02*
X84150000Y-151250000D01*
X83700000Y-145700000D02*
X83700000Y-150800000D01*
X84150000Y-151250000D02*
X84150000Y-153350000D01*
X85900000Y-156750000D02*
X85557101Y-156407101D01*
X85557101Y-154757101D02*
X85200000Y-154400000D01*
X85557101Y-156407101D02*
X85557101Y-154757101D01*
X84150000Y-153350000D02*
X85200000Y-154400000D01*
X85200000Y-154400000D02*
X85700000Y-154900000D01*
X84300000Y-151400000D02*
X84150000Y-151250000D01*
X87150000Y-151400000D02*
X84300000Y-151400000D01*
D30*
X77300000Y-146200000D02*
X75850000Y-144750000D01*
X77300000Y-146450000D02*
X77300000Y-146200000D01*
D29*
X53700000Y-148250000D02*
X57500000Y-152050000D01*
X57500000Y-152050000D02*
X61150000Y-155700000D01*
D24*
X62750000Y-153700000D02*
X60900000Y-151850000D01*
X60900000Y-151850000D02*
X46350000Y-137300000D01*
X53200000Y-133100000D02*
X51900000Y-131800000D01*
X55350000Y-133100000D02*
X53200000Y-133100000D01*
X51055002Y-163341998D02*
X53691998Y-163341998D01*
X50712103Y-162999099D02*
X51055002Y-163341998D01*
X53691998Y-163341998D02*
X55950000Y-165600000D01*
X55950000Y-165600000D02*
X60400000Y-165600000D01*
X64200000Y-168834933D02*
X64900000Y-169534933D01*
X64900000Y-169534933D02*
X64900000Y-171842899D01*
D28*
X62392899Y-171842899D02*
X64900000Y-171842899D01*
D24*
X64200000Y-168350000D02*
X64200000Y-168834933D01*
D28*
X64900000Y-171842899D02*
X66711899Y-171842899D01*
D26*
G04 #@! TO.N,+5V_USB*
X69900000Y-119100000D02*
X63150000Y-119100000D01*
X63150000Y-119100000D02*
X62700000Y-118650000D01*
D29*
X61000000Y-150750000D02*
X64400000Y-147350000D01*
X64400000Y-147350000D02*
X64400000Y-123500000D01*
X64400000Y-123500000D02*
X63750000Y-122850000D01*
D30*
G04 #@! TO.N,/+5V*
X82150000Y-129850000D02*
X72050000Y-129850000D01*
X72050000Y-129850000D02*
X70850000Y-128650000D01*
D26*
G04 #@! TO.N,-12V*
X83900000Y-161100000D02*
X77750000Y-154950000D01*
X77750000Y-154950000D02*
X77100000Y-154950000D01*
D31*
G04 #@! TO.N,Net-(C228-Pad2)*
X53600000Y-159500000D02*
X53600000Y-159300000D01*
X53600000Y-159300000D02*
X53900000Y-159000000D01*
D28*
G04 #@! TO.N,Net-(C237-Pad1)*
X48050000Y-161050000D02*
X47350000Y-161050000D01*
X48200000Y-161200000D02*
X48050000Y-161050000D01*
X49800000Y-161200000D02*
X48200000Y-161200000D01*
X47350000Y-161050000D02*
X46600000Y-160300000D01*
G04 #@! TO.N,/Digital/GAIN_ADC*
X77900000Y-168800000D02*
X79950000Y-168800000D01*
X73092899Y-165192899D02*
X77300000Y-169400000D01*
X71692899Y-165192899D02*
X73092899Y-165192899D01*
X71350000Y-164850000D02*
X71692899Y-165192899D01*
X75750000Y-170950000D02*
X77300000Y-169400000D01*
X77300000Y-169400000D02*
X77900000Y-168800000D01*
D29*
G04 #@! TO.N,/Photodiode/+5V0_PWR*
X64500000Y-172950000D02*
X61750000Y-172950000D01*
X66550000Y-175000000D02*
X64500000Y-172950000D01*
G04 #@! TO.N,Net-(Q205-Pad1)*
X69550000Y-179200000D02*
X69550000Y-176300000D01*
X69550000Y-176300000D02*
X69200000Y-175950000D01*
D25*
G04 #@! TO.N,/Digital/STM32_NRST*
X39360001Y-123499999D02*
X40210000Y-122650000D01*
X39080599Y-123779401D02*
X39360001Y-123499999D01*
X39615067Y-130100000D02*
X39080599Y-129565532D01*
X39080599Y-129565532D02*
X39080599Y-123779401D01*
X40100000Y-130100000D02*
X39615067Y-130100000D01*
D24*
G04 #@! TO.N,/Digital/+3V3*
X48050000Y-124700000D02*
X48100000Y-124650000D01*
X48050000Y-126200000D02*
X48050000Y-124700000D01*
X50000000Y-126200000D02*
X50000000Y-124650000D01*
X48100000Y-124650000D02*
X50000000Y-124650000D01*
X50000000Y-124650000D02*
X50100000Y-124650000D01*
X50100000Y-124650000D02*
X51300000Y-123450000D01*
D26*
X59150000Y-120650000D02*
X58350000Y-121450000D01*
X71050000Y-120650000D02*
X59150000Y-120650000D01*
D29*
X38950000Y-135950000D02*
X38950000Y-135800000D01*
D28*
X50000000Y-131800000D02*
X50000000Y-133300000D01*
X50550000Y-131250000D02*
X50000000Y-131800000D01*
X50550000Y-130700000D02*
X50550000Y-131250000D01*
X48100000Y-124650000D02*
X47875000Y-124650000D01*
X48100000Y-124650000D02*
X47950000Y-124650000D01*
X47950000Y-124650000D02*
X45950000Y-122650000D01*
X35306000Y-133300000D02*
X34300000Y-133300000D01*
X37350000Y-131256000D02*
X35306000Y-133300000D01*
X37350000Y-127850000D02*
X37350000Y-131256000D01*
X34300000Y-133425000D02*
X34300000Y-133300000D01*
X36825000Y-135950000D02*
X34300000Y-133425000D01*
X36825000Y-135950000D02*
X38950000Y-135950000D01*
X50000000Y-131800000D02*
X49500000Y-131800000D01*
X49500000Y-131800000D02*
X48450000Y-130750000D01*
X42400000Y-137200000D02*
X42400000Y-141450000D01*
X41150000Y-135950000D02*
X42400000Y-137200000D01*
X66060224Y-157104843D02*
X66545157Y-157104843D01*
X58054843Y-157104843D02*
X66060224Y-157104843D01*
X38950000Y-135950000D02*
X41150000Y-135950000D01*
D24*
X55100000Y-129500000D02*
X56650000Y-127950000D01*
X56650000Y-127950000D02*
X56650000Y-124450000D01*
X56650000Y-124450000D02*
X56850000Y-124250000D01*
D28*
X42400000Y-141450000D02*
X58054843Y-157104843D01*
D29*
G04 #@! TO.N,/Digital/ADC_NSS*
X55250000Y-135050000D02*
X55250000Y-136250000D01*
X55250000Y-136250000D02*
X54200000Y-137300000D01*
D25*
G04 #@! TO.N,/Digital/ADC_SCK*
X53533219Y-129393589D02*
X53876118Y-129050690D01*
X51743589Y-129393589D02*
X53533219Y-129393589D01*
X51100000Y-128750000D02*
X51743589Y-129393589D01*
G04 #@! TO.N,/Digital/ADC_MOSI*
X52900000Y-127800000D02*
X52350000Y-127800000D01*
D28*
G04 #@! TO.N,/ANALOG_EN*
X53267543Y-128644279D02*
X52834933Y-128644279D01*
X52834933Y-128644279D02*
X52350000Y-128644279D01*
X55300000Y-127900000D02*
X54011822Y-127900000D01*
X54011822Y-127900000D02*
X53267543Y-128644279D01*
G04 #@! TO.N,/Digital/+3V3A*
X34358196Y-141258196D02*
X35150000Y-142050000D01*
X34358196Y-140809047D02*
X34358196Y-141258196D01*
D26*
G04 #@! TO.N,+12V*
X82650000Y-170450000D02*
X79100000Y-170450000D01*
X79100000Y-170450000D02*
X78450000Y-169800000D01*
X74300000Y-167850000D02*
X73750000Y-167850000D01*
X73750000Y-167850000D02*
X72250000Y-166350000D01*
X82800000Y-139250000D02*
X82050000Y-140000000D01*
X83400000Y-139250000D02*
X82800000Y-139250000D01*
D30*
X70250000Y-166350000D02*
X71765067Y-166350000D01*
X71765067Y-166350000D02*
X72250000Y-166350000D01*
X69850000Y-165950000D02*
X70250000Y-166350000D01*
X69850000Y-147147618D02*
X69850000Y-165950000D01*
X82050000Y-140000000D02*
X76997618Y-140000000D01*
X76997618Y-140000000D02*
X69850000Y-147147618D01*
D28*
G04 #@! TO.N,Net-(C219-Pad2)*
X48139491Y-181100000D02*
X48714491Y-180525000D01*
X47775000Y-181100000D02*
X48139491Y-181100000D01*
D27*
G04 #@! TO.N,Net-(C234-Pad1)*
X43800000Y-181600000D02*
X43800000Y-180700000D01*
X43800000Y-180700000D02*
X43900000Y-180600000D01*
D28*
G04 #@! TO.N,Net-(C205-Pad1)*
X32350000Y-177417956D02*
X32514491Y-177253465D01*
X32350000Y-178200000D02*
X32350000Y-177417956D01*
X32350000Y-178967956D02*
X31864491Y-179453465D01*
X32350000Y-178200000D02*
X32350000Y-178967956D01*
G04 #@! TO.N,/Photodiode/REF_5V0*
X62650000Y-177250000D02*
X62195302Y-177704698D01*
X62195302Y-177704698D02*
X62195302Y-181650000D01*
D26*
G04 #@! TO.N,/Photodiode/+10V*
X32514491Y-175053465D02*
X32514491Y-173053465D01*
X29400081Y-178317875D02*
X29400081Y-187362081D01*
X29400081Y-187362081D02*
X30988000Y-188950000D01*
X30988000Y-188950000D02*
X32350000Y-188950000D01*
X32514491Y-175203465D02*
X29400081Y-178317875D01*
X32514491Y-175053465D02*
X32514491Y-175203465D01*
X32514491Y-173053465D02*
X32514491Y-172903465D01*
X36745834Y-164612000D02*
X46838000Y-164612000D01*
X46838000Y-164612000D02*
X48050000Y-163400000D01*
X48050000Y-163400000D02*
X48050000Y-163250000D01*
X31302491Y-171691465D02*
X31302491Y-170055343D01*
X32514491Y-172903465D02*
X31302491Y-171691465D01*
X31302491Y-170055343D02*
X35757834Y-165600000D01*
X35757834Y-165600000D02*
X36745834Y-164612000D01*
X42903072Y-188950000D02*
X44079374Y-190126302D01*
X44079374Y-190126302D02*
X49020626Y-190126302D01*
X32350000Y-188950000D02*
X42903072Y-188950000D01*
X64000000Y-188950000D02*
X70857101Y-182092899D01*
X49020626Y-190126302D02*
X50196928Y-188950000D01*
X70857101Y-182092899D02*
X71200000Y-181750000D01*
X50196928Y-188950000D02*
X64000000Y-188950000D01*
G04 #@! TO.N,Net-(C203-Pad1)*
X33000000Y-186850000D02*
X30411026Y-186850000D01*
X30411026Y-186850000D02*
X30314491Y-186753465D01*
D25*
G04 #@! TO.N,/Photodiode/+2V5*
X50450000Y-181750000D02*
X52350000Y-181750000D01*
X52350000Y-181750000D02*
X52450000Y-181650000D01*
X54400000Y-175550000D02*
X54400000Y-172750000D01*
X54400000Y-172750000D02*
X54550000Y-172600000D01*
X57350000Y-161050000D02*
X57350000Y-164225892D01*
X57350000Y-164225892D02*
X57112505Y-164463387D01*
D28*
G04 #@! TO.N,Net-(C211-Pad1)*
X32514491Y-170853465D02*
X32846535Y-170853465D01*
X32846535Y-170853465D02*
X33650000Y-170050000D01*
G04 #@! TO.N,/Photodiode/+1V0*
X49850000Y-187175000D02*
X49850000Y-187950000D01*
X49850000Y-187950000D02*
X49700000Y-188100000D01*
G04 #@! TD*
D25*
G04 #@! TO.N,GND*
G36*
X44715000Y-114748000D02*
X44715000Y-115023000D01*
X45723000Y-115023000D01*
X45723000Y-115003000D01*
X45977000Y-115003000D01*
X45977000Y-115023000D01*
X46985000Y-115023000D01*
X46985000Y-114748000D01*
X46893831Y-114461200D01*
X51806169Y-114461200D01*
X51715000Y-114748000D01*
X51715000Y-115023000D01*
X52723000Y-115023000D01*
X52723000Y-115003000D01*
X52977000Y-115003000D01*
X52977000Y-115023000D01*
X53985000Y-115023000D01*
X53985000Y-114748000D01*
X53893831Y-114461200D01*
X88938800Y-114461200D01*
X88938801Y-191989374D01*
X28361200Y-192038227D01*
X28361200Y-178317875D01*
X28364177Y-178317875D01*
X28384081Y-178417939D01*
X28384082Y-187262013D01*
X28364177Y-187362081D01*
X28419295Y-187639177D01*
X28443031Y-187758504D01*
X28667587Y-188094576D01*
X28752418Y-188151259D01*
X30198822Y-189597663D01*
X30255505Y-189682495D01*
X30591577Y-189907051D01*
X30887935Y-189966000D01*
X30887936Y-189966000D01*
X30988000Y-189985904D01*
X31088064Y-189966000D01*
X42482232Y-189966000D01*
X43290196Y-190773965D01*
X43346879Y-190858797D01*
X43431710Y-190915479D01*
X43682949Y-191083352D01*
X43682950Y-191083352D01*
X43682951Y-191083353D01*
X43979309Y-191142302D01*
X44079373Y-191162206D01*
X44179437Y-191142302D01*
X48920563Y-191142302D01*
X49020626Y-191162206D01*
X49120689Y-191142302D01*
X49120691Y-191142302D01*
X49417049Y-191083353D01*
X49753121Y-190858797D01*
X49809805Y-190773963D01*
X50617769Y-189966000D01*
X63899937Y-189966000D01*
X64000000Y-189985904D01*
X64100063Y-189966000D01*
X64100065Y-189966000D01*
X64396423Y-189907051D01*
X64732495Y-189682495D01*
X64789180Y-189597660D01*
X71646277Y-182740564D01*
X71646279Y-182740561D01*
X71989176Y-182397664D01*
X72157050Y-182146424D01*
X72235904Y-181750001D01*
X72157050Y-181353577D01*
X71932494Y-181017506D01*
X71596423Y-180792950D01*
X71199999Y-180714096D01*
X70803576Y-180792950D01*
X70552336Y-180960824D01*
X70209439Y-181303721D01*
X70209436Y-181303723D01*
X63579160Y-187934000D01*
X51034726Y-187934000D01*
X51235000Y-187450494D01*
X51235000Y-186899506D01*
X51024147Y-186390460D01*
X50634540Y-186000853D01*
X50125494Y-185790000D01*
X49574506Y-185790000D01*
X49065460Y-186000853D01*
X48675853Y-186390460D01*
X48465000Y-186899506D01*
X48465000Y-187450494D01*
X48675853Y-187959540D01*
X48722100Y-188005787D01*
X48722100Y-188294516D01*
X48870977Y-188653936D01*
X48963564Y-188746523D01*
X48599786Y-189110302D01*
X44500215Y-189110302D01*
X43692251Y-188302339D01*
X43635567Y-188217505D01*
X43299495Y-187992949D01*
X43003137Y-187934000D01*
X43003135Y-187934000D01*
X42903072Y-187914096D01*
X42803009Y-187934000D01*
X37694773Y-187934000D01*
X38015801Y-187612972D01*
X38249491Y-187048795D01*
X38249491Y-186438135D01*
X38015801Y-185873958D01*
X37846583Y-185704740D01*
X37862256Y-185701622D01*
X38072300Y-185561274D01*
X38212648Y-185351230D01*
X38261931Y-185103465D01*
X38261931Y-183303465D01*
X38212648Y-183055700D01*
X38072300Y-182845656D01*
X37862256Y-182705308D01*
X37614491Y-182656025D01*
X35814491Y-182656025D01*
X35566726Y-182705308D01*
X35356682Y-182845656D01*
X35216334Y-183055700D01*
X35167051Y-183303465D01*
X35167051Y-185103465D01*
X35216334Y-185351230D01*
X35356682Y-185561274D01*
X35566726Y-185701622D01*
X35582399Y-185704740D01*
X35413181Y-185873958D01*
X35179491Y-186438135D01*
X35179491Y-187048795D01*
X35413181Y-187612972D01*
X35734209Y-187934000D01*
X34165536Y-187934000D01*
X34223157Y-187847765D01*
X34272440Y-187600000D01*
X34272440Y-186100000D01*
X34223157Y-185852235D01*
X34082809Y-185642191D01*
X34021680Y-185601346D01*
X34163327Y-185459698D01*
X34260000Y-185226309D01*
X34260000Y-184635750D01*
X34101250Y-184477000D01*
X33127000Y-184477000D01*
X33127000Y-184497000D01*
X32873000Y-184497000D01*
X32873000Y-184477000D01*
X31898750Y-184477000D01*
X31740000Y-184635750D01*
X31740000Y-185226309D01*
X31836673Y-185459698D01*
X31978320Y-185601346D01*
X31917191Y-185642191D01*
X31789027Y-185834000D01*
X30767164Y-185834000D01*
X30710914Y-185796415D01*
X30416081Y-185737769D01*
X30416081Y-183473691D01*
X31740000Y-183473691D01*
X31740000Y-184064250D01*
X31898750Y-184223000D01*
X32873000Y-184223000D01*
X32873000Y-183123750D01*
X33127000Y-183123750D01*
X33127000Y-184223000D01*
X34101250Y-184223000D01*
X34260000Y-184064250D01*
X34260000Y-183473691D01*
X34163327Y-183240302D01*
X33984699Y-183061673D01*
X33751310Y-182965000D01*
X33285750Y-182965000D01*
X33127000Y-183123750D01*
X32873000Y-183123750D01*
X32714250Y-182965000D01*
X32248690Y-182965000D01*
X32015301Y-183061673D01*
X31836673Y-183240302D01*
X31740000Y-183473691D01*
X30416081Y-183473691D01*
X30416081Y-181885750D01*
X40665000Y-181885750D01*
X40665000Y-182101310D01*
X40761673Y-182334699D01*
X40940302Y-182513327D01*
X41173691Y-182610000D01*
X41614250Y-182610000D01*
X41773000Y-182451250D01*
X41773000Y-181727000D01*
X40823750Y-181727000D01*
X40665000Y-181885750D01*
X30416081Y-181885750D01*
X30416081Y-181098690D01*
X40665000Y-181098690D01*
X40665000Y-181314250D01*
X40823750Y-181473000D01*
X41773000Y-181473000D01*
X41773000Y-180748750D01*
X42027000Y-180748750D01*
X42027000Y-181473000D01*
X42047000Y-181473000D01*
X42047000Y-181727000D01*
X42027000Y-181727000D01*
X42027000Y-182451250D01*
X42185750Y-182610000D01*
X42626309Y-182610000D01*
X42859698Y-182513327D01*
X42860898Y-182512127D01*
X42952235Y-182573157D01*
X43200000Y-182622440D01*
X44400000Y-182622440D01*
X44647765Y-182573157D01*
X44857809Y-182432809D01*
X44998157Y-182222765D01*
X45047440Y-181975000D01*
X45047440Y-181225000D01*
X44998157Y-180977235D01*
X44896107Y-180824506D01*
X46390000Y-180824506D01*
X46390000Y-181375494D01*
X46600853Y-181884540D01*
X46990460Y-182274147D01*
X47499506Y-182485000D01*
X48050494Y-182485000D01*
X48559540Y-182274147D01*
X48949147Y-181884540D01*
X49085446Y-181555484D01*
X49472100Y-181555484D01*
X49472100Y-181944516D01*
X49620977Y-182303936D01*
X49896064Y-182579023D01*
X50255484Y-182727900D01*
X50644516Y-182727900D01*
X51003936Y-182579023D01*
X51070959Y-182512000D01*
X51975677Y-182512000D01*
X52255484Y-182627900D01*
X52644516Y-182627900D01*
X53003936Y-182479023D01*
X53279023Y-182203936D01*
X53427900Y-181844516D01*
X53427900Y-181455484D01*
X61217402Y-181455484D01*
X61217402Y-181844516D01*
X61366279Y-182203936D01*
X61641366Y-182479023D01*
X62000786Y-182627900D01*
X62389818Y-182627900D01*
X62749238Y-182479023D01*
X63024325Y-182203936D01*
X63173202Y-181844516D01*
X63173202Y-181455484D01*
X63024325Y-181096064D01*
X63020802Y-181092541D01*
X63020802Y-178154880D01*
X63203936Y-178079023D01*
X63479023Y-177803936D01*
X63627900Y-177444516D01*
X63627900Y-177055484D01*
X63479023Y-176696064D01*
X63203936Y-176420977D01*
X62844516Y-176272100D01*
X62455484Y-176272100D01*
X62096064Y-176420977D01*
X61820977Y-176696064D01*
X61672100Y-177055484D01*
X61672100Y-177060468D01*
X61669079Y-177063489D01*
X61600150Y-177109546D01*
X61417698Y-177382605D01*
X61369802Y-177623395D01*
X61353630Y-177704698D01*
X61369802Y-177786000D01*
X61369803Y-181092540D01*
X61366279Y-181096064D01*
X61217402Y-181455484D01*
X53427900Y-181455484D01*
X53279023Y-181096064D01*
X53003936Y-180820977D01*
X52644516Y-180672100D01*
X52255484Y-180672100D01*
X51896064Y-180820977D01*
X51729041Y-180988000D01*
X51070959Y-180988000D01*
X51003936Y-180920977D01*
X50644516Y-180772100D01*
X50255484Y-180772100D01*
X49896064Y-180920977D01*
X49620977Y-181196064D01*
X49472100Y-181555484D01*
X49085446Y-181555484D01*
X49148280Y-181403790D01*
X49268427Y-181354023D01*
X49543514Y-181078936D01*
X49692391Y-180719516D01*
X49692391Y-180330484D01*
X49543514Y-179971064D01*
X49268427Y-179695977D01*
X48909007Y-179547100D01*
X48519975Y-179547100D01*
X48160555Y-179695977D01*
X48114868Y-179741664D01*
X48050494Y-179715000D01*
X47499506Y-179715000D01*
X46990460Y-179925853D01*
X46600853Y-180315460D01*
X46390000Y-180824506D01*
X44896107Y-180824506D01*
X44877199Y-180796209D01*
X44877900Y-180794516D01*
X44877900Y-180405484D01*
X44729023Y-180046064D01*
X44453936Y-179770977D01*
X44094516Y-179622100D01*
X43705484Y-179622100D01*
X43346064Y-179770977D01*
X43070977Y-180046064D01*
X42922100Y-180405484D01*
X42922100Y-180646979D01*
X42860898Y-180687873D01*
X42859698Y-180686673D01*
X42626309Y-180590000D01*
X42185750Y-180590000D01*
X42027000Y-180748750D01*
X41773000Y-180748750D01*
X41614250Y-180590000D01*
X41173691Y-180590000D01*
X40940302Y-180686673D01*
X40761673Y-180865301D01*
X40665000Y-181098690D01*
X30416081Y-181098690D01*
X30416081Y-178738715D01*
X30501992Y-178652804D01*
X30467051Y-178828465D01*
X30467051Y-180078465D01*
X30516334Y-180326230D01*
X30656682Y-180536274D01*
X30866726Y-180676622D01*
X31114491Y-180725905D01*
X32614491Y-180725905D01*
X32862256Y-180676622D01*
X33072300Y-180536274D01*
X33113145Y-180475145D01*
X33254793Y-180616792D01*
X33488182Y-180713465D01*
X34078741Y-180713465D01*
X34237491Y-180554715D01*
X34237491Y-179580465D01*
X34491491Y-179580465D01*
X34491491Y-180554715D01*
X34650241Y-180713465D01*
X35240800Y-180713465D01*
X35474189Y-180616792D01*
X35652818Y-180438164D01*
X35749491Y-180204775D01*
X35749491Y-179739215D01*
X35590741Y-179580465D01*
X34491491Y-179580465D01*
X34237491Y-179580465D01*
X34217491Y-179580465D01*
X34217491Y-179326465D01*
X34237491Y-179326465D01*
X34237491Y-178352215D01*
X34491491Y-178352215D01*
X34491491Y-179326465D01*
X35590741Y-179326465D01*
X35749491Y-179167715D01*
X35749491Y-178702155D01*
X35652818Y-178468766D01*
X35474189Y-178290138D01*
X35240800Y-178193465D01*
X34650241Y-178193465D01*
X34491491Y-178352215D01*
X34237491Y-178352215D01*
X34078741Y-178193465D01*
X33501018Y-178193465D01*
X33562648Y-178101230D01*
X33611931Y-177853465D01*
X33611931Y-176653465D01*
X33562648Y-176405700D01*
X33422300Y-176195656D01*
X33359157Y-176153465D01*
X33422300Y-176111274D01*
X33562648Y-175901230D01*
X33611931Y-175653465D01*
X33611931Y-175355484D01*
X53422100Y-175355484D01*
X53422100Y-175744516D01*
X53570977Y-176103936D01*
X53846064Y-176379023D01*
X54205484Y-176527900D01*
X54594516Y-176527900D01*
X54953936Y-176379023D01*
X55229023Y-176103936D01*
X55377900Y-175744516D01*
X55377900Y-175355484D01*
X55229023Y-174996064D01*
X55162000Y-174929041D01*
X55162000Y-173370959D01*
X55379023Y-173153936D01*
X55527900Y-172794516D01*
X55527900Y-172755484D01*
X60772100Y-172755484D01*
X60772100Y-173144516D01*
X60920977Y-173503936D01*
X61196064Y-173779023D01*
X61555484Y-173927900D01*
X61944516Y-173927900D01*
X62303936Y-173779023D01*
X62345559Y-173737400D01*
X64173849Y-173737400D01*
X65572100Y-175135652D01*
X65572100Y-175194516D01*
X65720977Y-175553936D01*
X65996064Y-175829023D01*
X66355484Y-175977900D01*
X66744516Y-175977900D01*
X67103936Y-175829023D01*
X67177475Y-175755484D01*
X68222100Y-175755484D01*
X68222100Y-176144516D01*
X68370977Y-176503936D01*
X68646064Y-176779023D01*
X68762601Y-176827294D01*
X68762600Y-178604441D01*
X68720977Y-178646064D01*
X68572100Y-179005484D01*
X68572100Y-179394516D01*
X68720977Y-179753936D01*
X68996064Y-180029023D01*
X69355484Y-180177900D01*
X69744516Y-180177900D01*
X70103936Y-180029023D01*
X70379023Y-179753936D01*
X70527900Y-179394516D01*
X70527900Y-179005484D01*
X70379023Y-178646064D01*
X70337400Y-178604441D01*
X70337400Y-176377551D01*
X70352826Y-176300000D01*
X70315286Y-176111274D01*
X70291715Y-175992772D01*
X70177900Y-175822436D01*
X70177900Y-175755484D01*
X70029023Y-175396064D01*
X69753936Y-175120977D01*
X69394516Y-174972100D01*
X69005484Y-174972100D01*
X68646064Y-175120977D01*
X68370977Y-175396064D01*
X68222100Y-175755484D01*
X67177475Y-175755484D01*
X67379023Y-175553936D01*
X67527900Y-175194516D01*
X67527900Y-174805484D01*
X67379023Y-174446064D01*
X67103936Y-174170977D01*
X66898181Y-174085750D01*
X68415000Y-174085750D01*
X68415000Y-174301310D01*
X68511673Y-174534699D01*
X68690302Y-174713327D01*
X68923691Y-174810000D01*
X69364250Y-174810000D01*
X69523000Y-174651250D01*
X69523000Y-173927000D01*
X68573750Y-173927000D01*
X68415000Y-174085750D01*
X66898181Y-174085750D01*
X66744516Y-174022100D01*
X66685652Y-174022100D01*
X65962242Y-173298690D01*
X68415000Y-173298690D01*
X68415000Y-173514250D01*
X68573750Y-173673000D01*
X69523000Y-173673000D01*
X69523000Y-172948750D01*
X69777000Y-172948750D01*
X69777000Y-173673000D01*
X69797000Y-173673000D01*
X69797000Y-173927000D01*
X69777000Y-173927000D01*
X69777000Y-174651250D01*
X69935750Y-174810000D01*
X70376309Y-174810000D01*
X70609698Y-174713327D01*
X70610898Y-174712127D01*
X70702235Y-174773157D01*
X70950000Y-174822440D01*
X72150000Y-174822440D01*
X72397765Y-174773157D01*
X72607809Y-174632809D01*
X72748157Y-174422765D01*
X72797440Y-174175000D01*
X72797440Y-173425000D01*
X72748157Y-173177235D01*
X72607809Y-172967191D01*
X72397765Y-172826843D01*
X72150000Y-172777560D01*
X70950000Y-172777560D01*
X70702235Y-172826843D01*
X70610898Y-172887873D01*
X70609698Y-172886673D01*
X70376309Y-172790000D01*
X69935750Y-172790000D01*
X69777000Y-172948750D01*
X69523000Y-172948750D01*
X69364250Y-172790000D01*
X68923691Y-172790000D01*
X68690302Y-172886673D01*
X68511673Y-173065301D01*
X68415000Y-173298690D01*
X65962242Y-173298690D01*
X65111616Y-172448065D01*
X65067684Y-172382316D01*
X64807228Y-172208285D01*
X64577552Y-172162600D01*
X64577551Y-172162600D01*
X64500000Y-172147174D01*
X64422449Y-172162600D01*
X62345559Y-172162600D01*
X62303936Y-172120977D01*
X61944516Y-171972100D01*
X61555484Y-171972100D01*
X61196064Y-172120977D01*
X60920977Y-172396064D01*
X60772100Y-172755484D01*
X55527900Y-172755484D01*
X55527900Y-172405484D01*
X55379023Y-172046064D01*
X55103936Y-171770977D01*
X54744516Y-171622100D01*
X54355484Y-171622100D01*
X53996064Y-171770977D01*
X53720977Y-172046064D01*
X53572100Y-172405484D01*
X53572100Y-172794516D01*
X53638001Y-172953614D01*
X53638000Y-174929041D01*
X53570977Y-174996064D01*
X53422100Y-175355484D01*
X33611931Y-175355484D01*
X33611931Y-174453465D01*
X33562648Y-174205700D01*
X33530491Y-174157574D01*
X33530491Y-173949356D01*
X33562648Y-173901230D01*
X33611931Y-173653465D01*
X33611931Y-172453465D01*
X33562648Y-172205700D01*
X33422300Y-171995656D01*
X33359157Y-171953465D01*
X33422300Y-171911274D01*
X33562648Y-171701230D01*
X33611931Y-171453465D01*
X33611931Y-171255501D01*
X33839533Y-171027900D01*
X33844516Y-171027900D01*
X34203936Y-170879023D01*
X34479023Y-170603936D01*
X34627900Y-170244516D01*
X34627900Y-169855484D01*
X34479023Y-169496064D01*
X34203936Y-169220977D01*
X33844516Y-169072100D01*
X33722574Y-169072100D01*
X36547010Y-166247665D01*
X36547012Y-166247662D01*
X37166675Y-165628000D01*
X46737937Y-165628000D01*
X46838000Y-165647904D01*
X46938063Y-165628000D01*
X46938065Y-165628000D01*
X47234423Y-165569051D01*
X47570495Y-165344495D01*
X47627179Y-165259661D01*
X48389401Y-164497440D01*
X48500000Y-164497440D01*
X48747765Y-164448157D01*
X48957809Y-164307809D01*
X49028695Y-164201721D01*
X49065301Y-164238327D01*
X49298690Y-164335000D01*
X49514250Y-164335000D01*
X49673000Y-164176250D01*
X49673000Y-163227000D01*
X49927000Y-163227000D01*
X49927000Y-164176250D01*
X50085750Y-164335000D01*
X50301310Y-164335000D01*
X50460959Y-164268871D01*
X56134605Y-164268871D01*
X56134605Y-164657903D01*
X56283482Y-165017323D01*
X56558569Y-165292410D01*
X56917989Y-165441287D01*
X57307021Y-165441287D01*
X57666441Y-165292410D01*
X57941528Y-165017323D01*
X58090405Y-164657903D01*
X58090405Y-164409506D01*
X58112000Y-164300940D01*
X58112000Y-164300939D01*
X58126928Y-164225892D01*
X58112000Y-164150845D01*
X58112000Y-161670959D01*
X58179023Y-161603936D01*
X58327900Y-161244516D01*
X58327900Y-160855484D01*
X58179023Y-160496064D01*
X57903936Y-160220977D01*
X57544516Y-160072100D01*
X57155484Y-160072100D01*
X56796064Y-160220977D01*
X56520977Y-160496064D01*
X56372100Y-160855484D01*
X56372100Y-161244516D01*
X56520977Y-161603936D01*
X56588000Y-161670959D01*
X56588001Y-163622173D01*
X56558569Y-163634364D01*
X56283482Y-163909451D01*
X56134605Y-164268871D01*
X50460959Y-164268871D01*
X50534699Y-164238327D01*
X50713327Y-164059698D01*
X50810000Y-163826309D01*
X50810000Y-163385750D01*
X50651250Y-163227000D01*
X49927000Y-163227000D01*
X49673000Y-163227000D01*
X49653000Y-163227000D01*
X49653000Y-162973000D01*
X49673000Y-162973000D01*
X49673000Y-162953000D01*
X49927000Y-162953000D01*
X49927000Y-162973000D01*
X50651250Y-162973000D01*
X50810000Y-162814250D01*
X50810000Y-162373691D01*
X50713327Y-162140302D01*
X50712127Y-162139102D01*
X50773157Y-162047765D01*
X50822440Y-161800000D01*
X50822440Y-160600000D01*
X50773157Y-160352235D01*
X50632809Y-160142191D01*
X50422765Y-160001843D01*
X50175000Y-159952560D01*
X49425000Y-159952560D01*
X49177235Y-160001843D01*
X49029996Y-160100226D01*
X48957809Y-159992191D01*
X48747765Y-159851843D01*
X48500000Y-159802560D01*
X47600000Y-159802560D01*
X47463658Y-159829680D01*
X47429023Y-159746064D01*
X47153936Y-159470977D01*
X46794516Y-159322100D01*
X46405484Y-159322100D01*
X46046064Y-159470977D01*
X45770977Y-159746064D01*
X45622100Y-160105484D01*
X45622100Y-160494516D01*
X45770977Y-160853936D01*
X46046064Y-161129023D01*
X46405484Y-161277900D01*
X46410467Y-161277900D01*
X46708793Y-161576226D01*
X46754848Y-161645152D01*
X46981753Y-161796766D01*
X47001843Y-161897765D01*
X47142191Y-162107809D01*
X47205334Y-162150000D01*
X47142191Y-162192191D01*
X47001843Y-162402235D01*
X46952560Y-162650000D01*
X46952560Y-163060599D01*
X46417160Y-163596000D01*
X36845897Y-163596000D01*
X36745834Y-163576096D01*
X36645770Y-163596000D01*
X36645769Y-163596000D01*
X36349411Y-163654949D01*
X36013339Y-163879505D01*
X35956656Y-163964337D01*
X35110172Y-164810822D01*
X35110169Y-164810824D01*
X30654829Y-169266165D01*
X30569997Y-169322848D01*
X30513314Y-169407680D01*
X30345441Y-169658920D01*
X30266587Y-170055343D01*
X30286492Y-170155411D01*
X30286491Y-171591401D01*
X30266587Y-171691465D01*
X30286491Y-171791528D01*
X30286491Y-171791529D01*
X30345440Y-172087887D01*
X30569996Y-172423960D01*
X30654830Y-172480644D01*
X31417051Y-173242866D01*
X31417051Y-173653465D01*
X31466334Y-173901230D01*
X31498492Y-173949357D01*
X31498491Y-174157573D01*
X31466334Y-174205700D01*
X31417051Y-174453465D01*
X31417051Y-174864064D01*
X28752421Y-177528695D01*
X28667586Y-177585380D01*
X28443030Y-177921453D01*
X28403796Y-178118697D01*
X28364177Y-178317875D01*
X28361200Y-178317875D01*
X28361200Y-159224506D01*
X52215000Y-159224506D01*
X52215000Y-159775494D01*
X52425853Y-160284540D01*
X52815460Y-160674147D01*
X53324506Y-160885000D01*
X53875494Y-160885000D01*
X54384540Y-160674147D01*
X54774147Y-160284540D01*
X54985000Y-159775494D01*
X54985000Y-159224506D01*
X54877900Y-158965943D01*
X54877900Y-158805484D01*
X54729023Y-158446064D01*
X54453936Y-158170977D01*
X54094516Y-158022100D01*
X53705484Y-158022100D01*
X53481204Y-158115000D01*
X53324506Y-158115000D01*
X52815460Y-158325853D01*
X52425853Y-158715460D01*
X52215000Y-159224506D01*
X28361200Y-159224506D01*
X28361200Y-140059047D01*
X33085756Y-140059047D01*
X33085756Y-141559047D01*
X33135039Y-141806812D01*
X33275387Y-142016856D01*
X33485431Y-142157204D01*
X33733196Y-142206487D01*
X34139055Y-142206487D01*
X34172100Y-142239533D01*
X34172100Y-142244516D01*
X34320977Y-142603936D01*
X34596064Y-142879023D01*
X34955484Y-143027900D01*
X35344516Y-143027900D01*
X35703936Y-142879023D01*
X35979023Y-142603936D01*
X36122941Y-142256487D01*
X37083196Y-142256487D01*
X37330961Y-142207204D01*
X37541005Y-142066856D01*
X37681353Y-141856812D01*
X37730636Y-141609047D01*
X37730636Y-140109047D01*
X37681353Y-139861282D01*
X37541005Y-139651238D01*
X37479876Y-139610393D01*
X37621523Y-139468745D01*
X37718196Y-139235356D01*
X37718196Y-138644797D01*
X37559446Y-138486047D01*
X36585196Y-138486047D01*
X36585196Y-138506047D01*
X36331196Y-138506047D01*
X36331196Y-138486047D01*
X35509446Y-138486047D01*
X35459446Y-138436047D01*
X34485196Y-138436047D01*
X34485196Y-138456047D01*
X34231196Y-138456047D01*
X34231196Y-138436047D01*
X33256946Y-138436047D01*
X33098196Y-138594797D01*
X33098196Y-139185356D01*
X33194869Y-139418745D01*
X33336516Y-139560393D01*
X33275387Y-139601238D01*
X33135039Y-139811282D01*
X33085756Y-140059047D01*
X28361200Y-140059047D01*
X28361200Y-137432738D01*
X33098196Y-137432738D01*
X33098196Y-138023297D01*
X33256946Y-138182047D01*
X34231196Y-138182047D01*
X34231196Y-137082797D01*
X34485196Y-137082797D01*
X34485196Y-138182047D01*
X35306946Y-138182047D01*
X35356946Y-138232047D01*
X36331196Y-138232047D01*
X36331196Y-137132797D01*
X36585196Y-137132797D01*
X36585196Y-138232047D01*
X37559446Y-138232047D01*
X37718196Y-138073297D01*
X37718196Y-137482738D01*
X37621523Y-137249349D01*
X37442895Y-137070720D01*
X37209506Y-136974047D01*
X36743946Y-136974047D01*
X36585196Y-137132797D01*
X36331196Y-137132797D01*
X36172446Y-136974047D01*
X35706886Y-136974047D01*
X35473497Y-137070720D01*
X35433196Y-137111021D01*
X35342895Y-137020720D01*
X35109506Y-136924047D01*
X34643946Y-136924047D01*
X34485196Y-137082797D01*
X34231196Y-137082797D01*
X34072446Y-136924047D01*
X33606886Y-136924047D01*
X33373497Y-137020720D01*
X33194869Y-137199349D01*
X33098196Y-137432738D01*
X28361200Y-137432738D01*
X28361200Y-132550000D01*
X33027560Y-132550000D01*
X33027560Y-134050000D01*
X33076843Y-134297765D01*
X33217191Y-134507809D01*
X33427235Y-134648157D01*
X33675000Y-134697440D01*
X34405008Y-134697440D01*
X36183793Y-136476226D01*
X36229848Y-136545152D01*
X36502906Y-136727604D01*
X36743697Y-136775500D01*
X36743701Y-136775500D01*
X36824999Y-136791671D01*
X36906297Y-136775500D01*
X38392541Y-136775500D01*
X38396064Y-136779023D01*
X38755484Y-136927900D01*
X39144516Y-136927900D01*
X39503936Y-136779023D01*
X39507459Y-136775500D01*
X40808068Y-136775500D01*
X41574500Y-137541933D01*
X41574501Y-141368694D01*
X41558328Y-141450000D01*
X41613607Y-141727905D01*
X41622397Y-141772094D01*
X41804849Y-142045152D01*
X41873775Y-142091207D01*
X57413636Y-157631069D01*
X57459691Y-157699995D01*
X57732749Y-157882447D01*
X57973540Y-157930343D01*
X57973544Y-157930343D01*
X58054842Y-157946514D01*
X58136140Y-157930343D01*
X65987698Y-157930343D01*
X65991221Y-157933866D01*
X66350641Y-158082743D01*
X66739673Y-158082743D01*
X67099093Y-157933866D01*
X67374180Y-157658779D01*
X67523057Y-157299359D01*
X67523057Y-156910327D01*
X67374180Y-156550907D01*
X67099093Y-156275820D01*
X66739673Y-156126943D01*
X66350641Y-156126943D01*
X65991221Y-156275820D01*
X65987698Y-156279343D01*
X58396776Y-156279343D01*
X52672917Y-150555484D01*
X60022100Y-150555484D01*
X60022100Y-150944516D01*
X60170977Y-151303936D01*
X60446064Y-151579023D01*
X60805484Y-151727900D01*
X61194516Y-151727900D01*
X61553936Y-151579023D01*
X61829023Y-151303936D01*
X61977900Y-150944516D01*
X61977900Y-150885651D01*
X64901938Y-147961614D01*
X64967684Y-147917684D01*
X65141715Y-147657228D01*
X65187400Y-147427552D01*
X65187400Y-147427551D01*
X65202826Y-147350001D01*
X65187400Y-147272450D01*
X65187400Y-147147618D01*
X68555121Y-147147618D01*
X68580000Y-147272693D01*
X68580001Y-165824920D01*
X68555121Y-165950000D01*
X68653688Y-166445529D01*
X68863530Y-166759580D01*
X68863532Y-166759582D01*
X68934383Y-166865618D01*
X69040419Y-166936469D01*
X69263529Y-167159579D01*
X69334382Y-167265618D01*
X69754471Y-167546313D01*
X70124920Y-167620000D01*
X70124924Y-167620000D01*
X70249999Y-167644879D01*
X70375074Y-167620000D01*
X72083160Y-167620000D01*
X72960822Y-168497663D01*
X73017505Y-168582495D01*
X73215813Y-168715000D01*
X73353575Y-168807050D01*
X73353576Y-168807050D01*
X73353577Y-168807051D01*
X73649935Y-168866000D01*
X73749999Y-168885904D01*
X73850063Y-168866000D01*
X74400065Y-168866000D01*
X74696423Y-168807051D01*
X75032495Y-168582495D01*
X75145676Y-168413108D01*
X76132567Y-169400000D01*
X75560468Y-169972100D01*
X75555484Y-169972100D01*
X75196064Y-170120977D01*
X74920977Y-170396064D01*
X74772100Y-170755484D01*
X74772100Y-171144516D01*
X74920977Y-171503936D01*
X75196064Y-171779023D01*
X75555484Y-171927900D01*
X75944516Y-171927900D01*
X76303936Y-171779023D01*
X76579023Y-171503936D01*
X76727900Y-171144516D01*
X76727900Y-171139532D01*
X77564271Y-170303162D01*
X77660823Y-170447663D01*
X78310822Y-171097663D01*
X78367505Y-171182495D01*
X78703577Y-171407051D01*
X78999935Y-171466000D01*
X78999936Y-171466000D01*
X79100000Y-171485904D01*
X79200063Y-171466000D01*
X82750065Y-171466000D01*
X83046423Y-171407051D01*
X83382495Y-171182495D01*
X83607051Y-170846423D01*
X83685904Y-170450000D01*
X83607051Y-170053577D01*
X83382495Y-169717505D01*
X83046423Y-169492949D01*
X82750065Y-169434000D01*
X80698959Y-169434000D01*
X80779023Y-169353936D01*
X80927900Y-168994516D01*
X80927900Y-168605484D01*
X80779023Y-168246064D01*
X80503936Y-167970977D01*
X80144516Y-167822100D01*
X79755484Y-167822100D01*
X79396064Y-167970977D01*
X79392541Y-167974500D01*
X77981297Y-167974500D01*
X77899999Y-167958329D01*
X77818701Y-167974500D01*
X77818697Y-167974500D01*
X77577906Y-168022396D01*
X77304848Y-168204848D01*
X77291803Y-168224371D01*
X73757432Y-164690000D01*
X84935908Y-164690000D01*
X85051161Y-165269418D01*
X85379375Y-165760625D01*
X85677761Y-165960000D01*
X85379375Y-166159375D01*
X85051161Y-166650582D01*
X84935908Y-167230000D01*
X85051161Y-167809418D01*
X85379375Y-168300625D01*
X85870582Y-168628839D01*
X86303744Y-168715000D01*
X86596256Y-168715000D01*
X87029418Y-168628839D01*
X87520625Y-168300625D01*
X87848839Y-167809418D01*
X87964092Y-167230000D01*
X87848839Y-166650582D01*
X87520625Y-166159375D01*
X87222239Y-165960000D01*
X87520625Y-165760625D01*
X87848839Y-165269418D01*
X87964092Y-164690000D01*
X87848839Y-164110582D01*
X87520625Y-163619375D01*
X87498967Y-163604904D01*
X87659698Y-163538327D01*
X87838327Y-163359699D01*
X87935000Y-163126310D01*
X87935000Y-162435750D01*
X87776250Y-162277000D01*
X86577000Y-162277000D01*
X86577000Y-162297000D01*
X86323000Y-162297000D01*
X86323000Y-162277000D01*
X85123750Y-162277000D01*
X84965000Y-162435750D01*
X84965000Y-163126310D01*
X85061673Y-163359699D01*
X85240302Y-163538327D01*
X85401033Y-163604904D01*
X85379375Y-163619375D01*
X85051161Y-164110582D01*
X84935908Y-164690000D01*
X73757432Y-164690000D01*
X73734108Y-164666676D01*
X73688051Y-164597747D01*
X73414993Y-164415295D01*
X73174202Y-164367399D01*
X73174200Y-164367399D01*
X73092899Y-164351227D01*
X73011598Y-164367399D01*
X72208571Y-164367399D01*
X72179023Y-164296064D01*
X71903936Y-164020977D01*
X71544516Y-163872100D01*
X71155484Y-163872100D01*
X71120000Y-163886798D01*
X71120000Y-154950000D01*
X76064096Y-154950000D01*
X76142949Y-155346423D01*
X76367505Y-155682495D01*
X76703577Y-155907051D01*
X76999935Y-155966000D01*
X77329160Y-155966000D01*
X83252335Y-161889176D01*
X83503575Y-162057050D01*
X83899999Y-162135904D01*
X84296423Y-162057050D01*
X84632494Y-161832494D01*
X84857050Y-161496423D01*
X84921245Y-161173690D01*
X84965000Y-161173690D01*
X84965000Y-161864250D01*
X85123750Y-162023000D01*
X86323000Y-162023000D01*
X86323000Y-160823750D01*
X86577000Y-160823750D01*
X86577000Y-162023000D01*
X87776250Y-162023000D01*
X87935000Y-161864250D01*
X87935000Y-161173690D01*
X87838327Y-160940301D01*
X87659698Y-160761673D01*
X87426309Y-160665000D01*
X86735750Y-160665000D01*
X86577000Y-160823750D01*
X86323000Y-160823750D01*
X86164250Y-160665000D01*
X85473691Y-160665000D01*
X85240302Y-160761673D01*
X85061673Y-160940301D01*
X84965000Y-161173690D01*
X84921245Y-161173690D01*
X84935904Y-161099999D01*
X84857050Y-160703575D01*
X84689176Y-160452335D01*
X78539180Y-154302340D01*
X78482495Y-154217505D01*
X78146423Y-153992949D01*
X77850065Y-153934000D01*
X77850063Y-153934000D01*
X77750000Y-153914096D01*
X77649937Y-153934000D01*
X76999935Y-153934000D01*
X76703577Y-153992949D01*
X76367505Y-154217505D01*
X76142949Y-154553577D01*
X76064096Y-154950000D01*
X71120000Y-154950000D01*
X71120000Y-147673668D01*
X77523669Y-141270000D01*
X82175080Y-141270000D01*
X82545529Y-141196313D01*
X82965618Y-140915618D01*
X83246313Y-140495529D01*
X83291969Y-140266000D01*
X83500065Y-140266000D01*
X83796423Y-140207051D01*
X84132495Y-139982495D01*
X84357051Y-139646423D01*
X84435904Y-139250000D01*
X84357051Y-138853577D01*
X84132495Y-138517505D01*
X83796423Y-138292949D01*
X83500065Y-138234000D01*
X82900063Y-138234000D01*
X82799999Y-138214096D01*
X82699936Y-138234000D01*
X82699935Y-138234000D01*
X82403577Y-138292949D01*
X82067505Y-138517505D01*
X82010822Y-138602337D01*
X81883159Y-138730000D01*
X77122692Y-138730000D01*
X76997617Y-138705121D01*
X76872542Y-138730000D01*
X76872538Y-138730000D01*
X76502089Y-138803687D01*
X76082000Y-139084382D01*
X76011149Y-139190418D01*
X69040421Y-146161147D01*
X68934382Y-146232000D01*
X68653687Y-146652090D01*
X68580000Y-147022539D01*
X68580000Y-147022543D01*
X68555121Y-147147618D01*
X65187400Y-147147618D01*
X65187400Y-128650000D01*
X69555121Y-128650000D01*
X69653688Y-129145529D01*
X69863530Y-129459580D01*
X71063530Y-130659581D01*
X71134382Y-130765618D01*
X71240418Y-130836469D01*
X71240419Y-130836470D01*
X71300967Y-130876927D01*
X71554471Y-131046313D01*
X71924920Y-131120000D01*
X71924924Y-131120000D01*
X72049999Y-131144879D01*
X72175074Y-131120000D01*
X82275080Y-131120000D01*
X82645529Y-131046313D01*
X83065618Y-130765618D01*
X83346313Y-130345529D01*
X83444880Y-129850000D01*
X83346313Y-129354471D01*
X83065618Y-128934382D01*
X82645529Y-128653687D01*
X82275080Y-128580000D01*
X72576051Y-128580000D01*
X71659580Y-127663530D01*
X71345529Y-127453688D01*
X70850000Y-127355121D01*
X70354471Y-127453688D01*
X69934382Y-127734382D01*
X69653688Y-128154471D01*
X69555121Y-128650000D01*
X65187400Y-128650000D01*
X65187400Y-123577551D01*
X65202826Y-123500000D01*
X65187107Y-123420977D01*
X65141715Y-123192772D01*
X64967684Y-122932316D01*
X64901937Y-122888386D01*
X64727900Y-122714348D01*
X64727900Y-122655484D01*
X64579023Y-122296064D01*
X64303936Y-122020977D01*
X63944516Y-121872100D01*
X63555484Y-121872100D01*
X63196064Y-122020977D01*
X62920977Y-122296064D01*
X62772100Y-122655484D01*
X62772100Y-123044516D01*
X62920977Y-123403936D01*
X63196064Y-123679023D01*
X63555484Y-123827900D01*
X63612601Y-123827900D01*
X63612600Y-147023848D01*
X62585000Y-148051448D01*
X62585000Y-147785750D01*
X62426250Y-147627000D01*
X61227000Y-147627000D01*
X61227000Y-148826250D01*
X61385750Y-148985000D01*
X61651449Y-148985000D01*
X60864349Y-149772100D01*
X60805484Y-149772100D01*
X60446064Y-149920977D01*
X60170977Y-150196064D01*
X60022100Y-150555484D01*
X52672917Y-150555484D01*
X49903183Y-147785750D01*
X59615000Y-147785750D01*
X59615000Y-148476310D01*
X59711673Y-148709699D01*
X59890302Y-148888327D01*
X60123691Y-148985000D01*
X60814250Y-148985000D01*
X60973000Y-148826250D01*
X60973000Y-147627000D01*
X59773750Y-147627000D01*
X59615000Y-147785750D01*
X49903183Y-147785750D01*
X44537433Y-142420000D01*
X59585908Y-142420000D01*
X59701161Y-142999418D01*
X60029375Y-143490625D01*
X60327761Y-143690000D01*
X60029375Y-143889375D01*
X59701161Y-144380582D01*
X59585908Y-144960000D01*
X59701161Y-145539418D01*
X60029375Y-146030625D01*
X60051033Y-146045096D01*
X59890302Y-146111673D01*
X59711673Y-146290301D01*
X59615000Y-146523690D01*
X59615000Y-147214250D01*
X59773750Y-147373000D01*
X60973000Y-147373000D01*
X60973000Y-147353000D01*
X61227000Y-147353000D01*
X61227000Y-147373000D01*
X62426250Y-147373000D01*
X62585000Y-147214250D01*
X62585000Y-146523690D01*
X62488327Y-146290301D01*
X62309698Y-146111673D01*
X62148967Y-146045096D01*
X62170625Y-146030625D01*
X62498839Y-145539418D01*
X62614092Y-144960000D01*
X62498839Y-144380582D01*
X62170625Y-143889375D01*
X61872239Y-143690000D01*
X62170625Y-143490625D01*
X62498839Y-142999418D01*
X62614092Y-142420000D01*
X62498839Y-141840582D01*
X62170625Y-141349375D01*
X61679418Y-141021161D01*
X61246256Y-140935000D01*
X60953744Y-140935000D01*
X60520582Y-141021161D01*
X60029375Y-141349375D01*
X59701161Y-141840582D01*
X59585908Y-142420000D01*
X44537433Y-142420000D01*
X43225500Y-141108068D01*
X43225500Y-137281301D01*
X43241672Y-137200000D01*
X43222872Y-137105484D01*
X53222100Y-137105484D01*
X53222100Y-137494516D01*
X53370977Y-137853936D01*
X53646064Y-138129023D01*
X54005484Y-138277900D01*
X54394516Y-138277900D01*
X54753936Y-138129023D01*
X55029023Y-137853936D01*
X55177900Y-137494516D01*
X55177900Y-137435651D01*
X55751938Y-136861614D01*
X55817684Y-136817684D01*
X55991715Y-136557228D01*
X56037400Y-136327552D01*
X56052826Y-136250001D01*
X56037400Y-136172450D01*
X56037400Y-135645559D01*
X56079023Y-135603936D01*
X56227900Y-135244516D01*
X56227900Y-134855484D01*
X56079023Y-134496064D01*
X55803936Y-134220977D01*
X55444516Y-134072100D01*
X55055484Y-134072100D01*
X54696064Y-134220977D01*
X54420977Y-134496064D01*
X54272100Y-134855484D01*
X54272100Y-135244516D01*
X54420977Y-135603936D01*
X54462600Y-135645559D01*
X54462601Y-135923848D01*
X54064349Y-136322100D01*
X54005484Y-136322100D01*
X53646064Y-136470977D01*
X53370977Y-136746064D01*
X53222100Y-137105484D01*
X43222872Y-137105484D01*
X43218359Y-137082797D01*
X43177604Y-136877906D01*
X42995152Y-136604848D01*
X42926226Y-136558793D01*
X41791209Y-135423777D01*
X41745152Y-135354848D01*
X41472094Y-135172396D01*
X41231303Y-135124500D01*
X41231301Y-135124500D01*
X41150000Y-135108328D01*
X41068699Y-135124500D01*
X39507459Y-135124500D01*
X39503936Y-135120977D01*
X39144516Y-134972100D01*
X38755484Y-134972100D01*
X38396064Y-135120977D01*
X38392541Y-135124500D01*
X37166933Y-135124500D01*
X35915745Y-133873312D01*
X35947209Y-133826223D01*
X37876226Y-131897207D01*
X37945152Y-131851152D01*
X38127604Y-131578094D01*
X38175500Y-131337303D01*
X38191672Y-131256000D01*
X38175500Y-131174697D01*
X38175500Y-128407459D01*
X38179023Y-128403936D01*
X38318599Y-128066970D01*
X38318599Y-129490489D01*
X38303672Y-129565532D01*
X38318599Y-129640575D01*
X38318599Y-129640579D01*
X38362811Y-129862848D01*
X38531228Y-130114903D01*
X38594852Y-130157415D01*
X39023185Y-130585749D01*
X39065696Y-130649371D01*
X39317750Y-130817788D01*
X39463900Y-130846859D01*
X39546064Y-130929023D01*
X39905484Y-131077900D01*
X40294516Y-131077900D01*
X40653936Y-130929023D01*
X40929023Y-130653936D01*
X40969803Y-130555484D01*
X47472100Y-130555484D01*
X47472100Y-130944516D01*
X47620977Y-131303936D01*
X47896064Y-131579023D01*
X48255484Y-131727900D01*
X48260468Y-131727900D01*
X48763732Y-132231165D01*
X48801843Y-132422765D01*
X48886859Y-132550000D01*
X48801843Y-132677235D01*
X48752560Y-132925000D01*
X48752560Y-133675000D01*
X48801843Y-133922765D01*
X48942191Y-134132809D01*
X49152235Y-134273157D01*
X49400000Y-134322440D01*
X50600000Y-134322440D01*
X50847765Y-134273157D01*
X50939102Y-134212127D01*
X50940302Y-134213327D01*
X51173691Y-134310000D01*
X51614250Y-134310000D01*
X51773000Y-134151250D01*
X51773000Y-133427000D01*
X52027000Y-133427000D01*
X52027000Y-134151250D01*
X52185750Y-134310000D01*
X52626309Y-134310000D01*
X52859698Y-134213327D01*
X53038327Y-134034699D01*
X53135000Y-133801310D01*
X53135000Y-133585750D01*
X52976250Y-133427000D01*
X52027000Y-133427000D01*
X51773000Y-133427000D01*
X51753000Y-133427000D01*
X51753000Y-133173000D01*
X51773000Y-133173000D01*
X51773000Y-131927000D01*
X52027000Y-131927000D01*
X52027000Y-133173000D01*
X52976250Y-133173000D01*
X53135000Y-133014250D01*
X53135000Y-132798690D01*
X53038327Y-132565301D01*
X53023026Y-132550000D01*
X53038327Y-132534699D01*
X53135000Y-132301310D01*
X53135000Y-132085750D01*
X52976250Y-131927000D01*
X52027000Y-131927000D01*
X51773000Y-131927000D01*
X51753000Y-131927000D01*
X51753000Y-131673000D01*
X51773000Y-131673000D01*
X51773000Y-130948750D01*
X52027000Y-130948750D01*
X52027000Y-131673000D01*
X52976250Y-131673000D01*
X53135000Y-131514250D01*
X53135000Y-131298690D01*
X53038327Y-131065301D01*
X52859698Y-130886673D01*
X52626309Y-130790000D01*
X52185750Y-130790000D01*
X52027000Y-130948750D01*
X51773000Y-130948750D01*
X51614250Y-130790000D01*
X51527900Y-130790000D01*
X51527900Y-130505484D01*
X51379023Y-130146064D01*
X51103936Y-129870977D01*
X50744516Y-129722100D01*
X50355484Y-129722100D01*
X49996064Y-129870977D01*
X49720977Y-130146064D01*
X49572100Y-130505484D01*
X49572100Y-130704667D01*
X49427900Y-130560468D01*
X49427900Y-130555484D01*
X49279023Y-130196064D01*
X49003936Y-129920977D01*
X48644516Y-129772100D01*
X48255484Y-129772100D01*
X47896064Y-129920977D01*
X47620977Y-130196064D01*
X47472100Y-130555484D01*
X40969803Y-130555484D01*
X41077900Y-130294516D01*
X41077900Y-129905484D01*
X40929023Y-129546064D01*
X40653936Y-129270977D01*
X40294516Y-129122100D01*
X39905484Y-129122100D01*
X39842599Y-129148148D01*
X39842599Y-126631012D01*
X40063744Y-126675000D01*
X40356256Y-126675000D01*
X40789418Y-126588839D01*
X41280625Y-126260625D01*
X41480000Y-125962239D01*
X41679375Y-126260625D01*
X42170582Y-126588839D01*
X42603744Y-126675000D01*
X42896256Y-126675000D01*
X43329418Y-126588839D01*
X43483701Y-126485750D01*
X44915000Y-126485750D01*
X44915000Y-126701310D01*
X45011673Y-126934699D01*
X45190302Y-127113327D01*
X45423691Y-127210000D01*
X45864250Y-127210000D01*
X46023000Y-127051250D01*
X46023000Y-126327000D01*
X45073750Y-126327000D01*
X44915000Y-126485750D01*
X43483701Y-126485750D01*
X43820625Y-126260625D01*
X44148839Y-125769418D01*
X44162907Y-125698690D01*
X44915000Y-125698690D01*
X44915000Y-125914250D01*
X45073750Y-126073000D01*
X46023000Y-126073000D01*
X46023000Y-125551250D01*
X46073000Y-125501250D01*
X46073000Y-124777000D01*
X45123750Y-124777000D01*
X44965000Y-124935750D01*
X44965000Y-125151310D01*
X45061673Y-125384699D01*
X45076974Y-125400000D01*
X45011673Y-125465301D01*
X44915000Y-125698690D01*
X44162907Y-125698690D01*
X44264092Y-125190000D01*
X44148839Y-124610582D01*
X43840213Y-124148690D01*
X44965000Y-124148690D01*
X44965000Y-124364250D01*
X45123750Y-124523000D01*
X46073000Y-124523000D01*
X46073000Y-124503000D01*
X46327000Y-124503000D01*
X46327000Y-124523000D01*
X46347000Y-124523000D01*
X46347000Y-124777000D01*
X46327000Y-124777000D01*
X46327000Y-125298750D01*
X46277000Y-125348750D01*
X46277000Y-126073000D01*
X46297000Y-126073000D01*
X46297000Y-126327000D01*
X46277000Y-126327000D01*
X46277000Y-127051250D01*
X46435750Y-127210000D01*
X46876309Y-127210000D01*
X47109698Y-127113327D01*
X47110898Y-127112127D01*
X47202235Y-127173157D01*
X47450000Y-127222440D01*
X48650000Y-127222440D01*
X48897765Y-127173157D01*
X49025000Y-127088141D01*
X49152235Y-127173157D01*
X49400000Y-127222440D01*
X50600000Y-127222440D01*
X50684622Y-127205608D01*
X50615000Y-127373690D01*
X50615000Y-127514250D01*
X50773750Y-127673000D01*
X51350000Y-127673000D01*
X51350000Y-127653000D01*
X51502560Y-127653000D01*
X51502560Y-127858275D01*
X51294516Y-127772100D01*
X50905484Y-127772100D01*
X50546064Y-127920977D01*
X50270977Y-128196064D01*
X50122100Y-128555484D01*
X50122100Y-128944516D01*
X50270977Y-129303936D01*
X50546064Y-129579023D01*
X50905484Y-129727900D01*
X51000269Y-129727900D01*
X51151707Y-129879338D01*
X51194218Y-129942960D01*
X51257840Y-129985471D01*
X51446270Y-130111376D01*
X51446271Y-130111376D01*
X51446272Y-130111377D01*
X51668541Y-130155589D01*
X51668545Y-130155589D01*
X51743588Y-130170516D01*
X51818631Y-130155589D01*
X53458176Y-130155589D01*
X53533219Y-130170516D01*
X53608262Y-130155589D01*
X53608267Y-130155589D01*
X53830536Y-130111377D01*
X53954436Y-130028590D01*
X54070634Y-130028590D01*
X54232676Y-129961470D01*
X54270977Y-130053936D01*
X54546064Y-130329023D01*
X54905484Y-130477900D01*
X55294516Y-130477900D01*
X55653936Y-130329023D01*
X55929023Y-130053936D01*
X56017924Y-129839312D01*
X57216707Y-128640529D01*
X57290933Y-128590933D01*
X57487419Y-128296870D01*
X57539000Y-128037556D01*
X57539000Y-128037555D01*
X57556416Y-127950001D01*
X57539000Y-127862446D01*
X57539000Y-124943959D01*
X57679023Y-124803936D01*
X57827900Y-124444516D01*
X57827900Y-124055484D01*
X57679023Y-123696064D01*
X57403936Y-123420977D01*
X57044516Y-123272100D01*
X56655484Y-123272100D01*
X56296064Y-123420977D01*
X56020977Y-123696064D01*
X55917250Y-123946482D01*
X55812582Y-124103130D01*
X55743584Y-124450000D01*
X55761001Y-124537559D01*
X55761000Y-127032482D01*
X55494516Y-126922100D01*
X55105484Y-126922100D01*
X54746064Y-127070977D01*
X54742541Y-127074500D01*
X54093119Y-127074500D01*
X54011821Y-127058329D01*
X53930523Y-127074500D01*
X53930519Y-127074500D01*
X53689728Y-127122396D01*
X53639150Y-127156191D01*
X53453936Y-126970977D01*
X53094516Y-126822100D01*
X53084967Y-126822100D01*
X53135000Y-126701310D01*
X53135000Y-126485750D01*
X52976250Y-126327000D01*
X52027000Y-126327000D01*
X52027000Y-126347000D01*
X51773000Y-126347000D01*
X51773000Y-126327000D01*
X51753000Y-126327000D01*
X51753000Y-126073000D01*
X51773000Y-126073000D01*
X51773000Y-124777000D01*
X52027000Y-124777000D01*
X52027000Y-126073000D01*
X52976250Y-126073000D01*
X53135000Y-125914250D01*
X53135000Y-125698690D01*
X53038327Y-125465301D01*
X52998026Y-125425000D01*
X53038327Y-125384699D01*
X53135000Y-125151310D01*
X53135000Y-124935750D01*
X52976250Y-124777000D01*
X52027000Y-124777000D01*
X51773000Y-124777000D01*
X51753000Y-124777000D01*
X51753000Y-124523000D01*
X51773000Y-124523000D01*
X51773000Y-124503000D01*
X52027000Y-124503000D01*
X52027000Y-124523000D01*
X52976250Y-124523000D01*
X53135000Y-124364250D01*
X53135000Y-124148690D01*
X53038327Y-123915301D01*
X52859698Y-123736673D01*
X52626309Y-123640000D01*
X52277900Y-123640000D01*
X52277900Y-123255484D01*
X52129023Y-122896064D01*
X51853936Y-122620977D01*
X51494516Y-122472100D01*
X51105484Y-122472100D01*
X50746064Y-122620977D01*
X50470977Y-122896064D01*
X50382077Y-123110687D01*
X49865205Y-123627560D01*
X49400000Y-123627560D01*
X49152235Y-123676843D01*
X49050000Y-123745155D01*
X48947765Y-123676843D01*
X48700000Y-123627560D01*
X48094993Y-123627560D01*
X46927900Y-122460468D01*
X46927900Y-122455484D01*
X46779023Y-122096064D01*
X46503936Y-121820977D01*
X46144516Y-121672100D01*
X45755484Y-121672100D01*
X45396064Y-121820977D01*
X45120977Y-122096064D01*
X44972100Y-122455484D01*
X44972100Y-122844516D01*
X45120977Y-123203936D01*
X45396064Y-123479023D01*
X45755484Y-123627900D01*
X45760468Y-123627900D01*
X45772568Y-123640000D01*
X45473691Y-123640000D01*
X45240302Y-123736673D01*
X45061673Y-123915301D01*
X44965000Y-124148690D01*
X43840213Y-124148690D01*
X43820625Y-124119375D01*
X43798967Y-124104904D01*
X43959698Y-124038327D01*
X44138327Y-123859699D01*
X44235000Y-123626310D01*
X44235000Y-122935750D01*
X44076250Y-122777000D01*
X42877000Y-122777000D01*
X42877000Y-122797000D01*
X42623000Y-122797000D01*
X42623000Y-122777000D01*
X42603000Y-122777000D01*
X42603000Y-122523000D01*
X42623000Y-122523000D01*
X42623000Y-121323750D01*
X42877000Y-121323750D01*
X42877000Y-122523000D01*
X44076250Y-122523000D01*
X44235000Y-122364250D01*
X44235000Y-121673690D01*
X44142345Y-121450000D01*
X57314096Y-121450000D01*
X57392950Y-121846423D01*
X57617506Y-122182494D01*
X57953577Y-122407050D01*
X58350000Y-122485904D01*
X58746423Y-122407050D01*
X58997663Y-122239177D01*
X59570841Y-121666000D01*
X71150065Y-121666000D01*
X71446423Y-121607051D01*
X71782495Y-121382495D01*
X72007051Y-121046423D01*
X72085904Y-120650000D01*
X72007051Y-120253577D01*
X71782495Y-119917505D01*
X71446423Y-119692949D01*
X71150065Y-119634000D01*
X70765125Y-119634000D01*
X70857051Y-119496423D01*
X70935904Y-119100000D01*
X70857051Y-118703577D01*
X70632495Y-118367505D01*
X70296423Y-118142949D01*
X70000065Y-118084000D01*
X63570840Y-118084000D01*
X63347663Y-117860823D01*
X63096423Y-117692950D01*
X62700000Y-117614096D01*
X62303577Y-117692950D01*
X61967506Y-117917506D01*
X61742950Y-118253577D01*
X61664096Y-118650000D01*
X61742950Y-119046423D01*
X61910823Y-119297663D01*
X62247160Y-119634000D01*
X59250063Y-119634000D01*
X59150000Y-119614096D01*
X59049936Y-119634000D01*
X59049935Y-119634000D01*
X58753577Y-119692949D01*
X58417505Y-119917505D01*
X58360822Y-120002337D01*
X57560823Y-120802337D01*
X57392950Y-121053577D01*
X57314096Y-121450000D01*
X44142345Y-121450000D01*
X44138327Y-121440301D01*
X43959698Y-121261673D01*
X43726309Y-121165000D01*
X43035750Y-121165000D01*
X42877000Y-121323750D01*
X42623000Y-121323750D01*
X42464250Y-121165000D01*
X41773691Y-121165000D01*
X41540302Y-121261673D01*
X41361673Y-121440301D01*
X41295096Y-121601032D01*
X41280625Y-121579375D01*
X40789418Y-121251161D01*
X40356256Y-121165000D01*
X40063744Y-121165000D01*
X39630582Y-121251161D01*
X39139375Y-121579375D01*
X38811161Y-122070582D01*
X38695908Y-122650000D01*
X38768321Y-123014049D01*
X38594851Y-123187519D01*
X38531229Y-123230030D01*
X38488718Y-123293652D01*
X38488717Y-123293653D01*
X38362812Y-123482084D01*
X38303672Y-123779401D01*
X38318600Y-123854449D01*
X38318599Y-127633030D01*
X38179023Y-127296064D01*
X37903936Y-127020977D01*
X37544516Y-126872100D01*
X37155484Y-126872100D01*
X36796064Y-127020977D01*
X36520977Y-127296064D01*
X36372100Y-127655484D01*
X36372100Y-128044516D01*
X36520977Y-128403936D01*
X36524500Y-128407459D01*
X36524501Y-130914066D01*
X35360969Y-132077598D01*
X35321680Y-132051346D01*
X35463327Y-131909698D01*
X35560000Y-131676309D01*
X35560000Y-131085750D01*
X35401250Y-130927000D01*
X34427000Y-130927000D01*
X34427000Y-130947000D01*
X34173000Y-130947000D01*
X34173000Y-130927000D01*
X33198750Y-130927000D01*
X33040000Y-131085750D01*
X33040000Y-131676309D01*
X33136673Y-131909698D01*
X33278320Y-132051346D01*
X33217191Y-132092191D01*
X33076843Y-132302235D01*
X33027560Y-132550000D01*
X28361200Y-132550000D01*
X28361200Y-129923691D01*
X33040000Y-129923691D01*
X33040000Y-130514250D01*
X33198750Y-130673000D01*
X34173000Y-130673000D01*
X34173000Y-129573750D01*
X34427000Y-129573750D01*
X34427000Y-130673000D01*
X35401250Y-130673000D01*
X35560000Y-130514250D01*
X35560000Y-129923691D01*
X35463327Y-129690302D01*
X35284699Y-129511673D01*
X35051310Y-129415000D01*
X34585750Y-129415000D01*
X34427000Y-129573750D01*
X34173000Y-129573750D01*
X34014250Y-129415000D01*
X33548690Y-129415000D01*
X33315301Y-129511673D01*
X33136673Y-129690302D01*
X33040000Y-129923691D01*
X28361200Y-129923691D01*
X28361200Y-118147938D01*
X45630732Y-118147938D01*
X45814448Y-118521821D01*
X46138951Y-118809568D01*
X46548869Y-118951229D01*
X46723000Y-118802563D01*
X46723000Y-117977000D01*
X46977000Y-117977000D01*
X46977000Y-118802563D01*
X47151131Y-118951229D01*
X47561049Y-118809568D01*
X47885552Y-118521821D01*
X48069268Y-118147938D01*
X50630732Y-118147938D01*
X50814448Y-118521821D01*
X51138951Y-118809568D01*
X51548869Y-118951229D01*
X51723000Y-118802563D01*
X51723000Y-117977000D01*
X51977000Y-117977000D01*
X51977000Y-118802563D01*
X52151131Y-118951229D01*
X52561049Y-118809568D01*
X52885552Y-118521821D01*
X53069268Y-118147938D01*
X52942734Y-117977000D01*
X51977000Y-117977000D01*
X51723000Y-117977000D01*
X50757266Y-117977000D01*
X50630732Y-118147938D01*
X48069268Y-118147938D01*
X47942734Y-117977000D01*
X46977000Y-117977000D01*
X46723000Y-117977000D01*
X45757266Y-117977000D01*
X45630732Y-118147938D01*
X28361200Y-118147938D01*
X28361200Y-117552062D01*
X45630732Y-117552062D01*
X45757266Y-117723000D01*
X46723000Y-117723000D01*
X46723000Y-116897437D01*
X46977000Y-116897437D01*
X46977000Y-117723000D01*
X47942734Y-117723000D01*
X48069268Y-117552062D01*
X50630732Y-117552062D01*
X50757266Y-117723000D01*
X51723000Y-117723000D01*
X51723000Y-116897437D01*
X51977000Y-116897437D01*
X51977000Y-117723000D01*
X52942734Y-117723000D01*
X53069268Y-117552062D01*
X52885552Y-117178179D01*
X52668543Y-116985750D01*
X75715000Y-116985750D01*
X75715000Y-117676309D01*
X75811673Y-117909698D01*
X75990301Y-118088327D01*
X76223690Y-118185000D01*
X76914250Y-118185000D01*
X77073000Y-118026250D01*
X77073000Y-116827000D01*
X75873750Y-116827000D01*
X75715000Y-116985750D01*
X52668543Y-116985750D01*
X52561049Y-116890432D01*
X52151131Y-116748771D01*
X51977000Y-116897437D01*
X51723000Y-116897437D01*
X51548869Y-116748771D01*
X51138951Y-116890432D01*
X50814448Y-117178179D01*
X50630732Y-117552062D01*
X48069268Y-117552062D01*
X47885552Y-117178179D01*
X47561049Y-116890432D01*
X47151131Y-116748771D01*
X46977000Y-116897437D01*
X46723000Y-116897437D01*
X46548869Y-116748771D01*
X46138951Y-116890432D01*
X45814448Y-117178179D01*
X45630732Y-117552062D01*
X28361200Y-117552062D01*
X28361200Y-115277000D01*
X44715000Y-115277000D01*
X44715000Y-115552000D01*
X44849998Y-115976678D01*
X45137237Y-116317368D01*
X45548126Y-116519119D01*
X45723000Y-116392954D01*
X45723000Y-115277000D01*
X45977000Y-115277000D01*
X45977000Y-116392954D01*
X46151874Y-116519119D01*
X46562763Y-116317368D01*
X46850002Y-115976678D01*
X46985000Y-115552000D01*
X46985000Y-115277000D01*
X51715000Y-115277000D01*
X51715000Y-115552000D01*
X51849998Y-115976678D01*
X52137237Y-116317368D01*
X52548126Y-116519119D01*
X52723000Y-116392954D01*
X52723000Y-115277000D01*
X52977000Y-115277000D01*
X52977000Y-116392954D01*
X53151874Y-116519119D01*
X53562763Y-116317368D01*
X53850002Y-115976678D01*
X53930422Y-115723691D01*
X75715000Y-115723691D01*
X75715000Y-116414250D01*
X75873750Y-116573000D01*
X77073000Y-116573000D01*
X77073000Y-115373750D01*
X77327000Y-115373750D01*
X77327000Y-116573000D01*
X77347000Y-116573000D01*
X77347000Y-116827000D01*
X77327000Y-116827000D01*
X77327000Y-118026250D01*
X77485750Y-118185000D01*
X78176310Y-118185000D01*
X78409699Y-118088327D01*
X78588327Y-117909698D01*
X78654904Y-117748967D01*
X78669375Y-117770625D01*
X79160582Y-118098839D01*
X79593744Y-118185000D01*
X79886256Y-118185000D01*
X80319418Y-118098839D01*
X80810625Y-117770625D01*
X81138839Y-117279418D01*
X81254092Y-116700000D01*
X81138839Y-116120582D01*
X80810625Y-115629375D01*
X80319418Y-115301161D01*
X79886256Y-115215000D01*
X79593744Y-115215000D01*
X79160582Y-115301161D01*
X78669375Y-115629375D01*
X78654904Y-115651033D01*
X78588327Y-115490302D01*
X78409699Y-115311673D01*
X78176310Y-115215000D01*
X77485750Y-115215000D01*
X77327000Y-115373750D01*
X77073000Y-115373750D01*
X76914250Y-115215000D01*
X76223690Y-115215000D01*
X75990301Y-115311673D01*
X75811673Y-115490302D01*
X75715000Y-115723691D01*
X53930422Y-115723691D01*
X53985000Y-115552000D01*
X53985000Y-115277000D01*
X52977000Y-115277000D01*
X52723000Y-115277000D01*
X51715000Y-115277000D01*
X46985000Y-115277000D01*
X45977000Y-115277000D01*
X45723000Y-115277000D01*
X44715000Y-115277000D01*
X28361200Y-115277000D01*
X28361200Y-114461200D01*
X44806169Y-114461200D01*
X44715000Y-114748000D01*
X44715000Y-114748000D01*
G37*
X44715000Y-114748000D02*
X44715000Y-115023000D01*
X45723000Y-115023000D01*
X45723000Y-115003000D01*
X45977000Y-115003000D01*
X45977000Y-115023000D01*
X46985000Y-115023000D01*
X46985000Y-114748000D01*
X46893831Y-114461200D01*
X51806169Y-114461200D01*
X51715000Y-114748000D01*
X51715000Y-115023000D01*
X52723000Y-115023000D01*
X52723000Y-115003000D01*
X52977000Y-115003000D01*
X52977000Y-115023000D01*
X53985000Y-115023000D01*
X53985000Y-114748000D01*
X53893831Y-114461200D01*
X88938800Y-114461200D01*
X88938801Y-191989374D01*
X28361200Y-192038227D01*
X28361200Y-178317875D01*
X28364177Y-178317875D01*
X28384081Y-178417939D01*
X28384082Y-187262013D01*
X28364177Y-187362081D01*
X28419295Y-187639177D01*
X28443031Y-187758504D01*
X28667587Y-188094576D01*
X28752418Y-188151259D01*
X30198822Y-189597663D01*
X30255505Y-189682495D01*
X30591577Y-189907051D01*
X30887935Y-189966000D01*
X30887936Y-189966000D01*
X30988000Y-189985904D01*
X31088064Y-189966000D01*
X42482232Y-189966000D01*
X43290196Y-190773965D01*
X43346879Y-190858797D01*
X43431710Y-190915479D01*
X43682949Y-191083352D01*
X43682950Y-191083352D01*
X43682951Y-191083353D01*
X43979309Y-191142302D01*
X44079373Y-191162206D01*
X44179437Y-191142302D01*
X48920563Y-191142302D01*
X49020626Y-191162206D01*
X49120689Y-191142302D01*
X49120691Y-191142302D01*
X49417049Y-191083353D01*
X49753121Y-190858797D01*
X49809805Y-190773963D01*
X50617769Y-189966000D01*
X63899937Y-189966000D01*
X64000000Y-189985904D01*
X64100063Y-189966000D01*
X64100065Y-189966000D01*
X64396423Y-189907051D01*
X64732495Y-189682495D01*
X64789180Y-189597660D01*
X71646277Y-182740564D01*
X71646279Y-182740561D01*
X71989176Y-182397664D01*
X72157050Y-182146424D01*
X72235904Y-181750001D01*
X72157050Y-181353577D01*
X71932494Y-181017506D01*
X71596423Y-180792950D01*
X71199999Y-180714096D01*
X70803576Y-180792950D01*
X70552336Y-180960824D01*
X70209439Y-181303721D01*
X70209436Y-181303723D01*
X63579160Y-187934000D01*
X51034726Y-187934000D01*
X51235000Y-187450494D01*
X51235000Y-186899506D01*
X51024147Y-186390460D01*
X50634540Y-186000853D01*
X50125494Y-185790000D01*
X49574506Y-185790000D01*
X49065460Y-186000853D01*
X48675853Y-186390460D01*
X48465000Y-186899506D01*
X48465000Y-187450494D01*
X48675853Y-187959540D01*
X48722100Y-188005787D01*
X48722100Y-188294516D01*
X48870977Y-188653936D01*
X48963564Y-188746523D01*
X48599786Y-189110302D01*
X44500215Y-189110302D01*
X43692251Y-188302339D01*
X43635567Y-188217505D01*
X43299495Y-187992949D01*
X43003137Y-187934000D01*
X43003135Y-187934000D01*
X42903072Y-187914096D01*
X42803009Y-187934000D01*
X37694773Y-187934000D01*
X38015801Y-187612972D01*
X38249491Y-187048795D01*
X38249491Y-186438135D01*
X38015801Y-185873958D01*
X37846583Y-185704740D01*
X37862256Y-185701622D01*
X38072300Y-185561274D01*
X38212648Y-185351230D01*
X38261931Y-185103465D01*
X38261931Y-183303465D01*
X38212648Y-183055700D01*
X38072300Y-182845656D01*
X37862256Y-182705308D01*
X37614491Y-182656025D01*
X35814491Y-182656025D01*
X35566726Y-182705308D01*
X35356682Y-182845656D01*
X35216334Y-183055700D01*
X35167051Y-183303465D01*
X35167051Y-185103465D01*
X35216334Y-185351230D01*
X35356682Y-185561274D01*
X35566726Y-185701622D01*
X35582399Y-185704740D01*
X35413181Y-185873958D01*
X35179491Y-186438135D01*
X35179491Y-187048795D01*
X35413181Y-187612972D01*
X35734209Y-187934000D01*
X34165536Y-187934000D01*
X34223157Y-187847765D01*
X34272440Y-187600000D01*
X34272440Y-186100000D01*
X34223157Y-185852235D01*
X34082809Y-185642191D01*
X34021680Y-185601346D01*
X34163327Y-185459698D01*
X34260000Y-185226309D01*
X34260000Y-184635750D01*
X34101250Y-184477000D01*
X33127000Y-184477000D01*
X33127000Y-184497000D01*
X32873000Y-184497000D01*
X32873000Y-184477000D01*
X31898750Y-184477000D01*
X31740000Y-184635750D01*
X31740000Y-185226309D01*
X31836673Y-185459698D01*
X31978320Y-185601346D01*
X31917191Y-185642191D01*
X31789027Y-185834000D01*
X30767164Y-185834000D01*
X30710914Y-185796415D01*
X30416081Y-185737769D01*
X30416081Y-183473691D01*
X31740000Y-183473691D01*
X31740000Y-184064250D01*
X31898750Y-184223000D01*
X32873000Y-184223000D01*
X32873000Y-183123750D01*
X33127000Y-183123750D01*
X33127000Y-184223000D01*
X34101250Y-184223000D01*
X34260000Y-184064250D01*
X34260000Y-183473691D01*
X34163327Y-183240302D01*
X33984699Y-183061673D01*
X33751310Y-182965000D01*
X33285750Y-182965000D01*
X33127000Y-183123750D01*
X32873000Y-183123750D01*
X32714250Y-182965000D01*
X32248690Y-182965000D01*
X32015301Y-183061673D01*
X31836673Y-183240302D01*
X31740000Y-183473691D01*
X30416081Y-183473691D01*
X30416081Y-181885750D01*
X40665000Y-181885750D01*
X40665000Y-182101310D01*
X40761673Y-182334699D01*
X40940302Y-182513327D01*
X41173691Y-182610000D01*
X41614250Y-182610000D01*
X41773000Y-182451250D01*
X41773000Y-181727000D01*
X40823750Y-181727000D01*
X40665000Y-181885750D01*
X30416081Y-181885750D01*
X30416081Y-181098690D01*
X40665000Y-181098690D01*
X40665000Y-181314250D01*
X40823750Y-181473000D01*
X41773000Y-181473000D01*
X41773000Y-180748750D01*
X42027000Y-180748750D01*
X42027000Y-181473000D01*
X42047000Y-181473000D01*
X42047000Y-181727000D01*
X42027000Y-181727000D01*
X42027000Y-182451250D01*
X42185750Y-182610000D01*
X42626309Y-182610000D01*
X42859698Y-182513327D01*
X42860898Y-182512127D01*
X42952235Y-182573157D01*
X43200000Y-182622440D01*
X44400000Y-182622440D01*
X44647765Y-182573157D01*
X44857809Y-182432809D01*
X44998157Y-182222765D01*
X45047440Y-181975000D01*
X45047440Y-181225000D01*
X44998157Y-180977235D01*
X44896107Y-180824506D01*
X46390000Y-180824506D01*
X46390000Y-181375494D01*
X46600853Y-181884540D01*
X46990460Y-182274147D01*
X47499506Y-182485000D01*
X48050494Y-182485000D01*
X48559540Y-182274147D01*
X48949147Y-181884540D01*
X49085446Y-181555484D01*
X49472100Y-181555484D01*
X49472100Y-181944516D01*
X49620977Y-182303936D01*
X49896064Y-182579023D01*
X50255484Y-182727900D01*
X50644516Y-182727900D01*
X51003936Y-182579023D01*
X51070959Y-182512000D01*
X51975677Y-182512000D01*
X52255484Y-182627900D01*
X52644516Y-182627900D01*
X53003936Y-182479023D01*
X53279023Y-182203936D01*
X53427900Y-181844516D01*
X53427900Y-181455484D01*
X61217402Y-181455484D01*
X61217402Y-181844516D01*
X61366279Y-182203936D01*
X61641366Y-182479023D01*
X62000786Y-182627900D01*
X62389818Y-182627900D01*
X62749238Y-182479023D01*
X63024325Y-182203936D01*
X63173202Y-181844516D01*
X63173202Y-181455484D01*
X63024325Y-181096064D01*
X63020802Y-181092541D01*
X63020802Y-178154880D01*
X63203936Y-178079023D01*
X63479023Y-177803936D01*
X63627900Y-177444516D01*
X63627900Y-177055484D01*
X63479023Y-176696064D01*
X63203936Y-176420977D01*
X62844516Y-176272100D01*
X62455484Y-176272100D01*
X62096064Y-176420977D01*
X61820977Y-176696064D01*
X61672100Y-177055484D01*
X61672100Y-177060468D01*
X61669079Y-177063489D01*
X61600150Y-177109546D01*
X61417698Y-177382605D01*
X61369802Y-177623395D01*
X61353630Y-177704698D01*
X61369802Y-177786000D01*
X61369803Y-181092540D01*
X61366279Y-181096064D01*
X61217402Y-181455484D01*
X53427900Y-181455484D01*
X53279023Y-181096064D01*
X53003936Y-180820977D01*
X52644516Y-180672100D01*
X52255484Y-180672100D01*
X51896064Y-180820977D01*
X51729041Y-180988000D01*
X51070959Y-180988000D01*
X51003936Y-180920977D01*
X50644516Y-180772100D01*
X50255484Y-180772100D01*
X49896064Y-180920977D01*
X49620977Y-181196064D01*
X49472100Y-181555484D01*
X49085446Y-181555484D01*
X49148280Y-181403790D01*
X49268427Y-181354023D01*
X49543514Y-181078936D01*
X49692391Y-180719516D01*
X49692391Y-180330484D01*
X49543514Y-179971064D01*
X49268427Y-179695977D01*
X48909007Y-179547100D01*
X48519975Y-179547100D01*
X48160555Y-179695977D01*
X48114868Y-179741664D01*
X48050494Y-179715000D01*
X47499506Y-179715000D01*
X46990460Y-179925853D01*
X46600853Y-180315460D01*
X46390000Y-180824506D01*
X44896107Y-180824506D01*
X44877199Y-180796209D01*
X44877900Y-180794516D01*
X44877900Y-180405484D01*
X44729023Y-180046064D01*
X44453936Y-179770977D01*
X44094516Y-179622100D01*
X43705484Y-179622100D01*
X43346064Y-179770977D01*
X43070977Y-180046064D01*
X42922100Y-180405484D01*
X42922100Y-180646979D01*
X42860898Y-180687873D01*
X42859698Y-180686673D01*
X42626309Y-180590000D01*
X42185750Y-180590000D01*
X42027000Y-180748750D01*
X41773000Y-180748750D01*
X41614250Y-180590000D01*
X41173691Y-180590000D01*
X40940302Y-180686673D01*
X40761673Y-180865301D01*
X40665000Y-181098690D01*
X30416081Y-181098690D01*
X30416081Y-178738715D01*
X30501992Y-178652804D01*
X30467051Y-178828465D01*
X30467051Y-180078465D01*
X30516334Y-180326230D01*
X30656682Y-180536274D01*
X30866726Y-180676622D01*
X31114491Y-180725905D01*
X32614491Y-180725905D01*
X32862256Y-180676622D01*
X33072300Y-180536274D01*
X33113145Y-180475145D01*
X33254793Y-180616792D01*
X33488182Y-180713465D01*
X34078741Y-180713465D01*
X34237491Y-180554715D01*
X34237491Y-179580465D01*
X34491491Y-179580465D01*
X34491491Y-180554715D01*
X34650241Y-180713465D01*
X35240800Y-180713465D01*
X35474189Y-180616792D01*
X35652818Y-180438164D01*
X35749491Y-180204775D01*
X35749491Y-179739215D01*
X35590741Y-179580465D01*
X34491491Y-179580465D01*
X34237491Y-179580465D01*
X34217491Y-179580465D01*
X34217491Y-179326465D01*
X34237491Y-179326465D01*
X34237491Y-178352215D01*
X34491491Y-178352215D01*
X34491491Y-179326465D01*
X35590741Y-179326465D01*
X35749491Y-179167715D01*
X35749491Y-178702155D01*
X35652818Y-178468766D01*
X35474189Y-178290138D01*
X35240800Y-178193465D01*
X34650241Y-178193465D01*
X34491491Y-178352215D01*
X34237491Y-178352215D01*
X34078741Y-178193465D01*
X33501018Y-178193465D01*
X33562648Y-178101230D01*
X33611931Y-177853465D01*
X33611931Y-176653465D01*
X33562648Y-176405700D01*
X33422300Y-176195656D01*
X33359157Y-176153465D01*
X33422300Y-176111274D01*
X33562648Y-175901230D01*
X33611931Y-175653465D01*
X33611931Y-175355484D01*
X53422100Y-175355484D01*
X53422100Y-175744516D01*
X53570977Y-176103936D01*
X53846064Y-176379023D01*
X54205484Y-176527900D01*
X54594516Y-176527900D01*
X54953936Y-176379023D01*
X55229023Y-176103936D01*
X55377900Y-175744516D01*
X55377900Y-175355484D01*
X55229023Y-174996064D01*
X55162000Y-174929041D01*
X55162000Y-173370959D01*
X55379023Y-173153936D01*
X55527900Y-172794516D01*
X55527900Y-172755484D01*
X60772100Y-172755484D01*
X60772100Y-173144516D01*
X60920977Y-173503936D01*
X61196064Y-173779023D01*
X61555484Y-173927900D01*
X61944516Y-173927900D01*
X62303936Y-173779023D01*
X62345559Y-173737400D01*
X64173849Y-173737400D01*
X65572100Y-175135652D01*
X65572100Y-175194516D01*
X65720977Y-175553936D01*
X65996064Y-175829023D01*
X66355484Y-175977900D01*
X66744516Y-175977900D01*
X67103936Y-175829023D01*
X67177475Y-175755484D01*
X68222100Y-175755484D01*
X68222100Y-176144516D01*
X68370977Y-176503936D01*
X68646064Y-176779023D01*
X68762601Y-176827294D01*
X68762600Y-178604441D01*
X68720977Y-178646064D01*
X68572100Y-179005484D01*
X68572100Y-179394516D01*
X68720977Y-179753936D01*
X68996064Y-180029023D01*
X69355484Y-180177900D01*
X69744516Y-180177900D01*
X70103936Y-180029023D01*
X70379023Y-179753936D01*
X70527900Y-179394516D01*
X70527900Y-179005484D01*
X70379023Y-178646064D01*
X70337400Y-178604441D01*
X70337400Y-176377551D01*
X70352826Y-176300000D01*
X70315286Y-176111274D01*
X70291715Y-175992772D01*
X70177900Y-175822436D01*
X70177900Y-175755484D01*
X70029023Y-175396064D01*
X69753936Y-175120977D01*
X69394516Y-174972100D01*
X69005484Y-174972100D01*
X68646064Y-175120977D01*
X68370977Y-175396064D01*
X68222100Y-175755484D01*
X67177475Y-175755484D01*
X67379023Y-175553936D01*
X67527900Y-175194516D01*
X67527900Y-174805484D01*
X67379023Y-174446064D01*
X67103936Y-174170977D01*
X66898181Y-174085750D01*
X68415000Y-174085750D01*
X68415000Y-174301310D01*
X68511673Y-174534699D01*
X68690302Y-174713327D01*
X68923691Y-174810000D01*
X69364250Y-174810000D01*
X69523000Y-174651250D01*
X69523000Y-173927000D01*
X68573750Y-173927000D01*
X68415000Y-174085750D01*
X66898181Y-174085750D01*
X66744516Y-174022100D01*
X66685652Y-174022100D01*
X65962242Y-173298690D01*
X68415000Y-173298690D01*
X68415000Y-173514250D01*
X68573750Y-173673000D01*
X69523000Y-173673000D01*
X69523000Y-172948750D01*
X69777000Y-172948750D01*
X69777000Y-173673000D01*
X69797000Y-173673000D01*
X69797000Y-173927000D01*
X69777000Y-173927000D01*
X69777000Y-174651250D01*
X69935750Y-174810000D01*
X70376309Y-174810000D01*
X70609698Y-174713327D01*
X70610898Y-174712127D01*
X70702235Y-174773157D01*
X70950000Y-174822440D01*
X72150000Y-174822440D01*
X72397765Y-174773157D01*
X72607809Y-174632809D01*
X72748157Y-174422765D01*
X72797440Y-174175000D01*
X72797440Y-173425000D01*
X72748157Y-173177235D01*
X72607809Y-172967191D01*
X72397765Y-172826843D01*
X72150000Y-172777560D01*
X70950000Y-172777560D01*
X70702235Y-172826843D01*
X70610898Y-172887873D01*
X70609698Y-172886673D01*
X70376309Y-172790000D01*
X69935750Y-172790000D01*
X69777000Y-172948750D01*
X69523000Y-172948750D01*
X69364250Y-172790000D01*
X68923691Y-172790000D01*
X68690302Y-172886673D01*
X68511673Y-173065301D01*
X68415000Y-173298690D01*
X65962242Y-173298690D01*
X65111616Y-172448065D01*
X65067684Y-172382316D01*
X64807228Y-172208285D01*
X64577552Y-172162600D01*
X64577551Y-172162600D01*
X64500000Y-172147174D01*
X64422449Y-172162600D01*
X62345559Y-172162600D01*
X62303936Y-172120977D01*
X61944516Y-171972100D01*
X61555484Y-171972100D01*
X61196064Y-172120977D01*
X60920977Y-172396064D01*
X60772100Y-172755484D01*
X55527900Y-172755484D01*
X55527900Y-172405484D01*
X55379023Y-172046064D01*
X55103936Y-171770977D01*
X54744516Y-171622100D01*
X54355484Y-171622100D01*
X53996064Y-171770977D01*
X53720977Y-172046064D01*
X53572100Y-172405484D01*
X53572100Y-172794516D01*
X53638001Y-172953614D01*
X53638000Y-174929041D01*
X53570977Y-174996064D01*
X53422100Y-175355484D01*
X33611931Y-175355484D01*
X33611931Y-174453465D01*
X33562648Y-174205700D01*
X33530491Y-174157574D01*
X33530491Y-173949356D01*
X33562648Y-173901230D01*
X33611931Y-173653465D01*
X33611931Y-172453465D01*
X33562648Y-172205700D01*
X33422300Y-171995656D01*
X33359157Y-171953465D01*
X33422300Y-171911274D01*
X33562648Y-171701230D01*
X33611931Y-171453465D01*
X33611931Y-171255501D01*
X33839533Y-171027900D01*
X33844516Y-171027900D01*
X34203936Y-170879023D01*
X34479023Y-170603936D01*
X34627900Y-170244516D01*
X34627900Y-169855484D01*
X34479023Y-169496064D01*
X34203936Y-169220977D01*
X33844516Y-169072100D01*
X33722574Y-169072100D01*
X36547010Y-166247665D01*
X36547012Y-166247662D01*
X37166675Y-165628000D01*
X46737937Y-165628000D01*
X46838000Y-165647904D01*
X46938063Y-165628000D01*
X46938065Y-165628000D01*
X47234423Y-165569051D01*
X47570495Y-165344495D01*
X47627179Y-165259661D01*
X48389401Y-164497440D01*
X48500000Y-164497440D01*
X48747765Y-164448157D01*
X48957809Y-164307809D01*
X49028695Y-164201721D01*
X49065301Y-164238327D01*
X49298690Y-164335000D01*
X49514250Y-164335000D01*
X49673000Y-164176250D01*
X49673000Y-163227000D01*
X49927000Y-163227000D01*
X49927000Y-164176250D01*
X50085750Y-164335000D01*
X50301310Y-164335000D01*
X50460959Y-164268871D01*
X56134605Y-164268871D01*
X56134605Y-164657903D01*
X56283482Y-165017323D01*
X56558569Y-165292410D01*
X56917989Y-165441287D01*
X57307021Y-165441287D01*
X57666441Y-165292410D01*
X57941528Y-165017323D01*
X58090405Y-164657903D01*
X58090405Y-164409506D01*
X58112000Y-164300940D01*
X58112000Y-164300939D01*
X58126928Y-164225892D01*
X58112000Y-164150845D01*
X58112000Y-161670959D01*
X58179023Y-161603936D01*
X58327900Y-161244516D01*
X58327900Y-160855484D01*
X58179023Y-160496064D01*
X57903936Y-160220977D01*
X57544516Y-160072100D01*
X57155484Y-160072100D01*
X56796064Y-160220977D01*
X56520977Y-160496064D01*
X56372100Y-160855484D01*
X56372100Y-161244516D01*
X56520977Y-161603936D01*
X56588000Y-161670959D01*
X56588001Y-163622173D01*
X56558569Y-163634364D01*
X56283482Y-163909451D01*
X56134605Y-164268871D01*
X50460959Y-164268871D01*
X50534699Y-164238327D01*
X50713327Y-164059698D01*
X50810000Y-163826309D01*
X50810000Y-163385750D01*
X50651250Y-163227000D01*
X49927000Y-163227000D01*
X49673000Y-163227000D01*
X49653000Y-163227000D01*
X49653000Y-162973000D01*
X49673000Y-162973000D01*
X49673000Y-162953000D01*
X49927000Y-162953000D01*
X49927000Y-162973000D01*
X50651250Y-162973000D01*
X50810000Y-162814250D01*
X50810000Y-162373691D01*
X50713327Y-162140302D01*
X50712127Y-162139102D01*
X50773157Y-162047765D01*
X50822440Y-161800000D01*
X50822440Y-160600000D01*
X50773157Y-160352235D01*
X50632809Y-160142191D01*
X50422765Y-160001843D01*
X50175000Y-159952560D01*
X49425000Y-159952560D01*
X49177235Y-160001843D01*
X49029996Y-160100226D01*
X48957809Y-159992191D01*
X48747765Y-159851843D01*
X48500000Y-159802560D01*
X47600000Y-159802560D01*
X47463658Y-159829680D01*
X47429023Y-159746064D01*
X47153936Y-159470977D01*
X46794516Y-159322100D01*
X46405484Y-159322100D01*
X46046064Y-159470977D01*
X45770977Y-159746064D01*
X45622100Y-160105484D01*
X45622100Y-160494516D01*
X45770977Y-160853936D01*
X46046064Y-161129023D01*
X46405484Y-161277900D01*
X46410467Y-161277900D01*
X46708793Y-161576226D01*
X46754848Y-161645152D01*
X46981753Y-161796766D01*
X47001843Y-161897765D01*
X47142191Y-162107809D01*
X47205334Y-162150000D01*
X47142191Y-162192191D01*
X47001843Y-162402235D01*
X46952560Y-162650000D01*
X46952560Y-163060599D01*
X46417160Y-163596000D01*
X36845897Y-163596000D01*
X36745834Y-163576096D01*
X36645770Y-163596000D01*
X36645769Y-163596000D01*
X36349411Y-163654949D01*
X36013339Y-163879505D01*
X35956656Y-163964337D01*
X35110172Y-164810822D01*
X35110169Y-164810824D01*
X30654829Y-169266165D01*
X30569997Y-169322848D01*
X30513314Y-169407680D01*
X30345441Y-169658920D01*
X30266587Y-170055343D01*
X30286492Y-170155411D01*
X30286491Y-171591401D01*
X30266587Y-171691465D01*
X30286491Y-171791528D01*
X30286491Y-171791529D01*
X30345440Y-172087887D01*
X30569996Y-172423960D01*
X30654830Y-172480644D01*
X31417051Y-173242866D01*
X31417051Y-173653465D01*
X31466334Y-173901230D01*
X31498492Y-173949357D01*
X31498491Y-174157573D01*
X31466334Y-174205700D01*
X31417051Y-174453465D01*
X31417051Y-174864064D01*
X28752421Y-177528695D01*
X28667586Y-177585380D01*
X28443030Y-177921453D01*
X28403796Y-178118697D01*
X28364177Y-178317875D01*
X28361200Y-178317875D01*
X28361200Y-159224506D01*
X52215000Y-159224506D01*
X52215000Y-159775494D01*
X52425853Y-160284540D01*
X52815460Y-160674147D01*
X53324506Y-160885000D01*
X53875494Y-160885000D01*
X54384540Y-160674147D01*
X54774147Y-160284540D01*
X54985000Y-159775494D01*
X54985000Y-159224506D01*
X54877900Y-158965943D01*
X54877900Y-158805484D01*
X54729023Y-158446064D01*
X54453936Y-158170977D01*
X54094516Y-158022100D01*
X53705484Y-158022100D01*
X53481204Y-158115000D01*
X53324506Y-158115000D01*
X52815460Y-158325853D01*
X52425853Y-158715460D01*
X52215000Y-159224506D01*
X28361200Y-159224506D01*
X28361200Y-140059047D01*
X33085756Y-140059047D01*
X33085756Y-141559047D01*
X33135039Y-141806812D01*
X33275387Y-142016856D01*
X33485431Y-142157204D01*
X33733196Y-142206487D01*
X34139055Y-142206487D01*
X34172100Y-142239533D01*
X34172100Y-142244516D01*
X34320977Y-142603936D01*
X34596064Y-142879023D01*
X34955484Y-143027900D01*
X35344516Y-143027900D01*
X35703936Y-142879023D01*
X35979023Y-142603936D01*
X36122941Y-142256487D01*
X37083196Y-142256487D01*
X37330961Y-142207204D01*
X37541005Y-142066856D01*
X37681353Y-141856812D01*
X37730636Y-141609047D01*
X37730636Y-140109047D01*
X37681353Y-139861282D01*
X37541005Y-139651238D01*
X37479876Y-139610393D01*
X37621523Y-139468745D01*
X37718196Y-139235356D01*
X37718196Y-138644797D01*
X37559446Y-138486047D01*
X36585196Y-138486047D01*
X36585196Y-138506047D01*
X36331196Y-138506047D01*
X36331196Y-138486047D01*
X35509446Y-138486047D01*
X35459446Y-138436047D01*
X34485196Y-138436047D01*
X34485196Y-138456047D01*
X34231196Y-138456047D01*
X34231196Y-138436047D01*
X33256946Y-138436047D01*
X33098196Y-138594797D01*
X33098196Y-139185356D01*
X33194869Y-139418745D01*
X33336516Y-139560393D01*
X33275387Y-139601238D01*
X33135039Y-139811282D01*
X33085756Y-140059047D01*
X28361200Y-140059047D01*
X28361200Y-137432738D01*
X33098196Y-137432738D01*
X33098196Y-138023297D01*
X33256946Y-138182047D01*
X34231196Y-138182047D01*
X34231196Y-137082797D01*
X34485196Y-137082797D01*
X34485196Y-138182047D01*
X35306946Y-138182047D01*
X35356946Y-138232047D01*
X36331196Y-138232047D01*
X36331196Y-137132797D01*
X36585196Y-137132797D01*
X36585196Y-138232047D01*
X37559446Y-138232047D01*
X37718196Y-138073297D01*
X37718196Y-137482738D01*
X37621523Y-137249349D01*
X37442895Y-137070720D01*
X37209506Y-136974047D01*
X36743946Y-136974047D01*
X36585196Y-137132797D01*
X36331196Y-137132797D01*
X36172446Y-136974047D01*
X35706886Y-136974047D01*
X35473497Y-137070720D01*
X35433196Y-137111021D01*
X35342895Y-137020720D01*
X35109506Y-136924047D01*
X34643946Y-136924047D01*
X34485196Y-137082797D01*
X34231196Y-137082797D01*
X34072446Y-136924047D01*
X33606886Y-136924047D01*
X33373497Y-137020720D01*
X33194869Y-137199349D01*
X33098196Y-137432738D01*
X28361200Y-137432738D01*
X28361200Y-132550000D01*
X33027560Y-132550000D01*
X33027560Y-134050000D01*
X33076843Y-134297765D01*
X33217191Y-134507809D01*
X33427235Y-134648157D01*
X33675000Y-134697440D01*
X34405008Y-134697440D01*
X36183793Y-136476226D01*
X36229848Y-136545152D01*
X36502906Y-136727604D01*
X36743697Y-136775500D01*
X36743701Y-136775500D01*
X36824999Y-136791671D01*
X36906297Y-136775500D01*
X38392541Y-136775500D01*
X38396064Y-136779023D01*
X38755484Y-136927900D01*
X39144516Y-136927900D01*
X39503936Y-136779023D01*
X39507459Y-136775500D01*
X40808068Y-136775500D01*
X41574500Y-137541933D01*
X41574501Y-141368694D01*
X41558328Y-141450000D01*
X41613607Y-141727905D01*
X41622397Y-141772094D01*
X41804849Y-142045152D01*
X41873775Y-142091207D01*
X57413636Y-157631069D01*
X57459691Y-157699995D01*
X57732749Y-157882447D01*
X57973540Y-157930343D01*
X57973544Y-157930343D01*
X58054842Y-157946514D01*
X58136140Y-157930343D01*
X65987698Y-157930343D01*
X65991221Y-157933866D01*
X66350641Y-158082743D01*
X66739673Y-158082743D01*
X67099093Y-157933866D01*
X67374180Y-157658779D01*
X67523057Y-157299359D01*
X67523057Y-156910327D01*
X67374180Y-156550907D01*
X67099093Y-156275820D01*
X66739673Y-156126943D01*
X66350641Y-156126943D01*
X65991221Y-156275820D01*
X65987698Y-156279343D01*
X58396776Y-156279343D01*
X52672917Y-150555484D01*
X60022100Y-150555484D01*
X60022100Y-150944516D01*
X60170977Y-151303936D01*
X60446064Y-151579023D01*
X60805484Y-151727900D01*
X61194516Y-151727900D01*
X61553936Y-151579023D01*
X61829023Y-151303936D01*
X61977900Y-150944516D01*
X61977900Y-150885651D01*
X64901938Y-147961614D01*
X64967684Y-147917684D01*
X65141715Y-147657228D01*
X65187400Y-147427552D01*
X65187400Y-147427551D01*
X65202826Y-147350001D01*
X65187400Y-147272450D01*
X65187400Y-147147618D01*
X68555121Y-147147618D01*
X68580000Y-147272693D01*
X68580001Y-165824920D01*
X68555121Y-165950000D01*
X68653688Y-166445529D01*
X68863530Y-166759580D01*
X68863532Y-166759582D01*
X68934383Y-166865618D01*
X69040419Y-166936469D01*
X69263529Y-167159579D01*
X69334382Y-167265618D01*
X69754471Y-167546313D01*
X70124920Y-167620000D01*
X70124924Y-167620000D01*
X70249999Y-167644879D01*
X70375074Y-167620000D01*
X72083160Y-167620000D01*
X72960822Y-168497663D01*
X73017505Y-168582495D01*
X73215813Y-168715000D01*
X73353575Y-168807050D01*
X73353576Y-168807050D01*
X73353577Y-168807051D01*
X73649935Y-168866000D01*
X73749999Y-168885904D01*
X73850063Y-168866000D01*
X74400065Y-168866000D01*
X74696423Y-168807051D01*
X75032495Y-168582495D01*
X75145676Y-168413108D01*
X76132567Y-169400000D01*
X75560468Y-169972100D01*
X75555484Y-169972100D01*
X75196064Y-170120977D01*
X74920977Y-170396064D01*
X74772100Y-170755484D01*
X74772100Y-171144516D01*
X74920977Y-171503936D01*
X75196064Y-171779023D01*
X75555484Y-171927900D01*
X75944516Y-171927900D01*
X76303936Y-171779023D01*
X76579023Y-171503936D01*
X76727900Y-171144516D01*
X76727900Y-171139532D01*
X77564271Y-170303162D01*
X77660823Y-170447663D01*
X78310822Y-171097663D01*
X78367505Y-171182495D01*
X78703577Y-171407051D01*
X78999935Y-171466000D01*
X78999936Y-171466000D01*
X79100000Y-171485904D01*
X79200063Y-171466000D01*
X82750065Y-171466000D01*
X83046423Y-171407051D01*
X83382495Y-171182495D01*
X83607051Y-170846423D01*
X83685904Y-170450000D01*
X83607051Y-170053577D01*
X83382495Y-169717505D01*
X83046423Y-169492949D01*
X82750065Y-169434000D01*
X80698959Y-169434000D01*
X80779023Y-169353936D01*
X80927900Y-168994516D01*
X80927900Y-168605484D01*
X80779023Y-168246064D01*
X80503936Y-167970977D01*
X80144516Y-167822100D01*
X79755484Y-167822100D01*
X79396064Y-167970977D01*
X79392541Y-167974500D01*
X77981297Y-167974500D01*
X77899999Y-167958329D01*
X77818701Y-167974500D01*
X77818697Y-167974500D01*
X77577906Y-168022396D01*
X77304848Y-168204848D01*
X77291803Y-168224371D01*
X73757432Y-164690000D01*
X84935908Y-164690000D01*
X85051161Y-165269418D01*
X85379375Y-165760625D01*
X85677761Y-165960000D01*
X85379375Y-166159375D01*
X85051161Y-166650582D01*
X84935908Y-167230000D01*
X85051161Y-167809418D01*
X85379375Y-168300625D01*
X85870582Y-168628839D01*
X86303744Y-168715000D01*
X86596256Y-168715000D01*
X87029418Y-168628839D01*
X87520625Y-168300625D01*
X87848839Y-167809418D01*
X87964092Y-167230000D01*
X87848839Y-166650582D01*
X87520625Y-166159375D01*
X87222239Y-165960000D01*
X87520625Y-165760625D01*
X87848839Y-165269418D01*
X87964092Y-164690000D01*
X87848839Y-164110582D01*
X87520625Y-163619375D01*
X87498967Y-163604904D01*
X87659698Y-163538327D01*
X87838327Y-163359699D01*
X87935000Y-163126310D01*
X87935000Y-162435750D01*
X87776250Y-162277000D01*
X86577000Y-162277000D01*
X86577000Y-162297000D01*
X86323000Y-162297000D01*
X86323000Y-162277000D01*
X85123750Y-162277000D01*
X84965000Y-162435750D01*
X84965000Y-163126310D01*
X85061673Y-163359699D01*
X85240302Y-163538327D01*
X85401033Y-163604904D01*
X85379375Y-163619375D01*
X85051161Y-164110582D01*
X84935908Y-164690000D01*
X73757432Y-164690000D01*
X73734108Y-164666676D01*
X73688051Y-164597747D01*
X73414993Y-164415295D01*
X73174202Y-164367399D01*
X73174200Y-164367399D01*
X73092899Y-164351227D01*
X73011598Y-164367399D01*
X72208571Y-164367399D01*
X72179023Y-164296064D01*
X71903936Y-164020977D01*
X71544516Y-163872100D01*
X71155484Y-163872100D01*
X71120000Y-163886798D01*
X71120000Y-154950000D01*
X76064096Y-154950000D01*
X76142949Y-155346423D01*
X76367505Y-155682495D01*
X76703577Y-155907051D01*
X76999935Y-155966000D01*
X77329160Y-155966000D01*
X83252335Y-161889176D01*
X83503575Y-162057050D01*
X83899999Y-162135904D01*
X84296423Y-162057050D01*
X84632494Y-161832494D01*
X84857050Y-161496423D01*
X84921245Y-161173690D01*
X84965000Y-161173690D01*
X84965000Y-161864250D01*
X85123750Y-162023000D01*
X86323000Y-162023000D01*
X86323000Y-160823750D01*
X86577000Y-160823750D01*
X86577000Y-162023000D01*
X87776250Y-162023000D01*
X87935000Y-161864250D01*
X87935000Y-161173690D01*
X87838327Y-160940301D01*
X87659698Y-160761673D01*
X87426309Y-160665000D01*
X86735750Y-160665000D01*
X86577000Y-160823750D01*
X86323000Y-160823750D01*
X86164250Y-160665000D01*
X85473691Y-160665000D01*
X85240302Y-160761673D01*
X85061673Y-160940301D01*
X84965000Y-161173690D01*
X84921245Y-161173690D01*
X84935904Y-161099999D01*
X84857050Y-160703575D01*
X84689176Y-160452335D01*
X78539180Y-154302340D01*
X78482495Y-154217505D01*
X78146423Y-153992949D01*
X77850065Y-153934000D01*
X77850063Y-153934000D01*
X77750000Y-153914096D01*
X77649937Y-153934000D01*
X76999935Y-153934000D01*
X76703577Y-153992949D01*
X76367505Y-154217505D01*
X76142949Y-154553577D01*
X76064096Y-154950000D01*
X71120000Y-154950000D01*
X71120000Y-147673668D01*
X77523669Y-141270000D01*
X82175080Y-141270000D01*
X82545529Y-141196313D01*
X82965618Y-140915618D01*
X83246313Y-140495529D01*
X83291969Y-140266000D01*
X83500065Y-140266000D01*
X83796423Y-140207051D01*
X84132495Y-139982495D01*
X84357051Y-139646423D01*
X84435904Y-139250000D01*
X84357051Y-138853577D01*
X84132495Y-138517505D01*
X83796423Y-138292949D01*
X83500065Y-138234000D01*
X82900063Y-138234000D01*
X82799999Y-138214096D01*
X82699936Y-138234000D01*
X82699935Y-138234000D01*
X82403577Y-138292949D01*
X82067505Y-138517505D01*
X82010822Y-138602337D01*
X81883159Y-138730000D01*
X77122692Y-138730000D01*
X76997617Y-138705121D01*
X76872542Y-138730000D01*
X76872538Y-138730000D01*
X76502089Y-138803687D01*
X76082000Y-139084382D01*
X76011149Y-139190418D01*
X69040421Y-146161147D01*
X68934382Y-146232000D01*
X68653687Y-146652090D01*
X68580000Y-147022539D01*
X68580000Y-147022543D01*
X68555121Y-147147618D01*
X65187400Y-147147618D01*
X65187400Y-128650000D01*
X69555121Y-128650000D01*
X69653688Y-129145529D01*
X69863530Y-129459580D01*
X71063530Y-130659581D01*
X71134382Y-130765618D01*
X71240418Y-130836469D01*
X71240419Y-130836470D01*
X71300967Y-130876927D01*
X71554471Y-131046313D01*
X71924920Y-131120000D01*
X71924924Y-131120000D01*
X72049999Y-131144879D01*
X72175074Y-131120000D01*
X82275080Y-131120000D01*
X82645529Y-131046313D01*
X83065618Y-130765618D01*
X83346313Y-130345529D01*
X83444880Y-129850000D01*
X83346313Y-129354471D01*
X83065618Y-128934382D01*
X82645529Y-128653687D01*
X82275080Y-128580000D01*
X72576051Y-128580000D01*
X71659580Y-127663530D01*
X71345529Y-127453688D01*
X70850000Y-127355121D01*
X70354471Y-127453688D01*
X69934382Y-127734382D01*
X69653688Y-128154471D01*
X69555121Y-128650000D01*
X65187400Y-128650000D01*
X65187400Y-123577551D01*
X65202826Y-123500000D01*
X65187107Y-123420977D01*
X65141715Y-123192772D01*
X64967684Y-122932316D01*
X64901937Y-122888386D01*
X64727900Y-122714348D01*
X64727900Y-122655484D01*
X64579023Y-122296064D01*
X64303936Y-122020977D01*
X63944516Y-121872100D01*
X63555484Y-121872100D01*
X63196064Y-122020977D01*
X62920977Y-122296064D01*
X62772100Y-122655484D01*
X62772100Y-123044516D01*
X62920977Y-123403936D01*
X63196064Y-123679023D01*
X63555484Y-123827900D01*
X63612601Y-123827900D01*
X63612600Y-147023848D01*
X62585000Y-148051448D01*
X62585000Y-147785750D01*
X62426250Y-147627000D01*
X61227000Y-147627000D01*
X61227000Y-148826250D01*
X61385750Y-148985000D01*
X61651449Y-148985000D01*
X60864349Y-149772100D01*
X60805484Y-149772100D01*
X60446064Y-149920977D01*
X60170977Y-150196064D01*
X60022100Y-150555484D01*
X52672917Y-150555484D01*
X49903183Y-147785750D01*
X59615000Y-147785750D01*
X59615000Y-148476310D01*
X59711673Y-148709699D01*
X59890302Y-148888327D01*
X60123691Y-148985000D01*
X60814250Y-148985000D01*
X60973000Y-148826250D01*
X60973000Y-147627000D01*
X59773750Y-147627000D01*
X59615000Y-147785750D01*
X49903183Y-147785750D01*
X44537433Y-142420000D01*
X59585908Y-142420000D01*
X59701161Y-142999418D01*
X60029375Y-143490625D01*
X60327761Y-143690000D01*
X60029375Y-143889375D01*
X59701161Y-144380582D01*
X59585908Y-144960000D01*
X59701161Y-145539418D01*
X60029375Y-146030625D01*
X60051033Y-146045096D01*
X59890302Y-146111673D01*
X59711673Y-146290301D01*
X59615000Y-146523690D01*
X59615000Y-147214250D01*
X59773750Y-147373000D01*
X60973000Y-147373000D01*
X60973000Y-147353000D01*
X61227000Y-147353000D01*
X61227000Y-147373000D01*
X62426250Y-147373000D01*
X62585000Y-147214250D01*
X62585000Y-146523690D01*
X62488327Y-146290301D01*
X62309698Y-146111673D01*
X62148967Y-146045096D01*
X62170625Y-146030625D01*
X62498839Y-145539418D01*
X62614092Y-144960000D01*
X62498839Y-144380582D01*
X62170625Y-143889375D01*
X61872239Y-143690000D01*
X62170625Y-143490625D01*
X62498839Y-142999418D01*
X62614092Y-142420000D01*
X62498839Y-141840582D01*
X62170625Y-141349375D01*
X61679418Y-141021161D01*
X61246256Y-140935000D01*
X60953744Y-140935000D01*
X60520582Y-141021161D01*
X60029375Y-141349375D01*
X59701161Y-141840582D01*
X59585908Y-142420000D01*
X44537433Y-142420000D01*
X43225500Y-141108068D01*
X43225500Y-137281301D01*
X43241672Y-137200000D01*
X43222872Y-137105484D01*
X53222100Y-137105484D01*
X53222100Y-137494516D01*
X53370977Y-137853936D01*
X53646064Y-138129023D01*
X54005484Y-138277900D01*
X54394516Y-138277900D01*
X54753936Y-138129023D01*
X55029023Y-137853936D01*
X55177900Y-137494516D01*
X55177900Y-137435651D01*
X55751938Y-136861614D01*
X55817684Y-136817684D01*
X55991715Y-136557228D01*
X56037400Y-136327552D01*
X56052826Y-136250001D01*
X56037400Y-136172450D01*
X56037400Y-135645559D01*
X56079023Y-135603936D01*
X56227900Y-135244516D01*
X56227900Y-134855484D01*
X56079023Y-134496064D01*
X55803936Y-134220977D01*
X55444516Y-134072100D01*
X55055484Y-134072100D01*
X54696064Y-134220977D01*
X54420977Y-134496064D01*
X54272100Y-134855484D01*
X54272100Y-135244516D01*
X54420977Y-135603936D01*
X54462600Y-135645559D01*
X54462601Y-135923848D01*
X54064349Y-136322100D01*
X54005484Y-136322100D01*
X53646064Y-136470977D01*
X53370977Y-136746064D01*
X53222100Y-137105484D01*
X43222872Y-137105484D01*
X43218359Y-137082797D01*
X43177604Y-136877906D01*
X42995152Y-136604848D01*
X42926226Y-136558793D01*
X41791209Y-135423777D01*
X41745152Y-135354848D01*
X41472094Y-135172396D01*
X41231303Y-135124500D01*
X41231301Y-135124500D01*
X41150000Y-135108328D01*
X41068699Y-135124500D01*
X39507459Y-135124500D01*
X39503936Y-135120977D01*
X39144516Y-134972100D01*
X38755484Y-134972100D01*
X38396064Y-135120977D01*
X38392541Y-135124500D01*
X37166933Y-135124500D01*
X35915745Y-133873312D01*
X35947209Y-133826223D01*
X37876226Y-131897207D01*
X37945152Y-131851152D01*
X38127604Y-131578094D01*
X38175500Y-131337303D01*
X38191672Y-131256000D01*
X38175500Y-131174697D01*
X38175500Y-128407459D01*
X38179023Y-128403936D01*
X38318599Y-128066970D01*
X38318599Y-129490489D01*
X38303672Y-129565532D01*
X38318599Y-129640575D01*
X38318599Y-129640579D01*
X38362811Y-129862848D01*
X38531228Y-130114903D01*
X38594852Y-130157415D01*
X39023185Y-130585749D01*
X39065696Y-130649371D01*
X39317750Y-130817788D01*
X39463900Y-130846859D01*
X39546064Y-130929023D01*
X39905484Y-131077900D01*
X40294516Y-131077900D01*
X40653936Y-130929023D01*
X40929023Y-130653936D01*
X40969803Y-130555484D01*
X47472100Y-130555484D01*
X47472100Y-130944516D01*
X47620977Y-131303936D01*
X47896064Y-131579023D01*
X48255484Y-131727900D01*
X48260468Y-131727900D01*
X48763732Y-132231165D01*
X48801843Y-132422765D01*
X48886859Y-132550000D01*
X48801843Y-132677235D01*
X48752560Y-132925000D01*
X48752560Y-133675000D01*
X48801843Y-133922765D01*
X48942191Y-134132809D01*
X49152235Y-134273157D01*
X49400000Y-134322440D01*
X50600000Y-134322440D01*
X50847765Y-134273157D01*
X50939102Y-134212127D01*
X50940302Y-134213327D01*
X51173691Y-134310000D01*
X51614250Y-134310000D01*
X51773000Y-134151250D01*
X51773000Y-133427000D01*
X52027000Y-133427000D01*
X52027000Y-134151250D01*
X52185750Y-134310000D01*
X52626309Y-134310000D01*
X52859698Y-134213327D01*
X53038327Y-134034699D01*
X53135000Y-133801310D01*
X53135000Y-133585750D01*
X52976250Y-133427000D01*
X52027000Y-133427000D01*
X51773000Y-133427000D01*
X51753000Y-133427000D01*
X51753000Y-133173000D01*
X51773000Y-133173000D01*
X51773000Y-131927000D01*
X52027000Y-131927000D01*
X52027000Y-133173000D01*
X52976250Y-133173000D01*
X53135000Y-133014250D01*
X53135000Y-132798690D01*
X53038327Y-132565301D01*
X53023026Y-132550000D01*
X53038327Y-132534699D01*
X53135000Y-132301310D01*
X53135000Y-132085750D01*
X52976250Y-131927000D01*
X52027000Y-131927000D01*
X51773000Y-131927000D01*
X51753000Y-131927000D01*
X51753000Y-131673000D01*
X51773000Y-131673000D01*
X51773000Y-130948750D01*
X52027000Y-130948750D01*
X52027000Y-131673000D01*
X52976250Y-131673000D01*
X53135000Y-131514250D01*
X53135000Y-131298690D01*
X53038327Y-131065301D01*
X52859698Y-130886673D01*
X52626309Y-130790000D01*
X52185750Y-130790000D01*
X52027000Y-130948750D01*
X51773000Y-130948750D01*
X51614250Y-130790000D01*
X51527900Y-130790000D01*
X51527900Y-130505484D01*
X51379023Y-130146064D01*
X51103936Y-129870977D01*
X50744516Y-129722100D01*
X50355484Y-129722100D01*
X49996064Y-129870977D01*
X49720977Y-130146064D01*
X49572100Y-130505484D01*
X49572100Y-130704667D01*
X49427900Y-130560468D01*
X49427900Y-130555484D01*
X49279023Y-130196064D01*
X49003936Y-129920977D01*
X48644516Y-129772100D01*
X48255484Y-129772100D01*
X47896064Y-129920977D01*
X47620977Y-130196064D01*
X47472100Y-130555484D01*
X40969803Y-130555484D01*
X41077900Y-130294516D01*
X41077900Y-129905484D01*
X40929023Y-129546064D01*
X40653936Y-129270977D01*
X40294516Y-129122100D01*
X39905484Y-129122100D01*
X39842599Y-129148148D01*
X39842599Y-126631012D01*
X40063744Y-126675000D01*
X40356256Y-126675000D01*
X40789418Y-126588839D01*
X41280625Y-126260625D01*
X41480000Y-125962239D01*
X41679375Y-126260625D01*
X42170582Y-126588839D01*
X42603744Y-126675000D01*
X42896256Y-126675000D01*
X43329418Y-126588839D01*
X43483701Y-126485750D01*
X44915000Y-126485750D01*
X44915000Y-126701310D01*
X45011673Y-126934699D01*
X45190302Y-127113327D01*
X45423691Y-127210000D01*
X45864250Y-127210000D01*
X46023000Y-127051250D01*
X46023000Y-126327000D01*
X45073750Y-126327000D01*
X44915000Y-126485750D01*
X43483701Y-126485750D01*
X43820625Y-126260625D01*
X44148839Y-125769418D01*
X44162907Y-125698690D01*
X44915000Y-125698690D01*
X44915000Y-125914250D01*
X45073750Y-126073000D01*
X46023000Y-126073000D01*
X46023000Y-125551250D01*
X46073000Y-125501250D01*
X46073000Y-124777000D01*
X45123750Y-124777000D01*
X44965000Y-124935750D01*
X44965000Y-125151310D01*
X45061673Y-125384699D01*
X45076974Y-125400000D01*
X45011673Y-125465301D01*
X44915000Y-125698690D01*
X44162907Y-125698690D01*
X44264092Y-125190000D01*
X44148839Y-124610582D01*
X43840213Y-124148690D01*
X44965000Y-124148690D01*
X44965000Y-124364250D01*
X45123750Y-124523000D01*
X46073000Y-124523000D01*
X46073000Y-124503000D01*
X46327000Y-124503000D01*
X46327000Y-124523000D01*
X46347000Y-124523000D01*
X46347000Y-124777000D01*
X46327000Y-124777000D01*
X46327000Y-125298750D01*
X46277000Y-125348750D01*
X46277000Y-126073000D01*
X46297000Y-126073000D01*
X46297000Y-126327000D01*
X46277000Y-126327000D01*
X46277000Y-127051250D01*
X46435750Y-127210000D01*
X46876309Y-127210000D01*
X47109698Y-127113327D01*
X47110898Y-127112127D01*
X47202235Y-127173157D01*
X47450000Y-127222440D01*
X48650000Y-127222440D01*
X48897765Y-127173157D01*
X49025000Y-127088141D01*
X49152235Y-127173157D01*
X49400000Y-127222440D01*
X50600000Y-127222440D01*
X50684622Y-127205608D01*
X50615000Y-127373690D01*
X50615000Y-127514250D01*
X50773750Y-127673000D01*
X51350000Y-127673000D01*
X51350000Y-127653000D01*
X51502560Y-127653000D01*
X51502560Y-127858275D01*
X51294516Y-127772100D01*
X50905484Y-127772100D01*
X50546064Y-127920977D01*
X50270977Y-128196064D01*
X50122100Y-128555484D01*
X50122100Y-128944516D01*
X50270977Y-129303936D01*
X50546064Y-129579023D01*
X50905484Y-129727900D01*
X51000269Y-129727900D01*
X51151707Y-129879338D01*
X51194218Y-129942960D01*
X51257840Y-129985471D01*
X51446270Y-130111376D01*
X51446271Y-130111376D01*
X51446272Y-130111377D01*
X51668541Y-130155589D01*
X51668545Y-130155589D01*
X51743588Y-130170516D01*
X51818631Y-130155589D01*
X53458176Y-130155589D01*
X53533219Y-130170516D01*
X53608262Y-130155589D01*
X53608267Y-130155589D01*
X53830536Y-130111377D01*
X53954436Y-130028590D01*
X54070634Y-130028590D01*
X54232676Y-129961470D01*
X54270977Y-130053936D01*
X54546064Y-130329023D01*
X54905484Y-130477900D01*
X55294516Y-130477900D01*
X55653936Y-130329023D01*
X55929023Y-130053936D01*
X56017924Y-129839312D01*
X57216707Y-128640529D01*
X57290933Y-128590933D01*
X57487419Y-128296870D01*
X57539000Y-128037556D01*
X57539000Y-128037555D01*
X57556416Y-127950001D01*
X57539000Y-127862446D01*
X57539000Y-124943959D01*
X57679023Y-124803936D01*
X57827900Y-124444516D01*
X57827900Y-124055484D01*
X57679023Y-123696064D01*
X57403936Y-123420977D01*
X57044516Y-123272100D01*
X56655484Y-123272100D01*
X56296064Y-123420977D01*
X56020977Y-123696064D01*
X55917250Y-123946482D01*
X55812582Y-124103130D01*
X55743584Y-124450000D01*
X55761001Y-124537559D01*
X55761000Y-127032482D01*
X55494516Y-126922100D01*
X55105484Y-126922100D01*
X54746064Y-127070977D01*
X54742541Y-127074500D01*
X54093119Y-127074500D01*
X54011821Y-127058329D01*
X53930523Y-127074500D01*
X53930519Y-127074500D01*
X53689728Y-127122396D01*
X53639150Y-127156191D01*
X53453936Y-126970977D01*
X53094516Y-126822100D01*
X53084967Y-126822100D01*
X53135000Y-126701310D01*
X53135000Y-126485750D01*
X52976250Y-126327000D01*
X52027000Y-126327000D01*
X52027000Y-126347000D01*
X51773000Y-126347000D01*
X51773000Y-126327000D01*
X51753000Y-126327000D01*
X51753000Y-126073000D01*
X51773000Y-126073000D01*
X51773000Y-124777000D01*
X52027000Y-124777000D01*
X52027000Y-126073000D01*
X52976250Y-126073000D01*
X53135000Y-125914250D01*
X53135000Y-125698690D01*
X53038327Y-125465301D01*
X52998026Y-125425000D01*
X53038327Y-125384699D01*
X53135000Y-125151310D01*
X53135000Y-124935750D01*
X52976250Y-124777000D01*
X52027000Y-124777000D01*
X51773000Y-124777000D01*
X51753000Y-124777000D01*
X51753000Y-124523000D01*
X51773000Y-124523000D01*
X51773000Y-124503000D01*
X52027000Y-124503000D01*
X52027000Y-124523000D01*
X52976250Y-124523000D01*
X53135000Y-124364250D01*
X53135000Y-124148690D01*
X53038327Y-123915301D01*
X52859698Y-123736673D01*
X52626309Y-123640000D01*
X52277900Y-123640000D01*
X52277900Y-123255484D01*
X52129023Y-122896064D01*
X51853936Y-122620977D01*
X51494516Y-122472100D01*
X51105484Y-122472100D01*
X50746064Y-122620977D01*
X50470977Y-122896064D01*
X50382077Y-123110687D01*
X49865205Y-123627560D01*
X49400000Y-123627560D01*
X49152235Y-123676843D01*
X49050000Y-123745155D01*
X48947765Y-123676843D01*
X48700000Y-123627560D01*
X48094993Y-123627560D01*
X46927900Y-122460468D01*
X46927900Y-122455484D01*
X46779023Y-122096064D01*
X46503936Y-121820977D01*
X46144516Y-121672100D01*
X45755484Y-121672100D01*
X45396064Y-121820977D01*
X45120977Y-122096064D01*
X44972100Y-122455484D01*
X44972100Y-122844516D01*
X45120977Y-123203936D01*
X45396064Y-123479023D01*
X45755484Y-123627900D01*
X45760468Y-123627900D01*
X45772568Y-123640000D01*
X45473691Y-123640000D01*
X45240302Y-123736673D01*
X45061673Y-123915301D01*
X44965000Y-124148690D01*
X43840213Y-124148690D01*
X43820625Y-124119375D01*
X43798967Y-124104904D01*
X43959698Y-124038327D01*
X44138327Y-123859699D01*
X44235000Y-123626310D01*
X44235000Y-122935750D01*
X44076250Y-122777000D01*
X42877000Y-122777000D01*
X42877000Y-122797000D01*
X42623000Y-122797000D01*
X42623000Y-122777000D01*
X42603000Y-122777000D01*
X42603000Y-122523000D01*
X42623000Y-122523000D01*
X42623000Y-121323750D01*
X42877000Y-121323750D01*
X42877000Y-122523000D01*
X44076250Y-122523000D01*
X44235000Y-122364250D01*
X44235000Y-121673690D01*
X44142345Y-121450000D01*
X57314096Y-121450000D01*
X57392950Y-121846423D01*
X57617506Y-122182494D01*
X57953577Y-122407050D01*
X58350000Y-122485904D01*
X58746423Y-122407050D01*
X58997663Y-122239177D01*
X59570841Y-121666000D01*
X71150065Y-121666000D01*
X71446423Y-121607051D01*
X71782495Y-121382495D01*
X72007051Y-121046423D01*
X72085904Y-120650000D01*
X72007051Y-120253577D01*
X71782495Y-119917505D01*
X71446423Y-119692949D01*
X71150065Y-119634000D01*
X70765125Y-119634000D01*
X70857051Y-119496423D01*
X70935904Y-119100000D01*
X70857051Y-118703577D01*
X70632495Y-118367505D01*
X70296423Y-118142949D01*
X70000065Y-118084000D01*
X63570840Y-118084000D01*
X63347663Y-117860823D01*
X63096423Y-117692950D01*
X62700000Y-117614096D01*
X62303577Y-117692950D01*
X61967506Y-117917506D01*
X61742950Y-118253577D01*
X61664096Y-118650000D01*
X61742950Y-119046423D01*
X61910823Y-119297663D01*
X62247160Y-119634000D01*
X59250063Y-119634000D01*
X59150000Y-119614096D01*
X59049936Y-119634000D01*
X59049935Y-119634000D01*
X58753577Y-119692949D01*
X58417505Y-119917505D01*
X58360822Y-120002337D01*
X57560823Y-120802337D01*
X57392950Y-121053577D01*
X57314096Y-121450000D01*
X44142345Y-121450000D01*
X44138327Y-121440301D01*
X43959698Y-121261673D01*
X43726309Y-121165000D01*
X43035750Y-121165000D01*
X42877000Y-121323750D01*
X42623000Y-121323750D01*
X42464250Y-121165000D01*
X41773691Y-121165000D01*
X41540302Y-121261673D01*
X41361673Y-121440301D01*
X41295096Y-121601032D01*
X41280625Y-121579375D01*
X40789418Y-121251161D01*
X40356256Y-121165000D01*
X40063744Y-121165000D01*
X39630582Y-121251161D01*
X39139375Y-121579375D01*
X38811161Y-122070582D01*
X38695908Y-122650000D01*
X38768321Y-123014049D01*
X38594851Y-123187519D01*
X38531229Y-123230030D01*
X38488718Y-123293652D01*
X38488717Y-123293653D01*
X38362812Y-123482084D01*
X38303672Y-123779401D01*
X38318600Y-123854449D01*
X38318599Y-127633030D01*
X38179023Y-127296064D01*
X37903936Y-127020977D01*
X37544516Y-126872100D01*
X37155484Y-126872100D01*
X36796064Y-127020977D01*
X36520977Y-127296064D01*
X36372100Y-127655484D01*
X36372100Y-128044516D01*
X36520977Y-128403936D01*
X36524500Y-128407459D01*
X36524501Y-130914066D01*
X35360969Y-132077598D01*
X35321680Y-132051346D01*
X35463327Y-131909698D01*
X35560000Y-131676309D01*
X35560000Y-131085750D01*
X35401250Y-130927000D01*
X34427000Y-130927000D01*
X34427000Y-130947000D01*
X34173000Y-130947000D01*
X34173000Y-130927000D01*
X33198750Y-130927000D01*
X33040000Y-131085750D01*
X33040000Y-131676309D01*
X33136673Y-131909698D01*
X33278320Y-132051346D01*
X33217191Y-132092191D01*
X33076843Y-132302235D01*
X33027560Y-132550000D01*
X28361200Y-132550000D01*
X28361200Y-129923691D01*
X33040000Y-129923691D01*
X33040000Y-130514250D01*
X33198750Y-130673000D01*
X34173000Y-130673000D01*
X34173000Y-129573750D01*
X34427000Y-129573750D01*
X34427000Y-130673000D01*
X35401250Y-130673000D01*
X35560000Y-130514250D01*
X35560000Y-129923691D01*
X35463327Y-129690302D01*
X35284699Y-129511673D01*
X35051310Y-129415000D01*
X34585750Y-129415000D01*
X34427000Y-129573750D01*
X34173000Y-129573750D01*
X34014250Y-129415000D01*
X33548690Y-129415000D01*
X33315301Y-129511673D01*
X33136673Y-129690302D01*
X33040000Y-129923691D01*
X28361200Y-129923691D01*
X28361200Y-118147938D01*
X45630732Y-118147938D01*
X45814448Y-118521821D01*
X46138951Y-118809568D01*
X46548869Y-118951229D01*
X46723000Y-118802563D01*
X46723000Y-117977000D01*
X46977000Y-117977000D01*
X46977000Y-118802563D01*
X47151131Y-118951229D01*
X47561049Y-118809568D01*
X47885552Y-118521821D01*
X48069268Y-118147938D01*
X50630732Y-118147938D01*
X50814448Y-118521821D01*
X51138951Y-118809568D01*
X51548869Y-118951229D01*
X51723000Y-118802563D01*
X51723000Y-117977000D01*
X51977000Y-117977000D01*
X51977000Y-118802563D01*
X52151131Y-118951229D01*
X52561049Y-118809568D01*
X52885552Y-118521821D01*
X53069268Y-118147938D01*
X52942734Y-117977000D01*
X51977000Y-117977000D01*
X51723000Y-117977000D01*
X50757266Y-117977000D01*
X50630732Y-118147938D01*
X48069268Y-118147938D01*
X47942734Y-117977000D01*
X46977000Y-117977000D01*
X46723000Y-117977000D01*
X45757266Y-117977000D01*
X45630732Y-118147938D01*
X28361200Y-118147938D01*
X28361200Y-117552062D01*
X45630732Y-117552062D01*
X45757266Y-117723000D01*
X46723000Y-117723000D01*
X46723000Y-116897437D01*
X46977000Y-116897437D01*
X46977000Y-117723000D01*
X47942734Y-117723000D01*
X48069268Y-117552062D01*
X50630732Y-117552062D01*
X50757266Y-117723000D01*
X51723000Y-117723000D01*
X51723000Y-116897437D01*
X51977000Y-116897437D01*
X51977000Y-117723000D01*
X52942734Y-117723000D01*
X53069268Y-117552062D01*
X52885552Y-117178179D01*
X52668543Y-116985750D01*
X75715000Y-116985750D01*
X75715000Y-117676309D01*
X75811673Y-117909698D01*
X75990301Y-118088327D01*
X76223690Y-118185000D01*
X76914250Y-118185000D01*
X77073000Y-118026250D01*
X77073000Y-116827000D01*
X75873750Y-116827000D01*
X75715000Y-116985750D01*
X52668543Y-116985750D01*
X52561049Y-116890432D01*
X52151131Y-116748771D01*
X51977000Y-116897437D01*
X51723000Y-116897437D01*
X51548869Y-116748771D01*
X51138951Y-116890432D01*
X50814448Y-117178179D01*
X50630732Y-117552062D01*
X48069268Y-117552062D01*
X47885552Y-117178179D01*
X47561049Y-116890432D01*
X47151131Y-116748771D01*
X46977000Y-116897437D01*
X46723000Y-116897437D01*
X46548869Y-116748771D01*
X46138951Y-116890432D01*
X45814448Y-117178179D01*
X45630732Y-117552062D01*
X28361200Y-117552062D01*
X28361200Y-115277000D01*
X44715000Y-115277000D01*
X44715000Y-115552000D01*
X44849998Y-115976678D01*
X45137237Y-116317368D01*
X45548126Y-116519119D01*
X45723000Y-116392954D01*
X45723000Y-115277000D01*
X45977000Y-115277000D01*
X45977000Y-116392954D01*
X46151874Y-116519119D01*
X46562763Y-116317368D01*
X46850002Y-115976678D01*
X46985000Y-115552000D01*
X46985000Y-115277000D01*
X51715000Y-115277000D01*
X51715000Y-115552000D01*
X51849998Y-115976678D01*
X52137237Y-116317368D01*
X52548126Y-116519119D01*
X52723000Y-116392954D01*
X52723000Y-115277000D01*
X52977000Y-115277000D01*
X52977000Y-116392954D01*
X53151874Y-116519119D01*
X53562763Y-116317368D01*
X53850002Y-115976678D01*
X53930422Y-115723691D01*
X75715000Y-115723691D01*
X75715000Y-116414250D01*
X75873750Y-116573000D01*
X77073000Y-116573000D01*
X77073000Y-115373750D01*
X77327000Y-115373750D01*
X77327000Y-116573000D01*
X77347000Y-116573000D01*
X77347000Y-116827000D01*
X77327000Y-116827000D01*
X77327000Y-118026250D01*
X77485750Y-118185000D01*
X78176310Y-118185000D01*
X78409699Y-118088327D01*
X78588327Y-117909698D01*
X78654904Y-117748967D01*
X78669375Y-117770625D01*
X79160582Y-118098839D01*
X79593744Y-118185000D01*
X79886256Y-118185000D01*
X80319418Y-118098839D01*
X80810625Y-117770625D01*
X81138839Y-117279418D01*
X81254092Y-116700000D01*
X81138839Y-116120582D01*
X80810625Y-115629375D01*
X80319418Y-115301161D01*
X79886256Y-115215000D01*
X79593744Y-115215000D01*
X79160582Y-115301161D01*
X78669375Y-115629375D01*
X78654904Y-115651033D01*
X78588327Y-115490302D01*
X78409699Y-115311673D01*
X78176310Y-115215000D01*
X77485750Y-115215000D01*
X77327000Y-115373750D01*
X77073000Y-115373750D01*
X76914250Y-115215000D01*
X76223690Y-115215000D01*
X75990301Y-115311673D01*
X75811673Y-115490302D01*
X75715000Y-115723691D01*
X53930422Y-115723691D01*
X53985000Y-115552000D01*
X53985000Y-115277000D01*
X52977000Y-115277000D01*
X52723000Y-115277000D01*
X51715000Y-115277000D01*
X46985000Y-115277000D01*
X45977000Y-115277000D01*
X45723000Y-115277000D01*
X44715000Y-115277000D01*
X28361200Y-115277000D01*
X28361200Y-114461200D01*
X44806169Y-114461200D01*
X44715000Y-114748000D01*
G04 #@! TD*
M02*
