M48
;DRILL file {KiCad 5.0.1} date Tue 04 Dec 2018 09:14:09 PM EST
;FORMAT={-:-/ absolute / inch / decimal}
FMAT,2
INCH,TZ
T1C0.0130
T2C0.0197
T3C0.0217
T4C0.0354
T5C0.0394
%
G90
G05
M72
T1
X1.1319Y-5.7756
X1.1496Y-5.9508
X1.185Y-5.6791
X1.1935Y-7.3525
X1.2736Y-7.0157
X1.2736Y-7.439
X1.3248Y-6.6949
X1.3504Y-5.1496
X1.3504Y-5.248
X1.3504Y-5.4449
X1.3583Y-5.6181
X1.3602Y-7.1063
X1.3785Y-6.8072
X1.3839Y-5.5925
X1.4078Y-6.5197
X1.4354Y-5.5456
X1.4705Y-5.0335
X1.5079Y-5.6654
X1.5079Y-5.8878
X1.5079Y-6.1223
X1.5335Y-5.3524
X1.5433Y-6.5335
X1.5787Y-5.122
X1.5925Y-5.5354
X1.5984Y-5.5768
X1.624Y-5.4173
X1.6457Y-7.1909
X1.6476Y-6.4331
X1.6541Y-7.3427
X1.6614Y-6.5354
X1.671Y-6.2854
X1.721Y-7.3427
X1.7224Y-7.4213
X1.7283Y-7.1102
X1.7638Y-5.4055
X1.7815Y-6.939
X1.8091Y-4.8287
X1.8189Y-5.1673
X1.8346Y-6.311
X1.8346Y-6.4094
X1.876Y-5.3248
X1.9075Y-5.1476
X1.9154Y-7.4508
X1.9179Y-7.1073
X1.9567Y-7.4055
X1.9724Y-5.9626
X1.9803Y-5.0276
X1.9862Y-7.1555
X1.9882Y-6.874
X1.9882Y-7.0709
X1.9902Y-5.1457
X1.9965Y-6.4173
X2.0118Y-5.0689
X2.0177Y-5.3524
X2.0197Y-4.8602
X2.0472Y-6.6949
X2.061Y-5.0647
X2.065Y-7.1516
X2.0827Y-5.0315
X2.0925Y-4.7224
X2.0945Y-4.8602
X2.0945Y-7.252
X2.1142Y-5.8366
X2.1211Y-5.0807
X2.122Y-6.2598
X2.1339Y-5.4055
X2.1417Y-6.9114
X2.1457Y-6.1319
X2.1476Y-6.7953
X2.1496Y-7.3228
X2.1535Y-7.3878
X2.1693Y-5.0984
X2.1752Y-5.3169
X2.1772Y-5.0354
X2.1791Y-5.2402
X2.2382Y-4.8917
X2.2485Y-6.4749
X2.2579Y-6.3406
X2.2638Y-5.9862
X2.2972Y-4.7815
X2.2972Y-4.9232
X2.3661Y-7.
X2.378Y-6.5197
X2.3976Y-5.9783
X2.4016Y-5.935
X2.4252Y-7.2638
X2.4311Y-6.8091
X2.4429Y-6.752
X2.4469Y-4.8602
X2.4486Y-7.1516
X2.4665Y-6.9783
X2.4685Y-4.6713
X2.4705Y-6.0512
X2.5098Y-4.8366
X2.5098Y-7.1083
X2.5276Y-6.628
X2.5472Y-6.9252
X2.6063Y-6.1299
X2.6102Y-7.2638
X2.6199Y-6.1852
X2.6201Y-6.8898
X2.7126Y-5.1831
X2.7244Y-6.9272
X2.7382Y-7.0551
X2.7421Y-6.8425
X2.752Y-4.689
X2.7618Y-5.6594
X2.7894Y-5.065
X2.7972Y-4.75
X2.7972Y-4.8681
X2.8031Y-7.1555
X2.8091Y-6.4902
X2.8169Y-6.8425
X2.8366Y-5.6201
X2.8425Y-5.7657
X2.8445Y-6.5492
X2.876Y-5.1909
X2.8937Y-7.2598
X2.9055Y-7.3209
X2.9094Y-7.3799
X2.9252Y-6.6083
X2.9311Y-5.2913
X2.9823Y-6.7303
X2.9862Y-5.6988
X3.002Y-5.2539
X3.0138Y-6.876
X3.0354Y-6.1004
X3.0433Y-5.7657
X3.0472Y-6.4272
X3.0886Y-6.685
X3.126Y-6.878
X3.1398Y-5.1772
X3.1476Y-6.6457
X3.2185Y-7.0965
X3.2303Y-5.5118
X3.2343Y-5.1122
X3.2539Y-6.7106
X3.2835Y-5.4823
X3.2953Y-5.7362
X3.3031Y-6.3425
X3.313Y-5.9547
X3.374Y-6.0984
X3.3819Y-6.1713
X3.4035Y-6.9606
X3.4311Y-5.9606
X3.4803Y-7.3228
T4
X1.4455Y-7.2521
X1.4455Y-7.3521
T5
X3.0394Y-4.5945
X3.1394Y-4.5945
X2.4055Y-5.6071
X2.4055Y-5.7071
X2.4055Y-5.8071
X3.4035Y-6.3839
X3.4035Y-6.4839
X3.4035Y-6.5839
X1.5831Y-4.8287
X1.5831Y-4.9287
X1.6831Y-4.8287
X1.6831Y-4.9287
T2
X1.8051Y-4.5463G85X1.8051Y-4.5207
G05
X2.0807Y-4.5207G85X2.0807Y-4.5463
G05
T3
X1.8504Y-4.6398G85X1.8386Y-4.6398
G05
X2.0472Y-4.6398G85X2.0354Y-4.6398
G05
T0
M30
