G04 #@! TF.GenerationSoftware,KiCad,Pcbnew,5.0.1*
G04 #@! TF.CreationDate,2018-12-04T21:14:06-05:00*
G04 #@! TF.ProjectId,receiver,72656365697665722E6B696361645F70,rev?*
G04 #@! TF.SameCoordinates,Original*
G04 #@! TF.FileFunction,Other,Fab,Bot*
%FSLAX46Y46*%
G04 Gerber Fmt 4.6, Leading zero omitted, Abs format (unit mm)*
G04 Created by KiCad (PCBNEW 5.0.1) date Tue 04 Dec 2018 09:14:06 PM EST*
%MOMM*%
%LPD*%
G01*
G04 APERTURE LIST*
%ADD10C,0.100000*%
%ADD11C,0.150000*%
%ADD12C,0.075000*%
G04 APERTURE END LIST*
D10*
G04 #@! TO.C,C227*
X71400000Y-174200000D02*
X71400000Y-173400000D01*
X69800000Y-174200000D02*
X71400000Y-174200000D01*
X69800000Y-173400000D02*
X69800000Y-174200000D01*
X71400000Y-173400000D02*
X69800000Y-173400000D01*
G04 #@! TO.C,C238*
X49400000Y-161350000D02*
X49400000Y-162950000D01*
X49400000Y-162950000D02*
X50200000Y-162950000D01*
X50200000Y-162950000D02*
X50200000Y-161350000D01*
X50200000Y-161350000D02*
X49400000Y-161350000D01*
G04 #@! TO.C,C235*
X43650000Y-181200000D02*
X42050000Y-181200000D01*
X42050000Y-181200000D02*
X42050000Y-182000000D01*
X42050000Y-182000000D02*
X43650000Y-182000000D01*
X43650000Y-182000000D02*
X43650000Y-181200000D01*
G04 #@! TO.C,C302*
X50150000Y-132900000D02*
X50150000Y-133700000D01*
X51750000Y-132900000D02*
X50150000Y-132900000D01*
X51750000Y-133700000D02*
X51750000Y-132900000D01*
X50150000Y-133700000D02*
X51750000Y-133700000D01*
G04 #@! TO.C,C309*
X47950000Y-125050000D02*
X47950000Y-124250000D01*
X46350000Y-125050000D02*
X47950000Y-125050000D01*
X46350000Y-124250000D02*
X46350000Y-125050000D01*
X47950000Y-124250000D02*
X46350000Y-124250000D01*
G04 #@! TO.C,C308*
X47900000Y-125800000D02*
X46300000Y-125800000D01*
X46300000Y-125800000D02*
X46300000Y-126600000D01*
X46300000Y-126600000D02*
X47900000Y-126600000D01*
X47900000Y-126600000D02*
X47900000Y-125800000D01*
G04 #@! TO.C,C307*
X50150000Y-124250000D02*
X50150000Y-125050000D01*
X51750000Y-124250000D02*
X50150000Y-124250000D01*
X51750000Y-125050000D02*
X51750000Y-124250000D01*
X50150000Y-125050000D02*
X51750000Y-125050000D01*
G04 #@! TO.C,C305*
X50150000Y-125800000D02*
X50150000Y-126600000D01*
X51750000Y-125800000D02*
X50150000Y-125800000D01*
X51750000Y-126600000D02*
X51750000Y-125800000D01*
X50150000Y-126600000D02*
X51750000Y-126600000D01*
G04 #@! TO.C,C301*
X50150000Y-132200000D02*
X51750000Y-132200000D01*
X51750000Y-132200000D02*
X51750000Y-131400000D01*
X51750000Y-131400000D02*
X50150000Y-131400000D01*
X50150000Y-131400000D02*
X50150000Y-132200000D01*
G04 #@! TO.C,C203*
X33620000Y-186600000D02*
X33620000Y-184600000D01*
X33620000Y-184600000D02*
X32380000Y-184600000D01*
X32380000Y-184600000D02*
X32380000Y-186600000D01*
X32380000Y-186600000D02*
X33620000Y-186600000D01*
G04 #@! TO.C,C205*
X32114491Y-178833465D02*
X32114491Y-180073465D01*
X34114491Y-178833465D02*
X32114491Y-178833465D01*
X34114491Y-180073465D02*
X34114491Y-178833465D01*
X32114491Y-180073465D02*
X34114491Y-180073465D01*
G04 #@! TO.C,C319*
X34920000Y-133050000D02*
X34920000Y-131050000D01*
X34920000Y-131050000D02*
X33680000Y-131050000D01*
X33680000Y-131050000D02*
X33680000Y-133050000D01*
X33680000Y-133050000D02*
X34920000Y-133050000D01*
G04 #@! TO.C,C314*
X33738196Y-140559047D02*
X34978196Y-140559047D01*
X33738196Y-138559047D02*
X33738196Y-140559047D01*
X34978196Y-138559047D02*
X33738196Y-138559047D01*
X34978196Y-140559047D02*
X34978196Y-138559047D01*
G04 #@! TO.C,C315*
X37078196Y-140609047D02*
X37078196Y-138609047D01*
X37078196Y-138609047D02*
X35838196Y-138609047D01*
X35838196Y-138609047D02*
X35838196Y-140609047D01*
X35838196Y-140609047D02*
X37078196Y-140609047D01*
G04 #@! TO.C,R311*
X52400000Y-128050000D02*
X52400000Y-127550000D01*
X51400000Y-128050000D02*
X52400000Y-128050000D01*
X51400000Y-127550000D02*
X51400000Y-128050000D01*
X52400000Y-127550000D02*
X51400000Y-127550000D01*
G04 #@! TO.C,R209*
X32114491Y-175353465D02*
X32114491Y-176953465D01*
X32114491Y-176953465D02*
X32914491Y-176953465D01*
X32914491Y-176953465D02*
X32914491Y-175353465D01*
X32914491Y-175353465D02*
X32114491Y-175353465D01*
G04 #@! TO.C,R214*
X32114491Y-172753465D02*
X32914491Y-172753465D01*
X32114491Y-171153465D02*
X32114491Y-172753465D01*
X32914491Y-171153465D02*
X32114491Y-171153465D01*
X32914491Y-172753465D02*
X32914491Y-171153465D01*
G04 #@! TO.C,R239*
X48450000Y-162950000D02*
X48450000Y-161350000D01*
X48450000Y-161350000D02*
X47650000Y-161350000D01*
X47650000Y-161350000D02*
X47650000Y-162950000D01*
X47650000Y-162950000D02*
X48450000Y-162950000D01*
G04 #@! TD*
G04 #@! TO.C,TP208*
D11*
X56933333Y-156952380D02*
X56361904Y-156952380D01*
X56647619Y-157952380D02*
X56647619Y-156952380D01*
X55647619Y-157904761D02*
X55742857Y-157952380D01*
X55933333Y-157952380D01*
X56028571Y-157904761D01*
X56076190Y-157809523D01*
X56076190Y-157428571D01*
X56028571Y-157333333D01*
X55933333Y-157285714D01*
X55742857Y-157285714D01*
X55647619Y-157333333D01*
X55600000Y-157428571D01*
X55600000Y-157523809D01*
X56076190Y-157619047D01*
X55219047Y-157904761D02*
X55123809Y-157952380D01*
X54933333Y-157952380D01*
X54838095Y-157904761D01*
X54790476Y-157809523D01*
X54790476Y-157761904D01*
X54838095Y-157666666D01*
X54933333Y-157619047D01*
X55076190Y-157619047D01*
X55171428Y-157571428D01*
X55219047Y-157476190D01*
X55219047Y-157428571D01*
X55171428Y-157333333D01*
X55076190Y-157285714D01*
X54933333Y-157285714D01*
X54838095Y-157333333D01*
X54504761Y-157285714D02*
X54123809Y-157285714D01*
X54361904Y-156952380D02*
X54361904Y-157809523D01*
X54314285Y-157904761D01*
X54219047Y-157952380D01*
X54123809Y-157952380D01*
X53790476Y-157952380D02*
X53790476Y-156952380D01*
X53409523Y-156952380D01*
X53314285Y-157000000D01*
X53266666Y-157047619D01*
X53219047Y-157142857D01*
X53219047Y-157285714D01*
X53266666Y-157380952D01*
X53314285Y-157428571D01*
X53409523Y-157476190D01*
X53790476Y-157476190D01*
X52647619Y-157952380D02*
X52742857Y-157904761D01*
X52790476Y-157857142D01*
X52838095Y-157761904D01*
X52838095Y-157476190D01*
X52790476Y-157380952D01*
X52742857Y-157333333D01*
X52647619Y-157285714D01*
X52504761Y-157285714D01*
X52409523Y-157333333D01*
X52361904Y-157380952D01*
X52314285Y-157476190D01*
X52314285Y-157761904D01*
X52361904Y-157857142D01*
X52409523Y-157904761D01*
X52504761Y-157952380D01*
X52647619Y-157952380D01*
X51885714Y-157952380D02*
X51885714Y-157285714D01*
X51885714Y-156952380D02*
X51933333Y-157000000D01*
X51885714Y-157047619D01*
X51838095Y-157000000D01*
X51885714Y-156952380D01*
X51885714Y-157047619D01*
X51409523Y-157285714D02*
X51409523Y-157952380D01*
X51409523Y-157380952D02*
X51361904Y-157333333D01*
X51266666Y-157285714D01*
X51123809Y-157285714D01*
X51028571Y-157333333D01*
X50980952Y-157428571D01*
X50980952Y-157952380D01*
X50647619Y-157285714D02*
X50266666Y-157285714D01*
X50504761Y-156952380D02*
X50504761Y-157809523D01*
X50457142Y-157904761D01*
X50361904Y-157952380D01*
X50266666Y-157952380D01*
G04 #@! TO.C,TP202*
X53183333Y-184627380D02*
X52611904Y-184627380D01*
X52897619Y-185627380D02*
X52897619Y-184627380D01*
X51897619Y-185579761D02*
X51992857Y-185627380D01*
X52183333Y-185627380D01*
X52278571Y-185579761D01*
X52326190Y-185484523D01*
X52326190Y-185103571D01*
X52278571Y-185008333D01*
X52183333Y-184960714D01*
X51992857Y-184960714D01*
X51897619Y-185008333D01*
X51850000Y-185103571D01*
X51850000Y-185198809D01*
X52326190Y-185294047D01*
X51469047Y-185579761D02*
X51373809Y-185627380D01*
X51183333Y-185627380D01*
X51088095Y-185579761D01*
X51040476Y-185484523D01*
X51040476Y-185436904D01*
X51088095Y-185341666D01*
X51183333Y-185294047D01*
X51326190Y-185294047D01*
X51421428Y-185246428D01*
X51469047Y-185151190D01*
X51469047Y-185103571D01*
X51421428Y-185008333D01*
X51326190Y-184960714D01*
X51183333Y-184960714D01*
X51088095Y-185008333D01*
X50754761Y-184960714D02*
X50373809Y-184960714D01*
X50611904Y-184627380D02*
X50611904Y-185484523D01*
X50564285Y-185579761D01*
X50469047Y-185627380D01*
X50373809Y-185627380D01*
X50040476Y-185627380D02*
X50040476Y-184627380D01*
X49659523Y-184627380D01*
X49564285Y-184675000D01*
X49516666Y-184722619D01*
X49469047Y-184817857D01*
X49469047Y-184960714D01*
X49516666Y-185055952D01*
X49564285Y-185103571D01*
X49659523Y-185151190D01*
X50040476Y-185151190D01*
X48897619Y-185627380D02*
X48992857Y-185579761D01*
X49040476Y-185532142D01*
X49088095Y-185436904D01*
X49088095Y-185151190D01*
X49040476Y-185055952D01*
X48992857Y-185008333D01*
X48897619Y-184960714D01*
X48754761Y-184960714D01*
X48659523Y-185008333D01*
X48611904Y-185055952D01*
X48564285Y-185151190D01*
X48564285Y-185436904D01*
X48611904Y-185532142D01*
X48659523Y-185579761D01*
X48754761Y-185627380D01*
X48897619Y-185627380D01*
X48135714Y-185627380D02*
X48135714Y-184960714D01*
X48135714Y-184627380D02*
X48183333Y-184675000D01*
X48135714Y-184722619D01*
X48088095Y-184675000D01*
X48135714Y-184627380D01*
X48135714Y-184722619D01*
X47659523Y-184960714D02*
X47659523Y-185627380D01*
X47659523Y-185055952D02*
X47611904Y-185008333D01*
X47516666Y-184960714D01*
X47373809Y-184960714D01*
X47278571Y-185008333D01*
X47230952Y-185103571D01*
X47230952Y-185627380D01*
X46897619Y-184960714D02*
X46516666Y-184960714D01*
X46754761Y-184627380D02*
X46754761Y-185484523D01*
X46707142Y-185579761D01*
X46611904Y-185627380D01*
X46516666Y-185627380D01*
G04 #@! TO.C,TP207*
X51108333Y-178552380D02*
X50536904Y-178552380D01*
X50822619Y-179552380D02*
X50822619Y-178552380D01*
X49822619Y-179504761D02*
X49917857Y-179552380D01*
X50108333Y-179552380D01*
X50203571Y-179504761D01*
X50251190Y-179409523D01*
X50251190Y-179028571D01*
X50203571Y-178933333D01*
X50108333Y-178885714D01*
X49917857Y-178885714D01*
X49822619Y-178933333D01*
X49775000Y-179028571D01*
X49775000Y-179123809D01*
X50251190Y-179219047D01*
X49394047Y-179504761D02*
X49298809Y-179552380D01*
X49108333Y-179552380D01*
X49013095Y-179504761D01*
X48965476Y-179409523D01*
X48965476Y-179361904D01*
X49013095Y-179266666D01*
X49108333Y-179219047D01*
X49251190Y-179219047D01*
X49346428Y-179171428D01*
X49394047Y-179076190D01*
X49394047Y-179028571D01*
X49346428Y-178933333D01*
X49251190Y-178885714D01*
X49108333Y-178885714D01*
X49013095Y-178933333D01*
X48679761Y-178885714D02*
X48298809Y-178885714D01*
X48536904Y-178552380D02*
X48536904Y-179409523D01*
X48489285Y-179504761D01*
X48394047Y-179552380D01*
X48298809Y-179552380D01*
X47965476Y-179552380D02*
X47965476Y-178552380D01*
X47584523Y-178552380D01*
X47489285Y-178600000D01*
X47441666Y-178647619D01*
X47394047Y-178742857D01*
X47394047Y-178885714D01*
X47441666Y-178980952D01*
X47489285Y-179028571D01*
X47584523Y-179076190D01*
X47965476Y-179076190D01*
X46822619Y-179552380D02*
X46917857Y-179504761D01*
X46965476Y-179457142D01*
X47013095Y-179361904D01*
X47013095Y-179076190D01*
X46965476Y-178980952D01*
X46917857Y-178933333D01*
X46822619Y-178885714D01*
X46679761Y-178885714D01*
X46584523Y-178933333D01*
X46536904Y-178980952D01*
X46489285Y-179076190D01*
X46489285Y-179361904D01*
X46536904Y-179457142D01*
X46584523Y-179504761D01*
X46679761Y-179552380D01*
X46822619Y-179552380D01*
X46060714Y-179552380D02*
X46060714Y-178885714D01*
X46060714Y-178552380D02*
X46108333Y-178600000D01*
X46060714Y-178647619D01*
X46013095Y-178600000D01*
X46060714Y-178552380D01*
X46060714Y-178647619D01*
X45584523Y-178885714D02*
X45584523Y-179552380D01*
X45584523Y-178980952D02*
X45536904Y-178933333D01*
X45441666Y-178885714D01*
X45298809Y-178885714D01*
X45203571Y-178933333D01*
X45155952Y-179028571D01*
X45155952Y-179552380D01*
X44822619Y-178885714D02*
X44441666Y-178885714D01*
X44679761Y-178552380D02*
X44679761Y-179409523D01*
X44632142Y-179504761D01*
X44536904Y-179552380D01*
X44441666Y-179552380D01*
G04 #@! TO.C,C227*
X71576190Y-175752380D02*
X72147619Y-175752380D01*
X71861904Y-175752380D02*
X71861904Y-174752380D01*
X71957142Y-174895238D01*
X72052380Y-174990476D01*
X72147619Y-175038095D01*
X69957142Y-175085714D02*
X69957142Y-175752380D01*
X70385714Y-175085714D02*
X70385714Y-175609523D01*
X70338095Y-175704761D01*
X70242857Y-175752380D01*
X70100000Y-175752380D01*
X70004761Y-175704761D01*
X69957142Y-175657142D01*
X69147619Y-175228571D02*
X69480952Y-175228571D01*
X69480952Y-175752380D02*
X69480952Y-174752380D01*
X69004761Y-174752380D01*
X71719047Y-172907142D02*
X71766666Y-172954761D01*
X71909523Y-173002380D01*
X72004761Y-173002380D01*
X72147619Y-172954761D01*
X72242857Y-172859523D01*
X72290476Y-172764285D01*
X72338095Y-172573809D01*
X72338095Y-172430952D01*
X72290476Y-172240476D01*
X72242857Y-172145238D01*
X72147619Y-172050000D01*
X72004761Y-172002380D01*
X71909523Y-172002380D01*
X71766666Y-172050000D01*
X71719047Y-172097619D01*
X71338095Y-172097619D02*
X71290476Y-172050000D01*
X71195238Y-172002380D01*
X70957142Y-172002380D01*
X70861904Y-172050000D01*
X70814285Y-172097619D01*
X70766666Y-172192857D01*
X70766666Y-172288095D01*
X70814285Y-172430952D01*
X71385714Y-173002380D01*
X70766666Y-173002380D01*
X70385714Y-172097619D02*
X70338095Y-172050000D01*
X70242857Y-172002380D01*
X70004761Y-172002380D01*
X69909523Y-172050000D01*
X69861904Y-172097619D01*
X69814285Y-172192857D01*
X69814285Y-172288095D01*
X69861904Y-172430952D01*
X70433333Y-173002380D01*
X69814285Y-173002380D01*
X69480952Y-172002380D02*
X68814285Y-172002380D01*
X69242857Y-173002380D01*
G04 #@! TO.C,C238*
X51752380Y-161173809D02*
X51752380Y-160602380D01*
X51752380Y-160888095D02*
X50752380Y-160888095D01*
X50895238Y-160792857D01*
X50990476Y-160697619D01*
X51038095Y-160602380D01*
X51085714Y-162792857D02*
X51752380Y-162792857D01*
X51085714Y-162364285D02*
X51609523Y-162364285D01*
X51704761Y-162411904D01*
X51752380Y-162507142D01*
X51752380Y-162650000D01*
X51704761Y-162745238D01*
X51657142Y-162792857D01*
X51228571Y-163602380D02*
X51228571Y-163269047D01*
X51752380Y-163269047D02*
X50752380Y-163269047D01*
X50752380Y-163745238D01*
X48907142Y-161030952D02*
X48954761Y-160983333D01*
X49002380Y-160840476D01*
X49002380Y-160745238D01*
X48954761Y-160602380D01*
X48859523Y-160507142D01*
X48764285Y-160459523D01*
X48573809Y-160411904D01*
X48430952Y-160411904D01*
X48240476Y-160459523D01*
X48145238Y-160507142D01*
X48050000Y-160602380D01*
X48002380Y-160745238D01*
X48002380Y-160840476D01*
X48050000Y-160983333D01*
X48097619Y-161030952D01*
X48097619Y-161411904D02*
X48050000Y-161459523D01*
X48002380Y-161554761D01*
X48002380Y-161792857D01*
X48050000Y-161888095D01*
X48097619Y-161935714D01*
X48192857Y-161983333D01*
X48288095Y-161983333D01*
X48430952Y-161935714D01*
X49002380Y-161364285D01*
X49002380Y-161983333D01*
X48002380Y-162316666D02*
X48002380Y-162935714D01*
X48383333Y-162602380D01*
X48383333Y-162745238D01*
X48430952Y-162840476D01*
X48478571Y-162888095D01*
X48573809Y-162935714D01*
X48811904Y-162935714D01*
X48907142Y-162888095D01*
X48954761Y-162840476D01*
X49002380Y-162745238D01*
X49002380Y-162459523D01*
X48954761Y-162364285D01*
X48907142Y-162316666D01*
X48430952Y-163507142D02*
X48383333Y-163411904D01*
X48335714Y-163364285D01*
X48240476Y-163316666D01*
X48192857Y-163316666D01*
X48097619Y-163364285D01*
X48050000Y-163411904D01*
X48002380Y-163507142D01*
X48002380Y-163697619D01*
X48050000Y-163792857D01*
X48097619Y-163840476D01*
X48192857Y-163888095D01*
X48240476Y-163888095D01*
X48335714Y-163840476D01*
X48383333Y-163792857D01*
X48430952Y-163697619D01*
X48430952Y-163507142D01*
X48478571Y-163411904D01*
X48526190Y-163364285D01*
X48621428Y-163316666D01*
X48811904Y-163316666D01*
X48907142Y-163364285D01*
X48954761Y-163411904D01*
X49002380Y-163507142D01*
X49002380Y-163697619D01*
X48954761Y-163792857D01*
X48907142Y-163840476D01*
X48811904Y-163888095D01*
X48621428Y-163888095D01*
X48526190Y-163840476D01*
X48478571Y-163792857D01*
X48430952Y-163697619D01*
G04 #@! TO.C,C235*
X43826190Y-183552380D02*
X44397619Y-183552380D01*
X44111904Y-183552380D02*
X44111904Y-182552380D01*
X44207142Y-182695238D01*
X44302380Y-182790476D01*
X44397619Y-182838095D01*
X42207142Y-182885714D02*
X42207142Y-183552380D01*
X42635714Y-182885714D02*
X42635714Y-183409523D01*
X42588095Y-183504761D01*
X42492857Y-183552380D01*
X42350000Y-183552380D01*
X42254761Y-183504761D01*
X42207142Y-183457142D01*
X41397619Y-183028571D02*
X41730952Y-183028571D01*
X41730952Y-183552380D02*
X41730952Y-182552380D01*
X41254761Y-182552380D01*
X43969047Y-180707142D02*
X44016666Y-180754761D01*
X44159523Y-180802380D01*
X44254761Y-180802380D01*
X44397619Y-180754761D01*
X44492857Y-180659523D01*
X44540476Y-180564285D01*
X44588095Y-180373809D01*
X44588095Y-180230952D01*
X44540476Y-180040476D01*
X44492857Y-179945238D01*
X44397619Y-179850000D01*
X44254761Y-179802380D01*
X44159523Y-179802380D01*
X44016666Y-179850000D01*
X43969047Y-179897619D01*
X43588095Y-179897619D02*
X43540476Y-179850000D01*
X43445238Y-179802380D01*
X43207142Y-179802380D01*
X43111904Y-179850000D01*
X43064285Y-179897619D01*
X43016666Y-179992857D01*
X43016666Y-180088095D01*
X43064285Y-180230952D01*
X43635714Y-180802380D01*
X43016666Y-180802380D01*
X42683333Y-179802380D02*
X42064285Y-179802380D01*
X42397619Y-180183333D01*
X42254761Y-180183333D01*
X42159523Y-180230952D01*
X42111904Y-180278571D01*
X42064285Y-180373809D01*
X42064285Y-180611904D01*
X42111904Y-180707142D01*
X42159523Y-180754761D01*
X42254761Y-180802380D01*
X42540476Y-180802380D01*
X42635714Y-180754761D01*
X42683333Y-180707142D01*
X41159523Y-179802380D02*
X41635714Y-179802380D01*
X41683333Y-180278571D01*
X41635714Y-180230952D01*
X41540476Y-180183333D01*
X41302380Y-180183333D01*
X41207142Y-180230952D01*
X41159523Y-180278571D01*
X41111904Y-180373809D01*
X41111904Y-180611904D01*
X41159523Y-180707142D01*
X41207142Y-180754761D01*
X41302380Y-180802380D01*
X41540476Y-180802380D01*
X41635714Y-180754761D01*
X41683333Y-180707142D01*
G04 #@! TO.C,C302*
X52878571Y-132252380D02*
X53450000Y-132252380D01*
X53164285Y-132252380D02*
X53164285Y-131252380D01*
X53259523Y-131395238D01*
X53354761Y-131490476D01*
X53450000Y-131538095D01*
X52259523Y-131252380D02*
X52164285Y-131252380D01*
X52069047Y-131300000D01*
X52021428Y-131347619D01*
X51973809Y-131442857D01*
X51926190Y-131633333D01*
X51926190Y-131871428D01*
X51973809Y-132061904D01*
X52021428Y-132157142D01*
X52069047Y-132204761D01*
X52164285Y-132252380D01*
X52259523Y-132252380D01*
X52354761Y-132204761D01*
X52402380Y-132157142D01*
X52450000Y-132061904D01*
X52497619Y-131871428D01*
X52497619Y-131633333D01*
X52450000Y-131442857D01*
X52402380Y-131347619D01*
X52354761Y-131300000D01*
X52259523Y-131252380D01*
X51307142Y-131252380D02*
X51211904Y-131252380D01*
X51116666Y-131300000D01*
X51069047Y-131347619D01*
X51021428Y-131442857D01*
X50973809Y-131633333D01*
X50973809Y-131871428D01*
X51021428Y-132061904D01*
X51069047Y-132157142D01*
X51116666Y-132204761D01*
X51211904Y-132252380D01*
X51307142Y-132252380D01*
X51402380Y-132204761D01*
X51450000Y-132157142D01*
X51497619Y-132061904D01*
X51545238Y-131871428D01*
X51545238Y-131633333D01*
X51497619Y-131442857D01*
X51450000Y-131347619D01*
X51402380Y-131300000D01*
X51307142Y-131252380D01*
X49783333Y-131585714D02*
X49783333Y-132252380D01*
X49783333Y-131680952D02*
X49735714Y-131633333D01*
X49640476Y-131585714D01*
X49497619Y-131585714D01*
X49402380Y-131633333D01*
X49354761Y-131728571D01*
X49354761Y-132252380D01*
X48545238Y-131728571D02*
X48878571Y-131728571D01*
X48878571Y-132252380D02*
X48878571Y-131252380D01*
X48402380Y-131252380D01*
X52069047Y-134907142D02*
X52116666Y-134954761D01*
X52259523Y-135002380D01*
X52354761Y-135002380D01*
X52497619Y-134954761D01*
X52592857Y-134859523D01*
X52640476Y-134764285D01*
X52688095Y-134573809D01*
X52688095Y-134430952D01*
X52640476Y-134240476D01*
X52592857Y-134145238D01*
X52497619Y-134050000D01*
X52354761Y-134002380D01*
X52259523Y-134002380D01*
X52116666Y-134050000D01*
X52069047Y-134097619D01*
X51735714Y-134002380D02*
X51116666Y-134002380D01*
X51450000Y-134383333D01*
X51307142Y-134383333D01*
X51211904Y-134430952D01*
X51164285Y-134478571D01*
X51116666Y-134573809D01*
X51116666Y-134811904D01*
X51164285Y-134907142D01*
X51211904Y-134954761D01*
X51307142Y-135002380D01*
X51592857Y-135002380D01*
X51688095Y-134954761D01*
X51735714Y-134907142D01*
X50497619Y-134002380D02*
X50402380Y-134002380D01*
X50307142Y-134050000D01*
X50259523Y-134097619D01*
X50211904Y-134192857D01*
X50164285Y-134383333D01*
X50164285Y-134621428D01*
X50211904Y-134811904D01*
X50259523Y-134907142D01*
X50307142Y-134954761D01*
X50402380Y-135002380D01*
X50497619Y-135002380D01*
X50592857Y-134954761D01*
X50640476Y-134907142D01*
X50688095Y-134811904D01*
X50735714Y-134621428D01*
X50735714Y-134383333D01*
X50688095Y-134192857D01*
X50640476Y-134097619D01*
X50592857Y-134050000D01*
X50497619Y-134002380D01*
X49783333Y-134097619D02*
X49735714Y-134050000D01*
X49640476Y-134002380D01*
X49402380Y-134002380D01*
X49307142Y-134050000D01*
X49259523Y-134097619D01*
X49211904Y-134192857D01*
X49211904Y-134288095D01*
X49259523Y-134430952D01*
X49830952Y-135002380D01*
X49211904Y-135002380D01*
G04 #@! TO.C,C309*
X49078571Y-126602380D02*
X49650000Y-126602380D01*
X49364285Y-126602380D02*
X49364285Y-125602380D01*
X49459523Y-125745238D01*
X49554761Y-125840476D01*
X49650000Y-125888095D01*
X48459523Y-125602380D02*
X48364285Y-125602380D01*
X48269047Y-125650000D01*
X48221428Y-125697619D01*
X48173809Y-125792857D01*
X48126190Y-125983333D01*
X48126190Y-126221428D01*
X48173809Y-126411904D01*
X48221428Y-126507142D01*
X48269047Y-126554761D01*
X48364285Y-126602380D01*
X48459523Y-126602380D01*
X48554761Y-126554761D01*
X48602380Y-126507142D01*
X48650000Y-126411904D01*
X48697619Y-126221428D01*
X48697619Y-125983333D01*
X48650000Y-125792857D01*
X48602380Y-125697619D01*
X48554761Y-125650000D01*
X48459523Y-125602380D01*
X47507142Y-125602380D02*
X47411904Y-125602380D01*
X47316666Y-125650000D01*
X47269047Y-125697619D01*
X47221428Y-125792857D01*
X47173809Y-125983333D01*
X47173809Y-126221428D01*
X47221428Y-126411904D01*
X47269047Y-126507142D01*
X47316666Y-126554761D01*
X47411904Y-126602380D01*
X47507142Y-126602380D01*
X47602380Y-126554761D01*
X47650000Y-126507142D01*
X47697619Y-126411904D01*
X47745238Y-126221428D01*
X47745238Y-125983333D01*
X47697619Y-125792857D01*
X47650000Y-125697619D01*
X47602380Y-125650000D01*
X47507142Y-125602380D01*
X45983333Y-125935714D02*
X45983333Y-126602380D01*
X45983333Y-126030952D02*
X45935714Y-125983333D01*
X45840476Y-125935714D01*
X45697619Y-125935714D01*
X45602380Y-125983333D01*
X45554761Y-126078571D01*
X45554761Y-126602380D01*
X44745238Y-126078571D02*
X45078571Y-126078571D01*
X45078571Y-126602380D02*
X45078571Y-125602380D01*
X44602380Y-125602380D01*
X48269047Y-123757142D02*
X48316666Y-123804761D01*
X48459523Y-123852380D01*
X48554761Y-123852380D01*
X48697619Y-123804761D01*
X48792857Y-123709523D01*
X48840476Y-123614285D01*
X48888095Y-123423809D01*
X48888095Y-123280952D01*
X48840476Y-123090476D01*
X48792857Y-122995238D01*
X48697619Y-122900000D01*
X48554761Y-122852380D01*
X48459523Y-122852380D01*
X48316666Y-122900000D01*
X48269047Y-122947619D01*
X47935714Y-122852380D02*
X47316666Y-122852380D01*
X47650000Y-123233333D01*
X47507142Y-123233333D01*
X47411904Y-123280952D01*
X47364285Y-123328571D01*
X47316666Y-123423809D01*
X47316666Y-123661904D01*
X47364285Y-123757142D01*
X47411904Y-123804761D01*
X47507142Y-123852380D01*
X47792857Y-123852380D01*
X47888095Y-123804761D01*
X47935714Y-123757142D01*
X46697619Y-122852380D02*
X46602380Y-122852380D01*
X46507142Y-122900000D01*
X46459523Y-122947619D01*
X46411904Y-123042857D01*
X46364285Y-123233333D01*
X46364285Y-123471428D01*
X46411904Y-123661904D01*
X46459523Y-123757142D01*
X46507142Y-123804761D01*
X46602380Y-123852380D01*
X46697619Y-123852380D01*
X46792857Y-123804761D01*
X46840476Y-123757142D01*
X46888095Y-123661904D01*
X46935714Y-123471428D01*
X46935714Y-123233333D01*
X46888095Y-123042857D01*
X46840476Y-122947619D01*
X46792857Y-122900000D01*
X46697619Y-122852380D01*
X45888095Y-123852380D02*
X45697619Y-123852380D01*
X45602380Y-123804761D01*
X45554761Y-123757142D01*
X45459523Y-123614285D01*
X45411904Y-123423809D01*
X45411904Y-123042857D01*
X45459523Y-122947619D01*
X45507142Y-122900000D01*
X45602380Y-122852380D01*
X45792857Y-122852380D01*
X45888095Y-122900000D01*
X45935714Y-122947619D01*
X45983333Y-123042857D01*
X45983333Y-123280952D01*
X45935714Y-123376190D01*
X45888095Y-123423809D01*
X45792857Y-123471428D01*
X45602380Y-123471428D01*
X45507142Y-123423809D01*
X45459523Y-123376190D01*
X45411904Y-123280952D01*
G04 #@! TO.C,C308*
X49028571Y-128152380D02*
X49600000Y-128152380D01*
X49314285Y-128152380D02*
X49314285Y-127152380D01*
X49409523Y-127295238D01*
X49504761Y-127390476D01*
X49600000Y-127438095D01*
X48409523Y-127152380D02*
X48314285Y-127152380D01*
X48219047Y-127200000D01*
X48171428Y-127247619D01*
X48123809Y-127342857D01*
X48076190Y-127533333D01*
X48076190Y-127771428D01*
X48123809Y-127961904D01*
X48171428Y-128057142D01*
X48219047Y-128104761D01*
X48314285Y-128152380D01*
X48409523Y-128152380D01*
X48504761Y-128104761D01*
X48552380Y-128057142D01*
X48600000Y-127961904D01*
X48647619Y-127771428D01*
X48647619Y-127533333D01*
X48600000Y-127342857D01*
X48552380Y-127247619D01*
X48504761Y-127200000D01*
X48409523Y-127152380D01*
X47457142Y-127152380D02*
X47361904Y-127152380D01*
X47266666Y-127200000D01*
X47219047Y-127247619D01*
X47171428Y-127342857D01*
X47123809Y-127533333D01*
X47123809Y-127771428D01*
X47171428Y-127961904D01*
X47219047Y-128057142D01*
X47266666Y-128104761D01*
X47361904Y-128152380D01*
X47457142Y-128152380D01*
X47552380Y-128104761D01*
X47600000Y-128057142D01*
X47647619Y-127961904D01*
X47695238Y-127771428D01*
X47695238Y-127533333D01*
X47647619Y-127342857D01*
X47600000Y-127247619D01*
X47552380Y-127200000D01*
X47457142Y-127152380D01*
X45933333Y-127485714D02*
X45933333Y-128152380D01*
X45933333Y-127580952D02*
X45885714Y-127533333D01*
X45790476Y-127485714D01*
X45647619Y-127485714D01*
X45552380Y-127533333D01*
X45504761Y-127628571D01*
X45504761Y-128152380D01*
X44695238Y-127628571D02*
X45028571Y-127628571D01*
X45028571Y-128152380D02*
X45028571Y-127152380D01*
X44552380Y-127152380D01*
X48219047Y-125307142D02*
X48266666Y-125354761D01*
X48409523Y-125402380D01*
X48504761Y-125402380D01*
X48647619Y-125354761D01*
X48742857Y-125259523D01*
X48790476Y-125164285D01*
X48838095Y-124973809D01*
X48838095Y-124830952D01*
X48790476Y-124640476D01*
X48742857Y-124545238D01*
X48647619Y-124450000D01*
X48504761Y-124402380D01*
X48409523Y-124402380D01*
X48266666Y-124450000D01*
X48219047Y-124497619D01*
X47885714Y-124402380D02*
X47266666Y-124402380D01*
X47600000Y-124783333D01*
X47457142Y-124783333D01*
X47361904Y-124830952D01*
X47314285Y-124878571D01*
X47266666Y-124973809D01*
X47266666Y-125211904D01*
X47314285Y-125307142D01*
X47361904Y-125354761D01*
X47457142Y-125402380D01*
X47742857Y-125402380D01*
X47838095Y-125354761D01*
X47885714Y-125307142D01*
X46647619Y-124402380D02*
X46552380Y-124402380D01*
X46457142Y-124450000D01*
X46409523Y-124497619D01*
X46361904Y-124592857D01*
X46314285Y-124783333D01*
X46314285Y-125021428D01*
X46361904Y-125211904D01*
X46409523Y-125307142D01*
X46457142Y-125354761D01*
X46552380Y-125402380D01*
X46647619Y-125402380D01*
X46742857Y-125354761D01*
X46790476Y-125307142D01*
X46838095Y-125211904D01*
X46885714Y-125021428D01*
X46885714Y-124783333D01*
X46838095Y-124592857D01*
X46790476Y-124497619D01*
X46742857Y-124450000D01*
X46647619Y-124402380D01*
X45742857Y-124830952D02*
X45838095Y-124783333D01*
X45885714Y-124735714D01*
X45933333Y-124640476D01*
X45933333Y-124592857D01*
X45885714Y-124497619D01*
X45838095Y-124450000D01*
X45742857Y-124402380D01*
X45552380Y-124402380D01*
X45457142Y-124450000D01*
X45409523Y-124497619D01*
X45361904Y-124592857D01*
X45361904Y-124640476D01*
X45409523Y-124735714D01*
X45457142Y-124783333D01*
X45552380Y-124830952D01*
X45742857Y-124830952D01*
X45838095Y-124878571D01*
X45885714Y-124926190D01*
X45933333Y-125021428D01*
X45933333Y-125211904D01*
X45885714Y-125307142D01*
X45838095Y-125354761D01*
X45742857Y-125402380D01*
X45552380Y-125402380D01*
X45457142Y-125354761D01*
X45409523Y-125307142D01*
X45361904Y-125211904D01*
X45361904Y-125021428D01*
X45409523Y-124926190D01*
X45457142Y-124878571D01*
X45552380Y-124830952D01*
G04 #@! TO.C,C307*
X52878571Y-123602380D02*
X53450000Y-123602380D01*
X53164285Y-123602380D02*
X53164285Y-122602380D01*
X53259523Y-122745238D01*
X53354761Y-122840476D01*
X53450000Y-122888095D01*
X52259523Y-122602380D02*
X52164285Y-122602380D01*
X52069047Y-122650000D01*
X52021428Y-122697619D01*
X51973809Y-122792857D01*
X51926190Y-122983333D01*
X51926190Y-123221428D01*
X51973809Y-123411904D01*
X52021428Y-123507142D01*
X52069047Y-123554761D01*
X52164285Y-123602380D01*
X52259523Y-123602380D01*
X52354761Y-123554761D01*
X52402380Y-123507142D01*
X52450000Y-123411904D01*
X52497619Y-123221428D01*
X52497619Y-122983333D01*
X52450000Y-122792857D01*
X52402380Y-122697619D01*
X52354761Y-122650000D01*
X52259523Y-122602380D01*
X51307142Y-122602380D02*
X51211904Y-122602380D01*
X51116666Y-122650000D01*
X51069047Y-122697619D01*
X51021428Y-122792857D01*
X50973809Y-122983333D01*
X50973809Y-123221428D01*
X51021428Y-123411904D01*
X51069047Y-123507142D01*
X51116666Y-123554761D01*
X51211904Y-123602380D01*
X51307142Y-123602380D01*
X51402380Y-123554761D01*
X51450000Y-123507142D01*
X51497619Y-123411904D01*
X51545238Y-123221428D01*
X51545238Y-122983333D01*
X51497619Y-122792857D01*
X51450000Y-122697619D01*
X51402380Y-122650000D01*
X51307142Y-122602380D01*
X49783333Y-122935714D02*
X49783333Y-123602380D01*
X49783333Y-123030952D02*
X49735714Y-122983333D01*
X49640476Y-122935714D01*
X49497619Y-122935714D01*
X49402380Y-122983333D01*
X49354761Y-123078571D01*
X49354761Y-123602380D01*
X48545238Y-123078571D02*
X48878571Y-123078571D01*
X48878571Y-123602380D02*
X48878571Y-122602380D01*
X48402380Y-122602380D01*
X52069047Y-126257142D02*
X52116666Y-126304761D01*
X52259523Y-126352380D01*
X52354761Y-126352380D01*
X52497619Y-126304761D01*
X52592857Y-126209523D01*
X52640476Y-126114285D01*
X52688095Y-125923809D01*
X52688095Y-125780952D01*
X52640476Y-125590476D01*
X52592857Y-125495238D01*
X52497619Y-125400000D01*
X52354761Y-125352380D01*
X52259523Y-125352380D01*
X52116666Y-125400000D01*
X52069047Y-125447619D01*
X51735714Y-125352380D02*
X51116666Y-125352380D01*
X51450000Y-125733333D01*
X51307142Y-125733333D01*
X51211904Y-125780952D01*
X51164285Y-125828571D01*
X51116666Y-125923809D01*
X51116666Y-126161904D01*
X51164285Y-126257142D01*
X51211904Y-126304761D01*
X51307142Y-126352380D01*
X51592857Y-126352380D01*
X51688095Y-126304761D01*
X51735714Y-126257142D01*
X50497619Y-125352380D02*
X50402380Y-125352380D01*
X50307142Y-125400000D01*
X50259523Y-125447619D01*
X50211904Y-125542857D01*
X50164285Y-125733333D01*
X50164285Y-125971428D01*
X50211904Y-126161904D01*
X50259523Y-126257142D01*
X50307142Y-126304761D01*
X50402380Y-126352380D01*
X50497619Y-126352380D01*
X50592857Y-126304761D01*
X50640476Y-126257142D01*
X50688095Y-126161904D01*
X50735714Y-125971428D01*
X50735714Y-125733333D01*
X50688095Y-125542857D01*
X50640476Y-125447619D01*
X50592857Y-125400000D01*
X50497619Y-125352380D01*
X49830952Y-125352380D02*
X49164285Y-125352380D01*
X49592857Y-126352380D01*
G04 #@! TO.C,C305*
X52878571Y-125152380D02*
X53450000Y-125152380D01*
X53164285Y-125152380D02*
X53164285Y-124152380D01*
X53259523Y-124295238D01*
X53354761Y-124390476D01*
X53450000Y-124438095D01*
X52259523Y-124152380D02*
X52164285Y-124152380D01*
X52069047Y-124200000D01*
X52021428Y-124247619D01*
X51973809Y-124342857D01*
X51926190Y-124533333D01*
X51926190Y-124771428D01*
X51973809Y-124961904D01*
X52021428Y-125057142D01*
X52069047Y-125104761D01*
X52164285Y-125152380D01*
X52259523Y-125152380D01*
X52354761Y-125104761D01*
X52402380Y-125057142D01*
X52450000Y-124961904D01*
X52497619Y-124771428D01*
X52497619Y-124533333D01*
X52450000Y-124342857D01*
X52402380Y-124247619D01*
X52354761Y-124200000D01*
X52259523Y-124152380D01*
X51307142Y-124152380D02*
X51211904Y-124152380D01*
X51116666Y-124200000D01*
X51069047Y-124247619D01*
X51021428Y-124342857D01*
X50973809Y-124533333D01*
X50973809Y-124771428D01*
X51021428Y-124961904D01*
X51069047Y-125057142D01*
X51116666Y-125104761D01*
X51211904Y-125152380D01*
X51307142Y-125152380D01*
X51402380Y-125104761D01*
X51450000Y-125057142D01*
X51497619Y-124961904D01*
X51545238Y-124771428D01*
X51545238Y-124533333D01*
X51497619Y-124342857D01*
X51450000Y-124247619D01*
X51402380Y-124200000D01*
X51307142Y-124152380D01*
X49783333Y-124485714D02*
X49783333Y-125152380D01*
X49783333Y-124580952D02*
X49735714Y-124533333D01*
X49640476Y-124485714D01*
X49497619Y-124485714D01*
X49402380Y-124533333D01*
X49354761Y-124628571D01*
X49354761Y-125152380D01*
X48545238Y-124628571D02*
X48878571Y-124628571D01*
X48878571Y-125152380D02*
X48878571Y-124152380D01*
X48402380Y-124152380D01*
X52069047Y-127807142D02*
X52116666Y-127854761D01*
X52259523Y-127902380D01*
X52354761Y-127902380D01*
X52497619Y-127854761D01*
X52592857Y-127759523D01*
X52640476Y-127664285D01*
X52688095Y-127473809D01*
X52688095Y-127330952D01*
X52640476Y-127140476D01*
X52592857Y-127045238D01*
X52497619Y-126950000D01*
X52354761Y-126902380D01*
X52259523Y-126902380D01*
X52116666Y-126950000D01*
X52069047Y-126997619D01*
X51735714Y-126902380D02*
X51116666Y-126902380D01*
X51450000Y-127283333D01*
X51307142Y-127283333D01*
X51211904Y-127330952D01*
X51164285Y-127378571D01*
X51116666Y-127473809D01*
X51116666Y-127711904D01*
X51164285Y-127807142D01*
X51211904Y-127854761D01*
X51307142Y-127902380D01*
X51592857Y-127902380D01*
X51688095Y-127854761D01*
X51735714Y-127807142D01*
X50497619Y-126902380D02*
X50402380Y-126902380D01*
X50307142Y-126950000D01*
X50259523Y-126997619D01*
X50211904Y-127092857D01*
X50164285Y-127283333D01*
X50164285Y-127521428D01*
X50211904Y-127711904D01*
X50259523Y-127807142D01*
X50307142Y-127854761D01*
X50402380Y-127902380D01*
X50497619Y-127902380D01*
X50592857Y-127854761D01*
X50640476Y-127807142D01*
X50688095Y-127711904D01*
X50735714Y-127521428D01*
X50735714Y-127283333D01*
X50688095Y-127092857D01*
X50640476Y-126997619D01*
X50592857Y-126950000D01*
X50497619Y-126902380D01*
X49259523Y-126902380D02*
X49735714Y-126902380D01*
X49783333Y-127378571D01*
X49735714Y-127330952D01*
X49640476Y-127283333D01*
X49402380Y-127283333D01*
X49307142Y-127330952D01*
X49259523Y-127378571D01*
X49211904Y-127473809D01*
X49211904Y-127711904D01*
X49259523Y-127807142D01*
X49307142Y-127854761D01*
X49402380Y-127902380D01*
X49640476Y-127902380D01*
X49735714Y-127854761D01*
X49783333Y-127807142D01*
G04 #@! TO.C,C301*
X51926190Y-130752380D02*
X52497619Y-130752380D01*
X52211904Y-130752380D02*
X52211904Y-129752380D01*
X52307142Y-129895238D01*
X52402380Y-129990476D01*
X52497619Y-130038095D01*
X50307142Y-130085714D02*
X50307142Y-130752380D01*
X50735714Y-130085714D02*
X50735714Y-130609523D01*
X50688095Y-130704761D01*
X50592857Y-130752380D01*
X50450000Y-130752380D01*
X50354761Y-130704761D01*
X50307142Y-130657142D01*
X49497619Y-130228571D02*
X49830952Y-130228571D01*
X49830952Y-130752380D02*
X49830952Y-129752380D01*
X49354761Y-129752380D01*
X52069047Y-133407142D02*
X52116666Y-133454761D01*
X52259523Y-133502380D01*
X52354761Y-133502380D01*
X52497619Y-133454761D01*
X52592857Y-133359523D01*
X52640476Y-133264285D01*
X52688095Y-133073809D01*
X52688095Y-132930952D01*
X52640476Y-132740476D01*
X52592857Y-132645238D01*
X52497619Y-132550000D01*
X52354761Y-132502380D01*
X52259523Y-132502380D01*
X52116666Y-132550000D01*
X52069047Y-132597619D01*
X51735714Y-132502380D02*
X51116666Y-132502380D01*
X51450000Y-132883333D01*
X51307142Y-132883333D01*
X51211904Y-132930952D01*
X51164285Y-132978571D01*
X51116666Y-133073809D01*
X51116666Y-133311904D01*
X51164285Y-133407142D01*
X51211904Y-133454761D01*
X51307142Y-133502380D01*
X51592857Y-133502380D01*
X51688095Y-133454761D01*
X51735714Y-133407142D01*
X50497619Y-132502380D02*
X50402380Y-132502380D01*
X50307142Y-132550000D01*
X50259523Y-132597619D01*
X50211904Y-132692857D01*
X50164285Y-132883333D01*
X50164285Y-133121428D01*
X50211904Y-133311904D01*
X50259523Y-133407142D01*
X50307142Y-133454761D01*
X50402380Y-133502380D01*
X50497619Y-133502380D01*
X50592857Y-133454761D01*
X50640476Y-133407142D01*
X50688095Y-133311904D01*
X50735714Y-133121428D01*
X50735714Y-132883333D01*
X50688095Y-132692857D01*
X50640476Y-132597619D01*
X50592857Y-132550000D01*
X50497619Y-132502380D01*
X49211904Y-133502380D02*
X49783333Y-133502380D01*
X49497619Y-133502380D02*
X49497619Y-132502380D01*
X49592857Y-132645238D01*
X49688095Y-132740476D01*
X49783333Y-132788095D01*
G04 #@! TO.C,C203*
X31702380Y-184147619D02*
X31702380Y-183576190D01*
X31702380Y-183861904D02*
X30702380Y-183861904D01*
X30845238Y-183766666D01*
X30940476Y-183671428D01*
X30988095Y-183576190D01*
X30702380Y-184766666D02*
X30702380Y-184861904D01*
X30750000Y-184957142D01*
X30797619Y-185004761D01*
X30892857Y-185052380D01*
X31083333Y-185100000D01*
X31321428Y-185100000D01*
X31511904Y-185052380D01*
X31607142Y-185004761D01*
X31654761Y-184957142D01*
X31702380Y-184861904D01*
X31702380Y-184766666D01*
X31654761Y-184671428D01*
X31607142Y-184623809D01*
X31511904Y-184576190D01*
X31321428Y-184528571D01*
X31083333Y-184528571D01*
X30892857Y-184576190D01*
X30797619Y-184623809D01*
X30750000Y-184671428D01*
X30702380Y-184766666D01*
X31035714Y-186719047D02*
X31702380Y-186719047D01*
X31035714Y-186290476D02*
X31559523Y-186290476D01*
X31654761Y-186338095D01*
X31702380Y-186433333D01*
X31702380Y-186576190D01*
X31654761Y-186671428D01*
X31607142Y-186719047D01*
X31178571Y-187528571D02*
X31178571Y-187195238D01*
X31702380Y-187195238D02*
X30702380Y-187195238D01*
X30702380Y-187671428D01*
X35107142Y-184480952D02*
X35154761Y-184433333D01*
X35202380Y-184290476D01*
X35202380Y-184195238D01*
X35154761Y-184052380D01*
X35059523Y-183957142D01*
X34964285Y-183909523D01*
X34773809Y-183861904D01*
X34630952Y-183861904D01*
X34440476Y-183909523D01*
X34345238Y-183957142D01*
X34250000Y-184052380D01*
X34202380Y-184195238D01*
X34202380Y-184290476D01*
X34250000Y-184433333D01*
X34297619Y-184480952D01*
X34297619Y-184861904D02*
X34250000Y-184909523D01*
X34202380Y-185004761D01*
X34202380Y-185242857D01*
X34250000Y-185338095D01*
X34297619Y-185385714D01*
X34392857Y-185433333D01*
X34488095Y-185433333D01*
X34630952Y-185385714D01*
X35202380Y-184814285D01*
X35202380Y-185433333D01*
X34202380Y-186052380D02*
X34202380Y-186147619D01*
X34250000Y-186242857D01*
X34297619Y-186290476D01*
X34392857Y-186338095D01*
X34583333Y-186385714D01*
X34821428Y-186385714D01*
X35011904Y-186338095D01*
X35107142Y-186290476D01*
X35154761Y-186242857D01*
X35202380Y-186147619D01*
X35202380Y-186052380D01*
X35154761Y-185957142D01*
X35107142Y-185909523D01*
X35011904Y-185861904D01*
X34821428Y-185814285D01*
X34583333Y-185814285D01*
X34392857Y-185861904D01*
X34297619Y-185909523D01*
X34250000Y-185957142D01*
X34202380Y-186052380D01*
X34202380Y-186719047D02*
X34202380Y-187338095D01*
X34583333Y-187004761D01*
X34583333Y-187147619D01*
X34630952Y-187242857D01*
X34678571Y-187290476D01*
X34773809Y-187338095D01*
X35011904Y-187338095D01*
X35107142Y-187290476D01*
X35154761Y-187242857D01*
X35202380Y-187147619D01*
X35202380Y-186861904D01*
X35154761Y-186766666D01*
X35107142Y-186719047D01*
G04 #@! TO.C,C205*
X34566871Y-178155845D02*
X35138300Y-178155845D01*
X34852586Y-178155845D02*
X34852586Y-177155845D01*
X34947824Y-177298703D01*
X35043062Y-177393941D01*
X35138300Y-177441560D01*
X33947824Y-177155845D02*
X33852586Y-177155845D01*
X33757348Y-177203465D01*
X33709729Y-177251084D01*
X33662110Y-177346322D01*
X33614491Y-177536798D01*
X33614491Y-177774893D01*
X33662110Y-177965369D01*
X33709729Y-178060607D01*
X33757348Y-178108226D01*
X33852586Y-178155845D01*
X33947824Y-178155845D01*
X34043062Y-178108226D01*
X34090681Y-178060607D01*
X34138300Y-177965369D01*
X34185919Y-177774893D01*
X34185919Y-177536798D01*
X34138300Y-177346322D01*
X34090681Y-177251084D01*
X34043062Y-177203465D01*
X33947824Y-177155845D01*
X31995443Y-177489179D02*
X31995443Y-178155845D01*
X32424014Y-177489179D02*
X32424014Y-178012988D01*
X32376395Y-178108226D01*
X32281157Y-178155845D01*
X32138300Y-178155845D01*
X32043062Y-178108226D01*
X31995443Y-178060607D01*
X31185919Y-177632036D02*
X31519252Y-177632036D01*
X31519252Y-178155845D02*
X31519252Y-177155845D01*
X31043062Y-177155845D01*
X34233538Y-181560607D02*
X34281157Y-181608226D01*
X34424014Y-181655845D01*
X34519252Y-181655845D01*
X34662110Y-181608226D01*
X34757348Y-181512988D01*
X34804967Y-181417750D01*
X34852586Y-181227274D01*
X34852586Y-181084417D01*
X34804967Y-180893941D01*
X34757348Y-180798703D01*
X34662110Y-180703465D01*
X34519252Y-180655845D01*
X34424014Y-180655845D01*
X34281157Y-180703465D01*
X34233538Y-180751084D01*
X33852586Y-180751084D02*
X33804967Y-180703465D01*
X33709729Y-180655845D01*
X33471633Y-180655845D01*
X33376395Y-180703465D01*
X33328776Y-180751084D01*
X33281157Y-180846322D01*
X33281157Y-180941560D01*
X33328776Y-181084417D01*
X33900205Y-181655845D01*
X33281157Y-181655845D01*
X32662110Y-180655845D02*
X32566871Y-180655845D01*
X32471633Y-180703465D01*
X32424014Y-180751084D01*
X32376395Y-180846322D01*
X32328776Y-181036798D01*
X32328776Y-181274893D01*
X32376395Y-181465369D01*
X32424014Y-181560607D01*
X32471633Y-181608226D01*
X32566871Y-181655845D01*
X32662110Y-181655845D01*
X32757348Y-181608226D01*
X32804967Y-181560607D01*
X32852586Y-181465369D01*
X32900205Y-181274893D01*
X32900205Y-181036798D01*
X32852586Y-180846322D01*
X32804967Y-180751084D01*
X32757348Y-180703465D01*
X32662110Y-180655845D01*
X31424014Y-180655845D02*
X31900205Y-180655845D01*
X31947824Y-181132036D01*
X31900205Y-181084417D01*
X31804967Y-181036798D01*
X31566871Y-181036798D01*
X31471633Y-181084417D01*
X31424014Y-181132036D01*
X31376395Y-181227274D01*
X31376395Y-181465369D01*
X31424014Y-181560607D01*
X31471633Y-181608226D01*
X31566871Y-181655845D01*
X31804967Y-181655845D01*
X31900205Y-181608226D01*
X31947824Y-181560607D01*
G04 #@! TO.C,C319*
X33002380Y-130597619D02*
X33002380Y-130026190D01*
X33002380Y-130311904D02*
X32002380Y-130311904D01*
X32145238Y-130216666D01*
X32240476Y-130121428D01*
X32288095Y-130026190D01*
X32002380Y-131216666D02*
X32002380Y-131311904D01*
X32050000Y-131407142D01*
X32097619Y-131454761D01*
X32192857Y-131502380D01*
X32383333Y-131550000D01*
X32621428Y-131550000D01*
X32811904Y-131502380D01*
X32907142Y-131454761D01*
X32954761Y-131407142D01*
X33002380Y-131311904D01*
X33002380Y-131216666D01*
X32954761Y-131121428D01*
X32907142Y-131073809D01*
X32811904Y-131026190D01*
X32621428Y-130978571D01*
X32383333Y-130978571D01*
X32192857Y-131026190D01*
X32097619Y-131073809D01*
X32050000Y-131121428D01*
X32002380Y-131216666D01*
X32335714Y-133169047D02*
X33002380Y-133169047D01*
X32335714Y-132740476D02*
X32859523Y-132740476D01*
X32954761Y-132788095D01*
X33002380Y-132883333D01*
X33002380Y-133026190D01*
X32954761Y-133121428D01*
X32907142Y-133169047D01*
X32478571Y-133978571D02*
X32478571Y-133645238D01*
X33002380Y-133645238D02*
X32002380Y-133645238D01*
X32002380Y-134121428D01*
X36407142Y-130930952D02*
X36454761Y-130883333D01*
X36502380Y-130740476D01*
X36502380Y-130645238D01*
X36454761Y-130502380D01*
X36359523Y-130407142D01*
X36264285Y-130359523D01*
X36073809Y-130311904D01*
X35930952Y-130311904D01*
X35740476Y-130359523D01*
X35645238Y-130407142D01*
X35550000Y-130502380D01*
X35502380Y-130645238D01*
X35502380Y-130740476D01*
X35550000Y-130883333D01*
X35597619Y-130930952D01*
X35502380Y-131264285D02*
X35502380Y-131883333D01*
X35883333Y-131550000D01*
X35883333Y-131692857D01*
X35930952Y-131788095D01*
X35978571Y-131835714D01*
X36073809Y-131883333D01*
X36311904Y-131883333D01*
X36407142Y-131835714D01*
X36454761Y-131788095D01*
X36502380Y-131692857D01*
X36502380Y-131407142D01*
X36454761Y-131311904D01*
X36407142Y-131264285D01*
X36502380Y-132835714D02*
X36502380Y-132264285D01*
X36502380Y-132550000D02*
X35502380Y-132550000D01*
X35645238Y-132454761D01*
X35740476Y-132359523D01*
X35788095Y-132264285D01*
X36502380Y-133311904D02*
X36502380Y-133502380D01*
X36454761Y-133597619D01*
X36407142Y-133645238D01*
X36264285Y-133740476D01*
X36073809Y-133788095D01*
X35692857Y-133788095D01*
X35597619Y-133740476D01*
X35550000Y-133692857D01*
X35502380Y-133597619D01*
X35502380Y-133407142D01*
X35550000Y-133311904D01*
X35597619Y-133264285D01*
X35692857Y-133216666D01*
X35930952Y-133216666D01*
X36026190Y-133264285D01*
X36073809Y-133311904D01*
X36121428Y-133407142D01*
X36121428Y-133597619D01*
X36073809Y-133692857D01*
X36026190Y-133740476D01*
X35930952Y-133788095D01*
G04 #@! TO.C,C314*
X33060576Y-138106666D02*
X33060576Y-137535237D01*
X33060576Y-137820951D02*
X32060576Y-137820951D01*
X32203434Y-137725713D01*
X32298672Y-137630475D01*
X32346291Y-137535237D01*
X32060576Y-138725713D02*
X32060576Y-138820951D01*
X32108196Y-138916189D01*
X32155815Y-138963808D01*
X32251053Y-139011427D01*
X32441529Y-139059047D01*
X32679624Y-139059047D01*
X32870100Y-139011427D01*
X32965338Y-138963808D01*
X33012957Y-138916189D01*
X33060576Y-138820951D01*
X33060576Y-138725713D01*
X33012957Y-138630475D01*
X32965338Y-138582856D01*
X32870100Y-138535237D01*
X32679624Y-138487618D01*
X32441529Y-138487618D01*
X32251053Y-138535237D01*
X32155815Y-138582856D01*
X32108196Y-138630475D01*
X32060576Y-138725713D01*
X32393910Y-140678094D02*
X33060576Y-140678094D01*
X32393910Y-140249523D02*
X32917719Y-140249523D01*
X33012957Y-140297142D01*
X33060576Y-140392380D01*
X33060576Y-140535237D01*
X33012957Y-140630475D01*
X32965338Y-140678094D01*
X32536767Y-141487618D02*
X32536767Y-141154285D01*
X33060576Y-141154285D02*
X32060576Y-141154285D01*
X32060576Y-141630475D01*
X36465338Y-138439999D02*
X36512957Y-138392380D01*
X36560576Y-138249523D01*
X36560576Y-138154285D01*
X36512957Y-138011427D01*
X36417719Y-137916189D01*
X36322481Y-137868570D01*
X36132005Y-137820951D01*
X35989148Y-137820951D01*
X35798672Y-137868570D01*
X35703434Y-137916189D01*
X35608196Y-138011427D01*
X35560576Y-138154285D01*
X35560576Y-138249523D01*
X35608196Y-138392380D01*
X35655815Y-138439999D01*
X35560576Y-138773332D02*
X35560576Y-139392380D01*
X35941529Y-139059047D01*
X35941529Y-139201904D01*
X35989148Y-139297142D01*
X36036767Y-139344761D01*
X36132005Y-139392380D01*
X36370100Y-139392380D01*
X36465338Y-139344761D01*
X36512957Y-139297142D01*
X36560576Y-139201904D01*
X36560576Y-138916189D01*
X36512957Y-138820951D01*
X36465338Y-138773332D01*
X36560576Y-140344761D02*
X36560576Y-139773332D01*
X36560576Y-140059047D02*
X35560576Y-140059047D01*
X35703434Y-139963808D01*
X35798672Y-139868570D01*
X35846291Y-139773332D01*
X35893910Y-141201904D02*
X36560576Y-141201904D01*
X35512957Y-140963808D02*
X36227243Y-140725713D01*
X36227243Y-141344761D01*
G04 #@! TO.C,C315*
X35160576Y-138156666D02*
X35160576Y-137585237D01*
X35160576Y-137870951D02*
X34160576Y-137870951D01*
X34303434Y-137775713D01*
X34398672Y-137680475D01*
X34446291Y-137585237D01*
X34160576Y-138775713D02*
X34160576Y-138870951D01*
X34208196Y-138966189D01*
X34255815Y-139013808D01*
X34351053Y-139061427D01*
X34541529Y-139109047D01*
X34779624Y-139109047D01*
X34970100Y-139061427D01*
X35065338Y-139013808D01*
X35112957Y-138966189D01*
X35160576Y-138870951D01*
X35160576Y-138775713D01*
X35112957Y-138680475D01*
X35065338Y-138632856D01*
X34970100Y-138585237D01*
X34779624Y-138537618D01*
X34541529Y-138537618D01*
X34351053Y-138585237D01*
X34255815Y-138632856D01*
X34208196Y-138680475D01*
X34160576Y-138775713D01*
X34493910Y-140728094D02*
X35160576Y-140728094D01*
X34493910Y-140299523D02*
X35017719Y-140299523D01*
X35112957Y-140347142D01*
X35160576Y-140442380D01*
X35160576Y-140585237D01*
X35112957Y-140680475D01*
X35065338Y-140728094D01*
X34636767Y-141537618D02*
X34636767Y-141204285D01*
X35160576Y-141204285D02*
X34160576Y-141204285D01*
X34160576Y-141680475D01*
X38565338Y-138489999D02*
X38612957Y-138442380D01*
X38660576Y-138299523D01*
X38660576Y-138204285D01*
X38612957Y-138061427D01*
X38517719Y-137966189D01*
X38422481Y-137918570D01*
X38232005Y-137870951D01*
X38089148Y-137870951D01*
X37898672Y-137918570D01*
X37803434Y-137966189D01*
X37708196Y-138061427D01*
X37660576Y-138204285D01*
X37660576Y-138299523D01*
X37708196Y-138442380D01*
X37755815Y-138489999D01*
X37660576Y-138823332D02*
X37660576Y-139442380D01*
X38041529Y-139109047D01*
X38041529Y-139251904D01*
X38089148Y-139347142D01*
X38136767Y-139394761D01*
X38232005Y-139442380D01*
X38470100Y-139442380D01*
X38565338Y-139394761D01*
X38612957Y-139347142D01*
X38660576Y-139251904D01*
X38660576Y-138966189D01*
X38612957Y-138870951D01*
X38565338Y-138823332D01*
X38660576Y-140394761D02*
X38660576Y-139823332D01*
X38660576Y-140109047D02*
X37660576Y-140109047D01*
X37803434Y-140013808D01*
X37898672Y-139918570D01*
X37946291Y-139823332D01*
X37660576Y-141299523D02*
X37660576Y-140823332D01*
X38136767Y-140775713D01*
X38089148Y-140823332D01*
X38041529Y-140918570D01*
X38041529Y-141156666D01*
X38089148Y-141251904D01*
X38136767Y-141299523D01*
X38232005Y-141347142D01*
X38470100Y-141347142D01*
X38565338Y-141299523D01*
X38612957Y-141251904D01*
X38660576Y-141156666D01*
X38660576Y-140918570D01*
X38612957Y-140823332D01*
X38565338Y-140775713D01*
G04 #@! TO.C,R311*
X54876190Y-129702380D02*
X55447619Y-129702380D01*
X55161904Y-129702380D02*
X55161904Y-128702380D01*
X55257142Y-128845238D01*
X55352380Y-128940476D01*
X55447619Y-128988095D01*
X54257142Y-128702380D02*
X54161904Y-128702380D01*
X54066666Y-128750000D01*
X54019047Y-128797619D01*
X53971428Y-128892857D01*
X53923809Y-129083333D01*
X53923809Y-129321428D01*
X53971428Y-129511904D01*
X54019047Y-129607142D01*
X54066666Y-129654761D01*
X54161904Y-129702380D01*
X54257142Y-129702380D01*
X54352380Y-129654761D01*
X54400000Y-129607142D01*
X54447619Y-129511904D01*
X54495238Y-129321428D01*
X54495238Y-129083333D01*
X54447619Y-128892857D01*
X54400000Y-128797619D01*
X54352380Y-128750000D01*
X54257142Y-128702380D01*
X53304761Y-128702380D02*
X53209523Y-128702380D01*
X53114285Y-128750000D01*
X53066666Y-128797619D01*
X53019047Y-128892857D01*
X52971428Y-129083333D01*
X52971428Y-129321428D01*
X53019047Y-129511904D01*
X53066666Y-129607142D01*
X53114285Y-129654761D01*
X53209523Y-129702380D01*
X53304761Y-129702380D01*
X53400000Y-129654761D01*
X53447619Y-129607142D01*
X53495238Y-129511904D01*
X53542857Y-129321428D01*
X53542857Y-129083333D01*
X53495238Y-128892857D01*
X53447619Y-128797619D01*
X53400000Y-128750000D01*
X53304761Y-128702380D01*
X52542857Y-129702380D02*
X52542857Y-128702380D01*
X52447619Y-129321428D02*
X52161904Y-129702380D01*
X52161904Y-129035714D02*
X52542857Y-129416666D01*
X50971428Y-129702380D02*
X50971428Y-128702380D01*
X50733333Y-128702380D01*
X50590476Y-128750000D01*
X50495238Y-128845238D01*
X50447619Y-128940476D01*
X50400000Y-129130952D01*
X50400000Y-129273809D01*
X50447619Y-129464285D01*
X50495238Y-129559523D01*
X50590476Y-129654761D01*
X50733333Y-129702380D01*
X50971428Y-129702380D01*
X49971428Y-129702380D02*
X49971428Y-128702380D01*
X49400000Y-129702380D01*
X49400000Y-128702380D01*
X48923809Y-129702380D02*
X48923809Y-128702380D01*
X48542857Y-128702380D01*
X48447619Y-128750000D01*
X48400000Y-128797619D01*
X48352380Y-128892857D01*
X48352380Y-129035714D01*
X48400000Y-129130952D01*
X48447619Y-129178571D01*
X48542857Y-129226190D01*
X48923809Y-129226190D01*
X53019047Y-126902380D02*
X53352380Y-126426190D01*
X53590476Y-126902380D02*
X53590476Y-125902380D01*
X53209523Y-125902380D01*
X53114285Y-125950000D01*
X53066666Y-125997619D01*
X53019047Y-126092857D01*
X53019047Y-126235714D01*
X53066666Y-126330952D01*
X53114285Y-126378571D01*
X53209523Y-126426190D01*
X53590476Y-126426190D01*
X52685714Y-125902380D02*
X52066666Y-125902380D01*
X52400000Y-126283333D01*
X52257142Y-126283333D01*
X52161904Y-126330952D01*
X52114285Y-126378571D01*
X52066666Y-126473809D01*
X52066666Y-126711904D01*
X52114285Y-126807142D01*
X52161904Y-126854761D01*
X52257142Y-126902380D01*
X52542857Y-126902380D01*
X52638095Y-126854761D01*
X52685714Y-126807142D01*
X51114285Y-126902380D02*
X51685714Y-126902380D01*
X51400000Y-126902380D02*
X51400000Y-125902380D01*
X51495238Y-126045238D01*
X51590476Y-126140476D01*
X51685714Y-126188095D01*
X50161904Y-126902380D02*
X50733333Y-126902380D01*
X50447619Y-126902380D02*
X50447619Y-125902380D01*
X50542857Y-126045238D01*
X50638095Y-126140476D01*
X50733333Y-126188095D01*
G04 #@! TO.C,R209*
X33516871Y-175343941D02*
X33516871Y-175962988D01*
X33897824Y-175629655D01*
X33897824Y-175772512D01*
X33945443Y-175867750D01*
X33993062Y-175915369D01*
X34088300Y-175962988D01*
X34326395Y-175962988D01*
X34421633Y-175915369D01*
X34469252Y-175867750D01*
X34516871Y-175772512D01*
X34516871Y-175486798D01*
X34469252Y-175391560D01*
X34421633Y-175343941D01*
X33516871Y-176296322D02*
X33516871Y-176915369D01*
X33897824Y-176582036D01*
X33897824Y-176724893D01*
X33945443Y-176820131D01*
X33993062Y-176867750D01*
X34088300Y-176915369D01*
X34326395Y-176915369D01*
X34421633Y-176867750D01*
X34469252Y-176820131D01*
X34516871Y-176724893D01*
X34516871Y-176439179D01*
X34469252Y-176343941D01*
X34421633Y-176296322D01*
D12*
X32695443Y-175705845D02*
X32504967Y-175572512D01*
X32695443Y-175477274D02*
X32295443Y-175477274D01*
X32295443Y-175629655D01*
X32314491Y-175667750D01*
X32333538Y-175686798D01*
X32371633Y-175705845D01*
X32428776Y-175705845D01*
X32466871Y-175686798D01*
X32485919Y-175667750D01*
X32504967Y-175629655D01*
X32504967Y-175477274D01*
X32333538Y-175858226D02*
X32314491Y-175877274D01*
X32295443Y-175915369D01*
X32295443Y-176010607D01*
X32314491Y-176048703D01*
X32333538Y-176067750D01*
X32371633Y-176086798D01*
X32409729Y-176086798D01*
X32466871Y-176067750D01*
X32695443Y-175839179D01*
X32695443Y-176086798D01*
X32295443Y-176334417D02*
X32295443Y-176372512D01*
X32314491Y-176410607D01*
X32333538Y-176429655D01*
X32371633Y-176448703D01*
X32447824Y-176467750D01*
X32543062Y-176467750D01*
X32619252Y-176448703D01*
X32657348Y-176429655D01*
X32676395Y-176410607D01*
X32695443Y-176372512D01*
X32695443Y-176334417D01*
X32676395Y-176296322D01*
X32657348Y-176277274D01*
X32619252Y-176258226D01*
X32543062Y-176239179D01*
X32447824Y-176239179D01*
X32371633Y-176258226D01*
X32333538Y-176277274D01*
X32314491Y-176296322D01*
X32295443Y-176334417D01*
X32695443Y-176658226D02*
X32695443Y-176734417D01*
X32676395Y-176772512D01*
X32657348Y-176791560D01*
X32600205Y-176829655D01*
X32524014Y-176848703D01*
X32371633Y-176848703D01*
X32333538Y-176829655D01*
X32314491Y-176810607D01*
X32295443Y-176772512D01*
X32295443Y-176696322D01*
X32314491Y-176658226D01*
X32333538Y-176639179D01*
X32371633Y-176620131D01*
X32466871Y-176620131D01*
X32504967Y-176639179D01*
X32524014Y-176658226D01*
X32543062Y-176696322D01*
X32543062Y-176772512D01*
X32524014Y-176810607D01*
X32504967Y-176829655D01*
X32466871Y-176848703D01*
G04 #@! TO.C,R214*
D11*
X30416871Y-171143941D02*
X30416871Y-171762988D01*
X30797824Y-171429655D01*
X30797824Y-171572512D01*
X30845443Y-171667750D01*
X30893062Y-171715369D01*
X30988300Y-171762988D01*
X31226395Y-171762988D01*
X31321633Y-171715369D01*
X31369252Y-171667750D01*
X31416871Y-171572512D01*
X31416871Y-171286798D01*
X31369252Y-171191560D01*
X31321633Y-171143941D01*
X30416871Y-172096322D02*
X30416871Y-172715369D01*
X30797824Y-172382036D01*
X30797824Y-172524893D01*
X30845443Y-172620131D01*
X30893062Y-172667750D01*
X30988300Y-172715369D01*
X31226395Y-172715369D01*
X31321633Y-172667750D01*
X31369252Y-172620131D01*
X31416871Y-172524893D01*
X31416871Y-172239179D01*
X31369252Y-172143941D01*
X31321633Y-172096322D01*
D12*
X32695443Y-171505845D02*
X32504967Y-171372512D01*
X32695443Y-171277274D02*
X32295443Y-171277274D01*
X32295443Y-171429655D01*
X32314491Y-171467750D01*
X32333538Y-171486798D01*
X32371633Y-171505845D01*
X32428776Y-171505845D01*
X32466871Y-171486798D01*
X32485919Y-171467750D01*
X32504967Y-171429655D01*
X32504967Y-171277274D01*
X32333538Y-171658226D02*
X32314491Y-171677274D01*
X32295443Y-171715369D01*
X32295443Y-171810607D01*
X32314491Y-171848703D01*
X32333538Y-171867750D01*
X32371633Y-171886798D01*
X32409729Y-171886798D01*
X32466871Y-171867750D01*
X32695443Y-171639179D01*
X32695443Y-171886798D01*
X32695443Y-172267750D02*
X32695443Y-172039179D01*
X32695443Y-172153465D02*
X32295443Y-172153465D01*
X32352586Y-172115369D01*
X32390681Y-172077274D01*
X32409729Y-172039179D01*
X32428776Y-172610607D02*
X32695443Y-172610607D01*
X32276395Y-172515369D02*
X32562110Y-172420131D01*
X32562110Y-172667750D01*
G04 #@! TO.C,R239*
D11*
X45952380Y-161340476D02*
X45952380Y-161959523D01*
X46333333Y-161626190D01*
X46333333Y-161769047D01*
X46380952Y-161864285D01*
X46428571Y-161911904D01*
X46523809Y-161959523D01*
X46761904Y-161959523D01*
X46857142Y-161911904D01*
X46904761Y-161864285D01*
X46952380Y-161769047D01*
X46952380Y-161483333D01*
X46904761Y-161388095D01*
X46857142Y-161340476D01*
X45952380Y-162292857D02*
X45952380Y-162911904D01*
X46333333Y-162578571D01*
X46333333Y-162721428D01*
X46380952Y-162816666D01*
X46428571Y-162864285D01*
X46523809Y-162911904D01*
X46761904Y-162911904D01*
X46857142Y-162864285D01*
X46904761Y-162816666D01*
X46952380Y-162721428D01*
X46952380Y-162435714D01*
X46904761Y-162340476D01*
X46857142Y-162292857D01*
D12*
X48230952Y-161702380D02*
X48040476Y-161569047D01*
X48230952Y-161473809D02*
X47830952Y-161473809D01*
X47830952Y-161626190D01*
X47850000Y-161664285D01*
X47869047Y-161683333D01*
X47907142Y-161702380D01*
X47964285Y-161702380D01*
X48002380Y-161683333D01*
X48021428Y-161664285D01*
X48040476Y-161626190D01*
X48040476Y-161473809D01*
X47869047Y-161854761D02*
X47850000Y-161873809D01*
X47830952Y-161911904D01*
X47830952Y-162007142D01*
X47850000Y-162045238D01*
X47869047Y-162064285D01*
X47907142Y-162083333D01*
X47945238Y-162083333D01*
X48002380Y-162064285D01*
X48230952Y-161835714D01*
X48230952Y-162083333D01*
X47830952Y-162216666D02*
X47830952Y-162464285D01*
X47983333Y-162330952D01*
X47983333Y-162388095D01*
X48002380Y-162426190D01*
X48021428Y-162445238D01*
X48059523Y-162464285D01*
X48154761Y-162464285D01*
X48192857Y-162445238D01*
X48211904Y-162426190D01*
X48230952Y-162388095D01*
X48230952Y-162273809D01*
X48211904Y-162235714D01*
X48192857Y-162216666D01*
X48230952Y-162654761D02*
X48230952Y-162730952D01*
X48211904Y-162769047D01*
X48192857Y-162788095D01*
X48135714Y-162826190D01*
X48059523Y-162845238D01*
X47907142Y-162845238D01*
X47869047Y-162826190D01*
X47850000Y-162807142D01*
X47830952Y-162769047D01*
X47830952Y-162692857D01*
X47850000Y-162654761D01*
X47869047Y-162635714D01*
X47907142Y-162616666D01*
X48002380Y-162616666D01*
X48040476Y-162635714D01*
X48059523Y-162654761D01*
X48078571Y-162692857D01*
X48078571Y-162769047D01*
X48059523Y-162807142D01*
X48040476Y-162826190D01*
X48002380Y-162845238D01*
G04 #@! TD*
M02*
