%FSLAX45Y45*%
G04 Gerber Fmt 4.5, Leading zero omitted, Abs format (unit mm)*
G04 Created by KiCad (PCBNEW 5.0.1) date Tue 04 Dec 2018 09:14:12 PM EST*
%MOMM*%
%LPD*%
G01*
G04 APERTURE LIST*
%ADD10C,0.152400*%
%ADD11C,0.200000*%
%ADD12C,0.300000*%
G04 APERTURE END LIST*
D10*
X8965000Y-19270000D02*
X2765000Y-19275000D01*
X8965000Y-11375000D02*
X8965000Y-19270000D01*
X2765000Y-11375000D02*
X8965000Y-11375000D01*
X2765000Y-19275000D02*
X2765000Y-11375000D01*
D11*
X2858490Y-14653490D02*
X2891510Y-14686510D01*
X2891510Y-14653490D02*
X2858490Y-14686510D01*
X2903490Y-15098490D02*
X2936510Y-15131510D01*
X2936510Y-15098490D02*
X2903490Y-15131510D01*
X2993490Y-14408490D02*
X3026510Y-14441510D01*
X3026510Y-14408490D02*
X2993490Y-14441510D01*
X3014939Y-18658837D02*
X3047959Y-18691857D01*
X3047959Y-18658837D02*
X3014939Y-18691857D01*
X3218490Y-17803490D02*
X3251510Y-17836510D01*
X3251510Y-17803490D02*
X3218490Y-17836510D01*
X3218490Y-18878490D02*
X3251510Y-18911510D01*
X3251510Y-18878490D02*
X3218490Y-18911510D01*
X3348490Y-16988490D02*
X3381510Y-17021510D01*
X3381510Y-16988490D02*
X3348490Y-17021510D01*
X3413490Y-13063490D02*
X3446510Y-13096510D01*
X3446510Y-13063490D02*
X3413490Y-13096510D01*
X3413490Y-13313490D02*
X3446510Y-13346510D01*
X3446510Y-13313490D02*
X3413490Y-13346510D01*
X3413490Y-13813490D02*
X3446510Y-13846510D01*
X3446510Y-13813490D02*
X3413490Y-13846510D01*
X3433490Y-14253490D02*
X3466510Y-14286510D01*
X3466510Y-14253490D02*
X3433490Y-14286510D01*
X3438490Y-18033490D02*
X3471510Y-18066510D01*
X3471510Y-18033490D02*
X3438490Y-18066510D01*
X3484939Y-17273837D02*
X3517959Y-17306857D01*
X3517959Y-17273837D02*
X3484939Y-17306857D01*
X3498490Y-14188490D02*
X3531510Y-14221510D01*
X3531510Y-14188490D02*
X3498490Y-14221510D01*
X3559273Y-16543490D02*
X3592293Y-16576510D01*
X3592293Y-16543490D02*
X3559273Y-16576510D01*
X3629310Y-14069395D02*
X3662330Y-14102415D01*
X3662330Y-14069395D02*
X3629310Y-14102415D01*
X3718490Y-12768490D02*
X3751510Y-12801510D01*
X3751510Y-12768490D02*
X3718490Y-12801510D01*
X3813490Y-14373490D02*
X3846510Y-14406510D01*
X3846510Y-14373490D02*
X3813490Y-14406510D01*
X3813490Y-14938490D02*
X3846510Y-14971510D01*
X3846510Y-14938490D02*
X3813490Y-14971510D01*
X3813490Y-15534090D02*
X3846510Y-15567110D01*
X3846510Y-15534090D02*
X3813490Y-15567110D01*
X3878490Y-13578490D02*
X3911510Y-13611510D01*
X3911510Y-13578490D02*
X3878490Y-13611510D01*
X3903490Y-16578490D02*
X3936510Y-16611510D01*
X3936510Y-16578490D02*
X3903490Y-16611510D01*
X3993490Y-12993490D02*
X4026510Y-13026510D01*
X4026510Y-12993490D02*
X3993490Y-13026510D01*
X4028490Y-14043490D02*
X4061510Y-14076510D01*
X4061510Y-14043490D02*
X4028490Y-14076510D01*
X4043490Y-14148490D02*
X4076510Y-14181510D01*
X4076510Y-14148490D02*
X4043490Y-14181510D01*
X4108490Y-13743490D02*
X4141510Y-13776510D01*
X4141510Y-13743490D02*
X4108490Y-13776510D01*
X4163490Y-18248490D02*
X4196510Y-18281510D01*
X4196510Y-18248490D02*
X4163490Y-18281510D01*
X4168490Y-16323490D02*
X4201510Y-16356510D01*
X4201510Y-16323490D02*
X4168490Y-16356510D01*
X4184939Y-18633837D02*
X4217959Y-18666857D01*
X4217959Y-18633837D02*
X4184939Y-18666857D01*
X4203490Y-16583490D02*
X4236510Y-16616510D01*
X4236510Y-16583490D02*
X4203490Y-16616510D01*
X4227890Y-15948490D02*
X4260910Y-15981510D01*
X4260910Y-15948490D02*
X4227890Y-15981510D01*
X4354939Y-18633837D02*
X4387959Y-18666857D01*
X4387959Y-18633837D02*
X4354939Y-18666857D01*
X4358490Y-18833490D02*
X4391510Y-18866510D01*
X4391510Y-18833490D02*
X4358490Y-18866510D01*
X4373490Y-18043490D02*
X4406510Y-18076510D01*
X4406510Y-18043490D02*
X4373490Y-18076510D01*
X4463490Y-13713490D02*
X4496510Y-13746510D01*
X4496510Y-13713490D02*
X4463490Y-13746510D01*
X4508490Y-17608490D02*
X4541510Y-17641510D01*
X4541510Y-17608490D02*
X4508490Y-17641510D01*
X4578490Y-12248490D02*
X4611510Y-12281510D01*
X4611510Y-12248490D02*
X4578490Y-12281510D01*
X4603490Y-13108490D02*
X4636510Y-13141510D01*
X4636510Y-13108490D02*
X4603490Y-13141510D01*
X4643490Y-16013490D02*
X4676510Y-16046510D01*
X4676510Y-16013490D02*
X4643490Y-16046510D01*
X4643490Y-16263490D02*
X4676510Y-16296510D01*
X4676510Y-16263490D02*
X4643490Y-16296510D01*
X4748490Y-13508490D02*
X4781510Y-13541510D01*
X4781510Y-13508490D02*
X4748490Y-13541510D01*
X4828490Y-13058490D02*
X4861510Y-13091510D01*
X4861510Y-13058490D02*
X4828490Y-13091510D01*
X4848490Y-18908490D02*
X4881510Y-18941510D01*
X4881510Y-18908490D02*
X4848490Y-18941510D01*
X4854939Y-18035990D02*
X4887959Y-18069010D01*
X4887959Y-18035990D02*
X4854939Y-18069010D01*
X4953490Y-18793490D02*
X4986510Y-18826510D01*
X4986510Y-18793490D02*
X4953490Y-18826510D01*
X4993490Y-15128490D02*
X5026510Y-15161510D01*
X5026510Y-15128490D02*
X4993490Y-15161510D01*
X5013490Y-12753490D02*
X5046510Y-12786510D01*
X5046510Y-12753490D02*
X5013490Y-12786510D01*
X5028490Y-18158490D02*
X5061510Y-18191510D01*
X5061510Y-18158490D02*
X5028490Y-18191510D01*
X5033490Y-17443490D02*
X5066510Y-17476510D01*
X5066510Y-17443490D02*
X5033490Y-17476510D01*
X5033490Y-17943490D02*
X5066510Y-17976510D01*
X5066510Y-17943490D02*
X5033490Y-17976510D01*
X5038490Y-13053490D02*
X5071510Y-13086510D01*
X5071510Y-13053490D02*
X5038490Y-13086510D01*
X5054700Y-16283400D02*
X5087720Y-16316420D01*
X5087720Y-16283400D02*
X5054700Y-16316420D01*
X5093490Y-12858490D02*
X5126510Y-12891510D01*
X5126510Y-12858490D02*
X5093490Y-12891510D01*
X5108490Y-13578490D02*
X5141510Y-13611510D01*
X5141510Y-13578490D02*
X5108490Y-13611510D01*
X5113490Y-12328490D02*
X5146510Y-12361510D01*
X5146510Y-12328490D02*
X5113490Y-12361510D01*
X5183490Y-16988490D02*
X5216510Y-17021510D01*
X5216510Y-16988490D02*
X5183490Y-17021510D01*
X5218490Y-12847918D02*
X5251510Y-12880938D01*
X5251510Y-12847918D02*
X5218490Y-12880938D01*
X5228490Y-18148490D02*
X5261510Y-18181510D01*
X5261510Y-18148490D02*
X5228490Y-18181510D01*
X5273490Y-12763490D02*
X5306510Y-12796510D01*
X5306510Y-12763490D02*
X5273490Y-12796510D01*
X5298490Y-11978490D02*
X5331510Y-12011510D01*
X5331510Y-11978490D02*
X5298490Y-12011510D01*
X5303490Y-12328490D02*
X5336510Y-12361510D01*
X5336510Y-12328490D02*
X5303490Y-12361510D01*
X5303490Y-18403490D02*
X5336510Y-18436510D01*
X5336510Y-18403490D02*
X5303490Y-18436510D01*
X5353490Y-14808490D02*
X5386510Y-14841510D01*
X5386510Y-14808490D02*
X5353490Y-14841510D01*
X5371102Y-12888559D02*
X5404122Y-12921579D01*
X5404122Y-12888559D02*
X5371102Y-12921579D01*
X5373490Y-15883490D02*
X5406510Y-15916510D01*
X5406510Y-15883490D02*
X5373490Y-15916510D01*
X5403490Y-13713490D02*
X5436510Y-13746510D01*
X5436510Y-13713490D02*
X5403490Y-13746510D01*
X5423490Y-17538490D02*
X5456510Y-17571510D01*
X5456510Y-17538490D02*
X5423490Y-17571510D01*
X5433490Y-15558490D02*
X5466510Y-15591510D01*
X5466510Y-15558490D02*
X5433490Y-15591510D01*
X5438490Y-17243490D02*
X5471510Y-17276510D01*
X5471510Y-17243490D02*
X5438490Y-17276510D01*
X5443490Y-18583490D02*
X5476510Y-18616510D01*
X5476510Y-18583490D02*
X5443490Y-18616510D01*
X5453490Y-18748490D02*
X5486510Y-18781510D01*
X5486510Y-18748490D02*
X5453490Y-18781510D01*
X5493490Y-12933490D02*
X5526510Y-12966510D01*
X5526510Y-12933490D02*
X5493490Y-12966510D01*
X5508490Y-13488490D02*
X5541510Y-13521510D01*
X5541510Y-13488490D02*
X5508490Y-13521510D01*
X5513490Y-12773490D02*
X5546510Y-12806510D01*
X5546510Y-12773490D02*
X5513490Y-12806510D01*
X5518490Y-13293490D02*
X5551510Y-13326510D01*
X5551510Y-13293490D02*
X5518490Y-13326510D01*
X5668490Y-12408490D02*
X5701510Y-12441510D01*
X5701510Y-12408490D02*
X5668490Y-12441510D01*
X5694740Y-16429829D02*
X5727760Y-16462849D01*
X5727760Y-16429829D02*
X5694740Y-16462849D01*
X5718490Y-16088490D02*
X5751510Y-16121510D01*
X5751510Y-16088490D02*
X5718490Y-16121510D01*
X5733490Y-15188490D02*
X5766510Y-15221510D01*
X5766510Y-15188490D02*
X5733490Y-15221510D01*
X5818490Y-12128490D02*
X5851510Y-12161510D01*
X5851510Y-12128490D02*
X5818490Y-12161510D01*
X5818490Y-12488490D02*
X5851510Y-12521510D01*
X5851510Y-12488490D02*
X5818490Y-12521510D01*
X5993490Y-17763490D02*
X6026510Y-17796510D01*
X6026510Y-17763490D02*
X5993490Y-17796510D01*
X6023490Y-16543490D02*
X6056510Y-16576510D01*
X6056510Y-16543490D02*
X6023490Y-16576510D01*
X6073490Y-15168490D02*
X6106510Y-15201510D01*
X6106510Y-15168490D02*
X6073490Y-15201510D01*
X6083490Y-15058490D02*
X6116510Y-15091510D01*
X6116510Y-15058490D02*
X6083490Y-15091510D01*
X6143490Y-18433490D02*
X6176510Y-18466510D01*
X6176510Y-18433490D02*
X6143490Y-18466510D01*
X6158490Y-17278490D02*
X6191510Y-17311510D01*
X6191510Y-17278490D02*
X6158490Y-17311510D01*
X6188490Y-17133490D02*
X6221510Y-17166510D01*
X6221510Y-17133490D02*
X6188490Y-17166510D01*
X6198490Y-12328490D02*
X6231510Y-12361510D01*
X6231510Y-12328490D02*
X6198490Y-12361510D01*
X6203020Y-18148490D02*
X6236040Y-18181510D01*
X6236040Y-18148490D02*
X6203020Y-18181510D01*
X6248490Y-17708490D02*
X6281510Y-17741510D01*
X6281510Y-17708490D02*
X6248490Y-17741510D01*
X6253490Y-11848490D02*
X6286510Y-11881510D01*
X6286510Y-11848490D02*
X6253490Y-11881510D01*
X6258490Y-15353490D02*
X6291510Y-15386510D01*
X6291510Y-15353490D02*
X6258490Y-15386510D01*
X6358490Y-12268490D02*
X6391510Y-12301510D01*
X6391510Y-12268490D02*
X6358490Y-12301510D01*
X6358490Y-18038490D02*
X6391510Y-18071510D01*
X6391510Y-18038490D02*
X6358490Y-18071510D01*
X6403490Y-16818490D02*
X6436510Y-16851510D01*
X6436510Y-16818490D02*
X6403490Y-16851510D01*
X6453490Y-17573490D02*
X6486510Y-17606510D01*
X6486510Y-17573490D02*
X6453490Y-17606510D01*
X6603490Y-15553490D02*
X6636510Y-15586510D01*
X6636510Y-15553490D02*
X6603490Y-15586510D01*
X6613490Y-18433490D02*
X6646510Y-18466510D01*
X6646510Y-18433490D02*
X6613490Y-18466510D01*
X6638006Y-15693974D02*
X6671026Y-15726994D01*
X6671026Y-15693974D02*
X6638006Y-15726994D01*
X6638490Y-17483490D02*
X6671510Y-17516510D01*
X6671510Y-17483490D02*
X6638490Y-17516510D01*
X6873490Y-13148490D02*
X6906510Y-13181510D01*
X6906510Y-13148490D02*
X6873490Y-13181510D01*
X6903490Y-17578490D02*
X6936510Y-17611510D01*
X6936510Y-17578490D02*
X6903490Y-17611510D01*
X6938490Y-17903490D02*
X6971510Y-17936510D01*
X6971510Y-17903490D02*
X6938490Y-17936510D01*
X6948490Y-17363490D02*
X6981510Y-17396510D01*
X6981510Y-17363490D02*
X6948490Y-17396510D01*
X6973490Y-11893490D02*
X7006510Y-11926510D01*
X7006510Y-11893490D02*
X6973490Y-11926510D01*
X6998490Y-14358490D02*
X7031510Y-14391510D01*
X7031510Y-14358490D02*
X6998490Y-14391510D01*
X7068490Y-12848490D02*
X7101510Y-12881510D01*
X7101510Y-12848490D02*
X7068490Y-12881510D01*
X7088490Y-12048490D02*
X7121510Y-12081510D01*
X7121510Y-12048490D02*
X7088490Y-12081510D01*
X7088490Y-12348490D02*
X7121510Y-12381510D01*
X7121510Y-12348490D02*
X7088490Y-12381510D01*
X7103490Y-18158490D02*
X7136510Y-18191510D01*
X7136510Y-18158490D02*
X7103490Y-18191510D01*
X7118490Y-16468490D02*
X7151510Y-16501510D01*
X7151510Y-16468490D02*
X7118490Y-16501510D01*
X7138490Y-17363490D02*
X7171510Y-17396510D01*
X7171510Y-17363490D02*
X7138490Y-17396510D01*
X7188490Y-14258490D02*
X7221510Y-14291510D01*
X7221510Y-14258490D02*
X7188490Y-14291510D01*
X7203490Y-14628490D02*
X7236510Y-14661510D01*
X7236510Y-14628490D02*
X7203490Y-14661510D01*
X7208490Y-16618490D02*
X7241510Y-16651510D01*
X7241510Y-16618490D02*
X7208490Y-16651510D01*
X7288490Y-13168490D02*
X7321510Y-13201510D01*
X7321510Y-13168490D02*
X7288490Y-13201510D01*
X7333490Y-18423490D02*
X7366510Y-18456510D01*
X7366510Y-18423490D02*
X7333490Y-18456510D01*
X7363490Y-18578490D02*
X7396510Y-18611510D01*
X7396510Y-18578490D02*
X7363490Y-18611510D01*
X7373490Y-18728490D02*
X7406510Y-18761510D01*
X7406510Y-18728490D02*
X7373490Y-18761510D01*
X7413490Y-16768490D02*
X7446510Y-16801510D01*
X7446510Y-16768490D02*
X7413490Y-16801510D01*
X7428490Y-13423490D02*
X7461510Y-13456510D01*
X7461510Y-13423490D02*
X7428490Y-13456510D01*
X7558490Y-17078490D02*
X7591510Y-17111510D01*
X7591510Y-17078490D02*
X7558490Y-17111510D01*
X7568490Y-14458490D02*
X7601510Y-14491510D01*
X7601510Y-14458490D02*
X7568490Y-14491510D01*
X7608490Y-13328490D02*
X7641510Y-13361510D01*
X7641510Y-13328490D02*
X7608490Y-13361510D01*
X7638490Y-17448490D02*
X7671510Y-17481510D01*
X7671510Y-17448490D02*
X7638490Y-17481510D01*
X7693490Y-15478490D02*
X7726510Y-15511510D01*
X7726510Y-15478490D02*
X7693490Y-15511510D01*
X7713490Y-14628490D02*
X7746510Y-14661510D01*
X7746510Y-14628490D02*
X7713490Y-14661510D01*
X7723490Y-16308490D02*
X7756510Y-16341510D01*
X7756510Y-16308490D02*
X7723490Y-16341510D01*
X7828490Y-16963490D02*
X7861510Y-16996510D01*
X7861510Y-16963490D02*
X7828490Y-16996510D01*
X7923490Y-17453490D02*
X7956510Y-17486510D01*
X7956510Y-17453490D02*
X7923490Y-17486510D01*
X7958490Y-13133490D02*
X7991510Y-13166510D01*
X7991510Y-13133490D02*
X7958490Y-13166510D01*
X7978490Y-16863490D02*
X8011510Y-16896510D01*
X8011510Y-16863490D02*
X7978490Y-16896510D01*
X8158490Y-18008490D02*
X8191510Y-18041510D01*
X8191510Y-18008490D02*
X8158490Y-18041510D01*
X8188490Y-13983490D02*
X8221510Y-14016510D01*
X8221510Y-13983490D02*
X8188490Y-14016510D01*
X8198490Y-12968490D02*
X8231510Y-13001510D01*
X8231510Y-12968490D02*
X8198490Y-13001510D01*
X8248490Y-17028490D02*
X8281510Y-17061510D01*
X8281510Y-17028490D02*
X8248490Y-17061510D01*
X8323490Y-13908490D02*
X8356510Y-13941510D01*
X8356510Y-13908490D02*
X8323490Y-13941510D01*
X8353490Y-14553490D02*
X8386510Y-14586510D01*
X8386510Y-14553490D02*
X8353490Y-14586510D01*
X8373490Y-16093490D02*
X8406510Y-16126510D01*
X8406510Y-16093490D02*
X8373490Y-16126510D01*
X8398490Y-15108490D02*
X8431510Y-15141510D01*
X8431510Y-15108490D02*
X8398490Y-15141510D01*
X8553490Y-15473490D02*
X8586510Y-15506510D01*
X8586510Y-15473490D02*
X8553490Y-15506510D01*
X8573490Y-15658490D02*
X8606510Y-15691510D01*
X8606510Y-15658490D02*
X8573490Y-15691510D01*
X8628490Y-17663490D02*
X8661510Y-17696510D01*
X8661510Y-17663490D02*
X8628490Y-17696510D01*
X8698490Y-15123490D02*
X8731510Y-15156510D01*
X8731510Y-15123490D02*
X8698490Y-15156510D01*
X8823490Y-18583490D02*
X8856510Y-18616510D01*
X8856510Y-18583490D02*
X8823490Y-18616510D01*
X4610000Y-11515000D02*
G75*
G03X4610000Y-11515000I-25000J0D01*
G01*
X4600000Y-11547500D02*
X4600000Y-11482500D01*
X4570000Y-11547500D02*
X4570000Y-11482500D01*
X4600000Y-11482500D02*
G75*
G03X4570000Y-11482500I-15000J0D01*
G01*
X4570000Y-11547500D02*
G75*
G03X4600000Y-11547500I15000J0D01*
G01*
X5310000Y-11515000D02*
G75*
G03X5310000Y-11515000I-25000J0D01*
G01*
X5270000Y-11482500D02*
X5270000Y-11547500D01*
X5300000Y-11482500D02*
X5300000Y-11547500D01*
X5270000Y-11547500D02*
G75*
G03X5300000Y-11547500I15000J0D01*
G01*
X5300000Y-11482500D02*
G75*
G03X5270000Y-11482500I-15000J0D01*
G01*
X4685000Y-11757500D02*
X4685000Y-11812500D01*
X4657500Y-11785000D02*
X4712500Y-11785000D01*
X4700000Y-11767500D02*
X4670000Y-11767500D01*
X4700000Y-11802500D02*
X4670000Y-11802500D01*
X4670000Y-11767500D02*
G75*
G03X4670000Y-11802500I0J-17500D01*
G01*
X4700000Y-11802500D02*
G75*
G03X4700000Y-11767500I0J17500D01*
G01*
X5185000Y-11757500D02*
X5185000Y-11812500D01*
X5157500Y-11785000D02*
X5212500Y-11785000D01*
X5200000Y-11767500D02*
X5170000Y-11767500D01*
X5200000Y-11802500D02*
X5170000Y-11802500D01*
X5170000Y-11767500D02*
G75*
G03X5170000Y-11802500I0J-17500D01*
G01*
X5200000Y-11802500D02*
G75*
G03X5200000Y-11767500I0J17500D01*
G01*
X3703269Y-18452167D02*
X3703269Y-18388526D01*
X3639629Y-18388526D01*
X3639629Y-18452167D01*
X3703269Y-18452167D01*
X3703269Y-18706167D02*
X3703269Y-18642526D01*
X3639629Y-18642526D01*
X3639629Y-18706167D01*
X3703269Y-18706167D01*
X7720000Y-11720000D02*
X7770000Y-11670000D01*
X7720000Y-11620000D01*
X7670000Y-11670000D01*
X7720000Y-11720000D01*
X7974000Y-11720000D02*
X8024000Y-11670000D01*
X7974000Y-11620000D01*
X7924000Y-11670000D01*
X7974000Y-11720000D01*
X6110000Y-14292000D02*
X6160000Y-14242000D01*
X6110000Y-14192000D01*
X6060000Y-14242000D01*
X6110000Y-14292000D01*
X6110000Y-14546000D02*
X6160000Y-14496000D01*
X6110000Y-14446000D01*
X6060000Y-14496000D01*
X6110000Y-14546000D01*
X6110000Y-14800000D02*
X6160000Y-14750000D01*
X6110000Y-14700000D01*
X6060000Y-14750000D01*
X6110000Y-14800000D01*
X8645000Y-16265000D02*
X8695000Y-16215000D01*
X8645000Y-16165000D01*
X8595000Y-16215000D01*
X8645000Y-16265000D01*
X8645000Y-16519000D02*
X8695000Y-16469000D01*
X8645000Y-16419000D01*
X8595000Y-16469000D01*
X8645000Y-16519000D01*
X8645000Y-16773000D02*
X8695000Y-16723000D01*
X8645000Y-16673000D01*
X8595000Y-16723000D01*
X8645000Y-16773000D01*
X4021000Y-12315000D02*
X4071000Y-12265000D01*
X4021000Y-12215000D01*
X3971000Y-12265000D01*
X4021000Y-12315000D01*
X4021000Y-12569000D02*
X4071000Y-12519000D01*
X4021000Y-12469000D01*
X3971000Y-12519000D01*
X4021000Y-12569000D01*
X4275000Y-12315000D02*
X4325000Y-12265000D01*
X4275000Y-12215000D01*
X4225000Y-12265000D01*
X4275000Y-12315000D01*
X4275000Y-12569000D02*
X4325000Y-12519000D01*
X4275000Y-12469000D01*
X4225000Y-12519000D01*
X4275000Y-12569000D01*
D12*
X3043808Y-19748334D02*
X3043808Y-19448334D01*
X3115237Y-19448334D01*
X3158094Y-19462620D01*
X3186666Y-19491192D01*
X3200951Y-19519763D01*
X3215237Y-19576906D01*
X3215237Y-19619763D01*
X3200951Y-19676906D01*
X3186666Y-19705477D01*
X3158094Y-19734049D01*
X3115237Y-19748334D01*
X3043808Y-19748334D01*
X3343808Y-19748334D02*
X3343808Y-19548334D01*
X3343808Y-19605477D02*
X3358094Y-19576906D01*
X3372380Y-19562620D01*
X3400951Y-19548334D01*
X3429523Y-19548334D01*
X3529523Y-19748334D02*
X3529523Y-19548334D01*
X3529523Y-19448334D02*
X3515237Y-19462620D01*
X3529523Y-19476906D01*
X3543808Y-19462620D01*
X3529523Y-19448334D01*
X3529523Y-19476906D01*
X3715237Y-19748334D02*
X3686666Y-19734049D01*
X3672380Y-19705477D01*
X3672380Y-19448334D01*
X3872380Y-19748334D02*
X3843808Y-19734049D01*
X3829523Y-19705477D01*
X3829523Y-19448334D01*
X4215237Y-19748334D02*
X4215237Y-19448334D01*
X4315237Y-19662620D01*
X4415237Y-19448334D01*
X4415237Y-19748334D01*
X4686666Y-19748334D02*
X4686666Y-19591192D01*
X4672380Y-19562620D01*
X4643808Y-19548334D01*
X4586666Y-19548334D01*
X4558094Y-19562620D01*
X4686666Y-19734049D02*
X4658094Y-19748334D01*
X4586666Y-19748334D01*
X4558094Y-19734049D01*
X4543808Y-19705477D01*
X4543808Y-19676906D01*
X4558094Y-19648334D01*
X4586666Y-19634049D01*
X4658094Y-19634049D01*
X4686666Y-19619763D01*
X4829523Y-19548334D02*
X4829523Y-19848334D01*
X4829523Y-19562620D02*
X4858094Y-19548334D01*
X4915237Y-19548334D01*
X4943808Y-19562620D01*
X4958094Y-19576906D01*
X4972380Y-19605477D01*
X4972380Y-19691192D01*
X4958094Y-19719763D01*
X4943808Y-19734049D01*
X4915237Y-19748334D01*
X4858094Y-19748334D01*
X4829523Y-19734049D01*
X5100951Y-19719763D02*
X5115237Y-19734049D01*
X5100951Y-19748334D01*
X5086666Y-19734049D01*
X5100951Y-19719763D01*
X5100951Y-19748334D01*
X5100951Y-19562620D02*
X5115237Y-19576906D01*
X5100951Y-19591192D01*
X5086666Y-19576906D01*
X5100951Y-19562620D01*
X5100951Y-19591192D01*
X2724360Y-20226110D02*
X2757380Y-20259130D01*
X2757380Y-20226110D02*
X2724360Y-20259130D01*
X3100951Y-20078334D02*
X3129523Y-20078334D01*
X3158094Y-20092620D01*
X3172380Y-20106906D01*
X3186666Y-20135477D01*
X3200951Y-20192620D01*
X3200951Y-20264049D01*
X3186666Y-20321192D01*
X3172380Y-20349763D01*
X3158094Y-20364049D01*
X3129523Y-20378334D01*
X3100951Y-20378334D01*
X3072380Y-20364049D01*
X3058094Y-20349763D01*
X3043808Y-20321192D01*
X3029523Y-20264049D01*
X3029523Y-20192620D01*
X3043808Y-20135477D01*
X3058094Y-20106906D01*
X3072380Y-20092620D01*
X3100951Y-20078334D01*
X3329523Y-20349763D02*
X3343808Y-20364049D01*
X3329523Y-20378334D01*
X3315237Y-20364049D01*
X3329523Y-20349763D01*
X3329523Y-20378334D01*
X3443808Y-20078334D02*
X3629523Y-20078334D01*
X3529523Y-20192620D01*
X3572380Y-20192620D01*
X3600951Y-20206906D01*
X3615237Y-20221192D01*
X3629523Y-20249763D01*
X3629523Y-20321192D01*
X3615237Y-20349763D01*
X3600951Y-20364049D01*
X3572380Y-20378334D01*
X3486666Y-20378334D01*
X3458094Y-20364049D01*
X3443808Y-20349763D01*
X3729523Y-20078334D02*
X3915237Y-20078334D01*
X3815237Y-20192620D01*
X3858094Y-20192620D01*
X3886666Y-20206906D01*
X3900951Y-20221192D01*
X3915237Y-20249763D01*
X3915237Y-20321192D01*
X3900951Y-20349763D01*
X3886666Y-20364049D01*
X3858094Y-20378334D01*
X3772380Y-20378334D01*
X3743808Y-20364049D01*
X3729523Y-20349763D01*
X4043808Y-20378334D02*
X4043808Y-20178334D01*
X4043808Y-20206906D02*
X4058094Y-20192620D01*
X4086666Y-20178334D01*
X4129523Y-20178334D01*
X4158094Y-20192620D01*
X4172380Y-20221192D01*
X4172380Y-20378334D01*
X4172380Y-20221192D02*
X4186666Y-20192620D01*
X4215237Y-20178334D01*
X4258094Y-20178334D01*
X4286666Y-20192620D01*
X4300951Y-20221192D01*
X4300951Y-20378334D01*
X4443808Y-20378334D02*
X4443808Y-20178334D01*
X4443808Y-20206906D02*
X4458094Y-20192620D01*
X4486666Y-20178334D01*
X4529523Y-20178334D01*
X4558094Y-20192620D01*
X4572380Y-20221192D01*
X4572380Y-20378334D01*
X4572380Y-20221192D02*
X4586666Y-20192620D01*
X4615237Y-20178334D01*
X4658094Y-20178334D01*
X4686666Y-20192620D01*
X4700951Y-20221192D01*
X4700951Y-20378334D01*
X5286666Y-20064049D02*
X5029523Y-20449763D01*
X5672380Y-20078334D02*
X5700951Y-20078334D01*
X5729523Y-20092620D01*
X5743808Y-20106906D01*
X5758094Y-20135477D01*
X5772380Y-20192620D01*
X5772380Y-20264049D01*
X5758094Y-20321192D01*
X5743808Y-20349763D01*
X5729523Y-20364049D01*
X5700951Y-20378334D01*
X5672380Y-20378334D01*
X5643808Y-20364049D01*
X5629523Y-20349763D01*
X5615237Y-20321192D01*
X5600951Y-20264049D01*
X5600951Y-20192620D01*
X5615237Y-20135477D01*
X5629523Y-20106906D01*
X5643808Y-20092620D01*
X5672380Y-20078334D01*
X5900951Y-20349763D02*
X5915237Y-20364049D01*
X5900951Y-20378334D01*
X5886666Y-20364049D01*
X5900951Y-20349763D01*
X5900951Y-20378334D01*
X6100951Y-20078334D02*
X6129523Y-20078334D01*
X6158094Y-20092620D01*
X6172380Y-20106906D01*
X6186666Y-20135477D01*
X6200951Y-20192620D01*
X6200951Y-20264049D01*
X6186666Y-20321192D01*
X6172380Y-20349763D01*
X6158094Y-20364049D01*
X6129523Y-20378334D01*
X6100951Y-20378334D01*
X6072380Y-20364049D01*
X6058094Y-20349763D01*
X6043808Y-20321192D01*
X6029523Y-20264049D01*
X6029523Y-20192620D01*
X6043808Y-20135477D01*
X6058094Y-20106906D01*
X6072380Y-20092620D01*
X6100951Y-20078334D01*
X6486666Y-20378334D02*
X6315237Y-20378334D01*
X6400951Y-20378334D02*
X6400951Y-20078334D01*
X6372380Y-20121192D01*
X6343808Y-20149763D01*
X6315237Y-20164049D01*
X6586666Y-20078334D02*
X6772380Y-20078334D01*
X6672380Y-20192620D01*
X6715237Y-20192620D01*
X6743808Y-20206906D01*
X6758094Y-20221192D01*
X6772380Y-20249763D01*
X6772380Y-20321192D01*
X6758094Y-20349763D01*
X6743808Y-20364049D01*
X6715237Y-20378334D01*
X6629523Y-20378334D01*
X6600951Y-20364049D01*
X6586666Y-20349763D01*
X6886666Y-20078334D02*
X6886666Y-20135477D01*
X7000951Y-20078334D02*
X7000951Y-20135477D01*
X7443808Y-20492620D02*
X7429523Y-20478334D01*
X7400951Y-20435477D01*
X7386666Y-20406906D01*
X7372380Y-20364049D01*
X7358094Y-20292620D01*
X7358094Y-20235477D01*
X7372380Y-20164049D01*
X7386666Y-20121192D01*
X7400951Y-20092620D01*
X7429523Y-20049763D01*
X7443808Y-20035477D01*
X7715237Y-20378334D02*
X7543808Y-20378334D01*
X7629523Y-20378334D02*
X7629523Y-20078334D01*
X7600951Y-20121192D01*
X7572380Y-20149763D01*
X7543808Y-20164049D01*
X7972380Y-20178334D02*
X7972380Y-20378334D01*
X7900951Y-20064049D02*
X7829523Y-20278334D01*
X8015237Y-20278334D01*
X8258094Y-20078334D02*
X8200951Y-20078334D01*
X8172380Y-20092620D01*
X8158094Y-20106906D01*
X8129523Y-20149763D01*
X8115237Y-20206906D01*
X8115237Y-20321192D01*
X8129523Y-20349763D01*
X8143808Y-20364049D01*
X8172380Y-20378334D01*
X8229523Y-20378334D01*
X8258094Y-20364049D01*
X8272380Y-20349763D01*
X8286666Y-20321192D01*
X8286666Y-20249763D01*
X8272380Y-20221192D01*
X8258094Y-20206906D01*
X8229523Y-20192620D01*
X8172380Y-20192620D01*
X8143808Y-20206906D01*
X8129523Y-20221192D01*
X8115237Y-20249763D01*
X8643808Y-20378334D02*
X8643808Y-20078334D01*
X8772380Y-20378334D02*
X8772380Y-20221192D01*
X8758094Y-20192620D01*
X8729523Y-20178334D01*
X8686666Y-20178334D01*
X8658094Y-20192620D01*
X8643808Y-20206906D01*
X8958094Y-20378334D02*
X8929523Y-20364049D01*
X8915237Y-20349763D01*
X8900951Y-20321192D01*
X8900951Y-20235477D01*
X8915237Y-20206906D01*
X8929523Y-20192620D01*
X8958094Y-20178334D01*
X9000951Y-20178334D01*
X9029523Y-20192620D01*
X9043808Y-20206906D01*
X9058094Y-20235477D01*
X9058094Y-20321192D01*
X9043808Y-20349763D01*
X9029523Y-20364049D01*
X9000951Y-20378334D01*
X8958094Y-20378334D01*
X9229523Y-20378334D02*
X9200951Y-20364049D01*
X9186666Y-20335477D01*
X9186666Y-20078334D01*
X9458094Y-20364049D02*
X9429523Y-20378334D01*
X9372380Y-20378334D01*
X9343808Y-20364049D01*
X9329523Y-20335477D01*
X9329523Y-20221192D01*
X9343808Y-20192620D01*
X9372380Y-20178334D01*
X9429523Y-20178334D01*
X9458094Y-20192620D01*
X9472380Y-20221192D01*
X9472380Y-20249763D01*
X9329523Y-20278334D01*
X9586666Y-20364049D02*
X9615237Y-20378334D01*
X9672380Y-20378334D01*
X9700951Y-20364049D01*
X9715237Y-20335477D01*
X9715237Y-20321192D01*
X9700951Y-20292620D01*
X9672380Y-20278334D01*
X9629523Y-20278334D01*
X9600951Y-20264049D01*
X9586666Y-20235477D01*
X9586666Y-20221192D01*
X9600951Y-20192620D01*
X9629523Y-20178334D01*
X9672380Y-20178334D01*
X9700951Y-20192620D01*
X9815237Y-20492620D02*
X9829523Y-20478334D01*
X9858094Y-20435477D01*
X9872380Y-20406906D01*
X9886666Y-20364049D01*
X9900951Y-20292620D01*
X9900951Y-20235477D01*
X9886666Y-20164049D01*
X9872380Y-20121192D01*
X9858094Y-20092620D01*
X9829523Y-20049763D01*
X9815237Y-20035477D01*
X2757380Y-20638620D02*
G75*
G03X2757380Y-20638620I-25000J0D01*
G01*
X3100951Y-20474334D02*
X3129523Y-20474334D01*
X3158094Y-20488620D01*
X3172380Y-20502906D01*
X3186666Y-20531477D01*
X3200951Y-20588620D01*
X3200951Y-20660049D01*
X3186666Y-20717192D01*
X3172380Y-20745763D01*
X3158094Y-20760049D01*
X3129523Y-20774334D01*
X3100951Y-20774334D01*
X3072380Y-20760049D01*
X3058094Y-20745763D01*
X3043808Y-20717192D01*
X3029523Y-20660049D01*
X3029523Y-20588620D01*
X3043808Y-20531477D01*
X3058094Y-20502906D01*
X3072380Y-20488620D01*
X3100951Y-20474334D01*
X3329523Y-20745763D02*
X3343808Y-20760049D01*
X3329523Y-20774334D01*
X3315237Y-20760049D01*
X3329523Y-20745763D01*
X3329523Y-20774334D01*
X3615237Y-20474334D02*
X3472380Y-20474334D01*
X3458094Y-20617192D01*
X3472380Y-20602906D01*
X3500951Y-20588620D01*
X3572380Y-20588620D01*
X3600951Y-20602906D01*
X3615237Y-20617192D01*
X3629523Y-20645763D01*
X3629523Y-20717192D01*
X3615237Y-20745763D01*
X3600951Y-20760049D01*
X3572380Y-20774334D01*
X3500951Y-20774334D01*
X3472380Y-20760049D01*
X3458094Y-20745763D01*
X3815237Y-20474334D02*
X3843808Y-20474334D01*
X3872380Y-20488620D01*
X3886666Y-20502906D01*
X3900951Y-20531477D01*
X3915237Y-20588620D01*
X3915237Y-20660049D01*
X3900951Y-20717192D01*
X3886666Y-20745763D01*
X3872380Y-20760049D01*
X3843808Y-20774334D01*
X3815237Y-20774334D01*
X3786666Y-20760049D01*
X3772380Y-20745763D01*
X3758094Y-20717192D01*
X3743808Y-20660049D01*
X3743808Y-20588620D01*
X3758094Y-20531477D01*
X3772380Y-20502906D01*
X3786666Y-20488620D01*
X3815237Y-20474334D01*
X4043808Y-20774334D02*
X4043808Y-20574334D01*
X4043808Y-20602906D02*
X4058094Y-20588620D01*
X4086666Y-20574334D01*
X4129523Y-20574334D01*
X4158094Y-20588620D01*
X4172380Y-20617192D01*
X4172380Y-20774334D01*
X4172380Y-20617192D02*
X4186666Y-20588620D01*
X4215237Y-20574334D01*
X4258094Y-20574334D01*
X4286666Y-20588620D01*
X4300951Y-20617192D01*
X4300951Y-20774334D01*
X4443808Y-20774334D02*
X4443808Y-20574334D01*
X4443808Y-20602906D02*
X4458094Y-20588620D01*
X4486666Y-20574334D01*
X4529523Y-20574334D01*
X4558094Y-20588620D01*
X4572380Y-20617192D01*
X4572380Y-20774334D01*
X4572380Y-20617192D02*
X4586666Y-20588620D01*
X4615237Y-20574334D01*
X4658094Y-20574334D01*
X4686666Y-20588620D01*
X4700951Y-20617192D01*
X4700951Y-20774334D01*
X5286666Y-20460049D02*
X5029523Y-20845763D01*
X5672380Y-20474334D02*
X5700951Y-20474334D01*
X5729523Y-20488620D01*
X5743808Y-20502906D01*
X5758094Y-20531477D01*
X5772380Y-20588620D01*
X5772380Y-20660049D01*
X5758094Y-20717192D01*
X5743808Y-20745763D01*
X5729523Y-20760049D01*
X5700951Y-20774334D01*
X5672380Y-20774334D01*
X5643808Y-20760049D01*
X5629523Y-20745763D01*
X5615237Y-20717192D01*
X5600951Y-20660049D01*
X5600951Y-20588620D01*
X5615237Y-20531477D01*
X5629523Y-20502906D01*
X5643808Y-20488620D01*
X5672380Y-20474334D01*
X5900951Y-20745763D02*
X5915237Y-20760049D01*
X5900951Y-20774334D01*
X5886666Y-20760049D01*
X5900951Y-20745763D01*
X5900951Y-20774334D01*
X6100951Y-20474334D02*
X6129523Y-20474334D01*
X6158094Y-20488620D01*
X6172380Y-20502906D01*
X6186666Y-20531477D01*
X6200951Y-20588620D01*
X6200951Y-20660049D01*
X6186666Y-20717192D01*
X6172380Y-20745763D01*
X6158094Y-20760049D01*
X6129523Y-20774334D01*
X6100951Y-20774334D01*
X6072380Y-20760049D01*
X6058094Y-20745763D01*
X6043808Y-20717192D01*
X6029523Y-20660049D01*
X6029523Y-20588620D01*
X6043808Y-20531477D01*
X6058094Y-20502906D01*
X6072380Y-20488620D01*
X6100951Y-20474334D01*
X6315237Y-20502906D02*
X6329523Y-20488620D01*
X6358094Y-20474334D01*
X6429523Y-20474334D01*
X6458094Y-20488620D01*
X6472380Y-20502906D01*
X6486666Y-20531477D01*
X6486666Y-20560049D01*
X6472380Y-20602906D01*
X6300951Y-20774334D01*
X6486666Y-20774334D01*
X6672380Y-20474334D02*
X6700951Y-20474334D01*
X6729523Y-20488620D01*
X6743808Y-20502906D01*
X6758094Y-20531477D01*
X6772380Y-20588620D01*
X6772380Y-20660049D01*
X6758094Y-20717192D01*
X6743808Y-20745763D01*
X6729523Y-20760049D01*
X6700951Y-20774334D01*
X6672380Y-20774334D01*
X6643808Y-20760049D01*
X6629523Y-20745763D01*
X6615237Y-20717192D01*
X6600951Y-20660049D01*
X6600951Y-20588620D01*
X6615237Y-20531477D01*
X6629523Y-20502906D01*
X6643808Y-20488620D01*
X6672380Y-20474334D01*
X6886666Y-20474334D02*
X6886666Y-20531477D01*
X7000951Y-20474334D02*
X7000951Y-20531477D01*
X7443808Y-20888620D02*
X7429523Y-20874334D01*
X7400951Y-20831477D01*
X7386666Y-20802906D01*
X7372380Y-20760049D01*
X7358094Y-20688620D01*
X7358094Y-20631477D01*
X7372380Y-20560049D01*
X7386666Y-20517192D01*
X7400951Y-20488620D01*
X7429523Y-20445763D01*
X7443808Y-20431477D01*
X7615237Y-20474334D02*
X7643808Y-20474334D01*
X7672380Y-20488620D01*
X7686666Y-20502906D01*
X7700951Y-20531477D01*
X7715237Y-20588620D01*
X7715237Y-20660049D01*
X7700951Y-20717192D01*
X7686666Y-20745763D01*
X7672380Y-20760049D01*
X7643808Y-20774334D01*
X7615237Y-20774334D01*
X7586666Y-20760049D01*
X7572380Y-20745763D01*
X7558094Y-20717192D01*
X7543808Y-20660049D01*
X7543808Y-20588620D01*
X7558094Y-20531477D01*
X7572380Y-20502906D01*
X7586666Y-20488620D01*
X7615237Y-20474334D01*
X8072380Y-20774334D02*
X8072380Y-20474334D01*
X8200951Y-20774334D02*
X8200951Y-20617192D01*
X8186666Y-20588620D01*
X8158094Y-20574334D01*
X8115237Y-20574334D01*
X8086666Y-20588620D01*
X8072380Y-20602906D01*
X8386666Y-20774334D02*
X8358094Y-20760049D01*
X8343808Y-20745763D01*
X8329523Y-20717192D01*
X8329523Y-20631477D01*
X8343808Y-20602906D01*
X8358094Y-20588620D01*
X8386666Y-20574334D01*
X8429523Y-20574334D01*
X8458094Y-20588620D01*
X8472380Y-20602906D01*
X8486666Y-20631477D01*
X8486666Y-20717192D01*
X8472380Y-20745763D01*
X8458094Y-20760049D01*
X8429523Y-20774334D01*
X8386666Y-20774334D01*
X8658094Y-20774334D02*
X8629523Y-20760049D01*
X8615237Y-20731477D01*
X8615237Y-20474334D01*
X8886666Y-20760049D02*
X8858094Y-20774334D01*
X8800951Y-20774334D01*
X8772380Y-20760049D01*
X8758094Y-20731477D01*
X8758094Y-20617192D01*
X8772380Y-20588620D01*
X8800951Y-20574334D01*
X8858094Y-20574334D01*
X8886666Y-20588620D01*
X8900951Y-20617192D01*
X8900951Y-20645763D01*
X8758094Y-20674334D01*
X9015237Y-20760049D02*
X9043808Y-20774334D01*
X9100951Y-20774334D01*
X9129523Y-20760049D01*
X9143808Y-20731477D01*
X9143808Y-20717192D01*
X9129523Y-20688620D01*
X9100951Y-20674334D01*
X9058094Y-20674334D01*
X9029523Y-20660049D01*
X9015237Y-20631477D01*
X9015237Y-20617192D01*
X9029523Y-20588620D01*
X9058094Y-20574334D01*
X9100951Y-20574334D01*
X9129523Y-20588620D01*
X9500951Y-20660049D02*
X9729523Y-20660049D01*
X9615237Y-20774334D02*
X9615237Y-20545763D01*
X10086666Y-20502906D02*
X10100951Y-20488620D01*
X10129523Y-20474334D01*
X10200951Y-20474334D01*
X10229523Y-20488620D01*
X10243808Y-20502906D01*
X10258094Y-20531477D01*
X10258094Y-20560049D01*
X10243808Y-20602906D01*
X10072380Y-20774334D01*
X10258094Y-20774334D01*
X10600951Y-20760049D02*
X10629523Y-20774334D01*
X10686666Y-20774334D01*
X10715237Y-20760049D01*
X10729523Y-20731477D01*
X10729523Y-20717192D01*
X10715237Y-20688620D01*
X10686666Y-20674334D01*
X10643808Y-20674334D01*
X10615237Y-20660049D01*
X10600951Y-20631477D01*
X10600951Y-20617192D01*
X10615237Y-20588620D01*
X10643808Y-20574334D01*
X10686666Y-20574334D01*
X10715237Y-20588620D01*
X10900951Y-20774334D02*
X10872380Y-20760049D01*
X10858094Y-20731477D01*
X10858094Y-20474334D01*
X11058094Y-20774334D02*
X11029523Y-20760049D01*
X11015237Y-20745763D01*
X11000951Y-20717192D01*
X11000951Y-20631477D01*
X11015237Y-20602906D01*
X11029523Y-20588620D01*
X11058094Y-20574334D01*
X11100951Y-20574334D01*
X11129523Y-20588620D01*
X11143808Y-20602906D01*
X11158094Y-20631477D01*
X11158094Y-20717192D01*
X11143808Y-20745763D01*
X11129523Y-20760049D01*
X11100951Y-20774334D01*
X11058094Y-20774334D01*
X11243808Y-20574334D02*
X11358094Y-20574334D01*
X11286666Y-20474334D02*
X11286666Y-20731477D01*
X11300951Y-20760049D01*
X11329523Y-20774334D01*
X11358094Y-20774334D01*
X11443808Y-20760049D02*
X11472380Y-20774334D01*
X11529523Y-20774334D01*
X11558094Y-20760049D01*
X11572380Y-20731477D01*
X11572380Y-20717192D01*
X11558094Y-20688620D01*
X11529523Y-20674334D01*
X11486666Y-20674334D01*
X11458094Y-20660049D01*
X11443808Y-20631477D01*
X11443808Y-20617192D01*
X11458094Y-20588620D01*
X11486666Y-20574334D01*
X11529523Y-20574334D01*
X11558094Y-20588620D01*
X11672380Y-20888620D02*
X11686666Y-20874334D01*
X11715237Y-20831477D01*
X11729523Y-20802906D01*
X11743808Y-20760049D01*
X11758094Y-20688620D01*
X11758094Y-20631477D01*
X11743808Y-20560049D01*
X11729523Y-20517192D01*
X11715237Y-20488620D01*
X11686666Y-20445763D01*
X11672380Y-20431477D01*
X2729880Y-21007120D02*
X2729880Y-21062120D01*
X2702380Y-21034620D02*
X2757380Y-21034620D01*
X3100951Y-20870334D02*
X3129523Y-20870334D01*
X3158094Y-20884620D01*
X3172380Y-20898906D01*
X3186666Y-20927477D01*
X3200951Y-20984620D01*
X3200951Y-21056049D01*
X3186666Y-21113192D01*
X3172380Y-21141763D01*
X3158094Y-21156049D01*
X3129523Y-21170334D01*
X3100951Y-21170334D01*
X3072380Y-21156049D01*
X3058094Y-21141763D01*
X3043808Y-21113192D01*
X3029523Y-21056049D01*
X3029523Y-20984620D01*
X3043808Y-20927477D01*
X3058094Y-20898906D01*
X3072380Y-20884620D01*
X3100951Y-20870334D01*
X3329523Y-21141763D02*
X3343808Y-21156049D01*
X3329523Y-21170334D01*
X3315237Y-21156049D01*
X3329523Y-21141763D01*
X3329523Y-21170334D01*
X3615237Y-20870334D02*
X3472380Y-20870334D01*
X3458094Y-21013192D01*
X3472380Y-20998906D01*
X3500951Y-20984620D01*
X3572380Y-20984620D01*
X3600951Y-20998906D01*
X3615237Y-21013192D01*
X3629523Y-21041763D01*
X3629523Y-21113192D01*
X3615237Y-21141763D01*
X3600951Y-21156049D01*
X3572380Y-21170334D01*
X3500951Y-21170334D01*
X3472380Y-21156049D01*
X3458094Y-21141763D01*
X3900951Y-20870334D02*
X3758094Y-20870334D01*
X3743808Y-21013192D01*
X3758094Y-20998906D01*
X3786666Y-20984620D01*
X3858094Y-20984620D01*
X3886666Y-20998906D01*
X3900951Y-21013192D01*
X3915237Y-21041763D01*
X3915237Y-21113192D01*
X3900951Y-21141763D01*
X3886666Y-21156049D01*
X3858094Y-21170334D01*
X3786666Y-21170334D01*
X3758094Y-21156049D01*
X3743808Y-21141763D01*
X4043808Y-21170334D02*
X4043808Y-20970334D01*
X4043808Y-20998906D02*
X4058094Y-20984620D01*
X4086666Y-20970334D01*
X4129523Y-20970334D01*
X4158094Y-20984620D01*
X4172380Y-21013192D01*
X4172380Y-21170334D01*
X4172380Y-21013192D02*
X4186666Y-20984620D01*
X4215237Y-20970334D01*
X4258094Y-20970334D01*
X4286666Y-20984620D01*
X4300951Y-21013192D01*
X4300951Y-21170334D01*
X4443808Y-21170334D02*
X4443808Y-20970334D01*
X4443808Y-20998906D02*
X4458094Y-20984620D01*
X4486666Y-20970334D01*
X4529523Y-20970334D01*
X4558094Y-20984620D01*
X4572380Y-21013192D01*
X4572380Y-21170334D01*
X4572380Y-21013192D02*
X4586666Y-20984620D01*
X4615237Y-20970334D01*
X4658094Y-20970334D01*
X4686666Y-20984620D01*
X4700951Y-21013192D01*
X4700951Y-21170334D01*
X5286666Y-20856049D02*
X5029523Y-21241763D01*
X5672380Y-20870334D02*
X5700951Y-20870334D01*
X5729523Y-20884620D01*
X5743808Y-20898906D01*
X5758094Y-20927477D01*
X5772380Y-20984620D01*
X5772380Y-21056049D01*
X5758094Y-21113192D01*
X5743808Y-21141763D01*
X5729523Y-21156049D01*
X5700951Y-21170334D01*
X5672380Y-21170334D01*
X5643808Y-21156049D01*
X5629523Y-21141763D01*
X5615237Y-21113192D01*
X5600951Y-21056049D01*
X5600951Y-20984620D01*
X5615237Y-20927477D01*
X5629523Y-20898906D01*
X5643808Y-20884620D01*
X5672380Y-20870334D01*
X5900951Y-21141763D02*
X5915237Y-21156049D01*
X5900951Y-21170334D01*
X5886666Y-21156049D01*
X5900951Y-21141763D01*
X5900951Y-21170334D01*
X6100951Y-20870334D02*
X6129523Y-20870334D01*
X6158094Y-20884620D01*
X6172380Y-20898906D01*
X6186666Y-20927477D01*
X6200951Y-20984620D01*
X6200951Y-21056049D01*
X6186666Y-21113192D01*
X6172380Y-21141763D01*
X6158094Y-21156049D01*
X6129523Y-21170334D01*
X6100951Y-21170334D01*
X6072380Y-21156049D01*
X6058094Y-21141763D01*
X6043808Y-21113192D01*
X6029523Y-21056049D01*
X6029523Y-20984620D01*
X6043808Y-20927477D01*
X6058094Y-20898906D01*
X6072380Y-20884620D01*
X6100951Y-20870334D01*
X6315237Y-20898906D02*
X6329523Y-20884620D01*
X6358094Y-20870334D01*
X6429523Y-20870334D01*
X6458094Y-20884620D01*
X6472380Y-20898906D01*
X6486666Y-20927477D01*
X6486666Y-20956049D01*
X6472380Y-20998906D01*
X6300951Y-21170334D01*
X6486666Y-21170334D01*
X6600951Y-20898906D02*
X6615237Y-20884620D01*
X6643808Y-20870334D01*
X6715237Y-20870334D01*
X6743808Y-20884620D01*
X6758094Y-20898906D01*
X6772380Y-20927477D01*
X6772380Y-20956049D01*
X6758094Y-20998906D01*
X6586666Y-21170334D01*
X6772380Y-21170334D01*
X6886666Y-20870334D02*
X6886666Y-20927477D01*
X7000951Y-20870334D02*
X7000951Y-20927477D01*
X7443808Y-21284620D02*
X7429523Y-21270334D01*
X7400951Y-21227477D01*
X7386666Y-21198906D01*
X7372380Y-21156049D01*
X7358094Y-21084620D01*
X7358094Y-21027477D01*
X7372380Y-20956049D01*
X7386666Y-20913192D01*
X7400951Y-20884620D01*
X7429523Y-20841763D01*
X7443808Y-20827477D01*
X7615237Y-20870334D02*
X7643808Y-20870334D01*
X7672380Y-20884620D01*
X7686666Y-20898906D01*
X7700951Y-20927477D01*
X7715237Y-20984620D01*
X7715237Y-21056049D01*
X7700951Y-21113192D01*
X7686666Y-21141763D01*
X7672380Y-21156049D01*
X7643808Y-21170334D01*
X7615237Y-21170334D01*
X7586666Y-21156049D01*
X7572380Y-21141763D01*
X7558094Y-21113192D01*
X7543808Y-21056049D01*
X7543808Y-20984620D01*
X7558094Y-20927477D01*
X7572380Y-20898906D01*
X7586666Y-20884620D01*
X7615237Y-20870334D01*
X8072380Y-21170334D02*
X8072380Y-20870334D01*
X8200951Y-21170334D02*
X8200951Y-21013192D01*
X8186666Y-20984620D01*
X8158094Y-20970334D01*
X8115237Y-20970334D01*
X8086666Y-20984620D01*
X8072380Y-20998906D01*
X8386666Y-21170334D02*
X8358094Y-21156049D01*
X8343808Y-21141763D01*
X8329523Y-21113192D01*
X8329523Y-21027477D01*
X8343808Y-20998906D01*
X8358094Y-20984620D01*
X8386666Y-20970334D01*
X8429523Y-20970334D01*
X8458094Y-20984620D01*
X8472380Y-20998906D01*
X8486666Y-21027477D01*
X8486666Y-21113192D01*
X8472380Y-21141763D01*
X8458094Y-21156049D01*
X8429523Y-21170334D01*
X8386666Y-21170334D01*
X8658094Y-21170334D02*
X8629523Y-21156049D01*
X8615237Y-21127477D01*
X8615237Y-20870334D01*
X8886666Y-21156049D02*
X8858094Y-21170334D01*
X8800951Y-21170334D01*
X8772380Y-21156049D01*
X8758094Y-21127477D01*
X8758094Y-21013192D01*
X8772380Y-20984620D01*
X8800951Y-20970334D01*
X8858094Y-20970334D01*
X8886666Y-20984620D01*
X8900951Y-21013192D01*
X8900951Y-21041763D01*
X8758094Y-21070334D01*
X9015237Y-21156049D02*
X9043808Y-21170334D01*
X9100951Y-21170334D01*
X9129523Y-21156049D01*
X9143808Y-21127477D01*
X9143808Y-21113192D01*
X9129523Y-21084620D01*
X9100951Y-21070334D01*
X9058094Y-21070334D01*
X9029523Y-21056049D01*
X9015237Y-21027477D01*
X9015237Y-21013192D01*
X9029523Y-20984620D01*
X9058094Y-20970334D01*
X9100951Y-20970334D01*
X9129523Y-20984620D01*
X9500951Y-21056049D02*
X9729523Y-21056049D01*
X9615237Y-21170334D02*
X9615237Y-20941763D01*
X10086666Y-20898906D02*
X10100951Y-20884620D01*
X10129523Y-20870334D01*
X10200951Y-20870334D01*
X10229523Y-20884620D01*
X10243808Y-20898906D01*
X10258094Y-20927477D01*
X10258094Y-20956049D01*
X10243808Y-20998906D01*
X10072380Y-21170334D01*
X10258094Y-21170334D01*
X10600951Y-21156049D02*
X10629523Y-21170334D01*
X10686666Y-21170334D01*
X10715237Y-21156049D01*
X10729523Y-21127477D01*
X10729523Y-21113192D01*
X10715237Y-21084620D01*
X10686666Y-21070334D01*
X10643808Y-21070334D01*
X10615237Y-21056049D01*
X10600951Y-21027477D01*
X10600951Y-21013192D01*
X10615237Y-20984620D01*
X10643808Y-20970334D01*
X10686666Y-20970334D01*
X10715237Y-20984620D01*
X10900951Y-21170334D02*
X10872380Y-21156049D01*
X10858094Y-21127477D01*
X10858094Y-20870334D01*
X11058094Y-21170334D02*
X11029523Y-21156049D01*
X11015237Y-21141763D01*
X11000951Y-21113192D01*
X11000951Y-21027477D01*
X11015237Y-20998906D01*
X11029523Y-20984620D01*
X11058094Y-20970334D01*
X11100951Y-20970334D01*
X11129523Y-20984620D01*
X11143808Y-20998906D01*
X11158094Y-21027477D01*
X11158094Y-21113192D01*
X11143808Y-21141763D01*
X11129523Y-21156049D01*
X11100951Y-21170334D01*
X11058094Y-21170334D01*
X11243808Y-20970334D02*
X11358094Y-20970334D01*
X11286666Y-20870334D02*
X11286666Y-21127477D01*
X11300951Y-21156049D01*
X11329523Y-21170334D01*
X11358094Y-21170334D01*
X11443808Y-21156049D02*
X11472380Y-21170334D01*
X11529523Y-21170334D01*
X11558094Y-21156049D01*
X11572380Y-21127477D01*
X11572380Y-21113192D01*
X11558094Y-21084620D01*
X11529523Y-21070334D01*
X11486666Y-21070334D01*
X11458094Y-21056049D01*
X11443808Y-21027477D01*
X11443808Y-21013192D01*
X11458094Y-20984620D01*
X11486666Y-20970334D01*
X11529523Y-20970334D01*
X11558094Y-20984620D01*
X11672380Y-21284620D02*
X11686666Y-21270334D01*
X11715237Y-21227477D01*
X11729523Y-21198906D01*
X11743808Y-21156049D01*
X11758094Y-21084620D01*
X11758094Y-21027477D01*
X11743808Y-20956049D01*
X11729523Y-20913192D01*
X11715237Y-20884620D01*
X11686666Y-20841763D01*
X11672380Y-20827477D01*
X2744200Y-21462440D02*
X2744200Y-21398800D01*
X2680560Y-21398800D01*
X2680560Y-21462440D01*
X2744200Y-21462440D01*
X3100951Y-21266334D02*
X3129523Y-21266334D01*
X3158094Y-21280620D01*
X3172380Y-21294906D01*
X3186666Y-21323477D01*
X3200951Y-21380620D01*
X3200951Y-21452049D01*
X3186666Y-21509192D01*
X3172380Y-21537763D01*
X3158094Y-21552049D01*
X3129523Y-21566334D01*
X3100951Y-21566334D01*
X3072380Y-21552049D01*
X3058094Y-21537763D01*
X3043808Y-21509192D01*
X3029523Y-21452049D01*
X3029523Y-21380620D01*
X3043808Y-21323477D01*
X3058094Y-21294906D01*
X3072380Y-21280620D01*
X3100951Y-21266334D01*
X3329523Y-21537763D02*
X3343808Y-21552049D01*
X3329523Y-21566334D01*
X3315237Y-21552049D01*
X3329523Y-21537763D01*
X3329523Y-21566334D01*
X3486666Y-21566334D02*
X3543808Y-21566334D01*
X3572380Y-21552049D01*
X3586666Y-21537763D01*
X3615237Y-21494906D01*
X3629523Y-21437763D01*
X3629523Y-21323477D01*
X3615237Y-21294906D01*
X3600951Y-21280620D01*
X3572380Y-21266334D01*
X3515237Y-21266334D01*
X3486666Y-21280620D01*
X3472380Y-21294906D01*
X3458094Y-21323477D01*
X3458094Y-21394906D01*
X3472380Y-21423477D01*
X3486666Y-21437763D01*
X3515237Y-21452049D01*
X3572380Y-21452049D01*
X3600951Y-21437763D01*
X3615237Y-21423477D01*
X3629523Y-21394906D01*
X3815237Y-21266334D02*
X3843808Y-21266334D01*
X3872380Y-21280620D01*
X3886666Y-21294906D01*
X3900951Y-21323477D01*
X3915237Y-21380620D01*
X3915237Y-21452049D01*
X3900951Y-21509192D01*
X3886666Y-21537763D01*
X3872380Y-21552049D01*
X3843808Y-21566334D01*
X3815237Y-21566334D01*
X3786666Y-21552049D01*
X3772380Y-21537763D01*
X3758094Y-21509192D01*
X3743808Y-21452049D01*
X3743808Y-21380620D01*
X3758094Y-21323477D01*
X3772380Y-21294906D01*
X3786666Y-21280620D01*
X3815237Y-21266334D01*
X4043808Y-21566334D02*
X4043808Y-21366334D01*
X4043808Y-21394906D02*
X4058094Y-21380620D01*
X4086666Y-21366334D01*
X4129523Y-21366334D01*
X4158094Y-21380620D01*
X4172380Y-21409192D01*
X4172380Y-21566334D01*
X4172380Y-21409192D02*
X4186666Y-21380620D01*
X4215237Y-21366334D01*
X4258094Y-21366334D01*
X4286666Y-21380620D01*
X4300951Y-21409192D01*
X4300951Y-21566334D01*
X4443808Y-21566334D02*
X4443808Y-21366334D01*
X4443808Y-21394906D02*
X4458094Y-21380620D01*
X4486666Y-21366334D01*
X4529523Y-21366334D01*
X4558094Y-21380620D01*
X4572380Y-21409192D01*
X4572380Y-21566334D01*
X4572380Y-21409192D02*
X4586666Y-21380620D01*
X4615237Y-21366334D01*
X4658094Y-21366334D01*
X4686666Y-21380620D01*
X4700951Y-21409192D01*
X4700951Y-21566334D01*
X5286666Y-21252049D02*
X5029523Y-21637763D01*
X5672380Y-21266334D02*
X5700951Y-21266334D01*
X5729523Y-21280620D01*
X5743808Y-21294906D01*
X5758094Y-21323477D01*
X5772380Y-21380620D01*
X5772380Y-21452049D01*
X5758094Y-21509192D01*
X5743808Y-21537763D01*
X5729523Y-21552049D01*
X5700951Y-21566334D01*
X5672380Y-21566334D01*
X5643808Y-21552049D01*
X5629523Y-21537763D01*
X5615237Y-21509192D01*
X5600951Y-21452049D01*
X5600951Y-21380620D01*
X5615237Y-21323477D01*
X5629523Y-21294906D01*
X5643808Y-21280620D01*
X5672380Y-21266334D01*
X5900951Y-21537763D02*
X5915237Y-21552049D01*
X5900951Y-21566334D01*
X5886666Y-21552049D01*
X5900951Y-21537763D01*
X5900951Y-21566334D01*
X6100951Y-21266334D02*
X6129523Y-21266334D01*
X6158094Y-21280620D01*
X6172380Y-21294906D01*
X6186666Y-21323477D01*
X6200951Y-21380620D01*
X6200951Y-21452049D01*
X6186666Y-21509192D01*
X6172380Y-21537763D01*
X6158094Y-21552049D01*
X6129523Y-21566334D01*
X6100951Y-21566334D01*
X6072380Y-21552049D01*
X6058094Y-21537763D01*
X6043808Y-21509192D01*
X6029523Y-21452049D01*
X6029523Y-21380620D01*
X6043808Y-21323477D01*
X6058094Y-21294906D01*
X6072380Y-21280620D01*
X6100951Y-21266334D01*
X6300951Y-21266334D02*
X6486666Y-21266334D01*
X6386666Y-21380620D01*
X6429523Y-21380620D01*
X6458094Y-21394906D01*
X6472380Y-21409192D01*
X6486666Y-21437763D01*
X6486666Y-21509192D01*
X6472380Y-21537763D01*
X6458094Y-21552049D01*
X6429523Y-21566334D01*
X6343808Y-21566334D01*
X6315237Y-21552049D01*
X6300951Y-21537763D01*
X6758094Y-21266334D02*
X6615237Y-21266334D01*
X6600951Y-21409192D01*
X6615237Y-21394906D01*
X6643808Y-21380620D01*
X6715237Y-21380620D01*
X6743808Y-21394906D01*
X6758094Y-21409192D01*
X6772380Y-21437763D01*
X6772380Y-21509192D01*
X6758094Y-21537763D01*
X6743808Y-21552049D01*
X6715237Y-21566334D01*
X6643808Y-21566334D01*
X6615237Y-21552049D01*
X6600951Y-21537763D01*
X6886666Y-21266334D02*
X6886666Y-21323477D01*
X7000951Y-21266334D02*
X7000951Y-21323477D01*
X7443808Y-21680620D02*
X7429523Y-21666334D01*
X7400951Y-21623477D01*
X7386666Y-21594906D01*
X7372380Y-21552049D01*
X7358094Y-21480620D01*
X7358094Y-21423477D01*
X7372380Y-21352049D01*
X7386666Y-21309192D01*
X7400951Y-21280620D01*
X7429523Y-21237763D01*
X7443808Y-21223477D01*
X7543808Y-21294906D02*
X7558094Y-21280620D01*
X7586666Y-21266334D01*
X7658094Y-21266334D01*
X7686666Y-21280620D01*
X7700951Y-21294906D01*
X7715237Y-21323477D01*
X7715237Y-21352049D01*
X7700951Y-21394906D01*
X7529523Y-21566334D01*
X7715237Y-21566334D01*
X8072380Y-21566334D02*
X8072380Y-21266334D01*
X8200951Y-21566334D02*
X8200951Y-21409192D01*
X8186666Y-21380620D01*
X8158094Y-21366334D01*
X8115237Y-21366334D01*
X8086666Y-21380620D01*
X8072380Y-21394906D01*
X8386666Y-21566334D02*
X8358094Y-21552049D01*
X8343808Y-21537763D01*
X8329523Y-21509192D01*
X8329523Y-21423477D01*
X8343808Y-21394906D01*
X8358094Y-21380620D01*
X8386666Y-21366334D01*
X8429523Y-21366334D01*
X8458094Y-21380620D01*
X8472380Y-21394906D01*
X8486666Y-21423477D01*
X8486666Y-21509192D01*
X8472380Y-21537763D01*
X8458094Y-21552049D01*
X8429523Y-21566334D01*
X8386666Y-21566334D01*
X8658094Y-21566334D02*
X8629523Y-21552049D01*
X8615237Y-21523477D01*
X8615237Y-21266334D01*
X8886666Y-21552049D02*
X8858094Y-21566334D01*
X8800951Y-21566334D01*
X8772380Y-21552049D01*
X8758094Y-21523477D01*
X8758094Y-21409192D01*
X8772380Y-21380620D01*
X8800951Y-21366334D01*
X8858094Y-21366334D01*
X8886666Y-21380620D01*
X8900951Y-21409192D01*
X8900951Y-21437763D01*
X8758094Y-21466334D01*
X9015237Y-21552049D02*
X9043808Y-21566334D01*
X9100951Y-21566334D01*
X9129523Y-21552049D01*
X9143808Y-21523477D01*
X9143808Y-21509192D01*
X9129523Y-21480620D01*
X9100951Y-21466334D01*
X9058094Y-21466334D01*
X9029523Y-21452049D01*
X9015237Y-21423477D01*
X9015237Y-21409192D01*
X9029523Y-21380620D01*
X9058094Y-21366334D01*
X9100951Y-21366334D01*
X9129523Y-21380620D01*
X9243808Y-21680620D02*
X9258094Y-21666334D01*
X9286666Y-21623477D01*
X9300951Y-21594906D01*
X9315237Y-21552049D01*
X9329523Y-21480620D01*
X9329523Y-21423477D01*
X9315237Y-21352049D01*
X9300951Y-21309192D01*
X9286666Y-21280620D01*
X9258094Y-21237763D01*
X9243808Y-21223477D01*
X2707380Y-21876620D02*
X2757380Y-21826620D01*
X2707380Y-21776620D01*
X2657380Y-21826620D01*
X2707380Y-21876620D01*
X3200951Y-21962334D02*
X3029523Y-21962334D01*
X3115237Y-21962334D02*
X3115237Y-21662334D01*
X3086666Y-21705192D01*
X3058094Y-21733763D01*
X3029523Y-21748049D01*
X3329523Y-21933763D02*
X3343808Y-21948049D01*
X3329523Y-21962334D01*
X3315237Y-21948049D01*
X3329523Y-21933763D01*
X3329523Y-21962334D01*
X3529523Y-21662334D02*
X3558094Y-21662334D01*
X3586666Y-21676620D01*
X3600951Y-21690906D01*
X3615237Y-21719477D01*
X3629523Y-21776620D01*
X3629523Y-21848049D01*
X3615237Y-21905192D01*
X3600951Y-21933763D01*
X3586666Y-21948049D01*
X3558094Y-21962334D01*
X3529523Y-21962334D01*
X3500951Y-21948049D01*
X3486666Y-21933763D01*
X3472380Y-21905192D01*
X3458094Y-21848049D01*
X3458094Y-21776620D01*
X3472380Y-21719477D01*
X3486666Y-21690906D01*
X3500951Y-21676620D01*
X3529523Y-21662334D01*
X3815237Y-21662334D02*
X3843808Y-21662334D01*
X3872380Y-21676620D01*
X3886666Y-21690906D01*
X3900951Y-21719477D01*
X3915237Y-21776620D01*
X3915237Y-21848049D01*
X3900951Y-21905192D01*
X3886666Y-21933763D01*
X3872380Y-21948049D01*
X3843808Y-21962334D01*
X3815237Y-21962334D01*
X3786666Y-21948049D01*
X3772380Y-21933763D01*
X3758094Y-21905192D01*
X3743808Y-21848049D01*
X3743808Y-21776620D01*
X3758094Y-21719477D01*
X3772380Y-21690906D01*
X3786666Y-21676620D01*
X3815237Y-21662334D01*
X4043808Y-21962334D02*
X4043808Y-21762334D01*
X4043808Y-21790906D02*
X4058094Y-21776620D01*
X4086666Y-21762334D01*
X4129523Y-21762334D01*
X4158094Y-21776620D01*
X4172380Y-21805192D01*
X4172380Y-21962334D01*
X4172380Y-21805192D02*
X4186666Y-21776620D01*
X4215237Y-21762334D01*
X4258094Y-21762334D01*
X4286666Y-21776620D01*
X4300951Y-21805192D01*
X4300951Y-21962334D01*
X4443808Y-21962334D02*
X4443808Y-21762334D01*
X4443808Y-21790906D02*
X4458094Y-21776620D01*
X4486666Y-21762334D01*
X4529523Y-21762334D01*
X4558094Y-21776620D01*
X4572380Y-21805192D01*
X4572380Y-21962334D01*
X4572380Y-21805192D02*
X4586666Y-21776620D01*
X4615237Y-21762334D01*
X4658094Y-21762334D01*
X4686666Y-21776620D01*
X4700951Y-21805192D01*
X4700951Y-21962334D01*
X5286666Y-21648049D02*
X5029523Y-22033763D01*
X5672380Y-21662334D02*
X5700951Y-21662334D01*
X5729523Y-21676620D01*
X5743808Y-21690906D01*
X5758094Y-21719477D01*
X5772380Y-21776620D01*
X5772380Y-21848049D01*
X5758094Y-21905192D01*
X5743808Y-21933763D01*
X5729523Y-21948049D01*
X5700951Y-21962334D01*
X5672380Y-21962334D01*
X5643808Y-21948049D01*
X5629523Y-21933763D01*
X5615237Y-21905192D01*
X5600951Y-21848049D01*
X5600951Y-21776620D01*
X5615237Y-21719477D01*
X5629523Y-21690906D01*
X5643808Y-21676620D01*
X5672380Y-21662334D01*
X5900951Y-21933763D02*
X5915237Y-21948049D01*
X5900951Y-21962334D01*
X5886666Y-21948049D01*
X5900951Y-21933763D01*
X5900951Y-21962334D01*
X6100951Y-21662334D02*
X6129523Y-21662334D01*
X6158094Y-21676620D01*
X6172380Y-21690906D01*
X6186666Y-21719477D01*
X6200951Y-21776620D01*
X6200951Y-21848049D01*
X6186666Y-21905192D01*
X6172380Y-21933763D01*
X6158094Y-21948049D01*
X6129523Y-21962334D01*
X6100951Y-21962334D01*
X6072380Y-21948049D01*
X6058094Y-21933763D01*
X6043808Y-21905192D01*
X6029523Y-21848049D01*
X6029523Y-21776620D01*
X6043808Y-21719477D01*
X6058094Y-21690906D01*
X6072380Y-21676620D01*
X6100951Y-21662334D01*
X6300951Y-21662334D02*
X6486666Y-21662334D01*
X6386666Y-21776620D01*
X6429523Y-21776620D01*
X6458094Y-21790906D01*
X6472380Y-21805192D01*
X6486666Y-21833763D01*
X6486666Y-21905192D01*
X6472380Y-21933763D01*
X6458094Y-21948049D01*
X6429523Y-21962334D01*
X6343808Y-21962334D01*
X6315237Y-21948049D01*
X6300951Y-21933763D01*
X6629523Y-21962334D02*
X6686666Y-21962334D01*
X6715237Y-21948049D01*
X6729523Y-21933763D01*
X6758094Y-21890906D01*
X6772380Y-21833763D01*
X6772380Y-21719477D01*
X6758094Y-21690906D01*
X6743808Y-21676620D01*
X6715237Y-21662334D01*
X6658094Y-21662334D01*
X6629523Y-21676620D01*
X6615237Y-21690906D01*
X6600951Y-21719477D01*
X6600951Y-21790906D01*
X6615237Y-21819477D01*
X6629523Y-21833763D01*
X6658094Y-21848049D01*
X6715237Y-21848049D01*
X6743808Y-21833763D01*
X6758094Y-21819477D01*
X6772380Y-21790906D01*
X6886666Y-21662334D02*
X6886666Y-21719477D01*
X7000951Y-21662334D02*
X7000951Y-21719477D01*
X7443808Y-22076620D02*
X7429523Y-22062334D01*
X7400951Y-22019477D01*
X7386666Y-21990906D01*
X7372380Y-21948049D01*
X7358094Y-21876620D01*
X7358094Y-21819477D01*
X7372380Y-21748049D01*
X7386666Y-21705192D01*
X7400951Y-21676620D01*
X7429523Y-21633763D01*
X7443808Y-21619477D01*
X7715237Y-21962334D02*
X7543808Y-21962334D01*
X7629523Y-21962334D02*
X7629523Y-21662334D01*
X7600951Y-21705192D01*
X7572380Y-21733763D01*
X7543808Y-21748049D01*
X7829523Y-21690906D02*
X7843808Y-21676620D01*
X7872380Y-21662334D01*
X7943808Y-21662334D01*
X7972380Y-21676620D01*
X7986666Y-21690906D01*
X8000951Y-21719477D01*
X8000951Y-21748049D01*
X7986666Y-21790906D01*
X7815237Y-21962334D01*
X8000951Y-21962334D01*
X8358094Y-21962334D02*
X8358094Y-21662334D01*
X8486666Y-21962334D02*
X8486666Y-21805192D01*
X8472380Y-21776620D01*
X8443808Y-21762334D01*
X8400951Y-21762334D01*
X8372380Y-21776620D01*
X8358094Y-21790906D01*
X8672380Y-21962334D02*
X8643808Y-21948049D01*
X8629523Y-21933763D01*
X8615237Y-21905192D01*
X8615237Y-21819477D01*
X8629523Y-21790906D01*
X8643808Y-21776620D01*
X8672380Y-21762334D01*
X8715237Y-21762334D01*
X8743808Y-21776620D01*
X8758094Y-21790906D01*
X8772380Y-21819477D01*
X8772380Y-21905192D01*
X8758094Y-21933763D01*
X8743808Y-21948049D01*
X8715237Y-21962334D01*
X8672380Y-21962334D01*
X8943808Y-21962334D02*
X8915237Y-21948049D01*
X8900951Y-21919477D01*
X8900951Y-21662334D01*
X9172380Y-21948049D02*
X9143808Y-21962334D01*
X9086666Y-21962334D01*
X9058094Y-21948049D01*
X9043808Y-21919477D01*
X9043808Y-21805192D01*
X9058094Y-21776620D01*
X9086666Y-21762334D01*
X9143808Y-21762334D01*
X9172380Y-21776620D01*
X9186666Y-21805192D01*
X9186666Y-21833763D01*
X9043808Y-21862334D01*
X9300951Y-21948049D02*
X9329523Y-21962334D01*
X9386666Y-21962334D01*
X9415237Y-21948049D01*
X9429523Y-21919477D01*
X9429523Y-21905192D01*
X9415237Y-21876620D01*
X9386666Y-21862334D01*
X9343808Y-21862334D01*
X9315237Y-21848049D01*
X9300951Y-21819477D01*
X9300951Y-21805192D01*
X9315237Y-21776620D01*
X9343808Y-21762334D01*
X9386666Y-21762334D01*
X9415237Y-21776620D01*
X9529523Y-22076620D02*
X9543808Y-22062334D01*
X9572380Y-22019477D01*
X9586666Y-21990906D01*
X9600951Y-21948049D01*
X9615237Y-21876620D01*
X9615237Y-21819477D01*
X9600951Y-21748049D01*
X9586666Y-21705192D01*
X9572380Y-21676620D01*
X9543808Y-21633763D01*
X9529523Y-21619477D01*
M02*
