G04 #@! TF.GenerationSoftware,KiCad,Pcbnew,5.0.1*
G04 #@! TF.CreationDate,2018-12-04T21:14:06-05:00*
G04 #@! TF.ProjectId,receiver,72656365697665722E6B696361645F70,rev?*
G04 #@! TF.SameCoordinates,Original*
G04 #@! TF.FileFunction,Soldermask,Top*
G04 #@! TF.FilePolarity,Negative*
%FSLAX46Y46*%
G04 Gerber Fmt 4.6, Leading zero omitted, Abs format (unit mm)*
G04 Created by KiCad (PCBNEW 5.0.1) date Tue 04 Dec 2018 09:14:06 PM EST*
%MOMM*%
%LPD*%
G01*
G04 APERTURE LIST*
%ADD10C,0.100000*%
G04 APERTURE END LIST*
D10*
G36*
X46415291Y-190704265D02*
X45113691Y-190704265D01*
X45113691Y-189702665D01*
X46415291Y-189702665D01*
X46415291Y-190704265D01*
X46415291Y-190704265D01*
G37*
G36*
X44215291Y-190704265D02*
X42913691Y-190704265D01*
X42913691Y-189702665D01*
X44215291Y-189702665D01*
X44215291Y-190704265D01*
X44215291Y-190704265D01*
G37*
G36*
X39800800Y-190700800D02*
X38499200Y-190700800D01*
X38499200Y-189699200D01*
X39800800Y-189699200D01*
X39800800Y-190700800D01*
X39800800Y-190700800D01*
G37*
G36*
X42000800Y-190700800D02*
X40699200Y-190700800D01*
X40699200Y-189699200D01*
X42000800Y-189699200D01*
X42000800Y-190700800D01*
X42000800Y-190700800D01*
G37*
G36*
X37315291Y-188051865D02*
X37316267Y-188061776D01*
X37319158Y-188071305D01*
X37323852Y-188080088D01*
X37330170Y-188087786D01*
X37337868Y-188094104D01*
X37346651Y-188098798D01*
X37356180Y-188101689D01*
X37366091Y-188102665D01*
X37715291Y-188102665D01*
X37715291Y-189954265D01*
X35813691Y-189954265D01*
X35813691Y-188102665D01*
X36062891Y-188102665D01*
X36072802Y-188101689D01*
X36082331Y-188098798D01*
X36091114Y-188094104D01*
X36098812Y-188087786D01*
X36105130Y-188080088D01*
X36109824Y-188071305D01*
X36112715Y-188061776D01*
X36113691Y-188051865D01*
X36113691Y-187802665D01*
X37315291Y-187802665D01*
X37315291Y-188051865D01*
X37315291Y-188051865D01*
G37*
G36*
X33000800Y-189450800D02*
X31699200Y-189450800D01*
X31699200Y-188449200D01*
X33000800Y-188449200D01*
X33000800Y-189450800D01*
X33000800Y-189450800D01*
G37*
G36*
X30800800Y-189450800D02*
X29499200Y-189450800D01*
X29499200Y-188449200D01*
X30800800Y-188449200D01*
X30800800Y-189450800D01*
X30800800Y-189450800D01*
G37*
G36*
X49000800Y-189100800D02*
X48299200Y-189100800D01*
X48299200Y-188599200D01*
X49000800Y-188599200D01*
X49000800Y-189100800D01*
X49000800Y-189100800D01*
G37*
G36*
X46300800Y-188925800D02*
X44999200Y-188925800D01*
X44999200Y-188074200D01*
X46300800Y-188074200D01*
X46300800Y-188925800D01*
X46300800Y-188925800D01*
G37*
G36*
X44400800Y-188925800D02*
X43099200Y-188925800D01*
X43099200Y-188074200D01*
X44400800Y-188074200D01*
X44400800Y-188925800D01*
X44400800Y-188925800D01*
G37*
G36*
X53950800Y-188525800D02*
X52649200Y-188525800D01*
X52649200Y-187674200D01*
X53950800Y-187674200D01*
X53950800Y-188525800D01*
X53950800Y-188525800D01*
G37*
G36*
X52050800Y-188525800D02*
X50749200Y-188525800D01*
X50749200Y-187674200D01*
X52050800Y-187674200D01*
X52050800Y-188525800D01*
X52050800Y-188525800D01*
G37*
G36*
X83950800Y-188350800D02*
X81249200Y-188350800D01*
X81249200Y-186649200D01*
X83950800Y-186649200D01*
X83950800Y-188350800D01*
X83950800Y-188350800D01*
G37*
G36*
X87550800Y-188350800D02*
X84849200Y-188350800D01*
X84849200Y-186649200D01*
X87550800Y-186649200D01*
X87550800Y-188350800D01*
X87550800Y-188350800D01*
G37*
G36*
X49000800Y-188200800D02*
X48299200Y-188200800D01*
X48299200Y-187699200D01*
X49000800Y-187699200D01*
X49000800Y-188200800D01*
X49000800Y-188200800D01*
G37*
G36*
X75700800Y-187875800D02*
X74399200Y-187875800D01*
X74399200Y-187024200D01*
X75700800Y-187024200D01*
X75700800Y-187875800D01*
X75700800Y-187875800D01*
G37*
G36*
X77600800Y-187875800D02*
X76299200Y-187875800D01*
X76299200Y-187024200D01*
X77600800Y-187024200D01*
X77600800Y-187875800D01*
X77600800Y-187875800D01*
G37*
G36*
X30765291Y-187754265D02*
X29863691Y-187754265D01*
X29863691Y-185752665D01*
X30765291Y-185752665D01*
X30765291Y-187754265D01*
X30765291Y-187754265D01*
G37*
G36*
X32665291Y-187754265D02*
X31763691Y-187754265D01*
X31763691Y-185752665D01*
X32665291Y-185752665D01*
X32665291Y-187754265D01*
X32665291Y-187754265D01*
G37*
G36*
X36991829Y-185829203D02*
X37164864Y-185900877D01*
X37320591Y-186004930D01*
X37453026Y-186137365D01*
X37557079Y-186293092D01*
X37628753Y-186466127D01*
X37665291Y-186649819D01*
X37665291Y-186837111D01*
X37628753Y-187020803D01*
X37557079Y-187193838D01*
X37453026Y-187349565D01*
X37320591Y-187482000D01*
X37164864Y-187586053D01*
X36991829Y-187657727D01*
X36808137Y-187694265D01*
X36620845Y-187694265D01*
X36437153Y-187657727D01*
X36264118Y-187586053D01*
X36108391Y-187482000D01*
X35975956Y-187349565D01*
X35871903Y-187193838D01*
X35800229Y-187020803D01*
X35763691Y-186837111D01*
X35763691Y-186649819D01*
X35800229Y-186466127D01*
X35871903Y-186293092D01*
X35975956Y-186137365D01*
X36108391Y-186004930D01*
X36264118Y-185900877D01*
X36437153Y-185829203D01*
X36620845Y-185792665D01*
X36808137Y-185792665D01*
X36991829Y-185829203D01*
X36991829Y-185829203D01*
G37*
G36*
X49000800Y-187200800D02*
X48299200Y-187200800D01*
X48299200Y-186699200D01*
X49000800Y-186699200D01*
X49000800Y-187200800D01*
X49000800Y-187200800D01*
G37*
G36*
X44140291Y-187154265D02*
X43288691Y-187154265D01*
X43288691Y-185852665D01*
X44140291Y-185852665D01*
X44140291Y-187154265D01*
X44140291Y-187154265D01*
G37*
G36*
X42440291Y-187154265D02*
X41588691Y-187154265D01*
X41588691Y-185852665D01*
X42440291Y-185852665D01*
X42440291Y-187154265D01*
X42440291Y-187154265D01*
G37*
G36*
X46415291Y-186704265D02*
X45913691Y-186704265D01*
X45913691Y-186002665D01*
X46415291Y-186002665D01*
X46415291Y-186704265D01*
X46415291Y-186704265D01*
G37*
G36*
X45515291Y-186704265D02*
X45013691Y-186704265D01*
X45013691Y-186002665D01*
X45515291Y-186002665D01*
X45515291Y-186704265D01*
X45515291Y-186704265D01*
G37*
G36*
X53950800Y-186525800D02*
X52649200Y-186525800D01*
X52649200Y-185674200D01*
X53950800Y-185674200D01*
X53950800Y-186525800D01*
X53950800Y-186525800D01*
G37*
G36*
X52050800Y-186525800D02*
X50749200Y-186525800D01*
X50749200Y-185674200D01*
X52050800Y-185674200D01*
X52050800Y-186525800D01*
X52050800Y-186525800D01*
G37*
G36*
X75700800Y-186375800D02*
X74399200Y-186375800D01*
X74399200Y-185524200D01*
X75700800Y-185524200D01*
X75700800Y-186375800D01*
X75700800Y-186375800D01*
G37*
G36*
X77600800Y-186375800D02*
X76299200Y-186375800D01*
X76299200Y-185524200D01*
X77600800Y-185524200D01*
X77600800Y-186375800D01*
X77600800Y-186375800D01*
G37*
G36*
X49000800Y-186300800D02*
X48299200Y-186300800D01*
X48299200Y-185799200D01*
X49000800Y-185799200D01*
X49000800Y-186300800D01*
X49000800Y-186300800D01*
G37*
G36*
X46415291Y-185654265D02*
X45913691Y-185654265D01*
X45913691Y-184952665D01*
X46415291Y-184952665D01*
X46415291Y-185654265D01*
X46415291Y-185654265D01*
G37*
G36*
X45515291Y-185654265D02*
X45013691Y-185654265D01*
X45013691Y-184952665D01*
X45515291Y-184952665D01*
X45515291Y-185654265D01*
X45515291Y-185654265D01*
G37*
G36*
X49000800Y-185400800D02*
X48299200Y-185400800D01*
X48299200Y-184899200D01*
X49000800Y-184899200D01*
X49000800Y-185400800D01*
X49000800Y-185400800D01*
G37*
G36*
X42440291Y-185254265D02*
X41588691Y-185254265D01*
X41588691Y-183952665D01*
X42440291Y-183952665D01*
X42440291Y-185254265D01*
X42440291Y-185254265D01*
G37*
G36*
X44140291Y-185254265D02*
X43288691Y-185254265D01*
X43288691Y-183952665D01*
X44140291Y-183952665D01*
X44140291Y-185254265D01*
X44140291Y-185254265D01*
G37*
G36*
X37665291Y-185154265D02*
X35763691Y-185154265D01*
X35763691Y-183252665D01*
X37665291Y-183252665D01*
X37665291Y-185154265D01*
X37665291Y-185154265D01*
G37*
G36*
X75700800Y-184925800D02*
X74399200Y-184925800D01*
X74399200Y-184074200D01*
X75700800Y-184074200D01*
X75700800Y-184925800D01*
X75700800Y-184925800D01*
G37*
G36*
X66950800Y-184925800D02*
X65649200Y-184925800D01*
X65649200Y-184074200D01*
X66950800Y-184074200D01*
X66950800Y-184925800D01*
X66950800Y-184925800D01*
G37*
G36*
X68850800Y-184925800D02*
X67549200Y-184925800D01*
X67549200Y-184074200D01*
X68850800Y-184074200D01*
X68850800Y-184925800D01*
X68850800Y-184925800D01*
G37*
G36*
X64150800Y-184925800D02*
X62849200Y-184925800D01*
X62849200Y-184074200D01*
X64150800Y-184074200D01*
X64150800Y-184925800D01*
X64150800Y-184925800D01*
G37*
G36*
X62250800Y-184925800D02*
X60949200Y-184925800D01*
X60949200Y-184074200D01*
X62250800Y-184074200D01*
X62250800Y-184925800D01*
X62250800Y-184925800D01*
G37*
G36*
X77600800Y-184925800D02*
X76299200Y-184925800D01*
X76299200Y-184074200D01*
X77600800Y-184074200D01*
X77600800Y-184925800D01*
X77600800Y-184925800D01*
G37*
G36*
X31715291Y-184754265D02*
X30813691Y-184754265D01*
X30813691Y-182752665D01*
X31715291Y-182752665D01*
X31715291Y-184754265D01*
X31715291Y-184754265D01*
G37*
G36*
X51950800Y-184625800D02*
X50649200Y-184625800D01*
X50649200Y-183774200D01*
X51950800Y-183774200D01*
X51950800Y-184625800D01*
X51950800Y-184625800D01*
G37*
G36*
X53850800Y-184625800D02*
X52549200Y-184625800D01*
X52549200Y-183774200D01*
X53850800Y-183774200D01*
X53850800Y-184625800D01*
X53850800Y-184625800D01*
G37*
G36*
X45515291Y-184604265D02*
X45013691Y-184604265D01*
X45013691Y-183902665D01*
X45515291Y-183902665D01*
X45515291Y-184604265D01*
X45515291Y-184604265D01*
G37*
G36*
X46415291Y-184604265D02*
X45913691Y-184604265D01*
X45913691Y-183902665D01*
X46415291Y-183902665D01*
X46415291Y-184604265D01*
X46415291Y-184604265D01*
G37*
G36*
X49000800Y-184500800D02*
X48299200Y-184500800D01*
X48299200Y-183999200D01*
X49000800Y-183999200D01*
X49000800Y-184500800D01*
X49000800Y-184500800D01*
G37*
G36*
X87150800Y-183900800D02*
X85449200Y-183900800D01*
X85449200Y-181199200D01*
X87150800Y-181199200D01*
X87150800Y-183900800D01*
X87150800Y-183900800D01*
G37*
G36*
X82425800Y-183550800D02*
X81074200Y-183550800D01*
X81074200Y-181949200D01*
X82425800Y-181949200D01*
X82425800Y-183550800D01*
X82425800Y-183550800D01*
G37*
G36*
X67750800Y-183250800D02*
X66749200Y-183250800D01*
X66749200Y-181949200D01*
X67750800Y-181949200D01*
X67750800Y-183250800D01*
X67750800Y-183250800D01*
G37*
G36*
X80350800Y-183150800D02*
X79349200Y-183150800D01*
X79349200Y-181849200D01*
X80350800Y-181849200D01*
X80350800Y-183150800D01*
X80350800Y-183150800D01*
G37*
G36*
X37715291Y-183104265D02*
X35713691Y-183104265D01*
X35713691Y-181702665D01*
X35762891Y-181702665D01*
X35772802Y-181701689D01*
X35782331Y-181698798D01*
X35791114Y-181694104D01*
X35798812Y-181687786D01*
X35805130Y-181680088D01*
X35809824Y-181671305D01*
X35812715Y-181661776D01*
X35813691Y-181651865D01*
X35813691Y-180952665D01*
X37715291Y-180952665D01*
X37715291Y-183104265D01*
X37715291Y-183104265D01*
G37*
G36*
X70350800Y-183050800D02*
X69849200Y-183050800D01*
X69849200Y-182349200D01*
X70350800Y-182349200D01*
X70350800Y-183050800D01*
X70350800Y-183050800D01*
G37*
G36*
X71250800Y-183050800D02*
X70749200Y-183050800D01*
X70749200Y-182349200D01*
X71250800Y-182349200D01*
X71250800Y-183050800D01*
X71250800Y-183050800D01*
G37*
G36*
X75550800Y-182900800D02*
X73549200Y-182900800D01*
X73549200Y-181999200D01*
X75550800Y-181999200D01*
X75550800Y-182900800D01*
X75550800Y-182900800D01*
G37*
G36*
X64750800Y-182900800D02*
X62749200Y-182900800D01*
X62749200Y-181999200D01*
X64750800Y-181999200D01*
X64750800Y-182900800D01*
X64750800Y-182900800D01*
G37*
G36*
X45689491Y-182828465D02*
X44239491Y-182828465D01*
X44239491Y-182328465D01*
X45689491Y-182328465D01*
X45689491Y-182828465D01*
X45689491Y-182828465D01*
G37*
G36*
X41389491Y-182828465D02*
X39939491Y-182828465D01*
X39939491Y-182328465D01*
X41389491Y-182328465D01*
X41389491Y-182828465D01*
X41389491Y-182828465D01*
G37*
G36*
X49015291Y-182554265D02*
X48413691Y-182554265D01*
X48413691Y-181852665D01*
X49015291Y-181852665D01*
X49015291Y-182554265D01*
X49015291Y-182554265D01*
G37*
G36*
X47865291Y-182354265D02*
X47163691Y-182354265D01*
X47163691Y-181852665D01*
X47865291Y-181852665D01*
X47865291Y-182354265D01*
X47865291Y-182354265D01*
G37*
G36*
X45689491Y-182178465D02*
X44239491Y-182178465D01*
X44239491Y-181678465D01*
X45689491Y-181678465D01*
X45689491Y-182178465D01*
X45689491Y-182178465D01*
G37*
G36*
X41389491Y-182178465D02*
X39939491Y-182178465D01*
X39939491Y-181678465D01*
X41389491Y-181678465D01*
X41389491Y-182178465D01*
X41389491Y-182178465D01*
G37*
G36*
X78550800Y-181950800D02*
X76549200Y-181950800D01*
X76549200Y-181049200D01*
X78550800Y-181049200D01*
X78550800Y-181950800D01*
X78550800Y-181950800D01*
G37*
G36*
X61750800Y-181950800D02*
X59749200Y-181950800D01*
X59749200Y-181049200D01*
X61750800Y-181049200D01*
X61750800Y-181950800D01*
X61750800Y-181950800D01*
G37*
G36*
X30715291Y-181854265D02*
X29813691Y-181854265D01*
X29813691Y-179852665D01*
X30715291Y-179852665D01*
X30715291Y-181854265D01*
X30715291Y-181854265D01*
G37*
G36*
X32615291Y-181854265D02*
X31713691Y-181854265D01*
X31713691Y-179852665D01*
X32615291Y-179852665D01*
X32615291Y-181854265D01*
X32615291Y-181854265D01*
G37*
G36*
X45689491Y-181528465D02*
X44239491Y-181528465D01*
X44239491Y-181028465D01*
X45689491Y-181028465D01*
X45689491Y-181528465D01*
X45689491Y-181528465D01*
G37*
G36*
X41389491Y-181528465D02*
X39939491Y-181528465D01*
X39939491Y-181028465D01*
X41389491Y-181028465D01*
X41389491Y-181528465D01*
X41389491Y-181528465D01*
G37*
G36*
X47865291Y-181454265D02*
X47163691Y-181454265D01*
X47163691Y-180952665D01*
X47865291Y-180952665D01*
X47865291Y-181454265D01*
X47865291Y-181454265D01*
G37*
G36*
X49015291Y-181454265D02*
X48413691Y-181454265D01*
X48413691Y-180752665D01*
X49015291Y-180752665D01*
X49015291Y-181454265D01*
X49015291Y-181454265D01*
G37*
G36*
X67750800Y-181050800D02*
X66749200Y-181050800D01*
X66749200Y-179749200D01*
X67750800Y-179749200D01*
X67750800Y-181050800D01*
X67750800Y-181050800D01*
G37*
G36*
X82425800Y-181050800D02*
X81074200Y-181050800D01*
X81074200Y-179449200D01*
X82425800Y-179449200D01*
X82425800Y-181050800D01*
X82425800Y-181050800D01*
G37*
G36*
X75550800Y-181000800D02*
X73549200Y-181000800D01*
X73549200Y-180099200D01*
X75550800Y-180099200D01*
X75550800Y-181000800D01*
X75550800Y-181000800D01*
G37*
G36*
X64750800Y-181000800D02*
X62749200Y-181000800D01*
X62749200Y-180099200D01*
X64750800Y-180099200D01*
X64750800Y-181000800D01*
X64750800Y-181000800D01*
G37*
G36*
X80350800Y-180950800D02*
X79349200Y-180950800D01*
X79349200Y-179649200D01*
X80350800Y-179649200D01*
X80350800Y-180950800D01*
X80350800Y-180950800D01*
G37*
G36*
X41389491Y-180878465D02*
X39939491Y-180878465D01*
X39939491Y-180378465D01*
X41389491Y-180378465D01*
X41389491Y-180878465D01*
X41389491Y-180878465D01*
G37*
G36*
X45689491Y-180878465D02*
X44239491Y-180878465D01*
X44239491Y-180378465D01*
X45689491Y-180378465D01*
X45689491Y-180878465D01*
X45689491Y-180878465D01*
G37*
G36*
X87150800Y-180300800D02*
X85449200Y-180300800D01*
X85449200Y-177599200D01*
X87150800Y-177599200D01*
X87150800Y-180300800D01*
X87150800Y-180300800D01*
G37*
G36*
X35065291Y-180254265D02*
X34463691Y-180254265D01*
X34463691Y-179552665D01*
X35065291Y-179552665D01*
X35065291Y-180254265D01*
X35065291Y-180254265D01*
G37*
G36*
X39915291Y-179704265D02*
X38613691Y-179704265D01*
X38613691Y-178702665D01*
X39915291Y-178702665D01*
X39915291Y-179704265D01*
X39915291Y-179704265D01*
G37*
G36*
X37715291Y-179704265D02*
X36413691Y-179704265D01*
X36413691Y-178702665D01*
X37715291Y-178702665D01*
X37715291Y-179704265D01*
X37715291Y-179704265D01*
G37*
G36*
X70200800Y-179700800D02*
X68899200Y-179700800D01*
X68899200Y-178699200D01*
X70200800Y-178699200D01*
X70200800Y-179700800D01*
X70200800Y-179700800D01*
G37*
G36*
X72400800Y-179700800D02*
X71099200Y-179700800D01*
X71099200Y-178699200D01*
X72400800Y-178699200D01*
X72400800Y-179700800D01*
X72400800Y-179700800D01*
G37*
G36*
X45925800Y-179550800D02*
X44574200Y-179550800D01*
X44574200Y-177949200D01*
X45925800Y-177949200D01*
X45925800Y-179550800D01*
X45925800Y-179550800D01*
G37*
G36*
X47550800Y-179250800D02*
X46549200Y-179250800D01*
X46549200Y-177949200D01*
X47550800Y-177949200D01*
X47550800Y-179250800D01*
X47550800Y-179250800D01*
G37*
G36*
X35065291Y-179154265D02*
X34463691Y-179154265D01*
X34463691Y-178452665D01*
X35065291Y-178452665D01*
X35065291Y-179154265D01*
X35065291Y-179154265D01*
G37*
G36*
X49450800Y-179150800D02*
X48449200Y-179150800D01*
X48449200Y-177849200D01*
X49450800Y-177849200D01*
X49450800Y-179150800D01*
X49450800Y-179150800D01*
G37*
G36*
X44050800Y-179150800D02*
X43049200Y-179150800D01*
X43049200Y-177849200D01*
X44050800Y-177849200D01*
X44050800Y-179150800D01*
X44050800Y-179150800D01*
G37*
G36*
X65550800Y-179025800D02*
X64249200Y-179025800D01*
X64249200Y-178174200D01*
X65550800Y-178174200D01*
X65550800Y-179025800D01*
X65550800Y-179025800D01*
G37*
G36*
X67450800Y-179025800D02*
X66149200Y-179025800D01*
X66149200Y-178174200D01*
X67450800Y-178174200D01*
X67450800Y-179025800D01*
X67450800Y-179025800D01*
G37*
G36*
X42340291Y-179004265D02*
X41488691Y-179004265D01*
X41488691Y-177702665D01*
X42340291Y-177702665D01*
X42340291Y-179004265D01*
X42340291Y-179004265D01*
G37*
G36*
X50975800Y-179000800D02*
X50124200Y-179000800D01*
X50124200Y-177699200D01*
X50975800Y-177699200D01*
X50975800Y-179000800D01*
X50975800Y-179000800D01*
G37*
G36*
X31665291Y-178854265D02*
X30763691Y-178854265D01*
X30763691Y-176852665D01*
X31665291Y-176852665D01*
X31665291Y-178854265D01*
X31665291Y-178854265D01*
G37*
G36*
X80900800Y-178800800D02*
X79599200Y-178800800D01*
X79599200Y-177799200D01*
X80900800Y-177799200D01*
X80900800Y-178800800D01*
X80900800Y-178800800D01*
G37*
G36*
X76600800Y-178800800D02*
X75299200Y-178800800D01*
X75299200Y-177799200D01*
X76600800Y-177799200D01*
X76600800Y-178800800D01*
X76600800Y-178800800D01*
G37*
G36*
X78700800Y-178800800D02*
X77399200Y-178800800D01*
X77399200Y-177799200D01*
X78700800Y-177799200D01*
X78700800Y-178800800D01*
X78700800Y-178800800D01*
G37*
G36*
X74400800Y-178800800D02*
X73099200Y-178800800D01*
X73099200Y-177799200D01*
X74400800Y-177799200D01*
X74400800Y-178800800D01*
X74400800Y-178800800D01*
G37*
G36*
X60900800Y-178475800D02*
X59299200Y-178475800D01*
X59299200Y-177124200D01*
X60900800Y-177124200D01*
X60900800Y-178475800D01*
X60900800Y-178475800D01*
G37*
G36*
X58400800Y-178475800D02*
X56799200Y-178475800D01*
X56799200Y-177124200D01*
X58400800Y-177124200D01*
X58400800Y-178475800D01*
X58400800Y-178475800D01*
G37*
G36*
X72400800Y-178100800D02*
X71099200Y-178100800D01*
X71099200Y-177099200D01*
X72400800Y-177099200D01*
X72400800Y-178100800D01*
X72400800Y-178100800D01*
G37*
G36*
X70200800Y-178100800D02*
X68899200Y-178100800D01*
X68899200Y-177099200D01*
X70200800Y-177099200D01*
X70200800Y-178100800D01*
X70200800Y-178100800D01*
G37*
G36*
X37865291Y-178029265D02*
X36563691Y-178029265D01*
X36563691Y-177177665D01*
X37865291Y-177177665D01*
X37865291Y-178029265D01*
X37865291Y-178029265D01*
G37*
G36*
X39765291Y-178029265D02*
X38463691Y-178029265D01*
X38463691Y-177177665D01*
X39765291Y-177177665D01*
X39765291Y-178029265D01*
X39765291Y-178029265D01*
G37*
G36*
X35115291Y-178004265D02*
X34413691Y-178004265D01*
X34413691Y-177502665D01*
X35115291Y-177502665D01*
X35115291Y-178004265D01*
X35115291Y-178004265D01*
G37*
G36*
X42340291Y-177104265D02*
X41488691Y-177104265D01*
X41488691Y-175802665D01*
X42340291Y-175802665D01*
X42340291Y-177104265D01*
X42340291Y-177104265D01*
G37*
G36*
X35115291Y-177104265D02*
X34413691Y-177104265D01*
X34413691Y-176602665D01*
X35115291Y-176602665D01*
X35115291Y-177104265D01*
X35115291Y-177104265D01*
G37*
G36*
X50975800Y-177100800D02*
X50124200Y-177100800D01*
X50124200Y-175799200D01*
X50975800Y-175799200D01*
X50975800Y-177100800D01*
X50975800Y-177100800D01*
G37*
G36*
X45925800Y-177050800D02*
X44574200Y-177050800D01*
X44574200Y-175449200D01*
X45925800Y-175449200D01*
X45925800Y-177050800D01*
X45925800Y-177050800D01*
G37*
G36*
X47550800Y-177050800D02*
X46549200Y-177050800D01*
X46549200Y-175749200D01*
X47550800Y-175749200D01*
X47550800Y-177050800D01*
X47550800Y-177050800D01*
G37*
G36*
X44050800Y-176950800D02*
X43049200Y-176950800D01*
X43049200Y-175649200D01*
X44050800Y-175649200D01*
X44050800Y-176950800D01*
X44050800Y-176950800D01*
G37*
G36*
X49450800Y-176950800D02*
X48449200Y-176950800D01*
X48449200Y-175649200D01*
X49450800Y-175649200D01*
X49450800Y-176950800D01*
X49450800Y-176950800D01*
G37*
G36*
X63550800Y-176650800D02*
X62549200Y-176650800D01*
X62549200Y-175349200D01*
X63550800Y-175349200D01*
X63550800Y-176650800D01*
X63550800Y-176650800D01*
G37*
G36*
X65125800Y-176550800D02*
X64274200Y-176550800D01*
X64274200Y-175249200D01*
X65125800Y-175249200D01*
X65125800Y-176550800D01*
X65125800Y-176550800D01*
G37*
G36*
X37865291Y-176454265D02*
X36563691Y-176454265D01*
X36563691Y-175452665D01*
X37865291Y-175452665D01*
X37865291Y-176454265D01*
X37865291Y-176454265D01*
G37*
G36*
X40065291Y-176454265D02*
X38763691Y-176454265D01*
X38763691Y-175452665D01*
X40065291Y-175452665D01*
X40065291Y-176454265D01*
X40065291Y-176454265D01*
G37*
G36*
X61350800Y-176200800D02*
X59349200Y-176200800D01*
X59349200Y-175299200D01*
X61350800Y-175299200D01*
X61350800Y-176200800D01*
X61350800Y-176200800D01*
G37*
G36*
X35015291Y-176154265D02*
X34413691Y-176154265D01*
X34413691Y-175452665D01*
X35015291Y-175452665D01*
X35015291Y-176154265D01*
X35015291Y-176154265D01*
G37*
G36*
X74300000Y-175875000D02*
X72600000Y-175875000D01*
X72600000Y-175425000D01*
X74300000Y-175425000D01*
X74300000Y-175875000D01*
X74300000Y-175875000D01*
G37*
G36*
X68700000Y-175875000D02*
X67000000Y-175875000D01*
X67000000Y-175425000D01*
X68700000Y-175425000D01*
X68700000Y-175875000D01*
X68700000Y-175875000D01*
G37*
G36*
X32565291Y-175854265D02*
X31663691Y-175854265D01*
X31663691Y-173852665D01*
X32565291Y-173852665D01*
X32565291Y-175854265D01*
X32565291Y-175854265D01*
G37*
G36*
X30665291Y-175854265D02*
X29763691Y-175854265D01*
X29763691Y-173852665D01*
X30665291Y-173852665D01*
X30665291Y-175854265D01*
X30665291Y-175854265D01*
G37*
G36*
X82050800Y-175500800D02*
X81049200Y-175500800D01*
X81049200Y-174199200D01*
X82050800Y-174199200D01*
X82050800Y-175500800D01*
X82050800Y-175500800D01*
G37*
G36*
X79825800Y-175350800D02*
X78974200Y-175350800D01*
X78974200Y-174049200D01*
X79825800Y-174049200D01*
X79825800Y-175350800D01*
X79825800Y-175350800D01*
G37*
G36*
X76975800Y-175300800D02*
X76124200Y-175300800D01*
X76124200Y-173999200D01*
X76975800Y-173999200D01*
X76975800Y-175300800D01*
X76975800Y-175300800D01*
G37*
G36*
X58350800Y-175250800D02*
X56349200Y-175250800D01*
X56349200Y-174349200D01*
X58350800Y-174349200D01*
X58350800Y-175250800D01*
X58350800Y-175250800D01*
G37*
G36*
X68700000Y-175225000D02*
X67000000Y-175225000D01*
X67000000Y-174775000D01*
X68700000Y-174775000D01*
X68700000Y-175225000D01*
X68700000Y-175225000D01*
G37*
G36*
X74300000Y-175225000D02*
X72600000Y-175225000D01*
X72600000Y-174775000D01*
X74300000Y-174775000D01*
X74300000Y-175225000D01*
X74300000Y-175225000D01*
G37*
G36*
X35015291Y-175054265D02*
X34413691Y-175054265D01*
X34413691Y-174352665D01*
X35015291Y-174352665D01*
X35015291Y-175054265D01*
X35015291Y-175054265D01*
G37*
G36*
X39733586Y-173104974D02*
X39879319Y-173165338D01*
X40010482Y-173252979D01*
X40122021Y-173364518D01*
X40209662Y-173495681D01*
X40270026Y-173641414D01*
X40300800Y-173796128D01*
X40300800Y-173953872D01*
X40270026Y-174108586D01*
X40209662Y-174254319D01*
X40122021Y-174385482D01*
X40010482Y-174497021D01*
X39879319Y-174584662D01*
X39733586Y-174645026D01*
X39578872Y-174675800D01*
X39421128Y-174675800D01*
X39266414Y-174645026D01*
X39120681Y-174584662D01*
X38989518Y-174497021D01*
X38877979Y-174385482D01*
X38790338Y-174254319D01*
X38729974Y-174108586D01*
X38699200Y-173953872D01*
X38699200Y-173796128D01*
X38729974Y-173641414D01*
X38790338Y-173495681D01*
X38877979Y-173364518D01*
X38989518Y-173252979D01*
X39120681Y-173165338D01*
X39266414Y-173104974D01*
X39421128Y-173074200D01*
X39578872Y-173074200D01*
X39733586Y-173104974D01*
X39733586Y-173104974D01*
G37*
G36*
X65125800Y-174650800D02*
X64274200Y-174650800D01*
X64274200Y-173349200D01*
X65125800Y-173349200D01*
X65125800Y-174650800D01*
X65125800Y-174650800D01*
G37*
G36*
X74300000Y-174575000D02*
X72600000Y-174575000D01*
X72600000Y-174125000D01*
X74300000Y-174125000D01*
X74300000Y-174575000D01*
X74300000Y-174575000D01*
G37*
G36*
X68700000Y-174575000D02*
X67000000Y-174575000D01*
X67000000Y-174125000D01*
X68700000Y-174125000D01*
X68700000Y-174575000D01*
X68700000Y-174575000D01*
G37*
G36*
X63550800Y-174450800D02*
X62549200Y-174450800D01*
X62549200Y-173149200D01*
X63550800Y-173149200D01*
X63550800Y-174450800D01*
X63550800Y-174450800D01*
G37*
G36*
X87358586Y-172854974D02*
X87504319Y-172915338D01*
X87635482Y-173002979D01*
X87747021Y-173114518D01*
X87834662Y-173245681D01*
X87895026Y-173391414D01*
X87925800Y-173546128D01*
X87925800Y-173703872D01*
X87895026Y-173858586D01*
X87834662Y-174004319D01*
X87747021Y-174135482D01*
X87635482Y-174247021D01*
X87504319Y-174334662D01*
X87358586Y-174395026D01*
X87203872Y-174425800D01*
X87046128Y-174425800D01*
X86891414Y-174395026D01*
X86745681Y-174334662D01*
X86614518Y-174247021D01*
X86502979Y-174135482D01*
X86415338Y-174004319D01*
X86354974Y-173858586D01*
X86324200Y-173703872D01*
X86324200Y-173546128D01*
X86354974Y-173391414D01*
X86415338Y-173245681D01*
X86502979Y-173114518D01*
X86614518Y-173002979D01*
X86745681Y-172915338D01*
X86891414Y-172854974D01*
X87046128Y-172824200D01*
X87203872Y-172824200D01*
X87358586Y-172854974D01*
X87358586Y-172854974D01*
G37*
G36*
X78400800Y-174350800D02*
X77699200Y-174350800D01*
X77699200Y-173849200D01*
X78400800Y-173849200D01*
X78400800Y-174350800D01*
X78400800Y-174350800D01*
G37*
G36*
X61350800Y-174300800D02*
X59349200Y-174300800D01*
X59349200Y-173399200D01*
X61350800Y-173399200D01*
X61350800Y-174300800D01*
X61350800Y-174300800D01*
G37*
G36*
X74300000Y-173925000D02*
X72600000Y-173925000D01*
X72600000Y-173475000D01*
X74300000Y-173475000D01*
X74300000Y-173925000D01*
X74300000Y-173925000D01*
G37*
G36*
X68700000Y-173925000D02*
X67000000Y-173925000D01*
X67000000Y-173475000D01*
X68700000Y-173475000D01*
X68700000Y-173925000D01*
X68700000Y-173925000D01*
G37*
G36*
X84183586Y-172329974D02*
X84329319Y-172390338D01*
X84460482Y-172477979D01*
X84572021Y-172589518D01*
X84659662Y-172720681D01*
X84720026Y-172866414D01*
X84750800Y-173021128D01*
X84750800Y-173178872D01*
X84720026Y-173333586D01*
X84659662Y-173479319D01*
X84572021Y-173610482D01*
X84460482Y-173722021D01*
X84329319Y-173809662D01*
X84183586Y-173870026D01*
X84028872Y-173900800D01*
X83871128Y-173900800D01*
X83716414Y-173870026D01*
X83570681Y-173809662D01*
X83439518Y-173722021D01*
X83327979Y-173610482D01*
X83240338Y-173479319D01*
X83179974Y-173333586D01*
X83149200Y-173178872D01*
X83149200Y-173021128D01*
X83179974Y-172866414D01*
X83240338Y-172720681D01*
X83327979Y-172589518D01*
X83439518Y-172477979D01*
X83570681Y-172390338D01*
X83716414Y-172329974D01*
X83871128Y-172299200D01*
X84028872Y-172299200D01*
X84183586Y-172329974D01*
X84183586Y-172329974D01*
G37*
G36*
X49550800Y-173825800D02*
X48249200Y-173825800D01*
X48249200Y-172974200D01*
X49550800Y-172974200D01*
X49550800Y-173825800D01*
X49550800Y-173825800D01*
G37*
G36*
X51450800Y-173825800D02*
X50149200Y-173825800D01*
X50149200Y-172974200D01*
X51450800Y-172974200D01*
X51450800Y-173825800D01*
X51450800Y-173825800D01*
G37*
G36*
X35690291Y-173704265D02*
X34338691Y-173704265D01*
X34338691Y-172102665D01*
X35690291Y-172102665D01*
X35690291Y-173704265D01*
X35690291Y-173704265D01*
G37*
G36*
X78400800Y-173450800D02*
X77699200Y-173450800D01*
X77699200Y-172949200D01*
X78400800Y-172949200D01*
X78400800Y-173450800D01*
X78400800Y-173450800D01*
G37*
G36*
X79825800Y-173450800D02*
X78974200Y-173450800D01*
X78974200Y-172149200D01*
X79825800Y-172149200D01*
X79825800Y-173450800D01*
X79825800Y-173450800D01*
G37*
G36*
X76975800Y-173400800D02*
X76124200Y-173400800D01*
X76124200Y-172099200D01*
X76975800Y-172099200D01*
X76975800Y-173400800D01*
X76975800Y-173400800D01*
G37*
G36*
X82050800Y-173300800D02*
X81049200Y-173300800D01*
X81049200Y-171999200D01*
X82050800Y-171999200D01*
X82050800Y-173300800D01*
X82050800Y-173300800D01*
G37*
G36*
X74300000Y-173275000D02*
X72600000Y-173275000D01*
X72600000Y-172825000D01*
X74300000Y-172825000D01*
X74300000Y-173275000D01*
X74300000Y-173275000D01*
G37*
G36*
X68700000Y-173275000D02*
X67000000Y-173275000D01*
X67000000Y-172825000D01*
X68700000Y-172825000D01*
X68700000Y-173275000D01*
X68700000Y-173275000D01*
G37*
G36*
X54958586Y-171404974D02*
X55104319Y-171465338D01*
X55235482Y-171552979D01*
X55347021Y-171664518D01*
X55434662Y-171795681D01*
X55495026Y-171941414D01*
X55525800Y-172096128D01*
X55525800Y-172253872D01*
X55495026Y-172408586D01*
X55434662Y-172554319D01*
X55347021Y-172685482D01*
X55235482Y-172797021D01*
X55104319Y-172884662D01*
X54958586Y-172945026D01*
X54803872Y-172975800D01*
X54646128Y-172975800D01*
X54491414Y-172945026D01*
X54345681Y-172884662D01*
X54214518Y-172797021D01*
X54102979Y-172685482D01*
X54015338Y-172554319D01*
X53954974Y-172408586D01*
X53924200Y-172253872D01*
X53924200Y-172096128D01*
X53954974Y-171941414D01*
X54015338Y-171795681D01*
X54102979Y-171664518D01*
X54214518Y-171552979D01*
X54345681Y-171465338D01*
X54491414Y-171404974D01*
X54646128Y-171374200D01*
X54803872Y-171374200D01*
X54958586Y-171404974D01*
X54958586Y-171404974D01*
G37*
G36*
X31615291Y-172854265D02*
X30713691Y-172854265D01*
X30713691Y-170852665D01*
X31615291Y-170852665D01*
X31615291Y-172854265D01*
X31615291Y-172854265D01*
G37*
G36*
X74300000Y-172625000D02*
X72600000Y-172625000D01*
X72600000Y-172175000D01*
X74300000Y-172175000D01*
X74300000Y-172625000D01*
X74300000Y-172625000D01*
G37*
G36*
X68700000Y-172625000D02*
X67000000Y-172625000D01*
X67000000Y-172175000D01*
X68700000Y-172175000D01*
X68700000Y-172625000D01*
X68700000Y-172625000D01*
G37*
G36*
X59500800Y-172025800D02*
X58199200Y-172025800D01*
X58199200Y-171174200D01*
X59500800Y-171174200D01*
X59500800Y-172025800D01*
X59500800Y-172025800D01*
G37*
G36*
X61400800Y-172025800D02*
X60099200Y-172025800D01*
X60099200Y-171174200D01*
X61400800Y-171174200D01*
X61400800Y-172025800D01*
X61400800Y-172025800D01*
G37*
G36*
X49150800Y-172000800D02*
X48549200Y-172000800D01*
X48549200Y-171299200D01*
X49150800Y-171299200D01*
X49150800Y-172000800D01*
X49150800Y-172000800D01*
G37*
G36*
X68700000Y-171975000D02*
X67000000Y-171975000D01*
X67000000Y-171525000D01*
X68700000Y-171525000D01*
X68700000Y-171975000D01*
X68700000Y-171975000D01*
G37*
G36*
X74300000Y-171975000D02*
X72600000Y-171975000D01*
X72600000Y-171525000D01*
X74300000Y-171525000D01*
X74300000Y-171975000D01*
X74300000Y-171975000D01*
G37*
G36*
X35690291Y-171204265D02*
X34338691Y-171204265D01*
X34338691Y-169602665D01*
X35690291Y-169602665D01*
X35690291Y-171204265D01*
X35690291Y-171204265D01*
G37*
G36*
X49150800Y-170900800D02*
X48549200Y-170900800D01*
X48549200Y-170199200D01*
X49150800Y-170199200D01*
X49150800Y-170900800D01*
X49150800Y-170900800D01*
G37*
G36*
X45433586Y-168979974D02*
X45579319Y-169040338D01*
X45710482Y-169127979D01*
X45822021Y-169239518D01*
X45909662Y-169370681D01*
X45970026Y-169516414D01*
X46000800Y-169671128D01*
X46000800Y-169828872D01*
X45970026Y-169983586D01*
X45909662Y-170129319D01*
X45822021Y-170260482D01*
X45710482Y-170372021D01*
X45579319Y-170459662D01*
X45433586Y-170520026D01*
X45278872Y-170550800D01*
X45121128Y-170550800D01*
X44966414Y-170520026D01*
X44820681Y-170459662D01*
X44689518Y-170372021D01*
X44577979Y-170260482D01*
X44490338Y-170129319D01*
X44429974Y-169983586D01*
X44399200Y-169828872D01*
X44399200Y-169671128D01*
X44429974Y-169516414D01*
X44490338Y-169370681D01*
X44577979Y-169239518D01*
X44689518Y-169127979D01*
X44820681Y-169040338D01*
X44966414Y-168979974D01*
X45121128Y-168949200D01*
X45278872Y-168949200D01*
X45433586Y-168979974D01*
X45433586Y-168979974D01*
G37*
G36*
X42008586Y-168679974D02*
X42154319Y-168740338D01*
X42285482Y-168827979D01*
X42397021Y-168939518D01*
X42484662Y-169070681D01*
X42545026Y-169216414D01*
X42575800Y-169371128D01*
X42575800Y-169528872D01*
X42545026Y-169683586D01*
X42484662Y-169829319D01*
X42397021Y-169960482D01*
X42285482Y-170072021D01*
X42154319Y-170159662D01*
X42008586Y-170220026D01*
X41853872Y-170250800D01*
X41696128Y-170250800D01*
X41541414Y-170220026D01*
X41395681Y-170159662D01*
X41264518Y-170072021D01*
X41152979Y-169960482D01*
X41065338Y-169829319D01*
X41004974Y-169683586D01*
X40974200Y-169528872D01*
X40974200Y-169371128D01*
X41004974Y-169216414D01*
X41065338Y-169070681D01*
X41152979Y-168939518D01*
X41264518Y-168827979D01*
X41395681Y-168740338D01*
X41541414Y-168679974D01*
X41696128Y-168649200D01*
X41853872Y-168649200D01*
X42008586Y-168679974D01*
X42008586Y-168679974D01*
G37*
G36*
X70200800Y-170225800D02*
X68599200Y-170225800D01*
X68599200Y-168874200D01*
X70200800Y-168874200D01*
X70200800Y-170225800D01*
X70200800Y-170225800D01*
G37*
G36*
X72700800Y-170225800D02*
X71099200Y-170225800D01*
X71099200Y-168874200D01*
X72700800Y-168874200D01*
X72700800Y-170225800D01*
X72700800Y-170225800D01*
G37*
G36*
X30865291Y-169654265D02*
X29563691Y-169654265D01*
X29563691Y-168652665D01*
X30865291Y-168652665D01*
X30865291Y-169654265D01*
X30865291Y-169654265D01*
G37*
G36*
X33065291Y-169654265D02*
X31763691Y-169654265D01*
X31763691Y-168652665D01*
X33065291Y-168652665D01*
X33065291Y-169654265D01*
X33065291Y-169654265D01*
G37*
G36*
X49350800Y-169550800D02*
X48349200Y-169550800D01*
X48349200Y-168249200D01*
X49350800Y-168249200D01*
X49350800Y-169550800D01*
X49350800Y-169550800D01*
G37*
G36*
X51150800Y-169550800D02*
X50149200Y-169550800D01*
X50149200Y-168249200D01*
X51150800Y-168249200D01*
X51150800Y-169550800D01*
X51150800Y-169550800D01*
G37*
G36*
X52775800Y-169300800D02*
X51924200Y-169300800D01*
X51924200Y-167999200D01*
X52775800Y-167999200D01*
X52775800Y-169300800D01*
X52775800Y-169300800D01*
G37*
G36*
X81455000Y-168200000D02*
X80755000Y-168200000D01*
X80755000Y-166500000D01*
X81455000Y-166500000D01*
X81455000Y-168200000D01*
X81455000Y-168200000D01*
G37*
G36*
X77645000Y-168200000D02*
X76945000Y-168200000D01*
X76945000Y-166500000D01*
X77645000Y-166500000D01*
X77645000Y-168200000D01*
X77645000Y-168200000D01*
G37*
G36*
X78915000Y-168200000D02*
X78215000Y-168200000D01*
X78215000Y-166500000D01*
X78915000Y-166500000D01*
X78915000Y-168200000D01*
X78915000Y-168200000D01*
G37*
G36*
X80185000Y-168200000D02*
X79485000Y-168200000D01*
X79485000Y-166500000D01*
X80185000Y-166500000D01*
X80185000Y-168200000D01*
X80185000Y-168200000D01*
G37*
G36*
X72450800Y-168150800D02*
X71149200Y-168150800D01*
X71149200Y-167149200D01*
X72450800Y-167149200D01*
X72450800Y-168150800D01*
X72450800Y-168150800D01*
G37*
G36*
X70250800Y-168150800D02*
X68949200Y-168150800D01*
X68949200Y-167149200D01*
X70250800Y-167149200D01*
X70250800Y-168150800D01*
X70250800Y-168150800D01*
G37*
G36*
X86626582Y-166342233D02*
X86626584Y-166342234D01*
X86626588Y-166342234D01*
X86796389Y-166393743D01*
X86898370Y-166448253D01*
X86952880Y-166477389D01*
X87090043Y-166589957D01*
X87202611Y-166727120D01*
X87231747Y-166781630D01*
X87286257Y-166883611D01*
X87337766Y-167053412D01*
X87337766Y-167053416D01*
X87337767Y-167053418D01*
X87355159Y-167230000D01*
X87343261Y-167350800D01*
X87337766Y-167406588D01*
X87286257Y-167576389D01*
X87235140Y-167672021D01*
X87202611Y-167732880D01*
X87090043Y-167870043D01*
X86952880Y-167982611D01*
X86898370Y-168011747D01*
X86796389Y-168066257D01*
X86626588Y-168117766D01*
X86626584Y-168117766D01*
X86626582Y-168117767D01*
X86494255Y-168130800D01*
X86405745Y-168130800D01*
X86273418Y-168117767D01*
X86273416Y-168117766D01*
X86273412Y-168117766D01*
X86103611Y-168066257D01*
X86001630Y-168011747D01*
X85947120Y-167982611D01*
X85809957Y-167870043D01*
X85697389Y-167732880D01*
X85664860Y-167672021D01*
X85613743Y-167576389D01*
X85562234Y-167406588D01*
X85556739Y-167350800D01*
X85544841Y-167230000D01*
X85562233Y-167053418D01*
X85562234Y-167053416D01*
X85562234Y-167053412D01*
X85613743Y-166883611D01*
X85668253Y-166781630D01*
X85697389Y-166727120D01*
X85809957Y-166589957D01*
X85947120Y-166477389D01*
X86001630Y-166448253D01*
X86103611Y-166393743D01*
X86273412Y-166342234D01*
X86273416Y-166342234D01*
X86273418Y-166342233D01*
X86405745Y-166329200D01*
X86494255Y-166329200D01*
X86626582Y-166342233D01*
X86626582Y-166342233D01*
G37*
G36*
X83108586Y-166279974D02*
X83254319Y-166340338D01*
X83385482Y-166427979D01*
X83497021Y-166539518D01*
X83584662Y-166670681D01*
X83645026Y-166816414D01*
X83675800Y-166971128D01*
X83675800Y-167128872D01*
X83645026Y-167283586D01*
X83584662Y-167429319D01*
X83497021Y-167560482D01*
X83385482Y-167672021D01*
X83254319Y-167759662D01*
X83108586Y-167820026D01*
X82953872Y-167850800D01*
X82796128Y-167850800D01*
X82641414Y-167820026D01*
X82495681Y-167759662D01*
X82364518Y-167672021D01*
X82252979Y-167560482D01*
X82165338Y-167429319D01*
X82104974Y-167283586D01*
X82074200Y-167128872D01*
X82074200Y-166971128D01*
X82104974Y-166816414D01*
X82165338Y-166670681D01*
X82252979Y-166539518D01*
X82364518Y-166427979D01*
X82495681Y-166340338D01*
X82641414Y-166279974D01*
X82796128Y-166249200D01*
X82953872Y-166249200D01*
X83108586Y-166279974D01*
X83108586Y-166279974D01*
G37*
G36*
X52775800Y-167400800D02*
X51924200Y-167400800D01*
X51924200Y-166099200D01*
X52775800Y-166099200D01*
X52775800Y-167400800D01*
X52775800Y-167400800D01*
G37*
G36*
X51150800Y-167350800D02*
X50149200Y-167350800D01*
X50149200Y-166049200D01*
X51150800Y-166049200D01*
X51150800Y-167350800D01*
X51150800Y-167350800D01*
G37*
G36*
X49350800Y-167350800D02*
X48349200Y-167350800D01*
X48349200Y-166049200D01*
X49350800Y-166049200D01*
X49350800Y-167350800D01*
X49350800Y-167350800D01*
G37*
G36*
X44502983Y-166874658D02*
X43201383Y-166874658D01*
X43201383Y-166023058D01*
X44502983Y-166023058D01*
X44502983Y-166874658D01*
X44502983Y-166874658D01*
G37*
G36*
X46402983Y-166874658D02*
X45101383Y-166874658D01*
X45101383Y-166023058D01*
X46402983Y-166023058D01*
X46402983Y-166874658D01*
X46402983Y-166874658D01*
G37*
G36*
X75625800Y-166150800D02*
X74774200Y-166150800D01*
X74774200Y-164849200D01*
X75625800Y-164849200D01*
X75625800Y-166150800D01*
X75625800Y-166150800D01*
G37*
G36*
X86626582Y-163802233D02*
X86626584Y-163802234D01*
X86626588Y-163802234D01*
X86796389Y-163853743D01*
X86898370Y-163908253D01*
X86952880Y-163937389D01*
X87090043Y-164049957D01*
X87202611Y-164187120D01*
X87231747Y-164241630D01*
X87286257Y-164343611D01*
X87337766Y-164513412D01*
X87337766Y-164513416D01*
X87337767Y-164513418D01*
X87355159Y-164690000D01*
X87339479Y-164849200D01*
X87337766Y-164866588D01*
X87286257Y-165036389D01*
X87231747Y-165138370D01*
X87202611Y-165192880D01*
X87090043Y-165330043D01*
X86952880Y-165442611D01*
X86937559Y-165450800D01*
X86796389Y-165526257D01*
X86626588Y-165577766D01*
X86626584Y-165577766D01*
X86626582Y-165577767D01*
X86494255Y-165590800D01*
X86405745Y-165590800D01*
X86273418Y-165577767D01*
X86273416Y-165577766D01*
X86273412Y-165577766D01*
X86103611Y-165526257D01*
X85962441Y-165450800D01*
X85947120Y-165442611D01*
X85809957Y-165330043D01*
X85697389Y-165192880D01*
X85668253Y-165138370D01*
X85613743Y-165036389D01*
X85562234Y-164866588D01*
X85560521Y-164849200D01*
X85544841Y-164690000D01*
X85562233Y-164513418D01*
X85562234Y-164513416D01*
X85562234Y-164513412D01*
X85613743Y-164343611D01*
X85668253Y-164241630D01*
X85697389Y-164187120D01*
X85809957Y-164049957D01*
X85947120Y-163937389D01*
X86001630Y-163908253D01*
X86103611Y-163853743D01*
X86273412Y-163802234D01*
X86273416Y-163802234D01*
X86273418Y-163802233D01*
X86405745Y-163789200D01*
X86494255Y-163789200D01*
X86626582Y-163802233D01*
X86626582Y-163802233D01*
G37*
G36*
X84300800Y-165450800D02*
X83599200Y-165450800D01*
X83599200Y-164949200D01*
X84300800Y-164949200D01*
X84300800Y-165450800D01*
X84300800Y-165450800D01*
G37*
G36*
X46452983Y-165149658D02*
X45151383Y-165149658D01*
X45151383Y-164148058D01*
X46452983Y-164148058D01*
X46452983Y-165149658D01*
X46452983Y-165149658D01*
G37*
G36*
X44252983Y-165149658D02*
X42951383Y-165149658D01*
X42951383Y-164148058D01*
X44252983Y-164148058D01*
X44252983Y-165149658D01*
X44252983Y-165149658D01*
G37*
G36*
X51100000Y-165075000D02*
X48600000Y-165075000D01*
X48600000Y-163525000D01*
X51100000Y-163525000D01*
X51100000Y-165075000D01*
X51100000Y-165075000D01*
G37*
G36*
X39400800Y-164625800D02*
X38099200Y-164625800D01*
X38099200Y-163774200D01*
X39400800Y-163774200D01*
X39400800Y-164625800D01*
X39400800Y-164625800D01*
G37*
G36*
X37500800Y-164625800D02*
X36199200Y-164625800D01*
X36199200Y-163774200D01*
X37500800Y-163774200D01*
X37500800Y-164625800D01*
X37500800Y-164625800D01*
G37*
G36*
X84300800Y-164550800D02*
X83599200Y-164550800D01*
X83599200Y-164049200D01*
X84300800Y-164049200D01*
X84300800Y-164550800D01*
X84300800Y-164550800D01*
G37*
G36*
X75625800Y-164250800D02*
X74774200Y-164250800D01*
X74774200Y-162949200D01*
X75625800Y-162949200D01*
X75625800Y-164250800D01*
X75625800Y-164250800D01*
G37*
G36*
X54275800Y-163800800D02*
X53424200Y-163800800D01*
X53424200Y-162499200D01*
X54275800Y-162499200D01*
X54275800Y-163800800D01*
X54275800Y-163800800D01*
G37*
G36*
X83258586Y-162204974D02*
X83404319Y-162265338D01*
X83535482Y-162352979D01*
X83647021Y-162464518D01*
X83734662Y-162595681D01*
X83795026Y-162741414D01*
X83825800Y-162896128D01*
X83825800Y-163053872D01*
X83795026Y-163208586D01*
X83734662Y-163354319D01*
X83647021Y-163485482D01*
X83535482Y-163597021D01*
X83404319Y-163684662D01*
X83258586Y-163745026D01*
X83103872Y-163775800D01*
X82946128Y-163775800D01*
X82791414Y-163745026D01*
X82645681Y-163684662D01*
X82514518Y-163597021D01*
X82402979Y-163485482D01*
X82315338Y-163354319D01*
X82254974Y-163208586D01*
X82224200Y-163053872D01*
X82224200Y-162896128D01*
X82254974Y-162741414D01*
X82315338Y-162595681D01*
X82402979Y-162464518D01*
X82514518Y-162352979D01*
X82645681Y-162265338D01*
X82791414Y-162204974D01*
X82946128Y-162174200D01*
X83103872Y-162174200D01*
X83258586Y-162204974D01*
X83258586Y-162204974D01*
G37*
G36*
X47275800Y-163600800D02*
X45924200Y-163600800D01*
X45924200Y-161999200D01*
X47275800Y-161999200D01*
X47275800Y-163600800D01*
X47275800Y-163600800D01*
G37*
G36*
X87350800Y-163050800D02*
X85549200Y-163050800D01*
X85549200Y-161249200D01*
X87350800Y-161249200D01*
X87350800Y-163050800D01*
X87350800Y-163050800D01*
G37*
G36*
X39600800Y-163000800D02*
X38299200Y-163000800D01*
X38299200Y-161999200D01*
X39600800Y-161999200D01*
X39600800Y-163000800D01*
X39600800Y-163000800D01*
G37*
G36*
X37400800Y-163000800D02*
X36099200Y-163000800D01*
X36099200Y-161999200D01*
X37400800Y-161999200D01*
X37400800Y-163000800D01*
X37400800Y-163000800D01*
G37*
G36*
X33400800Y-162925800D02*
X32099200Y-162925800D01*
X32099200Y-162074200D01*
X33400800Y-162074200D01*
X33400800Y-162925800D01*
X33400800Y-162925800D01*
G37*
G36*
X35300800Y-162925800D02*
X33999200Y-162925800D01*
X33999200Y-162074200D01*
X35300800Y-162074200D01*
X35300800Y-162925800D01*
X35300800Y-162925800D01*
G37*
G36*
X80185000Y-162800000D02*
X79485000Y-162800000D01*
X79485000Y-161100000D01*
X80185000Y-161100000D01*
X80185000Y-162800000D01*
X80185000Y-162800000D01*
G37*
G36*
X77645000Y-162800000D02*
X76945000Y-162800000D01*
X76945000Y-161100000D01*
X77645000Y-161100000D01*
X77645000Y-162800000D01*
X77645000Y-162800000D01*
G37*
G36*
X78915000Y-162800000D02*
X78215000Y-162800000D01*
X78215000Y-161100000D01*
X78915000Y-161100000D01*
X78915000Y-162800000D01*
X78915000Y-162800000D01*
G37*
G36*
X81455000Y-162800000D02*
X80755000Y-162800000D01*
X80755000Y-161100000D01*
X81455000Y-161100000D01*
X81455000Y-162800000D01*
X81455000Y-162800000D01*
G37*
G36*
X65700800Y-162600800D02*
X64399200Y-162600800D01*
X64399200Y-161599200D01*
X65700800Y-161599200D01*
X65700800Y-162600800D01*
X65700800Y-162600800D01*
G37*
G36*
X61400800Y-162600800D02*
X60099200Y-162600800D01*
X60099200Y-161599200D01*
X61400800Y-161599200D01*
X61400800Y-162600800D01*
X61400800Y-162600800D01*
G37*
G36*
X59200800Y-162600800D02*
X57899200Y-162600800D01*
X57899200Y-161599200D01*
X59200800Y-161599200D01*
X59200800Y-162600800D01*
X59200800Y-162600800D01*
G37*
G36*
X63500800Y-162600800D02*
X62199200Y-162600800D01*
X62199200Y-161599200D01*
X63500800Y-161599200D01*
X63500800Y-162600800D01*
X63500800Y-162600800D01*
G37*
G36*
X56180800Y-162525800D02*
X55649200Y-162525800D01*
X55649200Y-161874200D01*
X56180800Y-161874200D01*
X56180800Y-162525800D01*
X56180800Y-162525800D01*
G37*
G36*
X56850800Y-162525800D02*
X56339200Y-162525800D01*
X56339200Y-161874200D01*
X56850800Y-161874200D01*
X56850800Y-162525800D01*
X56850800Y-162525800D01*
G37*
G36*
X45150800Y-162450800D02*
X44549200Y-162450800D01*
X44549200Y-161749200D01*
X45150800Y-161749200D01*
X45150800Y-162450800D01*
X45150800Y-162450800D01*
G37*
G36*
X54275800Y-161900800D02*
X53424200Y-161900800D01*
X53424200Y-160599200D01*
X54275800Y-160599200D01*
X54275800Y-161900800D01*
X54275800Y-161900800D01*
G37*
G36*
X45150800Y-161350800D02*
X44549200Y-161350800D01*
X44549200Y-160649200D01*
X45150800Y-160649200D01*
X45150800Y-161350800D01*
X45150800Y-161350800D01*
G37*
G36*
X47275800Y-161100800D02*
X45924200Y-161100800D01*
X45924200Y-159499200D01*
X47275800Y-159499200D01*
X47275800Y-161100800D01*
X47275800Y-161100800D01*
G37*
G36*
X37450800Y-161100800D02*
X36149200Y-161100800D01*
X36149200Y-160099200D01*
X37450800Y-160099200D01*
X37450800Y-161100800D01*
X37450800Y-161100800D01*
G37*
G36*
X39650800Y-161100800D02*
X38349200Y-161100800D01*
X38349200Y-160099200D01*
X39650800Y-160099200D01*
X39650800Y-161100800D01*
X39650800Y-161100800D01*
G37*
G36*
X33450800Y-161025800D02*
X32149200Y-161025800D01*
X32149200Y-160174200D01*
X33450800Y-160174200D01*
X33450800Y-161025800D01*
X33450800Y-161025800D01*
G37*
G36*
X35350800Y-161025800D02*
X34049200Y-161025800D01*
X34049200Y-160174200D01*
X35350800Y-160174200D01*
X35350800Y-161025800D01*
X35350800Y-161025800D01*
G37*
G36*
X64600800Y-161000800D02*
X63699200Y-161000800D01*
X63699200Y-158999200D01*
X64600800Y-158999200D01*
X64600800Y-161000800D01*
X64600800Y-161000800D01*
G37*
G36*
X51100000Y-160675000D02*
X48600000Y-160675000D01*
X48600000Y-159125000D01*
X51100000Y-159125000D01*
X51100000Y-160675000D01*
X51100000Y-160675000D01*
G37*
G36*
X59300800Y-159500800D02*
X57999200Y-159500800D01*
X57999200Y-158499200D01*
X59300800Y-158499200D01*
X59300800Y-159500800D01*
X59300800Y-159500800D01*
G37*
G36*
X54550800Y-159500800D02*
X53249200Y-159500800D01*
X53249200Y-158499200D01*
X54550800Y-158499200D01*
X54550800Y-159500800D01*
X54550800Y-159500800D01*
G37*
G36*
X61500800Y-159500800D02*
X60199200Y-159500800D01*
X60199200Y-158499200D01*
X61500800Y-158499200D01*
X61500800Y-159500800D01*
X61500800Y-159500800D01*
G37*
G36*
X56750800Y-159500800D02*
X55449200Y-159500800D01*
X55449200Y-158499200D01*
X56750800Y-158499200D01*
X56750800Y-159500800D01*
X56750800Y-159500800D01*
G37*
G36*
X39500800Y-159450800D02*
X38199200Y-159450800D01*
X38199200Y-158449200D01*
X39500800Y-158449200D01*
X39500800Y-159450800D01*
X39500800Y-159450800D01*
G37*
G36*
X37300800Y-159450800D02*
X35999200Y-159450800D01*
X35999200Y-158449200D01*
X37300800Y-158449200D01*
X37300800Y-159450800D01*
X37300800Y-159450800D01*
G37*
G36*
X80850800Y-159250800D02*
X80149200Y-159250800D01*
X80149200Y-158649200D01*
X80850800Y-158649200D01*
X80850800Y-159250800D01*
X80850800Y-159250800D01*
G37*
G36*
X79750800Y-159250800D02*
X79049200Y-159250800D01*
X79049200Y-158649200D01*
X79750800Y-158649200D01*
X79750800Y-159250800D01*
X79750800Y-159250800D01*
G37*
G36*
X85300800Y-159150800D02*
X83999200Y-159150800D01*
X83999200Y-158149200D01*
X85300800Y-158149200D01*
X85300800Y-159150800D01*
X85300800Y-159150800D01*
G37*
G36*
X83100800Y-159150800D02*
X81799200Y-159150800D01*
X81799200Y-158149200D01*
X83100800Y-158149200D01*
X83100800Y-159150800D01*
X83100800Y-159150800D01*
G37*
G36*
X65550800Y-158000800D02*
X64649200Y-158000800D01*
X64649200Y-155999200D01*
X65550800Y-155999200D01*
X65550800Y-158000800D01*
X65550800Y-158000800D01*
G37*
G36*
X63650800Y-158000800D02*
X62749200Y-158000800D01*
X62749200Y-155999200D01*
X63650800Y-155999200D01*
X63650800Y-158000800D01*
X63650800Y-158000800D01*
G37*
G36*
X43950800Y-157950800D02*
X42949200Y-157950800D01*
X42949200Y-157049200D01*
X43950800Y-157049200D01*
X43950800Y-157950800D01*
X43950800Y-157950800D01*
G37*
G36*
X80650800Y-157900800D02*
X80149200Y-157900800D01*
X80149200Y-157199200D01*
X80650800Y-157199200D01*
X80650800Y-157900800D01*
X80650800Y-157900800D01*
G37*
G36*
X79750800Y-157900800D02*
X79249200Y-157900800D01*
X79249200Y-157199200D01*
X79750800Y-157199200D01*
X79750800Y-157900800D01*
X79750800Y-157900800D01*
G37*
G36*
X47100800Y-157750800D02*
X45799200Y-157750800D01*
X45799200Y-156749200D01*
X47100800Y-156749200D01*
X47100800Y-157750800D01*
X47100800Y-157750800D01*
G37*
G36*
X49300800Y-157750800D02*
X47999200Y-157750800D01*
X47999200Y-156749200D01*
X49300800Y-156749200D01*
X49300800Y-157750800D01*
X49300800Y-157750800D01*
G37*
G36*
X53800800Y-157650800D02*
X52499200Y-157650800D01*
X52499200Y-156649200D01*
X53800800Y-156649200D01*
X53800800Y-157650800D01*
X53800800Y-157650800D01*
G37*
G36*
X51600800Y-157650800D02*
X50299200Y-157650800D01*
X50299200Y-156649200D01*
X51600800Y-156649200D01*
X51600800Y-157650800D01*
X51600800Y-157650800D01*
G37*
G36*
X37400800Y-157600800D02*
X36099200Y-157600800D01*
X36099200Y-156599200D01*
X37400800Y-156599200D01*
X37400800Y-157600800D01*
X37400800Y-157600800D01*
G37*
G36*
X39600800Y-157600800D02*
X38299200Y-157600800D01*
X38299200Y-156599200D01*
X39600800Y-156599200D01*
X39600800Y-157600800D01*
X39600800Y-157600800D01*
G37*
G36*
X85200800Y-157275800D02*
X83899200Y-157275800D01*
X83899200Y-156424200D01*
X85200800Y-156424200D01*
X85200800Y-157275800D01*
X85200800Y-157275800D01*
G37*
G36*
X83300800Y-157275800D02*
X81999200Y-157275800D01*
X81999200Y-156424200D01*
X83300800Y-156424200D01*
X83300800Y-157275800D01*
X83300800Y-157275800D01*
G37*
G36*
X61500800Y-157000800D02*
X60199200Y-157000800D01*
X60199200Y-155999200D01*
X61500800Y-155999200D01*
X61500800Y-157000800D01*
X61500800Y-157000800D01*
G37*
G36*
X59300800Y-157000800D02*
X57999200Y-157000800D01*
X57999200Y-155999200D01*
X59300800Y-155999200D01*
X59300800Y-157000800D01*
X59300800Y-157000800D01*
G37*
G36*
X79750800Y-156600800D02*
X79249200Y-156600800D01*
X79249200Y-155899200D01*
X79750800Y-155899200D01*
X79750800Y-156600800D01*
X79750800Y-156600800D01*
G37*
G36*
X80650800Y-156600800D02*
X80149200Y-156600800D01*
X80149200Y-155899200D01*
X80650800Y-155899200D01*
X80650800Y-156600800D01*
X80650800Y-156600800D01*
G37*
G36*
X51750800Y-156025800D02*
X50449200Y-156025800D01*
X50449200Y-155174200D01*
X51750800Y-155174200D01*
X51750800Y-156025800D01*
X51750800Y-156025800D01*
G37*
G36*
X53650800Y-156025800D02*
X52349200Y-156025800D01*
X52349200Y-155174200D01*
X53650800Y-155174200D01*
X53650800Y-156025800D01*
X53650800Y-156025800D01*
G37*
G36*
X49300800Y-156000800D02*
X47999200Y-156000800D01*
X47999200Y-154999200D01*
X49300800Y-154999200D01*
X49300800Y-156000800D01*
X49300800Y-156000800D01*
G37*
G36*
X47100800Y-156000800D02*
X45799200Y-156000800D01*
X45799200Y-154999200D01*
X47100800Y-154999200D01*
X47100800Y-156000800D01*
X47100800Y-156000800D01*
G37*
G36*
X43950800Y-155650800D02*
X42949200Y-155650800D01*
X42949200Y-154749200D01*
X43950800Y-154749200D01*
X43950800Y-155650800D01*
X43950800Y-155650800D01*
G37*
G36*
X85150800Y-155375800D02*
X83849200Y-155375800D01*
X83849200Y-154524200D01*
X85150800Y-154524200D01*
X85150800Y-155375800D01*
X85150800Y-155375800D01*
G37*
G36*
X83250800Y-155375800D02*
X81949200Y-155375800D01*
X81949200Y-154524200D01*
X83250800Y-154524200D01*
X83250800Y-155375800D01*
X83250800Y-155375800D01*
G37*
G36*
X40383586Y-152954974D02*
X40529319Y-153015338D01*
X40660482Y-153102979D01*
X40772021Y-153214518D01*
X40859662Y-153345681D01*
X40920026Y-153491414D01*
X40950800Y-153646128D01*
X40950800Y-153803872D01*
X40920026Y-153958586D01*
X40859662Y-154104319D01*
X40772021Y-154235482D01*
X40660482Y-154347021D01*
X40529319Y-154434662D01*
X40383586Y-154495026D01*
X40228872Y-154525800D01*
X40071128Y-154525800D01*
X39916414Y-154495026D01*
X39770681Y-154434662D01*
X39639518Y-154347021D01*
X39527979Y-154235482D01*
X39440338Y-154104319D01*
X39379974Y-153958586D01*
X39349200Y-153803872D01*
X39349200Y-153646128D01*
X39379974Y-153491414D01*
X39440338Y-153345681D01*
X39527979Y-153214518D01*
X39639518Y-153102979D01*
X39770681Y-153015338D01*
X39916414Y-152954974D01*
X40071128Y-152924200D01*
X40228872Y-152924200D01*
X40383586Y-152954974D01*
X40383586Y-152954974D01*
G37*
G36*
X87171842Y-153853554D02*
X86675736Y-154349660D01*
X86250340Y-153924264D01*
X86746446Y-153428158D01*
X87171842Y-153853554D01*
X87171842Y-153853554D01*
G37*
G36*
X38500800Y-154250800D02*
X37899200Y-154250800D01*
X37899200Y-153549200D01*
X38500800Y-153549200D01*
X38500800Y-154250800D01*
X38500800Y-154250800D01*
G37*
G36*
X72050800Y-154050800D02*
X70349200Y-154050800D01*
X70349200Y-151349200D01*
X72050800Y-151349200D01*
X72050800Y-154050800D01*
X72050800Y-154050800D01*
G37*
G36*
X77600800Y-154050800D02*
X75899200Y-154050800D01*
X75899200Y-151349200D01*
X77600800Y-151349200D01*
X77600800Y-154050800D01*
X77600800Y-154050800D01*
G37*
G36*
X87949660Y-153075736D02*
X87453554Y-153571842D01*
X87028158Y-153146446D01*
X87524264Y-152650340D01*
X87949660Y-153075736D01*
X87949660Y-153075736D01*
G37*
G36*
X81160800Y-153205800D02*
X79839200Y-153205800D01*
X79839200Y-151854200D01*
X81160800Y-151854200D01*
X81160800Y-153205800D01*
X81160800Y-153205800D01*
G37*
G36*
X38500800Y-153150800D02*
X37899200Y-153150800D01*
X37899200Y-152449200D01*
X38500800Y-152449200D01*
X38500800Y-153150800D01*
X38500800Y-153150800D01*
G37*
G36*
X84090000Y-149929200D02*
X84090976Y-149939111D01*
X84093867Y-149948640D01*
X84098561Y-149957423D01*
X84104879Y-149965121D01*
X84112577Y-149971439D01*
X84121360Y-149976133D01*
X84130889Y-149979024D01*
X84140800Y-149980000D01*
X84159200Y-149980000D01*
X84169111Y-149979024D01*
X84178640Y-149976133D01*
X84187423Y-149971439D01*
X84195121Y-149965121D01*
X84201439Y-149957423D01*
X84206133Y-149948640D01*
X84209024Y-149939111D01*
X84210000Y-149929200D01*
X84210000Y-149430000D01*
X84590000Y-149430000D01*
X84590000Y-149929200D01*
X84590976Y-149939111D01*
X84593867Y-149948640D01*
X84598561Y-149957423D01*
X84604879Y-149965121D01*
X84612577Y-149971439D01*
X84621360Y-149976133D01*
X84630889Y-149979024D01*
X84640800Y-149980000D01*
X85045000Y-149980000D01*
X85045000Y-152520000D01*
X84640800Y-152520000D01*
X84630889Y-152520976D01*
X84621360Y-152523867D01*
X84612577Y-152528561D01*
X84604879Y-152534879D01*
X84598561Y-152542577D01*
X84593867Y-152551360D01*
X84590976Y-152560889D01*
X84590000Y-152570800D01*
X84590000Y-153070000D01*
X84210000Y-153070000D01*
X84210000Y-152570800D01*
X84209024Y-152560889D01*
X84206133Y-152551360D01*
X84201439Y-152542577D01*
X84195121Y-152534879D01*
X84187423Y-152528561D01*
X84178640Y-152523867D01*
X84169111Y-152520976D01*
X84159200Y-152520000D01*
X84140800Y-152520000D01*
X84130889Y-152520976D01*
X84121360Y-152523867D01*
X84112577Y-152528561D01*
X84104879Y-152534879D01*
X84098561Y-152542577D01*
X84093867Y-152551360D01*
X84090976Y-152560889D01*
X84090000Y-152570800D01*
X84090000Y-153070000D01*
X83710000Y-153070000D01*
X83710000Y-152570800D01*
X83709024Y-152560889D01*
X83706133Y-152551360D01*
X83701439Y-152542577D01*
X83695121Y-152534879D01*
X83687423Y-152528561D01*
X83678640Y-152523867D01*
X83669111Y-152520976D01*
X83659200Y-152520000D01*
X83255000Y-152520000D01*
X83255000Y-149980000D01*
X83659200Y-149980000D01*
X83669111Y-149979024D01*
X83678640Y-149976133D01*
X83687423Y-149971439D01*
X83695121Y-149965121D01*
X83701439Y-149957423D01*
X83706133Y-149948640D01*
X83709024Y-149939111D01*
X83710000Y-149929200D01*
X83710000Y-149430000D01*
X84090000Y-149430000D01*
X84090000Y-149929200D01*
X84090000Y-149929200D01*
G37*
G36*
X44100800Y-153000800D02*
X43499200Y-153000800D01*
X43499200Y-152299200D01*
X44100800Y-152299200D01*
X44100800Y-153000800D01*
X44100800Y-153000800D01*
G37*
G36*
X47800800Y-153000800D02*
X47199200Y-153000800D01*
X47199200Y-152299200D01*
X47800800Y-152299200D01*
X47800800Y-153000800D01*
X47800800Y-153000800D01*
G37*
G36*
X45350800Y-152800800D02*
X44649200Y-152800800D01*
X44649200Y-152299200D01*
X45350800Y-152299200D01*
X45350800Y-152800800D01*
X45350800Y-152800800D01*
G37*
G36*
X46650800Y-152800800D02*
X45949200Y-152800800D01*
X45949200Y-152299200D01*
X46650800Y-152299200D01*
X46650800Y-152800800D01*
X46650800Y-152800800D01*
G37*
G36*
X85920000Y-152440000D02*
X85180000Y-152440000D01*
X85180000Y-152060000D01*
X85920000Y-152060000D01*
X85920000Y-152440000D01*
X85920000Y-152440000D01*
G37*
G36*
X83120000Y-152440000D02*
X82380000Y-152440000D01*
X82380000Y-152060000D01*
X83120000Y-152060000D01*
X83120000Y-152440000D01*
X83120000Y-152440000D01*
G37*
G36*
X87575800Y-152050800D02*
X86724200Y-152050800D01*
X86724200Y-150749200D01*
X87575800Y-150749200D01*
X87575800Y-152050800D01*
X87575800Y-152050800D01*
G37*
G36*
X85920000Y-151940000D02*
X85180000Y-151940000D01*
X85180000Y-151560000D01*
X85920000Y-151560000D01*
X85920000Y-151940000D01*
X85920000Y-151940000D01*
G37*
G36*
X83120000Y-151940000D02*
X82380000Y-151940000D01*
X82380000Y-151560000D01*
X83120000Y-151560000D01*
X83120000Y-151940000D01*
X83120000Y-151940000D01*
G37*
G36*
X46650800Y-151900800D02*
X45949200Y-151900800D01*
X45949200Y-151399200D01*
X46650800Y-151399200D01*
X46650800Y-151900800D01*
X46650800Y-151900800D01*
G37*
G36*
X47800800Y-151900800D02*
X47199200Y-151900800D01*
X47199200Y-151199200D01*
X47800800Y-151199200D01*
X47800800Y-151900800D01*
X47800800Y-151900800D01*
G37*
G36*
X44100800Y-151900800D02*
X43499200Y-151900800D01*
X43499200Y-151199200D01*
X44100800Y-151199200D01*
X44100800Y-151900800D01*
X44100800Y-151900800D01*
G37*
G36*
X45350800Y-151900800D02*
X44649200Y-151900800D01*
X44649200Y-151399200D01*
X45350800Y-151399200D01*
X45350800Y-151900800D01*
X45350800Y-151900800D01*
G37*
G36*
X35650800Y-151450800D02*
X34349200Y-151450800D01*
X34349200Y-150449200D01*
X35650800Y-150449200D01*
X35650800Y-151450800D01*
X35650800Y-151450800D01*
G37*
G36*
X33450800Y-151450800D02*
X32149200Y-151450800D01*
X32149200Y-150449200D01*
X33450800Y-150449200D01*
X33450800Y-151450800D01*
X33450800Y-151450800D01*
G37*
G36*
X37850800Y-151450800D02*
X36549200Y-151450800D01*
X36549200Y-150449200D01*
X37850800Y-150449200D01*
X37850800Y-151450800D01*
X37850800Y-151450800D01*
G37*
G36*
X31250800Y-151450800D02*
X29949200Y-151450800D01*
X29949200Y-150449200D01*
X31250800Y-150449200D01*
X31250800Y-151450800D01*
X31250800Y-151450800D01*
G37*
G36*
X85920000Y-151440000D02*
X85180000Y-151440000D01*
X85180000Y-151060000D01*
X85920000Y-151060000D01*
X85920000Y-151440000D01*
X85920000Y-151440000D01*
G37*
G36*
X83120000Y-151440000D02*
X82380000Y-151440000D01*
X82380000Y-151060000D01*
X83120000Y-151060000D01*
X83120000Y-151440000D01*
X83120000Y-151440000D01*
G37*
G36*
X85920000Y-150940000D02*
X85180000Y-150940000D01*
X85180000Y-150560000D01*
X85920000Y-150560000D01*
X85920000Y-150940000D01*
X85920000Y-150940000D01*
G37*
G36*
X83120000Y-150940000D02*
X82380000Y-150940000D01*
X82380000Y-150560000D01*
X83120000Y-150560000D01*
X83120000Y-150940000D01*
X83120000Y-150940000D01*
G37*
G36*
X77600800Y-150450800D02*
X75899200Y-150450800D01*
X75899200Y-147749200D01*
X77600800Y-147749200D01*
X77600800Y-150450800D01*
X77600800Y-150450800D01*
G37*
G36*
X72050800Y-150450800D02*
X70349200Y-150450800D01*
X70349200Y-147749200D01*
X72050800Y-147749200D01*
X72050800Y-150450800D01*
X72050800Y-150450800D01*
G37*
G36*
X83120000Y-150440000D02*
X82380000Y-150440000D01*
X82380000Y-150060000D01*
X83120000Y-150060000D01*
X83120000Y-150440000D01*
X83120000Y-150440000D01*
G37*
G36*
X85920000Y-150440000D02*
X85180000Y-150440000D01*
X85180000Y-150060000D01*
X85920000Y-150060000D01*
X85920000Y-150440000D01*
X85920000Y-150440000D01*
G37*
G36*
X52675800Y-150350800D02*
X51824200Y-150350800D01*
X51824200Y-149049200D01*
X52675800Y-149049200D01*
X52675800Y-150350800D01*
X52675800Y-150350800D01*
G37*
G36*
X81160800Y-150245800D02*
X79839200Y-150245800D01*
X79839200Y-148894200D01*
X81160800Y-148894200D01*
X81160800Y-150245800D01*
X81160800Y-150245800D01*
G37*
G36*
X87575800Y-150150800D02*
X86724200Y-150150800D01*
X86724200Y-148849200D01*
X87575800Y-148849200D01*
X87575800Y-150150800D01*
X87575800Y-150150800D01*
G37*
G36*
X49650000Y-149850000D02*
X48890000Y-149850000D01*
X48890000Y-149450000D01*
X49650000Y-149450000D01*
X49650000Y-149850000D01*
X49650000Y-149850000D01*
G37*
G36*
X47810000Y-149850000D02*
X47050000Y-149850000D01*
X47050000Y-149450000D01*
X47810000Y-149450000D01*
X47810000Y-149850000D01*
X47810000Y-149850000D01*
G37*
G36*
X33500800Y-149700800D02*
X32199200Y-149700800D01*
X32199200Y-148699200D01*
X33500800Y-148699200D01*
X33500800Y-149700800D01*
X33500800Y-149700800D01*
G37*
G36*
X31300800Y-149700800D02*
X29999200Y-149700800D01*
X29999200Y-148699200D01*
X31300800Y-148699200D01*
X31300800Y-149700800D01*
X31300800Y-149700800D01*
G37*
G36*
X37750800Y-149625800D02*
X36449200Y-149625800D01*
X36449200Y-148774200D01*
X37750800Y-148774200D01*
X37750800Y-149625800D01*
X37750800Y-149625800D01*
G37*
G36*
X35850800Y-149625800D02*
X34549200Y-149625800D01*
X34549200Y-148774200D01*
X35850800Y-148774200D01*
X35850800Y-149625800D01*
X35850800Y-149625800D01*
G37*
G36*
X47810000Y-149200000D02*
X47050000Y-149200000D01*
X47050000Y-148800000D01*
X47810000Y-148800000D01*
X47810000Y-149200000D01*
X47810000Y-149200000D01*
G37*
G36*
X49650000Y-149200000D02*
X48890000Y-149200000D01*
X48890000Y-148800000D01*
X49650000Y-148800000D01*
X49650000Y-149200000D01*
X49650000Y-149200000D01*
G37*
G36*
X49650000Y-148550000D02*
X48890000Y-148550000D01*
X48890000Y-148150000D01*
X49650000Y-148150000D01*
X49650000Y-148550000D01*
X49650000Y-148550000D01*
G37*
G36*
X47810000Y-148550000D02*
X47050000Y-148550000D01*
X47050000Y-148150000D01*
X47810000Y-148150000D01*
X47810000Y-148550000D01*
X47810000Y-148550000D01*
G37*
G36*
X52675800Y-148450800D02*
X51824200Y-148450800D01*
X51824200Y-147149200D01*
X52675800Y-147149200D01*
X52675800Y-148450800D01*
X52675800Y-148450800D01*
G37*
G36*
X62000800Y-148400800D02*
X60199200Y-148400800D01*
X60199200Y-146599200D01*
X62000800Y-146599200D01*
X62000800Y-148400800D01*
X62000800Y-148400800D01*
G37*
G36*
X81950800Y-148175800D02*
X80349200Y-148175800D01*
X80349200Y-146824200D01*
X81950800Y-146824200D01*
X81950800Y-148175800D01*
X81950800Y-148175800D01*
G37*
G36*
X84450800Y-148175800D02*
X82849200Y-148175800D01*
X82849200Y-146824200D01*
X84450800Y-146824200D01*
X84450800Y-148175800D01*
X84450800Y-148175800D01*
G37*
G36*
X86625800Y-147950800D02*
X85274200Y-147950800D01*
X85274200Y-146349200D01*
X86625800Y-146349200D01*
X86625800Y-147950800D01*
X86625800Y-147950800D01*
G37*
G36*
X33705800Y-147360800D02*
X32354200Y-147360800D01*
X32354200Y-146039200D01*
X33705800Y-146039200D01*
X33705800Y-147360800D01*
X33705800Y-147360800D01*
G37*
G36*
X35445800Y-147360800D02*
X34094200Y-147360800D01*
X34094200Y-146039200D01*
X35445800Y-146039200D01*
X35445800Y-147360800D01*
X35445800Y-147360800D01*
G37*
G36*
X38405800Y-147360800D02*
X37054200Y-147360800D01*
X37054200Y-146039200D01*
X38405800Y-146039200D01*
X38405800Y-147360800D01*
X38405800Y-147360800D01*
G37*
G36*
X30745800Y-147360800D02*
X29394200Y-147360800D01*
X29394200Y-146039200D01*
X30745800Y-146039200D01*
X30745800Y-147360800D01*
X30745800Y-147360800D01*
G37*
G36*
X87950800Y-146750800D02*
X87349200Y-146750800D01*
X87349200Y-146049200D01*
X87950800Y-146049200D01*
X87950800Y-146750800D01*
X87950800Y-146750800D01*
G37*
G36*
X80550800Y-146000800D02*
X78849200Y-146000800D01*
X78849200Y-143299200D01*
X80550800Y-143299200D01*
X80550800Y-146000800D01*
X80550800Y-146000800D01*
G37*
G36*
X61276582Y-144072233D02*
X61276584Y-144072234D01*
X61276588Y-144072234D01*
X61446389Y-144123743D01*
X61548370Y-144178253D01*
X61602880Y-144207389D01*
X61740043Y-144319957D01*
X61852611Y-144457120D01*
X61875958Y-144500800D01*
X61936257Y-144613611D01*
X61987766Y-144783412D01*
X61987766Y-144783416D01*
X61987767Y-144783418D01*
X62005159Y-144960000D01*
X61987767Y-145136582D01*
X61987766Y-145136588D01*
X61936257Y-145306389D01*
X61881747Y-145408370D01*
X61852611Y-145462880D01*
X61740043Y-145600043D01*
X61602880Y-145712611D01*
X61548370Y-145741747D01*
X61446389Y-145796257D01*
X61276588Y-145847766D01*
X61276584Y-145847766D01*
X61276582Y-145847767D01*
X61144255Y-145860800D01*
X61055745Y-145860800D01*
X60923418Y-145847767D01*
X60923416Y-145847766D01*
X60923412Y-145847766D01*
X60753611Y-145796257D01*
X60651630Y-145741747D01*
X60597120Y-145712611D01*
X60459957Y-145600043D01*
X60347389Y-145462880D01*
X60318253Y-145408370D01*
X60263743Y-145306389D01*
X60212234Y-145136588D01*
X60212233Y-145136582D01*
X60194841Y-144960000D01*
X60212233Y-144783418D01*
X60212234Y-144783416D01*
X60212234Y-144783412D01*
X60263743Y-144613611D01*
X60324042Y-144500800D01*
X60347389Y-144457120D01*
X60459957Y-144319957D01*
X60597120Y-144207389D01*
X60651630Y-144178253D01*
X60753611Y-144123743D01*
X60923412Y-144072234D01*
X60923416Y-144072234D01*
X60923418Y-144072233D01*
X61055745Y-144059200D01*
X61144255Y-144059200D01*
X61276582Y-144072233D01*
X61276582Y-144072233D01*
G37*
G36*
X58450800Y-145800800D02*
X57749200Y-145800800D01*
X57749200Y-145299200D01*
X58450800Y-145299200D01*
X58450800Y-145800800D01*
X58450800Y-145800800D01*
G37*
G36*
X87950800Y-145650800D02*
X87349200Y-145650800D01*
X87349200Y-144949200D01*
X87950800Y-144949200D01*
X87950800Y-145650800D01*
X87950800Y-145650800D01*
G37*
G36*
X86625800Y-145450800D02*
X85274200Y-145450800D01*
X85274200Y-143849200D01*
X86625800Y-143849200D01*
X86625800Y-145450800D01*
X86625800Y-145450800D01*
G37*
G36*
X58450800Y-144900800D02*
X57749200Y-144900800D01*
X57749200Y-144399200D01*
X58450800Y-144399200D01*
X58450800Y-144900800D01*
X58450800Y-144900800D01*
G37*
G36*
X32450800Y-144600800D02*
X31749200Y-144600800D01*
X31749200Y-143999200D01*
X32450800Y-143999200D01*
X32450800Y-144600800D01*
X32450800Y-144600800D01*
G37*
G36*
X31350800Y-144600800D02*
X30649200Y-144600800D01*
X30649200Y-143999200D01*
X31350800Y-143999200D01*
X31350800Y-144600800D01*
X31350800Y-144600800D01*
G37*
G36*
X37850800Y-144500800D02*
X36549200Y-144500800D01*
X36549200Y-143499200D01*
X37850800Y-143499200D01*
X37850800Y-144500800D01*
X37850800Y-144500800D01*
G37*
G36*
X35650800Y-144500800D02*
X34349200Y-144500800D01*
X34349200Y-143499200D01*
X35650800Y-143499200D01*
X35650800Y-144500800D01*
X35650800Y-144500800D01*
G37*
G36*
X76825800Y-143850800D02*
X75474200Y-143850800D01*
X75474200Y-142249200D01*
X76825800Y-142249200D01*
X76825800Y-143850800D01*
X76825800Y-143850800D01*
G37*
G36*
X58450800Y-143350800D02*
X57749200Y-143350800D01*
X57749200Y-142849200D01*
X58450800Y-142849200D01*
X58450800Y-143350800D01*
X58450800Y-143350800D01*
G37*
G36*
X61276582Y-141532233D02*
X61276584Y-141532234D01*
X61276588Y-141532234D01*
X61446389Y-141583743D01*
X61548370Y-141638253D01*
X61602880Y-141667389D01*
X61740043Y-141779957D01*
X61852611Y-141917120D01*
X61869758Y-141949200D01*
X61936257Y-142073611D01*
X61987766Y-142243412D01*
X61987766Y-142243416D01*
X61987767Y-142243418D01*
X62005159Y-142420000D01*
X62002125Y-142450800D01*
X61987766Y-142596588D01*
X61936257Y-142766389D01*
X61891993Y-142849200D01*
X61852611Y-142922880D01*
X61740043Y-143060043D01*
X61602880Y-143172611D01*
X61548370Y-143201747D01*
X61446389Y-143256257D01*
X61276588Y-143307766D01*
X61276584Y-143307766D01*
X61276582Y-143307767D01*
X61144255Y-143320800D01*
X61055745Y-143320800D01*
X60923418Y-143307767D01*
X60923416Y-143307766D01*
X60923412Y-143307766D01*
X60753611Y-143256257D01*
X60651630Y-143201747D01*
X60597120Y-143172611D01*
X60459957Y-143060043D01*
X60347389Y-142922880D01*
X60308007Y-142849200D01*
X60263743Y-142766389D01*
X60212234Y-142596588D01*
X60197875Y-142450800D01*
X60194841Y-142420000D01*
X60212233Y-142243418D01*
X60212234Y-142243416D01*
X60212234Y-142243412D01*
X60263743Y-142073611D01*
X60330242Y-141949200D01*
X60347389Y-141917120D01*
X60459957Y-141779957D01*
X60597120Y-141667389D01*
X60651630Y-141638253D01*
X60753611Y-141583743D01*
X60923412Y-141532234D01*
X60923416Y-141532234D01*
X60923418Y-141532233D01*
X61055745Y-141519200D01*
X61144255Y-141519200D01*
X61276582Y-141532233D01*
X61276582Y-141532233D01*
G37*
G36*
X58450800Y-142450800D02*
X57749200Y-142450800D01*
X57749200Y-141949200D01*
X58450800Y-141949200D01*
X58450800Y-142450800D01*
X58450800Y-142450800D01*
G37*
G36*
X80550800Y-142400800D02*
X78849200Y-142400800D01*
X78849200Y-139699200D01*
X80550800Y-139699200D01*
X80550800Y-142400800D01*
X80550800Y-142400800D01*
G37*
G36*
X37986366Y-142394950D02*
X36684766Y-142394950D01*
X36684766Y-141543350D01*
X37986366Y-141543350D01*
X37986366Y-142394950D01*
X37986366Y-142394950D01*
G37*
G36*
X39886366Y-142394950D02*
X38584766Y-142394950D01*
X38584766Y-141543350D01*
X39886366Y-141543350D01*
X39886366Y-142394950D01*
X39886366Y-142394950D01*
G37*
G36*
X51250800Y-141550800D02*
X49549200Y-141550800D01*
X49549200Y-140149200D01*
X51250800Y-140149200D01*
X51250800Y-141550800D01*
X51250800Y-141550800D01*
G37*
G36*
X47450800Y-141550800D02*
X45749200Y-141550800D01*
X45749200Y-140149200D01*
X47450800Y-140149200D01*
X47450800Y-141550800D01*
X47450800Y-141550800D01*
G37*
G36*
X68050800Y-141350800D02*
X67449200Y-141350800D01*
X67449200Y-140649200D01*
X68050800Y-140649200D01*
X68050800Y-141350800D01*
X68050800Y-141350800D01*
G37*
G36*
X76825800Y-141350800D02*
X75474200Y-141350800D01*
X75474200Y-139749200D01*
X76825800Y-139749200D01*
X76825800Y-141350800D01*
X76825800Y-141350800D01*
G37*
G36*
X34485000Y-141185000D02*
X34115000Y-141185000D01*
X34115000Y-139685000D01*
X34485000Y-139685000D01*
X34485000Y-141185000D01*
X34485000Y-141185000D01*
G37*
G36*
X33485000Y-141185000D02*
X33115000Y-141185000D01*
X33115000Y-139685000D01*
X33485000Y-139685000D01*
X33485000Y-141185000D01*
X33485000Y-141185000D01*
G37*
G36*
X33985000Y-141185000D02*
X33615000Y-141185000D01*
X33615000Y-139685000D01*
X33985000Y-139685000D01*
X33985000Y-141185000D01*
X33985000Y-141185000D01*
G37*
G36*
X34985000Y-141185000D02*
X34615000Y-141185000D01*
X34615000Y-139685000D01*
X34985000Y-139685000D01*
X34985000Y-141185000D01*
X34985000Y-141185000D01*
G37*
G36*
X35485000Y-141185000D02*
X35115000Y-141185000D01*
X35115000Y-139685000D01*
X35485000Y-139685000D01*
X35485000Y-141185000D01*
X35485000Y-141185000D01*
G37*
G36*
X71195800Y-141060800D02*
X69844200Y-141060800D01*
X69844200Y-139739200D01*
X71195800Y-139739200D01*
X71195800Y-141060800D01*
X71195800Y-141060800D01*
G37*
G36*
X74155800Y-141060800D02*
X72804200Y-141060800D01*
X72804200Y-139739200D01*
X74155800Y-139739200D01*
X74155800Y-141060800D01*
X74155800Y-141060800D01*
G37*
G36*
X39886366Y-140894950D02*
X38584766Y-140894950D01*
X38584766Y-140043350D01*
X39886366Y-140043350D01*
X39886366Y-140894950D01*
X39886366Y-140894950D01*
G37*
G36*
X37986366Y-140894950D02*
X36684766Y-140894950D01*
X36684766Y-140043350D01*
X37986366Y-140043350D01*
X37986366Y-140894950D01*
X37986366Y-140894950D01*
G37*
G36*
X68050800Y-140250800D02*
X67449200Y-140250800D01*
X67449200Y-139549200D01*
X68050800Y-139549200D01*
X68050800Y-140250800D01*
X68050800Y-140250800D01*
G37*
G36*
X35585000Y-139275000D02*
X33015000Y-139275000D01*
X33015000Y-137325000D01*
X35585000Y-137325000D01*
X35585000Y-139275000D01*
X35585000Y-139275000D01*
G37*
G36*
X47450800Y-139250800D02*
X45749200Y-139250800D01*
X45749200Y-137849200D01*
X47450800Y-137849200D01*
X47450800Y-139250800D01*
X47450800Y-139250800D01*
G37*
G36*
X51250800Y-139250800D02*
X49549200Y-139250800D01*
X49549200Y-137849200D01*
X51250800Y-137849200D01*
X51250800Y-139250800D01*
X51250800Y-139250800D01*
G37*
G36*
X39450800Y-138800800D02*
X38449200Y-138800800D01*
X38449200Y-137499200D01*
X39450800Y-137499200D01*
X39450800Y-138800800D01*
X39450800Y-138800800D01*
G37*
G36*
X68200800Y-138750800D02*
X67199200Y-138750800D01*
X67199200Y-137449200D01*
X68200800Y-137449200D01*
X68200800Y-138750800D01*
X68200800Y-138750800D01*
G37*
G36*
X80600800Y-138750800D02*
X78899200Y-138750800D01*
X78899200Y-136049200D01*
X80600800Y-136049200D01*
X80600800Y-138750800D01*
X80600800Y-138750800D01*
G37*
G36*
X76825800Y-138700800D02*
X75474200Y-138700800D01*
X75474200Y-137099200D01*
X76825800Y-137099200D01*
X76825800Y-138700800D01*
X76825800Y-138700800D01*
G37*
G36*
X74050800Y-138425800D02*
X72449200Y-138425800D01*
X72449200Y-137074200D01*
X74050800Y-137074200D01*
X74050800Y-138425800D01*
X74050800Y-138425800D01*
G37*
G36*
X71550800Y-138425800D02*
X69949200Y-138425800D01*
X69949200Y-137074200D01*
X71550800Y-137074200D01*
X71550800Y-138425800D01*
X71550800Y-138425800D01*
G37*
G36*
X62950800Y-137450800D02*
X61649200Y-137450800D01*
X61649200Y-136449200D01*
X62950800Y-136449200D01*
X62950800Y-137450800D01*
X62950800Y-137450800D01*
G37*
G36*
X60750800Y-137450800D02*
X59449200Y-137450800D01*
X59449200Y-136449200D01*
X60750800Y-136449200D01*
X60750800Y-137450800D01*
X60750800Y-137450800D01*
G37*
G36*
X34485000Y-136915000D02*
X34115000Y-136915000D01*
X34115000Y-135415000D01*
X34485000Y-135415000D01*
X34485000Y-136915000D01*
X34485000Y-136915000D01*
G37*
G36*
X33985000Y-136915000D02*
X33615000Y-136915000D01*
X33615000Y-135415000D01*
X33985000Y-135415000D01*
X33985000Y-136915000D01*
X33985000Y-136915000D01*
G37*
G36*
X33485000Y-136915000D02*
X33115000Y-136915000D01*
X33115000Y-135415000D01*
X33485000Y-135415000D01*
X33485000Y-136915000D01*
X33485000Y-136915000D01*
G37*
G36*
X35485000Y-136915000D02*
X35115000Y-136915000D01*
X35115000Y-135415000D01*
X35485000Y-135415000D01*
X35485000Y-136915000D01*
X35485000Y-136915000D01*
G37*
G36*
X34985000Y-136915000D02*
X34615000Y-136915000D01*
X34615000Y-135415000D01*
X34985000Y-135415000D01*
X34985000Y-136915000D01*
X34985000Y-136915000D01*
G37*
G36*
X39450800Y-136600800D02*
X38449200Y-136600800D01*
X38449200Y-135299200D01*
X39450800Y-135299200D01*
X39450800Y-136600800D01*
X39450800Y-136600800D01*
G37*
G36*
X68200800Y-136550800D02*
X67199200Y-136550800D01*
X67199200Y-135249200D01*
X68200800Y-135249200D01*
X68200800Y-136550800D01*
X68200800Y-136550800D01*
G37*
G36*
X43850800Y-136550800D02*
X42849200Y-136550800D01*
X42849200Y-135249200D01*
X43850800Y-135249200D01*
X43850800Y-136550800D01*
X43850800Y-136550800D01*
G37*
G36*
X45750800Y-136550800D02*
X44749200Y-136550800D01*
X44749200Y-135249200D01*
X45750800Y-135249200D01*
X45750800Y-136550800D01*
X45750800Y-136550800D01*
G37*
G36*
X49750800Y-136400800D02*
X49049200Y-136400800D01*
X49049200Y-135799200D01*
X49750800Y-135799200D01*
X49750800Y-136400800D01*
X49750800Y-136400800D01*
G37*
G36*
X50850800Y-136400800D02*
X50149200Y-136400800D01*
X50149200Y-135799200D01*
X50850800Y-135799200D01*
X50850800Y-136400800D01*
X50850800Y-136400800D01*
G37*
G36*
X47550800Y-136400800D02*
X46849200Y-136400800D01*
X46849200Y-135799200D01*
X47550800Y-135799200D01*
X47550800Y-136400800D01*
X47550800Y-136400800D01*
G37*
G36*
X48650800Y-136400800D02*
X47949200Y-136400800D01*
X47949200Y-135799200D01*
X48650800Y-135799200D01*
X48650800Y-136400800D01*
X48650800Y-136400800D01*
G37*
G36*
X38000800Y-136300800D02*
X37499200Y-136300800D01*
X37499200Y-135599200D01*
X38000800Y-135599200D01*
X38000800Y-136300800D01*
X38000800Y-136300800D01*
G37*
G36*
X37100800Y-136300800D02*
X36599200Y-136300800D01*
X36599200Y-135599200D01*
X37100800Y-135599200D01*
X37100800Y-136300800D01*
X37100800Y-136300800D01*
G37*
G36*
X76825800Y-136200800D02*
X75474200Y-136200800D01*
X75474200Y-134599200D01*
X76825800Y-134599200D01*
X76825800Y-136200800D01*
X76825800Y-136200800D01*
G37*
G36*
X73800800Y-135750800D02*
X72699200Y-135750800D01*
X72699200Y-134949200D01*
X73800800Y-134949200D01*
X73800800Y-135750800D01*
X73800800Y-135750800D01*
G37*
G36*
X71400800Y-135750800D02*
X70299200Y-135750800D01*
X70299200Y-134949200D01*
X71400800Y-134949200D01*
X71400800Y-135750800D01*
X71400800Y-135750800D01*
G37*
G36*
X60800800Y-135650800D02*
X59499200Y-135650800D01*
X59499200Y-134649200D01*
X60800800Y-134649200D01*
X60800800Y-135650800D01*
X60800800Y-135650800D01*
G37*
G36*
X63000800Y-135650800D02*
X61699200Y-135650800D01*
X61699200Y-134649200D01*
X63000800Y-134649200D01*
X63000800Y-135650800D01*
X63000800Y-135650800D01*
G37*
G36*
X80600800Y-135150800D02*
X78899200Y-135150800D01*
X78899200Y-132449200D01*
X80600800Y-132449200D01*
X80600800Y-135150800D01*
X80600800Y-135150800D01*
G37*
G36*
X71400800Y-134800800D02*
X70299200Y-134800800D01*
X70299200Y-133999200D01*
X71400800Y-133999200D01*
X71400800Y-134800800D01*
X71400800Y-134800800D01*
G37*
G36*
X68200800Y-134500800D02*
X67199200Y-134500800D01*
X67199200Y-133199200D01*
X68200800Y-133199200D01*
X68200800Y-134500800D01*
X68200800Y-134500800D01*
G37*
G36*
X45750800Y-134350800D02*
X44749200Y-134350800D01*
X44749200Y-133049200D01*
X45750800Y-133049200D01*
X45750800Y-134350800D01*
X45750800Y-134350800D01*
G37*
G36*
X43850800Y-134350800D02*
X42849200Y-134350800D01*
X42849200Y-133049200D01*
X43850800Y-133049200D01*
X43850800Y-134350800D01*
X43850800Y-134350800D01*
G37*
G36*
X60800800Y-134050800D02*
X59499200Y-134050800D01*
X59499200Y-133049200D01*
X60800800Y-133049200D01*
X60800800Y-134050800D01*
X60800800Y-134050800D01*
G37*
G36*
X63000800Y-134050800D02*
X61699200Y-134050800D01*
X61699200Y-133049200D01*
X63000800Y-133049200D01*
X63000800Y-134050800D01*
X63000800Y-134050800D01*
G37*
G36*
X71400800Y-133850800D02*
X70299200Y-133850800D01*
X70299200Y-133049200D01*
X71400800Y-133049200D01*
X71400800Y-133850800D01*
X71400800Y-133850800D01*
G37*
G36*
X73800800Y-133850800D02*
X72699200Y-133850800D01*
X72699200Y-133049200D01*
X73800800Y-133049200D01*
X73800800Y-133850800D01*
X73800800Y-133850800D01*
G37*
G36*
X34725800Y-133700800D02*
X33874200Y-133700800D01*
X33874200Y-132399200D01*
X34725800Y-132399200D01*
X34725800Y-133700800D01*
X34725800Y-133700800D01*
G37*
G36*
X36050800Y-132800800D02*
X35349200Y-132800800D01*
X35349200Y-132299200D01*
X36050800Y-132299200D01*
X36050800Y-132800800D01*
X36050800Y-132800800D01*
G37*
G36*
X54125000Y-132750000D02*
X53625000Y-132750000D01*
X53625000Y-131300000D01*
X54125000Y-131300000D01*
X54125000Y-132750000D01*
X54125000Y-132750000D01*
G37*
G36*
X53475000Y-132750000D02*
X52975000Y-132750000D01*
X52975000Y-131300000D01*
X53475000Y-131300000D01*
X53475000Y-132750000D01*
X53475000Y-132750000D01*
G37*
G36*
X52825000Y-132750000D02*
X52325000Y-132750000D01*
X52325000Y-131300000D01*
X52825000Y-131300000D01*
X52825000Y-132750000D01*
X52825000Y-132750000D01*
G37*
G36*
X51525000Y-132750000D02*
X51025000Y-132750000D01*
X51025000Y-131300000D01*
X51525000Y-131300000D01*
X51525000Y-132750000D01*
X51525000Y-132750000D01*
G37*
G36*
X50875000Y-132750000D02*
X50375000Y-132750000D01*
X50375000Y-131300000D01*
X50875000Y-131300000D01*
X50875000Y-132750000D01*
X50875000Y-132750000D01*
G37*
G36*
X49575000Y-132750000D02*
X49075000Y-132750000D01*
X49075000Y-131300000D01*
X49575000Y-131300000D01*
X49575000Y-132750000D01*
X49575000Y-132750000D01*
G37*
G36*
X48925000Y-132750000D02*
X48425000Y-132750000D01*
X48425000Y-131300000D01*
X48925000Y-131300000D01*
X48925000Y-132750000D01*
X48925000Y-132750000D01*
G37*
G36*
X48275000Y-132750000D02*
X47775000Y-132750000D01*
X47775000Y-131300000D01*
X48275000Y-131300000D01*
X48275000Y-132750000D01*
X48275000Y-132750000D01*
G37*
G36*
X52175000Y-132750000D02*
X51675000Y-132750000D01*
X51675000Y-131300000D01*
X52175000Y-131300000D01*
X52175000Y-132750000D01*
X52175000Y-132750000D01*
G37*
G36*
X50225000Y-132750000D02*
X49725000Y-132750000D01*
X49725000Y-131300000D01*
X50225000Y-131300000D01*
X50225000Y-132750000D01*
X50225000Y-132750000D01*
G37*
G36*
X68200800Y-132300800D02*
X67199200Y-132300800D01*
X67199200Y-130999200D01*
X68200800Y-130999200D01*
X68200800Y-132300800D01*
X68200800Y-132300800D01*
G37*
G36*
X60850800Y-132250800D02*
X59549200Y-132250800D01*
X59549200Y-131249200D01*
X60850800Y-131249200D01*
X60850800Y-132250800D01*
X60850800Y-132250800D01*
G37*
G36*
X63050800Y-132250800D02*
X61749200Y-132250800D01*
X61749200Y-131249200D01*
X63050800Y-131249200D01*
X63050800Y-132250800D01*
X63050800Y-132250800D01*
G37*
G36*
X36050800Y-131900800D02*
X35349200Y-131900800D01*
X35349200Y-131399200D01*
X36050800Y-131399200D01*
X36050800Y-131900800D01*
X36050800Y-131900800D01*
G37*
G36*
X34725800Y-131800800D02*
X33874200Y-131800800D01*
X33874200Y-130499200D01*
X34725800Y-130499200D01*
X34725800Y-131800800D01*
X34725800Y-131800800D01*
G37*
G36*
X71800800Y-131025800D02*
X70499200Y-131025800D01*
X70499200Y-130174200D01*
X71800800Y-130174200D01*
X71800800Y-131025800D01*
X71800800Y-131025800D01*
G37*
G36*
X73700800Y-131025800D02*
X72399200Y-131025800D01*
X72399200Y-130174200D01*
X73700800Y-130174200D01*
X73700800Y-131025800D01*
X73700800Y-131025800D01*
G37*
G36*
X84950800Y-130850800D02*
X84049200Y-130850800D01*
X84049200Y-128849200D01*
X84950800Y-128849200D01*
X84950800Y-130850800D01*
X84950800Y-130850800D01*
G37*
G36*
X81050800Y-130800800D02*
X80149200Y-130800800D01*
X80149200Y-128799200D01*
X81050800Y-128799200D01*
X81050800Y-130800800D01*
X81050800Y-130800800D01*
G37*
G36*
X79150800Y-130800800D02*
X78249200Y-130800800D01*
X78249200Y-128799200D01*
X79150800Y-128799200D01*
X79150800Y-130800800D01*
X79150800Y-130800800D01*
G37*
G36*
X74150800Y-129325800D02*
X72549200Y-129325800D01*
X72549200Y-127974200D01*
X74150800Y-127974200D01*
X74150800Y-129325800D01*
X74150800Y-129325800D01*
G37*
G36*
X71650800Y-129325800D02*
X70049200Y-129325800D01*
X70049200Y-127974200D01*
X71650800Y-127974200D01*
X71650800Y-129325800D01*
X71650800Y-129325800D01*
G37*
G36*
X84000800Y-127850800D02*
X83099200Y-127850800D01*
X83099200Y-125849200D01*
X84000800Y-125849200D01*
X84000800Y-127850800D01*
X84000800Y-127850800D01*
G37*
G36*
X85900800Y-127850800D02*
X84999200Y-127850800D01*
X84999200Y-125849200D01*
X85900800Y-125849200D01*
X85900800Y-127850800D01*
X85900800Y-127850800D01*
G37*
G36*
X80100800Y-127800800D02*
X79199200Y-127800800D01*
X79199200Y-125799200D01*
X80100800Y-125799200D01*
X80100800Y-127800800D01*
X80100800Y-127800800D01*
G37*
G36*
X48925000Y-127000000D02*
X48425000Y-127000000D01*
X48425000Y-125550000D01*
X48925000Y-125550000D01*
X48925000Y-127000000D01*
X48925000Y-127000000D01*
G37*
G36*
X49575000Y-127000000D02*
X49075000Y-127000000D01*
X49075000Y-125550000D01*
X49575000Y-125550000D01*
X49575000Y-127000000D01*
X49575000Y-127000000D01*
G37*
G36*
X50225000Y-127000000D02*
X49725000Y-127000000D01*
X49725000Y-125550000D01*
X50225000Y-125550000D01*
X50225000Y-127000000D01*
X50225000Y-127000000D01*
G37*
G36*
X48275000Y-127000000D02*
X47775000Y-127000000D01*
X47775000Y-125550000D01*
X48275000Y-125550000D01*
X48275000Y-127000000D01*
X48275000Y-127000000D01*
G37*
G36*
X50875000Y-127000000D02*
X50375000Y-127000000D01*
X50375000Y-125550000D01*
X50875000Y-125550000D01*
X50875000Y-127000000D01*
X50875000Y-127000000D01*
G37*
G36*
X51525000Y-127000000D02*
X51025000Y-127000000D01*
X51025000Y-125550000D01*
X51525000Y-125550000D01*
X51525000Y-127000000D01*
X51525000Y-127000000D01*
G37*
G36*
X52175000Y-127000000D02*
X51675000Y-127000000D01*
X51675000Y-125550000D01*
X52175000Y-125550000D01*
X52175000Y-127000000D01*
X52175000Y-127000000D01*
G37*
G36*
X52825000Y-127000000D02*
X52325000Y-127000000D01*
X52325000Y-125550000D01*
X52825000Y-125550000D01*
X52825000Y-127000000D01*
X52825000Y-127000000D01*
G37*
G36*
X53475000Y-127000000D02*
X52975000Y-127000000D01*
X52975000Y-125550000D01*
X53475000Y-125550000D01*
X53475000Y-127000000D01*
X53475000Y-127000000D01*
G37*
G36*
X54125000Y-127000000D02*
X53625000Y-127000000D01*
X53625000Y-125550000D01*
X54125000Y-125550000D01*
X54125000Y-127000000D01*
X54125000Y-127000000D01*
G37*
G36*
X71600800Y-126850800D02*
X70299200Y-126850800D01*
X70299200Y-125849200D01*
X71600800Y-125849200D01*
X71600800Y-126850800D01*
X71600800Y-126850800D01*
G37*
G36*
X73800800Y-126850800D02*
X72499200Y-126850800D01*
X72499200Y-125849200D01*
X73800800Y-125849200D01*
X73800800Y-126850800D01*
X73800800Y-126850800D01*
G37*
G36*
X37008586Y-125054974D02*
X37154319Y-125115338D01*
X37285482Y-125202979D01*
X37397021Y-125314518D01*
X37484662Y-125445681D01*
X37545026Y-125591414D01*
X37575800Y-125746128D01*
X37575800Y-125903872D01*
X37545026Y-126058586D01*
X37484662Y-126204319D01*
X37397021Y-126335482D01*
X37285482Y-126447021D01*
X37154319Y-126534662D01*
X37008586Y-126595026D01*
X36853872Y-126625800D01*
X36696128Y-126625800D01*
X36541414Y-126595026D01*
X36395681Y-126534662D01*
X36264518Y-126447021D01*
X36152979Y-126335482D01*
X36065338Y-126204319D01*
X36004974Y-126058586D01*
X35974200Y-125903872D01*
X35974200Y-125746128D01*
X36004974Y-125591414D01*
X36065338Y-125445681D01*
X36152979Y-125314518D01*
X36264518Y-125202979D01*
X36395681Y-125115338D01*
X36541414Y-125054974D01*
X36696128Y-125024200D01*
X36853872Y-125024200D01*
X37008586Y-125054974D01*
X37008586Y-125054974D01*
G37*
G36*
X59200800Y-126400800D02*
X57499200Y-126400800D01*
X57499200Y-123699200D01*
X59200800Y-123699200D01*
X59200800Y-126400800D01*
X59200800Y-126400800D01*
G37*
G36*
X67100800Y-121474238D02*
X67101776Y-121484149D01*
X67104667Y-121493678D01*
X67109332Y-121502417D01*
X67545440Y-122156579D01*
X67551749Y-122164283D01*
X67559441Y-122170609D01*
X67568219Y-122175313D01*
X67577745Y-122178213D01*
X67587708Y-122179200D01*
X67600800Y-122179200D01*
X67600800Y-122224238D01*
X67601776Y-122234149D01*
X67604667Y-122243678D01*
X67609331Y-122252415D01*
X67643462Y-122303611D01*
X67645332Y-122306417D01*
X67641689Y-122306776D01*
X67632160Y-122309667D01*
X67623377Y-122314361D01*
X67615679Y-122320679D01*
X67609361Y-122328377D01*
X67604667Y-122337160D01*
X67601776Y-122346689D01*
X67600800Y-122356600D01*
X67600800Y-126280800D01*
X65499200Y-126280800D01*
X65499200Y-122356600D01*
X65498224Y-122346689D01*
X65495333Y-122337160D01*
X65490639Y-122328377D01*
X65484321Y-122320679D01*
X65476623Y-122314361D01*
X65467840Y-122309667D01*
X65458311Y-122306776D01*
X65454668Y-122306417D01*
X65456539Y-122303611D01*
X65490669Y-122252415D01*
X65495353Y-122243629D01*
X65498234Y-122234096D01*
X65499200Y-122224238D01*
X65499200Y-122179200D01*
X65512292Y-122179200D01*
X65522203Y-122178224D01*
X65531732Y-122175333D01*
X65540515Y-122170639D01*
X65548213Y-122164321D01*
X65554560Y-122156579D01*
X65990668Y-121502417D01*
X65995353Y-121493629D01*
X65998234Y-121484096D01*
X65999200Y-121474238D01*
X65999200Y-118969200D01*
X67100800Y-118969200D01*
X67100800Y-121474238D01*
X67100800Y-121474238D01*
G37*
G36*
X42926582Y-124302233D02*
X42926584Y-124302234D01*
X42926588Y-124302234D01*
X43096389Y-124353743D01*
X43198370Y-124408253D01*
X43252880Y-124437389D01*
X43390043Y-124549957D01*
X43502611Y-124687120D01*
X43531747Y-124741630D01*
X43586257Y-124843611D01*
X43637766Y-125013412D01*
X43637766Y-125013416D01*
X43637767Y-125013418D01*
X43655159Y-125190000D01*
X43637767Y-125366582D01*
X43637766Y-125366588D01*
X43586257Y-125536389D01*
X43531747Y-125638370D01*
X43502611Y-125692880D01*
X43390043Y-125830043D01*
X43252880Y-125942611D01*
X43198370Y-125971747D01*
X43096389Y-126026257D01*
X42926588Y-126077766D01*
X42926584Y-126077766D01*
X42926582Y-126077767D01*
X42794255Y-126090800D01*
X42705745Y-126090800D01*
X42573418Y-126077767D01*
X42573416Y-126077766D01*
X42573412Y-126077766D01*
X42403611Y-126026257D01*
X42301630Y-125971747D01*
X42247120Y-125942611D01*
X42109957Y-125830043D01*
X41997389Y-125692880D01*
X41968253Y-125638370D01*
X41913743Y-125536389D01*
X41862234Y-125366588D01*
X41862233Y-125366582D01*
X41844841Y-125190000D01*
X41862233Y-125013418D01*
X41862234Y-125013416D01*
X41862234Y-125013412D01*
X41913743Y-124843611D01*
X41968253Y-124741630D01*
X41997389Y-124687120D01*
X42109957Y-124549957D01*
X42247120Y-124437389D01*
X42301630Y-124408253D01*
X42403611Y-124353743D01*
X42573412Y-124302234D01*
X42573416Y-124302234D01*
X42573418Y-124302233D01*
X42705745Y-124289200D01*
X42794255Y-124289200D01*
X42926582Y-124302233D01*
X42926582Y-124302233D01*
G37*
G36*
X40386582Y-124302233D02*
X40386584Y-124302234D01*
X40386588Y-124302234D01*
X40556389Y-124353743D01*
X40658370Y-124408253D01*
X40712880Y-124437389D01*
X40850043Y-124549957D01*
X40962611Y-124687120D01*
X40991747Y-124741630D01*
X41046257Y-124843611D01*
X41097766Y-125013412D01*
X41097766Y-125013416D01*
X41097767Y-125013418D01*
X41115159Y-125190000D01*
X41097767Y-125366582D01*
X41097766Y-125366588D01*
X41046257Y-125536389D01*
X40991747Y-125638370D01*
X40962611Y-125692880D01*
X40850043Y-125830043D01*
X40712880Y-125942611D01*
X40658370Y-125971747D01*
X40556389Y-126026257D01*
X40386588Y-126077766D01*
X40386584Y-126077766D01*
X40386582Y-126077767D01*
X40254255Y-126090800D01*
X40165745Y-126090800D01*
X40033418Y-126077767D01*
X40033416Y-126077766D01*
X40033412Y-126077766D01*
X39863611Y-126026257D01*
X39761630Y-125971747D01*
X39707120Y-125942611D01*
X39569957Y-125830043D01*
X39457389Y-125692880D01*
X39428253Y-125638370D01*
X39373743Y-125536389D01*
X39322234Y-125366588D01*
X39322233Y-125366582D01*
X39304841Y-125190000D01*
X39322233Y-125013418D01*
X39322234Y-125013416D01*
X39322234Y-125013412D01*
X39373743Y-124843611D01*
X39428253Y-124741630D01*
X39457389Y-124687120D01*
X39569957Y-124549957D01*
X39707120Y-124437389D01*
X39761630Y-124408253D01*
X39863611Y-124353743D01*
X40033412Y-124302234D01*
X40033416Y-124302234D01*
X40033418Y-124302233D01*
X40165745Y-124289200D01*
X40254255Y-124289200D01*
X40386582Y-124302233D01*
X40386582Y-124302233D01*
G37*
G36*
X85200800Y-125050800D02*
X84699200Y-125050800D01*
X84699200Y-124349200D01*
X85200800Y-124349200D01*
X85200800Y-125050800D01*
X85200800Y-125050800D01*
G37*
G36*
X84300800Y-125050800D02*
X83799200Y-125050800D01*
X83799200Y-124349200D01*
X84300800Y-124349200D01*
X84300800Y-125050800D01*
X84300800Y-125050800D01*
G37*
G36*
X80310800Y-124205800D02*
X78989200Y-124205800D01*
X78989200Y-122854200D01*
X80310800Y-122854200D01*
X80310800Y-124205800D01*
X80310800Y-124205800D01*
G37*
G36*
X51950800Y-123875800D02*
X50649200Y-123875800D01*
X50649200Y-123024200D01*
X51950800Y-123024200D01*
X51950800Y-123875800D01*
X51950800Y-123875800D01*
G37*
G36*
X53850800Y-123875800D02*
X52549200Y-123875800D01*
X52549200Y-123024200D01*
X53850800Y-123024200D01*
X53850800Y-123875800D01*
X53850800Y-123875800D01*
G37*
G36*
X40386582Y-121762233D02*
X40386584Y-121762234D01*
X40386588Y-121762234D01*
X40556389Y-121813743D01*
X40658370Y-121868253D01*
X40712880Y-121897389D01*
X40850043Y-122009957D01*
X40962611Y-122147120D01*
X40971805Y-122164321D01*
X41046257Y-122303611D01*
X41097766Y-122473412D01*
X41097766Y-122473416D01*
X41097767Y-122473418D01*
X41115159Y-122650000D01*
X41100306Y-122800800D01*
X41097766Y-122826588D01*
X41046257Y-122996389D01*
X40991747Y-123098370D01*
X40962611Y-123152880D01*
X40850043Y-123290043D01*
X40712880Y-123402611D01*
X40658370Y-123431747D01*
X40556389Y-123486257D01*
X40386588Y-123537766D01*
X40386584Y-123537766D01*
X40386582Y-123537767D01*
X40254255Y-123550800D01*
X40165745Y-123550800D01*
X40033418Y-123537767D01*
X40033416Y-123537766D01*
X40033412Y-123537766D01*
X39863611Y-123486257D01*
X39761630Y-123431747D01*
X39707120Y-123402611D01*
X39569957Y-123290043D01*
X39457389Y-123152880D01*
X39428253Y-123098370D01*
X39373743Y-122996389D01*
X39322234Y-122826588D01*
X39319694Y-122800800D01*
X39304841Y-122650000D01*
X39322233Y-122473418D01*
X39322234Y-122473416D01*
X39322234Y-122473412D01*
X39373743Y-122303611D01*
X39448195Y-122164321D01*
X39457389Y-122147120D01*
X39569957Y-122009957D01*
X39707120Y-121897389D01*
X39761630Y-121868253D01*
X39863611Y-121813743D01*
X40033412Y-121762234D01*
X40033416Y-121762234D01*
X40033418Y-121762233D01*
X40165745Y-121749200D01*
X40254255Y-121749200D01*
X40386582Y-121762233D01*
X40386582Y-121762233D01*
G37*
G36*
X43650800Y-123550800D02*
X41849200Y-123550800D01*
X41849200Y-121749200D01*
X43650800Y-121749200D01*
X43650800Y-123550800D01*
X43650800Y-123550800D01*
G37*
G36*
X71475800Y-123200800D02*
X70624200Y-123200800D01*
X70624200Y-121899200D01*
X71475800Y-121899200D01*
X71475800Y-123200800D01*
X71475800Y-123200800D01*
G37*
G36*
X62575800Y-123000800D02*
X61724200Y-123000800D01*
X61724200Y-121699200D01*
X62575800Y-121699200D01*
X62575800Y-123000800D01*
X62575800Y-123000800D01*
G37*
G36*
X59200800Y-122800800D02*
X57499200Y-122800800D01*
X57499200Y-120099200D01*
X59200800Y-120099200D01*
X59200800Y-122800800D01*
X59200800Y-122800800D01*
G37*
G36*
X50750800Y-122050800D02*
X50049200Y-122050800D01*
X50049200Y-121449200D01*
X50750800Y-121449200D01*
X50750800Y-122050800D01*
X50750800Y-122050800D01*
G37*
G36*
X49550800Y-122050800D02*
X48849200Y-122050800D01*
X48849200Y-121449200D01*
X49550800Y-121449200D01*
X49550800Y-122050800D01*
X49550800Y-122050800D01*
G37*
G36*
X51750800Y-122050800D02*
X51049200Y-122050800D01*
X51049200Y-121449200D01*
X51750800Y-121449200D01*
X51750800Y-122050800D01*
X51750800Y-122050800D01*
G37*
G36*
X48550800Y-122050800D02*
X47849200Y-122050800D01*
X47849200Y-121449200D01*
X48550800Y-121449200D01*
X48550800Y-122050800D01*
X48550800Y-122050800D01*
G37*
G36*
X68600800Y-121570800D02*
X67499200Y-121570800D01*
X67499200Y-118969200D01*
X68600800Y-118969200D01*
X68600800Y-121570800D01*
X68600800Y-121570800D01*
G37*
G36*
X65600800Y-121570800D02*
X64499200Y-121570800D01*
X64499200Y-118969200D01*
X65600800Y-118969200D01*
X65600800Y-121570800D01*
X65600800Y-121570800D01*
G37*
G36*
X71475800Y-121300800D02*
X70624200Y-121300800D01*
X70624200Y-119999200D01*
X71475800Y-119999200D01*
X71475800Y-121300800D01*
X71475800Y-121300800D01*
G37*
G36*
X80310800Y-121245800D02*
X78989200Y-121245800D01*
X78989200Y-119894200D01*
X80310800Y-119894200D01*
X80310800Y-121245800D01*
X80310800Y-121245800D01*
G37*
G36*
X75333586Y-119654974D02*
X75479319Y-119715338D01*
X75610482Y-119802979D01*
X75722021Y-119914518D01*
X75809662Y-120045681D01*
X75870026Y-120191414D01*
X75900800Y-120346128D01*
X75900800Y-120503872D01*
X75870026Y-120658586D01*
X75809662Y-120804319D01*
X75722021Y-120935482D01*
X75610482Y-121047021D01*
X75479319Y-121134662D01*
X75333586Y-121195026D01*
X75178872Y-121225800D01*
X75021128Y-121225800D01*
X74866414Y-121195026D01*
X74720681Y-121134662D01*
X74589518Y-121047021D01*
X74477979Y-120935482D01*
X74390338Y-120804319D01*
X74329974Y-120658586D01*
X74299200Y-120503872D01*
X74299200Y-120346128D01*
X74329974Y-120191414D01*
X74390338Y-120045681D01*
X74477979Y-119914518D01*
X74589518Y-119802979D01*
X74720681Y-119715338D01*
X74866414Y-119654974D01*
X75021128Y-119624200D01*
X75178872Y-119624200D01*
X75333586Y-119654974D01*
X75333586Y-119654974D01*
G37*
G36*
X62575800Y-121100800D02*
X61724200Y-121100800D01*
X61724200Y-119799200D01*
X62575800Y-119799200D01*
X62575800Y-121100800D01*
X62575800Y-121100800D01*
G37*
G36*
X52400800Y-120150800D02*
X51699200Y-120150800D01*
X51699200Y-119549200D01*
X52400800Y-119549200D01*
X52400800Y-120150800D01*
X52400800Y-120150800D01*
G37*
G36*
X51400800Y-120150800D02*
X50699200Y-120150800D01*
X50699200Y-119549200D01*
X51400800Y-119549200D01*
X51400800Y-120150800D01*
X51400800Y-120150800D01*
G37*
G36*
X41350800Y-119025800D02*
X40049200Y-119025800D01*
X40049200Y-118174200D01*
X41350800Y-118174200D01*
X41350800Y-119025800D01*
X41350800Y-119025800D01*
G37*
G36*
X43250800Y-119025800D02*
X41949200Y-119025800D01*
X41949200Y-118174200D01*
X43250800Y-118174200D01*
X43250800Y-119025800D01*
X43250800Y-119025800D01*
G37*
G36*
X50250800Y-118575800D02*
X49749200Y-118575800D01*
X49749200Y-117124200D01*
X50250800Y-117124200D01*
X50250800Y-118575800D01*
X50250800Y-118575800D01*
G37*
G36*
X50900800Y-118575800D02*
X50399200Y-118575800D01*
X50399200Y-117124200D01*
X50900800Y-117124200D01*
X50900800Y-118575800D01*
X50900800Y-118575800D01*
G37*
G36*
X49600800Y-118575800D02*
X49099200Y-118575800D01*
X49099200Y-117124200D01*
X49600800Y-117124200D01*
X49600800Y-118575800D01*
X49600800Y-118575800D01*
G37*
G36*
X48950800Y-118575800D02*
X48449200Y-118575800D01*
X48449200Y-117124200D01*
X48950800Y-117124200D01*
X48950800Y-118575800D01*
X48950800Y-118575800D01*
G37*
G36*
X48300800Y-118575800D02*
X47799200Y-118575800D01*
X47799200Y-117124200D01*
X48300800Y-117124200D01*
X48300800Y-118575800D01*
X48300800Y-118575800D01*
G37*
G36*
X47103075Y-117331808D02*
X47202188Y-117361874D01*
X47293532Y-117410698D01*
X47373596Y-117476404D01*
X47439302Y-117556468D01*
X47488126Y-117647812D01*
X47518192Y-117746925D01*
X47528344Y-117850000D01*
X47518192Y-117953075D01*
X47488126Y-118052188D01*
X47439302Y-118143532D01*
X47373596Y-118223596D01*
X47293532Y-118289302D01*
X47202188Y-118338126D01*
X47103075Y-118368192D01*
X47025830Y-118375800D01*
X46674170Y-118375800D01*
X46596925Y-118368192D01*
X46497812Y-118338126D01*
X46406468Y-118289302D01*
X46326404Y-118223596D01*
X46260698Y-118143532D01*
X46211874Y-118052188D01*
X46181808Y-117953075D01*
X46171656Y-117850000D01*
X46181808Y-117746925D01*
X46211874Y-117647812D01*
X46260698Y-117556468D01*
X46326404Y-117476404D01*
X46406468Y-117410698D01*
X46497812Y-117361874D01*
X46596925Y-117331808D01*
X46674170Y-117324200D01*
X47025830Y-117324200D01*
X47103075Y-117331808D01*
X47103075Y-117331808D01*
G37*
G36*
X52103075Y-117331808D02*
X52202188Y-117361874D01*
X52293532Y-117410698D01*
X52373596Y-117476404D01*
X52439302Y-117556468D01*
X52488126Y-117647812D01*
X52518192Y-117746925D01*
X52528344Y-117850000D01*
X52518192Y-117953075D01*
X52488126Y-118052188D01*
X52439302Y-118143532D01*
X52373596Y-118223596D01*
X52293532Y-118289302D01*
X52202188Y-118338126D01*
X52103075Y-118368192D01*
X52025830Y-118375800D01*
X51674170Y-118375800D01*
X51596925Y-118368192D01*
X51497812Y-118338126D01*
X51406468Y-118289302D01*
X51326404Y-118223596D01*
X51260698Y-118143532D01*
X51211874Y-118052188D01*
X51181808Y-117953075D01*
X51171656Y-117850000D01*
X51181808Y-117746925D01*
X51211874Y-117647812D01*
X51260698Y-117556468D01*
X51326404Y-117476404D01*
X51406468Y-117410698D01*
X51497812Y-117361874D01*
X51596925Y-117331808D01*
X51674170Y-117324200D01*
X52025830Y-117324200D01*
X52103075Y-117331808D01*
X52103075Y-117331808D01*
G37*
G36*
X78100800Y-117600800D02*
X76299200Y-117600800D01*
X76299200Y-115799200D01*
X78100800Y-115799200D01*
X78100800Y-117600800D01*
X78100800Y-117600800D01*
G37*
G36*
X79916582Y-115812233D02*
X79916584Y-115812234D01*
X79916588Y-115812234D01*
X80086389Y-115863743D01*
X80188370Y-115918253D01*
X80242880Y-115947389D01*
X80380043Y-116059957D01*
X80492611Y-116197120D01*
X80521747Y-116251630D01*
X80576257Y-116353611D01*
X80627766Y-116523412D01*
X80627766Y-116523416D01*
X80627767Y-116523418D01*
X80645159Y-116700000D01*
X80627767Y-116876582D01*
X80627766Y-116876588D01*
X80576257Y-117046389D01*
X80534666Y-117124200D01*
X80492611Y-117202880D01*
X80380043Y-117340043D01*
X80242880Y-117452611D01*
X80198366Y-117476404D01*
X80086389Y-117536257D01*
X79916588Y-117587766D01*
X79916584Y-117587766D01*
X79916582Y-117587767D01*
X79784255Y-117600800D01*
X79695745Y-117600800D01*
X79563418Y-117587767D01*
X79563416Y-117587766D01*
X79563412Y-117587766D01*
X79393611Y-117536257D01*
X79281634Y-117476404D01*
X79237120Y-117452611D01*
X79099957Y-117340043D01*
X78987389Y-117202880D01*
X78945334Y-117124200D01*
X78903743Y-117046389D01*
X78852234Y-116876588D01*
X78852233Y-116876582D01*
X78834841Y-116700000D01*
X78852233Y-116523418D01*
X78852234Y-116523416D01*
X78852234Y-116523412D01*
X78903743Y-116353611D01*
X78958253Y-116251630D01*
X78987389Y-116197120D01*
X79099957Y-116059957D01*
X79237120Y-115947389D01*
X79291630Y-115918253D01*
X79393611Y-115863743D01*
X79563412Y-115812234D01*
X79563416Y-115812234D01*
X79563418Y-115812233D01*
X79695745Y-115799200D01*
X79784255Y-115799200D01*
X79916582Y-115812233D01*
X79916582Y-115812233D01*
G37*
G36*
X65945800Y-117260800D02*
X64594200Y-117260800D01*
X64594200Y-115939200D01*
X65945800Y-115939200D01*
X65945800Y-117260800D01*
X65945800Y-117260800D01*
G37*
G36*
X68905800Y-117260800D02*
X67554200Y-117260800D01*
X67554200Y-115939200D01*
X68905800Y-115939200D01*
X68905800Y-117260800D01*
X68905800Y-117260800D01*
G37*
G36*
X45874572Y-114323955D02*
X45879547Y-114324200D01*
X47100800Y-114324200D01*
X47100800Y-115975800D01*
X45879547Y-115975800D01*
X45874572Y-115976045D01*
X45850000Y-115978465D01*
X45825428Y-115976045D01*
X45820453Y-115975800D01*
X45773882Y-115975800D01*
X45767840Y-115972571D01*
X45753380Y-115968949D01*
X45743891Y-115968014D01*
X45742024Y-115967830D01*
X45638198Y-115936335D01*
X45542511Y-115885189D01*
X45458641Y-115816359D01*
X45389811Y-115732489D01*
X45338665Y-115636801D01*
X45307170Y-115532975D01*
X45299200Y-115452056D01*
X45299200Y-114847943D01*
X45307170Y-114767024D01*
X45338666Y-114663198D01*
X45389812Y-114567511D01*
X45458642Y-114483641D01*
X45542512Y-114414811D01*
X45638199Y-114363665D01*
X45742025Y-114332170D01*
X45743653Y-114332010D01*
X45753380Y-114331051D01*
X45763147Y-114329108D01*
X45772348Y-114325297D01*
X45773990Y-114324200D01*
X45820453Y-114324200D01*
X45825428Y-114323955D01*
X45850000Y-114321535D01*
X45874572Y-114323955D01*
X45874572Y-114323955D01*
G37*
G36*
X52874572Y-114323955D02*
X52879547Y-114324200D01*
X52926118Y-114324200D01*
X52932160Y-114327429D01*
X52946620Y-114331051D01*
X52956347Y-114332010D01*
X52957975Y-114332170D01*
X53061801Y-114363665D01*
X53157489Y-114414811D01*
X53241359Y-114483641D01*
X53310189Y-114567511D01*
X53361335Y-114663198D01*
X53392830Y-114767024D01*
X53400800Y-114847943D01*
X53400800Y-115452057D01*
X53392830Y-115532976D01*
X53361335Y-115636802D01*
X53310189Y-115732489D01*
X53241359Y-115816359D01*
X53157489Y-115885189D01*
X53061802Y-115936335D01*
X52957976Y-115967830D01*
X52956109Y-115968014D01*
X52946620Y-115968949D01*
X52936853Y-115970892D01*
X52927652Y-115974703D01*
X52926010Y-115975800D01*
X52879547Y-115975800D01*
X52874572Y-115976045D01*
X52850000Y-115978465D01*
X52825428Y-115976045D01*
X52820453Y-115975800D01*
X51599200Y-115975800D01*
X51599200Y-114324200D01*
X52820453Y-114324200D01*
X52825428Y-114323955D01*
X52850000Y-114321535D01*
X52874572Y-114323955D01*
X52874572Y-114323955D01*
G37*
G36*
X51150800Y-115975800D02*
X49549200Y-115975800D01*
X49549200Y-114324200D01*
X51150800Y-114324200D01*
X51150800Y-115975800D01*
X51150800Y-115975800D01*
G37*
G36*
X49150800Y-115975800D02*
X47549200Y-115975800D01*
X47549200Y-114324200D01*
X49150800Y-114324200D01*
X49150800Y-115975800D01*
X49150800Y-115975800D01*
G37*
M02*
