%FSLAX45Y45*%
G04 Gerber Fmt 4.5, Leading zero omitted, Abs format (unit mm)*
G04 Created by KiCad (PCBNEW 5.0.0) date Tue Aug 14 07:29:07 2018*
%MOMM*%
%LPD*%
G01*
G04 APERTURE LIST*
%ADD10C,0.152400*%
%ADD11C,0.200000*%
%ADD12C,0.300000*%
G04 APERTURE END LIST*
D10*
X3650000Y-17200000D02*
G75*
G02X3400000Y-16950000I0J250000D01*
G01*
X14750000Y-16950000D02*
G75*
G02X14500000Y-17200000I-250000J0D01*
G01*
X14500000Y-4750000D02*
G75*
G02X14750000Y-5000000I0J-250000D01*
G01*
X3400000Y-5000000D02*
G75*
G02X3650000Y-4750000I250000J0D01*
G01*
X3400000Y-16950000D02*
X3400000Y-5000000D01*
X14500000Y-17200000D02*
X3650000Y-17200000D01*
X14750000Y-5000000D02*
X14750000Y-16950000D01*
X3650000Y-4750000D02*
X14500000Y-4750000D01*
D11*
X5488490Y-7333490D02*
X5521510Y-7366510D01*
X5521510Y-7333490D02*
X5488490Y-7366510D01*
X5488490Y-10333490D02*
X5521510Y-10366510D01*
X5521510Y-10333490D02*
X5488490Y-10366510D01*
X5488490Y-13333490D02*
X5521510Y-13366510D01*
X5521510Y-13333490D02*
X5488490Y-13366510D01*
X5488490Y-16333490D02*
X5521510Y-16366510D01*
X5521510Y-16333490D02*
X5488490Y-16366510D01*
X5553490Y-7378490D02*
X5586510Y-7411510D01*
X5586510Y-7378490D02*
X5553490Y-7411510D01*
X5553490Y-10378490D02*
X5586510Y-10411510D01*
X5586510Y-10378490D02*
X5553490Y-10411510D01*
X5553490Y-13378490D02*
X5586510Y-13411510D01*
X5586510Y-13378490D02*
X5553490Y-13411510D01*
X5553490Y-16378490D02*
X5586510Y-16411510D01*
X5586510Y-16378490D02*
X5553490Y-16411510D01*
X5623490Y-7323490D02*
X5656510Y-7356510D01*
X5656510Y-7323490D02*
X5623490Y-7356510D01*
X5623490Y-10323490D02*
X5656510Y-10356510D01*
X5656510Y-10323490D02*
X5623490Y-10356510D01*
X5623490Y-13323490D02*
X5656510Y-13356510D01*
X5656510Y-13323490D02*
X5623490Y-13356510D01*
X5623490Y-16323490D02*
X5656510Y-16356510D01*
X5656510Y-16323490D02*
X5623490Y-16356510D01*
X6263490Y-6813490D02*
X6296510Y-6846510D01*
X6296510Y-6813490D02*
X6263490Y-6846510D01*
X6263490Y-9813490D02*
X6296510Y-9846510D01*
X6296510Y-9813490D02*
X6263490Y-9846510D01*
X6263490Y-12813490D02*
X6296510Y-12846510D01*
X6296510Y-12813490D02*
X6263490Y-12846510D01*
X6263490Y-15813490D02*
X6296510Y-15846510D01*
X6296510Y-15813490D02*
X6263490Y-15846510D01*
X6418800Y-6913490D02*
X6451820Y-6946510D01*
X6451820Y-6913490D02*
X6418800Y-6946510D01*
X6418800Y-9913490D02*
X6451820Y-9946510D01*
X6451820Y-9913490D02*
X6418800Y-9946510D01*
X6418800Y-12913490D02*
X6451820Y-12946510D01*
X6451820Y-12913490D02*
X6418800Y-12946510D01*
X6418800Y-15913490D02*
X6451820Y-15946510D01*
X6451820Y-15913490D02*
X6418800Y-15946510D01*
X6820101Y-7021796D02*
X6853121Y-7054816D01*
X6853121Y-7021796D02*
X6820101Y-7054816D01*
X6820101Y-10021796D02*
X6853121Y-10054816D01*
X6853121Y-10021796D02*
X6820101Y-10054816D01*
X6820101Y-10021796D02*
X6853121Y-10054816D01*
X6853121Y-10021796D02*
X6820101Y-10054816D01*
X6820101Y-13021796D02*
X6853121Y-13054816D01*
X6853121Y-13021796D02*
X6820101Y-13054816D01*
X6820101Y-16021796D02*
X6853121Y-16054816D01*
X6853121Y-16021796D02*
X6820101Y-16054816D01*
X6863490Y-6733490D02*
X6896510Y-6766510D01*
X6896510Y-6733490D02*
X6863490Y-6766510D01*
X6863490Y-9733490D02*
X6896510Y-9766510D01*
X6896510Y-9733490D02*
X6863490Y-9766510D01*
X6863490Y-9733490D02*
X6896510Y-9766510D01*
X6896510Y-9733490D02*
X6863490Y-9766510D01*
X6863490Y-12733490D02*
X6896510Y-12766510D01*
X6896510Y-12733490D02*
X6863490Y-12766510D01*
X6863490Y-15733490D02*
X6896510Y-15766510D01*
X6896510Y-15733490D02*
X6863490Y-15766510D01*
X7063490Y-7063490D02*
X7096510Y-7096510D01*
X7096510Y-7063490D02*
X7063490Y-7096510D01*
X7063490Y-10063490D02*
X7096510Y-10096510D01*
X7096510Y-10063490D02*
X7063490Y-10096510D01*
X7063490Y-10063490D02*
X7096510Y-10096510D01*
X7096510Y-10063490D02*
X7063490Y-10096510D01*
X7063490Y-13063490D02*
X7096510Y-13096510D01*
X7096510Y-13063490D02*
X7063490Y-13096510D01*
X7063490Y-16063490D02*
X7096510Y-16096510D01*
X7096510Y-16063490D02*
X7063490Y-16096510D01*
X7383490Y-7333490D02*
X7416510Y-7366510D01*
X7416510Y-7333490D02*
X7383490Y-7366510D01*
X7383490Y-10333490D02*
X7416510Y-10366510D01*
X7416510Y-10333490D02*
X7383490Y-10366510D01*
X7383490Y-13333490D02*
X7416510Y-13366510D01*
X7416510Y-13333490D02*
X7383490Y-13366510D01*
X7383490Y-16333490D02*
X7416510Y-16366510D01*
X7416510Y-16333490D02*
X7383490Y-16366510D01*
X7928490Y-10558490D02*
X7961510Y-10591510D01*
X7961510Y-10558490D02*
X7928490Y-10591510D01*
X7973490Y-10478490D02*
X8006510Y-10511510D01*
X8006510Y-10478490D02*
X7973490Y-10511510D01*
X8063490Y-7528490D02*
X8096510Y-7561510D01*
X8096510Y-7528490D02*
X8063490Y-7561510D01*
X8108490Y-7638490D02*
X8141510Y-7671510D01*
X8141510Y-7638490D02*
X8108490Y-7671510D01*
X8193490Y-10688490D02*
X8226510Y-10721510D01*
X8226510Y-10688490D02*
X8193490Y-10721510D01*
X8363490Y-13093490D02*
X8396510Y-13126510D01*
X8396510Y-13093490D02*
X8363490Y-13126510D01*
X8383490Y-10593490D02*
X8416510Y-10626510D01*
X8416510Y-10593490D02*
X8383490Y-10626510D01*
X8423490Y-13298490D02*
X8456510Y-13331510D01*
X8456510Y-13298490D02*
X8423490Y-13331510D01*
X8486259Y-8143397D02*
X8519279Y-8176417D01*
X8519279Y-8143397D02*
X8486259Y-8176417D01*
X8606430Y-10733490D02*
X8639450Y-10766510D01*
X8639450Y-10733490D02*
X8606430Y-10766510D01*
X8610721Y-8084979D02*
X8643741Y-8117999D01*
X8643741Y-8084979D02*
X8610721Y-8117999D01*
X8753490Y-12518490D02*
X8786510Y-12551510D01*
X8786510Y-12518490D02*
X8753490Y-12551510D01*
X8788490Y-10608490D02*
X8821510Y-10641510D01*
X8821510Y-10608490D02*
X8788490Y-10641510D01*
X8893490Y-12433490D02*
X8926510Y-12466510D01*
X8926510Y-12433490D02*
X8893490Y-12466510D01*
X9043490Y-10673490D02*
X9076510Y-10706510D01*
X9076510Y-10673490D02*
X9043490Y-10706510D01*
X9098490Y-8703490D02*
X9131510Y-8736510D01*
X9131510Y-8703490D02*
X9098490Y-8736510D01*
X9183490Y-5683490D02*
X9216510Y-5716510D01*
X9216510Y-5683490D02*
X9183490Y-5716510D01*
X9183490Y-5883490D02*
X9216510Y-5916510D01*
X9216510Y-5883490D02*
X9183490Y-5916510D01*
X9183490Y-6083490D02*
X9216510Y-6116510D01*
X9216510Y-6083490D02*
X9183490Y-6116510D01*
X9283490Y-5783490D02*
X9316510Y-5816510D01*
X9316510Y-5783490D02*
X9283490Y-5816510D01*
X9283490Y-5983490D02*
X9316510Y-6016510D01*
X9316510Y-5983490D02*
X9283490Y-6016510D01*
X9283490Y-6183490D02*
X9316510Y-6216510D01*
X9316510Y-6183490D02*
X9283490Y-6216510D01*
X9383490Y-5683490D02*
X9416510Y-5716510D01*
X9416510Y-5683490D02*
X9383490Y-5716510D01*
X9383490Y-5883490D02*
X9416510Y-5916510D01*
X9416510Y-5883490D02*
X9383490Y-5916510D01*
X9433490Y-10133490D02*
X9466510Y-10166510D01*
X9466510Y-10133490D02*
X9433490Y-10166510D01*
X9458490Y-6733490D02*
X9491510Y-6766510D01*
X9491510Y-6733490D02*
X9458490Y-6766510D01*
X9483490Y-5783490D02*
X9516510Y-5816510D01*
X9516510Y-5783490D02*
X9483490Y-5816510D01*
X9483490Y-5983490D02*
X9516510Y-6016510D01*
X9516510Y-5983490D02*
X9483490Y-6016510D01*
X9558490Y-6743490D02*
X9591510Y-6776510D01*
X9591510Y-6743490D02*
X9558490Y-6776510D01*
X9583490Y-5683490D02*
X9616510Y-5716510D01*
X9616510Y-5683490D02*
X9583490Y-5716510D01*
X9583490Y-5883490D02*
X9616510Y-5916510D01*
X9616510Y-5883490D02*
X9583490Y-5916510D01*
X9583490Y-6083490D02*
X9616510Y-6116510D01*
X9616510Y-6083490D02*
X9583490Y-6116510D01*
X9670448Y-8342017D02*
X9703468Y-8375037D01*
X9703468Y-8342017D02*
X9670448Y-8375037D01*
X9683490Y-5783490D02*
X9716510Y-5816510D01*
X9716510Y-5783490D02*
X9683490Y-5816510D01*
X9683490Y-5983490D02*
X9716510Y-6016510D01*
X9716510Y-5983490D02*
X9683490Y-6016510D01*
X9683490Y-6183490D02*
X9716510Y-6216510D01*
X9716510Y-6183490D02*
X9683490Y-6216510D01*
X9683490Y-10683490D02*
X9716510Y-10716510D01*
X9716510Y-10683490D02*
X9683490Y-10716510D01*
X9733490Y-10483490D02*
X9766510Y-10516510D01*
X9766510Y-10483490D02*
X9733490Y-10516510D01*
X9783490Y-5683490D02*
X9816510Y-5716510D01*
X9816510Y-5683490D02*
X9783490Y-5716510D01*
X9783490Y-5883490D02*
X9816510Y-5916510D01*
X9816510Y-5883490D02*
X9783490Y-5916510D01*
X9783490Y-6083490D02*
X9816510Y-6116510D01*
X9816510Y-6083490D02*
X9783490Y-6116510D01*
X9933490Y-10533490D02*
X9966510Y-10566510D01*
X9966510Y-10533490D02*
X9933490Y-10566510D01*
X10048490Y-7878490D02*
X10081510Y-7911510D01*
X10081510Y-7878490D02*
X10048490Y-7911510D01*
X10063490Y-7988490D02*
X10096510Y-8021510D01*
X10096510Y-7988490D02*
X10063490Y-8021510D01*
X10077233Y-10839225D02*
X10110253Y-10872245D01*
X10110253Y-10839225D02*
X10077233Y-10872245D01*
X10083490Y-10933490D02*
X10116510Y-10966510D01*
X10116510Y-10933490D02*
X10083490Y-10966510D01*
X10733490Y-5183490D02*
X10766510Y-5216510D01*
X10766510Y-5183490D02*
X10733490Y-5216510D01*
X10733490Y-8183490D02*
X10766510Y-8216510D01*
X10766510Y-8183490D02*
X10733490Y-8216510D01*
X10733490Y-11183490D02*
X10766510Y-11216510D01*
X10766510Y-11183490D02*
X10733490Y-11216510D01*
X10733490Y-14183490D02*
X10766510Y-14216510D01*
X10766510Y-14183490D02*
X10733490Y-14216510D01*
X11063490Y-5233490D02*
X11096510Y-5266510D01*
X11096510Y-5233490D02*
X11063490Y-5266510D01*
X11063490Y-5458490D02*
X11096510Y-5491510D01*
X11096510Y-5458490D02*
X11063490Y-5491510D01*
X11063490Y-8458490D02*
X11096510Y-8491510D01*
X11096510Y-8458490D02*
X11063490Y-8491510D01*
X11063490Y-11458490D02*
X11096510Y-11491510D01*
X11096510Y-11458490D02*
X11063490Y-11491510D01*
X11063490Y-14458490D02*
X11096510Y-14491510D01*
X11096510Y-14458490D02*
X11063490Y-14491510D01*
X11133490Y-5045721D02*
X11166510Y-5078741D01*
X11166510Y-5045721D02*
X11133490Y-5078741D01*
X11263490Y-5788490D02*
X11296510Y-5821510D01*
X11296510Y-5788490D02*
X11263490Y-5821510D01*
X11263490Y-8788490D02*
X11296510Y-8821510D01*
X11296510Y-8788490D02*
X11263490Y-8821510D01*
X11263490Y-11788490D02*
X11296510Y-11821510D01*
X11296510Y-11788490D02*
X11263490Y-11821510D01*
X11263490Y-14788490D02*
X11296510Y-14821510D01*
X11296510Y-14788490D02*
X11263490Y-14821510D01*
X11306879Y-5500184D02*
X11339899Y-5533204D01*
X11339899Y-5500184D02*
X11306879Y-5533204D01*
X11306879Y-8500184D02*
X11339899Y-8533204D01*
X11339899Y-8500184D02*
X11306879Y-8533204D01*
X11306879Y-11500184D02*
X11339899Y-11533204D01*
X11339899Y-11500184D02*
X11306879Y-11533204D01*
X11306879Y-14500184D02*
X11339899Y-14533204D01*
X11339899Y-14500184D02*
X11306879Y-14533204D01*
X11708180Y-5608490D02*
X11741200Y-5641510D01*
X11741200Y-5608490D02*
X11708180Y-5641510D01*
X11708180Y-8608490D02*
X11741200Y-8641510D01*
X11741200Y-8608490D02*
X11708180Y-8641510D01*
X11708180Y-11608490D02*
X11741200Y-11641510D01*
X11741200Y-11608490D02*
X11708180Y-11641510D01*
X11708180Y-14608490D02*
X11741200Y-14641510D01*
X11741200Y-14608490D02*
X11708180Y-14641510D01*
X11863490Y-5708490D02*
X11896510Y-5741510D01*
X11896510Y-5708490D02*
X11863490Y-5741510D01*
X11863490Y-8708490D02*
X11896510Y-8741510D01*
X11896510Y-8708490D02*
X11863490Y-8741510D01*
X11863490Y-11708490D02*
X11896510Y-11741510D01*
X11896510Y-11708490D02*
X11863490Y-11741510D01*
X11863490Y-14708490D02*
X11896510Y-14741510D01*
X11896510Y-14708490D02*
X11863490Y-14741510D01*
X12503490Y-5198490D02*
X12536510Y-5231510D01*
X12536510Y-5198490D02*
X12503490Y-5231510D01*
X12503490Y-8198490D02*
X12536510Y-8231510D01*
X12536510Y-8198490D02*
X12503490Y-8231510D01*
X12503490Y-11198490D02*
X12536510Y-11231510D01*
X12536510Y-11198490D02*
X12503490Y-11231510D01*
X12503490Y-14198490D02*
X12536510Y-14231510D01*
X12536510Y-14198490D02*
X12503490Y-14231510D01*
X12573490Y-5143490D02*
X12606510Y-5176510D01*
X12606510Y-5143490D02*
X12573490Y-5176510D01*
X12573490Y-8143490D02*
X12606510Y-8176510D01*
X12606510Y-8143490D02*
X12573490Y-8176510D01*
X12573490Y-11143490D02*
X12606510Y-11176510D01*
X12606510Y-11143490D02*
X12573490Y-11176510D01*
X12573490Y-14143490D02*
X12606510Y-14176510D01*
X12606510Y-14143490D02*
X12573490Y-14176510D01*
X12638490Y-5188490D02*
X12671510Y-5221510D01*
X12671510Y-5188490D02*
X12638490Y-5221510D01*
X12638490Y-8188490D02*
X12671510Y-8221510D01*
X12671510Y-8188490D02*
X12638490Y-8221510D01*
X12638490Y-11188490D02*
X12671510Y-11221510D01*
X12671510Y-11188490D02*
X12638490Y-11221510D01*
X12638490Y-14188490D02*
X12671510Y-14221510D01*
X12671510Y-14188490D02*
X12638490Y-14221510D01*
X9350000Y-9255000D02*
G75*
G03X9350000Y-9255000I-50000J0D01*
G01*
X9350000Y-9509000D02*
G75*
G03X9350000Y-9509000I-50000J0D01*
G01*
X9350000Y-9763000D02*
G75*
G03X9350000Y-9763000I-50000J0D01*
G01*
X9350000Y-10017000D02*
G75*
G03X9350000Y-10017000I-50000J0D01*
G01*
X9350000Y-10271000D02*
G75*
G03X9350000Y-10271000I-50000J0D01*
G01*
X12310000Y-7245000D02*
G75*
G03X12310000Y-7245000I-50000J0D01*
G01*
X12810000Y-7245000D02*
G75*
G03X12810000Y-7245000I-50000J0D01*
G01*
X5450000Y-14310000D02*
G75*
G03X5450000Y-14310000I-50000J0D01*
G01*
X5950000Y-14310000D02*
G75*
G03X5950000Y-14310000I-50000J0D01*
G01*
X5450000Y-5310000D02*
G75*
G03X5450000Y-5310000I-50000J0D01*
G01*
X5950000Y-5310000D02*
G75*
G03X5950000Y-5310000I-50000J0D01*
G01*
X8970000Y-11049000D02*
G75*
G03X8970000Y-11049000I-50000J0D01*
G01*
X8970000Y-11303000D02*
G75*
G03X8970000Y-11303000I-50000J0D01*
G01*
X8970000Y-11557000D02*
G75*
G03X8970000Y-11557000I-50000J0D01*
G01*
X8970000Y-11811000D02*
G75*
G03X8970000Y-11811000I-50000J0D01*
G01*
X8970000Y-12065000D02*
G75*
G03X8970000Y-12065000I-50000J0D01*
G01*
X8560000Y-11059000D02*
G75*
G03X8560000Y-11059000I-50000J0D01*
G01*
X8560000Y-11313000D02*
G75*
G03X8560000Y-11313000I-50000J0D01*
G01*
X8560000Y-11567000D02*
G75*
G03X8560000Y-11567000I-50000J0D01*
G01*
X8560000Y-11821000D02*
G75*
G03X8560000Y-11821000I-50000J0D01*
G01*
X8560000Y-12075000D02*
G75*
G03X8560000Y-12075000I-50000J0D01*
G01*
X5450000Y-11310000D02*
G75*
G03X5450000Y-11310000I-50000J0D01*
G01*
X5950000Y-11310000D02*
G75*
G03X5950000Y-11310000I-50000J0D01*
G01*
X12310000Y-13245000D02*
G75*
G03X12310000Y-13245000I-50000J0D01*
G01*
X12810000Y-13245000D02*
G75*
G03X12810000Y-13245000I-50000J0D01*
G01*
X5450000Y-8310000D02*
G75*
G03X5450000Y-8310000I-50000J0D01*
G01*
X5950000Y-8310000D02*
G75*
G03X5950000Y-8310000I-50000J0D01*
G01*
X9780000Y-9255000D02*
G75*
G03X9780000Y-9255000I-50000J0D01*
G01*
X9780000Y-9509000D02*
G75*
G03X9780000Y-9509000I-50000J0D01*
G01*
X9780000Y-9763000D02*
G75*
G03X9780000Y-9763000I-50000J0D01*
G01*
X9780000Y-10017000D02*
G75*
G03X9780000Y-10017000I-50000J0D01*
G01*
X9780000Y-10271000D02*
G75*
G03X9780000Y-10271000I-50000J0D01*
G01*
X12310000Y-16245000D02*
G75*
G03X12310000Y-16245000I-50000J0D01*
G01*
X12810000Y-16245000D02*
G75*
G03X12810000Y-16245000I-50000J0D01*
G01*
X12310000Y-10245000D02*
G75*
G03X12310000Y-10245000I-50000J0D01*
G01*
X12810000Y-10245000D02*
G75*
G03X12810000Y-10245000I-50000J0D01*
G01*
X6810000Y-5630000D02*
X6810000Y-5750000D01*
X6750000Y-5690000D02*
X6870000Y-5690000D01*
X7560000Y-5630000D02*
X7560000Y-5750000D01*
X7500000Y-5690000D02*
X7620000Y-5690000D01*
X6810000Y-11630000D02*
X6810000Y-11750000D01*
X6750000Y-11690000D02*
X6870000Y-11690000D01*
X7560000Y-11630000D02*
X7560000Y-11750000D01*
X7500000Y-11690000D02*
X7620000Y-11690000D01*
X10600000Y-15805000D02*
X10600000Y-15925000D01*
X10540000Y-15865000D02*
X10660000Y-15865000D01*
X11350000Y-15805000D02*
X11350000Y-15925000D01*
X11290000Y-15865000D02*
X11410000Y-15865000D01*
X6810000Y-14630000D02*
X6810000Y-14750000D01*
X6750000Y-14690000D02*
X6870000Y-14690000D01*
X7560000Y-14630000D02*
X7560000Y-14750000D01*
X7500000Y-14690000D02*
X7620000Y-14690000D01*
X10600000Y-12805000D02*
X10600000Y-12925000D01*
X10540000Y-12865000D02*
X10660000Y-12865000D01*
X11350000Y-12805000D02*
X11350000Y-12925000D01*
X11290000Y-12865000D02*
X11410000Y-12865000D01*
X10600000Y-9805000D02*
X10600000Y-9925000D01*
X10540000Y-9865000D02*
X10660000Y-9865000D01*
X11350000Y-9805000D02*
X11350000Y-9925000D01*
X11290000Y-9865000D02*
X11410000Y-9865000D01*
X6810000Y-8630000D02*
X6810000Y-8750000D01*
X6750000Y-8690000D02*
X6870000Y-8690000D01*
X7560000Y-8630000D02*
X7560000Y-8750000D01*
X7500000Y-8690000D02*
X7620000Y-8690000D01*
X10600000Y-6805000D02*
X10600000Y-6925000D01*
X10540000Y-6865000D02*
X10660000Y-6865000D01*
X11350000Y-6805000D02*
X11350000Y-6925000D01*
X11290000Y-6865000D02*
X11410000Y-6865000D01*
X4387385Y-16587385D02*
X4387385Y-16212615D01*
X4012615Y-16212615D01*
X4012615Y-16587385D01*
X4387385Y-16587385D01*
X14137385Y-16587385D02*
X14137385Y-16212615D01*
X13762615Y-16212615D01*
X13762615Y-16587385D01*
X14137385Y-16587385D01*
X14112385Y-5712385D02*
X14112385Y-5337615D01*
X13737615Y-5337615D01*
X13737615Y-5712385D01*
X14112385Y-5712385D01*
X4387385Y-5737385D02*
X4387385Y-5362615D01*
X4012615Y-5362615D01*
X4012615Y-5737385D01*
X4387385Y-5737385D01*
D12*
X3678808Y-17673334D02*
X3678808Y-17373334D01*
X3750237Y-17373334D01*
X3793094Y-17387620D01*
X3821666Y-17416192D01*
X3835951Y-17444763D01*
X3850237Y-17501906D01*
X3850237Y-17544763D01*
X3835951Y-17601906D01*
X3821666Y-17630477D01*
X3793094Y-17659049D01*
X3750237Y-17673334D01*
X3678808Y-17673334D01*
X3978808Y-17673334D02*
X3978808Y-17473334D01*
X3978808Y-17530477D02*
X3993094Y-17501906D01*
X4007380Y-17487620D01*
X4035951Y-17473334D01*
X4064523Y-17473334D01*
X4164523Y-17673334D02*
X4164523Y-17473334D01*
X4164523Y-17373334D02*
X4150237Y-17387620D01*
X4164523Y-17401906D01*
X4178808Y-17387620D01*
X4164523Y-17373334D01*
X4164523Y-17401906D01*
X4350237Y-17673334D02*
X4321666Y-17659049D01*
X4307380Y-17630477D01*
X4307380Y-17373334D01*
X4507380Y-17673334D02*
X4478808Y-17659049D01*
X4464523Y-17630477D01*
X4464523Y-17373334D01*
X4850237Y-17673334D02*
X4850237Y-17373334D01*
X4950237Y-17587620D01*
X5050237Y-17373334D01*
X5050237Y-17673334D01*
X5321666Y-17673334D02*
X5321666Y-17516192D01*
X5307380Y-17487620D01*
X5278808Y-17473334D01*
X5221666Y-17473334D01*
X5193094Y-17487620D01*
X5321666Y-17659049D02*
X5293094Y-17673334D01*
X5221666Y-17673334D01*
X5193094Y-17659049D01*
X5178808Y-17630477D01*
X5178808Y-17601906D01*
X5193094Y-17573334D01*
X5221666Y-17559049D01*
X5293094Y-17559049D01*
X5321666Y-17544763D01*
X5464523Y-17473334D02*
X5464523Y-17773334D01*
X5464523Y-17487620D02*
X5493094Y-17473334D01*
X5550237Y-17473334D01*
X5578808Y-17487620D01*
X5593094Y-17501906D01*
X5607380Y-17530477D01*
X5607380Y-17616192D01*
X5593094Y-17644763D01*
X5578808Y-17659049D01*
X5550237Y-17673334D01*
X5493094Y-17673334D01*
X5464523Y-17659049D01*
X5735951Y-17644763D02*
X5750237Y-17659049D01*
X5735951Y-17673334D01*
X5721666Y-17659049D01*
X5735951Y-17644763D01*
X5735951Y-17673334D01*
X5735951Y-17487620D02*
X5750237Y-17501906D01*
X5735951Y-17516192D01*
X5721666Y-17501906D01*
X5735951Y-17487620D01*
X5735951Y-17516192D01*
X3359360Y-18151110D02*
X3392380Y-18184130D01*
X3392380Y-18151110D02*
X3359360Y-18184130D01*
X3735951Y-18003334D02*
X3764523Y-18003334D01*
X3793094Y-18017620D01*
X3807380Y-18031906D01*
X3821666Y-18060477D01*
X3835951Y-18117620D01*
X3835951Y-18189049D01*
X3821666Y-18246192D01*
X3807380Y-18274763D01*
X3793094Y-18289049D01*
X3764523Y-18303334D01*
X3735951Y-18303334D01*
X3707380Y-18289049D01*
X3693094Y-18274763D01*
X3678808Y-18246192D01*
X3664523Y-18189049D01*
X3664523Y-18117620D01*
X3678808Y-18060477D01*
X3693094Y-18031906D01*
X3707380Y-18017620D01*
X3735951Y-18003334D01*
X3964523Y-18274763D02*
X3978808Y-18289049D01*
X3964523Y-18303334D01*
X3950237Y-18289049D01*
X3964523Y-18274763D01*
X3964523Y-18303334D01*
X4078808Y-18003334D02*
X4264523Y-18003334D01*
X4164523Y-18117620D01*
X4207380Y-18117620D01*
X4235951Y-18131906D01*
X4250237Y-18146192D01*
X4264523Y-18174763D01*
X4264523Y-18246192D01*
X4250237Y-18274763D01*
X4235951Y-18289049D01*
X4207380Y-18303334D01*
X4121666Y-18303334D01*
X4093094Y-18289049D01*
X4078808Y-18274763D01*
X4364523Y-18003334D02*
X4550237Y-18003334D01*
X4450237Y-18117620D01*
X4493094Y-18117620D01*
X4521666Y-18131906D01*
X4535951Y-18146192D01*
X4550237Y-18174763D01*
X4550237Y-18246192D01*
X4535951Y-18274763D01*
X4521666Y-18289049D01*
X4493094Y-18303334D01*
X4407380Y-18303334D01*
X4378808Y-18289049D01*
X4364523Y-18274763D01*
X4678808Y-18303334D02*
X4678808Y-18103334D01*
X4678808Y-18131906D02*
X4693094Y-18117620D01*
X4721666Y-18103334D01*
X4764523Y-18103334D01*
X4793094Y-18117620D01*
X4807380Y-18146192D01*
X4807380Y-18303334D01*
X4807380Y-18146192D02*
X4821666Y-18117620D01*
X4850237Y-18103334D01*
X4893094Y-18103334D01*
X4921666Y-18117620D01*
X4935951Y-18146192D01*
X4935951Y-18303334D01*
X5078808Y-18303334D02*
X5078808Y-18103334D01*
X5078808Y-18131906D02*
X5093094Y-18117620D01*
X5121666Y-18103334D01*
X5164523Y-18103334D01*
X5193094Y-18117620D01*
X5207380Y-18146192D01*
X5207380Y-18303334D01*
X5207380Y-18146192D02*
X5221666Y-18117620D01*
X5250237Y-18103334D01*
X5293094Y-18103334D01*
X5321666Y-18117620D01*
X5335951Y-18146192D01*
X5335951Y-18303334D01*
X5921666Y-17989049D02*
X5664523Y-18374763D01*
X6307380Y-18003334D02*
X6335951Y-18003334D01*
X6364523Y-18017620D01*
X6378808Y-18031906D01*
X6393094Y-18060477D01*
X6407380Y-18117620D01*
X6407380Y-18189049D01*
X6393094Y-18246192D01*
X6378808Y-18274763D01*
X6364523Y-18289049D01*
X6335951Y-18303334D01*
X6307380Y-18303334D01*
X6278808Y-18289049D01*
X6264523Y-18274763D01*
X6250237Y-18246192D01*
X6235951Y-18189049D01*
X6235951Y-18117620D01*
X6250237Y-18060477D01*
X6264523Y-18031906D01*
X6278808Y-18017620D01*
X6307380Y-18003334D01*
X6535951Y-18274763D02*
X6550237Y-18289049D01*
X6535951Y-18303334D01*
X6521666Y-18289049D01*
X6535951Y-18274763D01*
X6535951Y-18303334D01*
X6735951Y-18003334D02*
X6764523Y-18003334D01*
X6793094Y-18017620D01*
X6807380Y-18031906D01*
X6821666Y-18060477D01*
X6835951Y-18117620D01*
X6835951Y-18189049D01*
X6821666Y-18246192D01*
X6807380Y-18274763D01*
X6793094Y-18289049D01*
X6764523Y-18303334D01*
X6735951Y-18303334D01*
X6707380Y-18289049D01*
X6693094Y-18274763D01*
X6678808Y-18246192D01*
X6664523Y-18189049D01*
X6664523Y-18117620D01*
X6678808Y-18060477D01*
X6693094Y-18031906D01*
X6707380Y-18017620D01*
X6735951Y-18003334D01*
X7121666Y-18303334D02*
X6950237Y-18303334D01*
X7035951Y-18303334D02*
X7035951Y-18003334D01*
X7007380Y-18046192D01*
X6978808Y-18074763D01*
X6950237Y-18089049D01*
X7221666Y-18003334D02*
X7407380Y-18003334D01*
X7307380Y-18117620D01*
X7350237Y-18117620D01*
X7378808Y-18131906D01*
X7393094Y-18146192D01*
X7407380Y-18174763D01*
X7407380Y-18246192D01*
X7393094Y-18274763D01*
X7378808Y-18289049D01*
X7350237Y-18303334D01*
X7264523Y-18303334D01*
X7235951Y-18289049D01*
X7221666Y-18274763D01*
X7521666Y-18003334D02*
X7521666Y-18060477D01*
X7635951Y-18003334D02*
X7635951Y-18060477D01*
X8078808Y-18417620D02*
X8064523Y-18403334D01*
X8035951Y-18360477D01*
X8021666Y-18331906D01*
X8007380Y-18289049D01*
X7993094Y-18217620D01*
X7993094Y-18160477D01*
X8007380Y-18089049D01*
X8021666Y-18046192D01*
X8035951Y-18017620D01*
X8064523Y-17974763D01*
X8078808Y-17960477D01*
X8350237Y-18303334D02*
X8178808Y-18303334D01*
X8264523Y-18303334D02*
X8264523Y-18003334D01*
X8235951Y-18046192D01*
X8207380Y-18074763D01*
X8178808Y-18089049D01*
X8464523Y-18031906D02*
X8478808Y-18017620D01*
X8507380Y-18003334D01*
X8578808Y-18003334D01*
X8607380Y-18017620D01*
X8621666Y-18031906D01*
X8635951Y-18060477D01*
X8635951Y-18089049D01*
X8621666Y-18131906D01*
X8450237Y-18303334D01*
X8635951Y-18303334D01*
X8735951Y-18003334D02*
X8921666Y-18003334D01*
X8821666Y-18117620D01*
X8864523Y-18117620D01*
X8893094Y-18131906D01*
X8907380Y-18146192D01*
X8921666Y-18174763D01*
X8921666Y-18246192D01*
X8907380Y-18274763D01*
X8893094Y-18289049D01*
X8864523Y-18303334D01*
X8778808Y-18303334D01*
X8750237Y-18289049D01*
X8735951Y-18274763D01*
X9278808Y-18303334D02*
X9278808Y-18003334D01*
X9407380Y-18303334D02*
X9407380Y-18146192D01*
X9393094Y-18117620D01*
X9364523Y-18103334D01*
X9321666Y-18103334D01*
X9293094Y-18117620D01*
X9278808Y-18131906D01*
X9593094Y-18303334D02*
X9564523Y-18289049D01*
X9550237Y-18274763D01*
X9535951Y-18246192D01*
X9535951Y-18160477D01*
X9550237Y-18131906D01*
X9564523Y-18117620D01*
X9593094Y-18103334D01*
X9635951Y-18103334D01*
X9664523Y-18117620D01*
X9678808Y-18131906D01*
X9693094Y-18160477D01*
X9693094Y-18246192D01*
X9678808Y-18274763D01*
X9664523Y-18289049D01*
X9635951Y-18303334D01*
X9593094Y-18303334D01*
X9864523Y-18303334D02*
X9835951Y-18289049D01*
X9821666Y-18260477D01*
X9821666Y-18003334D01*
X10093094Y-18289049D02*
X10064523Y-18303334D01*
X10007380Y-18303334D01*
X9978808Y-18289049D01*
X9964523Y-18260477D01*
X9964523Y-18146192D01*
X9978808Y-18117620D01*
X10007380Y-18103334D01*
X10064523Y-18103334D01*
X10093094Y-18117620D01*
X10107380Y-18146192D01*
X10107380Y-18174763D01*
X9964523Y-18203334D01*
X10221666Y-18289049D02*
X10250237Y-18303334D01*
X10307380Y-18303334D01*
X10335951Y-18289049D01*
X10350237Y-18260477D01*
X10350237Y-18246192D01*
X10335951Y-18217620D01*
X10307380Y-18203334D01*
X10264523Y-18203334D01*
X10235951Y-18189049D01*
X10221666Y-18160477D01*
X10221666Y-18146192D01*
X10235951Y-18117620D01*
X10264523Y-18103334D01*
X10307380Y-18103334D01*
X10335951Y-18117620D01*
X10450237Y-18417620D02*
X10464523Y-18403334D01*
X10493094Y-18360477D01*
X10507380Y-18331906D01*
X10521666Y-18289049D01*
X10535951Y-18217620D01*
X10535951Y-18160477D01*
X10521666Y-18089049D01*
X10507380Y-18046192D01*
X10493094Y-18017620D01*
X10464523Y-17974763D01*
X10450237Y-17960477D01*
X3392380Y-18563620D02*
G75*
G03X3392380Y-18563620I-50000J0D01*
G01*
X3835951Y-18699334D02*
X3664523Y-18699334D01*
X3750237Y-18699334D02*
X3750237Y-18399334D01*
X3721666Y-18442192D01*
X3693094Y-18470763D01*
X3664523Y-18485049D01*
X3964523Y-18670763D02*
X3978808Y-18685049D01*
X3964523Y-18699334D01*
X3950237Y-18685049D01*
X3964523Y-18670763D01*
X3964523Y-18699334D01*
X4164523Y-18399334D02*
X4193094Y-18399334D01*
X4221666Y-18413620D01*
X4235951Y-18427906D01*
X4250237Y-18456477D01*
X4264523Y-18513620D01*
X4264523Y-18585049D01*
X4250237Y-18642192D01*
X4235951Y-18670763D01*
X4221666Y-18685049D01*
X4193094Y-18699334D01*
X4164523Y-18699334D01*
X4135951Y-18685049D01*
X4121666Y-18670763D01*
X4107380Y-18642192D01*
X4093094Y-18585049D01*
X4093094Y-18513620D01*
X4107380Y-18456477D01*
X4121666Y-18427906D01*
X4135951Y-18413620D01*
X4164523Y-18399334D01*
X4450237Y-18399334D02*
X4478808Y-18399334D01*
X4507380Y-18413620D01*
X4521666Y-18427906D01*
X4535951Y-18456477D01*
X4550237Y-18513620D01*
X4550237Y-18585049D01*
X4535951Y-18642192D01*
X4521666Y-18670763D01*
X4507380Y-18685049D01*
X4478808Y-18699334D01*
X4450237Y-18699334D01*
X4421666Y-18685049D01*
X4407380Y-18670763D01*
X4393094Y-18642192D01*
X4378808Y-18585049D01*
X4378808Y-18513620D01*
X4393094Y-18456477D01*
X4407380Y-18427906D01*
X4421666Y-18413620D01*
X4450237Y-18399334D01*
X4678808Y-18699334D02*
X4678808Y-18499334D01*
X4678808Y-18527906D02*
X4693094Y-18513620D01*
X4721666Y-18499334D01*
X4764523Y-18499334D01*
X4793094Y-18513620D01*
X4807380Y-18542192D01*
X4807380Y-18699334D01*
X4807380Y-18542192D02*
X4821666Y-18513620D01*
X4850237Y-18499334D01*
X4893094Y-18499334D01*
X4921666Y-18513620D01*
X4935951Y-18542192D01*
X4935951Y-18699334D01*
X5078808Y-18699334D02*
X5078808Y-18499334D01*
X5078808Y-18527906D02*
X5093094Y-18513620D01*
X5121666Y-18499334D01*
X5164523Y-18499334D01*
X5193094Y-18513620D01*
X5207380Y-18542192D01*
X5207380Y-18699334D01*
X5207380Y-18542192D02*
X5221666Y-18513620D01*
X5250237Y-18499334D01*
X5293094Y-18499334D01*
X5321666Y-18513620D01*
X5335951Y-18542192D01*
X5335951Y-18699334D01*
X5921666Y-18385049D02*
X5664523Y-18770763D01*
X6307380Y-18399334D02*
X6335951Y-18399334D01*
X6364523Y-18413620D01*
X6378808Y-18427906D01*
X6393094Y-18456477D01*
X6407380Y-18513620D01*
X6407380Y-18585049D01*
X6393094Y-18642192D01*
X6378808Y-18670763D01*
X6364523Y-18685049D01*
X6335951Y-18699334D01*
X6307380Y-18699334D01*
X6278808Y-18685049D01*
X6264523Y-18670763D01*
X6250237Y-18642192D01*
X6235951Y-18585049D01*
X6235951Y-18513620D01*
X6250237Y-18456477D01*
X6264523Y-18427906D01*
X6278808Y-18413620D01*
X6307380Y-18399334D01*
X6535951Y-18670763D02*
X6550237Y-18685049D01*
X6535951Y-18699334D01*
X6521666Y-18685049D01*
X6535951Y-18670763D01*
X6535951Y-18699334D01*
X6735951Y-18399334D02*
X6764523Y-18399334D01*
X6793094Y-18413620D01*
X6807380Y-18427906D01*
X6821666Y-18456477D01*
X6835951Y-18513620D01*
X6835951Y-18585049D01*
X6821666Y-18642192D01*
X6807380Y-18670763D01*
X6793094Y-18685049D01*
X6764523Y-18699334D01*
X6735951Y-18699334D01*
X6707380Y-18685049D01*
X6693094Y-18670763D01*
X6678808Y-18642192D01*
X6664523Y-18585049D01*
X6664523Y-18513620D01*
X6678808Y-18456477D01*
X6693094Y-18427906D01*
X6707380Y-18413620D01*
X6735951Y-18399334D01*
X6935951Y-18399334D02*
X7121666Y-18399334D01*
X7021666Y-18513620D01*
X7064523Y-18513620D01*
X7093094Y-18527906D01*
X7107380Y-18542192D01*
X7121666Y-18570763D01*
X7121666Y-18642192D01*
X7107380Y-18670763D01*
X7093094Y-18685049D01*
X7064523Y-18699334D01*
X6978808Y-18699334D01*
X6950237Y-18685049D01*
X6935951Y-18670763D01*
X7264523Y-18699334D02*
X7321666Y-18699334D01*
X7350237Y-18685049D01*
X7364523Y-18670763D01*
X7393094Y-18627906D01*
X7407380Y-18570763D01*
X7407380Y-18456477D01*
X7393094Y-18427906D01*
X7378808Y-18413620D01*
X7350237Y-18399334D01*
X7293094Y-18399334D01*
X7264523Y-18413620D01*
X7250237Y-18427906D01*
X7235951Y-18456477D01*
X7235951Y-18527906D01*
X7250237Y-18556477D01*
X7264523Y-18570763D01*
X7293094Y-18585049D01*
X7350237Y-18585049D01*
X7378808Y-18570763D01*
X7393094Y-18556477D01*
X7407380Y-18527906D01*
X7521666Y-18399334D02*
X7521666Y-18456477D01*
X7635951Y-18399334D02*
X7635951Y-18456477D01*
X8078808Y-18813620D02*
X8064523Y-18799334D01*
X8035951Y-18756477D01*
X8021666Y-18727906D01*
X8007380Y-18685049D01*
X7993094Y-18613620D01*
X7993094Y-18556477D01*
X8007380Y-18485049D01*
X8021666Y-18442192D01*
X8035951Y-18413620D01*
X8064523Y-18370763D01*
X8078808Y-18356477D01*
X8164523Y-18399334D02*
X8350237Y-18399334D01*
X8250237Y-18513620D01*
X8293094Y-18513620D01*
X8321666Y-18527906D01*
X8335951Y-18542192D01*
X8350237Y-18570763D01*
X8350237Y-18642192D01*
X8335951Y-18670763D01*
X8321666Y-18685049D01*
X8293094Y-18699334D01*
X8207380Y-18699334D01*
X8178808Y-18685049D01*
X8164523Y-18670763D01*
X8607380Y-18399334D02*
X8550237Y-18399334D01*
X8521666Y-18413620D01*
X8507380Y-18427906D01*
X8478808Y-18470763D01*
X8464523Y-18527906D01*
X8464523Y-18642192D01*
X8478808Y-18670763D01*
X8493094Y-18685049D01*
X8521666Y-18699334D01*
X8578808Y-18699334D01*
X8607380Y-18685049D01*
X8621666Y-18670763D01*
X8635951Y-18642192D01*
X8635951Y-18570763D01*
X8621666Y-18542192D01*
X8607380Y-18527906D01*
X8578808Y-18513620D01*
X8521666Y-18513620D01*
X8493094Y-18527906D01*
X8478808Y-18542192D01*
X8464523Y-18570763D01*
X8993094Y-18699334D02*
X8993094Y-18399334D01*
X9121666Y-18699334D02*
X9121666Y-18542192D01*
X9107380Y-18513620D01*
X9078808Y-18499334D01*
X9035951Y-18499334D01*
X9007380Y-18513620D01*
X8993094Y-18527906D01*
X9307380Y-18699334D02*
X9278808Y-18685049D01*
X9264523Y-18670763D01*
X9250237Y-18642192D01*
X9250237Y-18556477D01*
X9264523Y-18527906D01*
X9278808Y-18513620D01*
X9307380Y-18499334D01*
X9350237Y-18499334D01*
X9378808Y-18513620D01*
X9393094Y-18527906D01*
X9407380Y-18556477D01*
X9407380Y-18642192D01*
X9393094Y-18670763D01*
X9378808Y-18685049D01*
X9350237Y-18699334D01*
X9307380Y-18699334D01*
X9578808Y-18699334D02*
X9550237Y-18685049D01*
X9535951Y-18656477D01*
X9535951Y-18399334D01*
X9807380Y-18685049D02*
X9778808Y-18699334D01*
X9721666Y-18699334D01*
X9693094Y-18685049D01*
X9678808Y-18656477D01*
X9678808Y-18542192D01*
X9693094Y-18513620D01*
X9721666Y-18499334D01*
X9778808Y-18499334D01*
X9807380Y-18513620D01*
X9821666Y-18542192D01*
X9821666Y-18570763D01*
X9678808Y-18599334D01*
X9935951Y-18685049D02*
X9964523Y-18699334D01*
X10021666Y-18699334D01*
X10050237Y-18685049D01*
X10064523Y-18656477D01*
X10064523Y-18642192D01*
X10050237Y-18613620D01*
X10021666Y-18599334D01*
X9978808Y-18599334D01*
X9950237Y-18585049D01*
X9935951Y-18556477D01*
X9935951Y-18542192D01*
X9950237Y-18513620D01*
X9978808Y-18499334D01*
X10021666Y-18499334D01*
X10050237Y-18513620D01*
X10164523Y-18813620D02*
X10178808Y-18799334D01*
X10207380Y-18756477D01*
X10221666Y-18727906D01*
X10235951Y-18685049D01*
X10250237Y-18613620D01*
X10250237Y-18556477D01*
X10235951Y-18485049D01*
X10221666Y-18442192D01*
X10207380Y-18413620D01*
X10178808Y-18370763D01*
X10164523Y-18356477D01*
X3332380Y-18899620D02*
X3332380Y-19019620D01*
X3272380Y-18959620D02*
X3392380Y-18959620D01*
X3835951Y-19095334D02*
X3664523Y-19095334D01*
X3750237Y-19095334D02*
X3750237Y-18795334D01*
X3721666Y-18838192D01*
X3693094Y-18866763D01*
X3664523Y-18881049D01*
X3964523Y-19066763D02*
X3978808Y-19081049D01*
X3964523Y-19095334D01*
X3950237Y-19081049D01*
X3964523Y-19066763D01*
X3964523Y-19095334D01*
X4093094Y-18823906D02*
X4107380Y-18809620D01*
X4135951Y-18795334D01*
X4207380Y-18795334D01*
X4235951Y-18809620D01*
X4250237Y-18823906D01*
X4264523Y-18852477D01*
X4264523Y-18881049D01*
X4250237Y-18923906D01*
X4078808Y-19095334D01*
X4264523Y-19095334D01*
X4450237Y-18795334D02*
X4478808Y-18795334D01*
X4507380Y-18809620D01*
X4521666Y-18823906D01*
X4535951Y-18852477D01*
X4550237Y-18909620D01*
X4550237Y-18981049D01*
X4535951Y-19038192D01*
X4521666Y-19066763D01*
X4507380Y-19081049D01*
X4478808Y-19095334D01*
X4450237Y-19095334D01*
X4421666Y-19081049D01*
X4407380Y-19066763D01*
X4393094Y-19038192D01*
X4378808Y-18981049D01*
X4378808Y-18909620D01*
X4393094Y-18852477D01*
X4407380Y-18823906D01*
X4421666Y-18809620D01*
X4450237Y-18795334D01*
X4678808Y-19095334D02*
X4678808Y-18895334D01*
X4678808Y-18923906D02*
X4693094Y-18909620D01*
X4721666Y-18895334D01*
X4764523Y-18895334D01*
X4793094Y-18909620D01*
X4807380Y-18938192D01*
X4807380Y-19095334D01*
X4807380Y-18938192D02*
X4821666Y-18909620D01*
X4850237Y-18895334D01*
X4893094Y-18895334D01*
X4921666Y-18909620D01*
X4935951Y-18938192D01*
X4935951Y-19095334D01*
X5078808Y-19095334D02*
X5078808Y-18895334D01*
X5078808Y-18923906D02*
X5093094Y-18909620D01*
X5121666Y-18895334D01*
X5164523Y-18895334D01*
X5193094Y-18909620D01*
X5207380Y-18938192D01*
X5207380Y-19095334D01*
X5207380Y-18938192D02*
X5221666Y-18909620D01*
X5250237Y-18895334D01*
X5293094Y-18895334D01*
X5321666Y-18909620D01*
X5335951Y-18938192D01*
X5335951Y-19095334D01*
X5921666Y-18781049D02*
X5664523Y-19166763D01*
X6307380Y-18795334D02*
X6335951Y-18795334D01*
X6364523Y-18809620D01*
X6378808Y-18823906D01*
X6393094Y-18852477D01*
X6407380Y-18909620D01*
X6407380Y-18981049D01*
X6393094Y-19038192D01*
X6378808Y-19066763D01*
X6364523Y-19081049D01*
X6335951Y-19095334D01*
X6307380Y-19095334D01*
X6278808Y-19081049D01*
X6264523Y-19066763D01*
X6250237Y-19038192D01*
X6235951Y-18981049D01*
X6235951Y-18909620D01*
X6250237Y-18852477D01*
X6264523Y-18823906D01*
X6278808Y-18809620D01*
X6307380Y-18795334D01*
X6535951Y-19066763D02*
X6550237Y-19081049D01*
X6535951Y-19095334D01*
X6521666Y-19081049D01*
X6535951Y-19066763D01*
X6535951Y-19095334D01*
X6735951Y-18795334D02*
X6764523Y-18795334D01*
X6793094Y-18809620D01*
X6807380Y-18823906D01*
X6821666Y-18852477D01*
X6835951Y-18909620D01*
X6835951Y-18981049D01*
X6821666Y-19038192D01*
X6807380Y-19066763D01*
X6793094Y-19081049D01*
X6764523Y-19095334D01*
X6735951Y-19095334D01*
X6707380Y-19081049D01*
X6693094Y-19066763D01*
X6678808Y-19038192D01*
X6664523Y-18981049D01*
X6664523Y-18909620D01*
X6678808Y-18852477D01*
X6693094Y-18823906D01*
X6707380Y-18809620D01*
X6735951Y-18795334D01*
X7093094Y-18895334D02*
X7093094Y-19095334D01*
X7021666Y-18781049D02*
X6950237Y-18995334D01*
X7135951Y-18995334D01*
X7221666Y-18795334D02*
X7421666Y-18795334D01*
X7293094Y-19095334D01*
X7521666Y-18795334D02*
X7521666Y-18852477D01*
X7635951Y-18795334D02*
X7635951Y-18852477D01*
X8078808Y-19209620D02*
X8064523Y-19195334D01*
X8035951Y-19152477D01*
X8021666Y-19123906D01*
X8007380Y-19081049D01*
X7993094Y-19009620D01*
X7993094Y-18952477D01*
X8007380Y-18881049D01*
X8021666Y-18838192D01*
X8035951Y-18809620D01*
X8064523Y-18766763D01*
X8078808Y-18752477D01*
X8350237Y-19095334D02*
X8178808Y-19095334D01*
X8264523Y-19095334D02*
X8264523Y-18795334D01*
X8235951Y-18838192D01*
X8207380Y-18866763D01*
X8178808Y-18881049D01*
X8607380Y-18795334D02*
X8550237Y-18795334D01*
X8521666Y-18809620D01*
X8507380Y-18823906D01*
X8478808Y-18866763D01*
X8464523Y-18923906D01*
X8464523Y-19038192D01*
X8478808Y-19066763D01*
X8493094Y-19081049D01*
X8521666Y-19095334D01*
X8578808Y-19095334D01*
X8607380Y-19081049D01*
X8621666Y-19066763D01*
X8635951Y-19038192D01*
X8635951Y-18966763D01*
X8621666Y-18938192D01*
X8607380Y-18923906D01*
X8578808Y-18909620D01*
X8521666Y-18909620D01*
X8493094Y-18923906D01*
X8478808Y-18938192D01*
X8464523Y-18966763D01*
X8993094Y-19095334D02*
X8993094Y-18795334D01*
X9121666Y-19095334D02*
X9121666Y-18938192D01*
X9107380Y-18909620D01*
X9078808Y-18895334D01*
X9035951Y-18895334D01*
X9007380Y-18909620D01*
X8993094Y-18923906D01*
X9307380Y-19095334D02*
X9278808Y-19081049D01*
X9264523Y-19066763D01*
X9250237Y-19038192D01*
X9250237Y-18952477D01*
X9264523Y-18923906D01*
X9278808Y-18909620D01*
X9307380Y-18895334D01*
X9350237Y-18895334D01*
X9378808Y-18909620D01*
X9393094Y-18923906D01*
X9407380Y-18952477D01*
X9407380Y-19038192D01*
X9393094Y-19066763D01*
X9378808Y-19081049D01*
X9350237Y-19095334D01*
X9307380Y-19095334D01*
X9578808Y-19095334D02*
X9550237Y-19081049D01*
X9535951Y-19052477D01*
X9535951Y-18795334D01*
X9807380Y-19081049D02*
X9778808Y-19095334D01*
X9721666Y-19095334D01*
X9693094Y-19081049D01*
X9678808Y-19052477D01*
X9678808Y-18938192D01*
X9693094Y-18909620D01*
X9721666Y-18895334D01*
X9778808Y-18895334D01*
X9807380Y-18909620D01*
X9821666Y-18938192D01*
X9821666Y-18966763D01*
X9678808Y-18995334D01*
X9935951Y-19081049D02*
X9964523Y-19095334D01*
X10021666Y-19095334D01*
X10050237Y-19081049D01*
X10064523Y-19052477D01*
X10064523Y-19038192D01*
X10050237Y-19009620D01*
X10021666Y-18995334D01*
X9978808Y-18995334D01*
X9950237Y-18981049D01*
X9935951Y-18952477D01*
X9935951Y-18938192D01*
X9950237Y-18909620D01*
X9978808Y-18895334D01*
X10021666Y-18895334D01*
X10050237Y-18909620D01*
X10164523Y-19209620D02*
X10178808Y-19195334D01*
X10207380Y-19152477D01*
X10221666Y-19123906D01*
X10235951Y-19081049D01*
X10250237Y-19009620D01*
X10250237Y-18952477D01*
X10235951Y-18881049D01*
X10221666Y-18838192D01*
X10207380Y-18809620D01*
X10178808Y-18766763D01*
X10164523Y-18752477D01*
X3314765Y-19543005D02*
X3314765Y-19168235D01*
X2939995Y-19168235D01*
X2939995Y-19543005D01*
X3314765Y-19543005D01*
X3821666Y-19191334D02*
X3678808Y-19191334D01*
X3664523Y-19334192D01*
X3678808Y-19319906D01*
X3707380Y-19305620D01*
X3778808Y-19305620D01*
X3807380Y-19319906D01*
X3821666Y-19334192D01*
X3835951Y-19362763D01*
X3835951Y-19434192D01*
X3821666Y-19462763D01*
X3807380Y-19477049D01*
X3778808Y-19491334D01*
X3707380Y-19491334D01*
X3678808Y-19477049D01*
X3664523Y-19462763D01*
X3964523Y-19462763D02*
X3978808Y-19477049D01*
X3964523Y-19491334D01*
X3950237Y-19477049D01*
X3964523Y-19462763D01*
X3964523Y-19491334D01*
X4078808Y-19191334D02*
X4264523Y-19191334D01*
X4164523Y-19305620D01*
X4207380Y-19305620D01*
X4235951Y-19319906D01*
X4250237Y-19334192D01*
X4264523Y-19362763D01*
X4264523Y-19434192D01*
X4250237Y-19462763D01*
X4235951Y-19477049D01*
X4207380Y-19491334D01*
X4121666Y-19491334D01*
X4093094Y-19477049D01*
X4078808Y-19462763D01*
X4450237Y-19191334D02*
X4478808Y-19191334D01*
X4507380Y-19205620D01*
X4521666Y-19219906D01*
X4535951Y-19248477D01*
X4550237Y-19305620D01*
X4550237Y-19377049D01*
X4535951Y-19434192D01*
X4521666Y-19462763D01*
X4507380Y-19477049D01*
X4478808Y-19491334D01*
X4450237Y-19491334D01*
X4421666Y-19477049D01*
X4407380Y-19462763D01*
X4393094Y-19434192D01*
X4378808Y-19377049D01*
X4378808Y-19305620D01*
X4393094Y-19248477D01*
X4407380Y-19219906D01*
X4421666Y-19205620D01*
X4450237Y-19191334D01*
X4678808Y-19491334D02*
X4678808Y-19291334D01*
X4678808Y-19319906D02*
X4693094Y-19305620D01*
X4721666Y-19291334D01*
X4764523Y-19291334D01*
X4793094Y-19305620D01*
X4807380Y-19334192D01*
X4807380Y-19491334D01*
X4807380Y-19334192D02*
X4821666Y-19305620D01*
X4850237Y-19291334D01*
X4893094Y-19291334D01*
X4921666Y-19305620D01*
X4935951Y-19334192D01*
X4935951Y-19491334D01*
X5078808Y-19491334D02*
X5078808Y-19291334D01*
X5078808Y-19319906D02*
X5093094Y-19305620D01*
X5121666Y-19291334D01*
X5164523Y-19291334D01*
X5193094Y-19305620D01*
X5207380Y-19334192D01*
X5207380Y-19491334D01*
X5207380Y-19334192D02*
X5221666Y-19305620D01*
X5250237Y-19291334D01*
X5293094Y-19291334D01*
X5321666Y-19305620D01*
X5335951Y-19334192D01*
X5335951Y-19491334D01*
X5921666Y-19177049D02*
X5664523Y-19562763D01*
X6307380Y-19191334D02*
X6335951Y-19191334D01*
X6364523Y-19205620D01*
X6378808Y-19219906D01*
X6393094Y-19248477D01*
X6407380Y-19305620D01*
X6407380Y-19377049D01*
X6393094Y-19434192D01*
X6378808Y-19462763D01*
X6364523Y-19477049D01*
X6335951Y-19491334D01*
X6307380Y-19491334D01*
X6278808Y-19477049D01*
X6264523Y-19462763D01*
X6250237Y-19434192D01*
X6235951Y-19377049D01*
X6235951Y-19305620D01*
X6250237Y-19248477D01*
X6264523Y-19219906D01*
X6278808Y-19205620D01*
X6307380Y-19191334D01*
X6535951Y-19462763D02*
X6550237Y-19477049D01*
X6535951Y-19491334D01*
X6521666Y-19477049D01*
X6535951Y-19462763D01*
X6535951Y-19491334D01*
X6664523Y-19219906D02*
X6678808Y-19205620D01*
X6707380Y-19191334D01*
X6778808Y-19191334D01*
X6807380Y-19205620D01*
X6821666Y-19219906D01*
X6835951Y-19248477D01*
X6835951Y-19277049D01*
X6821666Y-19319906D01*
X6650237Y-19491334D01*
X6835951Y-19491334D01*
X7021666Y-19191334D02*
X7050237Y-19191334D01*
X7078808Y-19205620D01*
X7093094Y-19219906D01*
X7107380Y-19248477D01*
X7121666Y-19305620D01*
X7121666Y-19377049D01*
X7107380Y-19434192D01*
X7093094Y-19462763D01*
X7078808Y-19477049D01*
X7050237Y-19491334D01*
X7021666Y-19491334D01*
X6993094Y-19477049D01*
X6978808Y-19462763D01*
X6964523Y-19434192D01*
X6950237Y-19377049D01*
X6950237Y-19305620D01*
X6964523Y-19248477D01*
X6978808Y-19219906D01*
X6993094Y-19205620D01*
X7021666Y-19191334D01*
X7264523Y-19491334D02*
X7321666Y-19491334D01*
X7350237Y-19477049D01*
X7364523Y-19462763D01*
X7393094Y-19419906D01*
X7407380Y-19362763D01*
X7407380Y-19248477D01*
X7393094Y-19219906D01*
X7378808Y-19205620D01*
X7350237Y-19191334D01*
X7293094Y-19191334D01*
X7264523Y-19205620D01*
X7250237Y-19219906D01*
X7235951Y-19248477D01*
X7235951Y-19319906D01*
X7250237Y-19348477D01*
X7264523Y-19362763D01*
X7293094Y-19377049D01*
X7350237Y-19377049D01*
X7378808Y-19362763D01*
X7393094Y-19348477D01*
X7407380Y-19319906D01*
X7521666Y-19191334D02*
X7521666Y-19248477D01*
X7635951Y-19191334D02*
X7635951Y-19248477D01*
X8078808Y-19605620D02*
X8064523Y-19591334D01*
X8035951Y-19548477D01*
X8021666Y-19519906D01*
X8007380Y-19477049D01*
X7993094Y-19405620D01*
X7993094Y-19348477D01*
X8007380Y-19277049D01*
X8021666Y-19234192D01*
X8035951Y-19205620D01*
X8064523Y-19162763D01*
X8078808Y-19148477D01*
X8321666Y-19291334D02*
X8321666Y-19491334D01*
X8250237Y-19177049D02*
X8178808Y-19391334D01*
X8364523Y-19391334D01*
X8707380Y-19491334D02*
X8707380Y-19191334D01*
X8835951Y-19491334D02*
X8835951Y-19334192D01*
X8821666Y-19305620D01*
X8793094Y-19291334D01*
X8750237Y-19291334D01*
X8721666Y-19305620D01*
X8707380Y-19319906D01*
X9021666Y-19491334D02*
X8993094Y-19477049D01*
X8978808Y-19462763D01*
X8964523Y-19434192D01*
X8964523Y-19348477D01*
X8978808Y-19319906D01*
X8993094Y-19305620D01*
X9021666Y-19291334D01*
X9064523Y-19291334D01*
X9093094Y-19305620D01*
X9107380Y-19319906D01*
X9121666Y-19348477D01*
X9121666Y-19434192D01*
X9107380Y-19462763D01*
X9093094Y-19477049D01*
X9064523Y-19491334D01*
X9021666Y-19491334D01*
X9293094Y-19491334D02*
X9264523Y-19477049D01*
X9250237Y-19448477D01*
X9250237Y-19191334D01*
X9521666Y-19477049D02*
X9493094Y-19491334D01*
X9435951Y-19491334D01*
X9407380Y-19477049D01*
X9393094Y-19448477D01*
X9393094Y-19334192D01*
X9407380Y-19305620D01*
X9435951Y-19291334D01*
X9493094Y-19291334D01*
X9521666Y-19305620D01*
X9535951Y-19334192D01*
X9535951Y-19362763D01*
X9393094Y-19391334D01*
X9650237Y-19477049D02*
X9678808Y-19491334D01*
X9735951Y-19491334D01*
X9764523Y-19477049D01*
X9778808Y-19448477D01*
X9778808Y-19434192D01*
X9764523Y-19405620D01*
X9735951Y-19391334D01*
X9693094Y-19391334D01*
X9664523Y-19377049D01*
X9650237Y-19348477D01*
X9650237Y-19334192D01*
X9664523Y-19305620D01*
X9693094Y-19291334D01*
X9735951Y-19291334D01*
X9764523Y-19305620D01*
X9878808Y-19605620D02*
X9893094Y-19591334D01*
X9921666Y-19548477D01*
X9935951Y-19519906D01*
X9950237Y-19477049D01*
X9964523Y-19405620D01*
X9964523Y-19348477D01*
X9950237Y-19277049D01*
X9935951Y-19234192D01*
X9921666Y-19205620D01*
X9893094Y-19162763D01*
X9878808Y-19148477D01*
M02*
