M48
;DRILL file {KiCad 5.0.0} date Tue Aug 14 07:29:06 2018
;FORMAT={-:-/ absolute / inch / decimal}
FMAT,2
INCH,TZ
T1C0.0130
T2C0.0394
T3C0.0472
T4C0.2087
%
G90
G05
M72
T1
X2.1673Y-2.8937
X2.1673Y-4.0748
X2.1673Y-5.2559
X2.1673Y-6.437
X2.1929Y-2.9114
X2.1929Y-4.0925
X2.1929Y-5.2736
X2.1929Y-6.4547
X2.2205Y-2.8898
X2.2205Y-4.0709
X2.2205Y-5.252
X2.2205Y-6.4331
X2.4724Y-2.689
X2.4724Y-3.8701
X2.4724Y-5.0512
X2.4724Y-6.2323
X2.5336Y-2.7283
X2.5336Y-3.9094
X2.5336Y-5.0906
X2.5336Y-6.2717
X2.6916Y-2.771
X2.6916Y-3.9521
X2.6916Y-3.9521
X2.6916Y-5.1332
X2.6916Y-6.3143
X2.7087Y-2.6575
X2.7087Y-3.8386
X2.7087Y-3.8386
X2.7087Y-5.0197
X2.7087Y-6.2008
X2.7874Y-2.7874
X2.7874Y-3.9685
X2.7874Y-3.9685
X2.7874Y-5.1496
X2.7874Y-6.3307
X2.9134Y-2.8937
X2.9134Y-4.0748
X2.9134Y-5.2559
X2.9134Y-6.437
X3.128Y-4.1634
X3.1457Y-4.1319
X3.1811Y-2.9705
X3.1988Y-3.0138
X3.2323Y-4.2146
X3.2992Y-5.1614
X3.3071Y-4.1772
X3.3228Y-5.2421
X3.3475Y-3.2126
X3.3949Y-4.2323
X3.3965Y-3.1896
X3.4528Y-4.935
X3.4665Y-4.1831
X3.5079Y-4.9016
X3.5669Y-4.2087
X3.5886Y-3.4331
X3.622Y-2.2441
X3.622Y-2.3228
X3.622Y-2.4016
X3.6614Y-2.2835
X3.6614Y-2.3622
X3.6614Y-2.4409
X3.7008Y-2.2441
X3.7008Y-2.3228
X3.7205Y-3.9961
X3.7303Y-2.6575
X3.7402Y-2.2835
X3.7402Y-2.3622
X3.7697Y-2.6614
X3.7795Y-2.2441
X3.7795Y-2.3228
X3.7795Y-2.4016
X3.8138Y-3.2908
X3.8189Y-2.2835
X3.8189Y-2.3622
X3.8189Y-2.4409
X3.8189Y-4.2126
X3.8386Y-4.1339
X3.8583Y-2.2441
X3.8583Y-2.3228
X3.8583Y-2.4016
X3.9173Y-4.1535
X3.9626Y-3.1083
X3.9685Y-3.1516
X3.9739Y-4.2739
X3.9764Y-4.311
X4.2323Y-2.0472
X4.2323Y-3.2283
X4.2323Y-4.4094
X4.2323Y-5.5906
X4.3622Y-2.0669
X4.3622Y-2.1555
X4.3622Y-3.3366
X4.3622Y-4.5177
X4.3622Y-5.6988
X4.3898Y-1.993
X4.4409Y-2.2854
X4.4409Y-3.4665
X4.4409Y-4.6476
X4.4409Y-5.8287
X4.458Y-2.1719
X4.458Y-3.353
X4.458Y-4.5341
X4.458Y-5.7152
X4.616Y-2.2146
X4.616Y-3.3957
X4.616Y-4.5768
X4.616Y-5.7579
X4.6772Y-2.2539
X4.6772Y-3.435
X4.6772Y-4.6161
X4.6772Y-5.7972
X4.9291Y-2.0531
X4.9291Y-3.2343
X4.9291Y-4.4154
X4.9291Y-5.5965
X4.9567Y-2.0315
X4.9567Y-3.2126
X4.9567Y-4.3937
X4.9567Y-5.5748
X4.9823Y-2.0492
X4.9823Y-3.2303
X4.9823Y-4.4114
X4.9823Y-5.5925
T2
X3.6614Y-3.6437
X3.6614Y-3.7437
X3.6614Y-3.8437
X3.6614Y-3.9437
X3.6614Y-4.0437
X4.8268Y-2.8524
X5.0236Y-2.8524
X2.126Y-5.6339
X2.3228Y-5.6339
X2.126Y-2.0906
X2.3228Y-2.0906
X3.5118Y-4.35
X3.5118Y-4.45
X3.5118Y-4.55
X3.5118Y-4.65
X3.5118Y-4.75
X3.3504Y-4.3539
X3.3504Y-4.4539
X3.3504Y-4.5539
X3.3504Y-4.6539
X3.3504Y-4.7539
X2.126Y-4.4528
X2.3228Y-4.4528
X4.8268Y-5.2146
X5.0236Y-5.2146
X2.126Y-3.2717
X2.3228Y-3.2717
X3.8307Y-3.6437
X3.8307Y-3.7437
X3.8307Y-3.8437
X3.8307Y-3.9437
X3.8307Y-4.0437
X4.8268Y-6.3957
X5.0236Y-6.3957
X4.8268Y-4.0335
X5.0236Y-4.0335
T3
X2.6811Y-2.2402
X2.9764Y-2.2402
X2.6811Y-4.6024
X2.9764Y-4.6024
X4.1732Y-6.2461
X4.4685Y-6.2461
X2.6811Y-5.7835
X2.9764Y-5.7835
X4.1732Y-5.065
X4.4685Y-5.065
X4.1732Y-3.8839
X4.4685Y-3.8839
X2.6811Y-3.4213
X2.9764Y-3.4213
X4.1732Y-2.7028
X4.4685Y-2.7028
T4
X1.6535Y-6.4567
X5.4921Y-6.4567
X5.4823Y-2.1752
X1.6535Y-2.185
T0
M30
