G04 #@! TF.GenerationSoftware,KiCad,Pcbnew,5.0.0*
G04 #@! TF.CreationDate,2018-08-14T07:29:03-04:00*
G04 #@! TF.ProjectId,peripherals,7065726970686572616C732E6B696361,rev?*
G04 #@! TF.SameCoordinates,Original*
G04 #@! TF.FileFunction,Copper,L2,Bot,Signal*
G04 #@! TF.FilePolarity,Positive*
%FSLAX46Y46*%
G04 Gerber Fmt 4.6, Leading zero omitted, Abs format (unit mm)*
G04 Created by KiCad (PCBNEW 5.0.0) date Tue Aug 14 07:29:03 2018*
%MOMM*%
%LPD*%
G01*
G04 APERTURE LIST*
G04 #@! TA.AperFunction,ComponentPad*
%ADD10C,10.600000*%
G04 #@! TD*
G04 #@! TA.AperFunction,ComponentPad*
%ADD11R,1.700000X1.700000*%
G04 #@! TD*
G04 #@! TA.AperFunction,ComponentPad*
%ADD12O,1.700000X1.700000*%
G04 #@! TD*
G04 #@! TA.AperFunction,ComponentPad*
%ADD13R,2.000000X2.000000*%
G04 #@! TD*
G04 #@! TA.AperFunction,ComponentPad*
%ADD14C,2.000000*%
G04 #@! TD*
G04 #@! TA.AperFunction,ComponentPad*
%ADD15R,2.400000X2.400000*%
G04 #@! TD*
G04 #@! TA.AperFunction,ComponentPad*
%ADD16C,2.400000*%
G04 #@! TD*
G04 #@! TA.AperFunction,SMDPad,CuDef*
%ADD17R,8.000000X6.000000*%
G04 #@! TD*
G04 #@! TA.AperFunction,ViaPad*
%ADD18C,0.685800*%
G04 #@! TD*
G04 #@! TA.AperFunction,Conductor*
%ADD19C,0.762000*%
G04 #@! TD*
G04 #@! TA.AperFunction,Conductor*
%ADD20C,0.254000*%
G04 #@! TD*
G04 #@! TA.AperFunction,Conductor*
%ADD21C,1.270000*%
G04 #@! TD*
G04 #@! TA.AperFunction,Conductor*
%ADD22C,0.508000*%
G04 #@! TD*
G04 #@! TA.AperFunction,Conductor*
%ADD23C,0.152400*%
G04 #@! TD*
G04 APERTURE END LIST*
D10*
G04 #@! TO.P,MH104,1*
G04 #@! TO.N,N/C*
X139500000Y-164000000D03*
G04 #@! TD*
G04 #@! TO.P,MH103,1*
G04 #@! TO.N,N/C*
X139250000Y-55250000D03*
G04 #@! TD*
G04 #@! TO.P,MH101,1*
G04 #@! TO.N,N/C*
X42000000Y-164000000D03*
G04 #@! TD*
G04 #@! TO.P,MH102,1*
G04 #@! TO.N,N/C*
X42000000Y-55500000D03*
G04 #@! TD*
D11*
G04 #@! TO.P,J101,1*
G04 #@! TO.N,GND*
X85100000Y-120750000D03*
D12*
G04 #@! TO.P,J101,2*
G04 #@! TO.N,/sheet5B6E69C4/IN*
X85100000Y-118210000D03*
G04 #@! TO.P,J101,3*
G04 #@! TO.N,/sheet5B6E69C3/IN*
X85100000Y-115670000D03*
G04 #@! TO.P,J101,4*
G04 #@! TO.N,/sheet5B6E69B5/IN*
X85100000Y-113130000D03*
G04 #@! TO.P,J101,5*
G04 #@! TO.N,/Sheet5B7230C3/IN*
X85100000Y-110590000D03*
G04 #@! TD*
G04 #@! TO.P,J102,5*
G04 #@! TO.N,/sheet5B6E6A5A/IN*
X97300000Y-102710000D03*
G04 #@! TO.P,J102,4*
G04 #@! TO.N,/sheet5B6E6A5B/IN*
X97300000Y-100170000D03*
G04 #@! TO.P,J102,3*
G04 #@! TO.N,/sheet5B6E6A5C/IN*
X97300000Y-97630000D03*
G04 #@! TO.P,J102,2*
G04 #@! TO.N,/sheet5B6E6A5D/IN*
X97300000Y-95090000D03*
D11*
G04 #@! TO.P,J102,1*
G04 #@! TO.N,GND*
X97300000Y-92550000D03*
G04 #@! TD*
G04 #@! TO.P,J107,1*
G04 #@! TO.N,GND*
X89200000Y-120650000D03*
D12*
G04 #@! TO.P,J107,2*
G04 #@! TO.N,/sheet5B6E69C4/EN*
X89200000Y-118110000D03*
G04 #@! TO.P,J107,3*
G04 #@! TO.N,/sheet5B6E69C3/EN*
X89200000Y-115570000D03*
G04 #@! TO.P,J107,4*
G04 #@! TO.N,/sheet5B6E69B5/EN*
X89200000Y-113030000D03*
G04 #@! TO.P,J107,5*
G04 #@! TO.N,/Sheet5B7230C3/EN*
X89200000Y-110490000D03*
G04 #@! TD*
G04 #@! TO.P,J108,5*
G04 #@! TO.N,/sheet5B6E6A5A/EN*
X93000000Y-102710000D03*
G04 #@! TO.P,J108,4*
G04 #@! TO.N,/sheet5B6E6A5B/EN*
X93000000Y-100170000D03*
G04 #@! TO.P,J108,3*
G04 #@! TO.N,/sheet5B6E6A5C/EN*
X93000000Y-97630000D03*
G04 #@! TO.P,J108,2*
G04 #@! TO.N,/sheet5B6E6A5D/EN*
X93000000Y-95090000D03*
D11*
G04 #@! TO.P,J108,1*
G04 #@! TO.N,GND*
X93000000Y-92550000D03*
G04 #@! TD*
D13*
G04 #@! TO.P,C703,1*
G04 #@! TO.N,+BATT*
X127600000Y-132450000D03*
D14*
G04 #@! TO.P,C703,2*
G04 #@! TO.N,GND*
X122600000Y-132450000D03*
G04 #@! TD*
D13*
G04 #@! TO.P,C203,1*
G04 #@! TO.N,+BATT*
X54000000Y-53100000D03*
D14*
G04 #@! TO.P,C203,2*
G04 #@! TO.N,GND*
X59000000Y-53100000D03*
G04 #@! TD*
D13*
G04 #@! TO.P,C603,1*
G04 #@! TO.N,+BATT*
X127600000Y-162450000D03*
D14*
G04 #@! TO.P,C603,2*
G04 #@! TO.N,GND*
X122600000Y-162450000D03*
G04 #@! TD*
D13*
G04 #@! TO.P,C803,1*
G04 #@! TO.N,+BATT*
X127600000Y-102450000D03*
D14*
G04 #@! TO.P,C803,2*
G04 #@! TO.N,GND*
X122600000Y-102450000D03*
G04 #@! TD*
D13*
G04 #@! TO.P,C903,1*
G04 #@! TO.N,+BATT*
X127600000Y-72450000D03*
D14*
G04 #@! TO.P,C903,2*
G04 #@! TO.N,GND*
X122600000Y-72450000D03*
G04 #@! TD*
D13*
G04 #@! TO.P,C503,1*
G04 #@! TO.N,+BATT*
X54000000Y-143100000D03*
D14*
G04 #@! TO.P,C503,2*
G04 #@! TO.N,GND*
X59000000Y-143100000D03*
G04 #@! TD*
D13*
G04 #@! TO.P,C303,1*
G04 #@! TO.N,+BATT*
X54000000Y-83100000D03*
D14*
G04 #@! TO.P,C303,2*
G04 #@! TO.N,GND*
X59000000Y-83100000D03*
G04 #@! TD*
D13*
G04 #@! TO.P,C403,1*
G04 #@! TO.N,+BATT*
X54000000Y-113100000D03*
D14*
G04 #@! TO.P,C403,2*
G04 #@! TO.N,GND*
X59000000Y-113100000D03*
G04 #@! TD*
D15*
G04 #@! TO.P,C404,1*
G04 #@! TO.N,+BATT*
X68100000Y-116900000D03*
D16*
G04 #@! TO.P,C404,2*
G04 #@! TO.N,GND*
X75600000Y-116900000D03*
G04 #@! TD*
D15*
G04 #@! TO.P,C604,1*
G04 #@! TO.N,+BATT*
X113500000Y-158650000D03*
D16*
G04 #@! TO.P,C604,2*
G04 #@! TO.N,GND*
X106000000Y-158650000D03*
G04 #@! TD*
D15*
G04 #@! TO.P,C304,1*
G04 #@! TO.N,+BATT*
X68100000Y-86900000D03*
D16*
G04 #@! TO.P,C304,2*
G04 #@! TO.N,GND*
X75600000Y-86900000D03*
G04 #@! TD*
D15*
G04 #@! TO.P,C204,1*
G04 #@! TO.N,+BATT*
X68100000Y-56900000D03*
D16*
G04 #@! TO.P,C204,2*
G04 #@! TO.N,GND*
X75600000Y-56900000D03*
G04 #@! TD*
D15*
G04 #@! TO.P,C704,1*
G04 #@! TO.N,+BATT*
X113500000Y-128650000D03*
D16*
G04 #@! TO.P,C704,2*
G04 #@! TO.N,GND*
X106000000Y-128650000D03*
G04 #@! TD*
D15*
G04 #@! TO.P,C904,1*
G04 #@! TO.N,+BATT*
X113500000Y-68650000D03*
D16*
G04 #@! TO.P,C904,2*
G04 #@! TO.N,GND*
X106000000Y-68650000D03*
G04 #@! TD*
D15*
G04 #@! TO.P,C804,1*
G04 #@! TO.N,+BATT*
X113500000Y-98650000D03*
D16*
G04 #@! TO.P,C804,2*
G04 #@! TO.N,GND*
X106000000Y-98650000D03*
G04 #@! TD*
D15*
G04 #@! TO.P,C504,1*
G04 #@! TO.N,+BATT*
X68100000Y-146900000D03*
D16*
G04 #@! TO.P,C504,2*
G04 #@! TO.N,GND*
X75600000Y-146900000D03*
G04 #@! TD*
D17*
G04 #@! TO.P,J106,4*
G04 #@! TO.N,GND*
X40300000Y-99350000D03*
G04 #@! TO.P,J106,2*
X40300000Y-115350000D03*
G04 #@! TO.P,J106,1*
X40300000Y-123350000D03*
G04 #@! TO.P,J106,3*
X40300000Y-107350000D03*
G04 #@! TD*
G04 #@! TO.P,J105,3*
G04 #@! TO.N,GND*
X141450000Y-98300000D03*
G04 #@! TO.P,J105,1*
X141450000Y-114300000D03*
G04 #@! TO.P,J105,2*
X141450000Y-106300000D03*
G04 #@! TO.P,J105,4*
X141450000Y-90300000D03*
G04 #@! TD*
D18*
G04 #@! TO.N,GND*
X68800000Y-67500000D03*
X68800000Y-97500000D03*
X55050000Y-73500000D03*
X55700000Y-73950000D03*
X56400000Y-73400000D03*
X68800000Y-97500000D03*
X55050000Y-103500000D03*
X55700000Y-103950000D03*
X56400000Y-103400000D03*
X68800000Y-127500000D03*
X55050000Y-133500000D03*
X55700000Y-133950000D03*
X56400000Y-133400000D03*
X68800000Y-157500000D03*
X55050000Y-163500000D03*
X55700000Y-163950000D03*
X56400000Y-163400000D03*
X112800000Y-148050000D03*
X126550000Y-142050000D03*
X125900000Y-141600000D03*
X125200000Y-142150000D03*
X112800000Y-118050000D03*
X126550000Y-112050000D03*
X125900000Y-111600000D03*
X125200000Y-112150000D03*
X112800000Y-88050000D03*
X126550000Y-82050000D03*
X125900000Y-81600000D03*
X125200000Y-82150000D03*
X112800000Y-58050000D03*
X126550000Y-52050000D03*
X125900000Y-51600000D03*
X125200000Y-52150000D03*
X86229401Y-107500000D03*
X82100000Y-107050000D03*
X90600000Y-106900000D03*
X97000000Y-58000000D03*
X94000000Y-57000000D03*
X95000000Y-58000000D03*
X92000000Y-61000000D03*
X93000000Y-58000000D03*
X98000000Y-57000000D03*
X92000000Y-57000000D03*
X96000000Y-57000000D03*
X92000000Y-59000000D03*
X93000000Y-60000000D03*
X95000000Y-60000000D03*
X94000000Y-59000000D03*
X96000000Y-59000000D03*
X98000000Y-59000000D03*
X97000000Y-60000000D03*
X98000000Y-61000000D03*
X96000000Y-61000000D03*
X97000000Y-62000000D03*
X93000000Y-62000000D03*
X107500000Y-112000000D03*
X107500000Y-142000000D03*
X74000000Y-163500000D03*
X74000000Y-133500000D03*
X74000000Y-103500000D03*
X74000000Y-73500000D03*
X107500000Y-82000000D03*
X107500000Y-52000000D03*
G04 #@! TO.N,Net-(C305-Pad1)*
X64353098Y-99300000D03*
X62800000Y-98300000D03*
G04 #@! TO.N,/sheet5B6E69B5/EN*
X70800000Y-100800000D03*
X70800000Y-100800000D03*
X79900000Y-104950000D03*
X88050000Y-106250000D03*
G04 #@! TO.N,/sheet5B6E69B5/IN*
X68366114Y-100383057D03*
X68366114Y-100383057D03*
X79450000Y-105750000D03*
X84000000Y-106100000D03*
G04 #@! TO.N,/sheet5B6E6A5C/IN*
X113233886Y-85166943D03*
X100650000Y-78950000D03*
X96869584Y-83585269D03*
G04 #@! TO.N,/sheet5B6E6A5C/EN*
X110800000Y-84750000D03*
X100800000Y-80050000D03*
X91150000Y-87200000D03*
G04 #@! TO.N,Net-(C805-Pad1)*
X117246902Y-86250000D03*
X118800000Y-87250000D03*
G04 #@! TO.N,Net-(C705-Pad1)*
X117246902Y-116250000D03*
X118800000Y-117250000D03*
G04 #@! TO.N,/sheet5B6E6A5B/EN*
X110800000Y-114750000D03*
X101000000Y-109500000D03*
X94500000Y-101500000D03*
G04 #@! TO.N,/sheet5B6E6A5B/IN*
X113233886Y-115166943D03*
X97500000Y-105000000D03*
X100937428Y-108557347D03*
G04 #@! TO.N,/sheet5B6E6A5A/IN*
X113233886Y-145166943D03*
X99500000Y-105500000D03*
G04 #@! TO.N,/sheet5B6E6A5A/EN*
X110800000Y-144750000D03*
X97000000Y-107000000D03*
G04 #@! TO.N,Net-(C605-Pad1)*
X117246902Y-146250000D03*
X118800000Y-147250000D03*
G04 #@! TO.N,Net-(C405-Pad1)*
X64353098Y-129300000D03*
X62800000Y-128300000D03*
G04 #@! TO.N,/sheet5B6E69C3/EN*
X70800000Y-130800000D03*
G04 #@! TO.N,/sheet5B6E69C3/IN*
X68366114Y-130383057D03*
X84400000Y-133150000D03*
X83800000Y-131100000D03*
G04 #@! TO.N,/sheet5B6E6A5D/IN*
X95750000Y-67600000D03*
X113233886Y-55166943D03*
X111500000Y-50622310D03*
G04 #@! TO.N,/sheet5B6E6A5D/EN*
X110800000Y-54750000D03*
X94750000Y-67500000D03*
X110800000Y-52500000D03*
G04 #@! TO.N,Net-(C905-Pad1)*
X117246902Y-56250000D03*
X118800000Y-57250000D03*
G04 #@! TO.N,Net-(C205-Pad1)*
X64353098Y-69300000D03*
X62800000Y-68300000D03*
G04 #@! TO.N,/Sheet5B7230C3/EN*
X70800000Y-70800000D03*
X80800000Y-75450000D03*
X86272310Y-81014887D03*
G04 #@! TO.N,/Sheet5B7230C3/IN*
X68366114Y-70383057D03*
X81250000Y-76550000D03*
X85027690Y-81599068D03*
G04 #@! TO.N,/sheet5B6E69C4/IN*
X68366114Y-160383057D03*
X87700000Y-125350000D03*
G04 #@! TO.N,/sheet5B6E69C4/EN*
X70800000Y-160800000D03*
X89100000Y-124500000D03*
G04 #@! TO.N,Net-(C505-Pad1)*
X64353098Y-159300000D03*
X62800000Y-158300000D03*
G04 #@! TD*
D19*
G04 #@! TO.N,GND*
X71200000Y-67500000D02*
X68800000Y-67500000D01*
X73300000Y-69600000D02*
X71200000Y-67500000D01*
X75600000Y-60700000D02*
X75600000Y-56900000D01*
X71200000Y-97500000D02*
X68800000Y-97500000D01*
X73300000Y-99600000D02*
X71200000Y-97500000D01*
X75600000Y-90700000D02*
X75600000Y-86900000D01*
X75600000Y-120700000D02*
X75600000Y-116900000D01*
X71200000Y-97500000D02*
X68800000Y-97500000D01*
X73300000Y-99600000D02*
X71200000Y-97500000D01*
X68800000Y-97500000D02*
X75600000Y-90700000D01*
X75600000Y-120700000D02*
X75600000Y-116900000D01*
X73300000Y-133900000D02*
X73300000Y-129600000D01*
X71200000Y-127500000D02*
X68800000Y-127500000D01*
X73300000Y-129600000D02*
X71200000Y-127500000D01*
X68800000Y-127500000D02*
X75600000Y-120700000D01*
X75600000Y-150700000D02*
X75600000Y-146900000D01*
X68800000Y-157500000D02*
X75600000Y-150700000D01*
X106000000Y-154850000D02*
X106000000Y-158650000D01*
X112800000Y-148050000D02*
X106000000Y-154850000D01*
X106000000Y-124850000D02*
X106000000Y-128650000D01*
X112800000Y-118050000D02*
X106000000Y-124850000D01*
X108300000Y-111650000D02*
X108300000Y-115950000D01*
X110400000Y-118050000D02*
X112800000Y-118050000D01*
X108300000Y-115950000D02*
X110400000Y-118050000D01*
X112800000Y-118050000D02*
X106000000Y-124850000D01*
X106000000Y-94850000D02*
X106000000Y-98650000D01*
X112800000Y-88050000D02*
X106000000Y-94850000D01*
X106000000Y-64850000D02*
X106000000Y-68650000D01*
X112800000Y-58050000D02*
X106000000Y-64850000D01*
D20*
X86204000Y-120750000D02*
X86229401Y-120724599D01*
X85100000Y-120750000D02*
X86204000Y-120750000D01*
X86229401Y-106729401D02*
X85650000Y-106150000D01*
X88096000Y-120650000D02*
X86296000Y-118850000D01*
X86296000Y-118850000D02*
X86229401Y-118850000D01*
X89200000Y-120650000D02*
X88096000Y-120650000D01*
X86229401Y-120724599D02*
X86229401Y-118850000D01*
X86229401Y-118850000D02*
X86229401Y-107500000D01*
X86229401Y-107500000D02*
X86229401Y-106729401D01*
X85650000Y-76850000D02*
X85650000Y-75350000D01*
X85650000Y-106150000D02*
X85650000Y-75350000D01*
X75600000Y-86900000D02*
X85650000Y-76850000D01*
X85650000Y-75350000D02*
X85650000Y-67250000D01*
X94104000Y-92550000D02*
X94850000Y-93296000D01*
X93000000Y-92550000D02*
X94104000Y-92550000D01*
D21*
X71800000Y-143100000D02*
X75600000Y-146900000D01*
X59000000Y-143100000D02*
X71800000Y-143100000D01*
X56400000Y-140500000D02*
X59000000Y-143100000D01*
X55050000Y-137600000D02*
X56400000Y-138950000D01*
X55050000Y-133500000D02*
X55050000Y-137600000D01*
X56400000Y-133400000D02*
X56400000Y-138950000D01*
X56400000Y-138950000D02*
X56400000Y-140500000D01*
X56742899Y-133057101D02*
X56742899Y-129857101D01*
X56400000Y-133400000D02*
X56742899Y-133057101D01*
X63050000Y-123550000D02*
X72750000Y-123550000D01*
X56742899Y-129857101D02*
X63050000Y-123550000D01*
D19*
X68800000Y-127500000D02*
X72750000Y-123550000D01*
X72750000Y-123550000D02*
X75600000Y-120700000D01*
D21*
X60414213Y-113100000D02*
X59000000Y-113100000D01*
X75600000Y-115202944D02*
X73497056Y-113100000D01*
X73497056Y-113100000D02*
X60414213Y-113100000D01*
X75600000Y-116900000D02*
X75600000Y-115202944D01*
X59000000Y-113100000D02*
X59000000Y-106800000D01*
X59000000Y-106800000D02*
X58550000Y-106800000D01*
X55350000Y-104050000D02*
X55150000Y-103850000D01*
X55800000Y-104050000D02*
X55350000Y-104050000D01*
X58550000Y-106800000D02*
X55150000Y-103850000D01*
X58550000Y-106800000D02*
X58550000Y-95050000D01*
X59050000Y-94550000D02*
X71750000Y-94550000D01*
X58550000Y-95050000D02*
X59050000Y-94550000D01*
D19*
X68800000Y-97500000D02*
X71750000Y-94550000D01*
X71750000Y-94550000D02*
X75600000Y-90700000D01*
D21*
X71800000Y-83100000D02*
X75600000Y-86900000D01*
X59000000Y-83100000D02*
X71800000Y-83100000D01*
X56184933Y-73950000D02*
X55700000Y-73950000D01*
X56950000Y-73950000D02*
X56184933Y-73950000D01*
X59000000Y-76000000D02*
X56950000Y-73950000D01*
X59000000Y-83100000D02*
X59000000Y-76000000D01*
X57665530Y-73950000D02*
X60300000Y-71315530D01*
X56184933Y-73950000D02*
X57665530Y-73950000D01*
X60300000Y-71315530D02*
X60300000Y-65550000D01*
X60300000Y-65550000D02*
X62550000Y-63300000D01*
D19*
X68800000Y-67500000D02*
X73000000Y-63300000D01*
D21*
X62550000Y-63300000D02*
X73000000Y-63300000D01*
D19*
X73000000Y-63300000D02*
X75600000Y-60700000D01*
D21*
X74400001Y-55700001D02*
X75600000Y-56900000D01*
X70800001Y-52100001D02*
X74400001Y-55700001D01*
X59999999Y-52100001D02*
X70800001Y-52100001D01*
X59000000Y-53100000D02*
X59999999Y-52100001D01*
D20*
X95750000Y-92550000D02*
X97300000Y-92550000D01*
X94850000Y-93450000D02*
X95750000Y-92550000D01*
X94850000Y-93296000D02*
X94850000Y-93450000D01*
X85750000Y-67250000D02*
X92000000Y-61000000D01*
X85650000Y-67250000D02*
X85750000Y-67250000D01*
D22*
X73300000Y-72500000D02*
X74000000Y-73200000D01*
X73300000Y-69600000D02*
X73300000Y-72500000D01*
X73300000Y-102800000D02*
X74000000Y-103500000D01*
X73300000Y-99600000D02*
X73300000Y-102800000D01*
X74000000Y-155700000D02*
X72300000Y-154000000D01*
X74000000Y-163500000D02*
X74000000Y-155700000D01*
D19*
X68800000Y-157500000D02*
X72300000Y-154000000D01*
X72300000Y-154000000D02*
X75600000Y-150700000D01*
D22*
X107500000Y-148350000D02*
X110000000Y-150850000D01*
X107500000Y-142000000D02*
X107500000Y-148350000D01*
D19*
X112800000Y-148050000D02*
X110000000Y-150850000D01*
X110000000Y-150850000D02*
X106000000Y-154850000D01*
D22*
X113142899Y-147707101D02*
X113292899Y-147707101D01*
X112800000Y-148050000D02*
X113142899Y-147707101D01*
X122600000Y-138400000D02*
X122600000Y-132450000D01*
X113292899Y-147707101D02*
X122600000Y-138400000D01*
X107850000Y-111650000D02*
X108300000Y-111650000D01*
X107500000Y-112000000D02*
X107850000Y-111650000D01*
X107500000Y-82000000D02*
X109000000Y-83500000D01*
X109000000Y-83500000D02*
X109000000Y-90850000D01*
X109000000Y-90850000D02*
X109500000Y-91350000D01*
D19*
X112800000Y-88050000D02*
X109500000Y-91350000D01*
X109500000Y-91350000D02*
X106000000Y-94850000D01*
D22*
X107500000Y-58350000D02*
X110000000Y-60850000D01*
X107500000Y-52000000D02*
X107500000Y-58350000D01*
D19*
X112800000Y-58050000D02*
X110000000Y-60850000D01*
X110000000Y-60850000D02*
X106000000Y-64850000D01*
D22*
X113142899Y-87707101D02*
X113142899Y-87357101D01*
X112800000Y-88050000D02*
X113142899Y-87707101D01*
X122600000Y-77900000D02*
X122600000Y-72450000D01*
X113142899Y-87357101D02*
X122600000Y-77900000D01*
D20*
X95122301Y-101201295D02*
X95122301Y-102377699D01*
X95122301Y-102377699D02*
X90942899Y-106557101D01*
X94850000Y-100928994D02*
X95122301Y-101201295D01*
X90942899Y-106557101D02*
X90600000Y-106900000D01*
X94850000Y-93450000D02*
X94850000Y-100928994D01*
D23*
G04 #@! TO.N,Net-(C305-Pad1)*
X63800000Y-99300000D02*
X62800000Y-98300000D01*
X64353098Y-99300000D02*
X63800000Y-99300000D01*
D20*
G04 #@! TO.N,/sheet5B6E69B5/EN*
X70800000Y-100800000D02*
X70800000Y-102583440D01*
X73166560Y-104950000D02*
X79900000Y-104950000D01*
X70800000Y-102583440D02*
X73166560Y-104950000D01*
X90049999Y-112180001D02*
X89200000Y-113030000D01*
X90329401Y-111900599D02*
X90049999Y-112180001D01*
X90329401Y-108529401D02*
X90329401Y-111900599D01*
X88050000Y-106250000D02*
X90329401Y-108529401D01*
G04 #@! TO.N,/sheet5B6E69B5/IN*
X68366114Y-100383057D02*
X68366114Y-100867990D01*
X68366114Y-100867990D02*
X73248124Y-105750000D01*
X73248124Y-105750000D02*
X79450000Y-105750000D01*
X83657101Y-111687101D02*
X84250001Y-112280001D01*
X84250001Y-112280001D02*
X85100000Y-113130000D01*
X83657101Y-106442899D02*
X83657101Y-111687101D01*
X84000000Y-106100000D02*
X83657101Y-106442899D01*
G04 #@! TO.N,/sheet5B6E6A5C/IN*
X113233886Y-85166943D02*
X113233886Y-83333886D01*
X113233886Y-83333886D02*
X108950000Y-79050000D01*
X108950000Y-79050000D02*
X100800000Y-79050000D01*
X100800000Y-79050000D02*
X100750000Y-79050000D01*
X100750000Y-79050000D02*
X100650000Y-78950000D01*
X97212483Y-83928168D02*
X96869584Y-83585269D01*
X98835812Y-96094188D02*
X98835812Y-85551497D01*
X98835812Y-85551497D02*
X97212483Y-83928168D01*
X97300000Y-97630000D02*
X98835812Y-96094188D01*
G04 #@! TO.N,/sheet5B6E6A5C/EN*
X111142899Y-84407101D02*
X111142899Y-82042899D01*
X110800000Y-84750000D02*
X111142899Y-84407101D01*
X111142899Y-82042899D02*
X109000000Y-79900000D01*
X109000000Y-79900000D02*
X100800000Y-79900000D01*
X100800000Y-79900000D02*
X100800000Y-80050000D01*
X92150001Y-96780001D02*
X93000000Y-97630000D01*
X90807101Y-95437101D02*
X92150001Y-96780001D01*
X90807101Y-87542899D02*
X90807101Y-95437101D01*
X91150000Y-87200000D02*
X90807101Y-87542899D01*
D23*
G04 #@! TO.N,Net-(C805-Pad1)*
X117800000Y-86250000D02*
X118800000Y-87250000D01*
X117246902Y-86250000D02*
X117800000Y-86250000D01*
G04 #@! TO.N,Net-(C705-Pad1)*
X117800000Y-116250000D02*
X118800000Y-117250000D01*
X117246902Y-116250000D02*
X117800000Y-116250000D01*
D20*
G04 #@! TO.N,/sheet5B6E6A5B/EN*
X110800000Y-114750000D02*
X110800000Y-111000000D01*
X110800000Y-111000000D02*
X109600000Y-109800000D01*
X109600000Y-109800000D02*
X100850000Y-109800000D01*
X100850000Y-109650000D02*
X101000000Y-109500000D01*
X100850000Y-109800000D02*
X100850000Y-109650000D01*
X94330000Y-101500000D02*
X93000000Y-100170000D01*
X94500000Y-101500000D02*
X94330000Y-101500000D01*
G04 #@! TO.N,/sheet5B6E6A5B/IN*
X98149999Y-101019999D02*
X97300000Y-100170000D01*
X98429401Y-101299401D02*
X98149999Y-101019999D01*
X98429401Y-104070599D02*
X98429401Y-101299401D01*
X97500000Y-105000000D02*
X98429401Y-104070599D01*
X113233886Y-112483886D02*
X109307347Y-108557347D01*
X109307347Y-108557347D02*
X101422361Y-108557347D01*
X113233886Y-115166943D02*
X113233886Y-112483886D01*
X101422361Y-108557347D02*
X100937428Y-108557347D01*
G04 #@! TO.N,/sheet5B6E6A5A/IN*
X113233886Y-145166943D02*
X113233886Y-142633886D01*
X113233886Y-142633886D02*
X109800000Y-139200000D01*
X109800000Y-139200000D02*
X100850000Y-139200000D01*
X100850000Y-139200000D02*
X100850000Y-110850000D01*
X100850000Y-110850000D02*
X99500000Y-109500000D01*
X99500000Y-109500000D02*
X99500000Y-105500000D01*
G04 #@! TO.N,/sheet5B6E6A5A/EN*
X110800000Y-144750000D02*
X110800000Y-141750000D01*
X110800000Y-141750000D02*
X108950000Y-139900000D01*
X108950000Y-139900000D02*
X100750000Y-139900000D01*
X97000000Y-136150000D02*
X100750000Y-139900000D01*
X97000000Y-107000000D02*
X97000000Y-136150000D01*
D23*
G04 #@! TO.N,Net-(C605-Pad1)*
X117800000Y-146250000D02*
X118800000Y-147250000D01*
X117246902Y-146250000D02*
X117800000Y-146250000D01*
G04 #@! TO.N,Net-(C405-Pad1)*
X63800000Y-129300000D02*
X62800000Y-128300000D01*
X64353098Y-129300000D02*
X63800000Y-129300000D01*
D20*
G04 #@! TO.N,/sheet5B6E69C3/EN*
X70800000Y-130800000D02*
X70800000Y-133500000D01*
X70800000Y-133500000D02*
X72700000Y-135400000D01*
X72700000Y-135400000D02*
X80850000Y-135400000D01*
X80850000Y-135400000D02*
X84850000Y-131400000D01*
X84850000Y-131400000D02*
X84850000Y-125800000D01*
X84850000Y-125800000D02*
X87650000Y-123000000D01*
X90049999Y-116419999D02*
X89200000Y-115570000D01*
X90329401Y-116699401D02*
X90049999Y-116419999D01*
X90329401Y-121723521D02*
X90329401Y-116699401D01*
X89052922Y-123000000D02*
X90329401Y-121723521D01*
X87650000Y-123000000D02*
X89052922Y-123000000D01*
G04 #@! TO.N,/sheet5B6E69C3/IN*
X68366114Y-130383057D02*
X68366114Y-132266114D01*
X68366114Y-132266114D02*
X72400000Y-136300000D01*
X72400000Y-136300000D02*
X80900000Y-136300000D01*
X80900000Y-136300000D02*
X80900000Y-136250000D01*
X80900000Y-136300000D02*
X81250000Y-136300000D01*
X81250000Y-136300000D02*
X84400000Y-133150000D01*
X83800000Y-116970000D02*
X85100000Y-115670000D01*
X83800000Y-131100000D02*
X83800000Y-116970000D01*
G04 #@! TO.N,/sheet5B6E6A5D/IN*
X98429401Y-91476479D02*
X98429401Y-93960599D01*
X98429401Y-93960599D02*
X98149999Y-94240001D01*
X95750000Y-67600000D02*
X95750000Y-88797078D01*
X98149999Y-94240001D02*
X97300000Y-95090000D01*
X95750000Y-88797078D02*
X98429401Y-91476479D01*
X111842899Y-50965209D02*
X111500000Y-50622310D01*
X113233886Y-52356196D02*
X111842899Y-50965209D01*
X113233886Y-55166943D02*
X113233886Y-52356196D01*
G04 #@! TO.N,/sheet5B6E6A5D/EN*
X94750000Y-67500000D02*
X94750000Y-88100000D01*
X92150001Y-94240001D02*
X93000000Y-95090000D01*
X91870599Y-93960599D02*
X92150001Y-94240001D01*
X91870599Y-90979401D02*
X91870599Y-93960599D01*
X94750000Y-88100000D02*
X91870599Y-90979401D01*
X110800000Y-54750000D02*
X110800000Y-52500000D01*
D23*
G04 #@! TO.N,Net-(C905-Pad1)*
X117800000Y-56250000D02*
X118800000Y-57250000D01*
X117246902Y-56250000D02*
X117800000Y-56250000D01*
G04 #@! TO.N,Net-(C205-Pad1)*
X63800000Y-69300000D02*
X62800000Y-68300000D01*
X64353098Y-69300000D02*
X63800000Y-69300000D01*
D20*
G04 #@! TO.N,/Sheet5B7230C3/EN*
X70800000Y-70800000D02*
X70800000Y-74050000D01*
X70800000Y-74050000D02*
X72200000Y-75450000D01*
X72200000Y-75450000D02*
X80800000Y-75450000D01*
X86272310Y-106197560D02*
X86272310Y-81499820D01*
X89200000Y-109125250D02*
X86272310Y-106197560D01*
X89200000Y-110490000D02*
X89200000Y-109125250D01*
X86272310Y-81499820D02*
X86272310Y-81014887D01*
G04 #@! TO.N,/Sheet5B7230C3/IN*
X68366114Y-70383057D02*
X68366114Y-72566114D01*
X68366114Y-72566114D02*
X71950000Y-76150000D01*
X71950000Y-76150000D02*
X80850000Y-76150000D01*
X80850000Y-76150000D02*
X81250000Y-76550000D01*
X85100000Y-81671378D02*
X85027690Y-81599068D01*
X85100000Y-110590000D02*
X85100000Y-81671378D01*
G04 #@! TO.N,/sheet5B6E69C4/IN*
X68366114Y-160383057D02*
X68366114Y-162516114D01*
X68366114Y-162516114D02*
X72150000Y-166300000D01*
X72150000Y-166300000D02*
X81500000Y-166300000D01*
X81500000Y-166300000D02*
X84600000Y-166300000D01*
X84600000Y-166300000D02*
X86600000Y-164300000D01*
X86600000Y-164300000D02*
X86600000Y-126450000D01*
X86600000Y-126450000D02*
X87700000Y-125350000D01*
G04 #@! TO.N,/sheet5B6E69C4/EN*
X70800000Y-160800000D02*
X70800000Y-163700000D01*
X70800000Y-163700000D02*
X72550000Y-165450000D01*
X72550000Y-165450000D02*
X72650000Y-165550000D01*
X81200000Y-165550000D02*
X85600000Y-161150000D01*
X72650000Y-165550000D02*
X81200000Y-165550000D01*
X81200000Y-165550000D02*
X81500000Y-165550000D01*
X85600000Y-161150000D02*
X85600000Y-126200000D01*
X85600000Y-126200000D02*
X87300000Y-124500000D01*
X87300000Y-124500000D02*
X89100000Y-124500000D01*
D23*
G04 #@! TO.N,Net-(C505-Pad1)*
X63800000Y-159300000D02*
X62800000Y-158300000D01*
X64353098Y-159300000D02*
X63800000Y-159300000D01*
G04 #@! TD*
D20*
G04 #@! TO.N,GND*
G36*
X145443452Y-48272873D02*
X145859037Y-48437415D01*
X146220649Y-48700142D01*
X146505562Y-49044542D01*
X146695873Y-49448974D01*
X146785976Y-49921311D01*
X146788800Y-50011169D01*
X146788801Y-169455248D01*
X146727127Y-169943452D01*
X146562584Y-170359039D01*
X146299859Y-170720649D01*
X145955458Y-171005561D01*
X145551024Y-171195873D01*
X145078689Y-171285976D01*
X144988830Y-171288800D01*
X36544744Y-171288800D01*
X36056548Y-171227127D01*
X35640961Y-171062584D01*
X35279351Y-170799859D01*
X34994439Y-170455458D01*
X34804127Y-170051024D01*
X34714024Y-169578689D01*
X34711200Y-169488830D01*
X34711200Y-162819455D01*
X36065000Y-162819455D01*
X36065000Y-165180545D01*
X36968550Y-167361908D01*
X38638092Y-169031450D01*
X40819455Y-169935000D01*
X43180545Y-169935000D01*
X45361908Y-169031450D01*
X47031450Y-167361908D01*
X47935000Y-165180545D01*
X47935000Y-162819455D01*
X47031450Y-160638092D01*
X45361908Y-158968550D01*
X43278283Y-158105484D01*
X61822100Y-158105484D01*
X61822100Y-158494516D01*
X61970977Y-158853936D01*
X62246064Y-159129023D01*
X62605484Y-159277900D01*
X62772112Y-159277900D01*
X63247578Y-159753367D01*
X63287254Y-159812746D01*
X63346633Y-159852422D01*
X63346635Y-159852424D01*
X63462336Y-159929733D01*
X63522504Y-159969936D01*
X63669268Y-159999129D01*
X63799162Y-160129023D01*
X64158582Y-160277900D01*
X64547614Y-160277900D01*
X64907034Y-160129023D01*
X65182121Y-159853936D01*
X65330998Y-159494516D01*
X65330998Y-159105484D01*
X65182121Y-158746064D01*
X64907034Y-158470977D01*
X64547614Y-158322100D01*
X64158582Y-158322100D01*
X63924747Y-158418958D01*
X63777900Y-158272112D01*
X63777900Y-158105484D01*
X63629023Y-157746064D01*
X63353936Y-157470977D01*
X62994516Y-157322100D01*
X62605484Y-157322100D01*
X62246064Y-157470977D01*
X61970977Y-157746064D01*
X61822100Y-158105484D01*
X43278283Y-158105484D01*
X43180545Y-158065000D01*
X40819455Y-158065000D01*
X38638092Y-158968550D01*
X36968550Y-160638092D01*
X36065000Y-162819455D01*
X34711200Y-162819455D01*
X34711200Y-145700000D01*
X66252560Y-145700000D01*
X66252560Y-148100000D01*
X66301843Y-148347765D01*
X66442191Y-148557809D01*
X66652235Y-148698157D01*
X66900000Y-148747440D01*
X69300000Y-148747440D01*
X69547765Y-148698157D01*
X69757809Y-148557809D01*
X69898157Y-148347765D01*
X69947440Y-148100000D01*
X69947440Y-145700000D01*
X69898157Y-145452235D01*
X69757809Y-145242191D01*
X69547765Y-145101843D01*
X69300000Y-145052560D01*
X66900000Y-145052560D01*
X66652235Y-145101843D01*
X66442191Y-145242191D01*
X66301843Y-145452235D01*
X66252560Y-145700000D01*
X34711200Y-145700000D01*
X34711200Y-142100000D01*
X52352560Y-142100000D01*
X52352560Y-144100000D01*
X52401843Y-144347765D01*
X52542191Y-144557809D01*
X52752235Y-144698157D01*
X53000000Y-144747440D01*
X55000000Y-144747440D01*
X55247765Y-144698157D01*
X55457809Y-144557809D01*
X55598157Y-144347765D01*
X55647440Y-144100000D01*
X55647440Y-142100000D01*
X55598157Y-141852235D01*
X55457809Y-141642191D01*
X55247765Y-141501843D01*
X55000000Y-141452560D01*
X53000000Y-141452560D01*
X52752235Y-141501843D01*
X52542191Y-141642191D01*
X52401843Y-141852235D01*
X52352560Y-142100000D01*
X34711200Y-142100000D01*
X34711200Y-128105484D01*
X61822100Y-128105484D01*
X61822100Y-128494516D01*
X61970977Y-128853936D01*
X62246064Y-129129023D01*
X62605484Y-129277900D01*
X62772112Y-129277900D01*
X63247578Y-129753367D01*
X63287254Y-129812746D01*
X63346633Y-129852422D01*
X63346635Y-129852424D01*
X63462336Y-129929733D01*
X63522504Y-129969936D01*
X63669268Y-129999129D01*
X63799162Y-130129023D01*
X64158582Y-130277900D01*
X64547614Y-130277900D01*
X64763345Y-130188541D01*
X67388214Y-130188541D01*
X67388214Y-130577573D01*
X67537091Y-130936993D01*
X67604114Y-131004016D01*
X67604115Y-132191066D01*
X67589187Y-132266114D01*
X67604115Y-132341162D01*
X67648327Y-132563431D01*
X67816744Y-132815485D01*
X67880365Y-132857995D01*
X71808118Y-136785749D01*
X71850629Y-136849371D01*
X71914251Y-136891882D01*
X72102681Y-137017787D01*
X72102682Y-137017787D01*
X72102683Y-137017788D01*
X72324952Y-137062000D01*
X72324956Y-137062000D01*
X72399999Y-137076927D01*
X72475042Y-137062000D01*
X80824952Y-137062000D01*
X80900000Y-137076928D01*
X80975048Y-137062000D01*
X81174957Y-137062000D01*
X81250000Y-137076927D01*
X81325043Y-137062000D01*
X81325048Y-137062000D01*
X81547317Y-137017788D01*
X81799371Y-136849371D01*
X81841883Y-136785747D01*
X84499731Y-134127900D01*
X84594516Y-134127900D01*
X84838001Y-134027045D01*
X84838000Y-160834369D01*
X80884370Y-164788000D01*
X72965631Y-164788000D01*
X71562000Y-163384370D01*
X71562000Y-161420959D01*
X71629023Y-161353936D01*
X71777900Y-160994516D01*
X71777900Y-160605484D01*
X71629023Y-160246064D01*
X71353936Y-159970977D01*
X70994516Y-159822100D01*
X70605484Y-159822100D01*
X70246064Y-159970977D01*
X69970977Y-160246064D01*
X69822100Y-160605484D01*
X69822100Y-160994516D01*
X69970977Y-161353936D01*
X70038000Y-161420959D01*
X70038001Y-163110370D01*
X69128114Y-162200484D01*
X69128114Y-161004016D01*
X69195137Y-160936993D01*
X69344014Y-160577573D01*
X69344014Y-160188541D01*
X69195137Y-159829121D01*
X68920050Y-159554034D01*
X68560630Y-159405157D01*
X68171598Y-159405157D01*
X67812178Y-159554034D01*
X67537091Y-159829121D01*
X67388214Y-160188541D01*
X67388214Y-160577573D01*
X67537091Y-160936993D01*
X67604114Y-161004016D01*
X67604115Y-162441066D01*
X67589187Y-162516114D01*
X67604115Y-162591162D01*
X67648327Y-162813431D01*
X67816744Y-163065485D01*
X67880365Y-163107995D01*
X71558118Y-166785749D01*
X71600629Y-166849371D01*
X71852683Y-167017788D01*
X72074952Y-167062000D01*
X72074957Y-167062000D01*
X72150000Y-167076927D01*
X72225043Y-167062000D01*
X84524957Y-167062000D01*
X84600000Y-167076927D01*
X84675043Y-167062000D01*
X84675048Y-167062000D01*
X84897317Y-167017788D01*
X85149371Y-166849371D01*
X85191883Y-166785747D01*
X87085750Y-164891881D01*
X87149371Y-164849371D01*
X87317788Y-164597317D01*
X87362000Y-164375048D01*
X87362000Y-164375044D01*
X87376927Y-164300001D01*
X87362000Y-164224958D01*
X87362000Y-161450000D01*
X125952560Y-161450000D01*
X125952560Y-163450000D01*
X126001843Y-163697765D01*
X126142191Y-163907809D01*
X126352235Y-164048157D01*
X126600000Y-164097440D01*
X128600000Y-164097440D01*
X128847765Y-164048157D01*
X129057809Y-163907809D01*
X129198157Y-163697765D01*
X129247440Y-163450000D01*
X129247440Y-162819455D01*
X133565000Y-162819455D01*
X133565000Y-165180545D01*
X134468550Y-167361908D01*
X136138092Y-169031450D01*
X138319455Y-169935000D01*
X140680545Y-169935000D01*
X142861908Y-169031450D01*
X144531450Y-167361908D01*
X145435000Y-165180545D01*
X145435000Y-162819455D01*
X144531450Y-160638092D01*
X142861908Y-158968550D01*
X140680545Y-158065000D01*
X138319455Y-158065000D01*
X136138092Y-158968550D01*
X134468550Y-160638092D01*
X133565000Y-162819455D01*
X129247440Y-162819455D01*
X129247440Y-161450000D01*
X129198157Y-161202235D01*
X129057809Y-160992191D01*
X128847765Y-160851843D01*
X128600000Y-160802560D01*
X126600000Y-160802560D01*
X126352235Y-160851843D01*
X126142191Y-160992191D01*
X126001843Y-161202235D01*
X125952560Y-161450000D01*
X87362000Y-161450000D01*
X87362000Y-157450000D01*
X111652560Y-157450000D01*
X111652560Y-159850000D01*
X111701843Y-160097765D01*
X111842191Y-160307809D01*
X112052235Y-160448157D01*
X112300000Y-160497440D01*
X114700000Y-160497440D01*
X114947765Y-160448157D01*
X115157809Y-160307809D01*
X115298157Y-160097765D01*
X115347440Y-159850000D01*
X115347440Y-157450000D01*
X115298157Y-157202235D01*
X115157809Y-156992191D01*
X114947765Y-156851843D01*
X114700000Y-156802560D01*
X112300000Y-156802560D01*
X112052235Y-156851843D01*
X111842191Y-156992191D01*
X111701843Y-157202235D01*
X111652560Y-157450000D01*
X87362000Y-157450000D01*
X87362000Y-126765630D01*
X87799731Y-126327900D01*
X87894516Y-126327900D01*
X88253936Y-126179023D01*
X88529023Y-125903936D01*
X88677900Y-125544516D01*
X88677900Y-125383631D01*
X88905484Y-125477900D01*
X89294516Y-125477900D01*
X89653936Y-125329023D01*
X89929023Y-125053936D01*
X90077900Y-124694516D01*
X90077900Y-124305484D01*
X89929023Y-123946064D01*
X89653936Y-123670977D01*
X89509707Y-123611235D01*
X89602293Y-123549371D01*
X89644805Y-123485747D01*
X90815151Y-122315402D01*
X90878772Y-122272892D01*
X91047189Y-122020838D01*
X91091401Y-121798569D01*
X91091401Y-121798564D01*
X91106328Y-121723521D01*
X91091401Y-121648478D01*
X91091401Y-116774443D01*
X91106328Y-116699400D01*
X91091401Y-116624357D01*
X91091401Y-116624353D01*
X91047189Y-116402084D01*
X90878772Y-116150030D01*
X90815147Y-116107517D01*
X90641883Y-115934253D01*
X90641881Y-115934250D01*
X90641679Y-115934048D01*
X90714092Y-115570000D01*
X90598839Y-114990582D01*
X90270625Y-114499375D01*
X89972239Y-114300000D01*
X90270625Y-114100625D01*
X90598839Y-113609418D01*
X90714092Y-113030000D01*
X90641679Y-112665952D01*
X90641881Y-112665750D01*
X90641883Y-112665747D01*
X90815147Y-112492483D01*
X90878772Y-112449970D01*
X91047189Y-112197916D01*
X91091401Y-111975647D01*
X91091401Y-111975643D01*
X91106328Y-111900600D01*
X91091401Y-111825557D01*
X91091401Y-108604448D01*
X91106329Y-108529401D01*
X91070310Y-108348322D01*
X91047189Y-108232084D01*
X90878772Y-107980030D01*
X90815151Y-107937520D01*
X89683115Y-106805484D01*
X96022100Y-106805484D01*
X96022100Y-107194516D01*
X96170977Y-107553936D01*
X96238000Y-107620959D01*
X96238001Y-136074952D01*
X96223073Y-136150000D01*
X96282213Y-136447317D01*
X96382440Y-136597317D01*
X96450630Y-136699371D01*
X96514251Y-136741881D01*
X100158117Y-140385748D01*
X100200629Y-140449371D01*
X100452683Y-140617788D01*
X100674952Y-140662000D01*
X100674953Y-140662000D01*
X100750000Y-140676928D01*
X100825047Y-140662000D01*
X108634370Y-140662000D01*
X110038001Y-142065632D01*
X110038000Y-144129041D01*
X109970977Y-144196064D01*
X109822100Y-144555484D01*
X109822100Y-144944516D01*
X109970977Y-145303936D01*
X110246064Y-145579023D01*
X110605484Y-145727900D01*
X110994516Y-145727900D01*
X111353936Y-145579023D01*
X111629023Y-145303936D01*
X111777900Y-144944516D01*
X111777900Y-144555484D01*
X111629023Y-144196064D01*
X111562000Y-144129041D01*
X111562000Y-142039631D01*
X112471887Y-142949518D01*
X112471886Y-144545984D01*
X112404863Y-144613007D01*
X112255986Y-144972427D01*
X112255986Y-145361459D01*
X112404863Y-145720879D01*
X112679950Y-145995966D01*
X113039370Y-146144843D01*
X113428402Y-146144843D01*
X113644133Y-146055484D01*
X116269002Y-146055484D01*
X116269002Y-146444516D01*
X116417879Y-146803936D01*
X116692966Y-147079023D01*
X117052386Y-147227900D01*
X117441418Y-147227900D01*
X117675254Y-147131042D01*
X117822100Y-147277889D01*
X117822100Y-147444516D01*
X117970977Y-147803936D01*
X118246064Y-148079023D01*
X118605484Y-148227900D01*
X118994516Y-148227900D01*
X119353936Y-148079023D01*
X119629023Y-147803936D01*
X119777900Y-147444516D01*
X119777900Y-147055484D01*
X119629023Y-146696064D01*
X119353936Y-146420977D01*
X118994516Y-146272100D01*
X118827889Y-146272100D01*
X118352424Y-145796636D01*
X118312746Y-145737254D01*
X118077496Y-145580064D01*
X117930732Y-145550871D01*
X117800838Y-145420977D01*
X117441418Y-145272100D01*
X117052386Y-145272100D01*
X116692966Y-145420977D01*
X116417879Y-145696064D01*
X116269002Y-146055484D01*
X113644133Y-146055484D01*
X113787822Y-145995966D01*
X114062909Y-145720879D01*
X114211786Y-145361459D01*
X114211786Y-144972427D01*
X114062909Y-144613007D01*
X113995886Y-144545984D01*
X113995886Y-142708928D01*
X114010813Y-142633885D01*
X113995886Y-142558842D01*
X113995886Y-142558838D01*
X113951674Y-142336569D01*
X113926819Y-142299370D01*
X113825768Y-142148137D01*
X113783257Y-142084515D01*
X113719635Y-142042004D01*
X110391883Y-138714253D01*
X110349371Y-138650629D01*
X110097317Y-138482212D01*
X109875048Y-138438000D01*
X109875043Y-138438000D01*
X109800000Y-138423073D01*
X109724957Y-138438000D01*
X101612000Y-138438000D01*
X101612000Y-131450000D01*
X125952560Y-131450000D01*
X125952560Y-133450000D01*
X126001843Y-133697765D01*
X126142191Y-133907809D01*
X126352235Y-134048157D01*
X126600000Y-134097440D01*
X128600000Y-134097440D01*
X128847765Y-134048157D01*
X129057809Y-133907809D01*
X129198157Y-133697765D01*
X129247440Y-133450000D01*
X129247440Y-131450000D01*
X129198157Y-131202235D01*
X129057809Y-130992191D01*
X128847765Y-130851843D01*
X128600000Y-130802560D01*
X126600000Y-130802560D01*
X126352235Y-130851843D01*
X126142191Y-130992191D01*
X126001843Y-131202235D01*
X125952560Y-131450000D01*
X101612000Y-131450000D01*
X101612000Y-127450000D01*
X111652560Y-127450000D01*
X111652560Y-129850000D01*
X111701843Y-130097765D01*
X111842191Y-130307809D01*
X112052235Y-130448157D01*
X112300000Y-130497440D01*
X114700000Y-130497440D01*
X114947765Y-130448157D01*
X115157809Y-130307809D01*
X115298157Y-130097765D01*
X115347440Y-129850000D01*
X115347440Y-127450000D01*
X115298157Y-127202235D01*
X115157809Y-126992191D01*
X114947765Y-126851843D01*
X114700000Y-126802560D01*
X112300000Y-126802560D01*
X112052235Y-126851843D01*
X111842191Y-126992191D01*
X111701843Y-127202235D01*
X111652560Y-127450000D01*
X101612000Y-127450000D01*
X101612000Y-110925042D01*
X101626927Y-110849999D01*
X101612000Y-110774956D01*
X101612000Y-110774952D01*
X101569641Y-110562000D01*
X109284370Y-110562000D01*
X110038001Y-111315632D01*
X110038000Y-114129041D01*
X109970977Y-114196064D01*
X109822100Y-114555484D01*
X109822100Y-114944516D01*
X109970977Y-115303936D01*
X110246064Y-115579023D01*
X110605484Y-115727900D01*
X110994516Y-115727900D01*
X111353936Y-115579023D01*
X111629023Y-115303936D01*
X111777900Y-114944516D01*
X111777900Y-114555484D01*
X111629023Y-114196064D01*
X111562000Y-114129041D01*
X111562000Y-111889631D01*
X112471887Y-112799518D01*
X112471886Y-114545984D01*
X112404863Y-114613007D01*
X112255986Y-114972427D01*
X112255986Y-115361459D01*
X112404863Y-115720879D01*
X112679950Y-115995966D01*
X113039370Y-116144843D01*
X113428402Y-116144843D01*
X113644133Y-116055484D01*
X116269002Y-116055484D01*
X116269002Y-116444516D01*
X116417879Y-116803936D01*
X116692966Y-117079023D01*
X117052386Y-117227900D01*
X117441418Y-117227900D01*
X117675254Y-117131042D01*
X117822100Y-117277889D01*
X117822100Y-117444516D01*
X117970977Y-117803936D01*
X118246064Y-118079023D01*
X118605484Y-118227900D01*
X118994516Y-118227900D01*
X119353936Y-118079023D01*
X119629023Y-117803936D01*
X119777900Y-117444516D01*
X119777900Y-117055484D01*
X119629023Y-116696064D01*
X119353936Y-116420977D01*
X118994516Y-116272100D01*
X118827889Y-116272100D01*
X118352424Y-115796636D01*
X118312746Y-115737254D01*
X118077496Y-115580064D01*
X117930732Y-115550871D01*
X117800838Y-115420977D01*
X117441418Y-115272100D01*
X117052386Y-115272100D01*
X116692966Y-115420977D01*
X116417879Y-115696064D01*
X116269002Y-116055484D01*
X113644133Y-116055484D01*
X113787822Y-115995966D01*
X114062909Y-115720879D01*
X114211786Y-115361459D01*
X114211786Y-114972427D01*
X114062909Y-114613007D01*
X113995886Y-114545984D01*
X113995886Y-112558933D01*
X114010814Y-112483886D01*
X113991412Y-112386347D01*
X113951674Y-112186569D01*
X113783257Y-111934515D01*
X113719635Y-111892004D01*
X109899230Y-108071600D01*
X109856718Y-108007976D01*
X109604664Y-107839559D01*
X109382395Y-107795347D01*
X109382390Y-107795347D01*
X109307347Y-107780420D01*
X109232304Y-107795347D01*
X101558387Y-107795347D01*
X101491364Y-107728324D01*
X101131944Y-107579447D01*
X100742912Y-107579447D01*
X100383492Y-107728324D01*
X100262000Y-107849816D01*
X100262000Y-106120959D01*
X100329023Y-106053936D01*
X100477900Y-105694516D01*
X100477900Y-105305484D01*
X100329023Y-104946064D01*
X100053936Y-104670977D01*
X99694516Y-104522100D01*
X99305484Y-104522100D01*
X98946064Y-104670977D01*
X98670977Y-104946064D01*
X98522100Y-105305484D01*
X98522100Y-105694516D01*
X98670977Y-106053936D01*
X98738001Y-106120960D01*
X98738000Y-109424957D01*
X98723073Y-109500000D01*
X98738000Y-109575043D01*
X98738000Y-109575047D01*
X98782212Y-109797316D01*
X98950629Y-110049371D01*
X99014253Y-110091883D01*
X100088001Y-111165632D01*
X100088000Y-138160369D01*
X97762000Y-135834370D01*
X97762000Y-107620959D01*
X97829023Y-107553936D01*
X97977900Y-107194516D01*
X97977900Y-106805484D01*
X97829023Y-106446064D01*
X97553936Y-106170977D01*
X97194516Y-106022100D01*
X96805484Y-106022100D01*
X96446064Y-106170977D01*
X96170977Y-106446064D01*
X96022100Y-106805484D01*
X89683115Y-106805484D01*
X89027900Y-106150270D01*
X89027900Y-106055484D01*
X88879023Y-105696064D01*
X88603936Y-105420977D01*
X88244516Y-105272100D01*
X87855484Y-105272100D01*
X87496064Y-105420977D01*
X87220977Y-105696064D01*
X87111864Y-105959484D01*
X87034310Y-105881930D01*
X87034310Y-87542899D01*
X90030174Y-87542899D01*
X90045101Y-87617942D01*
X90045102Y-95362053D01*
X90030174Y-95437101D01*
X90089314Y-95734418D01*
X90177854Y-95866927D01*
X90257731Y-95986472D01*
X90321352Y-96028982D01*
X91558321Y-97265952D01*
X91485908Y-97630000D01*
X91601161Y-98209418D01*
X91929375Y-98700625D01*
X92227761Y-98900000D01*
X91929375Y-99099375D01*
X91601161Y-99590582D01*
X91485908Y-100170000D01*
X91601161Y-100749418D01*
X91929375Y-101240625D01*
X92227761Y-101440000D01*
X91929375Y-101639375D01*
X91601161Y-102130582D01*
X91485908Y-102710000D01*
X91601161Y-103289418D01*
X91929375Y-103780625D01*
X92420582Y-104108839D01*
X92853744Y-104195000D01*
X93146256Y-104195000D01*
X93579418Y-104108839D01*
X94070625Y-103780625D01*
X94398839Y-103289418D01*
X94514092Y-102710000D01*
X94467925Y-102477900D01*
X94694516Y-102477900D01*
X95053936Y-102329023D01*
X95329023Y-102053936D01*
X95477900Y-101694516D01*
X95477900Y-101305484D01*
X95329023Y-100946064D01*
X95053936Y-100670977D01*
X94694516Y-100522100D01*
X94444055Y-100522100D01*
X94514092Y-100170000D01*
X94398839Y-99590582D01*
X94070625Y-99099375D01*
X93772239Y-98900000D01*
X94070625Y-98700625D01*
X94398839Y-98209418D01*
X94514092Y-97630000D01*
X94398839Y-97050582D01*
X94070625Y-96559375D01*
X93772239Y-96360000D01*
X94070625Y-96160625D01*
X94398839Y-95669418D01*
X94514092Y-95090000D01*
X94398839Y-94510582D01*
X94070625Y-94019375D01*
X93579418Y-93691161D01*
X93146256Y-93605000D01*
X92853744Y-93605000D01*
X92635951Y-93648321D01*
X92632599Y-93644969D01*
X92632599Y-91295031D01*
X94999201Y-88928430D01*
X95032213Y-89094395D01*
X95200630Y-89346449D01*
X95264251Y-89388959D01*
X97667401Y-91792110D01*
X97667402Y-93644968D01*
X97664253Y-93648117D01*
X97664250Y-93648119D01*
X97664048Y-93648321D01*
X97446256Y-93605000D01*
X97153744Y-93605000D01*
X96720582Y-93691161D01*
X96229375Y-94019375D01*
X95901161Y-94510582D01*
X95785908Y-95090000D01*
X95901161Y-95669418D01*
X96229375Y-96160625D01*
X96527761Y-96360000D01*
X96229375Y-96559375D01*
X95901161Y-97050582D01*
X95785908Y-97630000D01*
X95901161Y-98209418D01*
X96229375Y-98700625D01*
X96527761Y-98900000D01*
X96229375Y-99099375D01*
X95901161Y-99590582D01*
X95785908Y-100170000D01*
X95901161Y-100749418D01*
X96229375Y-101240625D01*
X96527761Y-101440000D01*
X96229375Y-101639375D01*
X95901161Y-102130582D01*
X95785908Y-102710000D01*
X95901161Y-103289418D01*
X96229375Y-103780625D01*
X96720582Y-104108839D01*
X96974259Y-104159298D01*
X96946064Y-104170977D01*
X96670977Y-104446064D01*
X96522100Y-104805484D01*
X96522100Y-105194516D01*
X96670977Y-105553936D01*
X96946064Y-105829023D01*
X97305484Y-105977900D01*
X97694516Y-105977900D01*
X98053936Y-105829023D01*
X98329023Y-105553936D01*
X98477900Y-105194516D01*
X98477900Y-105099730D01*
X98915148Y-104662482D01*
X98978772Y-104619970D01*
X99147189Y-104367916D01*
X99191401Y-104145647D01*
X99191401Y-104145643D01*
X99206328Y-104070600D01*
X99191401Y-103995557D01*
X99191401Y-101450000D01*
X125952560Y-101450000D01*
X125952560Y-103450000D01*
X126001843Y-103697765D01*
X126142191Y-103907809D01*
X126352235Y-104048157D01*
X126600000Y-104097440D01*
X128600000Y-104097440D01*
X128847765Y-104048157D01*
X129057809Y-103907809D01*
X129198157Y-103697765D01*
X129247440Y-103450000D01*
X129247440Y-101450000D01*
X129198157Y-101202235D01*
X129057809Y-100992191D01*
X128847765Y-100851843D01*
X128600000Y-100802560D01*
X126600000Y-100802560D01*
X126352235Y-100851843D01*
X126142191Y-100992191D01*
X126001843Y-101202235D01*
X125952560Y-101450000D01*
X99191401Y-101450000D01*
X99191401Y-101374443D01*
X99206328Y-101299400D01*
X99191401Y-101224357D01*
X99191401Y-101224353D01*
X99147189Y-101002084D01*
X98978772Y-100750030D01*
X98915147Y-100707517D01*
X98741883Y-100534253D01*
X98741881Y-100534250D01*
X98741679Y-100534048D01*
X98814092Y-100170000D01*
X98698839Y-99590582D01*
X98370625Y-99099375D01*
X98072239Y-98900000D01*
X98370625Y-98700625D01*
X98698839Y-98209418D01*
X98814092Y-97630000D01*
X98778289Y-97450000D01*
X111652560Y-97450000D01*
X111652560Y-99850000D01*
X111701843Y-100097765D01*
X111842191Y-100307809D01*
X112052235Y-100448157D01*
X112300000Y-100497440D01*
X114700000Y-100497440D01*
X114947765Y-100448157D01*
X115157809Y-100307809D01*
X115298157Y-100097765D01*
X115347440Y-99850000D01*
X115347440Y-97450000D01*
X115298157Y-97202235D01*
X115157809Y-96992191D01*
X114947765Y-96851843D01*
X114700000Y-96802560D01*
X112300000Y-96802560D01*
X112052235Y-96851843D01*
X111842191Y-96992191D01*
X111701843Y-97202235D01*
X111652560Y-97450000D01*
X98778289Y-97450000D01*
X98741679Y-97265952D01*
X99321562Y-96686069D01*
X99385183Y-96643559D01*
X99553600Y-96391505D01*
X99597812Y-96169236D01*
X99597812Y-96169232D01*
X99612739Y-96094189D01*
X99597812Y-96019146D01*
X99597812Y-85626540D01*
X99612739Y-85551497D01*
X99597812Y-85476454D01*
X99597812Y-85476449D01*
X99553600Y-85254180D01*
X99385183Y-85002126D01*
X99321561Y-84959615D01*
X97847484Y-83485539D01*
X97847484Y-83390753D01*
X97698607Y-83031333D01*
X97423520Y-82756246D01*
X97064100Y-82607369D01*
X96675068Y-82607369D01*
X96512000Y-82674914D01*
X96512000Y-78755484D01*
X99672100Y-78755484D01*
X99672100Y-79144516D01*
X99820977Y-79503936D01*
X99924737Y-79607696D01*
X99822100Y-79855484D01*
X99822100Y-80244516D01*
X99970977Y-80603936D01*
X100246064Y-80879023D01*
X100605484Y-81027900D01*
X100994516Y-81027900D01*
X101353936Y-80879023D01*
X101570959Y-80662000D01*
X108684370Y-80662000D01*
X110380900Y-82358531D01*
X110380899Y-83865126D01*
X110246064Y-83920977D01*
X109970977Y-84196064D01*
X109822100Y-84555484D01*
X109822100Y-84944516D01*
X109970977Y-85303936D01*
X110246064Y-85579023D01*
X110605484Y-85727900D01*
X110994516Y-85727900D01*
X111353936Y-85579023D01*
X111629023Y-85303936D01*
X111777900Y-84944516D01*
X111777900Y-84828318D01*
X111860687Y-84704418D01*
X111904899Y-84482149D01*
X111904899Y-84482145D01*
X111919826Y-84407102D01*
X111904899Y-84332059D01*
X111904899Y-83082530D01*
X112471887Y-83649518D01*
X112471886Y-84545984D01*
X112404863Y-84613007D01*
X112255986Y-84972427D01*
X112255986Y-85361459D01*
X112404863Y-85720879D01*
X112679950Y-85995966D01*
X113039370Y-86144843D01*
X113428402Y-86144843D01*
X113644133Y-86055484D01*
X116269002Y-86055484D01*
X116269002Y-86444516D01*
X116417879Y-86803936D01*
X116692966Y-87079023D01*
X117052386Y-87227900D01*
X117441418Y-87227900D01*
X117675254Y-87131042D01*
X117822100Y-87277889D01*
X117822100Y-87444516D01*
X117970977Y-87803936D01*
X118246064Y-88079023D01*
X118605484Y-88227900D01*
X118994516Y-88227900D01*
X119353936Y-88079023D01*
X119629023Y-87803936D01*
X119777900Y-87444516D01*
X119777900Y-87055484D01*
X119629023Y-86696064D01*
X119353936Y-86420977D01*
X118994516Y-86272100D01*
X118827889Y-86272100D01*
X118352424Y-85796636D01*
X118312746Y-85737254D01*
X118077496Y-85580064D01*
X117930732Y-85550871D01*
X117800838Y-85420977D01*
X117441418Y-85272100D01*
X117052386Y-85272100D01*
X116692966Y-85420977D01*
X116417879Y-85696064D01*
X116269002Y-86055484D01*
X113644133Y-86055484D01*
X113787822Y-85995966D01*
X114062909Y-85720879D01*
X114211786Y-85361459D01*
X114211786Y-84972427D01*
X114062909Y-84613007D01*
X113995886Y-84545984D01*
X113995886Y-83408933D01*
X114010814Y-83333886D01*
X113986247Y-83210381D01*
X113951674Y-83036569D01*
X113783257Y-82784515D01*
X113719635Y-82742004D01*
X109541883Y-78564253D01*
X109499371Y-78500629D01*
X109247317Y-78332212D01*
X109025048Y-78288000D01*
X109025043Y-78288000D01*
X108950000Y-78273073D01*
X108874957Y-78288000D01*
X101370959Y-78288000D01*
X101203936Y-78120977D01*
X100844516Y-77972100D01*
X100455484Y-77972100D01*
X100096064Y-78120977D01*
X99820977Y-78396064D01*
X99672100Y-78755484D01*
X96512000Y-78755484D01*
X96512000Y-71450000D01*
X125952560Y-71450000D01*
X125952560Y-73450000D01*
X126001843Y-73697765D01*
X126142191Y-73907809D01*
X126352235Y-74048157D01*
X126600000Y-74097440D01*
X128600000Y-74097440D01*
X128847765Y-74048157D01*
X129057809Y-73907809D01*
X129198157Y-73697765D01*
X129247440Y-73450000D01*
X129247440Y-71450000D01*
X129198157Y-71202235D01*
X129057809Y-70992191D01*
X128847765Y-70851843D01*
X128600000Y-70802560D01*
X126600000Y-70802560D01*
X126352235Y-70851843D01*
X126142191Y-70992191D01*
X126001843Y-71202235D01*
X125952560Y-71450000D01*
X96512000Y-71450000D01*
X96512000Y-68220959D01*
X96579023Y-68153936D01*
X96727900Y-67794516D01*
X96727900Y-67450000D01*
X111652560Y-67450000D01*
X111652560Y-69850000D01*
X111701843Y-70097765D01*
X111842191Y-70307809D01*
X112052235Y-70448157D01*
X112300000Y-70497440D01*
X114700000Y-70497440D01*
X114947765Y-70448157D01*
X115157809Y-70307809D01*
X115298157Y-70097765D01*
X115347440Y-69850000D01*
X115347440Y-67450000D01*
X115298157Y-67202235D01*
X115157809Y-66992191D01*
X114947765Y-66851843D01*
X114700000Y-66802560D01*
X112300000Y-66802560D01*
X112052235Y-66851843D01*
X111842191Y-66992191D01*
X111701843Y-67202235D01*
X111652560Y-67450000D01*
X96727900Y-67450000D01*
X96727900Y-67405484D01*
X96579023Y-67046064D01*
X96303936Y-66770977D01*
X95944516Y-66622100D01*
X95555484Y-66622100D01*
X95343052Y-66710093D01*
X95303936Y-66670977D01*
X94944516Y-66522100D01*
X94555484Y-66522100D01*
X94196064Y-66670977D01*
X93920977Y-66946064D01*
X93772100Y-67305484D01*
X93772100Y-67694516D01*
X93920977Y-68053936D01*
X93988000Y-68120959D01*
X93988001Y-87784368D01*
X91569101Y-90203269D01*
X91569101Y-88084874D01*
X91703936Y-88029023D01*
X91979023Y-87753936D01*
X92127900Y-87394516D01*
X92127900Y-87005484D01*
X91979023Y-86646064D01*
X91703936Y-86370977D01*
X91344516Y-86222100D01*
X90955484Y-86222100D01*
X90596064Y-86370977D01*
X90320977Y-86646064D01*
X90172100Y-87005484D01*
X90172100Y-87121683D01*
X90089313Y-87245583D01*
X90045101Y-87467852D01*
X90045101Y-87467856D01*
X90030174Y-87542899D01*
X87034310Y-87542899D01*
X87034310Y-81635846D01*
X87101333Y-81568823D01*
X87250210Y-81209403D01*
X87250210Y-80820371D01*
X87101333Y-80460951D01*
X86826246Y-80185864D01*
X86466826Y-80036987D01*
X86077794Y-80036987D01*
X85718374Y-80185864D01*
X85443287Y-80460951D01*
X85354265Y-80675869D01*
X85222206Y-80621168D01*
X84833174Y-80621168D01*
X84473754Y-80770045D01*
X84198667Y-81045132D01*
X84049790Y-81404552D01*
X84049790Y-81793584D01*
X84198667Y-82153004D01*
X84338001Y-82292338D01*
X84338000Y-105181533D01*
X84194516Y-105122100D01*
X83805484Y-105122100D01*
X83446064Y-105270977D01*
X83170977Y-105546064D01*
X83022100Y-105905484D01*
X83022100Y-106021683D01*
X82939313Y-106145583D01*
X82895101Y-106367852D01*
X82895101Y-106367856D01*
X82880174Y-106442899D01*
X82895101Y-106517942D01*
X82895102Y-111612053D01*
X82880174Y-111687101D01*
X82939314Y-111984418D01*
X82989399Y-112059375D01*
X83107731Y-112236472D01*
X83171352Y-112278982D01*
X83658321Y-112765952D01*
X83585908Y-113130000D01*
X83701161Y-113709418D01*
X84029375Y-114200625D01*
X84327761Y-114400000D01*
X84029375Y-114599375D01*
X83701161Y-115090582D01*
X83585908Y-115670000D01*
X83658321Y-116034048D01*
X83314251Y-116378119D01*
X83250630Y-116420629D01*
X83208119Y-116484251D01*
X83208118Y-116484252D01*
X83082213Y-116672683D01*
X83023073Y-116970000D01*
X83038001Y-117045048D01*
X83038000Y-130479041D01*
X82970977Y-130546064D01*
X82822100Y-130905484D01*
X82822100Y-131294516D01*
X82970977Y-131653936D01*
X83244705Y-131927664D01*
X80534370Y-134638000D01*
X73015631Y-134638000D01*
X71562000Y-133184370D01*
X71562000Y-131420959D01*
X71629023Y-131353936D01*
X71777900Y-130994516D01*
X71777900Y-130605484D01*
X71629023Y-130246064D01*
X71353936Y-129970977D01*
X70994516Y-129822100D01*
X70605484Y-129822100D01*
X70246064Y-129970977D01*
X69970977Y-130246064D01*
X69822100Y-130605484D01*
X69822100Y-130994516D01*
X69970977Y-131353936D01*
X70038000Y-131420959D01*
X70038001Y-132860370D01*
X69128114Y-131950484D01*
X69128114Y-131004016D01*
X69195137Y-130936993D01*
X69344014Y-130577573D01*
X69344014Y-130188541D01*
X69195137Y-129829121D01*
X68920050Y-129554034D01*
X68560630Y-129405157D01*
X68171598Y-129405157D01*
X67812178Y-129554034D01*
X67537091Y-129829121D01*
X67388214Y-130188541D01*
X64763345Y-130188541D01*
X64907034Y-130129023D01*
X65182121Y-129853936D01*
X65330998Y-129494516D01*
X65330998Y-129105484D01*
X65182121Y-128746064D01*
X64907034Y-128470977D01*
X64547614Y-128322100D01*
X64158582Y-128322100D01*
X63924747Y-128418958D01*
X63777900Y-128272112D01*
X63777900Y-128105484D01*
X63629023Y-127746064D01*
X63353936Y-127470977D01*
X62994516Y-127322100D01*
X62605484Y-127322100D01*
X62246064Y-127470977D01*
X61970977Y-127746064D01*
X61822100Y-128105484D01*
X34711200Y-128105484D01*
X34711200Y-115700000D01*
X66252560Y-115700000D01*
X66252560Y-118100000D01*
X66301843Y-118347765D01*
X66442191Y-118557809D01*
X66652235Y-118698157D01*
X66900000Y-118747440D01*
X69300000Y-118747440D01*
X69547765Y-118698157D01*
X69757809Y-118557809D01*
X69898157Y-118347765D01*
X69947440Y-118100000D01*
X69947440Y-115700000D01*
X69898157Y-115452235D01*
X69757809Y-115242191D01*
X69547765Y-115101843D01*
X69300000Y-115052560D01*
X66900000Y-115052560D01*
X66652235Y-115101843D01*
X66442191Y-115242191D01*
X66301843Y-115452235D01*
X66252560Y-115700000D01*
X34711200Y-115700000D01*
X34711200Y-112100000D01*
X52352560Y-112100000D01*
X52352560Y-114100000D01*
X52401843Y-114347765D01*
X52542191Y-114557809D01*
X52752235Y-114698157D01*
X53000000Y-114747440D01*
X55000000Y-114747440D01*
X55247765Y-114698157D01*
X55457809Y-114557809D01*
X55598157Y-114347765D01*
X55647440Y-114100000D01*
X55647440Y-112100000D01*
X55598157Y-111852235D01*
X55457809Y-111642191D01*
X55247765Y-111501843D01*
X55000000Y-111452560D01*
X53000000Y-111452560D01*
X52752235Y-111501843D01*
X52542191Y-111642191D01*
X52401843Y-111852235D01*
X52352560Y-112100000D01*
X34711200Y-112100000D01*
X34711200Y-98105484D01*
X61822100Y-98105484D01*
X61822100Y-98494516D01*
X61970977Y-98853936D01*
X62246064Y-99129023D01*
X62605484Y-99277900D01*
X62772112Y-99277900D01*
X63247578Y-99753367D01*
X63287254Y-99812746D01*
X63346633Y-99852422D01*
X63346635Y-99852424D01*
X63462336Y-99929733D01*
X63522504Y-99969936D01*
X63669268Y-99999129D01*
X63799162Y-100129023D01*
X64158582Y-100277900D01*
X64547614Y-100277900D01*
X64763345Y-100188541D01*
X67388214Y-100188541D01*
X67388214Y-100577573D01*
X67537091Y-100936993D01*
X67619255Y-101019157D01*
X67648326Y-101165307D01*
X67816744Y-101417361D01*
X67880365Y-101459871D01*
X72656242Y-106235749D01*
X72698753Y-106299371D01*
X72950807Y-106467788D01*
X73173076Y-106512000D01*
X73173077Y-106512000D01*
X73248124Y-106526928D01*
X73323171Y-106512000D01*
X78829041Y-106512000D01*
X78896064Y-106579023D01*
X79255484Y-106727900D01*
X79644516Y-106727900D01*
X80003936Y-106579023D01*
X80279023Y-106303936D01*
X80427900Y-105944516D01*
X80427900Y-105789807D01*
X80453936Y-105779023D01*
X80729023Y-105503936D01*
X80877900Y-105144516D01*
X80877900Y-104755484D01*
X80729023Y-104396064D01*
X80453936Y-104120977D01*
X80094516Y-103972100D01*
X79705484Y-103972100D01*
X79346064Y-104120977D01*
X79279041Y-104188000D01*
X73482191Y-104188000D01*
X71562000Y-102267810D01*
X71562000Y-101420959D01*
X71629023Y-101353936D01*
X71777900Y-100994516D01*
X71777900Y-100605484D01*
X71629023Y-100246064D01*
X71353936Y-99970977D01*
X70994516Y-99822100D01*
X70605484Y-99822100D01*
X70246064Y-99970977D01*
X69970977Y-100246064D01*
X69822100Y-100605484D01*
X69822100Y-100994516D01*
X69970977Y-101353936D01*
X70038000Y-101420959D01*
X70038000Y-101462246D01*
X69288163Y-100712409D01*
X69344014Y-100577573D01*
X69344014Y-100188541D01*
X69195137Y-99829121D01*
X68920050Y-99554034D01*
X68560630Y-99405157D01*
X68171598Y-99405157D01*
X67812178Y-99554034D01*
X67537091Y-99829121D01*
X67388214Y-100188541D01*
X64763345Y-100188541D01*
X64907034Y-100129023D01*
X65182121Y-99853936D01*
X65330998Y-99494516D01*
X65330998Y-99105484D01*
X65182121Y-98746064D01*
X64907034Y-98470977D01*
X64547614Y-98322100D01*
X64158582Y-98322100D01*
X63924747Y-98418958D01*
X63777900Y-98272112D01*
X63777900Y-98105484D01*
X63629023Y-97746064D01*
X63353936Y-97470977D01*
X62994516Y-97322100D01*
X62605484Y-97322100D01*
X62246064Y-97470977D01*
X61970977Y-97746064D01*
X61822100Y-98105484D01*
X34711200Y-98105484D01*
X34711200Y-85700000D01*
X66252560Y-85700000D01*
X66252560Y-88100000D01*
X66301843Y-88347765D01*
X66442191Y-88557809D01*
X66652235Y-88698157D01*
X66900000Y-88747440D01*
X69300000Y-88747440D01*
X69547765Y-88698157D01*
X69757809Y-88557809D01*
X69898157Y-88347765D01*
X69947440Y-88100000D01*
X69947440Y-85700000D01*
X69898157Y-85452235D01*
X69757809Y-85242191D01*
X69547765Y-85101843D01*
X69300000Y-85052560D01*
X66900000Y-85052560D01*
X66652235Y-85101843D01*
X66442191Y-85242191D01*
X66301843Y-85452235D01*
X66252560Y-85700000D01*
X34711200Y-85700000D01*
X34711200Y-82100000D01*
X52352560Y-82100000D01*
X52352560Y-84100000D01*
X52401843Y-84347765D01*
X52542191Y-84557809D01*
X52752235Y-84698157D01*
X53000000Y-84747440D01*
X55000000Y-84747440D01*
X55247765Y-84698157D01*
X55457809Y-84557809D01*
X55598157Y-84347765D01*
X55647440Y-84100000D01*
X55647440Y-82100000D01*
X55598157Y-81852235D01*
X55457809Y-81642191D01*
X55247765Y-81501843D01*
X55000000Y-81452560D01*
X53000000Y-81452560D01*
X52752235Y-81501843D01*
X52542191Y-81642191D01*
X52401843Y-81852235D01*
X52352560Y-82100000D01*
X34711200Y-82100000D01*
X34711200Y-68105484D01*
X61822100Y-68105484D01*
X61822100Y-68494516D01*
X61970977Y-68853936D01*
X62246064Y-69129023D01*
X62605484Y-69277900D01*
X62772112Y-69277900D01*
X63247578Y-69753367D01*
X63287254Y-69812746D01*
X63346633Y-69852422D01*
X63346635Y-69852424D01*
X63462336Y-69929733D01*
X63522504Y-69969936D01*
X63669268Y-69999129D01*
X63799162Y-70129023D01*
X64158582Y-70277900D01*
X64547614Y-70277900D01*
X64763345Y-70188541D01*
X67388214Y-70188541D01*
X67388214Y-70577573D01*
X67537091Y-70936993D01*
X67604114Y-71004016D01*
X67604115Y-72491066D01*
X67589187Y-72566114D01*
X67604115Y-72641162D01*
X67648327Y-72863431D01*
X67816744Y-73115485D01*
X67880365Y-73157995D01*
X71358117Y-76635748D01*
X71400629Y-76699371D01*
X71464251Y-76741882D01*
X71652681Y-76867787D01*
X71652682Y-76867787D01*
X71652683Y-76867788D01*
X71874952Y-76912000D01*
X71874956Y-76912000D01*
X71949999Y-76926927D01*
X72025042Y-76912000D01*
X80341474Y-76912000D01*
X80420977Y-77103936D01*
X80696064Y-77379023D01*
X81055484Y-77527900D01*
X81444516Y-77527900D01*
X81803936Y-77379023D01*
X82079023Y-77103936D01*
X82227900Y-76744516D01*
X82227900Y-76355484D01*
X82079023Y-75996064D01*
X81803936Y-75720977D01*
X81754680Y-75700574D01*
X81777900Y-75644516D01*
X81777900Y-75255484D01*
X81629023Y-74896064D01*
X81353936Y-74620977D01*
X80994516Y-74472100D01*
X80605484Y-74472100D01*
X80246064Y-74620977D01*
X80179041Y-74688000D01*
X72515631Y-74688000D01*
X71562000Y-73734370D01*
X71562000Y-71420959D01*
X71629023Y-71353936D01*
X71777900Y-70994516D01*
X71777900Y-70605484D01*
X71629023Y-70246064D01*
X71353936Y-69970977D01*
X70994516Y-69822100D01*
X70605484Y-69822100D01*
X70246064Y-69970977D01*
X69970977Y-70246064D01*
X69822100Y-70605484D01*
X69822100Y-70994516D01*
X69970977Y-71353936D01*
X70038000Y-71420959D01*
X70038001Y-73160370D01*
X69128114Y-72250484D01*
X69128114Y-71004016D01*
X69195137Y-70936993D01*
X69344014Y-70577573D01*
X69344014Y-70188541D01*
X69195137Y-69829121D01*
X68920050Y-69554034D01*
X68560630Y-69405157D01*
X68171598Y-69405157D01*
X67812178Y-69554034D01*
X67537091Y-69829121D01*
X67388214Y-70188541D01*
X64763345Y-70188541D01*
X64907034Y-70129023D01*
X65182121Y-69853936D01*
X65330998Y-69494516D01*
X65330998Y-69105484D01*
X65182121Y-68746064D01*
X64907034Y-68470977D01*
X64547614Y-68322100D01*
X64158582Y-68322100D01*
X63924747Y-68418958D01*
X63777900Y-68272112D01*
X63777900Y-68105484D01*
X63629023Y-67746064D01*
X63353936Y-67470977D01*
X62994516Y-67322100D01*
X62605484Y-67322100D01*
X62246064Y-67470977D01*
X61970977Y-67746064D01*
X61822100Y-68105484D01*
X34711200Y-68105484D01*
X34711200Y-54319455D01*
X36065000Y-54319455D01*
X36065000Y-56680545D01*
X36968550Y-58861908D01*
X38638092Y-60531450D01*
X40819455Y-61435000D01*
X43180545Y-61435000D01*
X45361908Y-60531450D01*
X47031450Y-58861908D01*
X47935000Y-56680545D01*
X47935000Y-55700000D01*
X66252560Y-55700000D01*
X66252560Y-58100000D01*
X66301843Y-58347765D01*
X66442191Y-58557809D01*
X66652235Y-58698157D01*
X66900000Y-58747440D01*
X69300000Y-58747440D01*
X69547765Y-58698157D01*
X69757809Y-58557809D01*
X69898157Y-58347765D01*
X69947440Y-58100000D01*
X69947440Y-55700000D01*
X69898157Y-55452235D01*
X69757809Y-55242191D01*
X69547765Y-55101843D01*
X69300000Y-55052560D01*
X66900000Y-55052560D01*
X66652235Y-55101843D01*
X66442191Y-55242191D01*
X66301843Y-55452235D01*
X66252560Y-55700000D01*
X47935000Y-55700000D01*
X47935000Y-54319455D01*
X47031450Y-52138092D01*
X46993358Y-52100000D01*
X52352560Y-52100000D01*
X52352560Y-54100000D01*
X52401843Y-54347765D01*
X52542191Y-54557809D01*
X52752235Y-54698157D01*
X53000000Y-54747440D01*
X55000000Y-54747440D01*
X55247765Y-54698157D01*
X55457809Y-54557809D01*
X55598157Y-54347765D01*
X55647440Y-54100000D01*
X55647440Y-52305484D01*
X109822100Y-52305484D01*
X109822100Y-52694516D01*
X109970977Y-53053936D01*
X110038001Y-53120960D01*
X110038000Y-54129041D01*
X109970977Y-54196064D01*
X109822100Y-54555484D01*
X109822100Y-54944516D01*
X109970977Y-55303936D01*
X110246064Y-55579023D01*
X110605484Y-55727900D01*
X110994516Y-55727900D01*
X111353936Y-55579023D01*
X111629023Y-55303936D01*
X111777900Y-54944516D01*
X111777900Y-54555484D01*
X111629023Y-54196064D01*
X111562000Y-54129041D01*
X111562000Y-53120959D01*
X111629023Y-53053936D01*
X111777900Y-52694516D01*
X111777900Y-52305484D01*
X111629023Y-51946064D01*
X111353936Y-51670977D01*
X110994516Y-51522100D01*
X110605484Y-51522100D01*
X110246064Y-51670977D01*
X109970977Y-51946064D01*
X109822100Y-52305484D01*
X55647440Y-52305484D01*
X55647440Y-52100000D01*
X55598157Y-51852235D01*
X55457809Y-51642191D01*
X55247765Y-51501843D01*
X55000000Y-51452560D01*
X53000000Y-51452560D01*
X52752235Y-51501843D01*
X52542191Y-51642191D01*
X52401843Y-51852235D01*
X52352560Y-52100000D01*
X46993358Y-52100000D01*
X45361908Y-50468550D01*
X45263515Y-50427794D01*
X110522100Y-50427794D01*
X110522100Y-50816826D01*
X110670977Y-51176246D01*
X110946064Y-51451333D01*
X111305484Y-51600210D01*
X111400270Y-51600210D01*
X112471887Y-52671828D01*
X112471886Y-54545984D01*
X112404863Y-54613007D01*
X112255986Y-54972427D01*
X112255986Y-55361459D01*
X112404863Y-55720879D01*
X112679950Y-55995966D01*
X113039370Y-56144843D01*
X113428402Y-56144843D01*
X113644133Y-56055484D01*
X116269002Y-56055484D01*
X116269002Y-56444516D01*
X116417879Y-56803936D01*
X116692966Y-57079023D01*
X117052386Y-57227900D01*
X117441418Y-57227900D01*
X117675254Y-57131042D01*
X117822100Y-57277889D01*
X117822100Y-57444516D01*
X117970977Y-57803936D01*
X118246064Y-58079023D01*
X118605484Y-58227900D01*
X118994516Y-58227900D01*
X119353936Y-58079023D01*
X119629023Y-57803936D01*
X119777900Y-57444516D01*
X119777900Y-57055484D01*
X119629023Y-56696064D01*
X119353936Y-56420977D01*
X118994516Y-56272100D01*
X118827889Y-56272100D01*
X118352424Y-55796636D01*
X118312746Y-55737254D01*
X118077496Y-55580064D01*
X117930732Y-55550871D01*
X117800838Y-55420977D01*
X117441418Y-55272100D01*
X117052386Y-55272100D01*
X116692966Y-55420977D01*
X116417879Y-55696064D01*
X116269002Y-56055484D01*
X113644133Y-56055484D01*
X113787822Y-55995966D01*
X114062909Y-55720879D01*
X114211786Y-55361459D01*
X114211786Y-54972427D01*
X114062909Y-54613007D01*
X113995886Y-54545984D01*
X113995886Y-54069455D01*
X133315000Y-54069455D01*
X133315000Y-56430545D01*
X134218550Y-58611908D01*
X135888092Y-60281450D01*
X138069455Y-61185000D01*
X140430545Y-61185000D01*
X142611908Y-60281450D01*
X144281450Y-58611908D01*
X145185000Y-56430545D01*
X145185000Y-54069455D01*
X144281450Y-51888092D01*
X142611908Y-50218550D01*
X140430545Y-49315000D01*
X138069455Y-49315000D01*
X135888092Y-50218550D01*
X134218550Y-51888092D01*
X133315000Y-54069455D01*
X113995886Y-54069455D01*
X113995886Y-52431243D01*
X114010814Y-52356196D01*
X113959853Y-52100000D01*
X113951674Y-52058879D01*
X113783257Y-51806825D01*
X113719635Y-51764314D01*
X112477900Y-50522580D01*
X112477900Y-50427794D01*
X112329023Y-50068374D01*
X112053936Y-49793287D01*
X111694516Y-49644410D01*
X111305484Y-49644410D01*
X110946064Y-49793287D01*
X110670977Y-50068374D01*
X110522100Y-50427794D01*
X45263515Y-50427794D01*
X43180545Y-49565000D01*
X40819455Y-49565000D01*
X38638092Y-50468550D01*
X36968550Y-52138092D01*
X36065000Y-54319455D01*
X34711200Y-54319455D01*
X34711200Y-50044745D01*
X34772873Y-49556548D01*
X34937415Y-49140963D01*
X35200142Y-48779351D01*
X35544542Y-48494438D01*
X35948974Y-48304127D01*
X36421311Y-48214024D01*
X36511169Y-48211200D01*
X144955255Y-48211200D01*
X145443452Y-48272873D01*
X145443452Y-48272873D01*
G37*
X145443452Y-48272873D02*
X145859037Y-48437415D01*
X146220649Y-48700142D01*
X146505562Y-49044542D01*
X146695873Y-49448974D01*
X146785976Y-49921311D01*
X146788800Y-50011169D01*
X146788801Y-169455248D01*
X146727127Y-169943452D01*
X146562584Y-170359039D01*
X146299859Y-170720649D01*
X145955458Y-171005561D01*
X145551024Y-171195873D01*
X145078689Y-171285976D01*
X144988830Y-171288800D01*
X36544744Y-171288800D01*
X36056548Y-171227127D01*
X35640961Y-171062584D01*
X35279351Y-170799859D01*
X34994439Y-170455458D01*
X34804127Y-170051024D01*
X34714024Y-169578689D01*
X34711200Y-169488830D01*
X34711200Y-162819455D01*
X36065000Y-162819455D01*
X36065000Y-165180545D01*
X36968550Y-167361908D01*
X38638092Y-169031450D01*
X40819455Y-169935000D01*
X43180545Y-169935000D01*
X45361908Y-169031450D01*
X47031450Y-167361908D01*
X47935000Y-165180545D01*
X47935000Y-162819455D01*
X47031450Y-160638092D01*
X45361908Y-158968550D01*
X43278283Y-158105484D01*
X61822100Y-158105484D01*
X61822100Y-158494516D01*
X61970977Y-158853936D01*
X62246064Y-159129023D01*
X62605484Y-159277900D01*
X62772112Y-159277900D01*
X63247578Y-159753367D01*
X63287254Y-159812746D01*
X63346633Y-159852422D01*
X63346635Y-159852424D01*
X63462336Y-159929733D01*
X63522504Y-159969936D01*
X63669268Y-159999129D01*
X63799162Y-160129023D01*
X64158582Y-160277900D01*
X64547614Y-160277900D01*
X64907034Y-160129023D01*
X65182121Y-159853936D01*
X65330998Y-159494516D01*
X65330998Y-159105484D01*
X65182121Y-158746064D01*
X64907034Y-158470977D01*
X64547614Y-158322100D01*
X64158582Y-158322100D01*
X63924747Y-158418958D01*
X63777900Y-158272112D01*
X63777900Y-158105484D01*
X63629023Y-157746064D01*
X63353936Y-157470977D01*
X62994516Y-157322100D01*
X62605484Y-157322100D01*
X62246064Y-157470977D01*
X61970977Y-157746064D01*
X61822100Y-158105484D01*
X43278283Y-158105484D01*
X43180545Y-158065000D01*
X40819455Y-158065000D01*
X38638092Y-158968550D01*
X36968550Y-160638092D01*
X36065000Y-162819455D01*
X34711200Y-162819455D01*
X34711200Y-145700000D01*
X66252560Y-145700000D01*
X66252560Y-148100000D01*
X66301843Y-148347765D01*
X66442191Y-148557809D01*
X66652235Y-148698157D01*
X66900000Y-148747440D01*
X69300000Y-148747440D01*
X69547765Y-148698157D01*
X69757809Y-148557809D01*
X69898157Y-148347765D01*
X69947440Y-148100000D01*
X69947440Y-145700000D01*
X69898157Y-145452235D01*
X69757809Y-145242191D01*
X69547765Y-145101843D01*
X69300000Y-145052560D01*
X66900000Y-145052560D01*
X66652235Y-145101843D01*
X66442191Y-145242191D01*
X66301843Y-145452235D01*
X66252560Y-145700000D01*
X34711200Y-145700000D01*
X34711200Y-142100000D01*
X52352560Y-142100000D01*
X52352560Y-144100000D01*
X52401843Y-144347765D01*
X52542191Y-144557809D01*
X52752235Y-144698157D01*
X53000000Y-144747440D01*
X55000000Y-144747440D01*
X55247765Y-144698157D01*
X55457809Y-144557809D01*
X55598157Y-144347765D01*
X55647440Y-144100000D01*
X55647440Y-142100000D01*
X55598157Y-141852235D01*
X55457809Y-141642191D01*
X55247765Y-141501843D01*
X55000000Y-141452560D01*
X53000000Y-141452560D01*
X52752235Y-141501843D01*
X52542191Y-141642191D01*
X52401843Y-141852235D01*
X52352560Y-142100000D01*
X34711200Y-142100000D01*
X34711200Y-128105484D01*
X61822100Y-128105484D01*
X61822100Y-128494516D01*
X61970977Y-128853936D01*
X62246064Y-129129023D01*
X62605484Y-129277900D01*
X62772112Y-129277900D01*
X63247578Y-129753367D01*
X63287254Y-129812746D01*
X63346633Y-129852422D01*
X63346635Y-129852424D01*
X63462336Y-129929733D01*
X63522504Y-129969936D01*
X63669268Y-129999129D01*
X63799162Y-130129023D01*
X64158582Y-130277900D01*
X64547614Y-130277900D01*
X64763345Y-130188541D01*
X67388214Y-130188541D01*
X67388214Y-130577573D01*
X67537091Y-130936993D01*
X67604114Y-131004016D01*
X67604115Y-132191066D01*
X67589187Y-132266114D01*
X67604115Y-132341162D01*
X67648327Y-132563431D01*
X67816744Y-132815485D01*
X67880365Y-132857995D01*
X71808118Y-136785749D01*
X71850629Y-136849371D01*
X71914251Y-136891882D01*
X72102681Y-137017787D01*
X72102682Y-137017787D01*
X72102683Y-137017788D01*
X72324952Y-137062000D01*
X72324956Y-137062000D01*
X72399999Y-137076927D01*
X72475042Y-137062000D01*
X80824952Y-137062000D01*
X80900000Y-137076928D01*
X80975048Y-137062000D01*
X81174957Y-137062000D01*
X81250000Y-137076927D01*
X81325043Y-137062000D01*
X81325048Y-137062000D01*
X81547317Y-137017788D01*
X81799371Y-136849371D01*
X81841883Y-136785747D01*
X84499731Y-134127900D01*
X84594516Y-134127900D01*
X84838001Y-134027045D01*
X84838000Y-160834369D01*
X80884370Y-164788000D01*
X72965631Y-164788000D01*
X71562000Y-163384370D01*
X71562000Y-161420959D01*
X71629023Y-161353936D01*
X71777900Y-160994516D01*
X71777900Y-160605484D01*
X71629023Y-160246064D01*
X71353936Y-159970977D01*
X70994516Y-159822100D01*
X70605484Y-159822100D01*
X70246064Y-159970977D01*
X69970977Y-160246064D01*
X69822100Y-160605484D01*
X69822100Y-160994516D01*
X69970977Y-161353936D01*
X70038000Y-161420959D01*
X70038001Y-163110370D01*
X69128114Y-162200484D01*
X69128114Y-161004016D01*
X69195137Y-160936993D01*
X69344014Y-160577573D01*
X69344014Y-160188541D01*
X69195137Y-159829121D01*
X68920050Y-159554034D01*
X68560630Y-159405157D01*
X68171598Y-159405157D01*
X67812178Y-159554034D01*
X67537091Y-159829121D01*
X67388214Y-160188541D01*
X67388214Y-160577573D01*
X67537091Y-160936993D01*
X67604114Y-161004016D01*
X67604115Y-162441066D01*
X67589187Y-162516114D01*
X67604115Y-162591162D01*
X67648327Y-162813431D01*
X67816744Y-163065485D01*
X67880365Y-163107995D01*
X71558118Y-166785749D01*
X71600629Y-166849371D01*
X71852683Y-167017788D01*
X72074952Y-167062000D01*
X72074957Y-167062000D01*
X72150000Y-167076927D01*
X72225043Y-167062000D01*
X84524957Y-167062000D01*
X84600000Y-167076927D01*
X84675043Y-167062000D01*
X84675048Y-167062000D01*
X84897317Y-167017788D01*
X85149371Y-166849371D01*
X85191883Y-166785747D01*
X87085750Y-164891881D01*
X87149371Y-164849371D01*
X87317788Y-164597317D01*
X87362000Y-164375048D01*
X87362000Y-164375044D01*
X87376927Y-164300001D01*
X87362000Y-164224958D01*
X87362000Y-161450000D01*
X125952560Y-161450000D01*
X125952560Y-163450000D01*
X126001843Y-163697765D01*
X126142191Y-163907809D01*
X126352235Y-164048157D01*
X126600000Y-164097440D01*
X128600000Y-164097440D01*
X128847765Y-164048157D01*
X129057809Y-163907809D01*
X129198157Y-163697765D01*
X129247440Y-163450000D01*
X129247440Y-162819455D01*
X133565000Y-162819455D01*
X133565000Y-165180545D01*
X134468550Y-167361908D01*
X136138092Y-169031450D01*
X138319455Y-169935000D01*
X140680545Y-169935000D01*
X142861908Y-169031450D01*
X144531450Y-167361908D01*
X145435000Y-165180545D01*
X145435000Y-162819455D01*
X144531450Y-160638092D01*
X142861908Y-158968550D01*
X140680545Y-158065000D01*
X138319455Y-158065000D01*
X136138092Y-158968550D01*
X134468550Y-160638092D01*
X133565000Y-162819455D01*
X129247440Y-162819455D01*
X129247440Y-161450000D01*
X129198157Y-161202235D01*
X129057809Y-160992191D01*
X128847765Y-160851843D01*
X128600000Y-160802560D01*
X126600000Y-160802560D01*
X126352235Y-160851843D01*
X126142191Y-160992191D01*
X126001843Y-161202235D01*
X125952560Y-161450000D01*
X87362000Y-161450000D01*
X87362000Y-157450000D01*
X111652560Y-157450000D01*
X111652560Y-159850000D01*
X111701843Y-160097765D01*
X111842191Y-160307809D01*
X112052235Y-160448157D01*
X112300000Y-160497440D01*
X114700000Y-160497440D01*
X114947765Y-160448157D01*
X115157809Y-160307809D01*
X115298157Y-160097765D01*
X115347440Y-159850000D01*
X115347440Y-157450000D01*
X115298157Y-157202235D01*
X115157809Y-156992191D01*
X114947765Y-156851843D01*
X114700000Y-156802560D01*
X112300000Y-156802560D01*
X112052235Y-156851843D01*
X111842191Y-156992191D01*
X111701843Y-157202235D01*
X111652560Y-157450000D01*
X87362000Y-157450000D01*
X87362000Y-126765630D01*
X87799731Y-126327900D01*
X87894516Y-126327900D01*
X88253936Y-126179023D01*
X88529023Y-125903936D01*
X88677900Y-125544516D01*
X88677900Y-125383631D01*
X88905484Y-125477900D01*
X89294516Y-125477900D01*
X89653936Y-125329023D01*
X89929023Y-125053936D01*
X90077900Y-124694516D01*
X90077900Y-124305484D01*
X89929023Y-123946064D01*
X89653936Y-123670977D01*
X89509707Y-123611235D01*
X89602293Y-123549371D01*
X89644805Y-123485747D01*
X90815151Y-122315402D01*
X90878772Y-122272892D01*
X91047189Y-122020838D01*
X91091401Y-121798569D01*
X91091401Y-121798564D01*
X91106328Y-121723521D01*
X91091401Y-121648478D01*
X91091401Y-116774443D01*
X91106328Y-116699400D01*
X91091401Y-116624357D01*
X91091401Y-116624353D01*
X91047189Y-116402084D01*
X90878772Y-116150030D01*
X90815147Y-116107517D01*
X90641883Y-115934253D01*
X90641881Y-115934250D01*
X90641679Y-115934048D01*
X90714092Y-115570000D01*
X90598839Y-114990582D01*
X90270625Y-114499375D01*
X89972239Y-114300000D01*
X90270625Y-114100625D01*
X90598839Y-113609418D01*
X90714092Y-113030000D01*
X90641679Y-112665952D01*
X90641881Y-112665750D01*
X90641883Y-112665747D01*
X90815147Y-112492483D01*
X90878772Y-112449970D01*
X91047189Y-112197916D01*
X91091401Y-111975647D01*
X91091401Y-111975643D01*
X91106328Y-111900600D01*
X91091401Y-111825557D01*
X91091401Y-108604448D01*
X91106329Y-108529401D01*
X91070310Y-108348322D01*
X91047189Y-108232084D01*
X90878772Y-107980030D01*
X90815151Y-107937520D01*
X89683115Y-106805484D01*
X96022100Y-106805484D01*
X96022100Y-107194516D01*
X96170977Y-107553936D01*
X96238000Y-107620959D01*
X96238001Y-136074952D01*
X96223073Y-136150000D01*
X96282213Y-136447317D01*
X96382440Y-136597317D01*
X96450630Y-136699371D01*
X96514251Y-136741881D01*
X100158117Y-140385748D01*
X100200629Y-140449371D01*
X100452683Y-140617788D01*
X100674952Y-140662000D01*
X100674953Y-140662000D01*
X100750000Y-140676928D01*
X100825047Y-140662000D01*
X108634370Y-140662000D01*
X110038001Y-142065632D01*
X110038000Y-144129041D01*
X109970977Y-144196064D01*
X109822100Y-144555484D01*
X109822100Y-144944516D01*
X109970977Y-145303936D01*
X110246064Y-145579023D01*
X110605484Y-145727900D01*
X110994516Y-145727900D01*
X111353936Y-145579023D01*
X111629023Y-145303936D01*
X111777900Y-144944516D01*
X111777900Y-144555484D01*
X111629023Y-144196064D01*
X111562000Y-144129041D01*
X111562000Y-142039631D01*
X112471887Y-142949518D01*
X112471886Y-144545984D01*
X112404863Y-144613007D01*
X112255986Y-144972427D01*
X112255986Y-145361459D01*
X112404863Y-145720879D01*
X112679950Y-145995966D01*
X113039370Y-146144843D01*
X113428402Y-146144843D01*
X113644133Y-146055484D01*
X116269002Y-146055484D01*
X116269002Y-146444516D01*
X116417879Y-146803936D01*
X116692966Y-147079023D01*
X117052386Y-147227900D01*
X117441418Y-147227900D01*
X117675254Y-147131042D01*
X117822100Y-147277889D01*
X117822100Y-147444516D01*
X117970977Y-147803936D01*
X118246064Y-148079023D01*
X118605484Y-148227900D01*
X118994516Y-148227900D01*
X119353936Y-148079023D01*
X119629023Y-147803936D01*
X119777900Y-147444516D01*
X119777900Y-147055484D01*
X119629023Y-146696064D01*
X119353936Y-146420977D01*
X118994516Y-146272100D01*
X118827889Y-146272100D01*
X118352424Y-145796636D01*
X118312746Y-145737254D01*
X118077496Y-145580064D01*
X117930732Y-145550871D01*
X117800838Y-145420977D01*
X117441418Y-145272100D01*
X117052386Y-145272100D01*
X116692966Y-145420977D01*
X116417879Y-145696064D01*
X116269002Y-146055484D01*
X113644133Y-146055484D01*
X113787822Y-145995966D01*
X114062909Y-145720879D01*
X114211786Y-145361459D01*
X114211786Y-144972427D01*
X114062909Y-144613007D01*
X113995886Y-144545984D01*
X113995886Y-142708928D01*
X114010813Y-142633885D01*
X113995886Y-142558842D01*
X113995886Y-142558838D01*
X113951674Y-142336569D01*
X113926819Y-142299370D01*
X113825768Y-142148137D01*
X113783257Y-142084515D01*
X113719635Y-142042004D01*
X110391883Y-138714253D01*
X110349371Y-138650629D01*
X110097317Y-138482212D01*
X109875048Y-138438000D01*
X109875043Y-138438000D01*
X109800000Y-138423073D01*
X109724957Y-138438000D01*
X101612000Y-138438000D01*
X101612000Y-131450000D01*
X125952560Y-131450000D01*
X125952560Y-133450000D01*
X126001843Y-133697765D01*
X126142191Y-133907809D01*
X126352235Y-134048157D01*
X126600000Y-134097440D01*
X128600000Y-134097440D01*
X128847765Y-134048157D01*
X129057809Y-133907809D01*
X129198157Y-133697765D01*
X129247440Y-133450000D01*
X129247440Y-131450000D01*
X129198157Y-131202235D01*
X129057809Y-130992191D01*
X128847765Y-130851843D01*
X128600000Y-130802560D01*
X126600000Y-130802560D01*
X126352235Y-130851843D01*
X126142191Y-130992191D01*
X126001843Y-131202235D01*
X125952560Y-131450000D01*
X101612000Y-131450000D01*
X101612000Y-127450000D01*
X111652560Y-127450000D01*
X111652560Y-129850000D01*
X111701843Y-130097765D01*
X111842191Y-130307809D01*
X112052235Y-130448157D01*
X112300000Y-130497440D01*
X114700000Y-130497440D01*
X114947765Y-130448157D01*
X115157809Y-130307809D01*
X115298157Y-130097765D01*
X115347440Y-129850000D01*
X115347440Y-127450000D01*
X115298157Y-127202235D01*
X115157809Y-126992191D01*
X114947765Y-126851843D01*
X114700000Y-126802560D01*
X112300000Y-126802560D01*
X112052235Y-126851843D01*
X111842191Y-126992191D01*
X111701843Y-127202235D01*
X111652560Y-127450000D01*
X101612000Y-127450000D01*
X101612000Y-110925042D01*
X101626927Y-110849999D01*
X101612000Y-110774956D01*
X101612000Y-110774952D01*
X101569641Y-110562000D01*
X109284370Y-110562000D01*
X110038001Y-111315632D01*
X110038000Y-114129041D01*
X109970977Y-114196064D01*
X109822100Y-114555484D01*
X109822100Y-114944516D01*
X109970977Y-115303936D01*
X110246064Y-115579023D01*
X110605484Y-115727900D01*
X110994516Y-115727900D01*
X111353936Y-115579023D01*
X111629023Y-115303936D01*
X111777900Y-114944516D01*
X111777900Y-114555484D01*
X111629023Y-114196064D01*
X111562000Y-114129041D01*
X111562000Y-111889631D01*
X112471887Y-112799518D01*
X112471886Y-114545984D01*
X112404863Y-114613007D01*
X112255986Y-114972427D01*
X112255986Y-115361459D01*
X112404863Y-115720879D01*
X112679950Y-115995966D01*
X113039370Y-116144843D01*
X113428402Y-116144843D01*
X113644133Y-116055484D01*
X116269002Y-116055484D01*
X116269002Y-116444516D01*
X116417879Y-116803936D01*
X116692966Y-117079023D01*
X117052386Y-117227900D01*
X117441418Y-117227900D01*
X117675254Y-117131042D01*
X117822100Y-117277889D01*
X117822100Y-117444516D01*
X117970977Y-117803936D01*
X118246064Y-118079023D01*
X118605484Y-118227900D01*
X118994516Y-118227900D01*
X119353936Y-118079023D01*
X119629023Y-117803936D01*
X119777900Y-117444516D01*
X119777900Y-117055484D01*
X119629023Y-116696064D01*
X119353936Y-116420977D01*
X118994516Y-116272100D01*
X118827889Y-116272100D01*
X118352424Y-115796636D01*
X118312746Y-115737254D01*
X118077496Y-115580064D01*
X117930732Y-115550871D01*
X117800838Y-115420977D01*
X117441418Y-115272100D01*
X117052386Y-115272100D01*
X116692966Y-115420977D01*
X116417879Y-115696064D01*
X116269002Y-116055484D01*
X113644133Y-116055484D01*
X113787822Y-115995966D01*
X114062909Y-115720879D01*
X114211786Y-115361459D01*
X114211786Y-114972427D01*
X114062909Y-114613007D01*
X113995886Y-114545984D01*
X113995886Y-112558933D01*
X114010814Y-112483886D01*
X113991412Y-112386347D01*
X113951674Y-112186569D01*
X113783257Y-111934515D01*
X113719635Y-111892004D01*
X109899230Y-108071600D01*
X109856718Y-108007976D01*
X109604664Y-107839559D01*
X109382395Y-107795347D01*
X109382390Y-107795347D01*
X109307347Y-107780420D01*
X109232304Y-107795347D01*
X101558387Y-107795347D01*
X101491364Y-107728324D01*
X101131944Y-107579447D01*
X100742912Y-107579447D01*
X100383492Y-107728324D01*
X100262000Y-107849816D01*
X100262000Y-106120959D01*
X100329023Y-106053936D01*
X100477900Y-105694516D01*
X100477900Y-105305484D01*
X100329023Y-104946064D01*
X100053936Y-104670977D01*
X99694516Y-104522100D01*
X99305484Y-104522100D01*
X98946064Y-104670977D01*
X98670977Y-104946064D01*
X98522100Y-105305484D01*
X98522100Y-105694516D01*
X98670977Y-106053936D01*
X98738001Y-106120960D01*
X98738000Y-109424957D01*
X98723073Y-109500000D01*
X98738000Y-109575043D01*
X98738000Y-109575047D01*
X98782212Y-109797316D01*
X98950629Y-110049371D01*
X99014253Y-110091883D01*
X100088001Y-111165632D01*
X100088000Y-138160369D01*
X97762000Y-135834370D01*
X97762000Y-107620959D01*
X97829023Y-107553936D01*
X97977900Y-107194516D01*
X97977900Y-106805484D01*
X97829023Y-106446064D01*
X97553936Y-106170977D01*
X97194516Y-106022100D01*
X96805484Y-106022100D01*
X96446064Y-106170977D01*
X96170977Y-106446064D01*
X96022100Y-106805484D01*
X89683115Y-106805484D01*
X89027900Y-106150270D01*
X89027900Y-106055484D01*
X88879023Y-105696064D01*
X88603936Y-105420977D01*
X88244516Y-105272100D01*
X87855484Y-105272100D01*
X87496064Y-105420977D01*
X87220977Y-105696064D01*
X87111864Y-105959484D01*
X87034310Y-105881930D01*
X87034310Y-87542899D01*
X90030174Y-87542899D01*
X90045101Y-87617942D01*
X90045102Y-95362053D01*
X90030174Y-95437101D01*
X90089314Y-95734418D01*
X90177854Y-95866927D01*
X90257731Y-95986472D01*
X90321352Y-96028982D01*
X91558321Y-97265952D01*
X91485908Y-97630000D01*
X91601161Y-98209418D01*
X91929375Y-98700625D01*
X92227761Y-98900000D01*
X91929375Y-99099375D01*
X91601161Y-99590582D01*
X91485908Y-100170000D01*
X91601161Y-100749418D01*
X91929375Y-101240625D01*
X92227761Y-101440000D01*
X91929375Y-101639375D01*
X91601161Y-102130582D01*
X91485908Y-102710000D01*
X91601161Y-103289418D01*
X91929375Y-103780625D01*
X92420582Y-104108839D01*
X92853744Y-104195000D01*
X93146256Y-104195000D01*
X93579418Y-104108839D01*
X94070625Y-103780625D01*
X94398839Y-103289418D01*
X94514092Y-102710000D01*
X94467925Y-102477900D01*
X94694516Y-102477900D01*
X95053936Y-102329023D01*
X95329023Y-102053936D01*
X95477900Y-101694516D01*
X95477900Y-101305484D01*
X95329023Y-100946064D01*
X95053936Y-100670977D01*
X94694516Y-100522100D01*
X94444055Y-100522100D01*
X94514092Y-100170000D01*
X94398839Y-99590582D01*
X94070625Y-99099375D01*
X93772239Y-98900000D01*
X94070625Y-98700625D01*
X94398839Y-98209418D01*
X94514092Y-97630000D01*
X94398839Y-97050582D01*
X94070625Y-96559375D01*
X93772239Y-96360000D01*
X94070625Y-96160625D01*
X94398839Y-95669418D01*
X94514092Y-95090000D01*
X94398839Y-94510582D01*
X94070625Y-94019375D01*
X93579418Y-93691161D01*
X93146256Y-93605000D01*
X92853744Y-93605000D01*
X92635951Y-93648321D01*
X92632599Y-93644969D01*
X92632599Y-91295031D01*
X94999201Y-88928430D01*
X95032213Y-89094395D01*
X95200630Y-89346449D01*
X95264251Y-89388959D01*
X97667401Y-91792110D01*
X97667402Y-93644968D01*
X97664253Y-93648117D01*
X97664250Y-93648119D01*
X97664048Y-93648321D01*
X97446256Y-93605000D01*
X97153744Y-93605000D01*
X96720582Y-93691161D01*
X96229375Y-94019375D01*
X95901161Y-94510582D01*
X95785908Y-95090000D01*
X95901161Y-95669418D01*
X96229375Y-96160625D01*
X96527761Y-96360000D01*
X96229375Y-96559375D01*
X95901161Y-97050582D01*
X95785908Y-97630000D01*
X95901161Y-98209418D01*
X96229375Y-98700625D01*
X96527761Y-98900000D01*
X96229375Y-99099375D01*
X95901161Y-99590582D01*
X95785908Y-100170000D01*
X95901161Y-100749418D01*
X96229375Y-101240625D01*
X96527761Y-101440000D01*
X96229375Y-101639375D01*
X95901161Y-102130582D01*
X95785908Y-102710000D01*
X95901161Y-103289418D01*
X96229375Y-103780625D01*
X96720582Y-104108839D01*
X96974259Y-104159298D01*
X96946064Y-104170977D01*
X96670977Y-104446064D01*
X96522100Y-104805484D01*
X96522100Y-105194516D01*
X96670977Y-105553936D01*
X96946064Y-105829023D01*
X97305484Y-105977900D01*
X97694516Y-105977900D01*
X98053936Y-105829023D01*
X98329023Y-105553936D01*
X98477900Y-105194516D01*
X98477900Y-105099730D01*
X98915148Y-104662482D01*
X98978772Y-104619970D01*
X99147189Y-104367916D01*
X99191401Y-104145647D01*
X99191401Y-104145643D01*
X99206328Y-104070600D01*
X99191401Y-103995557D01*
X99191401Y-101450000D01*
X125952560Y-101450000D01*
X125952560Y-103450000D01*
X126001843Y-103697765D01*
X126142191Y-103907809D01*
X126352235Y-104048157D01*
X126600000Y-104097440D01*
X128600000Y-104097440D01*
X128847765Y-104048157D01*
X129057809Y-103907809D01*
X129198157Y-103697765D01*
X129247440Y-103450000D01*
X129247440Y-101450000D01*
X129198157Y-101202235D01*
X129057809Y-100992191D01*
X128847765Y-100851843D01*
X128600000Y-100802560D01*
X126600000Y-100802560D01*
X126352235Y-100851843D01*
X126142191Y-100992191D01*
X126001843Y-101202235D01*
X125952560Y-101450000D01*
X99191401Y-101450000D01*
X99191401Y-101374443D01*
X99206328Y-101299400D01*
X99191401Y-101224357D01*
X99191401Y-101224353D01*
X99147189Y-101002084D01*
X98978772Y-100750030D01*
X98915147Y-100707517D01*
X98741883Y-100534253D01*
X98741881Y-100534250D01*
X98741679Y-100534048D01*
X98814092Y-100170000D01*
X98698839Y-99590582D01*
X98370625Y-99099375D01*
X98072239Y-98900000D01*
X98370625Y-98700625D01*
X98698839Y-98209418D01*
X98814092Y-97630000D01*
X98778289Y-97450000D01*
X111652560Y-97450000D01*
X111652560Y-99850000D01*
X111701843Y-100097765D01*
X111842191Y-100307809D01*
X112052235Y-100448157D01*
X112300000Y-100497440D01*
X114700000Y-100497440D01*
X114947765Y-100448157D01*
X115157809Y-100307809D01*
X115298157Y-100097765D01*
X115347440Y-99850000D01*
X115347440Y-97450000D01*
X115298157Y-97202235D01*
X115157809Y-96992191D01*
X114947765Y-96851843D01*
X114700000Y-96802560D01*
X112300000Y-96802560D01*
X112052235Y-96851843D01*
X111842191Y-96992191D01*
X111701843Y-97202235D01*
X111652560Y-97450000D01*
X98778289Y-97450000D01*
X98741679Y-97265952D01*
X99321562Y-96686069D01*
X99385183Y-96643559D01*
X99553600Y-96391505D01*
X99597812Y-96169236D01*
X99597812Y-96169232D01*
X99612739Y-96094189D01*
X99597812Y-96019146D01*
X99597812Y-85626540D01*
X99612739Y-85551497D01*
X99597812Y-85476454D01*
X99597812Y-85476449D01*
X99553600Y-85254180D01*
X99385183Y-85002126D01*
X99321561Y-84959615D01*
X97847484Y-83485539D01*
X97847484Y-83390753D01*
X97698607Y-83031333D01*
X97423520Y-82756246D01*
X97064100Y-82607369D01*
X96675068Y-82607369D01*
X96512000Y-82674914D01*
X96512000Y-78755484D01*
X99672100Y-78755484D01*
X99672100Y-79144516D01*
X99820977Y-79503936D01*
X99924737Y-79607696D01*
X99822100Y-79855484D01*
X99822100Y-80244516D01*
X99970977Y-80603936D01*
X100246064Y-80879023D01*
X100605484Y-81027900D01*
X100994516Y-81027900D01*
X101353936Y-80879023D01*
X101570959Y-80662000D01*
X108684370Y-80662000D01*
X110380900Y-82358531D01*
X110380899Y-83865126D01*
X110246064Y-83920977D01*
X109970977Y-84196064D01*
X109822100Y-84555484D01*
X109822100Y-84944516D01*
X109970977Y-85303936D01*
X110246064Y-85579023D01*
X110605484Y-85727900D01*
X110994516Y-85727900D01*
X111353936Y-85579023D01*
X111629023Y-85303936D01*
X111777900Y-84944516D01*
X111777900Y-84828318D01*
X111860687Y-84704418D01*
X111904899Y-84482149D01*
X111904899Y-84482145D01*
X111919826Y-84407102D01*
X111904899Y-84332059D01*
X111904899Y-83082530D01*
X112471887Y-83649518D01*
X112471886Y-84545984D01*
X112404863Y-84613007D01*
X112255986Y-84972427D01*
X112255986Y-85361459D01*
X112404863Y-85720879D01*
X112679950Y-85995966D01*
X113039370Y-86144843D01*
X113428402Y-86144843D01*
X113644133Y-86055484D01*
X116269002Y-86055484D01*
X116269002Y-86444516D01*
X116417879Y-86803936D01*
X116692966Y-87079023D01*
X117052386Y-87227900D01*
X117441418Y-87227900D01*
X117675254Y-87131042D01*
X117822100Y-87277889D01*
X117822100Y-87444516D01*
X117970977Y-87803936D01*
X118246064Y-88079023D01*
X118605484Y-88227900D01*
X118994516Y-88227900D01*
X119353936Y-88079023D01*
X119629023Y-87803936D01*
X119777900Y-87444516D01*
X119777900Y-87055484D01*
X119629023Y-86696064D01*
X119353936Y-86420977D01*
X118994516Y-86272100D01*
X118827889Y-86272100D01*
X118352424Y-85796636D01*
X118312746Y-85737254D01*
X118077496Y-85580064D01*
X117930732Y-85550871D01*
X117800838Y-85420977D01*
X117441418Y-85272100D01*
X117052386Y-85272100D01*
X116692966Y-85420977D01*
X116417879Y-85696064D01*
X116269002Y-86055484D01*
X113644133Y-86055484D01*
X113787822Y-85995966D01*
X114062909Y-85720879D01*
X114211786Y-85361459D01*
X114211786Y-84972427D01*
X114062909Y-84613007D01*
X113995886Y-84545984D01*
X113995886Y-83408933D01*
X114010814Y-83333886D01*
X113986247Y-83210381D01*
X113951674Y-83036569D01*
X113783257Y-82784515D01*
X113719635Y-82742004D01*
X109541883Y-78564253D01*
X109499371Y-78500629D01*
X109247317Y-78332212D01*
X109025048Y-78288000D01*
X109025043Y-78288000D01*
X108950000Y-78273073D01*
X108874957Y-78288000D01*
X101370959Y-78288000D01*
X101203936Y-78120977D01*
X100844516Y-77972100D01*
X100455484Y-77972100D01*
X100096064Y-78120977D01*
X99820977Y-78396064D01*
X99672100Y-78755484D01*
X96512000Y-78755484D01*
X96512000Y-71450000D01*
X125952560Y-71450000D01*
X125952560Y-73450000D01*
X126001843Y-73697765D01*
X126142191Y-73907809D01*
X126352235Y-74048157D01*
X126600000Y-74097440D01*
X128600000Y-74097440D01*
X128847765Y-74048157D01*
X129057809Y-73907809D01*
X129198157Y-73697765D01*
X129247440Y-73450000D01*
X129247440Y-71450000D01*
X129198157Y-71202235D01*
X129057809Y-70992191D01*
X128847765Y-70851843D01*
X128600000Y-70802560D01*
X126600000Y-70802560D01*
X126352235Y-70851843D01*
X126142191Y-70992191D01*
X126001843Y-71202235D01*
X125952560Y-71450000D01*
X96512000Y-71450000D01*
X96512000Y-68220959D01*
X96579023Y-68153936D01*
X96727900Y-67794516D01*
X96727900Y-67450000D01*
X111652560Y-67450000D01*
X111652560Y-69850000D01*
X111701843Y-70097765D01*
X111842191Y-70307809D01*
X112052235Y-70448157D01*
X112300000Y-70497440D01*
X114700000Y-70497440D01*
X114947765Y-70448157D01*
X115157809Y-70307809D01*
X115298157Y-70097765D01*
X115347440Y-69850000D01*
X115347440Y-67450000D01*
X115298157Y-67202235D01*
X115157809Y-66992191D01*
X114947765Y-66851843D01*
X114700000Y-66802560D01*
X112300000Y-66802560D01*
X112052235Y-66851843D01*
X111842191Y-66992191D01*
X111701843Y-67202235D01*
X111652560Y-67450000D01*
X96727900Y-67450000D01*
X96727900Y-67405484D01*
X96579023Y-67046064D01*
X96303936Y-66770977D01*
X95944516Y-66622100D01*
X95555484Y-66622100D01*
X95343052Y-66710093D01*
X95303936Y-66670977D01*
X94944516Y-66522100D01*
X94555484Y-66522100D01*
X94196064Y-66670977D01*
X93920977Y-66946064D01*
X93772100Y-67305484D01*
X93772100Y-67694516D01*
X93920977Y-68053936D01*
X93988000Y-68120959D01*
X93988001Y-87784368D01*
X91569101Y-90203269D01*
X91569101Y-88084874D01*
X91703936Y-88029023D01*
X91979023Y-87753936D01*
X92127900Y-87394516D01*
X92127900Y-87005484D01*
X91979023Y-86646064D01*
X91703936Y-86370977D01*
X91344516Y-86222100D01*
X90955484Y-86222100D01*
X90596064Y-86370977D01*
X90320977Y-86646064D01*
X90172100Y-87005484D01*
X90172100Y-87121683D01*
X90089313Y-87245583D01*
X90045101Y-87467852D01*
X90045101Y-87467856D01*
X90030174Y-87542899D01*
X87034310Y-87542899D01*
X87034310Y-81635846D01*
X87101333Y-81568823D01*
X87250210Y-81209403D01*
X87250210Y-80820371D01*
X87101333Y-80460951D01*
X86826246Y-80185864D01*
X86466826Y-80036987D01*
X86077794Y-80036987D01*
X85718374Y-80185864D01*
X85443287Y-80460951D01*
X85354265Y-80675869D01*
X85222206Y-80621168D01*
X84833174Y-80621168D01*
X84473754Y-80770045D01*
X84198667Y-81045132D01*
X84049790Y-81404552D01*
X84049790Y-81793584D01*
X84198667Y-82153004D01*
X84338001Y-82292338D01*
X84338000Y-105181533D01*
X84194516Y-105122100D01*
X83805484Y-105122100D01*
X83446064Y-105270977D01*
X83170977Y-105546064D01*
X83022100Y-105905484D01*
X83022100Y-106021683D01*
X82939313Y-106145583D01*
X82895101Y-106367852D01*
X82895101Y-106367856D01*
X82880174Y-106442899D01*
X82895101Y-106517942D01*
X82895102Y-111612053D01*
X82880174Y-111687101D01*
X82939314Y-111984418D01*
X82989399Y-112059375D01*
X83107731Y-112236472D01*
X83171352Y-112278982D01*
X83658321Y-112765952D01*
X83585908Y-113130000D01*
X83701161Y-113709418D01*
X84029375Y-114200625D01*
X84327761Y-114400000D01*
X84029375Y-114599375D01*
X83701161Y-115090582D01*
X83585908Y-115670000D01*
X83658321Y-116034048D01*
X83314251Y-116378119D01*
X83250630Y-116420629D01*
X83208119Y-116484251D01*
X83208118Y-116484252D01*
X83082213Y-116672683D01*
X83023073Y-116970000D01*
X83038001Y-117045048D01*
X83038000Y-130479041D01*
X82970977Y-130546064D01*
X82822100Y-130905484D01*
X82822100Y-131294516D01*
X82970977Y-131653936D01*
X83244705Y-131927664D01*
X80534370Y-134638000D01*
X73015631Y-134638000D01*
X71562000Y-133184370D01*
X71562000Y-131420959D01*
X71629023Y-131353936D01*
X71777900Y-130994516D01*
X71777900Y-130605484D01*
X71629023Y-130246064D01*
X71353936Y-129970977D01*
X70994516Y-129822100D01*
X70605484Y-129822100D01*
X70246064Y-129970977D01*
X69970977Y-130246064D01*
X69822100Y-130605484D01*
X69822100Y-130994516D01*
X69970977Y-131353936D01*
X70038000Y-131420959D01*
X70038001Y-132860370D01*
X69128114Y-131950484D01*
X69128114Y-131004016D01*
X69195137Y-130936993D01*
X69344014Y-130577573D01*
X69344014Y-130188541D01*
X69195137Y-129829121D01*
X68920050Y-129554034D01*
X68560630Y-129405157D01*
X68171598Y-129405157D01*
X67812178Y-129554034D01*
X67537091Y-129829121D01*
X67388214Y-130188541D01*
X64763345Y-130188541D01*
X64907034Y-130129023D01*
X65182121Y-129853936D01*
X65330998Y-129494516D01*
X65330998Y-129105484D01*
X65182121Y-128746064D01*
X64907034Y-128470977D01*
X64547614Y-128322100D01*
X64158582Y-128322100D01*
X63924747Y-128418958D01*
X63777900Y-128272112D01*
X63777900Y-128105484D01*
X63629023Y-127746064D01*
X63353936Y-127470977D01*
X62994516Y-127322100D01*
X62605484Y-127322100D01*
X62246064Y-127470977D01*
X61970977Y-127746064D01*
X61822100Y-128105484D01*
X34711200Y-128105484D01*
X34711200Y-115700000D01*
X66252560Y-115700000D01*
X66252560Y-118100000D01*
X66301843Y-118347765D01*
X66442191Y-118557809D01*
X66652235Y-118698157D01*
X66900000Y-118747440D01*
X69300000Y-118747440D01*
X69547765Y-118698157D01*
X69757809Y-118557809D01*
X69898157Y-118347765D01*
X69947440Y-118100000D01*
X69947440Y-115700000D01*
X69898157Y-115452235D01*
X69757809Y-115242191D01*
X69547765Y-115101843D01*
X69300000Y-115052560D01*
X66900000Y-115052560D01*
X66652235Y-115101843D01*
X66442191Y-115242191D01*
X66301843Y-115452235D01*
X66252560Y-115700000D01*
X34711200Y-115700000D01*
X34711200Y-112100000D01*
X52352560Y-112100000D01*
X52352560Y-114100000D01*
X52401843Y-114347765D01*
X52542191Y-114557809D01*
X52752235Y-114698157D01*
X53000000Y-114747440D01*
X55000000Y-114747440D01*
X55247765Y-114698157D01*
X55457809Y-114557809D01*
X55598157Y-114347765D01*
X55647440Y-114100000D01*
X55647440Y-112100000D01*
X55598157Y-111852235D01*
X55457809Y-111642191D01*
X55247765Y-111501843D01*
X55000000Y-111452560D01*
X53000000Y-111452560D01*
X52752235Y-111501843D01*
X52542191Y-111642191D01*
X52401843Y-111852235D01*
X52352560Y-112100000D01*
X34711200Y-112100000D01*
X34711200Y-98105484D01*
X61822100Y-98105484D01*
X61822100Y-98494516D01*
X61970977Y-98853936D01*
X62246064Y-99129023D01*
X62605484Y-99277900D01*
X62772112Y-99277900D01*
X63247578Y-99753367D01*
X63287254Y-99812746D01*
X63346633Y-99852422D01*
X63346635Y-99852424D01*
X63462336Y-99929733D01*
X63522504Y-99969936D01*
X63669268Y-99999129D01*
X63799162Y-100129023D01*
X64158582Y-100277900D01*
X64547614Y-100277900D01*
X64763345Y-100188541D01*
X67388214Y-100188541D01*
X67388214Y-100577573D01*
X67537091Y-100936993D01*
X67619255Y-101019157D01*
X67648326Y-101165307D01*
X67816744Y-101417361D01*
X67880365Y-101459871D01*
X72656242Y-106235749D01*
X72698753Y-106299371D01*
X72950807Y-106467788D01*
X73173076Y-106512000D01*
X73173077Y-106512000D01*
X73248124Y-106526928D01*
X73323171Y-106512000D01*
X78829041Y-106512000D01*
X78896064Y-106579023D01*
X79255484Y-106727900D01*
X79644516Y-106727900D01*
X80003936Y-106579023D01*
X80279023Y-106303936D01*
X80427900Y-105944516D01*
X80427900Y-105789807D01*
X80453936Y-105779023D01*
X80729023Y-105503936D01*
X80877900Y-105144516D01*
X80877900Y-104755484D01*
X80729023Y-104396064D01*
X80453936Y-104120977D01*
X80094516Y-103972100D01*
X79705484Y-103972100D01*
X79346064Y-104120977D01*
X79279041Y-104188000D01*
X73482191Y-104188000D01*
X71562000Y-102267810D01*
X71562000Y-101420959D01*
X71629023Y-101353936D01*
X71777900Y-100994516D01*
X71777900Y-100605484D01*
X71629023Y-100246064D01*
X71353936Y-99970977D01*
X70994516Y-99822100D01*
X70605484Y-99822100D01*
X70246064Y-99970977D01*
X69970977Y-100246064D01*
X69822100Y-100605484D01*
X69822100Y-100994516D01*
X69970977Y-101353936D01*
X70038000Y-101420959D01*
X70038000Y-101462246D01*
X69288163Y-100712409D01*
X69344014Y-100577573D01*
X69344014Y-100188541D01*
X69195137Y-99829121D01*
X68920050Y-99554034D01*
X68560630Y-99405157D01*
X68171598Y-99405157D01*
X67812178Y-99554034D01*
X67537091Y-99829121D01*
X67388214Y-100188541D01*
X64763345Y-100188541D01*
X64907034Y-100129023D01*
X65182121Y-99853936D01*
X65330998Y-99494516D01*
X65330998Y-99105484D01*
X65182121Y-98746064D01*
X64907034Y-98470977D01*
X64547614Y-98322100D01*
X64158582Y-98322100D01*
X63924747Y-98418958D01*
X63777900Y-98272112D01*
X63777900Y-98105484D01*
X63629023Y-97746064D01*
X63353936Y-97470977D01*
X62994516Y-97322100D01*
X62605484Y-97322100D01*
X62246064Y-97470977D01*
X61970977Y-97746064D01*
X61822100Y-98105484D01*
X34711200Y-98105484D01*
X34711200Y-85700000D01*
X66252560Y-85700000D01*
X66252560Y-88100000D01*
X66301843Y-88347765D01*
X66442191Y-88557809D01*
X66652235Y-88698157D01*
X66900000Y-88747440D01*
X69300000Y-88747440D01*
X69547765Y-88698157D01*
X69757809Y-88557809D01*
X69898157Y-88347765D01*
X69947440Y-88100000D01*
X69947440Y-85700000D01*
X69898157Y-85452235D01*
X69757809Y-85242191D01*
X69547765Y-85101843D01*
X69300000Y-85052560D01*
X66900000Y-85052560D01*
X66652235Y-85101843D01*
X66442191Y-85242191D01*
X66301843Y-85452235D01*
X66252560Y-85700000D01*
X34711200Y-85700000D01*
X34711200Y-82100000D01*
X52352560Y-82100000D01*
X52352560Y-84100000D01*
X52401843Y-84347765D01*
X52542191Y-84557809D01*
X52752235Y-84698157D01*
X53000000Y-84747440D01*
X55000000Y-84747440D01*
X55247765Y-84698157D01*
X55457809Y-84557809D01*
X55598157Y-84347765D01*
X55647440Y-84100000D01*
X55647440Y-82100000D01*
X55598157Y-81852235D01*
X55457809Y-81642191D01*
X55247765Y-81501843D01*
X55000000Y-81452560D01*
X53000000Y-81452560D01*
X52752235Y-81501843D01*
X52542191Y-81642191D01*
X52401843Y-81852235D01*
X52352560Y-82100000D01*
X34711200Y-82100000D01*
X34711200Y-68105484D01*
X61822100Y-68105484D01*
X61822100Y-68494516D01*
X61970977Y-68853936D01*
X62246064Y-69129023D01*
X62605484Y-69277900D01*
X62772112Y-69277900D01*
X63247578Y-69753367D01*
X63287254Y-69812746D01*
X63346633Y-69852422D01*
X63346635Y-69852424D01*
X63462336Y-69929733D01*
X63522504Y-69969936D01*
X63669268Y-69999129D01*
X63799162Y-70129023D01*
X64158582Y-70277900D01*
X64547614Y-70277900D01*
X64763345Y-70188541D01*
X67388214Y-70188541D01*
X67388214Y-70577573D01*
X67537091Y-70936993D01*
X67604114Y-71004016D01*
X67604115Y-72491066D01*
X67589187Y-72566114D01*
X67604115Y-72641162D01*
X67648327Y-72863431D01*
X67816744Y-73115485D01*
X67880365Y-73157995D01*
X71358117Y-76635748D01*
X71400629Y-76699371D01*
X71464251Y-76741882D01*
X71652681Y-76867787D01*
X71652682Y-76867787D01*
X71652683Y-76867788D01*
X71874952Y-76912000D01*
X71874956Y-76912000D01*
X71949999Y-76926927D01*
X72025042Y-76912000D01*
X80341474Y-76912000D01*
X80420977Y-77103936D01*
X80696064Y-77379023D01*
X81055484Y-77527900D01*
X81444516Y-77527900D01*
X81803936Y-77379023D01*
X82079023Y-77103936D01*
X82227900Y-76744516D01*
X82227900Y-76355484D01*
X82079023Y-75996064D01*
X81803936Y-75720977D01*
X81754680Y-75700574D01*
X81777900Y-75644516D01*
X81777900Y-75255484D01*
X81629023Y-74896064D01*
X81353936Y-74620977D01*
X80994516Y-74472100D01*
X80605484Y-74472100D01*
X80246064Y-74620977D01*
X80179041Y-74688000D01*
X72515631Y-74688000D01*
X71562000Y-73734370D01*
X71562000Y-71420959D01*
X71629023Y-71353936D01*
X71777900Y-70994516D01*
X71777900Y-70605484D01*
X71629023Y-70246064D01*
X71353936Y-69970977D01*
X70994516Y-69822100D01*
X70605484Y-69822100D01*
X70246064Y-69970977D01*
X69970977Y-70246064D01*
X69822100Y-70605484D01*
X69822100Y-70994516D01*
X69970977Y-71353936D01*
X70038000Y-71420959D01*
X70038001Y-73160370D01*
X69128114Y-72250484D01*
X69128114Y-71004016D01*
X69195137Y-70936993D01*
X69344014Y-70577573D01*
X69344014Y-70188541D01*
X69195137Y-69829121D01*
X68920050Y-69554034D01*
X68560630Y-69405157D01*
X68171598Y-69405157D01*
X67812178Y-69554034D01*
X67537091Y-69829121D01*
X67388214Y-70188541D01*
X64763345Y-70188541D01*
X64907034Y-70129023D01*
X65182121Y-69853936D01*
X65330998Y-69494516D01*
X65330998Y-69105484D01*
X65182121Y-68746064D01*
X64907034Y-68470977D01*
X64547614Y-68322100D01*
X64158582Y-68322100D01*
X63924747Y-68418958D01*
X63777900Y-68272112D01*
X63777900Y-68105484D01*
X63629023Y-67746064D01*
X63353936Y-67470977D01*
X62994516Y-67322100D01*
X62605484Y-67322100D01*
X62246064Y-67470977D01*
X61970977Y-67746064D01*
X61822100Y-68105484D01*
X34711200Y-68105484D01*
X34711200Y-54319455D01*
X36065000Y-54319455D01*
X36065000Y-56680545D01*
X36968550Y-58861908D01*
X38638092Y-60531450D01*
X40819455Y-61435000D01*
X43180545Y-61435000D01*
X45361908Y-60531450D01*
X47031450Y-58861908D01*
X47935000Y-56680545D01*
X47935000Y-55700000D01*
X66252560Y-55700000D01*
X66252560Y-58100000D01*
X66301843Y-58347765D01*
X66442191Y-58557809D01*
X66652235Y-58698157D01*
X66900000Y-58747440D01*
X69300000Y-58747440D01*
X69547765Y-58698157D01*
X69757809Y-58557809D01*
X69898157Y-58347765D01*
X69947440Y-58100000D01*
X69947440Y-55700000D01*
X69898157Y-55452235D01*
X69757809Y-55242191D01*
X69547765Y-55101843D01*
X69300000Y-55052560D01*
X66900000Y-55052560D01*
X66652235Y-55101843D01*
X66442191Y-55242191D01*
X66301843Y-55452235D01*
X66252560Y-55700000D01*
X47935000Y-55700000D01*
X47935000Y-54319455D01*
X47031450Y-52138092D01*
X46993358Y-52100000D01*
X52352560Y-52100000D01*
X52352560Y-54100000D01*
X52401843Y-54347765D01*
X52542191Y-54557809D01*
X52752235Y-54698157D01*
X53000000Y-54747440D01*
X55000000Y-54747440D01*
X55247765Y-54698157D01*
X55457809Y-54557809D01*
X55598157Y-54347765D01*
X55647440Y-54100000D01*
X55647440Y-52305484D01*
X109822100Y-52305484D01*
X109822100Y-52694516D01*
X109970977Y-53053936D01*
X110038001Y-53120960D01*
X110038000Y-54129041D01*
X109970977Y-54196064D01*
X109822100Y-54555484D01*
X109822100Y-54944516D01*
X109970977Y-55303936D01*
X110246064Y-55579023D01*
X110605484Y-55727900D01*
X110994516Y-55727900D01*
X111353936Y-55579023D01*
X111629023Y-55303936D01*
X111777900Y-54944516D01*
X111777900Y-54555484D01*
X111629023Y-54196064D01*
X111562000Y-54129041D01*
X111562000Y-53120959D01*
X111629023Y-53053936D01*
X111777900Y-52694516D01*
X111777900Y-52305484D01*
X111629023Y-51946064D01*
X111353936Y-51670977D01*
X110994516Y-51522100D01*
X110605484Y-51522100D01*
X110246064Y-51670977D01*
X109970977Y-51946064D01*
X109822100Y-52305484D01*
X55647440Y-52305484D01*
X55647440Y-52100000D01*
X55598157Y-51852235D01*
X55457809Y-51642191D01*
X55247765Y-51501843D01*
X55000000Y-51452560D01*
X53000000Y-51452560D01*
X52752235Y-51501843D01*
X52542191Y-51642191D01*
X52401843Y-51852235D01*
X52352560Y-52100000D01*
X46993358Y-52100000D01*
X45361908Y-50468550D01*
X45263515Y-50427794D01*
X110522100Y-50427794D01*
X110522100Y-50816826D01*
X110670977Y-51176246D01*
X110946064Y-51451333D01*
X111305484Y-51600210D01*
X111400270Y-51600210D01*
X112471887Y-52671828D01*
X112471886Y-54545984D01*
X112404863Y-54613007D01*
X112255986Y-54972427D01*
X112255986Y-55361459D01*
X112404863Y-55720879D01*
X112679950Y-55995966D01*
X113039370Y-56144843D01*
X113428402Y-56144843D01*
X113644133Y-56055484D01*
X116269002Y-56055484D01*
X116269002Y-56444516D01*
X116417879Y-56803936D01*
X116692966Y-57079023D01*
X117052386Y-57227900D01*
X117441418Y-57227900D01*
X117675254Y-57131042D01*
X117822100Y-57277889D01*
X117822100Y-57444516D01*
X117970977Y-57803936D01*
X118246064Y-58079023D01*
X118605484Y-58227900D01*
X118994516Y-58227900D01*
X119353936Y-58079023D01*
X119629023Y-57803936D01*
X119777900Y-57444516D01*
X119777900Y-57055484D01*
X119629023Y-56696064D01*
X119353936Y-56420977D01*
X118994516Y-56272100D01*
X118827889Y-56272100D01*
X118352424Y-55796636D01*
X118312746Y-55737254D01*
X118077496Y-55580064D01*
X117930732Y-55550871D01*
X117800838Y-55420977D01*
X117441418Y-55272100D01*
X117052386Y-55272100D01*
X116692966Y-55420977D01*
X116417879Y-55696064D01*
X116269002Y-56055484D01*
X113644133Y-56055484D01*
X113787822Y-55995966D01*
X114062909Y-55720879D01*
X114211786Y-55361459D01*
X114211786Y-54972427D01*
X114062909Y-54613007D01*
X113995886Y-54545984D01*
X113995886Y-54069455D01*
X133315000Y-54069455D01*
X133315000Y-56430545D01*
X134218550Y-58611908D01*
X135888092Y-60281450D01*
X138069455Y-61185000D01*
X140430545Y-61185000D01*
X142611908Y-60281450D01*
X144281450Y-58611908D01*
X145185000Y-56430545D01*
X145185000Y-54069455D01*
X144281450Y-51888092D01*
X142611908Y-50218550D01*
X140430545Y-49315000D01*
X138069455Y-49315000D01*
X135888092Y-50218550D01*
X134218550Y-51888092D01*
X133315000Y-54069455D01*
X113995886Y-54069455D01*
X113995886Y-52431243D01*
X114010814Y-52356196D01*
X113959853Y-52100000D01*
X113951674Y-52058879D01*
X113783257Y-51806825D01*
X113719635Y-51764314D01*
X112477900Y-50522580D01*
X112477900Y-50427794D01*
X112329023Y-50068374D01*
X112053936Y-49793287D01*
X111694516Y-49644410D01*
X111305484Y-49644410D01*
X110946064Y-49793287D01*
X110670977Y-50068374D01*
X110522100Y-50427794D01*
X45263515Y-50427794D01*
X43180545Y-49565000D01*
X40819455Y-49565000D01*
X38638092Y-50468550D01*
X36968550Y-52138092D01*
X36065000Y-54319455D01*
X34711200Y-54319455D01*
X34711200Y-50044745D01*
X34772873Y-49556548D01*
X34937415Y-49140963D01*
X35200142Y-48779351D01*
X35544542Y-48494438D01*
X35948974Y-48304127D01*
X36421311Y-48214024D01*
X36511169Y-48211200D01*
X144955255Y-48211200D01*
X145443452Y-48272873D01*
G36*
X88301490Y-109304371D02*
X88129375Y-109419375D01*
X87801161Y-109910582D01*
X87685908Y-110490000D01*
X87801161Y-111069418D01*
X88129375Y-111560625D01*
X88427761Y-111760000D01*
X88129375Y-111959375D01*
X87801161Y-112450582D01*
X87685908Y-113030000D01*
X87801161Y-113609418D01*
X88129375Y-114100625D01*
X88427761Y-114300000D01*
X88129375Y-114499375D01*
X87801161Y-114990582D01*
X87685908Y-115570000D01*
X87801161Y-116149418D01*
X88129375Y-116640625D01*
X88427761Y-116840000D01*
X88129375Y-117039375D01*
X87801161Y-117530582D01*
X87685908Y-118110000D01*
X87801161Y-118689418D01*
X88129375Y-119180625D01*
X88620582Y-119508839D01*
X89053744Y-119595000D01*
X89346256Y-119595000D01*
X89567401Y-119551012D01*
X89567401Y-121407890D01*
X88737292Y-122238000D01*
X87725043Y-122238000D01*
X87650000Y-122223073D01*
X87574957Y-122238000D01*
X87574952Y-122238000D01*
X87352683Y-122282212D01*
X87100629Y-122450629D01*
X87058118Y-122514251D01*
X84562000Y-125010370D01*
X84562000Y-119617078D01*
X84953744Y-119695000D01*
X85246256Y-119695000D01*
X85679418Y-119608839D01*
X86170625Y-119280625D01*
X86498839Y-118789418D01*
X86614092Y-118210000D01*
X86498839Y-117630582D01*
X86170625Y-117139375D01*
X85872239Y-116940000D01*
X86170625Y-116740625D01*
X86498839Y-116249418D01*
X86614092Y-115670000D01*
X86498839Y-115090582D01*
X86170625Y-114599375D01*
X85872239Y-114400000D01*
X86170625Y-114200625D01*
X86498839Y-113709418D01*
X86614092Y-113130000D01*
X86498839Y-112550582D01*
X86170625Y-112059375D01*
X85872239Y-111860000D01*
X86170625Y-111660625D01*
X86498839Y-111169418D01*
X86614092Y-110590000D01*
X86498839Y-110010582D01*
X86170625Y-109519375D01*
X85862000Y-109313158D01*
X85862000Y-106864880D01*
X88301490Y-109304371D01*
X88301490Y-109304371D01*
G37*
X88301490Y-109304371D02*
X88129375Y-109419375D01*
X87801161Y-109910582D01*
X87685908Y-110490000D01*
X87801161Y-111069418D01*
X88129375Y-111560625D01*
X88427761Y-111760000D01*
X88129375Y-111959375D01*
X87801161Y-112450582D01*
X87685908Y-113030000D01*
X87801161Y-113609418D01*
X88129375Y-114100625D01*
X88427761Y-114300000D01*
X88129375Y-114499375D01*
X87801161Y-114990582D01*
X87685908Y-115570000D01*
X87801161Y-116149418D01*
X88129375Y-116640625D01*
X88427761Y-116840000D01*
X88129375Y-117039375D01*
X87801161Y-117530582D01*
X87685908Y-118110000D01*
X87801161Y-118689418D01*
X88129375Y-119180625D01*
X88620582Y-119508839D01*
X89053744Y-119595000D01*
X89346256Y-119595000D01*
X89567401Y-119551012D01*
X89567401Y-121407890D01*
X88737292Y-122238000D01*
X87725043Y-122238000D01*
X87650000Y-122223073D01*
X87574957Y-122238000D01*
X87574952Y-122238000D01*
X87352683Y-122282212D01*
X87100629Y-122450629D01*
X87058118Y-122514251D01*
X84562000Y-125010370D01*
X84562000Y-119617078D01*
X84953744Y-119695000D01*
X85246256Y-119695000D01*
X85679418Y-119608839D01*
X86170625Y-119280625D01*
X86498839Y-118789418D01*
X86614092Y-118210000D01*
X86498839Y-117630582D01*
X86170625Y-117139375D01*
X85872239Y-116940000D01*
X86170625Y-116740625D01*
X86498839Y-116249418D01*
X86614092Y-115670000D01*
X86498839Y-115090582D01*
X86170625Y-114599375D01*
X85872239Y-114400000D01*
X86170625Y-114200625D01*
X86498839Y-113709418D01*
X86614092Y-113130000D01*
X86498839Y-112550582D01*
X86170625Y-112059375D01*
X85872239Y-111860000D01*
X86170625Y-111660625D01*
X86498839Y-111169418D01*
X86614092Y-110590000D01*
X86498839Y-110010582D01*
X86170625Y-109519375D01*
X85862000Y-109313158D01*
X85862000Y-106864880D01*
X88301490Y-109304371D01*
G04 #@! TD*
M02*
