G04 #@! TF.GenerationSoftware,KiCad,Pcbnew,5.0.0*
G04 #@! TF.CreationDate,2018-08-14T07:29:03-04:00*
G04 #@! TF.ProjectId,peripherals,7065726970686572616C732E6B696361,rev?*
G04 #@! TF.SameCoordinates,Original*
G04 #@! TF.FileFunction,Other,Fab,Bot*
%FSLAX46Y46*%
G04 Gerber Fmt 4.6, Leading zero omitted, Abs format (unit mm)*
G04 Created by KiCad (PCBNEW 5.0.0) date Tue Aug 14 07:29:03 2018*
%MOMM*%
%LPD*%
G01*
G04 APERTURE LIST*
%ADD10C,0.150000*%
G04 APERTURE END LIST*
G04 #@! TO.C,J106*
D10*
X44038095Y-116507142D02*
X44085714Y-116554761D01*
X44228571Y-116602380D01*
X44323809Y-116602380D01*
X44466666Y-116554761D01*
X44561904Y-116459523D01*
X44609523Y-116364285D01*
X44657142Y-116173809D01*
X44657142Y-116030952D01*
X44609523Y-115840476D01*
X44561904Y-115745238D01*
X44466666Y-115650000D01*
X44323809Y-115602380D01*
X44228571Y-115602380D01*
X44085714Y-115650000D01*
X44038095Y-115697619D01*
X43466666Y-116602380D02*
X43561904Y-116554761D01*
X43609523Y-116507142D01*
X43657142Y-116411904D01*
X43657142Y-116126190D01*
X43609523Y-116030952D01*
X43561904Y-115983333D01*
X43466666Y-115935714D01*
X43323809Y-115935714D01*
X43228571Y-115983333D01*
X43180952Y-116030952D01*
X43133333Y-116126190D01*
X43133333Y-116411904D01*
X43180952Y-116507142D01*
X43228571Y-116554761D01*
X43323809Y-116602380D01*
X43466666Y-116602380D01*
X42704761Y-115935714D02*
X42704761Y-116602380D01*
X42704761Y-116030952D02*
X42657142Y-115983333D01*
X42561904Y-115935714D01*
X42419047Y-115935714D01*
X42323809Y-115983333D01*
X42276190Y-116078571D01*
X42276190Y-116602380D01*
X41800000Y-115935714D02*
X41800000Y-116602380D01*
X41800000Y-116030952D02*
X41752380Y-115983333D01*
X41657142Y-115935714D01*
X41514285Y-115935714D01*
X41419047Y-115983333D01*
X41371428Y-116078571D01*
X41371428Y-116602380D01*
X41133333Y-116697619D02*
X40371428Y-116697619D01*
X39942857Y-115602380D02*
X39847619Y-115602380D01*
X39752380Y-115650000D01*
X39704761Y-115697619D01*
X39657142Y-115792857D01*
X39609523Y-115983333D01*
X39609523Y-116221428D01*
X39657142Y-116411904D01*
X39704761Y-116507142D01*
X39752380Y-116554761D01*
X39847619Y-116602380D01*
X39942857Y-116602380D01*
X40038095Y-116554761D01*
X40085714Y-116507142D01*
X40133333Y-116411904D01*
X40180952Y-116221428D01*
X40180952Y-115983333D01*
X40133333Y-115792857D01*
X40085714Y-115697619D01*
X40038095Y-115650000D01*
X39942857Y-115602380D01*
X38657142Y-116602380D02*
X39228571Y-116602380D01*
X38942857Y-116602380D02*
X38942857Y-115602380D01*
X39038095Y-115745238D01*
X39133333Y-115840476D01*
X39228571Y-115888095D01*
X38323809Y-116602380D02*
X37800000Y-115935714D01*
X38323809Y-115935714D02*
X37800000Y-116602380D01*
X37228571Y-115602380D02*
X37133333Y-115602380D01*
X37038095Y-115650000D01*
X36990476Y-115697619D01*
X36942857Y-115792857D01*
X36895238Y-115983333D01*
X36895238Y-116221428D01*
X36942857Y-116411904D01*
X36990476Y-116507142D01*
X37038095Y-116554761D01*
X37133333Y-116602380D01*
X37228571Y-116602380D01*
X37323809Y-116554761D01*
X37371428Y-116507142D01*
X37419047Y-116411904D01*
X37466666Y-116221428D01*
X37466666Y-115983333D01*
X37419047Y-115792857D01*
X37371428Y-115697619D01*
X37323809Y-115650000D01*
X37228571Y-115602380D01*
X36038095Y-115935714D02*
X36038095Y-116602380D01*
X36276190Y-115554761D02*
X36514285Y-116269047D01*
X35895238Y-116269047D01*
G04 #@! TO.C,J105*
X145188095Y-107457142D02*
X145235714Y-107504761D01*
X145378571Y-107552380D01*
X145473809Y-107552380D01*
X145616666Y-107504761D01*
X145711904Y-107409523D01*
X145759523Y-107314285D01*
X145807142Y-107123809D01*
X145807142Y-106980952D01*
X145759523Y-106790476D01*
X145711904Y-106695238D01*
X145616666Y-106600000D01*
X145473809Y-106552380D01*
X145378571Y-106552380D01*
X145235714Y-106600000D01*
X145188095Y-106647619D01*
X144616666Y-107552380D02*
X144711904Y-107504761D01*
X144759523Y-107457142D01*
X144807142Y-107361904D01*
X144807142Y-107076190D01*
X144759523Y-106980952D01*
X144711904Y-106933333D01*
X144616666Y-106885714D01*
X144473809Y-106885714D01*
X144378571Y-106933333D01*
X144330952Y-106980952D01*
X144283333Y-107076190D01*
X144283333Y-107361904D01*
X144330952Y-107457142D01*
X144378571Y-107504761D01*
X144473809Y-107552380D01*
X144616666Y-107552380D01*
X143854761Y-106885714D02*
X143854761Y-107552380D01*
X143854761Y-106980952D02*
X143807142Y-106933333D01*
X143711904Y-106885714D01*
X143569047Y-106885714D01*
X143473809Y-106933333D01*
X143426190Y-107028571D01*
X143426190Y-107552380D01*
X142950000Y-106885714D02*
X142950000Y-107552380D01*
X142950000Y-106980952D02*
X142902380Y-106933333D01*
X142807142Y-106885714D01*
X142664285Y-106885714D01*
X142569047Y-106933333D01*
X142521428Y-107028571D01*
X142521428Y-107552380D01*
X142283333Y-107647619D02*
X141521428Y-107647619D01*
X141092857Y-106552380D02*
X140997619Y-106552380D01*
X140902380Y-106600000D01*
X140854761Y-106647619D01*
X140807142Y-106742857D01*
X140759523Y-106933333D01*
X140759523Y-107171428D01*
X140807142Y-107361904D01*
X140854761Y-107457142D01*
X140902380Y-107504761D01*
X140997619Y-107552380D01*
X141092857Y-107552380D01*
X141188095Y-107504761D01*
X141235714Y-107457142D01*
X141283333Y-107361904D01*
X141330952Y-107171428D01*
X141330952Y-106933333D01*
X141283333Y-106742857D01*
X141235714Y-106647619D01*
X141188095Y-106600000D01*
X141092857Y-106552380D01*
X139807142Y-107552380D02*
X140378571Y-107552380D01*
X140092857Y-107552380D02*
X140092857Y-106552380D01*
X140188095Y-106695238D01*
X140283333Y-106790476D01*
X140378571Y-106838095D01*
X139473809Y-107552380D02*
X138950000Y-106885714D01*
X139473809Y-106885714D02*
X138950000Y-107552380D01*
X138378571Y-106552380D02*
X138283333Y-106552380D01*
X138188095Y-106600000D01*
X138140476Y-106647619D01*
X138092857Y-106742857D01*
X138045238Y-106933333D01*
X138045238Y-107171428D01*
X138092857Y-107361904D01*
X138140476Y-107457142D01*
X138188095Y-107504761D01*
X138283333Y-107552380D01*
X138378571Y-107552380D01*
X138473809Y-107504761D01*
X138521428Y-107457142D01*
X138569047Y-107361904D01*
X138616666Y-107171428D01*
X138616666Y-106933333D01*
X138569047Y-106742857D01*
X138521428Y-106647619D01*
X138473809Y-106600000D01*
X138378571Y-106552380D01*
X137188095Y-106885714D02*
X137188095Y-107552380D01*
X137426190Y-106504761D02*
X137664285Y-107219047D01*
X137045238Y-107219047D01*
G04 #@! TD*
M02*
