%FSLAX45Y45*%
G04 Gerber Fmt 4.5, Leading zero omitted, Abs format (unit mm)*
G04 Created by KiCad (PCBNEW 5.0.0) date Tue Aug 14 07:29:07 2018*
%MOMM*%
%LPD*%
G01*
G04 APERTURE LIST*
%ADD10C,0.152400*%
%ADD11C,0.200000*%
%ADD12C,0.300000*%
G04 APERTURE END LIST*
D10*
X3650000Y-17200000D02*
G75*
G02X3400000Y-16950000I0J250000D01*
G01*
X14750000Y-16950000D02*
G75*
G02X14500000Y-17200000I-250000J0D01*
G01*
X14500000Y-4750000D02*
G75*
G02X14750000Y-5000000I0J-250000D01*
G01*
X3400000Y-5000000D02*
G75*
G02X3650000Y-4750000I250000J0D01*
G01*
X3400000Y-16950000D02*
X3400000Y-5000000D01*
X14500000Y-17200000D02*
X3650000Y-17200000D01*
X14750000Y-5000000D02*
X14750000Y-16950000D01*
X3650000Y-4750000D02*
X14500000Y-4750000D01*
D11*
D12*
X3678808Y-17673334D02*
X3678808Y-17373334D01*
X3750237Y-17373334D01*
X3793094Y-17387620D01*
X3821666Y-17416192D01*
X3835951Y-17444763D01*
X3850237Y-17501906D01*
X3850237Y-17544763D01*
X3835951Y-17601906D01*
X3821666Y-17630477D01*
X3793094Y-17659049D01*
X3750237Y-17673334D01*
X3678808Y-17673334D01*
X3978808Y-17673334D02*
X3978808Y-17473334D01*
X3978808Y-17530477D02*
X3993094Y-17501906D01*
X4007380Y-17487620D01*
X4035951Y-17473334D01*
X4064523Y-17473334D01*
X4164523Y-17673334D02*
X4164523Y-17473334D01*
X4164523Y-17373334D02*
X4150237Y-17387620D01*
X4164523Y-17401906D01*
X4178808Y-17387620D01*
X4164523Y-17373334D01*
X4164523Y-17401906D01*
X4350237Y-17673334D02*
X4321666Y-17659049D01*
X4307380Y-17630477D01*
X4307380Y-17373334D01*
X4507380Y-17673334D02*
X4478808Y-17659049D01*
X4464523Y-17630477D01*
X4464523Y-17373334D01*
X4850237Y-17673334D02*
X4850237Y-17373334D01*
X4950237Y-17587620D01*
X5050237Y-17373334D01*
X5050237Y-17673334D01*
X5321666Y-17673334D02*
X5321666Y-17516192D01*
X5307380Y-17487620D01*
X5278808Y-17473334D01*
X5221666Y-17473334D01*
X5193094Y-17487620D01*
X5321666Y-17659049D02*
X5293094Y-17673334D01*
X5221666Y-17673334D01*
X5193094Y-17659049D01*
X5178808Y-17630477D01*
X5178808Y-17601906D01*
X5193094Y-17573334D01*
X5221666Y-17559049D01*
X5293094Y-17559049D01*
X5321666Y-17544763D01*
X5464523Y-17473334D02*
X5464523Y-17773334D01*
X5464523Y-17487620D02*
X5493094Y-17473334D01*
X5550237Y-17473334D01*
X5578808Y-17487620D01*
X5593094Y-17501906D01*
X5607380Y-17530477D01*
X5607380Y-17616192D01*
X5593094Y-17644763D01*
X5578808Y-17659049D01*
X5550237Y-17673334D01*
X5493094Y-17673334D01*
X5464523Y-17659049D01*
X5735951Y-17644763D02*
X5750237Y-17659049D01*
X5735951Y-17673334D01*
X5721666Y-17659049D01*
X5735951Y-17644763D01*
X5735951Y-17673334D01*
X5735951Y-17487620D02*
X5750237Y-17501906D01*
X5735951Y-17516192D01*
X5721666Y-17501906D01*
X5735951Y-17487620D01*
X5735951Y-17516192D01*
M02*
