G04 #@! TF.GenerationSoftware,KiCad,Pcbnew,5.0.1*
G04 #@! TF.CreationDate,2018-12-04T22:41:10-05:00*
G04 #@! TF.ProjectId,peripherals,7065726970686572616C732E6B696361,rev?*
G04 #@! TF.SameCoordinates,Original*
G04 #@! TF.FileFunction,Soldermask,Bot*
G04 #@! TF.FilePolarity,Negative*
%FSLAX46Y46*%
G04 Gerber Fmt 4.6, Leading zero omitted, Abs format (unit mm)*
G04 Created by KiCad (PCBNEW 5.0.1) date Tue 04 Dec 2018 10:41:10 PM EST*
%MOMM*%
%LPD*%
G01*
G04 APERTURE LIST*
%ADD10C,0.100000*%
G04 APERTURE END LIST*
D10*
G36*
X117568180Y-114830404D02*
X118546586Y-115235673D01*
X119427128Y-115824033D01*
X120175967Y-116572872D01*
X120764327Y-117453414D01*
X121169596Y-118431820D01*
X121376200Y-119470491D01*
X121376200Y-120529509D01*
X121169596Y-121568180D01*
X120764327Y-122546586D01*
X120175967Y-123427128D01*
X119427128Y-124175967D01*
X118546586Y-124764327D01*
X117568180Y-125169596D01*
X116529509Y-125376200D01*
X115470491Y-125376200D01*
X114431820Y-125169596D01*
X113453414Y-124764327D01*
X112572872Y-124175967D01*
X111824033Y-123427128D01*
X111235673Y-122546586D01*
X110830404Y-121568180D01*
X110623800Y-120529509D01*
X110623800Y-119470491D01*
X110830404Y-118431820D01*
X111235673Y-117453414D01*
X111824033Y-116572872D01*
X112572872Y-115824033D01*
X113453414Y-115235673D01*
X114431820Y-114830404D01*
X115470491Y-114623800D01*
X116529509Y-114623800D01*
X117568180Y-114830404D01*
X117568180Y-114830404D01*
G37*
G36*
X43568180Y-114830404D02*
X44546586Y-115235673D01*
X45427128Y-115824033D01*
X46175967Y-116572872D01*
X46764327Y-117453414D01*
X47169596Y-118431820D01*
X47376200Y-119470491D01*
X47376200Y-120529509D01*
X47169596Y-121568180D01*
X46764327Y-122546586D01*
X46175967Y-123427128D01*
X45427128Y-124175967D01*
X44546586Y-124764327D01*
X43568180Y-125169596D01*
X42529509Y-125376200D01*
X41470491Y-125376200D01*
X40431820Y-125169596D01*
X39453414Y-124764327D01*
X38572872Y-124175967D01*
X37824033Y-123427128D01*
X37235673Y-122546586D01*
X36830404Y-121568180D01*
X36623800Y-120529509D01*
X36623800Y-119470491D01*
X36830404Y-118431820D01*
X37235673Y-117453414D01*
X37824033Y-116572872D01*
X38572872Y-115824033D01*
X39453414Y-115235673D01*
X40431820Y-114830404D01*
X41470491Y-114623800D01*
X42529509Y-114623800D01*
X43568180Y-114830404D01*
X43568180Y-114830404D01*
G37*
G36*
X96376200Y-123576200D02*
X94523800Y-123576200D01*
X94523800Y-121723800D01*
X96376200Y-121723800D01*
X96376200Y-123576200D01*
X96376200Y-123576200D01*
G37*
G36*
X105791563Y-121737201D02*
X105791566Y-121737202D01*
X105791567Y-121737202D01*
X105966156Y-121790163D01*
X106127059Y-121876167D01*
X106127061Y-121876168D01*
X106127060Y-121876168D01*
X106268091Y-121991909D01*
X106383832Y-122132940D01*
X106469837Y-122293844D01*
X106522799Y-122468437D01*
X106540682Y-122650000D01*
X106522799Y-122831563D01*
X106522798Y-122831566D01*
X106522798Y-122831567D01*
X106469837Y-123006156D01*
X106383833Y-123167059D01*
X106268091Y-123308091D01*
X106127059Y-123423833D01*
X105966156Y-123509837D01*
X105791567Y-123562798D01*
X105791566Y-123562798D01*
X105791563Y-123562799D01*
X105655501Y-123576200D01*
X105564499Y-123576200D01*
X105428437Y-123562799D01*
X105428434Y-123562798D01*
X105428433Y-123562798D01*
X105253844Y-123509837D01*
X105092941Y-123423833D01*
X104951909Y-123308091D01*
X104836167Y-123167059D01*
X104750163Y-123006156D01*
X104697202Y-122831567D01*
X104697202Y-122831566D01*
X104697201Y-122831563D01*
X104679318Y-122650000D01*
X104697201Y-122468437D01*
X104750163Y-122293844D01*
X104836168Y-122132940D01*
X104951909Y-121991909D01*
X105092940Y-121876168D01*
X105092939Y-121876168D01*
X105092941Y-121876167D01*
X105253844Y-121790163D01*
X105428433Y-121737202D01*
X105428434Y-121737202D01*
X105428437Y-121737201D01*
X105564499Y-121723800D01*
X105655501Y-121723800D01*
X105791563Y-121737201D01*
X105791563Y-121737201D01*
G37*
G36*
X103251563Y-121737201D02*
X103251566Y-121737202D01*
X103251567Y-121737202D01*
X103426156Y-121790163D01*
X103587059Y-121876167D01*
X103587061Y-121876168D01*
X103587060Y-121876168D01*
X103728091Y-121991909D01*
X103843832Y-122132940D01*
X103929837Y-122293844D01*
X103982799Y-122468437D01*
X104000682Y-122650000D01*
X103982799Y-122831563D01*
X103982798Y-122831566D01*
X103982798Y-122831567D01*
X103929837Y-123006156D01*
X103843833Y-123167059D01*
X103728091Y-123308091D01*
X103587059Y-123423833D01*
X103426156Y-123509837D01*
X103251567Y-123562798D01*
X103251566Y-123562798D01*
X103251563Y-123562799D01*
X103115501Y-123576200D01*
X103024499Y-123576200D01*
X102888437Y-123562799D01*
X102888434Y-123562798D01*
X102888433Y-123562798D01*
X102713844Y-123509837D01*
X102552941Y-123423833D01*
X102411909Y-123308091D01*
X102296167Y-123167059D01*
X102210163Y-123006156D01*
X102157202Y-122831567D01*
X102157202Y-122831566D01*
X102157201Y-122831563D01*
X102139318Y-122650000D01*
X102157201Y-122468437D01*
X102210163Y-122293844D01*
X102296168Y-122132940D01*
X102411909Y-121991909D01*
X102552940Y-121876168D01*
X102552939Y-121876168D01*
X102552941Y-121876167D01*
X102713844Y-121790163D01*
X102888433Y-121737202D01*
X102888434Y-121737202D01*
X102888437Y-121737201D01*
X103024499Y-121723800D01*
X103115501Y-121723800D01*
X103251563Y-121737201D01*
X103251563Y-121737201D01*
G37*
G36*
X100711563Y-121737201D02*
X100711566Y-121737202D01*
X100711567Y-121737202D01*
X100886156Y-121790163D01*
X101047059Y-121876167D01*
X101047061Y-121876168D01*
X101047060Y-121876168D01*
X101188091Y-121991909D01*
X101303832Y-122132940D01*
X101389837Y-122293844D01*
X101442799Y-122468437D01*
X101460682Y-122650000D01*
X101442799Y-122831563D01*
X101442798Y-122831566D01*
X101442798Y-122831567D01*
X101389837Y-123006156D01*
X101303833Y-123167059D01*
X101188091Y-123308091D01*
X101047059Y-123423833D01*
X100886156Y-123509837D01*
X100711567Y-123562798D01*
X100711566Y-123562798D01*
X100711563Y-123562799D01*
X100575501Y-123576200D01*
X100484499Y-123576200D01*
X100348437Y-123562799D01*
X100348434Y-123562798D01*
X100348433Y-123562798D01*
X100173844Y-123509837D01*
X100012941Y-123423833D01*
X99871909Y-123308091D01*
X99756167Y-123167059D01*
X99670163Y-123006156D01*
X99617202Y-122831567D01*
X99617202Y-122831566D01*
X99617201Y-122831563D01*
X99599318Y-122650000D01*
X99617201Y-122468437D01*
X99670163Y-122293844D01*
X99756168Y-122132940D01*
X99871909Y-121991909D01*
X100012940Y-121876168D01*
X100012939Y-121876168D01*
X100012941Y-121876167D01*
X100173844Y-121790163D01*
X100348433Y-121737202D01*
X100348434Y-121737202D01*
X100348437Y-121737201D01*
X100484499Y-121723800D01*
X100575501Y-121723800D01*
X100711563Y-121737201D01*
X100711563Y-121737201D01*
G37*
G36*
X56776200Y-123576200D02*
X54923800Y-123576200D01*
X54923800Y-121723800D01*
X56776200Y-121723800D01*
X56776200Y-123576200D01*
X56776200Y-123576200D01*
G37*
G36*
X58571563Y-121737201D02*
X58571566Y-121737202D01*
X58571567Y-121737202D01*
X58746156Y-121790163D01*
X58907059Y-121876167D01*
X58907061Y-121876168D01*
X58907060Y-121876168D01*
X59048091Y-121991909D01*
X59163832Y-122132940D01*
X59249837Y-122293844D01*
X59302799Y-122468437D01*
X59320682Y-122650000D01*
X59302799Y-122831563D01*
X59302798Y-122831566D01*
X59302798Y-122831567D01*
X59249837Y-123006156D01*
X59163833Y-123167059D01*
X59048091Y-123308091D01*
X58907059Y-123423833D01*
X58746156Y-123509837D01*
X58571567Y-123562798D01*
X58571566Y-123562798D01*
X58571563Y-123562799D01*
X58435501Y-123576200D01*
X58344499Y-123576200D01*
X58208437Y-123562799D01*
X58208434Y-123562798D01*
X58208433Y-123562798D01*
X58033844Y-123509837D01*
X57872941Y-123423833D01*
X57731909Y-123308091D01*
X57616167Y-123167059D01*
X57530163Y-123006156D01*
X57477202Y-122831567D01*
X57477202Y-122831566D01*
X57477201Y-122831563D01*
X57459318Y-122650000D01*
X57477201Y-122468437D01*
X57530163Y-122293844D01*
X57616168Y-122132940D01*
X57731909Y-121991909D01*
X57872940Y-121876168D01*
X57872939Y-121876168D01*
X57872941Y-121876167D01*
X58033844Y-121790163D01*
X58208433Y-121737202D01*
X58208434Y-121737202D01*
X58208437Y-121737201D01*
X58344499Y-121723800D01*
X58435501Y-121723800D01*
X58571563Y-121737201D01*
X58571563Y-121737201D01*
G37*
G36*
X61111563Y-121737201D02*
X61111566Y-121737202D01*
X61111567Y-121737202D01*
X61286156Y-121790163D01*
X61447059Y-121876167D01*
X61447061Y-121876168D01*
X61447060Y-121876168D01*
X61588091Y-121991909D01*
X61703832Y-122132940D01*
X61789837Y-122293844D01*
X61842799Y-122468437D01*
X61860682Y-122650000D01*
X61842799Y-122831563D01*
X61842798Y-122831566D01*
X61842798Y-122831567D01*
X61789837Y-123006156D01*
X61703833Y-123167059D01*
X61588091Y-123308091D01*
X61447059Y-123423833D01*
X61286156Y-123509837D01*
X61111567Y-123562798D01*
X61111566Y-123562798D01*
X61111563Y-123562799D01*
X60975501Y-123576200D01*
X60884499Y-123576200D01*
X60748437Y-123562799D01*
X60748434Y-123562798D01*
X60748433Y-123562798D01*
X60573844Y-123509837D01*
X60412941Y-123423833D01*
X60271909Y-123308091D01*
X60156167Y-123167059D01*
X60070163Y-123006156D01*
X60017202Y-122831567D01*
X60017202Y-122831566D01*
X60017201Y-122831563D01*
X59999318Y-122650000D01*
X60017201Y-122468437D01*
X60070163Y-122293844D01*
X60156168Y-122132940D01*
X60271909Y-121991909D01*
X60412940Y-121876168D01*
X60412939Y-121876168D01*
X60412941Y-121876167D01*
X60573844Y-121790163D01*
X60748433Y-121737202D01*
X60748434Y-121737202D01*
X60748437Y-121737201D01*
X60884499Y-121723800D01*
X60975501Y-121723800D01*
X61111563Y-121737201D01*
X61111563Y-121737201D01*
G37*
G36*
X63651563Y-121737201D02*
X63651566Y-121737202D01*
X63651567Y-121737202D01*
X63826156Y-121790163D01*
X63987059Y-121876167D01*
X63987061Y-121876168D01*
X63987060Y-121876168D01*
X64128091Y-121991909D01*
X64243832Y-122132940D01*
X64329837Y-122293844D01*
X64382799Y-122468437D01*
X64400682Y-122650000D01*
X64382799Y-122831563D01*
X64382798Y-122831566D01*
X64382798Y-122831567D01*
X64329837Y-123006156D01*
X64243833Y-123167059D01*
X64128091Y-123308091D01*
X63987059Y-123423833D01*
X63826156Y-123509837D01*
X63651567Y-123562798D01*
X63651566Y-123562798D01*
X63651563Y-123562799D01*
X63515501Y-123576200D01*
X63424499Y-123576200D01*
X63288437Y-123562799D01*
X63288434Y-123562798D01*
X63288433Y-123562798D01*
X63113844Y-123509837D01*
X62952941Y-123423833D01*
X62811909Y-123308091D01*
X62696167Y-123167059D01*
X62610163Y-123006156D01*
X62557202Y-122831567D01*
X62557202Y-122831566D01*
X62557201Y-122831563D01*
X62539318Y-122650000D01*
X62557201Y-122468437D01*
X62610163Y-122293844D01*
X62696168Y-122132940D01*
X62811909Y-121991909D01*
X62952940Y-121876168D01*
X62952939Y-121876168D01*
X62952941Y-121876167D01*
X63113844Y-121790163D01*
X63288433Y-121737202D01*
X63288434Y-121737202D01*
X63288437Y-121737201D01*
X63424499Y-121723800D01*
X63515501Y-121723800D01*
X63651563Y-121737201D01*
X63651563Y-121737201D01*
G37*
G36*
X66191563Y-121737201D02*
X66191566Y-121737202D01*
X66191567Y-121737202D01*
X66366156Y-121790163D01*
X66527059Y-121876167D01*
X66527061Y-121876168D01*
X66527060Y-121876168D01*
X66668091Y-121991909D01*
X66783832Y-122132940D01*
X66869837Y-122293844D01*
X66922799Y-122468437D01*
X66940682Y-122650000D01*
X66922799Y-122831563D01*
X66922798Y-122831566D01*
X66922798Y-122831567D01*
X66869837Y-123006156D01*
X66783833Y-123167059D01*
X66668091Y-123308091D01*
X66527059Y-123423833D01*
X66366156Y-123509837D01*
X66191567Y-123562798D01*
X66191566Y-123562798D01*
X66191563Y-123562799D01*
X66055501Y-123576200D01*
X65964499Y-123576200D01*
X65828437Y-123562799D01*
X65828434Y-123562798D01*
X65828433Y-123562798D01*
X65653844Y-123509837D01*
X65492941Y-123423833D01*
X65351909Y-123308091D01*
X65236167Y-123167059D01*
X65150163Y-123006156D01*
X65097202Y-122831567D01*
X65097202Y-122831566D01*
X65097201Y-122831563D01*
X65079318Y-122650000D01*
X65097201Y-122468437D01*
X65150163Y-122293844D01*
X65236168Y-122132940D01*
X65351909Y-121991909D01*
X65492940Y-121876168D01*
X65492939Y-121876168D01*
X65492941Y-121876167D01*
X65653844Y-121790163D01*
X65828433Y-121737202D01*
X65828434Y-121737202D01*
X65828437Y-121737201D01*
X65964499Y-121723800D01*
X66055501Y-121723800D01*
X66191563Y-121737201D01*
X66191563Y-121737201D01*
G37*
G36*
X98171563Y-121737201D02*
X98171566Y-121737202D01*
X98171567Y-121737202D01*
X98346156Y-121790163D01*
X98507059Y-121876167D01*
X98507061Y-121876168D01*
X98507060Y-121876168D01*
X98648091Y-121991909D01*
X98763832Y-122132940D01*
X98849837Y-122293844D01*
X98902799Y-122468437D01*
X98920682Y-122650000D01*
X98902799Y-122831563D01*
X98902798Y-122831566D01*
X98902798Y-122831567D01*
X98849837Y-123006156D01*
X98763833Y-123167059D01*
X98648091Y-123308091D01*
X98507059Y-123423833D01*
X98346156Y-123509837D01*
X98171567Y-123562798D01*
X98171566Y-123562798D01*
X98171563Y-123562799D01*
X98035501Y-123576200D01*
X97944499Y-123576200D01*
X97808437Y-123562799D01*
X97808434Y-123562798D01*
X97808433Y-123562798D01*
X97633844Y-123509837D01*
X97472941Y-123423833D01*
X97331909Y-123308091D01*
X97216167Y-123167059D01*
X97130163Y-123006156D01*
X97077202Y-122831567D01*
X97077202Y-122831566D01*
X97077201Y-122831563D01*
X97059318Y-122650000D01*
X97077201Y-122468437D01*
X97130163Y-122293844D01*
X97216168Y-122132940D01*
X97331909Y-121991909D01*
X97472940Y-121876168D01*
X97472939Y-121876168D01*
X97472941Y-121876167D01*
X97633844Y-121790163D01*
X97808433Y-121737202D01*
X97808434Y-121737202D01*
X97808437Y-121737201D01*
X97944499Y-121723800D01*
X98035501Y-121723800D01*
X98171563Y-121737201D01*
X98171563Y-121737201D01*
G37*
G36*
X56826200Y-119726200D02*
X54973800Y-119726200D01*
X54973800Y-117873800D01*
X56826200Y-117873800D01*
X56826200Y-119726200D01*
X56826200Y-119726200D01*
G37*
G36*
X98171563Y-117887201D02*
X98171566Y-117887202D01*
X98171567Y-117887202D01*
X98346156Y-117940163D01*
X98507059Y-118026167D01*
X98507061Y-118026168D01*
X98507060Y-118026168D01*
X98648091Y-118141909D01*
X98763832Y-118282940D01*
X98849837Y-118443844D01*
X98902799Y-118618437D01*
X98920682Y-118800000D01*
X98902799Y-118981563D01*
X98902798Y-118981566D01*
X98902798Y-118981567D01*
X98849837Y-119156156D01*
X98763833Y-119317059D01*
X98648091Y-119458091D01*
X98507059Y-119573833D01*
X98346156Y-119659837D01*
X98171567Y-119712798D01*
X98171566Y-119712798D01*
X98171563Y-119712799D01*
X98035501Y-119726200D01*
X97944499Y-119726200D01*
X97808437Y-119712799D01*
X97808434Y-119712798D01*
X97808433Y-119712798D01*
X97633844Y-119659837D01*
X97472941Y-119573833D01*
X97331909Y-119458091D01*
X97216167Y-119317059D01*
X97130163Y-119156156D01*
X97077202Y-118981567D01*
X97077202Y-118981566D01*
X97077201Y-118981563D01*
X97059318Y-118800000D01*
X97077201Y-118618437D01*
X97130163Y-118443844D01*
X97216168Y-118282940D01*
X97331909Y-118141909D01*
X97472940Y-118026168D01*
X97472939Y-118026168D01*
X97472941Y-118026167D01*
X97633844Y-117940163D01*
X97808433Y-117887202D01*
X97808434Y-117887202D01*
X97808437Y-117887201D01*
X97944499Y-117873800D01*
X98035501Y-117873800D01*
X98171563Y-117887201D01*
X98171563Y-117887201D01*
G37*
G36*
X96376200Y-119726200D02*
X94523800Y-119726200D01*
X94523800Y-117873800D01*
X96376200Y-117873800D01*
X96376200Y-119726200D01*
X96376200Y-119726200D01*
G37*
G36*
X58621563Y-117887201D02*
X58621566Y-117887202D01*
X58621567Y-117887202D01*
X58796156Y-117940163D01*
X58957059Y-118026167D01*
X58957061Y-118026168D01*
X58957060Y-118026168D01*
X59098091Y-118141909D01*
X59213832Y-118282940D01*
X59299837Y-118443844D01*
X59352799Y-118618437D01*
X59370682Y-118800000D01*
X59352799Y-118981563D01*
X59352798Y-118981566D01*
X59352798Y-118981567D01*
X59299837Y-119156156D01*
X59213833Y-119317059D01*
X59098091Y-119458091D01*
X58957059Y-119573833D01*
X58796156Y-119659837D01*
X58621567Y-119712798D01*
X58621566Y-119712798D01*
X58621563Y-119712799D01*
X58485501Y-119726200D01*
X58394499Y-119726200D01*
X58258437Y-119712799D01*
X58258434Y-119712798D01*
X58258433Y-119712798D01*
X58083844Y-119659837D01*
X57922941Y-119573833D01*
X57781909Y-119458091D01*
X57666167Y-119317059D01*
X57580163Y-119156156D01*
X57527202Y-118981567D01*
X57527202Y-118981566D01*
X57527201Y-118981563D01*
X57509318Y-118800000D01*
X57527201Y-118618437D01*
X57580163Y-118443844D01*
X57666168Y-118282940D01*
X57781909Y-118141909D01*
X57922940Y-118026168D01*
X57922939Y-118026168D01*
X57922941Y-118026167D01*
X58083844Y-117940163D01*
X58258433Y-117887202D01*
X58258434Y-117887202D01*
X58258437Y-117887201D01*
X58394499Y-117873800D01*
X58485501Y-117873800D01*
X58621563Y-117887201D01*
X58621563Y-117887201D01*
G37*
G36*
X63701563Y-117887201D02*
X63701566Y-117887202D01*
X63701567Y-117887202D01*
X63876156Y-117940163D01*
X64037059Y-118026167D01*
X64037061Y-118026168D01*
X64037060Y-118026168D01*
X64178091Y-118141909D01*
X64293832Y-118282940D01*
X64379837Y-118443844D01*
X64432799Y-118618437D01*
X64450682Y-118800000D01*
X64432799Y-118981563D01*
X64432798Y-118981566D01*
X64432798Y-118981567D01*
X64379837Y-119156156D01*
X64293833Y-119317059D01*
X64178091Y-119458091D01*
X64037059Y-119573833D01*
X63876156Y-119659837D01*
X63701567Y-119712798D01*
X63701566Y-119712798D01*
X63701563Y-119712799D01*
X63565501Y-119726200D01*
X63474499Y-119726200D01*
X63338437Y-119712799D01*
X63338434Y-119712798D01*
X63338433Y-119712798D01*
X63163844Y-119659837D01*
X63002941Y-119573833D01*
X62861909Y-119458091D01*
X62746167Y-119317059D01*
X62660163Y-119156156D01*
X62607202Y-118981567D01*
X62607202Y-118981566D01*
X62607201Y-118981563D01*
X62589318Y-118800000D01*
X62607201Y-118618437D01*
X62660163Y-118443844D01*
X62746168Y-118282940D01*
X62861909Y-118141909D01*
X63002940Y-118026168D01*
X63002939Y-118026168D01*
X63002941Y-118026167D01*
X63163844Y-117940163D01*
X63338433Y-117887202D01*
X63338434Y-117887202D01*
X63338437Y-117887201D01*
X63474499Y-117873800D01*
X63565501Y-117873800D01*
X63701563Y-117887201D01*
X63701563Y-117887201D01*
G37*
G36*
X100711563Y-117887201D02*
X100711566Y-117887202D01*
X100711567Y-117887202D01*
X100886156Y-117940163D01*
X101047059Y-118026167D01*
X101047061Y-118026168D01*
X101047060Y-118026168D01*
X101188091Y-118141909D01*
X101303832Y-118282940D01*
X101389837Y-118443844D01*
X101442799Y-118618437D01*
X101460682Y-118800000D01*
X101442799Y-118981563D01*
X101442798Y-118981566D01*
X101442798Y-118981567D01*
X101389837Y-119156156D01*
X101303833Y-119317059D01*
X101188091Y-119458091D01*
X101047059Y-119573833D01*
X100886156Y-119659837D01*
X100711567Y-119712798D01*
X100711566Y-119712798D01*
X100711563Y-119712799D01*
X100575501Y-119726200D01*
X100484499Y-119726200D01*
X100348437Y-119712799D01*
X100348434Y-119712798D01*
X100348433Y-119712798D01*
X100173844Y-119659837D01*
X100012941Y-119573833D01*
X99871909Y-119458091D01*
X99756167Y-119317059D01*
X99670163Y-119156156D01*
X99617202Y-118981567D01*
X99617202Y-118981566D01*
X99617201Y-118981563D01*
X99599318Y-118800000D01*
X99617201Y-118618437D01*
X99670163Y-118443844D01*
X99756168Y-118282940D01*
X99871909Y-118141909D01*
X100012940Y-118026168D01*
X100012939Y-118026168D01*
X100012941Y-118026167D01*
X100173844Y-117940163D01*
X100348433Y-117887202D01*
X100348434Y-117887202D01*
X100348437Y-117887201D01*
X100484499Y-117873800D01*
X100575501Y-117873800D01*
X100711563Y-117887201D01*
X100711563Y-117887201D01*
G37*
G36*
X103251563Y-117887201D02*
X103251566Y-117887202D01*
X103251567Y-117887202D01*
X103426156Y-117940163D01*
X103587059Y-118026167D01*
X103587061Y-118026168D01*
X103587060Y-118026168D01*
X103728091Y-118141909D01*
X103843832Y-118282940D01*
X103929837Y-118443844D01*
X103982799Y-118618437D01*
X104000682Y-118800000D01*
X103982799Y-118981563D01*
X103982798Y-118981566D01*
X103982798Y-118981567D01*
X103929837Y-119156156D01*
X103843833Y-119317059D01*
X103728091Y-119458091D01*
X103587059Y-119573833D01*
X103426156Y-119659837D01*
X103251567Y-119712798D01*
X103251566Y-119712798D01*
X103251563Y-119712799D01*
X103115501Y-119726200D01*
X103024499Y-119726200D01*
X102888437Y-119712799D01*
X102888434Y-119712798D01*
X102888433Y-119712798D01*
X102713844Y-119659837D01*
X102552941Y-119573833D01*
X102411909Y-119458091D01*
X102296167Y-119317059D01*
X102210163Y-119156156D01*
X102157202Y-118981567D01*
X102157202Y-118981566D01*
X102157201Y-118981563D01*
X102139318Y-118800000D01*
X102157201Y-118618437D01*
X102210163Y-118443844D01*
X102296168Y-118282940D01*
X102411909Y-118141909D01*
X102552940Y-118026168D01*
X102552939Y-118026168D01*
X102552941Y-118026167D01*
X102713844Y-117940163D01*
X102888433Y-117887202D01*
X102888434Y-117887202D01*
X102888437Y-117887201D01*
X103024499Y-117873800D01*
X103115501Y-117873800D01*
X103251563Y-117887201D01*
X103251563Y-117887201D01*
G37*
G36*
X105791563Y-117887201D02*
X105791566Y-117887202D01*
X105791567Y-117887202D01*
X105966156Y-117940163D01*
X106127059Y-118026167D01*
X106127061Y-118026168D01*
X106127060Y-118026168D01*
X106268091Y-118141909D01*
X106383832Y-118282940D01*
X106469837Y-118443844D01*
X106522799Y-118618437D01*
X106540682Y-118800000D01*
X106522799Y-118981563D01*
X106522798Y-118981566D01*
X106522798Y-118981567D01*
X106469837Y-119156156D01*
X106383833Y-119317059D01*
X106268091Y-119458091D01*
X106127059Y-119573833D01*
X105966156Y-119659837D01*
X105791567Y-119712798D01*
X105791566Y-119712798D01*
X105791563Y-119712799D01*
X105655501Y-119726200D01*
X105564499Y-119726200D01*
X105428437Y-119712799D01*
X105428434Y-119712798D01*
X105428433Y-119712798D01*
X105253844Y-119659837D01*
X105092941Y-119573833D01*
X104951909Y-119458091D01*
X104836167Y-119317059D01*
X104750163Y-119156156D01*
X104697202Y-118981567D01*
X104697202Y-118981566D01*
X104697201Y-118981563D01*
X104679318Y-118800000D01*
X104697201Y-118618437D01*
X104750163Y-118443844D01*
X104836168Y-118282940D01*
X104951909Y-118141909D01*
X105092940Y-118026168D01*
X105092939Y-118026168D01*
X105092941Y-118026167D01*
X105253844Y-117940163D01*
X105428433Y-117887202D01*
X105428434Y-117887202D01*
X105428437Y-117887201D01*
X105564499Y-117873800D01*
X105655501Y-117873800D01*
X105791563Y-117887201D01*
X105791563Y-117887201D01*
G37*
G36*
X61161563Y-117887201D02*
X61161566Y-117887202D01*
X61161567Y-117887202D01*
X61336156Y-117940163D01*
X61497059Y-118026167D01*
X61497061Y-118026168D01*
X61497060Y-118026168D01*
X61638091Y-118141909D01*
X61753832Y-118282940D01*
X61839837Y-118443844D01*
X61892799Y-118618437D01*
X61910682Y-118800000D01*
X61892799Y-118981563D01*
X61892798Y-118981566D01*
X61892798Y-118981567D01*
X61839837Y-119156156D01*
X61753833Y-119317059D01*
X61638091Y-119458091D01*
X61497059Y-119573833D01*
X61336156Y-119659837D01*
X61161567Y-119712798D01*
X61161566Y-119712798D01*
X61161563Y-119712799D01*
X61025501Y-119726200D01*
X60934499Y-119726200D01*
X60798437Y-119712799D01*
X60798434Y-119712798D01*
X60798433Y-119712798D01*
X60623844Y-119659837D01*
X60462941Y-119573833D01*
X60321909Y-119458091D01*
X60206167Y-119317059D01*
X60120163Y-119156156D01*
X60067202Y-118981567D01*
X60067202Y-118981566D01*
X60067201Y-118981563D01*
X60049318Y-118800000D01*
X60067201Y-118618437D01*
X60120163Y-118443844D01*
X60206168Y-118282940D01*
X60321909Y-118141909D01*
X60462940Y-118026168D01*
X60462939Y-118026168D01*
X60462941Y-118026167D01*
X60623844Y-117940163D01*
X60798433Y-117887202D01*
X60798434Y-117887202D01*
X60798437Y-117887201D01*
X60934499Y-117873800D01*
X61025501Y-117873800D01*
X61161563Y-117887201D01*
X61161563Y-117887201D01*
G37*
G36*
X66241563Y-117887201D02*
X66241566Y-117887202D01*
X66241567Y-117887202D01*
X66416156Y-117940163D01*
X66577059Y-118026167D01*
X66577061Y-118026168D01*
X66577060Y-118026168D01*
X66718091Y-118141909D01*
X66833832Y-118282940D01*
X66919837Y-118443844D01*
X66972799Y-118618437D01*
X66990682Y-118800000D01*
X66972799Y-118981563D01*
X66972798Y-118981566D01*
X66972798Y-118981567D01*
X66919837Y-119156156D01*
X66833833Y-119317059D01*
X66718091Y-119458091D01*
X66577059Y-119573833D01*
X66416156Y-119659837D01*
X66241567Y-119712798D01*
X66241566Y-119712798D01*
X66241563Y-119712799D01*
X66105501Y-119726200D01*
X66014499Y-119726200D01*
X65878437Y-119712799D01*
X65878434Y-119712798D01*
X65878433Y-119712798D01*
X65703844Y-119659837D01*
X65542941Y-119573833D01*
X65401909Y-119458091D01*
X65286167Y-119317059D01*
X65200163Y-119156156D01*
X65147202Y-118981567D01*
X65147202Y-118981566D01*
X65147201Y-118981563D01*
X65129318Y-118800000D01*
X65147201Y-118618437D01*
X65200163Y-118443844D01*
X65286168Y-118282940D01*
X65401909Y-118141909D01*
X65542940Y-118026168D01*
X65542939Y-118026168D01*
X65542941Y-118026167D01*
X65703844Y-117940163D01*
X65878433Y-117887202D01*
X65878434Y-117887202D01*
X65878437Y-117887201D01*
X66014499Y-117873800D01*
X66105501Y-117873800D01*
X66241563Y-117887201D01*
X66241563Y-117887201D01*
G37*
G36*
X74257881Y-111740148D02*
X74422256Y-111772844D01*
X74654505Y-111869045D01*
X74654507Y-111869046D01*
X74863530Y-112008711D01*
X75041288Y-112186469D01*
X75180955Y-112395495D01*
X75277156Y-112627744D01*
X75326200Y-112874306D01*
X75326200Y-113125694D01*
X75277156Y-113372256D01*
X75180955Y-113604505D01*
X75180954Y-113604507D01*
X75041289Y-113813530D01*
X74863530Y-113991289D01*
X74654507Y-114130954D01*
X74654506Y-114130955D01*
X74654505Y-114130955D01*
X74422256Y-114227156D01*
X74257881Y-114259852D01*
X74175695Y-114276200D01*
X73924305Y-114276200D01*
X73842119Y-114259852D01*
X73677744Y-114227156D01*
X73445495Y-114130955D01*
X73445494Y-114130955D01*
X73445493Y-114130954D01*
X73236470Y-113991289D01*
X73058711Y-113813530D01*
X72919046Y-113604507D01*
X72919045Y-113604505D01*
X72822844Y-113372256D01*
X72773800Y-113125694D01*
X72773800Y-112874306D01*
X72822844Y-112627744D01*
X72919045Y-112395495D01*
X73058712Y-112186469D01*
X73236470Y-112008711D01*
X73445493Y-111869046D01*
X73445495Y-111869045D01*
X73677744Y-111772844D01*
X73842119Y-111740148D01*
X73924305Y-111723800D01*
X74175695Y-111723800D01*
X74257881Y-111740148D01*
X74257881Y-111740148D01*
G37*
G36*
X82826200Y-114276200D02*
X80273800Y-114276200D01*
X80273800Y-111723800D01*
X82826200Y-111723800D01*
X82826200Y-114276200D01*
X82826200Y-114276200D01*
G37*
G36*
X75563918Y-97215158D02*
X75759770Y-97296283D01*
X75759772Y-97296284D01*
X75847904Y-97355172D01*
X75936039Y-97414062D01*
X76085938Y-97563961D01*
X76203717Y-97740230D01*
X76284842Y-97936082D01*
X76326200Y-98144004D01*
X76326200Y-98355996D01*
X76284842Y-98563918D01*
X76203717Y-98759770D01*
X76085938Y-98936039D01*
X75936039Y-99085938D01*
X75847904Y-99144828D01*
X75759772Y-99203716D01*
X75759771Y-99203717D01*
X75759770Y-99203717D01*
X75563918Y-99284842D01*
X75355996Y-99326200D01*
X75144004Y-99326200D01*
X74936082Y-99284842D01*
X74740230Y-99203717D01*
X74740229Y-99203717D01*
X74740228Y-99203716D01*
X74652096Y-99144828D01*
X74563961Y-99085938D01*
X74414062Y-98936039D01*
X74296283Y-98759770D01*
X74215158Y-98563918D01*
X74173800Y-98355996D01*
X74173800Y-98144004D01*
X74215158Y-97936082D01*
X74296283Y-97740230D01*
X74414062Y-97563961D01*
X74563961Y-97414062D01*
X74652096Y-97355172D01*
X74740228Y-97296284D01*
X74740230Y-97296283D01*
X74936082Y-97215158D01*
X75144004Y-97173800D01*
X75355996Y-97173800D01*
X75563918Y-97215158D01*
X75563918Y-97215158D01*
G37*
G36*
X71326200Y-99326200D02*
X69173800Y-99326200D01*
X69173800Y-97173800D01*
X71326200Y-97173800D01*
X71326200Y-99326200D01*
X71326200Y-99326200D01*
G37*
G36*
X43426200Y-94826200D02*
X35273800Y-94826200D01*
X35273800Y-91673800D01*
X43426200Y-91673800D01*
X43426200Y-94826200D01*
X43426200Y-94826200D01*
G37*
G36*
X121826200Y-94476200D02*
X113673800Y-94476200D01*
X113673800Y-91323800D01*
X121826200Y-91323800D01*
X121826200Y-94476200D01*
X121826200Y-94476200D01*
G37*
G36*
X43426200Y-90826200D02*
X35273800Y-90826200D01*
X35273800Y-87673800D01*
X43426200Y-87673800D01*
X43426200Y-90826200D01*
X43426200Y-90826200D01*
G37*
G36*
X121826200Y-90476200D02*
X113673800Y-90476200D01*
X113673800Y-87323800D01*
X121826200Y-87323800D01*
X121826200Y-90476200D01*
X121826200Y-90476200D01*
G37*
G36*
X85026200Y-87876200D02*
X82873800Y-87876200D01*
X82873800Y-85723800D01*
X85026200Y-85723800D01*
X85026200Y-87876200D01*
X85026200Y-87876200D01*
G37*
G36*
X79263918Y-85765158D02*
X79459770Y-85846283D01*
X79459772Y-85846284D01*
X79547904Y-85905172D01*
X79636039Y-85964062D01*
X79785938Y-86113961D01*
X79903717Y-86290230D01*
X79984842Y-86486082D01*
X80026200Y-86694004D01*
X80026200Y-86905996D01*
X79984842Y-87113918D01*
X79903717Y-87309770D01*
X79903716Y-87309772D01*
X79844828Y-87397904D01*
X79785938Y-87486039D01*
X79636039Y-87635938D01*
X79579374Y-87673800D01*
X79459772Y-87753716D01*
X79459771Y-87753717D01*
X79459770Y-87753717D01*
X79263918Y-87834842D01*
X79055996Y-87876200D01*
X78844004Y-87876200D01*
X78636082Y-87834842D01*
X78440230Y-87753717D01*
X78440229Y-87753717D01*
X78440228Y-87753716D01*
X78320626Y-87673800D01*
X78263961Y-87635938D01*
X78114062Y-87486039D01*
X78055172Y-87397904D01*
X77996284Y-87309772D01*
X77996283Y-87309770D01*
X77915158Y-87113918D01*
X77873800Y-86905996D01*
X77873800Y-86694004D01*
X77915158Y-86486082D01*
X77996283Y-86290230D01*
X78114062Y-86113961D01*
X78263961Y-85964062D01*
X78352096Y-85905172D01*
X78440228Y-85846284D01*
X78440230Y-85846283D01*
X78636082Y-85765158D01*
X78844004Y-85723800D01*
X79055996Y-85723800D01*
X79263918Y-85765158D01*
X79263918Y-85765158D01*
G37*
G36*
X43426200Y-86826200D02*
X35273800Y-86826200D01*
X35273800Y-83673800D01*
X43426200Y-83673800D01*
X43426200Y-86826200D01*
X43426200Y-86826200D01*
G37*
G36*
X121826200Y-86476200D02*
X113673800Y-86476200D01*
X113673800Y-83323800D01*
X121826200Y-83323800D01*
X121826200Y-86476200D01*
X121826200Y-86476200D01*
G37*
G36*
X43426200Y-82826200D02*
X35273800Y-82826200D01*
X35273800Y-79673800D01*
X43426200Y-79673800D01*
X43426200Y-82826200D01*
X43426200Y-82826200D01*
G37*
G36*
X121826200Y-82476200D02*
X113673800Y-82476200D01*
X113673800Y-79323800D01*
X121826200Y-79323800D01*
X121826200Y-82476200D01*
X121826200Y-82476200D01*
G37*
G36*
X82207881Y-70790148D02*
X82372256Y-70822844D01*
X82604505Y-70919045D01*
X82604507Y-70919046D01*
X82813530Y-71058711D01*
X82991288Y-71236469D01*
X83130955Y-71445495D01*
X83227156Y-71677744D01*
X83276200Y-71924306D01*
X83276200Y-72175694D01*
X83227156Y-72422256D01*
X83130955Y-72654505D01*
X83130954Y-72654507D01*
X82991289Y-72863530D01*
X82813530Y-73041289D01*
X82604507Y-73180954D01*
X82604506Y-73180955D01*
X82604505Y-73180955D01*
X82372256Y-73277156D01*
X82207881Y-73309852D01*
X82125695Y-73326200D01*
X81874305Y-73326200D01*
X81792119Y-73309852D01*
X81627744Y-73277156D01*
X81395495Y-73180955D01*
X81395494Y-73180955D01*
X81395493Y-73180954D01*
X81186470Y-73041289D01*
X81008711Y-72863530D01*
X80869046Y-72654507D01*
X80869045Y-72654505D01*
X80772844Y-72422256D01*
X80723800Y-72175694D01*
X80723800Y-71924306D01*
X80772844Y-71677744D01*
X80869045Y-71445495D01*
X81008712Y-71236469D01*
X81186470Y-71058711D01*
X81395493Y-70919046D01*
X81395495Y-70919045D01*
X81627744Y-70822844D01*
X81792119Y-70790148D01*
X81874305Y-70773800D01*
X82125695Y-70773800D01*
X82207881Y-70790148D01*
X82207881Y-70790148D01*
G37*
G36*
X75776200Y-73326200D02*
X73223800Y-73326200D01*
X73223800Y-70773800D01*
X75776200Y-70773800D01*
X75776200Y-73326200D01*
X75776200Y-73326200D01*
G37*
G36*
X43568180Y-50330404D02*
X44546586Y-50735673D01*
X45427128Y-51324033D01*
X46175967Y-52072872D01*
X46764327Y-52953414D01*
X47169596Y-53931820D01*
X47376200Y-54970491D01*
X47376200Y-56029509D01*
X47169596Y-57068180D01*
X46764327Y-58046586D01*
X46175967Y-58927128D01*
X45427128Y-59675967D01*
X44546586Y-60264327D01*
X43568180Y-60669596D01*
X42529509Y-60876200D01*
X41470491Y-60876200D01*
X40431820Y-60669596D01*
X39453414Y-60264327D01*
X38572872Y-59675967D01*
X37824033Y-58927128D01*
X37235673Y-58046586D01*
X36830404Y-57068180D01*
X36623800Y-56029509D01*
X36623800Y-54970491D01*
X36830404Y-53931820D01*
X37235673Y-52953414D01*
X37824033Y-52072872D01*
X38572872Y-51324033D01*
X39453414Y-50735673D01*
X40431820Y-50330404D01*
X41470491Y-50123800D01*
X42529509Y-50123800D01*
X43568180Y-50330404D01*
X43568180Y-50330404D01*
G37*
G36*
X117468180Y-49830404D02*
X118446586Y-50235673D01*
X119327128Y-50824033D01*
X120075967Y-51572872D01*
X120664327Y-52453414D01*
X121069596Y-53431820D01*
X121276200Y-54470491D01*
X121276200Y-55529509D01*
X121069596Y-56568180D01*
X120664327Y-57546586D01*
X120075967Y-58427128D01*
X119327128Y-59175967D01*
X118446586Y-59764327D01*
X117468180Y-60169596D01*
X116429509Y-60376200D01*
X115370491Y-60376200D01*
X114331820Y-60169596D01*
X113353414Y-59764327D01*
X112472872Y-59175967D01*
X111724033Y-58427128D01*
X111135673Y-57546586D01*
X110730404Y-56568180D01*
X110523800Y-55529509D01*
X110523800Y-54470491D01*
X110730404Y-53431820D01*
X111135673Y-52453414D01*
X111724033Y-51572872D01*
X112472872Y-50824033D01*
X113353414Y-50235673D01*
X114331820Y-49830404D01*
X115370491Y-49623800D01*
X116429509Y-49623800D01*
X117468180Y-49830404D01*
X117468180Y-49830404D01*
G37*
M02*
