G04 #@! TF.GenerationSoftware,KiCad,Pcbnew,5.0.0*
G04 #@! TF.CreationDate,2018-08-14T07:29:03-04:00*
G04 #@! TF.ProjectId,peripherals,7065726970686572616C732E6B696361,rev?*
G04 #@! TF.SameCoordinates,Original*
G04 #@! TF.FileFunction,Soldermask,Bot*
G04 #@! TF.FilePolarity,Negative*
%FSLAX46Y46*%
G04 Gerber Fmt 4.6, Leading zero omitted, Abs format (unit mm)*
G04 Created by KiCad (PCBNEW 5.0.0) date Tue Aug 14 07:29:03 2018*
%MOMM*%
%LPD*%
G01*
G04 APERTURE LIST*
%ADD10C,0.100000*%
G04 APERTURE END LIST*
D10*
G36*
X141068180Y-158830404D02*
X142046586Y-159235673D01*
X142927128Y-159824033D01*
X143675967Y-160572872D01*
X144264327Y-161453414D01*
X144669596Y-162431820D01*
X144876200Y-163470491D01*
X144876200Y-164529509D01*
X144669596Y-165568180D01*
X144264327Y-166546586D01*
X143675967Y-167427128D01*
X142927128Y-168175967D01*
X142046586Y-168764327D01*
X141068180Y-169169596D01*
X140029509Y-169376200D01*
X138970491Y-169376200D01*
X137931820Y-169169596D01*
X136953414Y-168764327D01*
X136072872Y-168175967D01*
X135324033Y-167427128D01*
X134735673Y-166546586D01*
X134330404Y-165568180D01*
X134123800Y-164529509D01*
X134123800Y-163470491D01*
X134330404Y-162431820D01*
X134735673Y-161453414D01*
X135324033Y-160572872D01*
X136072872Y-159824033D01*
X136953414Y-159235673D01*
X137931820Y-158830404D01*
X138970491Y-158623800D01*
X140029509Y-158623800D01*
X141068180Y-158830404D01*
X141068180Y-158830404D01*
G37*
G36*
X43568180Y-158830404D02*
X44546586Y-159235673D01*
X45427128Y-159824033D01*
X46175967Y-160572872D01*
X46764327Y-161453414D01*
X47169596Y-162431820D01*
X47376200Y-163470491D01*
X47376200Y-164529509D01*
X47169596Y-165568180D01*
X46764327Y-166546586D01*
X46175967Y-167427128D01*
X45427128Y-168175967D01*
X44546586Y-168764327D01*
X43568180Y-169169596D01*
X42529509Y-169376200D01*
X41470491Y-169376200D01*
X40431820Y-169169596D01*
X39453414Y-168764327D01*
X38572872Y-168175967D01*
X37824033Y-167427128D01*
X37235673Y-166546586D01*
X36830404Y-165568180D01*
X36623800Y-164529509D01*
X36623800Y-163470491D01*
X36830404Y-162431820D01*
X37235673Y-161453414D01*
X37824033Y-160572872D01*
X38572872Y-159824033D01*
X39453414Y-159235673D01*
X40431820Y-158830404D01*
X41470491Y-158623800D01*
X42529509Y-158623800D01*
X43568180Y-158830404D01*
X43568180Y-158830404D01*
G37*
G36*
X128676200Y-163526200D02*
X126523800Y-163526200D01*
X126523800Y-161373800D01*
X128676200Y-161373800D01*
X128676200Y-163526200D01*
X128676200Y-163526200D01*
G37*
G36*
X122913918Y-161415158D02*
X123109770Y-161496283D01*
X123109772Y-161496284D01*
X123197904Y-161555172D01*
X123286039Y-161614062D01*
X123435938Y-161763961D01*
X123553717Y-161940230D01*
X123634842Y-162136082D01*
X123676200Y-162344004D01*
X123676200Y-162555996D01*
X123634842Y-162763918D01*
X123553717Y-162959770D01*
X123435938Y-163136039D01*
X123286039Y-163285938D01*
X123197904Y-163344828D01*
X123109772Y-163403716D01*
X123109771Y-163403717D01*
X123109770Y-163403717D01*
X122913918Y-163484842D01*
X122705996Y-163526200D01*
X122494004Y-163526200D01*
X122286082Y-163484842D01*
X122090230Y-163403717D01*
X122090229Y-163403717D01*
X122090228Y-163403716D01*
X122002096Y-163344828D01*
X121913961Y-163285938D01*
X121764062Y-163136039D01*
X121646283Y-162959770D01*
X121565158Y-162763918D01*
X121523800Y-162555996D01*
X121523800Y-162344004D01*
X121565158Y-162136082D01*
X121646283Y-161940230D01*
X121764062Y-161763961D01*
X121913961Y-161614062D01*
X122002096Y-161555172D01*
X122090228Y-161496284D01*
X122090230Y-161496283D01*
X122286082Y-161415158D01*
X122494004Y-161373800D01*
X122705996Y-161373800D01*
X122913918Y-161415158D01*
X122913918Y-161415158D01*
G37*
G36*
X114776200Y-159926200D02*
X112223800Y-159926200D01*
X112223800Y-157373800D01*
X114776200Y-157373800D01*
X114776200Y-159926200D01*
X114776200Y-159926200D01*
G37*
G36*
X106207881Y-157390148D02*
X106372256Y-157422844D01*
X106604505Y-157519045D01*
X106604507Y-157519046D01*
X106813530Y-157658711D01*
X106991288Y-157836469D01*
X107130955Y-158045495D01*
X107227156Y-158277744D01*
X107276200Y-158524306D01*
X107276200Y-158775694D01*
X107227156Y-159022256D01*
X107138756Y-159235672D01*
X107130954Y-159254507D01*
X106991289Y-159463530D01*
X106813530Y-159641289D01*
X106604507Y-159780954D01*
X106604506Y-159780955D01*
X106604505Y-159780955D01*
X106372256Y-159877156D01*
X106207881Y-159909852D01*
X106125695Y-159926200D01*
X105874305Y-159926200D01*
X105792119Y-159909852D01*
X105627744Y-159877156D01*
X105395495Y-159780955D01*
X105395494Y-159780955D01*
X105395493Y-159780954D01*
X105186470Y-159641289D01*
X105008711Y-159463530D01*
X104869046Y-159254507D01*
X104861244Y-159235672D01*
X104772844Y-159022256D01*
X104723800Y-158775694D01*
X104723800Y-158524306D01*
X104772844Y-158277744D01*
X104869045Y-158045495D01*
X105008712Y-157836469D01*
X105186470Y-157658711D01*
X105395493Y-157519046D01*
X105395495Y-157519045D01*
X105627744Y-157422844D01*
X105792119Y-157390148D01*
X105874305Y-157373800D01*
X106125695Y-157373800D01*
X106207881Y-157390148D01*
X106207881Y-157390148D01*
G37*
G36*
X75807881Y-145640148D02*
X75972256Y-145672844D01*
X76204505Y-145769045D01*
X76204507Y-145769046D01*
X76413530Y-145908711D01*
X76591288Y-146086469D01*
X76730955Y-146295495D01*
X76827156Y-146527744D01*
X76876200Y-146774306D01*
X76876200Y-147025694D01*
X76827156Y-147272256D01*
X76730955Y-147504505D01*
X76730954Y-147504507D01*
X76591289Y-147713530D01*
X76413530Y-147891289D01*
X76204507Y-148030954D01*
X76204506Y-148030955D01*
X76204505Y-148030955D01*
X75972256Y-148127156D01*
X75807881Y-148159852D01*
X75725695Y-148176200D01*
X75474305Y-148176200D01*
X75392119Y-148159852D01*
X75227744Y-148127156D01*
X74995495Y-148030955D01*
X74995494Y-148030955D01*
X74995493Y-148030954D01*
X74786470Y-147891289D01*
X74608711Y-147713530D01*
X74469046Y-147504507D01*
X74469045Y-147504505D01*
X74372844Y-147272256D01*
X74323800Y-147025694D01*
X74323800Y-146774306D01*
X74372844Y-146527744D01*
X74469045Y-146295495D01*
X74608712Y-146086469D01*
X74786470Y-145908711D01*
X74995493Y-145769046D01*
X74995495Y-145769045D01*
X75227744Y-145672844D01*
X75392119Y-145640148D01*
X75474305Y-145623800D01*
X75725695Y-145623800D01*
X75807881Y-145640148D01*
X75807881Y-145640148D01*
G37*
G36*
X69376200Y-148176200D02*
X66823800Y-148176200D01*
X66823800Y-145623800D01*
X69376200Y-145623800D01*
X69376200Y-148176200D01*
X69376200Y-148176200D01*
G37*
G36*
X55076200Y-144176200D02*
X52923800Y-144176200D01*
X52923800Y-142023800D01*
X55076200Y-142023800D01*
X55076200Y-144176200D01*
X55076200Y-144176200D01*
G37*
G36*
X59313918Y-142065158D02*
X59509770Y-142146283D01*
X59509772Y-142146284D01*
X59597904Y-142205172D01*
X59686039Y-142264062D01*
X59835938Y-142413961D01*
X59953717Y-142590230D01*
X60034842Y-142786082D01*
X60076200Y-142994004D01*
X60076200Y-143205996D01*
X60034842Y-143413918D01*
X59953717Y-143609770D01*
X59835938Y-143786039D01*
X59686039Y-143935938D01*
X59597905Y-143994827D01*
X59509772Y-144053716D01*
X59509771Y-144053717D01*
X59509770Y-144053717D01*
X59313918Y-144134842D01*
X59105996Y-144176200D01*
X58894004Y-144176200D01*
X58686082Y-144134842D01*
X58490230Y-144053717D01*
X58490229Y-144053717D01*
X58490228Y-144053716D01*
X58402095Y-143994827D01*
X58313961Y-143935938D01*
X58164062Y-143786039D01*
X58046283Y-143609770D01*
X57965158Y-143413918D01*
X57923800Y-143205996D01*
X57923800Y-142994004D01*
X57965158Y-142786082D01*
X58046283Y-142590230D01*
X58164062Y-142413961D01*
X58313961Y-142264062D01*
X58402096Y-142205172D01*
X58490228Y-142146284D01*
X58490230Y-142146283D01*
X58686082Y-142065158D01*
X58894004Y-142023800D01*
X59105996Y-142023800D01*
X59313918Y-142065158D01*
X59313918Y-142065158D01*
G37*
G36*
X128676200Y-133526200D02*
X126523800Y-133526200D01*
X126523800Y-131373800D01*
X128676200Y-131373800D01*
X128676200Y-133526200D01*
X128676200Y-133526200D01*
G37*
G36*
X122913918Y-131415158D02*
X123109770Y-131496283D01*
X123109772Y-131496284D01*
X123197904Y-131555172D01*
X123286039Y-131614062D01*
X123435938Y-131763961D01*
X123553717Y-131940230D01*
X123634842Y-132136082D01*
X123676200Y-132344004D01*
X123676200Y-132555996D01*
X123634842Y-132763918D01*
X123553717Y-132959770D01*
X123435938Y-133136039D01*
X123286039Y-133285938D01*
X123197904Y-133344828D01*
X123109772Y-133403716D01*
X123109771Y-133403717D01*
X123109770Y-133403717D01*
X122913918Y-133484842D01*
X122705996Y-133526200D01*
X122494004Y-133526200D01*
X122286082Y-133484842D01*
X122090230Y-133403717D01*
X122090229Y-133403717D01*
X122090228Y-133403716D01*
X122002095Y-133344827D01*
X121913961Y-133285938D01*
X121764062Y-133136039D01*
X121646283Y-132959770D01*
X121565158Y-132763918D01*
X121523800Y-132555996D01*
X121523800Y-132344004D01*
X121565158Y-132136082D01*
X121646283Y-131940230D01*
X121764062Y-131763961D01*
X121913961Y-131614062D01*
X122002096Y-131555172D01*
X122090228Y-131496284D01*
X122090230Y-131496283D01*
X122286082Y-131415158D01*
X122494004Y-131373800D01*
X122705996Y-131373800D01*
X122913918Y-131415158D01*
X122913918Y-131415158D01*
G37*
G36*
X106207881Y-127390148D02*
X106372256Y-127422844D01*
X106604505Y-127519045D01*
X106604507Y-127519046D01*
X106813530Y-127658711D01*
X106991288Y-127836469D01*
X107130955Y-128045495D01*
X107227156Y-128277744D01*
X107276200Y-128524306D01*
X107276200Y-128775694D01*
X107227156Y-129022256D01*
X107130955Y-129254505D01*
X107130954Y-129254507D01*
X106991289Y-129463530D01*
X106813530Y-129641289D01*
X106604507Y-129780954D01*
X106604506Y-129780955D01*
X106604505Y-129780955D01*
X106372256Y-129877156D01*
X106207881Y-129909852D01*
X106125695Y-129926200D01*
X105874305Y-129926200D01*
X105792119Y-129909852D01*
X105627744Y-129877156D01*
X105395495Y-129780955D01*
X105395494Y-129780955D01*
X105395493Y-129780954D01*
X105186470Y-129641289D01*
X105008711Y-129463530D01*
X104869046Y-129254507D01*
X104869045Y-129254505D01*
X104772844Y-129022256D01*
X104723800Y-128775694D01*
X104723800Y-128524306D01*
X104772844Y-128277744D01*
X104869045Y-128045495D01*
X105008712Y-127836469D01*
X105186470Y-127658711D01*
X105395493Y-127519046D01*
X105395495Y-127519045D01*
X105627744Y-127422844D01*
X105792119Y-127390148D01*
X105874305Y-127373800D01*
X106125695Y-127373800D01*
X106207881Y-127390148D01*
X106207881Y-127390148D01*
G37*
G36*
X114776200Y-129926200D02*
X112223800Y-129926200D01*
X112223800Y-127373800D01*
X114776200Y-127373800D01*
X114776200Y-129926200D01*
X114776200Y-129926200D01*
G37*
G36*
X44376200Y-126426200D02*
X36223800Y-126426200D01*
X36223800Y-120273800D01*
X44376200Y-120273800D01*
X44376200Y-126426200D01*
X44376200Y-126426200D01*
G37*
G36*
X86026200Y-121676200D02*
X84173800Y-121676200D01*
X84173800Y-119823800D01*
X86026200Y-119823800D01*
X86026200Y-121676200D01*
X86026200Y-121676200D01*
G37*
G36*
X90126200Y-121576200D02*
X88273800Y-121576200D01*
X88273800Y-119723800D01*
X90126200Y-119723800D01*
X90126200Y-121576200D01*
X90126200Y-121576200D01*
G37*
G36*
X85281563Y-117297201D02*
X85281566Y-117297202D01*
X85281567Y-117297202D01*
X85456156Y-117350163D01*
X85617059Y-117436167D01*
X85758091Y-117551909D01*
X85873833Y-117692941D01*
X85959837Y-117853844D01*
X85982465Y-117928437D01*
X86012799Y-118028437D01*
X86030682Y-118210000D01*
X86012799Y-118391563D01*
X86012798Y-118391566D01*
X86012798Y-118391567D01*
X85959837Y-118566156D01*
X85873833Y-118727059D01*
X85758091Y-118868091D01*
X85617059Y-118983833D01*
X85456156Y-119069837D01*
X85281567Y-119122798D01*
X85281566Y-119122798D01*
X85281563Y-119122799D01*
X85145501Y-119136200D01*
X85054499Y-119136200D01*
X84918437Y-119122799D01*
X84918434Y-119122798D01*
X84918433Y-119122798D01*
X84743844Y-119069837D01*
X84582941Y-118983833D01*
X84441909Y-118868091D01*
X84326167Y-118727059D01*
X84240163Y-118566156D01*
X84187202Y-118391567D01*
X84187202Y-118391566D01*
X84187201Y-118391563D01*
X84169318Y-118210000D01*
X84187201Y-118028437D01*
X84217536Y-117928437D01*
X84240163Y-117853844D01*
X84326167Y-117692941D01*
X84441909Y-117551909D01*
X84582941Y-117436167D01*
X84743844Y-117350163D01*
X84918433Y-117297202D01*
X84918434Y-117297202D01*
X84918437Y-117297201D01*
X85054499Y-117283800D01*
X85145501Y-117283800D01*
X85281563Y-117297201D01*
X85281563Y-117297201D01*
G37*
G36*
X89381563Y-117197201D02*
X89381566Y-117197202D01*
X89381567Y-117197202D01*
X89556156Y-117250163D01*
X89717059Y-117336167D01*
X89717061Y-117336168D01*
X89717060Y-117336168D01*
X89858091Y-117451909D01*
X89973832Y-117592940D01*
X90059837Y-117753844D01*
X90112799Y-117928437D01*
X90130682Y-118110000D01*
X90112799Y-118291563D01*
X90112798Y-118291566D01*
X90112798Y-118291567D01*
X90059837Y-118466156D01*
X89973833Y-118627059D01*
X89858091Y-118768091D01*
X89717059Y-118883833D01*
X89556156Y-118969837D01*
X89381567Y-119022798D01*
X89381566Y-119022798D01*
X89381563Y-119022799D01*
X89245501Y-119036200D01*
X89154499Y-119036200D01*
X89018437Y-119022799D01*
X89018434Y-119022798D01*
X89018433Y-119022798D01*
X88843844Y-118969837D01*
X88682941Y-118883833D01*
X88541909Y-118768091D01*
X88426167Y-118627059D01*
X88340163Y-118466156D01*
X88287202Y-118291567D01*
X88287202Y-118291566D01*
X88287201Y-118291563D01*
X88269318Y-118110000D01*
X88287201Y-117928437D01*
X88340163Y-117753844D01*
X88426168Y-117592940D01*
X88541909Y-117451909D01*
X88682940Y-117336168D01*
X88682939Y-117336168D01*
X88682941Y-117336167D01*
X88843844Y-117250163D01*
X89018433Y-117197202D01*
X89018434Y-117197202D01*
X89018437Y-117197201D01*
X89154499Y-117183800D01*
X89245501Y-117183800D01*
X89381563Y-117197201D01*
X89381563Y-117197201D01*
G37*
G36*
X44376200Y-118426200D02*
X36223800Y-118426200D01*
X36223800Y-112273800D01*
X44376200Y-112273800D01*
X44376200Y-118426200D01*
X44376200Y-118426200D01*
G37*
G36*
X75807881Y-115640148D02*
X75972256Y-115672844D01*
X76204505Y-115769045D01*
X76204507Y-115769046D01*
X76413530Y-115908711D01*
X76591289Y-116086470D01*
X76658501Y-116187059D01*
X76730955Y-116295495D01*
X76827156Y-116527744D01*
X76876200Y-116774306D01*
X76876200Y-117025694D01*
X76827156Y-117272256D01*
X76759261Y-117436168D01*
X76730954Y-117504507D01*
X76591289Y-117713530D01*
X76413530Y-117891289D01*
X76204507Y-118030954D01*
X76204506Y-118030955D01*
X76204505Y-118030955D01*
X75972256Y-118127156D01*
X75807881Y-118159852D01*
X75725695Y-118176200D01*
X75474305Y-118176200D01*
X75392119Y-118159852D01*
X75227744Y-118127156D01*
X74995495Y-118030955D01*
X74995494Y-118030955D01*
X74995493Y-118030954D01*
X74786470Y-117891289D01*
X74608711Y-117713530D01*
X74469046Y-117504507D01*
X74440739Y-117436168D01*
X74372844Y-117272256D01*
X74323800Y-117025694D01*
X74323800Y-116774306D01*
X74372844Y-116527744D01*
X74469045Y-116295495D01*
X74541500Y-116187059D01*
X74608711Y-116086470D01*
X74786470Y-115908711D01*
X74995493Y-115769046D01*
X74995495Y-115769045D01*
X75227744Y-115672844D01*
X75392119Y-115640148D01*
X75474305Y-115623800D01*
X75725695Y-115623800D01*
X75807881Y-115640148D01*
X75807881Y-115640148D01*
G37*
G36*
X69376200Y-118176200D02*
X66823800Y-118176200D01*
X66823800Y-115623800D01*
X69376200Y-115623800D01*
X69376200Y-118176200D01*
X69376200Y-118176200D01*
G37*
G36*
X145526200Y-117376200D02*
X137373800Y-117376200D01*
X137373800Y-111223800D01*
X145526200Y-111223800D01*
X145526200Y-117376200D01*
X145526200Y-117376200D01*
G37*
G36*
X85281563Y-114757201D02*
X85281566Y-114757202D01*
X85281567Y-114757202D01*
X85456156Y-114810163D01*
X85617059Y-114896167D01*
X85758091Y-115011909D01*
X85873833Y-115152941D01*
X85959837Y-115313844D01*
X85982465Y-115388437D01*
X86012799Y-115488437D01*
X86030682Y-115670000D01*
X86012799Y-115851563D01*
X86012798Y-115851566D01*
X86012798Y-115851567D01*
X85959837Y-116026156D01*
X85873833Y-116187059D01*
X85758091Y-116328091D01*
X85617059Y-116443833D01*
X85456156Y-116529837D01*
X85281567Y-116582798D01*
X85281566Y-116582798D01*
X85281563Y-116582799D01*
X85145501Y-116596200D01*
X85054499Y-116596200D01*
X84918437Y-116582799D01*
X84918434Y-116582798D01*
X84918433Y-116582798D01*
X84743844Y-116529837D01*
X84582941Y-116443833D01*
X84441909Y-116328091D01*
X84326167Y-116187059D01*
X84240163Y-116026156D01*
X84187202Y-115851567D01*
X84187202Y-115851566D01*
X84187201Y-115851563D01*
X84169318Y-115670000D01*
X84187201Y-115488437D01*
X84217536Y-115388437D01*
X84240163Y-115313844D01*
X84326167Y-115152941D01*
X84441909Y-115011909D01*
X84582941Y-114896167D01*
X84743844Y-114810163D01*
X84918433Y-114757202D01*
X84918434Y-114757202D01*
X84918437Y-114757201D01*
X85054499Y-114743800D01*
X85145501Y-114743800D01*
X85281563Y-114757201D01*
X85281563Y-114757201D01*
G37*
G36*
X89381563Y-114657201D02*
X89381566Y-114657202D01*
X89381567Y-114657202D01*
X89556156Y-114710163D01*
X89717059Y-114796167D01*
X89717061Y-114796168D01*
X89717060Y-114796168D01*
X89858091Y-114911909D01*
X89973832Y-115052940D01*
X90059837Y-115213844D01*
X90112799Y-115388437D01*
X90130682Y-115570000D01*
X90112799Y-115751563D01*
X90112798Y-115751566D01*
X90112798Y-115751567D01*
X90059837Y-115926156D01*
X89973833Y-116087059D01*
X89858091Y-116228091D01*
X89717059Y-116343833D01*
X89556156Y-116429837D01*
X89381567Y-116482798D01*
X89381566Y-116482798D01*
X89381563Y-116482799D01*
X89245501Y-116496200D01*
X89154499Y-116496200D01*
X89018437Y-116482799D01*
X89018434Y-116482798D01*
X89018433Y-116482798D01*
X88843844Y-116429837D01*
X88682941Y-116343833D01*
X88541909Y-116228091D01*
X88426167Y-116087059D01*
X88340163Y-115926156D01*
X88287202Y-115751567D01*
X88287202Y-115751566D01*
X88287201Y-115751563D01*
X88269318Y-115570000D01*
X88287201Y-115388437D01*
X88340163Y-115213844D01*
X88426168Y-115052940D01*
X88541909Y-114911909D01*
X88682940Y-114796168D01*
X88682939Y-114796168D01*
X88682941Y-114796167D01*
X88843844Y-114710163D01*
X89018433Y-114657202D01*
X89018434Y-114657202D01*
X89018437Y-114657201D01*
X89154499Y-114643800D01*
X89245501Y-114643800D01*
X89381563Y-114657201D01*
X89381563Y-114657201D01*
G37*
G36*
X59313918Y-112065158D02*
X59509770Y-112146283D01*
X59509772Y-112146284D01*
X59545509Y-112170163D01*
X59686039Y-112264062D01*
X59835938Y-112413961D01*
X59953717Y-112590230D01*
X60034842Y-112786082D01*
X60076200Y-112994004D01*
X60076200Y-113205996D01*
X60034842Y-113413918D01*
X59979693Y-113547059D01*
X59953716Y-113609772D01*
X59928801Y-113647060D01*
X59835938Y-113786039D01*
X59686039Y-113935938D01*
X59605373Y-113989837D01*
X59509772Y-114053716D01*
X59509771Y-114053717D01*
X59509770Y-114053717D01*
X59313918Y-114134842D01*
X59105996Y-114176200D01*
X58894004Y-114176200D01*
X58686082Y-114134842D01*
X58490230Y-114053717D01*
X58490229Y-114053717D01*
X58490228Y-114053716D01*
X58394627Y-113989837D01*
X58313961Y-113935938D01*
X58164062Y-113786039D01*
X58071199Y-113647060D01*
X58046284Y-113609772D01*
X58020307Y-113547059D01*
X57965158Y-113413918D01*
X57923800Y-113205996D01*
X57923800Y-112994004D01*
X57965158Y-112786082D01*
X58046283Y-112590230D01*
X58164062Y-112413961D01*
X58313961Y-112264062D01*
X58454491Y-112170163D01*
X58490228Y-112146284D01*
X58490230Y-112146283D01*
X58686082Y-112065158D01*
X58894004Y-112023800D01*
X59105996Y-112023800D01*
X59313918Y-112065158D01*
X59313918Y-112065158D01*
G37*
G36*
X55076200Y-114176200D02*
X52923800Y-114176200D01*
X52923800Y-112023800D01*
X55076200Y-112023800D01*
X55076200Y-114176200D01*
X55076200Y-114176200D01*
G37*
G36*
X85281563Y-112217201D02*
X85281566Y-112217202D01*
X85281567Y-112217202D01*
X85456156Y-112270163D01*
X85617059Y-112356167D01*
X85758091Y-112471909D01*
X85873833Y-112612941D01*
X85959837Y-112773844D01*
X85982465Y-112848437D01*
X86012799Y-112948437D01*
X86030682Y-113130000D01*
X86012799Y-113311563D01*
X86012798Y-113311566D01*
X86012798Y-113311567D01*
X85959837Y-113486156D01*
X85873833Y-113647059D01*
X85758091Y-113788091D01*
X85617059Y-113903833D01*
X85456156Y-113989837D01*
X85281567Y-114042798D01*
X85281566Y-114042798D01*
X85281563Y-114042799D01*
X85145501Y-114056200D01*
X85054499Y-114056200D01*
X84918437Y-114042799D01*
X84918434Y-114042798D01*
X84918433Y-114042798D01*
X84743844Y-113989837D01*
X84582941Y-113903833D01*
X84441909Y-113788091D01*
X84326167Y-113647059D01*
X84240163Y-113486156D01*
X84187202Y-113311567D01*
X84187202Y-113311566D01*
X84187201Y-113311563D01*
X84169318Y-113130000D01*
X84187201Y-112948437D01*
X84217536Y-112848437D01*
X84240163Y-112773844D01*
X84326167Y-112612941D01*
X84441909Y-112471909D01*
X84582941Y-112356167D01*
X84743844Y-112270163D01*
X84918433Y-112217202D01*
X84918434Y-112217202D01*
X84918437Y-112217201D01*
X85054499Y-112203800D01*
X85145501Y-112203800D01*
X85281563Y-112217201D01*
X85281563Y-112217201D01*
G37*
G36*
X89381563Y-112117201D02*
X89381566Y-112117202D01*
X89381567Y-112117202D01*
X89556156Y-112170163D01*
X89717059Y-112256167D01*
X89858091Y-112371909D01*
X89973833Y-112512941D01*
X90059837Y-112673844D01*
X90093885Y-112786084D01*
X90112799Y-112848437D01*
X90130682Y-113030000D01*
X90112799Y-113211563D01*
X90112798Y-113211566D01*
X90112798Y-113211567D01*
X90059837Y-113386156D01*
X89973833Y-113547059D01*
X89858091Y-113688091D01*
X89717059Y-113803833D01*
X89556156Y-113889837D01*
X89381567Y-113942798D01*
X89381566Y-113942798D01*
X89381563Y-113942799D01*
X89245501Y-113956200D01*
X89154499Y-113956200D01*
X89018437Y-113942799D01*
X89018434Y-113942798D01*
X89018433Y-113942798D01*
X88843844Y-113889837D01*
X88682941Y-113803833D01*
X88541909Y-113688091D01*
X88426167Y-113547059D01*
X88340163Y-113386156D01*
X88287202Y-113211567D01*
X88287202Y-113211566D01*
X88287201Y-113211563D01*
X88269318Y-113030000D01*
X88287201Y-112848437D01*
X88306116Y-112786084D01*
X88340163Y-112673844D01*
X88426167Y-112512941D01*
X88541909Y-112371909D01*
X88682941Y-112256167D01*
X88843844Y-112170163D01*
X89018433Y-112117202D01*
X89018434Y-112117202D01*
X89018437Y-112117201D01*
X89154499Y-112103800D01*
X89245501Y-112103800D01*
X89381563Y-112117201D01*
X89381563Y-112117201D01*
G37*
G36*
X85281563Y-109677201D02*
X85281566Y-109677202D01*
X85281567Y-109677202D01*
X85456156Y-109730163D01*
X85617059Y-109816167D01*
X85758091Y-109931909D01*
X85873833Y-110072941D01*
X85959837Y-110233844D01*
X85982465Y-110308437D01*
X86012799Y-110408437D01*
X86030682Y-110590000D01*
X86012799Y-110771563D01*
X86012798Y-110771566D01*
X86012798Y-110771567D01*
X85959837Y-110946156D01*
X85873833Y-111107059D01*
X85758091Y-111248091D01*
X85617059Y-111363833D01*
X85456156Y-111449837D01*
X85281567Y-111502798D01*
X85281566Y-111502798D01*
X85281563Y-111502799D01*
X85145501Y-111516200D01*
X85054499Y-111516200D01*
X84918437Y-111502799D01*
X84918434Y-111502798D01*
X84918433Y-111502798D01*
X84743844Y-111449837D01*
X84582941Y-111363833D01*
X84441909Y-111248091D01*
X84326167Y-111107059D01*
X84240163Y-110946156D01*
X84187202Y-110771567D01*
X84187202Y-110771566D01*
X84187201Y-110771563D01*
X84169318Y-110590000D01*
X84187201Y-110408437D01*
X84217536Y-110308437D01*
X84240163Y-110233844D01*
X84326167Y-110072941D01*
X84441909Y-109931909D01*
X84582941Y-109816167D01*
X84743844Y-109730163D01*
X84918433Y-109677202D01*
X84918434Y-109677202D01*
X84918437Y-109677201D01*
X85054499Y-109663800D01*
X85145501Y-109663800D01*
X85281563Y-109677201D01*
X85281563Y-109677201D01*
G37*
G36*
X89381563Y-109577201D02*
X89381566Y-109577202D01*
X89381567Y-109577202D01*
X89556156Y-109630163D01*
X89717059Y-109716167D01*
X89717061Y-109716168D01*
X89717060Y-109716168D01*
X89858091Y-109831909D01*
X89973832Y-109972940D01*
X90059837Y-110133844D01*
X90112799Y-110308437D01*
X90130682Y-110490000D01*
X90112799Y-110671563D01*
X90112798Y-110671566D01*
X90112798Y-110671567D01*
X90059837Y-110846156D01*
X89973833Y-111007059D01*
X89858091Y-111148091D01*
X89717059Y-111263833D01*
X89556156Y-111349837D01*
X89381567Y-111402798D01*
X89381566Y-111402798D01*
X89381563Y-111402799D01*
X89245501Y-111416200D01*
X89154499Y-111416200D01*
X89018437Y-111402799D01*
X89018434Y-111402798D01*
X89018433Y-111402798D01*
X88843844Y-111349837D01*
X88682941Y-111263833D01*
X88541909Y-111148091D01*
X88426167Y-111007059D01*
X88340163Y-110846156D01*
X88287202Y-110671567D01*
X88287202Y-110671566D01*
X88287201Y-110671563D01*
X88269318Y-110490000D01*
X88287201Y-110308437D01*
X88340163Y-110133844D01*
X88426168Y-109972940D01*
X88541909Y-109831909D01*
X88682940Y-109716168D01*
X88682939Y-109716168D01*
X88682941Y-109716167D01*
X88843844Y-109630163D01*
X89018433Y-109577202D01*
X89018434Y-109577202D01*
X89018437Y-109577201D01*
X89154499Y-109563800D01*
X89245501Y-109563800D01*
X89381563Y-109577201D01*
X89381563Y-109577201D01*
G37*
G36*
X44376200Y-110426200D02*
X36223800Y-110426200D01*
X36223800Y-104273800D01*
X44376200Y-104273800D01*
X44376200Y-110426200D01*
X44376200Y-110426200D01*
G37*
G36*
X145526200Y-109376200D02*
X137373800Y-109376200D01*
X137373800Y-103223800D01*
X145526200Y-103223800D01*
X145526200Y-109376200D01*
X145526200Y-109376200D01*
G37*
G36*
X93181563Y-101797201D02*
X93181566Y-101797202D01*
X93181567Y-101797202D01*
X93356156Y-101850163D01*
X93517059Y-101936167D01*
X93517061Y-101936168D01*
X93517060Y-101936168D01*
X93658091Y-102051909D01*
X93773832Y-102192940D01*
X93859837Y-102353844D01*
X93912799Y-102528437D01*
X93930682Y-102710000D01*
X93912799Y-102891563D01*
X93912798Y-102891566D01*
X93912798Y-102891567D01*
X93859837Y-103066156D01*
X93773833Y-103227059D01*
X93658091Y-103368091D01*
X93517059Y-103483833D01*
X93356156Y-103569837D01*
X93181567Y-103622798D01*
X93181566Y-103622798D01*
X93181563Y-103622799D01*
X93045501Y-103636200D01*
X92954499Y-103636200D01*
X92818437Y-103622799D01*
X92818434Y-103622798D01*
X92818433Y-103622798D01*
X92643844Y-103569837D01*
X92482941Y-103483833D01*
X92341909Y-103368091D01*
X92226167Y-103227059D01*
X92140163Y-103066156D01*
X92087202Y-102891567D01*
X92087202Y-102891566D01*
X92087201Y-102891563D01*
X92069318Y-102710000D01*
X92087201Y-102528437D01*
X92140163Y-102353844D01*
X92226168Y-102192940D01*
X92341909Y-102051909D01*
X92482940Y-101936168D01*
X92482939Y-101936168D01*
X92482941Y-101936167D01*
X92643844Y-101850163D01*
X92818433Y-101797202D01*
X92818434Y-101797202D01*
X92818437Y-101797201D01*
X92954499Y-101783800D01*
X93045501Y-101783800D01*
X93181563Y-101797201D01*
X93181563Y-101797201D01*
G37*
G36*
X97481563Y-101797201D02*
X97481566Y-101797202D01*
X97481567Y-101797202D01*
X97656156Y-101850163D01*
X97817059Y-101936167D01*
X97817061Y-101936168D01*
X97817060Y-101936168D01*
X97958091Y-102051909D01*
X98073832Y-102192940D01*
X98159837Y-102353844D01*
X98212799Y-102528437D01*
X98230682Y-102710000D01*
X98212799Y-102891563D01*
X98212798Y-102891566D01*
X98212798Y-102891567D01*
X98159837Y-103066156D01*
X98073833Y-103227059D01*
X97958091Y-103368091D01*
X97817059Y-103483833D01*
X97656156Y-103569837D01*
X97481567Y-103622798D01*
X97481566Y-103622798D01*
X97481563Y-103622799D01*
X97345501Y-103636200D01*
X97254499Y-103636200D01*
X97118437Y-103622799D01*
X97118434Y-103622798D01*
X97118433Y-103622798D01*
X96943844Y-103569837D01*
X96782941Y-103483833D01*
X96641909Y-103368091D01*
X96526167Y-103227059D01*
X96440163Y-103066156D01*
X96387202Y-102891567D01*
X96387202Y-102891566D01*
X96387201Y-102891563D01*
X96369318Y-102710000D01*
X96387201Y-102528437D01*
X96440163Y-102353844D01*
X96526168Y-102192940D01*
X96641909Y-102051909D01*
X96782940Y-101936168D01*
X96782939Y-101936168D01*
X96782941Y-101936167D01*
X96943844Y-101850163D01*
X97118433Y-101797202D01*
X97118434Y-101797202D01*
X97118437Y-101797201D01*
X97254499Y-101783800D01*
X97345501Y-101783800D01*
X97481563Y-101797201D01*
X97481563Y-101797201D01*
G37*
G36*
X128676200Y-103526200D02*
X126523800Y-103526200D01*
X126523800Y-101373800D01*
X128676200Y-101373800D01*
X128676200Y-103526200D01*
X128676200Y-103526200D01*
G37*
G36*
X122913918Y-101415158D02*
X123109770Y-101496283D01*
X123109772Y-101496284D01*
X123197904Y-101555172D01*
X123286039Y-101614062D01*
X123435938Y-101763961D01*
X123435939Y-101763963D01*
X123551003Y-101936167D01*
X123553717Y-101940230D01*
X123634842Y-102136082D01*
X123676200Y-102344004D01*
X123676200Y-102555996D01*
X123634842Y-102763918D01*
X123553717Y-102959770D01*
X123435938Y-103136039D01*
X123286039Y-103285938D01*
X123197905Y-103344827D01*
X123109772Y-103403716D01*
X123109771Y-103403717D01*
X123109770Y-103403717D01*
X122913918Y-103484842D01*
X122705996Y-103526200D01*
X122494004Y-103526200D01*
X122286082Y-103484842D01*
X122090230Y-103403717D01*
X122090229Y-103403717D01*
X122090228Y-103403716D01*
X122002095Y-103344827D01*
X121913961Y-103285938D01*
X121764062Y-103136039D01*
X121646283Y-102959770D01*
X121565158Y-102763918D01*
X121523800Y-102555996D01*
X121523800Y-102344004D01*
X121565158Y-102136082D01*
X121646283Y-101940230D01*
X121648998Y-101936167D01*
X121764061Y-101763963D01*
X121764062Y-101763961D01*
X121913961Y-101614062D01*
X122002096Y-101555172D01*
X122090228Y-101496284D01*
X122090230Y-101496283D01*
X122286082Y-101415158D01*
X122494004Y-101373800D01*
X122705996Y-101373800D01*
X122913918Y-101415158D01*
X122913918Y-101415158D01*
G37*
G36*
X44376200Y-102426200D02*
X36223800Y-102426200D01*
X36223800Y-96273800D01*
X44376200Y-96273800D01*
X44376200Y-102426200D01*
X44376200Y-102426200D01*
G37*
G36*
X145526200Y-101376200D02*
X137373800Y-101376200D01*
X137373800Y-95223800D01*
X145526200Y-95223800D01*
X145526200Y-101376200D01*
X145526200Y-101376200D01*
G37*
G36*
X97481563Y-99257201D02*
X97481566Y-99257202D01*
X97481567Y-99257202D01*
X97656156Y-99310163D01*
X97817059Y-99396167D01*
X97958091Y-99511909D01*
X98073833Y-99652941D01*
X98159837Y-99813844D01*
X98212799Y-99988437D01*
X98230682Y-100170000D01*
X98212799Y-100351563D01*
X98212798Y-100351566D01*
X98212798Y-100351567D01*
X98159837Y-100526156D01*
X98073833Y-100687059D01*
X97958091Y-100828091D01*
X97817059Y-100943833D01*
X97656156Y-101029837D01*
X97481567Y-101082798D01*
X97481566Y-101082798D01*
X97481563Y-101082799D01*
X97345501Y-101096200D01*
X97254499Y-101096200D01*
X97118437Y-101082799D01*
X97118434Y-101082798D01*
X97118433Y-101082798D01*
X96943844Y-101029837D01*
X96782941Y-100943833D01*
X96641909Y-100828091D01*
X96526167Y-100687059D01*
X96440163Y-100526156D01*
X96387202Y-100351567D01*
X96387202Y-100351566D01*
X96387201Y-100351563D01*
X96369318Y-100170000D01*
X96387201Y-99988437D01*
X96440163Y-99813844D01*
X96526167Y-99652941D01*
X96641909Y-99511909D01*
X96782941Y-99396167D01*
X96943844Y-99310163D01*
X97118433Y-99257202D01*
X97118434Y-99257202D01*
X97118437Y-99257201D01*
X97254499Y-99243800D01*
X97345501Y-99243800D01*
X97481563Y-99257201D01*
X97481563Y-99257201D01*
G37*
G36*
X93181563Y-99257201D02*
X93181566Y-99257202D01*
X93181567Y-99257202D01*
X93356156Y-99310163D01*
X93517059Y-99396167D01*
X93658091Y-99511909D01*
X93773833Y-99652941D01*
X93859837Y-99813844D01*
X93912799Y-99988437D01*
X93930682Y-100170000D01*
X93912799Y-100351563D01*
X93912798Y-100351566D01*
X93912798Y-100351567D01*
X93859837Y-100526156D01*
X93773833Y-100687059D01*
X93658091Y-100828091D01*
X93517059Y-100943833D01*
X93356156Y-101029837D01*
X93181567Y-101082798D01*
X93181566Y-101082798D01*
X93181563Y-101082799D01*
X93045501Y-101096200D01*
X92954499Y-101096200D01*
X92818437Y-101082799D01*
X92818434Y-101082798D01*
X92818433Y-101082798D01*
X92643844Y-101029837D01*
X92482941Y-100943833D01*
X92341909Y-100828091D01*
X92226167Y-100687059D01*
X92140163Y-100526156D01*
X92087202Y-100351567D01*
X92087202Y-100351566D01*
X92087201Y-100351563D01*
X92069318Y-100170000D01*
X92087201Y-99988437D01*
X92140163Y-99813844D01*
X92226167Y-99652941D01*
X92341909Y-99511909D01*
X92482941Y-99396167D01*
X92643844Y-99310163D01*
X92818433Y-99257202D01*
X92818434Y-99257202D01*
X92818437Y-99257201D01*
X92954499Y-99243800D01*
X93045501Y-99243800D01*
X93181563Y-99257201D01*
X93181563Y-99257201D01*
G37*
G36*
X114776200Y-99926200D02*
X112223800Y-99926200D01*
X112223800Y-97373800D01*
X114776200Y-97373800D01*
X114776200Y-99926200D01*
X114776200Y-99926200D01*
G37*
G36*
X106207881Y-97390148D02*
X106372256Y-97422844D01*
X106604505Y-97519045D01*
X106604507Y-97519046D01*
X106770561Y-97630000D01*
X106813531Y-97658712D01*
X106991288Y-97836469D01*
X107130955Y-98045495D01*
X107227156Y-98277744D01*
X107276200Y-98524306D01*
X107276200Y-98775694D01*
X107227156Y-99022256D01*
X107135389Y-99243800D01*
X107130954Y-99254507D01*
X106991289Y-99463530D01*
X106813530Y-99641289D01*
X106604507Y-99780954D01*
X106604506Y-99780955D01*
X106604505Y-99780955D01*
X106372256Y-99877156D01*
X106207881Y-99909852D01*
X106125695Y-99926200D01*
X105874305Y-99926200D01*
X105792119Y-99909852D01*
X105627744Y-99877156D01*
X105395495Y-99780955D01*
X105395494Y-99780955D01*
X105395493Y-99780954D01*
X105186470Y-99641289D01*
X105008711Y-99463530D01*
X104869046Y-99254507D01*
X104864611Y-99243800D01*
X104772844Y-99022256D01*
X104723800Y-98775694D01*
X104723800Y-98524306D01*
X104772844Y-98277744D01*
X104869045Y-98045495D01*
X105008712Y-97836469D01*
X105186469Y-97658712D01*
X105229439Y-97630000D01*
X105395493Y-97519046D01*
X105395495Y-97519045D01*
X105627744Y-97422844D01*
X105792119Y-97390148D01*
X105874305Y-97373800D01*
X106125695Y-97373800D01*
X106207881Y-97390148D01*
X106207881Y-97390148D01*
G37*
G36*
X93181563Y-96717201D02*
X93181566Y-96717202D01*
X93181567Y-96717202D01*
X93356156Y-96770163D01*
X93517059Y-96856167D01*
X93658091Y-96971909D01*
X93773833Y-97112941D01*
X93859837Y-97273844D01*
X93905036Y-97422844D01*
X93912799Y-97448437D01*
X93930682Y-97630000D01*
X93912799Y-97811563D01*
X93912798Y-97811566D01*
X93912798Y-97811567D01*
X93859837Y-97986156D01*
X93773833Y-98147059D01*
X93658091Y-98288091D01*
X93517059Y-98403833D01*
X93356156Y-98489837D01*
X93181567Y-98542798D01*
X93181566Y-98542798D01*
X93181563Y-98542799D01*
X93045501Y-98556200D01*
X92954499Y-98556200D01*
X92818437Y-98542799D01*
X92818434Y-98542798D01*
X92818433Y-98542798D01*
X92643844Y-98489837D01*
X92482941Y-98403833D01*
X92341909Y-98288091D01*
X92226167Y-98147059D01*
X92140163Y-97986156D01*
X92087202Y-97811567D01*
X92087202Y-97811566D01*
X92087201Y-97811563D01*
X92069318Y-97630000D01*
X92087201Y-97448437D01*
X92094965Y-97422844D01*
X92140163Y-97273844D01*
X92226167Y-97112941D01*
X92341909Y-96971909D01*
X92482941Y-96856167D01*
X92643844Y-96770163D01*
X92818433Y-96717202D01*
X92818434Y-96717202D01*
X92818437Y-96717201D01*
X92954499Y-96703800D01*
X93045501Y-96703800D01*
X93181563Y-96717201D01*
X93181563Y-96717201D01*
G37*
G36*
X97481563Y-96717201D02*
X97481566Y-96717202D01*
X97481567Y-96717202D01*
X97656156Y-96770163D01*
X97817059Y-96856167D01*
X97958091Y-96971909D01*
X98073833Y-97112941D01*
X98159837Y-97273844D01*
X98205036Y-97422844D01*
X98212799Y-97448437D01*
X98230682Y-97630000D01*
X98212799Y-97811563D01*
X98212798Y-97811566D01*
X98212798Y-97811567D01*
X98159837Y-97986156D01*
X98073833Y-98147059D01*
X97958091Y-98288091D01*
X97817059Y-98403833D01*
X97656156Y-98489837D01*
X97481567Y-98542798D01*
X97481566Y-98542798D01*
X97481563Y-98542799D01*
X97345501Y-98556200D01*
X97254499Y-98556200D01*
X97118437Y-98542799D01*
X97118434Y-98542798D01*
X97118433Y-98542798D01*
X96943844Y-98489837D01*
X96782941Y-98403833D01*
X96641909Y-98288091D01*
X96526167Y-98147059D01*
X96440163Y-97986156D01*
X96387202Y-97811567D01*
X96387202Y-97811566D01*
X96387201Y-97811563D01*
X96369318Y-97630000D01*
X96387201Y-97448437D01*
X96394965Y-97422844D01*
X96440163Y-97273844D01*
X96526167Y-97112941D01*
X96641909Y-96971909D01*
X96782941Y-96856167D01*
X96943844Y-96770163D01*
X97118433Y-96717202D01*
X97118434Y-96717202D01*
X97118437Y-96717201D01*
X97254499Y-96703800D01*
X97345501Y-96703800D01*
X97481563Y-96717201D01*
X97481563Y-96717201D01*
G37*
G36*
X97481563Y-94177201D02*
X97481566Y-94177202D01*
X97481567Y-94177202D01*
X97656156Y-94230163D01*
X97817059Y-94316167D01*
X97817061Y-94316168D01*
X97817060Y-94316168D01*
X97958091Y-94431909D01*
X98073832Y-94572940D01*
X98159837Y-94733844D01*
X98212799Y-94908437D01*
X98230682Y-95090000D01*
X98212799Y-95271563D01*
X98212798Y-95271566D01*
X98212798Y-95271567D01*
X98159837Y-95446156D01*
X98073833Y-95607059D01*
X97958091Y-95748091D01*
X97817059Y-95863833D01*
X97656156Y-95949837D01*
X97481567Y-96002798D01*
X97481566Y-96002798D01*
X97481563Y-96002799D01*
X97345501Y-96016200D01*
X97254499Y-96016200D01*
X97118437Y-96002799D01*
X97118434Y-96002798D01*
X97118433Y-96002798D01*
X96943844Y-95949837D01*
X96782941Y-95863833D01*
X96641909Y-95748091D01*
X96526167Y-95607059D01*
X96440163Y-95446156D01*
X96387202Y-95271567D01*
X96387202Y-95271566D01*
X96387201Y-95271563D01*
X96369318Y-95090000D01*
X96387201Y-94908437D01*
X96440163Y-94733844D01*
X96526168Y-94572940D01*
X96641909Y-94431909D01*
X96782940Y-94316168D01*
X96782939Y-94316168D01*
X96782941Y-94316167D01*
X96943844Y-94230163D01*
X97118433Y-94177202D01*
X97118434Y-94177202D01*
X97118437Y-94177201D01*
X97254499Y-94163800D01*
X97345501Y-94163800D01*
X97481563Y-94177201D01*
X97481563Y-94177201D01*
G37*
G36*
X93181563Y-94177201D02*
X93181566Y-94177202D01*
X93181567Y-94177202D01*
X93356156Y-94230163D01*
X93517059Y-94316167D01*
X93517061Y-94316168D01*
X93517060Y-94316168D01*
X93658091Y-94431909D01*
X93773832Y-94572940D01*
X93859837Y-94733844D01*
X93912799Y-94908437D01*
X93930682Y-95090000D01*
X93912799Y-95271563D01*
X93912798Y-95271566D01*
X93912798Y-95271567D01*
X93859837Y-95446156D01*
X93773833Y-95607059D01*
X93658091Y-95748091D01*
X93517059Y-95863833D01*
X93356156Y-95949837D01*
X93181567Y-96002798D01*
X93181566Y-96002798D01*
X93181563Y-96002799D01*
X93045501Y-96016200D01*
X92954499Y-96016200D01*
X92818437Y-96002799D01*
X92818434Y-96002798D01*
X92818433Y-96002798D01*
X92643844Y-95949837D01*
X92482941Y-95863833D01*
X92341909Y-95748091D01*
X92226167Y-95607059D01*
X92140163Y-95446156D01*
X92087202Y-95271567D01*
X92087202Y-95271566D01*
X92087201Y-95271563D01*
X92069318Y-95090000D01*
X92087201Y-94908437D01*
X92140163Y-94733844D01*
X92226168Y-94572940D01*
X92341909Y-94431909D01*
X92482940Y-94316168D01*
X92482939Y-94316168D01*
X92482941Y-94316167D01*
X92643844Y-94230163D01*
X92818433Y-94177202D01*
X92818434Y-94177202D01*
X92818437Y-94177201D01*
X92954499Y-94163800D01*
X93045501Y-94163800D01*
X93181563Y-94177201D01*
X93181563Y-94177201D01*
G37*
G36*
X93926200Y-93476200D02*
X92073800Y-93476200D01*
X92073800Y-91623800D01*
X93926200Y-91623800D01*
X93926200Y-93476200D01*
X93926200Y-93476200D01*
G37*
G36*
X98226200Y-93476200D02*
X96373800Y-93476200D01*
X96373800Y-91623800D01*
X98226200Y-91623800D01*
X98226200Y-93476200D01*
X98226200Y-93476200D01*
G37*
G36*
X145526200Y-93376200D02*
X137373800Y-93376200D01*
X137373800Y-87223800D01*
X145526200Y-87223800D01*
X145526200Y-93376200D01*
X145526200Y-93376200D01*
G37*
G36*
X75807881Y-85640148D02*
X75972256Y-85672844D01*
X76204505Y-85769045D01*
X76204507Y-85769046D01*
X76413530Y-85908711D01*
X76591288Y-86086469D01*
X76730955Y-86295495D01*
X76827156Y-86527744D01*
X76876200Y-86774306D01*
X76876200Y-87025694D01*
X76827156Y-87272256D01*
X76730955Y-87504505D01*
X76730954Y-87504507D01*
X76591289Y-87713530D01*
X76413530Y-87891289D01*
X76204507Y-88030954D01*
X76204506Y-88030955D01*
X76204505Y-88030955D01*
X75972256Y-88127156D01*
X75807881Y-88159852D01*
X75725695Y-88176200D01*
X75474305Y-88176200D01*
X75392119Y-88159852D01*
X75227744Y-88127156D01*
X74995495Y-88030955D01*
X74995494Y-88030955D01*
X74995493Y-88030954D01*
X74786470Y-87891289D01*
X74608711Y-87713530D01*
X74469046Y-87504507D01*
X74469045Y-87504505D01*
X74372844Y-87272256D01*
X74323800Y-87025694D01*
X74323800Y-86774306D01*
X74372844Y-86527744D01*
X74469045Y-86295495D01*
X74608712Y-86086469D01*
X74786470Y-85908711D01*
X74995493Y-85769046D01*
X74995495Y-85769045D01*
X75227744Y-85672844D01*
X75392119Y-85640148D01*
X75474305Y-85623800D01*
X75725695Y-85623800D01*
X75807881Y-85640148D01*
X75807881Y-85640148D01*
G37*
G36*
X69376200Y-88176200D02*
X66823800Y-88176200D01*
X66823800Y-85623800D01*
X69376200Y-85623800D01*
X69376200Y-88176200D01*
X69376200Y-88176200D01*
G37*
G36*
X55076200Y-84176200D02*
X52923800Y-84176200D01*
X52923800Y-82023800D01*
X55076200Y-82023800D01*
X55076200Y-84176200D01*
X55076200Y-84176200D01*
G37*
G36*
X59313918Y-82065158D02*
X59509770Y-82146283D01*
X59509772Y-82146284D01*
X59597905Y-82205173D01*
X59686039Y-82264062D01*
X59835938Y-82413961D01*
X59953717Y-82590230D01*
X60034842Y-82786082D01*
X60076200Y-82994004D01*
X60076200Y-83205996D01*
X60034842Y-83413918D01*
X59953717Y-83609770D01*
X59835938Y-83786039D01*
X59686039Y-83935938D01*
X59597905Y-83994827D01*
X59509772Y-84053716D01*
X59509771Y-84053717D01*
X59509770Y-84053717D01*
X59313918Y-84134842D01*
X59105996Y-84176200D01*
X58894004Y-84176200D01*
X58686082Y-84134842D01*
X58490230Y-84053717D01*
X58490229Y-84053717D01*
X58490228Y-84053716D01*
X58402095Y-83994827D01*
X58313961Y-83935938D01*
X58164062Y-83786039D01*
X58046283Y-83609770D01*
X57965158Y-83413918D01*
X57923800Y-83205996D01*
X57923800Y-82994004D01*
X57965158Y-82786082D01*
X58046283Y-82590230D01*
X58164062Y-82413961D01*
X58313961Y-82264062D01*
X58402096Y-82205172D01*
X58490228Y-82146284D01*
X58490230Y-82146283D01*
X58686082Y-82065158D01*
X58894004Y-82023800D01*
X59105996Y-82023800D01*
X59313918Y-82065158D01*
X59313918Y-82065158D01*
G37*
G36*
X122913918Y-71415158D02*
X123109770Y-71496283D01*
X123109772Y-71496284D01*
X123197904Y-71555172D01*
X123286039Y-71614062D01*
X123435938Y-71763961D01*
X123553717Y-71940230D01*
X123634842Y-72136082D01*
X123676200Y-72344004D01*
X123676200Y-72555996D01*
X123634842Y-72763918D01*
X123553717Y-72959770D01*
X123435938Y-73136039D01*
X123286039Y-73285938D01*
X123197904Y-73344828D01*
X123109772Y-73403716D01*
X123109771Y-73403717D01*
X123109770Y-73403717D01*
X122913918Y-73484842D01*
X122705996Y-73526200D01*
X122494004Y-73526200D01*
X122286082Y-73484842D01*
X122090230Y-73403717D01*
X122090229Y-73403717D01*
X122090228Y-73403716D01*
X122002096Y-73344828D01*
X121913961Y-73285938D01*
X121764062Y-73136039D01*
X121646283Y-72959770D01*
X121565158Y-72763918D01*
X121523800Y-72555996D01*
X121523800Y-72344004D01*
X121565158Y-72136082D01*
X121646283Y-71940230D01*
X121764062Y-71763961D01*
X121913961Y-71614062D01*
X122002095Y-71555173D01*
X122090228Y-71496284D01*
X122090230Y-71496283D01*
X122286082Y-71415158D01*
X122494004Y-71373800D01*
X122705996Y-71373800D01*
X122913918Y-71415158D01*
X122913918Y-71415158D01*
G37*
G36*
X128676200Y-73526200D02*
X126523800Y-73526200D01*
X126523800Y-71373800D01*
X128676200Y-71373800D01*
X128676200Y-73526200D01*
X128676200Y-73526200D01*
G37*
G36*
X114776200Y-69926200D02*
X112223800Y-69926200D01*
X112223800Y-67373800D01*
X114776200Y-67373800D01*
X114776200Y-69926200D01*
X114776200Y-69926200D01*
G37*
G36*
X106207881Y-67390148D02*
X106372256Y-67422844D01*
X106604505Y-67519045D01*
X106604507Y-67519046D01*
X106813530Y-67658711D01*
X106991288Y-67836469D01*
X107130955Y-68045495D01*
X107227156Y-68277744D01*
X107276200Y-68524306D01*
X107276200Y-68775694D01*
X107227156Y-69022256D01*
X107130955Y-69254505D01*
X107130954Y-69254507D01*
X106991289Y-69463530D01*
X106813530Y-69641289D01*
X106604507Y-69780954D01*
X106604506Y-69780955D01*
X106604505Y-69780955D01*
X106372256Y-69877156D01*
X106207881Y-69909852D01*
X106125695Y-69926200D01*
X105874305Y-69926200D01*
X105792119Y-69909852D01*
X105627744Y-69877156D01*
X105395495Y-69780955D01*
X105395494Y-69780955D01*
X105395493Y-69780954D01*
X105186470Y-69641289D01*
X105008711Y-69463530D01*
X104869046Y-69254507D01*
X104869045Y-69254505D01*
X104772844Y-69022256D01*
X104723800Y-68775694D01*
X104723800Y-68524306D01*
X104772844Y-68277744D01*
X104869045Y-68045495D01*
X105008712Y-67836469D01*
X105186470Y-67658711D01*
X105395493Y-67519046D01*
X105395495Y-67519045D01*
X105627744Y-67422844D01*
X105792119Y-67390148D01*
X105874305Y-67373800D01*
X106125695Y-67373800D01*
X106207881Y-67390148D01*
X106207881Y-67390148D01*
G37*
G36*
X43568180Y-50330404D02*
X44546586Y-50735673D01*
X45427128Y-51324033D01*
X46175967Y-52072872D01*
X46764327Y-52953414D01*
X47169596Y-53931820D01*
X47376200Y-54970491D01*
X47376200Y-56029509D01*
X47169596Y-57068180D01*
X46764327Y-58046586D01*
X46175967Y-58927128D01*
X45427128Y-59675967D01*
X44546586Y-60264327D01*
X43568180Y-60669596D01*
X42529509Y-60876200D01*
X41470491Y-60876200D01*
X40431820Y-60669596D01*
X39453414Y-60264327D01*
X38572872Y-59675967D01*
X37824033Y-58927128D01*
X37235673Y-58046586D01*
X36830404Y-57068180D01*
X36623800Y-56029509D01*
X36623800Y-54970491D01*
X36830404Y-53931820D01*
X37235673Y-52953414D01*
X37824033Y-52072872D01*
X38572872Y-51324033D01*
X39453414Y-50735673D01*
X40431820Y-50330404D01*
X41470491Y-50123800D01*
X42529509Y-50123800D01*
X43568180Y-50330404D01*
X43568180Y-50330404D01*
G37*
G36*
X140818180Y-50080404D02*
X141796586Y-50485673D01*
X142677128Y-51074033D01*
X143425967Y-51822872D01*
X144014327Y-52703414D01*
X144419596Y-53681820D01*
X144626200Y-54720491D01*
X144626200Y-55779509D01*
X144419596Y-56818180D01*
X144014327Y-57796586D01*
X143425967Y-58677128D01*
X142677128Y-59425967D01*
X141796586Y-60014327D01*
X140818180Y-60419596D01*
X139779509Y-60626200D01*
X138720491Y-60626200D01*
X137681820Y-60419596D01*
X136703414Y-60014327D01*
X135822872Y-59425967D01*
X135074033Y-58677128D01*
X134485673Y-57796586D01*
X134080404Y-56818180D01*
X133873800Y-55779509D01*
X133873800Y-54720491D01*
X134080404Y-53681820D01*
X134485673Y-52703414D01*
X135074033Y-51822872D01*
X135822872Y-51074033D01*
X136703414Y-50485673D01*
X137681820Y-50080404D01*
X138720491Y-49873800D01*
X139779509Y-49873800D01*
X140818180Y-50080404D01*
X140818180Y-50080404D01*
G37*
G36*
X75807881Y-55640148D02*
X75972256Y-55672844D01*
X76204505Y-55769045D01*
X76204507Y-55769046D01*
X76413530Y-55908711D01*
X76591288Y-56086469D01*
X76730955Y-56295495D01*
X76827156Y-56527744D01*
X76876200Y-56774306D01*
X76876200Y-57025694D01*
X76827156Y-57272256D01*
X76730955Y-57504505D01*
X76730954Y-57504507D01*
X76591289Y-57713530D01*
X76413530Y-57891289D01*
X76204507Y-58030954D01*
X76204506Y-58030955D01*
X76204505Y-58030955D01*
X75972256Y-58127156D01*
X75807881Y-58159852D01*
X75725695Y-58176200D01*
X75474305Y-58176200D01*
X75392119Y-58159852D01*
X75227744Y-58127156D01*
X74995495Y-58030955D01*
X74995494Y-58030955D01*
X74995493Y-58030954D01*
X74786470Y-57891289D01*
X74608711Y-57713530D01*
X74469046Y-57504507D01*
X74469045Y-57504505D01*
X74372844Y-57272256D01*
X74323800Y-57025694D01*
X74323800Y-56774306D01*
X74372844Y-56527744D01*
X74469045Y-56295495D01*
X74608712Y-56086469D01*
X74786470Y-55908711D01*
X74995493Y-55769046D01*
X74995495Y-55769045D01*
X75227744Y-55672844D01*
X75392119Y-55640148D01*
X75474305Y-55623800D01*
X75725695Y-55623800D01*
X75807881Y-55640148D01*
X75807881Y-55640148D01*
G37*
G36*
X69376200Y-58176200D02*
X66823800Y-58176200D01*
X66823800Y-55623800D01*
X69376200Y-55623800D01*
X69376200Y-58176200D01*
X69376200Y-58176200D01*
G37*
G36*
X55076200Y-54176200D02*
X52923800Y-54176200D01*
X52923800Y-52023800D01*
X55076200Y-52023800D01*
X55076200Y-54176200D01*
X55076200Y-54176200D01*
G37*
G36*
X59313918Y-52065158D02*
X59509770Y-52146283D01*
X59509772Y-52146284D01*
X59597905Y-52205173D01*
X59686039Y-52264062D01*
X59835938Y-52413961D01*
X59953717Y-52590230D01*
X60034842Y-52786082D01*
X60076200Y-52994004D01*
X60076200Y-53205996D01*
X60034842Y-53413918D01*
X59953717Y-53609770D01*
X59835938Y-53786039D01*
X59686039Y-53935938D01*
X59597904Y-53994828D01*
X59509772Y-54053716D01*
X59509771Y-54053717D01*
X59509770Y-54053717D01*
X59313918Y-54134842D01*
X59105996Y-54176200D01*
X58894004Y-54176200D01*
X58686082Y-54134842D01*
X58490230Y-54053717D01*
X58490229Y-54053717D01*
X58490228Y-54053716D01*
X58402095Y-53994827D01*
X58313961Y-53935938D01*
X58164062Y-53786039D01*
X58046283Y-53609770D01*
X57965158Y-53413918D01*
X57923800Y-53205996D01*
X57923800Y-52994004D01*
X57965158Y-52786082D01*
X58046283Y-52590230D01*
X58164062Y-52413961D01*
X58313961Y-52264062D01*
X58402096Y-52205172D01*
X58490228Y-52146284D01*
X58490230Y-52146283D01*
X58686082Y-52065158D01*
X58894004Y-52023800D01*
X59105996Y-52023800D01*
X59313918Y-52065158D01*
X59313918Y-52065158D01*
G37*
M02*
