G04 #@! TF.GenerationSoftware,KiCad,Pcbnew,5.0.0*
G04 #@! TF.CreationDate,2018-08-14T07:29:03-04:00*
G04 #@! TF.ProjectId,peripherals,7065726970686572616C732E6B696361,rev?*
G04 #@! TF.SameCoordinates,Original*
G04 #@! TF.FileFunction,Paste,Top*
G04 #@! TF.FilePolarity,Positive*
%FSLAX46Y46*%
G04 Gerber Fmt 4.6, Leading zero omitted, Abs format (unit mm)*
G04 Created by KiCad (PCBNEW 5.0.0) date Tue Aug 14 07:29:03 2018*
%MOMM*%
%LPD*%
G01*
G04 APERTURE LIST*
%ADD10R,1.447600X2.447600*%
%ADD11R,0.347600X0.447600*%
%ADD12R,0.447600X0.347600*%
%ADD13R,0.597600X1.047600*%
%ADD14R,0.247600X0.447600*%
%ADD15R,1.047600X0.747600*%
%ADD16R,1.347600X1.147600*%
%ADD17R,5.847600X7.847600*%
%ADD18R,7.847600X5.847600*%
%ADD19R,1.197600X0.147600*%
%ADD20R,2.847600X1.847600*%
%ADD21R,0.277600X0.297600*%
%ADD22R,0.277600X0.447600*%
G04 APERTURE END LIST*
D10*
G04 #@! TO.C,C401*
X74000000Y-128100000D03*
X74000000Y-131700000D03*
G04 #@! TD*
G04 #@! TO.C,C501*
X74000000Y-158100000D03*
X74000000Y-161700000D03*
G04 #@! TD*
G04 #@! TO.C,C901*
X107600000Y-57450000D03*
X107600000Y-53850000D03*
G04 #@! TD*
G04 #@! TO.C,C801*
X107600000Y-87450000D03*
X107600000Y-83850000D03*
G04 #@! TD*
G04 #@! TO.C,C301*
X74000000Y-98100000D03*
X74000000Y-101700000D03*
G04 #@! TD*
G04 #@! TO.C,C701*
X107600000Y-117450000D03*
X107600000Y-113850000D03*
G04 #@! TD*
G04 #@! TO.C,C201*
X74000000Y-68100000D03*
X74000000Y-71700000D03*
G04 #@! TD*
G04 #@! TO.C,C601*
X107600000Y-147450000D03*
X107600000Y-143850000D03*
G04 #@! TD*
D11*
G04 #@! TO.C,C205*
X62800000Y-68300000D03*
X62800000Y-69400000D03*
G04 #@! TD*
D12*
G04 #@! TO.C,C202*
X68100000Y-67500000D03*
X67000000Y-67500000D03*
G04 #@! TD*
D11*
G04 #@! TO.C,C305*
X62800000Y-98300000D03*
X62800000Y-99400000D03*
G04 #@! TD*
D12*
G04 #@! TO.C,C302*
X68100000Y-97500000D03*
X67000000Y-97500000D03*
G04 #@! TD*
G04 #@! TO.C,C402*
X68100000Y-127500000D03*
X67000000Y-127500000D03*
G04 #@! TD*
D11*
G04 #@! TO.C,C405*
X62800000Y-128300000D03*
X62800000Y-129400000D03*
G04 #@! TD*
D12*
G04 #@! TO.C,C502*
X68100000Y-157500000D03*
X67000000Y-157500000D03*
G04 #@! TD*
D11*
G04 #@! TO.C,C505*
X62800000Y-158300000D03*
X62800000Y-159400000D03*
G04 #@! TD*
G04 #@! TO.C,C905*
X118800000Y-57250000D03*
X118800000Y-56150000D03*
G04 #@! TD*
D12*
G04 #@! TO.C,C902*
X113500000Y-58050000D03*
X114600000Y-58050000D03*
G04 #@! TD*
D11*
G04 #@! TO.C,C805*
X118800000Y-87250000D03*
X118800000Y-86150000D03*
G04 #@! TD*
D12*
G04 #@! TO.C,C802*
X113500000Y-88050000D03*
X114600000Y-88050000D03*
G04 #@! TD*
D11*
G04 #@! TO.C,C605*
X118800000Y-147250000D03*
X118800000Y-146150000D03*
G04 #@! TD*
G04 #@! TO.C,C705*
X118800000Y-117250000D03*
X118800000Y-116150000D03*
G04 #@! TD*
D12*
G04 #@! TO.C,C702*
X113500000Y-118050000D03*
X114600000Y-118050000D03*
G04 #@! TD*
G04 #@! TO.C,C602*
X113500000Y-148050000D03*
X114600000Y-148050000D03*
G04 #@! TD*
D13*
G04 #@! TO.C,C906*
X120200000Y-57700000D03*
X120200000Y-55800000D03*
G04 #@! TD*
G04 #@! TO.C,C806*
X120200000Y-87700000D03*
X120200000Y-85800000D03*
G04 #@! TD*
G04 #@! TO.C,C706*
X120200000Y-117700000D03*
X120200000Y-115800000D03*
G04 #@! TD*
G04 #@! TO.C,C206*
X61400000Y-67850000D03*
X61400000Y-69750000D03*
G04 #@! TD*
G04 #@! TO.C,C606*
X120200000Y-147700000D03*
X120200000Y-145800000D03*
G04 #@! TD*
G04 #@! TO.C,C506*
X61400000Y-157850000D03*
X61400000Y-159750000D03*
G04 #@! TD*
G04 #@! TO.C,C306*
X61400000Y-97850000D03*
X61400000Y-99750000D03*
G04 #@! TD*
G04 #@! TO.C,C406*
X61400000Y-127850000D03*
X61400000Y-129750000D03*
G04 #@! TD*
D14*
G04 #@! TO.C,R202*
X67050000Y-72900000D03*
X67950000Y-72900000D03*
G04 #@! TD*
G04 #@! TO.C,R302*
X67050000Y-102900000D03*
X67950000Y-102900000D03*
G04 #@! TD*
G04 #@! TO.C,R402*
X67050000Y-132900000D03*
X67950000Y-132900000D03*
G04 #@! TD*
G04 #@! TO.C,R502*
X67050000Y-162900000D03*
X67950000Y-162900000D03*
G04 #@! TD*
G04 #@! TO.C,R702*
X114550000Y-112650000D03*
X113650000Y-112650000D03*
G04 #@! TD*
G04 #@! TO.C,R802*
X114550000Y-82650000D03*
X113650000Y-82650000D03*
G04 #@! TD*
G04 #@! TO.C,R902*
X114550000Y-52650000D03*
X113650000Y-52650000D03*
G04 #@! TD*
G04 #@! TO.C,R602*
X114550000Y-142650000D03*
X113650000Y-142650000D03*
G04 #@! TD*
D15*
G04 #@! TO.C,R801*
X120200000Y-90050000D03*
X122400000Y-90050000D03*
G04 #@! TD*
G04 #@! TO.C,R201*
X61400000Y-65500000D03*
X59200000Y-65500000D03*
G04 #@! TD*
G04 #@! TO.C,R601*
X120200000Y-150050000D03*
X122400000Y-150050000D03*
G04 #@! TD*
G04 #@! TO.C,R203*
X58900000Y-72200000D03*
X61100000Y-72200000D03*
G04 #@! TD*
G04 #@! TO.C,R903*
X122700000Y-53350000D03*
X120500000Y-53350000D03*
G04 #@! TD*
G04 #@! TO.C,R301*
X61400000Y-95500000D03*
X59200000Y-95500000D03*
G04 #@! TD*
G04 #@! TO.C,R901*
X120200000Y-60050000D03*
X122400000Y-60050000D03*
G04 #@! TD*
G04 #@! TO.C,R803*
X122700000Y-83350000D03*
X120500000Y-83350000D03*
G04 #@! TD*
G04 #@! TO.C,R703*
X122700000Y-113350000D03*
X120500000Y-113350000D03*
G04 #@! TD*
G04 #@! TO.C,R303*
X58900000Y-102200000D03*
X61100000Y-102200000D03*
G04 #@! TD*
G04 #@! TO.C,R401*
X61400000Y-125500000D03*
X59200000Y-125500000D03*
G04 #@! TD*
G04 #@! TO.C,R403*
X58900000Y-132200000D03*
X61100000Y-132200000D03*
G04 #@! TD*
G04 #@! TO.C,R501*
X61400000Y-155500000D03*
X59200000Y-155500000D03*
G04 #@! TD*
G04 #@! TO.C,R701*
X120200000Y-120050000D03*
X122400000Y-120050000D03*
G04 #@! TD*
G04 #@! TO.C,R603*
X122700000Y-143350000D03*
X120500000Y-143350000D03*
G04 #@! TD*
G04 #@! TO.C,R503*
X58900000Y-162200000D03*
X61100000Y-162200000D03*
G04 #@! TD*
D16*
G04 #@! TO.C,L301*
X77650000Y-97400000D03*
X80350000Y-97400000D03*
G04 #@! TD*
G04 #@! TO.C,L201*
X77650000Y-67400000D03*
X80350000Y-67400000D03*
G04 #@! TD*
G04 #@! TO.C,L401*
X77650000Y-127400000D03*
X80350000Y-127400000D03*
G04 #@! TD*
G04 #@! TO.C,L501*
X77650000Y-157400000D03*
X80350000Y-157400000D03*
G04 #@! TD*
G04 #@! TO.C,L701*
X103950000Y-118150000D03*
X101250000Y-118150000D03*
G04 #@! TD*
G04 #@! TO.C,L801*
X103950000Y-88150000D03*
X101250000Y-88150000D03*
G04 #@! TD*
G04 #@! TO.C,L901*
X103950000Y-58150000D03*
X101250000Y-58150000D03*
G04 #@! TD*
G04 #@! TO.C,L601*
X103950000Y-148150000D03*
X101250000Y-148150000D03*
G04 #@! TD*
D17*
G04 #@! TO.C,BT101*
X87150000Y-52450000D03*
X95150000Y-52450000D03*
G04 #@! TD*
D18*
G04 #@! TO.C,J103*
X141400000Y-90500000D03*
X141400000Y-106500000D03*
X141400000Y-114500000D03*
X141400000Y-98500000D03*
G04 #@! TD*
G04 #@! TO.C,J104*
X40300000Y-115400000D03*
X40300000Y-99400000D03*
X40300000Y-107400000D03*
X40300000Y-123400000D03*
G04 #@! TD*
D19*
G04 #@! TO.C,U501*
X65625000Y-159300000D03*
X65625000Y-159800000D03*
X65625000Y-160300000D03*
X65625000Y-160800000D03*
X65625000Y-161300000D03*
X69575000Y-161300000D03*
X69575000Y-160800000D03*
X69575000Y-160300000D03*
X69575000Y-159800000D03*
X69575000Y-159300000D03*
G04 #@! TD*
G04 #@! TO.C,U201*
X65625000Y-69300000D03*
X65625000Y-69800000D03*
X65625000Y-70300000D03*
X65625000Y-70800000D03*
X65625000Y-71300000D03*
X69575000Y-71300000D03*
X69575000Y-70800000D03*
X69575000Y-70300000D03*
X69575000Y-69800000D03*
X69575000Y-69300000D03*
G04 #@! TD*
G04 #@! TO.C,U901*
X115975000Y-56250000D03*
X115975000Y-55750000D03*
X115975000Y-55250000D03*
X115975000Y-54750000D03*
X115975000Y-54250000D03*
X112025000Y-54250000D03*
X112025000Y-54750000D03*
X112025000Y-55250000D03*
X112025000Y-55750000D03*
X112025000Y-56250000D03*
G04 #@! TD*
G04 #@! TO.C,U401*
X65625000Y-129300000D03*
X65625000Y-129800000D03*
X65625000Y-130300000D03*
X65625000Y-130800000D03*
X65625000Y-131300000D03*
X69575000Y-131300000D03*
X69575000Y-130800000D03*
X69575000Y-130300000D03*
X69575000Y-129800000D03*
X69575000Y-129300000D03*
G04 #@! TD*
G04 #@! TO.C,U601*
X115975000Y-146250000D03*
X115975000Y-145750000D03*
X115975000Y-145250000D03*
X115975000Y-144750000D03*
X115975000Y-144250000D03*
X112025000Y-144250000D03*
X112025000Y-144750000D03*
X112025000Y-145250000D03*
X112025000Y-145750000D03*
X112025000Y-146250000D03*
G04 #@! TD*
G04 #@! TO.C,U701*
X115975000Y-116250000D03*
X115975000Y-115750000D03*
X115975000Y-115250000D03*
X115975000Y-114750000D03*
X115975000Y-114250000D03*
X112025000Y-114250000D03*
X112025000Y-114750000D03*
X112025000Y-115250000D03*
X112025000Y-115750000D03*
X112025000Y-116250000D03*
G04 #@! TD*
G04 #@! TO.C,U801*
X115975000Y-86250000D03*
X115975000Y-85750000D03*
X115975000Y-85250000D03*
X115975000Y-84750000D03*
X115975000Y-84250000D03*
X112025000Y-84250000D03*
X112025000Y-84750000D03*
X112025000Y-85250000D03*
X112025000Y-85750000D03*
X112025000Y-86250000D03*
G04 #@! TD*
G04 #@! TO.C,U301*
X65625000Y-99300000D03*
X65625000Y-99800000D03*
X65625000Y-100300000D03*
X65625000Y-100800000D03*
X65625000Y-101300000D03*
X69575000Y-101300000D03*
X69575000Y-100800000D03*
X69575000Y-100300000D03*
X69575000Y-99800000D03*
X69575000Y-99300000D03*
G04 #@! TD*
D20*
G04 #@! TO.C,Q202*
X56000000Y-70600000D03*
D21*
X55025000Y-69375000D03*
X55675000Y-69375000D03*
X56325000Y-69375000D03*
X56975000Y-69375000D03*
D22*
X56975000Y-72550000D03*
X56325000Y-72550000D03*
X55675000Y-72550000D03*
X55025000Y-72550000D03*
G04 #@! TD*
G04 #@! TO.C,Q301*
X55025000Y-95650000D03*
X55675000Y-95650000D03*
X56325000Y-95650000D03*
X56975000Y-95650000D03*
D21*
X56975000Y-92475000D03*
X56325000Y-92475000D03*
X55675000Y-92475000D03*
X55025000Y-92475000D03*
D20*
X56000000Y-93700000D03*
G04 #@! TD*
G04 #@! TO.C,Q302*
X56000000Y-100600000D03*
D21*
X55025000Y-99375000D03*
X55675000Y-99375000D03*
X56325000Y-99375000D03*
X56975000Y-99375000D03*
D22*
X56975000Y-102550000D03*
X56325000Y-102550000D03*
X55675000Y-102550000D03*
X55025000Y-102550000D03*
G04 #@! TD*
G04 #@! TO.C,Q401*
X55025000Y-125650000D03*
X55675000Y-125650000D03*
X56325000Y-125650000D03*
X56975000Y-125650000D03*
D21*
X56975000Y-122475000D03*
X56325000Y-122475000D03*
X55675000Y-122475000D03*
X55025000Y-122475000D03*
D20*
X56000000Y-123700000D03*
G04 #@! TD*
G04 #@! TO.C,Q402*
X56000000Y-130600000D03*
D21*
X55025000Y-129375000D03*
X55675000Y-129375000D03*
X56325000Y-129375000D03*
X56975000Y-129375000D03*
D22*
X56975000Y-132550000D03*
X56325000Y-132550000D03*
X55675000Y-132550000D03*
X55025000Y-132550000D03*
G04 #@! TD*
G04 #@! TO.C,Q501*
X55025000Y-155650000D03*
X55675000Y-155650000D03*
X56325000Y-155650000D03*
X56975000Y-155650000D03*
D21*
X56975000Y-152475000D03*
X56325000Y-152475000D03*
X55675000Y-152475000D03*
X55025000Y-152475000D03*
D20*
X56000000Y-153700000D03*
G04 #@! TD*
G04 #@! TO.C,Q502*
X56000000Y-160600000D03*
D21*
X55025000Y-159375000D03*
X55675000Y-159375000D03*
X56325000Y-159375000D03*
X56975000Y-159375000D03*
D22*
X56975000Y-162550000D03*
X56325000Y-162550000D03*
X55675000Y-162550000D03*
X55025000Y-162550000D03*
G04 #@! TD*
G04 #@! TO.C,Q601*
X126575000Y-149900000D03*
X125925000Y-149900000D03*
X125275000Y-149900000D03*
X124625000Y-149900000D03*
D21*
X124625000Y-153075000D03*
X125275000Y-153075000D03*
X125925000Y-153075000D03*
X126575000Y-153075000D03*
D20*
X125600000Y-151850000D03*
G04 #@! TD*
G04 #@! TO.C,Q602*
X125600000Y-144950000D03*
D21*
X126575000Y-146175000D03*
X125925000Y-146175000D03*
X125275000Y-146175000D03*
X124625000Y-146175000D03*
D22*
X124625000Y-143000000D03*
X125275000Y-143000000D03*
X125925000Y-143000000D03*
X126575000Y-143000000D03*
G04 #@! TD*
G04 #@! TO.C,Q701*
X126575000Y-119900000D03*
X125925000Y-119900000D03*
X125275000Y-119900000D03*
X124625000Y-119900000D03*
D21*
X124625000Y-123075000D03*
X125275000Y-123075000D03*
X125925000Y-123075000D03*
X126575000Y-123075000D03*
D20*
X125600000Y-121850000D03*
G04 #@! TD*
D22*
G04 #@! TO.C,Q801*
X126575000Y-89900000D03*
X125925000Y-89900000D03*
X125275000Y-89900000D03*
X124625000Y-89900000D03*
D21*
X124625000Y-93075000D03*
X125275000Y-93075000D03*
X125925000Y-93075000D03*
X126575000Y-93075000D03*
D20*
X125600000Y-91850000D03*
G04 #@! TD*
G04 #@! TO.C,Q802*
X125600000Y-84950000D03*
D21*
X126575000Y-86175000D03*
X125925000Y-86175000D03*
X125275000Y-86175000D03*
X124625000Y-86175000D03*
D22*
X124625000Y-83000000D03*
X125275000Y-83000000D03*
X125925000Y-83000000D03*
X126575000Y-83000000D03*
G04 #@! TD*
G04 #@! TO.C,Q901*
X126575000Y-59900000D03*
X125925000Y-59900000D03*
X125275000Y-59900000D03*
X124625000Y-59900000D03*
D21*
X124625000Y-63075000D03*
X125275000Y-63075000D03*
X125925000Y-63075000D03*
X126575000Y-63075000D03*
D20*
X125600000Y-61850000D03*
G04 #@! TD*
G04 #@! TO.C,Q902*
X125600000Y-54950000D03*
D21*
X126575000Y-56175000D03*
X125925000Y-56175000D03*
X125275000Y-56175000D03*
X124625000Y-56175000D03*
D22*
X124625000Y-53000000D03*
X125275000Y-53000000D03*
X125925000Y-53000000D03*
X126575000Y-53000000D03*
G04 #@! TD*
D20*
G04 #@! TO.C,Q702*
X125600000Y-114950000D03*
D21*
X126575000Y-116175000D03*
X125925000Y-116175000D03*
X125275000Y-116175000D03*
X124625000Y-116175000D03*
D22*
X124625000Y-113000000D03*
X125275000Y-113000000D03*
X125925000Y-113000000D03*
X126575000Y-113000000D03*
G04 #@! TD*
G04 #@! TO.C,Q201*
X55025000Y-65650000D03*
X55675000Y-65650000D03*
X56325000Y-65650000D03*
X56975000Y-65650000D03*
D21*
X56975000Y-62475000D03*
X56325000Y-62475000D03*
X55675000Y-62475000D03*
X55025000Y-62475000D03*
D20*
X56000000Y-63700000D03*
G04 #@! TD*
M02*
