G04 #@! TF.GenerationSoftware,KiCad,Pcbnew,5.0.0*
G04 #@! TF.CreationDate,2018-08-14T07:29:03-04:00*
G04 #@! TF.ProjectId,peripherals,7065726970686572616C732E6B696361,rev?*
G04 #@! TF.SameCoordinates,Original*
G04 #@! TF.FileFunction,Soldermask,Top*
G04 #@! TF.FilePolarity,Negative*
%FSLAX46Y46*%
G04 Gerber Fmt 4.6, Leading zero omitted, Abs format (unit mm)*
G04 Created by KiCad (PCBNEW 5.0.0) date Tue Aug 14 07:29:03 2018*
%MOMM*%
%LPD*%
G01*
G04 APERTURE LIST*
%ADD10C,0.100000*%
G04 APERTURE END LIST*
D10*
G36*
X141068180Y-158830404D02*
X142046586Y-159235673D01*
X142927128Y-159824033D01*
X143675967Y-160572872D01*
X144264327Y-161453414D01*
X144669596Y-162431820D01*
X144876200Y-163470491D01*
X144876200Y-164529509D01*
X144669596Y-165568180D01*
X144264327Y-166546586D01*
X143675967Y-167427128D01*
X142927128Y-168175967D01*
X142046586Y-168764327D01*
X141068180Y-169169596D01*
X140029509Y-169376200D01*
X138970491Y-169376200D01*
X137931820Y-169169596D01*
X136953414Y-168764327D01*
X136072872Y-168175967D01*
X135324033Y-167427128D01*
X134735673Y-166546586D01*
X134330404Y-165568180D01*
X134123800Y-164529509D01*
X134123800Y-163470491D01*
X134330404Y-162431820D01*
X134735673Y-161453414D01*
X135324033Y-160572872D01*
X136072872Y-159824033D01*
X136953414Y-159235673D01*
X137931820Y-158830404D01*
X138970491Y-158623800D01*
X140029509Y-158623800D01*
X141068180Y-158830404D01*
X141068180Y-158830404D01*
G37*
G36*
X43568180Y-158830404D02*
X44546586Y-159235673D01*
X45427128Y-159824033D01*
X46175967Y-160572872D01*
X46764327Y-161453414D01*
X47169596Y-162431820D01*
X47376200Y-163470491D01*
X47376200Y-164529509D01*
X47169596Y-165568180D01*
X46764327Y-166546586D01*
X46175967Y-167427128D01*
X45427128Y-168175967D01*
X44546586Y-168764327D01*
X43568180Y-169169596D01*
X42529509Y-169376200D01*
X41470491Y-169376200D01*
X40431820Y-169169596D01*
X39453414Y-168764327D01*
X38572872Y-168175967D01*
X37824033Y-167427128D01*
X37235673Y-166546586D01*
X36830404Y-165568180D01*
X36623800Y-164529509D01*
X36623800Y-163470491D01*
X36830404Y-162431820D01*
X37235673Y-161453414D01*
X37824033Y-160572872D01*
X38572872Y-159824033D01*
X39453414Y-159235673D01*
X40431820Y-158830404D01*
X41470491Y-158623800D01*
X42529509Y-158623800D01*
X43568180Y-158830404D01*
X43568180Y-158830404D01*
G37*
G36*
X128676200Y-163526200D02*
X126523800Y-163526200D01*
X126523800Y-161373800D01*
X128676200Y-161373800D01*
X128676200Y-163526200D01*
X128676200Y-163526200D01*
G37*
G36*
X122913918Y-161415158D02*
X123109770Y-161496283D01*
X123109772Y-161496284D01*
X123115333Y-161500000D01*
X123286039Y-161614062D01*
X123435938Y-161763961D01*
X123553717Y-161940230D01*
X123634842Y-162136082D01*
X123676200Y-162344004D01*
X123676200Y-162555996D01*
X123634842Y-162763918D01*
X123553717Y-162959770D01*
X123435938Y-163136039D01*
X123286039Y-163285938D01*
X123197904Y-163344828D01*
X123109772Y-163403716D01*
X123109771Y-163403717D01*
X123109770Y-163403717D01*
X122913918Y-163484842D01*
X122705996Y-163526200D01*
X122494004Y-163526200D01*
X122286082Y-163484842D01*
X122090230Y-163403717D01*
X122090229Y-163403717D01*
X122090228Y-163403716D01*
X122002096Y-163344828D01*
X121913961Y-163285938D01*
X121764062Y-163136039D01*
X121646283Y-162959770D01*
X121565158Y-162763918D01*
X121523800Y-162555996D01*
X121523800Y-162344004D01*
X121565158Y-162136082D01*
X121646283Y-161940230D01*
X121764062Y-161763961D01*
X121913961Y-161614062D01*
X122084667Y-161500000D01*
X122090228Y-161496284D01*
X122090230Y-161496283D01*
X122286082Y-161415158D01*
X122494004Y-161373800D01*
X122705996Y-161373800D01*
X122913918Y-161415158D01*
X122913918Y-161415158D01*
G37*
G36*
X67326200Y-163276200D02*
X66773800Y-163276200D01*
X66773800Y-162523800D01*
X67326200Y-162523800D01*
X67326200Y-163276200D01*
X67326200Y-163276200D01*
G37*
G36*
X68226200Y-163276200D02*
X67673800Y-163276200D01*
X67673800Y-162523800D01*
X68226200Y-162523800D01*
X68226200Y-163276200D01*
X68226200Y-163276200D01*
G37*
G36*
X74876200Y-163076200D02*
X73123800Y-163076200D01*
X73123800Y-160323800D01*
X74876200Y-160323800D01*
X74876200Y-163076200D01*
X74876200Y-163076200D01*
G37*
G36*
X57240000Y-162900000D02*
X56710000Y-162900000D01*
X56710000Y-162200000D01*
X57240000Y-162200000D01*
X57240000Y-162900000D01*
X57240000Y-162900000D01*
G37*
G36*
X55290000Y-162900000D02*
X54760000Y-162900000D01*
X54760000Y-162200000D01*
X55290000Y-162200000D01*
X55290000Y-162900000D01*
X55290000Y-162900000D01*
G37*
G36*
X55940000Y-162900000D02*
X55410000Y-162900000D01*
X55410000Y-162200000D01*
X55940000Y-162200000D01*
X55940000Y-162900000D01*
X55940000Y-162900000D01*
G37*
G36*
X56590000Y-162900000D02*
X56060000Y-162900000D01*
X56060000Y-162200000D01*
X56590000Y-162200000D01*
X56590000Y-162900000D01*
X56590000Y-162900000D01*
G37*
G36*
X59576200Y-162726200D02*
X58223800Y-162726200D01*
X58223800Y-161673800D01*
X59576200Y-161673800D01*
X59576200Y-162726200D01*
X59576200Y-162726200D01*
G37*
G36*
X61776200Y-162726200D02*
X60423800Y-162726200D01*
X60423800Y-161673800D01*
X61776200Y-161673800D01*
X61776200Y-162726200D01*
X61776200Y-162726200D01*
G37*
G36*
X55290000Y-159499200D02*
X55290976Y-159509111D01*
X55293867Y-159518640D01*
X55298561Y-159527423D01*
X55304879Y-159535121D01*
X55312577Y-159541439D01*
X55321360Y-159546133D01*
X55330889Y-159549024D01*
X55340800Y-159550000D01*
X55359200Y-159550000D01*
X55369111Y-159549024D01*
X55378640Y-159546133D01*
X55387423Y-159541439D01*
X55395121Y-159535121D01*
X55401439Y-159527423D01*
X55406133Y-159518640D01*
X55409024Y-159509111D01*
X55410000Y-159499200D01*
X55410000Y-159100000D01*
X55940000Y-159100000D01*
X55940000Y-159499200D01*
X55940976Y-159509111D01*
X55943867Y-159518640D01*
X55948561Y-159527423D01*
X55954879Y-159535121D01*
X55962577Y-159541439D01*
X55971360Y-159546133D01*
X55980889Y-159549024D01*
X55990800Y-159550000D01*
X56009200Y-159550000D01*
X56019111Y-159549024D01*
X56028640Y-159546133D01*
X56037423Y-159541439D01*
X56045121Y-159535121D01*
X56051439Y-159527423D01*
X56056133Y-159518640D01*
X56059024Y-159509111D01*
X56060000Y-159499200D01*
X56060000Y-159100000D01*
X56590000Y-159100000D01*
X56590000Y-159499200D01*
X56590976Y-159509111D01*
X56593867Y-159518640D01*
X56598561Y-159527423D01*
X56604879Y-159535121D01*
X56612577Y-159541439D01*
X56621360Y-159546133D01*
X56630889Y-159549024D01*
X56640800Y-159550000D01*
X56659200Y-159550000D01*
X56669111Y-159549024D01*
X56678640Y-159546133D01*
X56687423Y-159541439D01*
X56695121Y-159535121D01*
X56701439Y-159527423D01*
X56706133Y-159518640D01*
X56709024Y-159509111D01*
X56710000Y-159499200D01*
X56710000Y-159100000D01*
X57240000Y-159100000D01*
X57240000Y-159499200D01*
X57240976Y-159509111D01*
X57243867Y-159518640D01*
X57248561Y-159527423D01*
X57254879Y-159535121D01*
X57262577Y-159541439D01*
X57271360Y-159546133D01*
X57280889Y-159549024D01*
X57290800Y-159550000D01*
X57550000Y-159550000D01*
X57550000Y-161650000D01*
X54450000Y-161650000D01*
X54450000Y-159550000D01*
X54709200Y-159550000D01*
X54719111Y-159549024D01*
X54728640Y-159546133D01*
X54737423Y-159541439D01*
X54745121Y-159535121D01*
X54751439Y-159527423D01*
X54756133Y-159518640D01*
X54759024Y-159509111D01*
X54760000Y-159499200D01*
X54760000Y-159100000D01*
X55290000Y-159100000D01*
X55290000Y-159499200D01*
X55290000Y-159499200D01*
G37*
G36*
X66350000Y-161500000D02*
X64900000Y-161500000D01*
X64900000Y-159100000D01*
X66350000Y-159100000D01*
X66350000Y-161500000D01*
X66350000Y-161500000D01*
G37*
G36*
X70300000Y-161500000D02*
X68850000Y-161500000D01*
X68850000Y-159100000D01*
X70300000Y-159100000D01*
X70300000Y-161500000D01*
X70300000Y-161500000D01*
G37*
G36*
X61851200Y-160426200D02*
X60948800Y-160426200D01*
X60948800Y-159073800D01*
X61851200Y-159073800D01*
X61851200Y-160426200D01*
X61851200Y-160426200D01*
G37*
G36*
X106207881Y-157390148D02*
X106372256Y-157422844D01*
X106604505Y-157519045D01*
X106604507Y-157519046D01*
X106813530Y-157658711D01*
X106991289Y-157836470D01*
X107127949Y-158040995D01*
X107130955Y-158045495D01*
X107227156Y-158277744D01*
X107276200Y-158524306D01*
X107276200Y-158775694D01*
X107227156Y-159022256D01*
X107194953Y-159100000D01*
X107130954Y-159254507D01*
X106991289Y-159463530D01*
X106813530Y-159641289D01*
X106604507Y-159780954D01*
X106604506Y-159780955D01*
X106604505Y-159780955D01*
X106372256Y-159877156D01*
X106207881Y-159909852D01*
X106125695Y-159926200D01*
X105874305Y-159926200D01*
X105792119Y-159909852D01*
X105627744Y-159877156D01*
X105395495Y-159780955D01*
X105395494Y-159780955D01*
X105395493Y-159780954D01*
X105186470Y-159641289D01*
X105008711Y-159463530D01*
X104869046Y-159254507D01*
X104805047Y-159100000D01*
X104772844Y-159022256D01*
X104723800Y-158775694D01*
X104723800Y-158524306D01*
X104772844Y-158277744D01*
X104869045Y-158045495D01*
X104872052Y-158040995D01*
X105008711Y-157836470D01*
X105186470Y-157658711D01*
X105395493Y-157519046D01*
X105395495Y-157519045D01*
X105627744Y-157422844D01*
X105792119Y-157390148D01*
X105874305Y-157373800D01*
X106125695Y-157373800D01*
X106207881Y-157390148D01*
X106207881Y-157390148D01*
G37*
G36*
X114776200Y-159926200D02*
X112223800Y-159926200D01*
X112223800Y-157373800D01*
X114776200Y-157373800D01*
X114776200Y-159926200D01*
X114776200Y-159926200D01*
G37*
G36*
X63126200Y-159776200D02*
X62473800Y-159776200D01*
X62473800Y-159023800D01*
X63126200Y-159023800D01*
X63126200Y-159776200D01*
X63126200Y-159776200D01*
G37*
G36*
X74876200Y-159476200D02*
X73123800Y-159476200D01*
X73123800Y-156723800D01*
X74876200Y-156723800D01*
X74876200Y-159476200D01*
X74876200Y-159476200D01*
G37*
G36*
X63126200Y-158676200D02*
X62473800Y-158676200D01*
X62473800Y-157923800D01*
X63126200Y-157923800D01*
X63126200Y-158676200D01*
X63126200Y-158676200D01*
G37*
G36*
X59840994Y-157005550D02*
X59991353Y-157067831D01*
X60126672Y-157158248D01*
X60241752Y-157273328D01*
X60332169Y-157408647D01*
X60394450Y-157559006D01*
X60426200Y-157718626D01*
X60426200Y-157881374D01*
X60394450Y-158040994D01*
X60332169Y-158191353D01*
X60241752Y-158326672D01*
X60126672Y-158441752D01*
X59991353Y-158532169D01*
X59840994Y-158594450D01*
X59681374Y-158626200D01*
X59518626Y-158626200D01*
X59359006Y-158594450D01*
X59208647Y-158532169D01*
X59073328Y-158441752D01*
X58958248Y-158326672D01*
X58867831Y-158191353D01*
X58805550Y-158040994D01*
X58773800Y-157881374D01*
X58773800Y-157718626D01*
X58805550Y-157559006D01*
X58867831Y-157408647D01*
X58958248Y-157273328D01*
X59073328Y-157158248D01*
X59208647Y-157067831D01*
X59359006Y-157005550D01*
X59518626Y-156973800D01*
X59681374Y-156973800D01*
X59840994Y-157005550D01*
X59840994Y-157005550D01*
G37*
G36*
X61851200Y-158526200D02*
X60948800Y-158526200D01*
X60948800Y-157173800D01*
X61851200Y-157173800D01*
X61851200Y-158526200D01*
X61851200Y-158526200D01*
G37*
G36*
X56140994Y-156805550D02*
X56291353Y-156867831D01*
X56426672Y-156958248D01*
X56541752Y-157073328D01*
X56632169Y-157208647D01*
X56694450Y-157359006D01*
X56726200Y-157518626D01*
X56726200Y-157681374D01*
X56694450Y-157840994D01*
X56632169Y-157991353D01*
X56541752Y-158126672D01*
X56426672Y-158241752D01*
X56291353Y-158332169D01*
X56140994Y-158394450D01*
X55981374Y-158426200D01*
X55818626Y-158426200D01*
X55659006Y-158394450D01*
X55508647Y-158332169D01*
X55373328Y-158241752D01*
X55258248Y-158126672D01*
X55167831Y-157991353D01*
X55105550Y-157840994D01*
X55073800Y-157681374D01*
X55073800Y-157518626D01*
X55105550Y-157359006D01*
X55167831Y-157208647D01*
X55258248Y-157073328D01*
X55373328Y-156958248D01*
X55508647Y-156867831D01*
X55659006Y-156805550D01*
X55818626Y-156773800D01*
X55981374Y-156773800D01*
X56140994Y-156805550D01*
X56140994Y-156805550D01*
G37*
G36*
X78476200Y-158126200D02*
X76823800Y-158126200D01*
X76823800Y-156673800D01*
X78476200Y-156673800D01*
X78476200Y-158126200D01*
X78476200Y-158126200D01*
G37*
G36*
X81176200Y-158126200D02*
X79523800Y-158126200D01*
X79523800Y-156673800D01*
X81176200Y-156673800D01*
X81176200Y-158126200D01*
X81176200Y-158126200D01*
G37*
G36*
X67376200Y-157826200D02*
X66623800Y-157826200D01*
X66623800Y-157173800D01*
X67376200Y-157173800D01*
X67376200Y-157826200D01*
X67376200Y-157826200D01*
G37*
G36*
X68476200Y-157826200D02*
X67723800Y-157826200D01*
X67723800Y-157173800D01*
X68476200Y-157173800D01*
X68476200Y-157826200D01*
X68476200Y-157826200D01*
G37*
G36*
X59876200Y-156026200D02*
X58523800Y-156026200D01*
X58523800Y-154973800D01*
X59876200Y-154973800D01*
X59876200Y-156026200D01*
X59876200Y-156026200D01*
G37*
G36*
X62076200Y-156026200D02*
X60723800Y-156026200D01*
X60723800Y-154973800D01*
X62076200Y-154973800D01*
X62076200Y-156026200D01*
X62076200Y-156026200D01*
G37*
G36*
X56590000Y-156000000D02*
X56060000Y-156000000D01*
X56060000Y-155300000D01*
X56590000Y-155300000D01*
X56590000Y-156000000D01*
X56590000Y-156000000D01*
G37*
G36*
X57240000Y-156000000D02*
X56710000Y-156000000D01*
X56710000Y-155300000D01*
X57240000Y-155300000D01*
X57240000Y-156000000D01*
X57240000Y-156000000D01*
G37*
G36*
X55940000Y-156000000D02*
X55410000Y-156000000D01*
X55410000Y-155300000D01*
X55940000Y-155300000D01*
X55940000Y-156000000D01*
X55940000Y-156000000D01*
G37*
G36*
X55290000Y-156000000D02*
X54760000Y-156000000D01*
X54760000Y-155300000D01*
X55290000Y-155300000D01*
X55290000Y-156000000D01*
X55290000Y-156000000D01*
G37*
G36*
X55290000Y-152599200D02*
X55290976Y-152609111D01*
X55293867Y-152618640D01*
X55298561Y-152627423D01*
X55304879Y-152635121D01*
X55312577Y-152641439D01*
X55321360Y-152646133D01*
X55330889Y-152649024D01*
X55340800Y-152650000D01*
X55359200Y-152650000D01*
X55369111Y-152649024D01*
X55378640Y-152646133D01*
X55387423Y-152641439D01*
X55395121Y-152635121D01*
X55401439Y-152627423D01*
X55406133Y-152618640D01*
X55409024Y-152609111D01*
X55410000Y-152599200D01*
X55410000Y-152200000D01*
X55940000Y-152200000D01*
X55940000Y-152599200D01*
X55940976Y-152609111D01*
X55943867Y-152618640D01*
X55948561Y-152627423D01*
X55954879Y-152635121D01*
X55962577Y-152641439D01*
X55971360Y-152646133D01*
X55980889Y-152649024D01*
X55990800Y-152650000D01*
X56009200Y-152650000D01*
X56019111Y-152649024D01*
X56028640Y-152646133D01*
X56037423Y-152641439D01*
X56045121Y-152635121D01*
X56051439Y-152627423D01*
X56056133Y-152618640D01*
X56059024Y-152609111D01*
X56060000Y-152599200D01*
X56060000Y-152200000D01*
X56590000Y-152200000D01*
X56590000Y-152599200D01*
X56590976Y-152609111D01*
X56593867Y-152618640D01*
X56598561Y-152627423D01*
X56604879Y-152635121D01*
X56612577Y-152641439D01*
X56621360Y-152646133D01*
X56630889Y-152649024D01*
X56640800Y-152650000D01*
X56659200Y-152650000D01*
X56669111Y-152649024D01*
X56678640Y-152646133D01*
X56687423Y-152641439D01*
X56695121Y-152635121D01*
X56701439Y-152627423D01*
X56706133Y-152618640D01*
X56709024Y-152609111D01*
X56710000Y-152599200D01*
X56710000Y-152200000D01*
X57240000Y-152200000D01*
X57240000Y-152599200D01*
X57240976Y-152609111D01*
X57243867Y-152618640D01*
X57248561Y-152627423D01*
X57254879Y-152635121D01*
X57262577Y-152641439D01*
X57271360Y-152646133D01*
X57280889Y-152649024D01*
X57290800Y-152650000D01*
X57550000Y-152650000D01*
X57550000Y-154750000D01*
X54450000Y-154750000D01*
X54450000Y-152650000D01*
X54709200Y-152650000D01*
X54719111Y-152649024D01*
X54728640Y-152646133D01*
X54737423Y-152641439D01*
X54745121Y-152635121D01*
X54751439Y-152627423D01*
X54756133Y-152618640D01*
X54759024Y-152609111D01*
X54760000Y-152599200D01*
X54760000Y-152200000D01*
X55290000Y-152200000D01*
X55290000Y-152599200D01*
X55290000Y-152599200D01*
G37*
G36*
X127150000Y-152900000D02*
X126890800Y-152900000D01*
X126880889Y-152900976D01*
X126871360Y-152903867D01*
X126862577Y-152908561D01*
X126854879Y-152914879D01*
X126848561Y-152922577D01*
X126843867Y-152931360D01*
X126840976Y-152940889D01*
X126840000Y-152950800D01*
X126840000Y-153350000D01*
X126310000Y-153350000D01*
X126310000Y-152950800D01*
X126309024Y-152940889D01*
X126306133Y-152931360D01*
X126301439Y-152922577D01*
X126295121Y-152914879D01*
X126287423Y-152908561D01*
X126278640Y-152903867D01*
X126269111Y-152900976D01*
X126259200Y-152900000D01*
X126240800Y-152900000D01*
X126230889Y-152900976D01*
X126221360Y-152903867D01*
X126212577Y-152908561D01*
X126204879Y-152914879D01*
X126198561Y-152922577D01*
X126193867Y-152931360D01*
X126190976Y-152940889D01*
X126190000Y-152950800D01*
X126190000Y-153350000D01*
X125660000Y-153350000D01*
X125660000Y-152950800D01*
X125659024Y-152940889D01*
X125656133Y-152931360D01*
X125651439Y-152922577D01*
X125645121Y-152914879D01*
X125637423Y-152908561D01*
X125628640Y-152903867D01*
X125619111Y-152900976D01*
X125609200Y-152900000D01*
X125590800Y-152900000D01*
X125580889Y-152900976D01*
X125571360Y-152903867D01*
X125562577Y-152908561D01*
X125554879Y-152914879D01*
X125548561Y-152922577D01*
X125543867Y-152931360D01*
X125540976Y-152940889D01*
X125540000Y-152950800D01*
X125540000Y-153350000D01*
X125010000Y-153350000D01*
X125010000Y-152950800D01*
X125009024Y-152940889D01*
X125006133Y-152931360D01*
X125001439Y-152922577D01*
X124995121Y-152914879D01*
X124987423Y-152908561D01*
X124978640Y-152903867D01*
X124969111Y-152900976D01*
X124959200Y-152900000D01*
X124940800Y-152900000D01*
X124930889Y-152900976D01*
X124921360Y-152903867D01*
X124912577Y-152908561D01*
X124904879Y-152914879D01*
X124898561Y-152922577D01*
X124893867Y-152931360D01*
X124890976Y-152940889D01*
X124890000Y-152950800D01*
X124890000Y-153350000D01*
X124360000Y-153350000D01*
X124360000Y-152950800D01*
X124359024Y-152940889D01*
X124356133Y-152931360D01*
X124351439Y-152922577D01*
X124345121Y-152914879D01*
X124337423Y-152908561D01*
X124328640Y-152903867D01*
X124319111Y-152900976D01*
X124309200Y-152900000D01*
X124050000Y-152900000D01*
X124050000Y-150800000D01*
X127150000Y-150800000D01*
X127150000Y-152900000D01*
X127150000Y-152900000D01*
G37*
G36*
X120876200Y-150576200D02*
X119523800Y-150576200D01*
X119523800Y-149523800D01*
X120876200Y-149523800D01*
X120876200Y-150576200D01*
X120876200Y-150576200D01*
G37*
G36*
X123076200Y-150576200D02*
X121723800Y-150576200D01*
X121723800Y-149523800D01*
X123076200Y-149523800D01*
X123076200Y-150576200D01*
X123076200Y-150576200D01*
G37*
G36*
X126840000Y-150250000D02*
X126310000Y-150250000D01*
X126310000Y-149550000D01*
X126840000Y-149550000D01*
X126840000Y-150250000D01*
X126840000Y-150250000D01*
G37*
G36*
X126190000Y-150250000D02*
X125660000Y-150250000D01*
X125660000Y-149550000D01*
X126190000Y-149550000D01*
X126190000Y-150250000D01*
X126190000Y-150250000D01*
G37*
G36*
X125540000Y-150250000D02*
X125010000Y-150250000D01*
X125010000Y-149550000D01*
X125540000Y-149550000D01*
X125540000Y-150250000D01*
X125540000Y-150250000D01*
G37*
G36*
X124890000Y-150250000D02*
X124360000Y-150250000D01*
X124360000Y-149550000D01*
X124890000Y-149550000D01*
X124890000Y-150250000D01*
X124890000Y-150250000D01*
G37*
G36*
X102076200Y-148876200D02*
X100423800Y-148876200D01*
X100423800Y-147423800D01*
X102076200Y-147423800D01*
X102076200Y-148876200D01*
X102076200Y-148876200D01*
G37*
G36*
X104776200Y-148876200D02*
X103123800Y-148876200D01*
X103123800Y-147423800D01*
X104776200Y-147423800D01*
X104776200Y-148876200D01*
X104776200Y-148876200D01*
G37*
G36*
X108476200Y-148826200D02*
X106723800Y-148826200D01*
X106723800Y-146073800D01*
X108476200Y-146073800D01*
X108476200Y-148826200D01*
X108476200Y-148826200D01*
G37*
G36*
X125940994Y-147155550D02*
X126091353Y-147217831D01*
X126226672Y-147308248D01*
X126341752Y-147423328D01*
X126432169Y-147558647D01*
X126494450Y-147709006D01*
X126526200Y-147868626D01*
X126526200Y-148031374D01*
X126494450Y-148190994D01*
X126432169Y-148341353D01*
X126341752Y-148476672D01*
X126226672Y-148591752D01*
X126091353Y-148682169D01*
X125940994Y-148744450D01*
X125781374Y-148776200D01*
X125618626Y-148776200D01*
X125459006Y-148744450D01*
X125308647Y-148682169D01*
X125173328Y-148591752D01*
X125058248Y-148476672D01*
X124967831Y-148341353D01*
X124905550Y-148190994D01*
X124873800Y-148031374D01*
X124873800Y-147868626D01*
X124905550Y-147709006D01*
X124967831Y-147558647D01*
X125058248Y-147423328D01*
X125173328Y-147308248D01*
X125308647Y-147217831D01*
X125459006Y-147155550D01*
X125618626Y-147123800D01*
X125781374Y-147123800D01*
X125940994Y-147155550D01*
X125940994Y-147155550D01*
G37*
G36*
X122240994Y-146955550D02*
X122391353Y-147017831D01*
X122526672Y-147108248D01*
X122641752Y-147223328D01*
X122732169Y-147358647D01*
X122794450Y-147509006D01*
X122826200Y-147668626D01*
X122826200Y-147831374D01*
X122794450Y-147990994D01*
X122732169Y-148141353D01*
X122641752Y-148276672D01*
X122526672Y-148391752D01*
X122391353Y-148482169D01*
X122240994Y-148544450D01*
X122081374Y-148576200D01*
X121918626Y-148576200D01*
X121759006Y-148544450D01*
X121608647Y-148482169D01*
X121473328Y-148391752D01*
X121358248Y-148276672D01*
X121267831Y-148141353D01*
X121205550Y-147990994D01*
X121173800Y-147831374D01*
X121173800Y-147668626D01*
X121205550Y-147509006D01*
X121267831Y-147358647D01*
X121358248Y-147223328D01*
X121473328Y-147108248D01*
X121608647Y-147017831D01*
X121759006Y-146955550D01*
X121918626Y-146923800D01*
X122081374Y-146923800D01*
X122240994Y-146955550D01*
X122240994Y-146955550D01*
G37*
G36*
X120651200Y-148376200D02*
X119748800Y-148376200D01*
X119748800Y-147023800D01*
X120651200Y-147023800D01*
X120651200Y-148376200D01*
X120651200Y-148376200D01*
G37*
G36*
X114976200Y-148376200D02*
X114223800Y-148376200D01*
X114223800Y-147723800D01*
X114976200Y-147723800D01*
X114976200Y-148376200D01*
X114976200Y-148376200D01*
G37*
G36*
X113876200Y-148376200D02*
X113123800Y-148376200D01*
X113123800Y-147723800D01*
X113876200Y-147723800D01*
X113876200Y-148376200D01*
X113876200Y-148376200D01*
G37*
G36*
X69376200Y-148176200D02*
X66823800Y-148176200D01*
X66823800Y-145623800D01*
X69376200Y-145623800D01*
X69376200Y-148176200D01*
X69376200Y-148176200D01*
G37*
G36*
X75807881Y-145640148D02*
X75972256Y-145672844D01*
X76204505Y-145769045D01*
X76204507Y-145769046D01*
X76400493Y-145900000D01*
X76413531Y-145908712D01*
X76591288Y-146086469D01*
X76730955Y-146295495D01*
X76827156Y-146527744D01*
X76876200Y-146774306D01*
X76876200Y-147025694D01*
X76827156Y-147272256D01*
X76764384Y-147423800D01*
X76730954Y-147504507D01*
X76591289Y-147713530D01*
X76413530Y-147891289D01*
X76204507Y-148030954D01*
X76204506Y-148030955D01*
X76204505Y-148030955D01*
X75972256Y-148127156D01*
X75807881Y-148159852D01*
X75725695Y-148176200D01*
X75474305Y-148176200D01*
X75392119Y-148159852D01*
X75227744Y-148127156D01*
X74995495Y-148030955D01*
X74995494Y-148030955D01*
X74995493Y-148030954D01*
X74786470Y-147891289D01*
X74608711Y-147713530D01*
X74469046Y-147504507D01*
X74435616Y-147423800D01*
X74372844Y-147272256D01*
X74323800Y-147025694D01*
X74323800Y-146774306D01*
X74372844Y-146527744D01*
X74469045Y-146295495D01*
X74608712Y-146086469D01*
X74786469Y-145908712D01*
X74799507Y-145900000D01*
X74995493Y-145769046D01*
X74995495Y-145769045D01*
X75227744Y-145672844D01*
X75392119Y-145640148D01*
X75474305Y-145623800D01*
X75725695Y-145623800D01*
X75807881Y-145640148D01*
X75807881Y-145640148D01*
G37*
G36*
X119126200Y-147626200D02*
X118473800Y-147626200D01*
X118473800Y-146873800D01*
X119126200Y-146873800D01*
X119126200Y-147626200D01*
X119126200Y-147626200D01*
G37*
G36*
X119126200Y-146526200D02*
X118473800Y-146526200D01*
X118473800Y-145773800D01*
X119126200Y-145773800D01*
X119126200Y-146526200D01*
X119126200Y-146526200D01*
G37*
G36*
X120651200Y-146476200D02*
X119748800Y-146476200D01*
X119748800Y-145123800D01*
X120651200Y-145123800D01*
X120651200Y-146476200D01*
X120651200Y-146476200D01*
G37*
G36*
X127150000Y-146000000D02*
X126890800Y-146000000D01*
X126880889Y-146000976D01*
X126871360Y-146003867D01*
X126862577Y-146008561D01*
X126854879Y-146014879D01*
X126848561Y-146022577D01*
X126843867Y-146031360D01*
X126840976Y-146040889D01*
X126840000Y-146050800D01*
X126840000Y-146450000D01*
X126310000Y-146450000D01*
X126310000Y-146050800D01*
X126309024Y-146040889D01*
X126306133Y-146031360D01*
X126301439Y-146022577D01*
X126295121Y-146014879D01*
X126287423Y-146008561D01*
X126278640Y-146003867D01*
X126269111Y-146000976D01*
X126259200Y-146000000D01*
X126240800Y-146000000D01*
X126230889Y-146000976D01*
X126221360Y-146003867D01*
X126212577Y-146008561D01*
X126204879Y-146014879D01*
X126198561Y-146022577D01*
X126193867Y-146031360D01*
X126190976Y-146040889D01*
X126190000Y-146050800D01*
X126190000Y-146450000D01*
X125660000Y-146450000D01*
X125660000Y-146050800D01*
X125659024Y-146040889D01*
X125656133Y-146031360D01*
X125651439Y-146022577D01*
X125645121Y-146014879D01*
X125637423Y-146008561D01*
X125628640Y-146003867D01*
X125619111Y-146000976D01*
X125609200Y-146000000D01*
X125590800Y-146000000D01*
X125580889Y-146000976D01*
X125571360Y-146003867D01*
X125562577Y-146008561D01*
X125554879Y-146014879D01*
X125548561Y-146022577D01*
X125543867Y-146031360D01*
X125540976Y-146040889D01*
X125540000Y-146050800D01*
X125540000Y-146450000D01*
X125010000Y-146450000D01*
X125010000Y-146050800D01*
X125009024Y-146040889D01*
X125006133Y-146031360D01*
X125001439Y-146022577D01*
X124995121Y-146014879D01*
X124987423Y-146008561D01*
X124978640Y-146003867D01*
X124969111Y-146000976D01*
X124959200Y-146000000D01*
X124940800Y-146000000D01*
X124930889Y-146000976D01*
X124921360Y-146003867D01*
X124912577Y-146008561D01*
X124904879Y-146014879D01*
X124898561Y-146022577D01*
X124893867Y-146031360D01*
X124890976Y-146040889D01*
X124890000Y-146050800D01*
X124890000Y-146450000D01*
X124360000Y-146450000D01*
X124360000Y-146050800D01*
X124359024Y-146040889D01*
X124356133Y-146031360D01*
X124351439Y-146022577D01*
X124345121Y-146014879D01*
X124337423Y-146008561D01*
X124328640Y-146003867D01*
X124319111Y-146000976D01*
X124309200Y-146000000D01*
X124050000Y-146000000D01*
X124050000Y-143900000D01*
X127150000Y-143900000D01*
X127150000Y-146000000D01*
X127150000Y-146000000D01*
G37*
G36*
X112750000Y-146450000D02*
X111300000Y-146450000D01*
X111300000Y-144050000D01*
X112750000Y-144050000D01*
X112750000Y-146450000D01*
X112750000Y-146450000D01*
G37*
G36*
X116700000Y-146450000D02*
X115250000Y-146450000D01*
X115250000Y-144050000D01*
X116700000Y-144050000D01*
X116700000Y-146450000D01*
X116700000Y-146450000D01*
G37*
G36*
X108476200Y-145226200D02*
X106723800Y-145226200D01*
X106723800Y-142473800D01*
X108476200Y-142473800D01*
X108476200Y-145226200D01*
X108476200Y-145226200D01*
G37*
G36*
X55076200Y-144176200D02*
X52923800Y-144176200D01*
X52923800Y-142023800D01*
X55076200Y-142023800D01*
X55076200Y-144176200D01*
X55076200Y-144176200D01*
G37*
G36*
X59313918Y-142065158D02*
X59509770Y-142146283D01*
X59509772Y-142146284D01*
X59597904Y-142205172D01*
X59686039Y-142264062D01*
X59835938Y-142413961D01*
X59953717Y-142590230D01*
X60034842Y-142786082D01*
X60076200Y-142994004D01*
X60076200Y-143205996D01*
X60034842Y-143413918D01*
X59953717Y-143609770D01*
X59835938Y-143786039D01*
X59686039Y-143935938D01*
X59597905Y-143994827D01*
X59509772Y-144053716D01*
X59509771Y-144053717D01*
X59509770Y-144053717D01*
X59313918Y-144134842D01*
X59105996Y-144176200D01*
X58894004Y-144176200D01*
X58686082Y-144134842D01*
X58490230Y-144053717D01*
X58490229Y-144053717D01*
X58490228Y-144053716D01*
X58402095Y-143994827D01*
X58313961Y-143935938D01*
X58164062Y-143786039D01*
X58046283Y-143609770D01*
X57965158Y-143413918D01*
X57923800Y-143205996D01*
X57923800Y-142994004D01*
X57965158Y-142786082D01*
X58046283Y-142590230D01*
X58164062Y-142413961D01*
X58313961Y-142264062D01*
X58402096Y-142205172D01*
X58490228Y-142146284D01*
X58490230Y-142146283D01*
X58686082Y-142065158D01*
X58894004Y-142023800D01*
X59105996Y-142023800D01*
X59313918Y-142065158D01*
X59313918Y-142065158D01*
G37*
G36*
X123376200Y-143876200D02*
X122023800Y-143876200D01*
X122023800Y-142823800D01*
X123376200Y-142823800D01*
X123376200Y-143876200D01*
X123376200Y-143876200D01*
G37*
G36*
X121176200Y-143876200D02*
X119823800Y-143876200D01*
X119823800Y-142823800D01*
X121176200Y-142823800D01*
X121176200Y-143876200D01*
X121176200Y-143876200D01*
G37*
G36*
X124890000Y-143350000D02*
X124360000Y-143350000D01*
X124360000Y-142650000D01*
X124890000Y-142650000D01*
X124890000Y-143350000D01*
X124890000Y-143350000D01*
G37*
G36*
X126840000Y-143350000D02*
X126310000Y-143350000D01*
X126310000Y-142650000D01*
X126840000Y-142650000D01*
X126840000Y-143350000D01*
X126840000Y-143350000D01*
G37*
G36*
X125540000Y-143350000D02*
X125010000Y-143350000D01*
X125010000Y-142650000D01*
X125540000Y-142650000D01*
X125540000Y-143350000D01*
X125540000Y-143350000D01*
G37*
G36*
X126190000Y-143350000D02*
X125660000Y-143350000D01*
X125660000Y-142650000D01*
X126190000Y-142650000D01*
X126190000Y-143350000D01*
X126190000Y-143350000D01*
G37*
G36*
X113926200Y-143026200D02*
X113373800Y-143026200D01*
X113373800Y-142273800D01*
X113926200Y-142273800D01*
X113926200Y-143026200D01*
X113926200Y-143026200D01*
G37*
G36*
X114826200Y-143026200D02*
X114273800Y-143026200D01*
X114273800Y-142273800D01*
X114826200Y-142273800D01*
X114826200Y-143026200D01*
X114826200Y-143026200D01*
G37*
G36*
X128676200Y-133526200D02*
X126523800Y-133526200D01*
X126523800Y-131373800D01*
X128676200Y-131373800D01*
X128676200Y-133526200D01*
X128676200Y-133526200D01*
G37*
G36*
X122913918Y-131415158D02*
X123109770Y-131496283D01*
X123109772Y-131496284D01*
X123115333Y-131500000D01*
X123286039Y-131614062D01*
X123435938Y-131763961D01*
X123553717Y-131940230D01*
X123634842Y-132136082D01*
X123676200Y-132344004D01*
X123676200Y-132555996D01*
X123634842Y-132763918D01*
X123553717Y-132959770D01*
X123435938Y-133136039D01*
X123286039Y-133285938D01*
X123197904Y-133344828D01*
X123109772Y-133403716D01*
X123109771Y-133403717D01*
X123109770Y-133403717D01*
X122913918Y-133484842D01*
X122705996Y-133526200D01*
X122494004Y-133526200D01*
X122286082Y-133484842D01*
X122090230Y-133403717D01*
X122090229Y-133403717D01*
X122090228Y-133403716D01*
X122002095Y-133344827D01*
X121913961Y-133285938D01*
X121764062Y-133136039D01*
X121646283Y-132959770D01*
X121565158Y-132763918D01*
X121523800Y-132555996D01*
X121523800Y-132344004D01*
X121565158Y-132136082D01*
X121646283Y-131940230D01*
X121764062Y-131763961D01*
X121913961Y-131614062D01*
X122084667Y-131500000D01*
X122090228Y-131496284D01*
X122090230Y-131496283D01*
X122286082Y-131415158D01*
X122494004Y-131373800D01*
X122705996Y-131373800D01*
X122913918Y-131415158D01*
X122913918Y-131415158D01*
G37*
G36*
X67326200Y-133276200D02*
X66773800Y-133276200D01*
X66773800Y-132523800D01*
X67326200Y-132523800D01*
X67326200Y-133276200D01*
X67326200Y-133276200D01*
G37*
G36*
X68226200Y-133276200D02*
X67673800Y-133276200D01*
X67673800Y-132523800D01*
X68226200Y-132523800D01*
X68226200Y-133276200D01*
X68226200Y-133276200D01*
G37*
G36*
X74876200Y-133076200D02*
X73123800Y-133076200D01*
X73123800Y-130323800D01*
X74876200Y-130323800D01*
X74876200Y-133076200D01*
X74876200Y-133076200D01*
G37*
G36*
X55940000Y-132900000D02*
X55410000Y-132900000D01*
X55410000Y-132200000D01*
X55940000Y-132200000D01*
X55940000Y-132900000D01*
X55940000Y-132900000D01*
G37*
G36*
X57240000Y-132900000D02*
X56710000Y-132900000D01*
X56710000Y-132200000D01*
X57240000Y-132200000D01*
X57240000Y-132900000D01*
X57240000Y-132900000D01*
G37*
G36*
X56590000Y-132900000D02*
X56060000Y-132900000D01*
X56060000Y-132200000D01*
X56590000Y-132200000D01*
X56590000Y-132900000D01*
X56590000Y-132900000D01*
G37*
G36*
X55290000Y-132900000D02*
X54760000Y-132900000D01*
X54760000Y-132200000D01*
X55290000Y-132200000D01*
X55290000Y-132900000D01*
X55290000Y-132900000D01*
G37*
G36*
X61776200Y-132726200D02*
X60423800Y-132726200D01*
X60423800Y-131673800D01*
X61776200Y-131673800D01*
X61776200Y-132726200D01*
X61776200Y-132726200D01*
G37*
G36*
X59576200Y-132726200D02*
X58223800Y-132726200D01*
X58223800Y-131673800D01*
X59576200Y-131673800D01*
X59576200Y-132726200D01*
X59576200Y-132726200D01*
G37*
G36*
X55290000Y-129499200D02*
X55290976Y-129509111D01*
X55293867Y-129518640D01*
X55298561Y-129527423D01*
X55304879Y-129535121D01*
X55312577Y-129541439D01*
X55321360Y-129546133D01*
X55330889Y-129549024D01*
X55340800Y-129550000D01*
X55359200Y-129550000D01*
X55369111Y-129549024D01*
X55378640Y-129546133D01*
X55387423Y-129541439D01*
X55395121Y-129535121D01*
X55401439Y-129527423D01*
X55406133Y-129518640D01*
X55409024Y-129509111D01*
X55410000Y-129499200D01*
X55410000Y-129100000D01*
X55940000Y-129100000D01*
X55940000Y-129499200D01*
X55940976Y-129509111D01*
X55943867Y-129518640D01*
X55948561Y-129527423D01*
X55954879Y-129535121D01*
X55962577Y-129541439D01*
X55971360Y-129546133D01*
X55980889Y-129549024D01*
X55990800Y-129550000D01*
X56009200Y-129550000D01*
X56019111Y-129549024D01*
X56028640Y-129546133D01*
X56037423Y-129541439D01*
X56045121Y-129535121D01*
X56051439Y-129527423D01*
X56056133Y-129518640D01*
X56059024Y-129509111D01*
X56060000Y-129499200D01*
X56060000Y-129100000D01*
X56590000Y-129100000D01*
X56590000Y-129499200D01*
X56590976Y-129509111D01*
X56593867Y-129518640D01*
X56598561Y-129527423D01*
X56604879Y-129535121D01*
X56612577Y-129541439D01*
X56621360Y-129546133D01*
X56630889Y-129549024D01*
X56640800Y-129550000D01*
X56659200Y-129550000D01*
X56669111Y-129549024D01*
X56678640Y-129546133D01*
X56687423Y-129541439D01*
X56695121Y-129535121D01*
X56701439Y-129527423D01*
X56706133Y-129518640D01*
X56709024Y-129509111D01*
X56710000Y-129499200D01*
X56710000Y-129100000D01*
X57240000Y-129100000D01*
X57240000Y-129499200D01*
X57240976Y-129509111D01*
X57243867Y-129518640D01*
X57248561Y-129527423D01*
X57254879Y-129535121D01*
X57262577Y-129541439D01*
X57271360Y-129546133D01*
X57280889Y-129549024D01*
X57290800Y-129550000D01*
X57550000Y-129550000D01*
X57550000Y-131650000D01*
X54450000Y-131650000D01*
X54450000Y-129550000D01*
X54709200Y-129550000D01*
X54719111Y-129549024D01*
X54728640Y-129546133D01*
X54737423Y-129541439D01*
X54745121Y-129535121D01*
X54751439Y-129527423D01*
X54756133Y-129518640D01*
X54759024Y-129509111D01*
X54760000Y-129499200D01*
X54760000Y-129100000D01*
X55290000Y-129100000D01*
X55290000Y-129499200D01*
X55290000Y-129499200D01*
G37*
G36*
X66350000Y-131500000D02*
X64900000Y-131500000D01*
X64900000Y-129100000D01*
X66350000Y-129100000D01*
X66350000Y-131500000D01*
X66350000Y-131500000D01*
G37*
G36*
X70300000Y-131500000D02*
X68850000Y-131500000D01*
X68850000Y-129100000D01*
X70300000Y-129100000D01*
X70300000Y-131500000D01*
X70300000Y-131500000D01*
G37*
G36*
X61851200Y-130426200D02*
X60948800Y-130426200D01*
X60948800Y-129073800D01*
X61851200Y-129073800D01*
X61851200Y-130426200D01*
X61851200Y-130426200D01*
G37*
G36*
X106207881Y-127390148D02*
X106372256Y-127422844D01*
X106604505Y-127519045D01*
X106604507Y-127519046D01*
X106813530Y-127658711D01*
X106991289Y-127836470D01*
X107127949Y-128040995D01*
X107130955Y-128045495D01*
X107227156Y-128277744D01*
X107276200Y-128524306D01*
X107276200Y-128775694D01*
X107227156Y-129022256D01*
X107194953Y-129100000D01*
X107130954Y-129254507D01*
X106991289Y-129463530D01*
X106813530Y-129641289D01*
X106604507Y-129780954D01*
X106604506Y-129780955D01*
X106604505Y-129780955D01*
X106372256Y-129877156D01*
X106207881Y-129909852D01*
X106125695Y-129926200D01*
X105874305Y-129926200D01*
X105792119Y-129909852D01*
X105627744Y-129877156D01*
X105395495Y-129780955D01*
X105395494Y-129780955D01*
X105395493Y-129780954D01*
X105186470Y-129641289D01*
X105008711Y-129463530D01*
X104869046Y-129254507D01*
X104805047Y-129100000D01*
X104772844Y-129022256D01*
X104723800Y-128775694D01*
X104723800Y-128524306D01*
X104772844Y-128277744D01*
X104869045Y-128045495D01*
X104872052Y-128040995D01*
X105008711Y-127836470D01*
X105186470Y-127658711D01*
X105395493Y-127519046D01*
X105395495Y-127519045D01*
X105627744Y-127422844D01*
X105792119Y-127390148D01*
X105874305Y-127373800D01*
X106125695Y-127373800D01*
X106207881Y-127390148D01*
X106207881Y-127390148D01*
G37*
G36*
X114776200Y-129926200D02*
X112223800Y-129926200D01*
X112223800Y-127373800D01*
X114776200Y-127373800D01*
X114776200Y-129926200D01*
X114776200Y-129926200D01*
G37*
G36*
X63126200Y-129776200D02*
X62473800Y-129776200D01*
X62473800Y-129023800D01*
X63126200Y-129023800D01*
X63126200Y-129776200D01*
X63126200Y-129776200D01*
G37*
G36*
X74876200Y-129476200D02*
X73123800Y-129476200D01*
X73123800Y-126723800D01*
X74876200Y-126723800D01*
X74876200Y-129476200D01*
X74876200Y-129476200D01*
G37*
G36*
X63126200Y-128676200D02*
X62473800Y-128676200D01*
X62473800Y-127923800D01*
X63126200Y-127923800D01*
X63126200Y-128676200D01*
X63126200Y-128676200D01*
G37*
G36*
X59840994Y-127005550D02*
X59991353Y-127067831D01*
X60126672Y-127158248D01*
X60241752Y-127273328D01*
X60332169Y-127408647D01*
X60394450Y-127559006D01*
X60426200Y-127718626D01*
X60426200Y-127881374D01*
X60394450Y-128040994D01*
X60332169Y-128191353D01*
X60241752Y-128326672D01*
X60126672Y-128441752D01*
X59991353Y-128532169D01*
X59840994Y-128594450D01*
X59681374Y-128626200D01*
X59518626Y-128626200D01*
X59359006Y-128594450D01*
X59208647Y-128532169D01*
X59073328Y-128441752D01*
X58958248Y-128326672D01*
X58867831Y-128191353D01*
X58805550Y-128040994D01*
X58773800Y-127881374D01*
X58773800Y-127718626D01*
X58805550Y-127559006D01*
X58867831Y-127408647D01*
X58958248Y-127273328D01*
X59073328Y-127158248D01*
X59208647Y-127067831D01*
X59359006Y-127005550D01*
X59518626Y-126973800D01*
X59681374Y-126973800D01*
X59840994Y-127005550D01*
X59840994Y-127005550D01*
G37*
G36*
X61851200Y-128526200D02*
X60948800Y-128526200D01*
X60948800Y-127173800D01*
X61851200Y-127173800D01*
X61851200Y-128526200D01*
X61851200Y-128526200D01*
G37*
G36*
X56140994Y-126805550D02*
X56291353Y-126867831D01*
X56426672Y-126958248D01*
X56541752Y-127073328D01*
X56632169Y-127208647D01*
X56694450Y-127359006D01*
X56726200Y-127518626D01*
X56726200Y-127681374D01*
X56694450Y-127840994D01*
X56632169Y-127991353D01*
X56541752Y-128126672D01*
X56426672Y-128241752D01*
X56291353Y-128332169D01*
X56140994Y-128394450D01*
X55981374Y-128426200D01*
X55818626Y-128426200D01*
X55659006Y-128394450D01*
X55508647Y-128332169D01*
X55373328Y-128241752D01*
X55258248Y-128126672D01*
X55167831Y-127991353D01*
X55105550Y-127840994D01*
X55073800Y-127681374D01*
X55073800Y-127518626D01*
X55105550Y-127359006D01*
X55167831Y-127208647D01*
X55258248Y-127073328D01*
X55373328Y-126958248D01*
X55508647Y-126867831D01*
X55659006Y-126805550D01*
X55818626Y-126773800D01*
X55981374Y-126773800D01*
X56140994Y-126805550D01*
X56140994Y-126805550D01*
G37*
G36*
X81176200Y-128126200D02*
X79523800Y-128126200D01*
X79523800Y-126673800D01*
X81176200Y-126673800D01*
X81176200Y-128126200D01*
X81176200Y-128126200D01*
G37*
G36*
X78476200Y-128126200D02*
X76823800Y-128126200D01*
X76823800Y-126673800D01*
X78476200Y-126673800D01*
X78476200Y-128126200D01*
X78476200Y-128126200D01*
G37*
G36*
X67376200Y-127826200D02*
X66623800Y-127826200D01*
X66623800Y-127173800D01*
X67376200Y-127173800D01*
X67376200Y-127826200D01*
X67376200Y-127826200D01*
G37*
G36*
X68476200Y-127826200D02*
X67723800Y-127826200D01*
X67723800Y-127173800D01*
X68476200Y-127173800D01*
X68476200Y-127826200D01*
X68476200Y-127826200D01*
G37*
G36*
X44376200Y-126476200D02*
X36223800Y-126476200D01*
X36223800Y-120323800D01*
X44376200Y-120323800D01*
X44376200Y-126476200D01*
X44376200Y-126476200D01*
G37*
G36*
X59876200Y-126026200D02*
X58523800Y-126026200D01*
X58523800Y-124973800D01*
X59876200Y-124973800D01*
X59876200Y-126026200D01*
X59876200Y-126026200D01*
G37*
G36*
X62076200Y-126026200D02*
X60723800Y-126026200D01*
X60723800Y-124973800D01*
X62076200Y-124973800D01*
X62076200Y-126026200D01*
X62076200Y-126026200D01*
G37*
G36*
X56590000Y-126000000D02*
X56060000Y-126000000D01*
X56060000Y-125300000D01*
X56590000Y-125300000D01*
X56590000Y-126000000D01*
X56590000Y-126000000D01*
G37*
G36*
X55290000Y-126000000D02*
X54760000Y-126000000D01*
X54760000Y-125300000D01*
X55290000Y-125300000D01*
X55290000Y-126000000D01*
X55290000Y-126000000D01*
G37*
G36*
X55940000Y-126000000D02*
X55410000Y-126000000D01*
X55410000Y-125300000D01*
X55940000Y-125300000D01*
X55940000Y-126000000D01*
X55940000Y-126000000D01*
G37*
G36*
X57240000Y-126000000D02*
X56710000Y-126000000D01*
X56710000Y-125300000D01*
X57240000Y-125300000D01*
X57240000Y-126000000D01*
X57240000Y-126000000D01*
G37*
G36*
X55290000Y-122599200D02*
X55290976Y-122609111D01*
X55293867Y-122618640D01*
X55298561Y-122627423D01*
X55304879Y-122635121D01*
X55312577Y-122641439D01*
X55321360Y-122646133D01*
X55330889Y-122649024D01*
X55340800Y-122650000D01*
X55359200Y-122650000D01*
X55369111Y-122649024D01*
X55378640Y-122646133D01*
X55387423Y-122641439D01*
X55395121Y-122635121D01*
X55401439Y-122627423D01*
X55406133Y-122618640D01*
X55409024Y-122609111D01*
X55410000Y-122599200D01*
X55410000Y-122200000D01*
X55940000Y-122200000D01*
X55940000Y-122599200D01*
X55940976Y-122609111D01*
X55943867Y-122618640D01*
X55948561Y-122627423D01*
X55954879Y-122635121D01*
X55962577Y-122641439D01*
X55971360Y-122646133D01*
X55980889Y-122649024D01*
X55990800Y-122650000D01*
X56009200Y-122650000D01*
X56019111Y-122649024D01*
X56028640Y-122646133D01*
X56037423Y-122641439D01*
X56045121Y-122635121D01*
X56051439Y-122627423D01*
X56056133Y-122618640D01*
X56059024Y-122609111D01*
X56060000Y-122599200D01*
X56060000Y-122200000D01*
X56590000Y-122200000D01*
X56590000Y-122599200D01*
X56590976Y-122609111D01*
X56593867Y-122618640D01*
X56598561Y-122627423D01*
X56604879Y-122635121D01*
X56612577Y-122641439D01*
X56621360Y-122646133D01*
X56630889Y-122649024D01*
X56640800Y-122650000D01*
X56659200Y-122650000D01*
X56669111Y-122649024D01*
X56678640Y-122646133D01*
X56687423Y-122641439D01*
X56695121Y-122635121D01*
X56701439Y-122627423D01*
X56706133Y-122618640D01*
X56709024Y-122609111D01*
X56710000Y-122599200D01*
X56710000Y-122200000D01*
X57240000Y-122200000D01*
X57240000Y-122599200D01*
X57240976Y-122609111D01*
X57243867Y-122618640D01*
X57248561Y-122627423D01*
X57254879Y-122635121D01*
X57262577Y-122641439D01*
X57271360Y-122646133D01*
X57280889Y-122649024D01*
X57290800Y-122650000D01*
X57550000Y-122650000D01*
X57550000Y-124750000D01*
X54450000Y-124750000D01*
X54450000Y-122650000D01*
X54709200Y-122650000D01*
X54719111Y-122649024D01*
X54728640Y-122646133D01*
X54737423Y-122641439D01*
X54745121Y-122635121D01*
X54751439Y-122627423D01*
X54756133Y-122618640D01*
X54759024Y-122609111D01*
X54760000Y-122599200D01*
X54760000Y-122200000D01*
X55290000Y-122200000D01*
X55290000Y-122599200D01*
X55290000Y-122599200D01*
G37*
G36*
X127150000Y-122900000D02*
X126890800Y-122900000D01*
X126880889Y-122900976D01*
X126871360Y-122903867D01*
X126862577Y-122908561D01*
X126854879Y-122914879D01*
X126848561Y-122922577D01*
X126843867Y-122931360D01*
X126840976Y-122940889D01*
X126840000Y-122950800D01*
X126840000Y-123350000D01*
X126310000Y-123350000D01*
X126310000Y-122950800D01*
X126309024Y-122940889D01*
X126306133Y-122931360D01*
X126301439Y-122922577D01*
X126295121Y-122914879D01*
X126287423Y-122908561D01*
X126278640Y-122903867D01*
X126269111Y-122900976D01*
X126259200Y-122900000D01*
X126240800Y-122900000D01*
X126230889Y-122900976D01*
X126221360Y-122903867D01*
X126212577Y-122908561D01*
X126204879Y-122914879D01*
X126198561Y-122922577D01*
X126193867Y-122931360D01*
X126190976Y-122940889D01*
X126190000Y-122950800D01*
X126190000Y-123350000D01*
X125660000Y-123350000D01*
X125660000Y-122950800D01*
X125659024Y-122940889D01*
X125656133Y-122931360D01*
X125651439Y-122922577D01*
X125645121Y-122914879D01*
X125637423Y-122908561D01*
X125628640Y-122903867D01*
X125619111Y-122900976D01*
X125609200Y-122900000D01*
X125590800Y-122900000D01*
X125580889Y-122900976D01*
X125571360Y-122903867D01*
X125562577Y-122908561D01*
X125554879Y-122914879D01*
X125548561Y-122922577D01*
X125543867Y-122931360D01*
X125540976Y-122940889D01*
X125540000Y-122950800D01*
X125540000Y-123350000D01*
X125010000Y-123350000D01*
X125010000Y-122950800D01*
X125009024Y-122940889D01*
X125006133Y-122931360D01*
X125001439Y-122922577D01*
X124995121Y-122914879D01*
X124987423Y-122908561D01*
X124978640Y-122903867D01*
X124969111Y-122900976D01*
X124959200Y-122900000D01*
X124940800Y-122900000D01*
X124930889Y-122900976D01*
X124921360Y-122903867D01*
X124912577Y-122908561D01*
X124904879Y-122914879D01*
X124898561Y-122922577D01*
X124893867Y-122931360D01*
X124890976Y-122940889D01*
X124890000Y-122950800D01*
X124890000Y-123350000D01*
X124360000Y-123350000D01*
X124360000Y-122950800D01*
X124359024Y-122940889D01*
X124356133Y-122931360D01*
X124351439Y-122922577D01*
X124345121Y-122914879D01*
X124337423Y-122908561D01*
X124328640Y-122903867D01*
X124319111Y-122900976D01*
X124309200Y-122900000D01*
X124050000Y-122900000D01*
X124050000Y-120800000D01*
X127150000Y-120800000D01*
X127150000Y-122900000D01*
X127150000Y-122900000D01*
G37*
G36*
X86026200Y-121676200D02*
X84173800Y-121676200D01*
X84173800Y-119823800D01*
X86026200Y-119823800D01*
X86026200Y-121676200D01*
X86026200Y-121676200D01*
G37*
G36*
X90126200Y-121576200D02*
X88273800Y-121576200D01*
X88273800Y-119723800D01*
X90126200Y-119723800D01*
X90126200Y-121576200D01*
X90126200Y-121576200D01*
G37*
G36*
X123076200Y-120576200D02*
X121723800Y-120576200D01*
X121723800Y-119523800D01*
X123076200Y-119523800D01*
X123076200Y-120576200D01*
X123076200Y-120576200D01*
G37*
G36*
X120876200Y-120576200D02*
X119523800Y-120576200D01*
X119523800Y-119523800D01*
X120876200Y-119523800D01*
X120876200Y-120576200D01*
X120876200Y-120576200D01*
G37*
G36*
X124890000Y-120250000D02*
X124360000Y-120250000D01*
X124360000Y-119550000D01*
X124890000Y-119550000D01*
X124890000Y-120250000D01*
X124890000Y-120250000D01*
G37*
G36*
X125540000Y-120250000D02*
X125010000Y-120250000D01*
X125010000Y-119550000D01*
X125540000Y-119550000D01*
X125540000Y-120250000D01*
X125540000Y-120250000D01*
G37*
G36*
X126840000Y-120250000D02*
X126310000Y-120250000D01*
X126310000Y-119550000D01*
X126840000Y-119550000D01*
X126840000Y-120250000D01*
X126840000Y-120250000D01*
G37*
G36*
X126190000Y-120250000D02*
X125660000Y-120250000D01*
X125660000Y-119550000D01*
X126190000Y-119550000D01*
X126190000Y-120250000D01*
X126190000Y-120250000D01*
G37*
G36*
X85281563Y-117297201D02*
X85281566Y-117297202D01*
X85281567Y-117297202D01*
X85456156Y-117350163D01*
X85617059Y-117436167D01*
X85758091Y-117551909D01*
X85873833Y-117692941D01*
X85959837Y-117853844D01*
X85982465Y-117928437D01*
X86012799Y-118028437D01*
X86030682Y-118210000D01*
X86012799Y-118391563D01*
X86012798Y-118391566D01*
X86012798Y-118391567D01*
X85959837Y-118566156D01*
X85873833Y-118727059D01*
X85758091Y-118868091D01*
X85617059Y-118983833D01*
X85456156Y-119069837D01*
X85281567Y-119122798D01*
X85281566Y-119122798D01*
X85281563Y-119122799D01*
X85145501Y-119136200D01*
X85054499Y-119136200D01*
X84918437Y-119122799D01*
X84918434Y-119122798D01*
X84918433Y-119122798D01*
X84743844Y-119069837D01*
X84582941Y-118983833D01*
X84441909Y-118868091D01*
X84326167Y-118727059D01*
X84240163Y-118566156D01*
X84187202Y-118391567D01*
X84187202Y-118391566D01*
X84187201Y-118391563D01*
X84169318Y-118210000D01*
X84187201Y-118028437D01*
X84217536Y-117928437D01*
X84240163Y-117853844D01*
X84326167Y-117692941D01*
X84441909Y-117551909D01*
X84582941Y-117436167D01*
X84743844Y-117350163D01*
X84918433Y-117297202D01*
X84918434Y-117297202D01*
X84918437Y-117297201D01*
X85054499Y-117283800D01*
X85145501Y-117283800D01*
X85281563Y-117297201D01*
X85281563Y-117297201D01*
G37*
G36*
X89381563Y-117197201D02*
X89381566Y-117197202D01*
X89381567Y-117197202D01*
X89556156Y-117250163D01*
X89717059Y-117336167D01*
X89858091Y-117451909D01*
X89945689Y-117558647D01*
X89973832Y-117592940D01*
X90059837Y-117753844D01*
X90112799Y-117928437D01*
X90130682Y-118110000D01*
X90112799Y-118291563D01*
X90112798Y-118291566D01*
X90112798Y-118291567D01*
X90059837Y-118466156D01*
X89973833Y-118627059D01*
X89858091Y-118768091D01*
X89717059Y-118883833D01*
X89556156Y-118969837D01*
X89381567Y-119022798D01*
X89381566Y-119022798D01*
X89381563Y-119022799D01*
X89245501Y-119036200D01*
X89154499Y-119036200D01*
X89018437Y-119022799D01*
X89018434Y-119022798D01*
X89018433Y-119022798D01*
X88843844Y-118969837D01*
X88682941Y-118883833D01*
X88541909Y-118768091D01*
X88426167Y-118627059D01*
X88340163Y-118466156D01*
X88287202Y-118291567D01*
X88287202Y-118291566D01*
X88287201Y-118291563D01*
X88269318Y-118110000D01*
X88287201Y-117928437D01*
X88340163Y-117753844D01*
X88426168Y-117592940D01*
X88454312Y-117558647D01*
X88541909Y-117451909D01*
X88682941Y-117336167D01*
X88843844Y-117250163D01*
X89018433Y-117197202D01*
X89018434Y-117197202D01*
X89018437Y-117197201D01*
X89154499Y-117183800D01*
X89245501Y-117183800D01*
X89381563Y-117197201D01*
X89381563Y-117197201D01*
G37*
G36*
X102076200Y-118876200D02*
X100423800Y-118876200D01*
X100423800Y-117423800D01*
X102076200Y-117423800D01*
X102076200Y-118876200D01*
X102076200Y-118876200D01*
G37*
G36*
X104776200Y-118876200D02*
X103123800Y-118876200D01*
X103123800Y-117423800D01*
X104776200Y-117423800D01*
X104776200Y-118876200D01*
X104776200Y-118876200D01*
G37*
G36*
X108476200Y-118826200D02*
X106723800Y-118826200D01*
X106723800Y-116073800D01*
X108476200Y-116073800D01*
X108476200Y-118826200D01*
X108476200Y-118826200D01*
G37*
G36*
X125940994Y-117155550D02*
X126091353Y-117217831D01*
X126226672Y-117308248D01*
X126341752Y-117423328D01*
X126432169Y-117558647D01*
X126494450Y-117709006D01*
X126526200Y-117868626D01*
X126526200Y-118031374D01*
X126494450Y-118190994D01*
X126432169Y-118341353D01*
X126341752Y-118476672D01*
X126226672Y-118591752D01*
X126091353Y-118682169D01*
X125940994Y-118744450D01*
X125781374Y-118776200D01*
X125618626Y-118776200D01*
X125459006Y-118744450D01*
X125308647Y-118682169D01*
X125173328Y-118591752D01*
X125058248Y-118476672D01*
X124967831Y-118341353D01*
X124905550Y-118190994D01*
X124873800Y-118031374D01*
X124873800Y-117868626D01*
X124905550Y-117709006D01*
X124967831Y-117558647D01*
X125058248Y-117423328D01*
X125173328Y-117308248D01*
X125308647Y-117217831D01*
X125459006Y-117155550D01*
X125618626Y-117123800D01*
X125781374Y-117123800D01*
X125940994Y-117155550D01*
X125940994Y-117155550D01*
G37*
G36*
X122240994Y-116955550D02*
X122391353Y-117017831D01*
X122526672Y-117108248D01*
X122641752Y-117223328D01*
X122732169Y-117358647D01*
X122794450Y-117509006D01*
X122826200Y-117668626D01*
X122826200Y-117831374D01*
X122794450Y-117990994D01*
X122732169Y-118141353D01*
X122641752Y-118276672D01*
X122526672Y-118391752D01*
X122391353Y-118482169D01*
X122240994Y-118544450D01*
X122081374Y-118576200D01*
X121918626Y-118576200D01*
X121759006Y-118544450D01*
X121608647Y-118482169D01*
X121473328Y-118391752D01*
X121358248Y-118276672D01*
X121267831Y-118141353D01*
X121205550Y-117990994D01*
X121173800Y-117831374D01*
X121173800Y-117668626D01*
X121205550Y-117509006D01*
X121267831Y-117358647D01*
X121358248Y-117223328D01*
X121473328Y-117108248D01*
X121608647Y-117017831D01*
X121759006Y-116955550D01*
X121918626Y-116923800D01*
X122081374Y-116923800D01*
X122240994Y-116955550D01*
X122240994Y-116955550D01*
G37*
G36*
X44376200Y-118476200D02*
X36223800Y-118476200D01*
X36223800Y-112323800D01*
X44376200Y-112323800D01*
X44376200Y-118476200D01*
X44376200Y-118476200D01*
G37*
G36*
X120651200Y-118376200D02*
X119748800Y-118376200D01*
X119748800Y-117023800D01*
X120651200Y-117023800D01*
X120651200Y-118376200D01*
X120651200Y-118376200D01*
G37*
G36*
X113876200Y-118376200D02*
X113123800Y-118376200D01*
X113123800Y-117723800D01*
X113876200Y-117723800D01*
X113876200Y-118376200D01*
X113876200Y-118376200D01*
G37*
G36*
X114976200Y-118376200D02*
X114223800Y-118376200D01*
X114223800Y-117723800D01*
X114976200Y-117723800D01*
X114976200Y-118376200D01*
X114976200Y-118376200D01*
G37*
G36*
X69376200Y-118176200D02*
X66823800Y-118176200D01*
X66823800Y-115623800D01*
X69376200Y-115623800D01*
X69376200Y-118176200D01*
X69376200Y-118176200D01*
G37*
G36*
X75807881Y-115640148D02*
X75972256Y-115672844D01*
X76204505Y-115769045D01*
X76204507Y-115769046D01*
X76413530Y-115908711D01*
X76591289Y-116086470D01*
X76658501Y-116187059D01*
X76730955Y-116295495D01*
X76827156Y-116527744D01*
X76876200Y-116774306D01*
X76876200Y-117025694D01*
X76827156Y-117272256D01*
X76759261Y-117436168D01*
X76730954Y-117504507D01*
X76591289Y-117713530D01*
X76413530Y-117891289D01*
X76204507Y-118030954D01*
X76204506Y-118030955D01*
X76204505Y-118030955D01*
X75972256Y-118127156D01*
X75807881Y-118159852D01*
X75725695Y-118176200D01*
X75474305Y-118176200D01*
X75392119Y-118159852D01*
X75227744Y-118127156D01*
X74995495Y-118030955D01*
X74995494Y-118030955D01*
X74995493Y-118030954D01*
X74786470Y-117891289D01*
X74608711Y-117713530D01*
X74469046Y-117504507D01*
X74440739Y-117436168D01*
X74372844Y-117272256D01*
X74323800Y-117025694D01*
X74323800Y-116774306D01*
X74372844Y-116527744D01*
X74469045Y-116295495D01*
X74541500Y-116187059D01*
X74608711Y-116086470D01*
X74786470Y-115908711D01*
X74995493Y-115769046D01*
X74995495Y-115769045D01*
X75227744Y-115672844D01*
X75392119Y-115640148D01*
X75474305Y-115623800D01*
X75725695Y-115623800D01*
X75807881Y-115640148D01*
X75807881Y-115640148D01*
G37*
G36*
X119126200Y-117626200D02*
X118473800Y-117626200D01*
X118473800Y-116873800D01*
X119126200Y-116873800D01*
X119126200Y-117626200D01*
X119126200Y-117626200D01*
G37*
G36*
X145476200Y-117576200D02*
X137323800Y-117576200D01*
X137323800Y-111423800D01*
X145476200Y-111423800D01*
X145476200Y-117576200D01*
X145476200Y-117576200D01*
G37*
G36*
X85281563Y-114757201D02*
X85281566Y-114757202D01*
X85281567Y-114757202D01*
X85456156Y-114810163D01*
X85617059Y-114896167D01*
X85758091Y-115011909D01*
X85873833Y-115152941D01*
X85959837Y-115313844D01*
X85982465Y-115388437D01*
X86012799Y-115488437D01*
X86030682Y-115670000D01*
X86012799Y-115851563D01*
X86012798Y-115851566D01*
X86012798Y-115851567D01*
X85959837Y-116026156D01*
X85873833Y-116187059D01*
X85758091Y-116328091D01*
X85617059Y-116443833D01*
X85456156Y-116529837D01*
X85281567Y-116582798D01*
X85281566Y-116582798D01*
X85281563Y-116582799D01*
X85145501Y-116596200D01*
X85054499Y-116596200D01*
X84918437Y-116582799D01*
X84918434Y-116582798D01*
X84918433Y-116582798D01*
X84743844Y-116529837D01*
X84582941Y-116443833D01*
X84441909Y-116328091D01*
X84326167Y-116187059D01*
X84240163Y-116026156D01*
X84187202Y-115851567D01*
X84187202Y-115851566D01*
X84187201Y-115851563D01*
X84169318Y-115670000D01*
X84187201Y-115488437D01*
X84217536Y-115388437D01*
X84240163Y-115313844D01*
X84326167Y-115152941D01*
X84441909Y-115011909D01*
X84582941Y-114896167D01*
X84743844Y-114810163D01*
X84918433Y-114757202D01*
X84918434Y-114757202D01*
X84918437Y-114757201D01*
X85054499Y-114743800D01*
X85145501Y-114743800D01*
X85281563Y-114757201D01*
X85281563Y-114757201D01*
G37*
G36*
X119126200Y-116526200D02*
X118473800Y-116526200D01*
X118473800Y-115773800D01*
X119126200Y-115773800D01*
X119126200Y-116526200D01*
X119126200Y-116526200D01*
G37*
G36*
X89381563Y-114657201D02*
X89381566Y-114657202D01*
X89381567Y-114657202D01*
X89556156Y-114710163D01*
X89717059Y-114796167D01*
X89858091Y-114911909D01*
X89973833Y-115052941D01*
X90027283Y-115152940D01*
X90059837Y-115213844D01*
X90112799Y-115388437D01*
X90130682Y-115570000D01*
X90112799Y-115751563D01*
X90112798Y-115751566D01*
X90112798Y-115751567D01*
X90059837Y-115926156D01*
X89973833Y-116087059D01*
X89858091Y-116228091D01*
X89717059Y-116343833D01*
X89556156Y-116429837D01*
X89381567Y-116482798D01*
X89381566Y-116482798D01*
X89381563Y-116482799D01*
X89245501Y-116496200D01*
X89154499Y-116496200D01*
X89018437Y-116482799D01*
X89018434Y-116482798D01*
X89018433Y-116482798D01*
X88843844Y-116429837D01*
X88682941Y-116343833D01*
X88541909Y-116228091D01*
X88426167Y-116087059D01*
X88340163Y-115926156D01*
X88287202Y-115751567D01*
X88287202Y-115751566D01*
X88287201Y-115751563D01*
X88269318Y-115570000D01*
X88287201Y-115388437D01*
X88340163Y-115213844D01*
X88372717Y-115152940D01*
X88426167Y-115052941D01*
X88541909Y-114911909D01*
X88682941Y-114796167D01*
X88843844Y-114710163D01*
X89018433Y-114657202D01*
X89018434Y-114657202D01*
X89018437Y-114657201D01*
X89154499Y-114643800D01*
X89245501Y-114643800D01*
X89381563Y-114657201D01*
X89381563Y-114657201D01*
G37*
G36*
X120651200Y-116476200D02*
X119748800Y-116476200D01*
X119748800Y-115123800D01*
X120651200Y-115123800D01*
X120651200Y-116476200D01*
X120651200Y-116476200D01*
G37*
G36*
X127150000Y-116000000D02*
X126890800Y-116000000D01*
X126880889Y-116000976D01*
X126871360Y-116003867D01*
X126862577Y-116008561D01*
X126854879Y-116014879D01*
X126848561Y-116022577D01*
X126843867Y-116031360D01*
X126840976Y-116040889D01*
X126840000Y-116050800D01*
X126840000Y-116450000D01*
X126310000Y-116450000D01*
X126310000Y-116050800D01*
X126309024Y-116040889D01*
X126306133Y-116031360D01*
X126301439Y-116022577D01*
X126295121Y-116014879D01*
X126287423Y-116008561D01*
X126278640Y-116003867D01*
X126269111Y-116000976D01*
X126259200Y-116000000D01*
X126240800Y-116000000D01*
X126230889Y-116000976D01*
X126221360Y-116003867D01*
X126212577Y-116008561D01*
X126204879Y-116014879D01*
X126198561Y-116022577D01*
X126193867Y-116031360D01*
X126190976Y-116040889D01*
X126190000Y-116050800D01*
X126190000Y-116450000D01*
X125660000Y-116450000D01*
X125660000Y-116050800D01*
X125659024Y-116040889D01*
X125656133Y-116031360D01*
X125651439Y-116022577D01*
X125645121Y-116014879D01*
X125637423Y-116008561D01*
X125628640Y-116003867D01*
X125619111Y-116000976D01*
X125609200Y-116000000D01*
X125590800Y-116000000D01*
X125580889Y-116000976D01*
X125571360Y-116003867D01*
X125562577Y-116008561D01*
X125554879Y-116014879D01*
X125548561Y-116022577D01*
X125543867Y-116031360D01*
X125540976Y-116040889D01*
X125540000Y-116050800D01*
X125540000Y-116450000D01*
X125010000Y-116450000D01*
X125010000Y-116050800D01*
X125009024Y-116040889D01*
X125006133Y-116031360D01*
X125001439Y-116022577D01*
X124995121Y-116014879D01*
X124987423Y-116008561D01*
X124978640Y-116003867D01*
X124969111Y-116000976D01*
X124959200Y-116000000D01*
X124940800Y-116000000D01*
X124930889Y-116000976D01*
X124921360Y-116003867D01*
X124912577Y-116008561D01*
X124904879Y-116014879D01*
X124898561Y-116022577D01*
X124893867Y-116031360D01*
X124890976Y-116040889D01*
X124890000Y-116050800D01*
X124890000Y-116450000D01*
X124360000Y-116450000D01*
X124360000Y-116050800D01*
X124359024Y-116040889D01*
X124356133Y-116031360D01*
X124351439Y-116022577D01*
X124345121Y-116014879D01*
X124337423Y-116008561D01*
X124328640Y-116003867D01*
X124319111Y-116000976D01*
X124309200Y-116000000D01*
X124050000Y-116000000D01*
X124050000Y-113900000D01*
X127150000Y-113900000D01*
X127150000Y-116000000D01*
X127150000Y-116000000D01*
G37*
G36*
X112750000Y-116450000D02*
X111300000Y-116450000D01*
X111300000Y-114050000D01*
X112750000Y-114050000D01*
X112750000Y-116450000D01*
X112750000Y-116450000D01*
G37*
G36*
X116700000Y-116450000D02*
X115250000Y-116450000D01*
X115250000Y-114050000D01*
X116700000Y-114050000D01*
X116700000Y-116450000D01*
X116700000Y-116450000D01*
G37*
G36*
X108476200Y-115226200D02*
X106723800Y-115226200D01*
X106723800Y-112473800D01*
X108476200Y-112473800D01*
X108476200Y-115226200D01*
X108476200Y-115226200D01*
G37*
G36*
X59313918Y-112065158D02*
X59509770Y-112146283D01*
X59509772Y-112146284D01*
X59545509Y-112170163D01*
X59686039Y-112264062D01*
X59835938Y-112413961D01*
X59953717Y-112590230D01*
X60034842Y-112786082D01*
X60076200Y-112994004D01*
X60076200Y-113205996D01*
X60034842Y-113413918D01*
X59979693Y-113547059D01*
X59953716Y-113609772D01*
X59928801Y-113647060D01*
X59835938Y-113786039D01*
X59686039Y-113935938D01*
X59605373Y-113989837D01*
X59509772Y-114053716D01*
X59509771Y-114053717D01*
X59509770Y-114053717D01*
X59313918Y-114134842D01*
X59105996Y-114176200D01*
X58894004Y-114176200D01*
X58686082Y-114134842D01*
X58490230Y-114053717D01*
X58490229Y-114053717D01*
X58490228Y-114053716D01*
X58394627Y-113989837D01*
X58313961Y-113935938D01*
X58164062Y-113786039D01*
X58071199Y-113647060D01*
X58046284Y-113609772D01*
X58020307Y-113547059D01*
X57965158Y-113413918D01*
X57923800Y-113205996D01*
X57923800Y-112994004D01*
X57965158Y-112786082D01*
X58046283Y-112590230D01*
X58164062Y-112413961D01*
X58313961Y-112264062D01*
X58454491Y-112170163D01*
X58490228Y-112146284D01*
X58490230Y-112146283D01*
X58686082Y-112065158D01*
X58894004Y-112023800D01*
X59105996Y-112023800D01*
X59313918Y-112065158D01*
X59313918Y-112065158D01*
G37*
G36*
X55076200Y-114176200D02*
X52923800Y-114176200D01*
X52923800Y-112023800D01*
X55076200Y-112023800D01*
X55076200Y-114176200D01*
X55076200Y-114176200D01*
G37*
G36*
X85281563Y-112217201D02*
X85281566Y-112217202D01*
X85281567Y-112217202D01*
X85456156Y-112270163D01*
X85617059Y-112356167D01*
X85758091Y-112471909D01*
X85873833Y-112612941D01*
X85959837Y-112773844D01*
X85982465Y-112848437D01*
X86012799Y-112948437D01*
X86030682Y-113130000D01*
X86012799Y-113311563D01*
X86012798Y-113311566D01*
X86012798Y-113311567D01*
X85959837Y-113486156D01*
X85873833Y-113647059D01*
X85758091Y-113788091D01*
X85617059Y-113903833D01*
X85456156Y-113989837D01*
X85281567Y-114042798D01*
X85281566Y-114042798D01*
X85281563Y-114042799D01*
X85145501Y-114056200D01*
X85054499Y-114056200D01*
X84918437Y-114042799D01*
X84918434Y-114042798D01*
X84918433Y-114042798D01*
X84743844Y-113989837D01*
X84582941Y-113903833D01*
X84441909Y-113788091D01*
X84326167Y-113647059D01*
X84240163Y-113486156D01*
X84187202Y-113311567D01*
X84187202Y-113311566D01*
X84187201Y-113311563D01*
X84169318Y-113130000D01*
X84187201Y-112948437D01*
X84217536Y-112848437D01*
X84240163Y-112773844D01*
X84326167Y-112612941D01*
X84441909Y-112471909D01*
X84582941Y-112356167D01*
X84743844Y-112270163D01*
X84918433Y-112217202D01*
X84918434Y-112217202D01*
X84918437Y-112217201D01*
X85054499Y-112203800D01*
X85145501Y-112203800D01*
X85281563Y-112217201D01*
X85281563Y-112217201D01*
G37*
G36*
X89381563Y-112117201D02*
X89381566Y-112117202D01*
X89381567Y-112117202D01*
X89556156Y-112170163D01*
X89717059Y-112256167D01*
X89858091Y-112371909D01*
X89973833Y-112512941D01*
X90059837Y-112673844D01*
X90105326Y-112823800D01*
X90112799Y-112848437D01*
X90130682Y-113030000D01*
X90112799Y-113211563D01*
X90112798Y-113211566D01*
X90112798Y-113211567D01*
X90059837Y-113386156D01*
X89973833Y-113547059D01*
X89858091Y-113688091D01*
X89717059Y-113803833D01*
X89556156Y-113889837D01*
X89381567Y-113942798D01*
X89381566Y-113942798D01*
X89381563Y-113942799D01*
X89245501Y-113956200D01*
X89154499Y-113956200D01*
X89018437Y-113942799D01*
X89018434Y-113942798D01*
X89018433Y-113942798D01*
X88843844Y-113889837D01*
X88682941Y-113803833D01*
X88541909Y-113688091D01*
X88426167Y-113547059D01*
X88340163Y-113386156D01*
X88287202Y-113211567D01*
X88287202Y-113211566D01*
X88287201Y-113211563D01*
X88269318Y-113030000D01*
X88287201Y-112848437D01*
X88294675Y-112823800D01*
X88340163Y-112673844D01*
X88426167Y-112512941D01*
X88541909Y-112371909D01*
X88682941Y-112256167D01*
X88843844Y-112170163D01*
X89018433Y-112117202D01*
X89018434Y-112117202D01*
X89018437Y-112117201D01*
X89154499Y-112103800D01*
X89245501Y-112103800D01*
X89381563Y-112117201D01*
X89381563Y-112117201D01*
G37*
G36*
X121176200Y-113876200D02*
X119823800Y-113876200D01*
X119823800Y-112823800D01*
X121176200Y-112823800D01*
X121176200Y-113876200D01*
X121176200Y-113876200D01*
G37*
G36*
X123376200Y-113876200D02*
X122023800Y-113876200D01*
X122023800Y-112823800D01*
X123376200Y-112823800D01*
X123376200Y-113876200D01*
X123376200Y-113876200D01*
G37*
G36*
X126840000Y-113350000D02*
X126310000Y-113350000D01*
X126310000Y-112650000D01*
X126840000Y-112650000D01*
X126840000Y-113350000D01*
X126840000Y-113350000D01*
G37*
G36*
X124890000Y-113350000D02*
X124360000Y-113350000D01*
X124360000Y-112650000D01*
X124890000Y-112650000D01*
X124890000Y-113350000D01*
X124890000Y-113350000D01*
G37*
G36*
X126190000Y-113350000D02*
X125660000Y-113350000D01*
X125660000Y-112650000D01*
X126190000Y-112650000D01*
X126190000Y-113350000D01*
X126190000Y-113350000D01*
G37*
G36*
X125540000Y-113350000D02*
X125010000Y-113350000D01*
X125010000Y-112650000D01*
X125540000Y-112650000D01*
X125540000Y-113350000D01*
X125540000Y-113350000D01*
G37*
G36*
X114826200Y-113026200D02*
X114273800Y-113026200D01*
X114273800Y-112273800D01*
X114826200Y-112273800D01*
X114826200Y-113026200D01*
X114826200Y-113026200D01*
G37*
G36*
X113926200Y-113026200D02*
X113373800Y-113026200D01*
X113373800Y-112273800D01*
X113926200Y-112273800D01*
X113926200Y-113026200D01*
X113926200Y-113026200D01*
G37*
G36*
X85281563Y-109677201D02*
X85281566Y-109677202D01*
X85281567Y-109677202D01*
X85456156Y-109730163D01*
X85617059Y-109816167D01*
X85758091Y-109931909D01*
X85873833Y-110072941D01*
X85959837Y-110233844D01*
X85982465Y-110308437D01*
X86012799Y-110408437D01*
X86030682Y-110590000D01*
X86012799Y-110771563D01*
X86012798Y-110771566D01*
X86012798Y-110771567D01*
X85959837Y-110946156D01*
X85873833Y-111107059D01*
X85758091Y-111248091D01*
X85617059Y-111363833D01*
X85456156Y-111449837D01*
X85281567Y-111502798D01*
X85281566Y-111502798D01*
X85281563Y-111502799D01*
X85145501Y-111516200D01*
X85054499Y-111516200D01*
X84918437Y-111502799D01*
X84918434Y-111502798D01*
X84918433Y-111502798D01*
X84743844Y-111449837D01*
X84582941Y-111363833D01*
X84441909Y-111248091D01*
X84326167Y-111107059D01*
X84240163Y-110946156D01*
X84187202Y-110771567D01*
X84187202Y-110771566D01*
X84187201Y-110771563D01*
X84169318Y-110590000D01*
X84187201Y-110408437D01*
X84217536Y-110308437D01*
X84240163Y-110233844D01*
X84326167Y-110072941D01*
X84441909Y-109931909D01*
X84582941Y-109816167D01*
X84743844Y-109730163D01*
X84918433Y-109677202D01*
X84918434Y-109677202D01*
X84918437Y-109677201D01*
X85054499Y-109663800D01*
X85145501Y-109663800D01*
X85281563Y-109677201D01*
X85281563Y-109677201D01*
G37*
G36*
X89381563Y-109577201D02*
X89381566Y-109577202D01*
X89381567Y-109577202D01*
X89556156Y-109630163D01*
X89717059Y-109716167D01*
X89717061Y-109716168D01*
X89717060Y-109716168D01*
X89858091Y-109831909D01*
X89973832Y-109972940D01*
X90059837Y-110133844D01*
X90112799Y-110308437D01*
X90130682Y-110490000D01*
X90112799Y-110671563D01*
X90112798Y-110671566D01*
X90112798Y-110671567D01*
X90059837Y-110846156D01*
X89973833Y-111007059D01*
X89858091Y-111148091D01*
X89717059Y-111263833D01*
X89556156Y-111349837D01*
X89381567Y-111402798D01*
X89381566Y-111402798D01*
X89381563Y-111402799D01*
X89245501Y-111416200D01*
X89154499Y-111416200D01*
X89018437Y-111402799D01*
X89018434Y-111402798D01*
X89018433Y-111402798D01*
X88843844Y-111349837D01*
X88682941Y-111263833D01*
X88541909Y-111148091D01*
X88426167Y-111007059D01*
X88340163Y-110846156D01*
X88287202Y-110671567D01*
X88287202Y-110671566D01*
X88287201Y-110671563D01*
X88269318Y-110490000D01*
X88287201Y-110308437D01*
X88340163Y-110133844D01*
X88426168Y-109972940D01*
X88541909Y-109831909D01*
X88682940Y-109716168D01*
X88682939Y-109716168D01*
X88682941Y-109716167D01*
X88843844Y-109630163D01*
X89018433Y-109577202D01*
X89018434Y-109577202D01*
X89018437Y-109577201D01*
X89154499Y-109563800D01*
X89245501Y-109563800D01*
X89381563Y-109577201D01*
X89381563Y-109577201D01*
G37*
G36*
X44376200Y-110476200D02*
X36223800Y-110476200D01*
X36223800Y-104323800D01*
X44376200Y-104323800D01*
X44376200Y-110476200D01*
X44376200Y-110476200D01*
G37*
G36*
X145476200Y-109576200D02*
X137323800Y-109576200D01*
X137323800Y-103423800D01*
X145476200Y-103423800D01*
X145476200Y-109576200D01*
X145476200Y-109576200D01*
G37*
G36*
X93181563Y-101797201D02*
X93181566Y-101797202D01*
X93181567Y-101797202D01*
X93356156Y-101850163D01*
X93517059Y-101936167D01*
X93658091Y-102051909D01*
X93773833Y-102192941D01*
X93859837Y-102353844D01*
X93911393Y-102523800D01*
X93912799Y-102528437D01*
X93930682Y-102710000D01*
X93912799Y-102891563D01*
X93912798Y-102891566D01*
X93912798Y-102891567D01*
X93859837Y-103066156D01*
X93773833Y-103227059D01*
X93658091Y-103368091D01*
X93517059Y-103483833D01*
X93356156Y-103569837D01*
X93181567Y-103622798D01*
X93181566Y-103622798D01*
X93181563Y-103622799D01*
X93045501Y-103636200D01*
X92954499Y-103636200D01*
X92818437Y-103622799D01*
X92818434Y-103622798D01*
X92818433Y-103622798D01*
X92643844Y-103569837D01*
X92482941Y-103483833D01*
X92341909Y-103368091D01*
X92226167Y-103227059D01*
X92140163Y-103066156D01*
X92087202Y-102891567D01*
X92087202Y-102891566D01*
X92087201Y-102891563D01*
X92069318Y-102710000D01*
X92087201Y-102528437D01*
X92088608Y-102523800D01*
X92140163Y-102353844D01*
X92226167Y-102192941D01*
X92341909Y-102051909D01*
X92482941Y-101936167D01*
X92643844Y-101850163D01*
X92818433Y-101797202D01*
X92818434Y-101797202D01*
X92818437Y-101797201D01*
X92954499Y-101783800D01*
X93045501Y-101783800D01*
X93181563Y-101797201D01*
X93181563Y-101797201D01*
G37*
G36*
X97481563Y-101797201D02*
X97481566Y-101797202D01*
X97481567Y-101797202D01*
X97656156Y-101850163D01*
X97817059Y-101936167D01*
X97958091Y-102051909D01*
X98073833Y-102192941D01*
X98159837Y-102353844D01*
X98211393Y-102523800D01*
X98212799Y-102528437D01*
X98230682Y-102710000D01*
X98212799Y-102891563D01*
X98212798Y-102891566D01*
X98212798Y-102891567D01*
X98159837Y-103066156D01*
X98073833Y-103227059D01*
X97958091Y-103368091D01*
X97817059Y-103483833D01*
X97656156Y-103569837D01*
X97481567Y-103622798D01*
X97481566Y-103622798D01*
X97481563Y-103622799D01*
X97345501Y-103636200D01*
X97254499Y-103636200D01*
X97118437Y-103622799D01*
X97118434Y-103622798D01*
X97118433Y-103622798D01*
X96943844Y-103569837D01*
X96782941Y-103483833D01*
X96641909Y-103368091D01*
X96526167Y-103227059D01*
X96440163Y-103066156D01*
X96387202Y-102891567D01*
X96387202Y-102891566D01*
X96387201Y-102891563D01*
X96369318Y-102710000D01*
X96387201Y-102528437D01*
X96388608Y-102523800D01*
X96440163Y-102353844D01*
X96526167Y-102192941D01*
X96641909Y-102051909D01*
X96782941Y-101936167D01*
X96943844Y-101850163D01*
X97118433Y-101797202D01*
X97118434Y-101797202D01*
X97118437Y-101797201D01*
X97254499Y-101783800D01*
X97345501Y-101783800D01*
X97481563Y-101797201D01*
X97481563Y-101797201D01*
G37*
G36*
X122913918Y-101415158D02*
X123109770Y-101496283D01*
X123109772Y-101496284D01*
X123115333Y-101500000D01*
X123286039Y-101614062D01*
X123435938Y-101763961D01*
X123435939Y-101763963D01*
X123551003Y-101936167D01*
X123553717Y-101940230D01*
X123634842Y-102136082D01*
X123676200Y-102344004D01*
X123676200Y-102555996D01*
X123634842Y-102763918D01*
X123553717Y-102959770D01*
X123435938Y-103136039D01*
X123286039Y-103285938D01*
X123197905Y-103344827D01*
X123109772Y-103403716D01*
X123109771Y-103403717D01*
X123109770Y-103403717D01*
X122913918Y-103484842D01*
X122705996Y-103526200D01*
X122494004Y-103526200D01*
X122286082Y-103484842D01*
X122090230Y-103403717D01*
X122090229Y-103403717D01*
X122090228Y-103403716D01*
X122002095Y-103344827D01*
X121913961Y-103285938D01*
X121764062Y-103136039D01*
X121646283Y-102959770D01*
X121565158Y-102763918D01*
X121523800Y-102555996D01*
X121523800Y-102344004D01*
X121565158Y-102136082D01*
X121646283Y-101940230D01*
X121648998Y-101936167D01*
X121764061Y-101763963D01*
X121764062Y-101763961D01*
X121913961Y-101614062D01*
X122084667Y-101500000D01*
X122090228Y-101496284D01*
X122090230Y-101496283D01*
X122286082Y-101415158D01*
X122494004Y-101373800D01*
X122705996Y-101373800D01*
X122913918Y-101415158D01*
X122913918Y-101415158D01*
G37*
G36*
X128676200Y-103526200D02*
X126523800Y-103526200D01*
X126523800Y-101373800D01*
X128676200Y-101373800D01*
X128676200Y-103526200D01*
X128676200Y-103526200D01*
G37*
G36*
X68226200Y-103276200D02*
X67673800Y-103276200D01*
X67673800Y-102523800D01*
X68226200Y-102523800D01*
X68226200Y-103276200D01*
X68226200Y-103276200D01*
G37*
G36*
X67326200Y-103276200D02*
X66773800Y-103276200D01*
X66773800Y-102523800D01*
X67326200Y-102523800D01*
X67326200Y-103276200D01*
X67326200Y-103276200D01*
G37*
G36*
X74876200Y-103076200D02*
X73123800Y-103076200D01*
X73123800Y-100323800D01*
X74876200Y-100323800D01*
X74876200Y-103076200D01*
X74876200Y-103076200D01*
G37*
G36*
X57240000Y-102900000D02*
X56710000Y-102900000D01*
X56710000Y-102200000D01*
X57240000Y-102200000D01*
X57240000Y-102900000D01*
X57240000Y-102900000D01*
G37*
G36*
X55290000Y-102900000D02*
X54760000Y-102900000D01*
X54760000Y-102200000D01*
X55290000Y-102200000D01*
X55290000Y-102900000D01*
X55290000Y-102900000D01*
G37*
G36*
X55940000Y-102900000D02*
X55410000Y-102900000D01*
X55410000Y-102200000D01*
X55940000Y-102200000D01*
X55940000Y-102900000D01*
X55940000Y-102900000D01*
G37*
G36*
X56590000Y-102900000D02*
X56060000Y-102900000D01*
X56060000Y-102200000D01*
X56590000Y-102200000D01*
X56590000Y-102900000D01*
X56590000Y-102900000D01*
G37*
G36*
X59576200Y-102726200D02*
X58223800Y-102726200D01*
X58223800Y-101673800D01*
X59576200Y-101673800D01*
X59576200Y-102726200D01*
X59576200Y-102726200D01*
G37*
G36*
X61776200Y-102726200D02*
X60423800Y-102726200D01*
X60423800Y-101673800D01*
X61776200Y-101673800D01*
X61776200Y-102726200D01*
X61776200Y-102726200D01*
G37*
G36*
X44376200Y-102476200D02*
X36223800Y-102476200D01*
X36223800Y-96323800D01*
X44376200Y-96323800D01*
X44376200Y-102476200D01*
X44376200Y-102476200D01*
G37*
G36*
X55290000Y-99499200D02*
X55290976Y-99509111D01*
X55293867Y-99518640D01*
X55298561Y-99527423D01*
X55304879Y-99535121D01*
X55312577Y-99541439D01*
X55321360Y-99546133D01*
X55330889Y-99549024D01*
X55340800Y-99550000D01*
X55359200Y-99550000D01*
X55369111Y-99549024D01*
X55378640Y-99546133D01*
X55387423Y-99541439D01*
X55395121Y-99535121D01*
X55401439Y-99527423D01*
X55406133Y-99518640D01*
X55409024Y-99509111D01*
X55410000Y-99499200D01*
X55410000Y-99100000D01*
X55940000Y-99100000D01*
X55940000Y-99499200D01*
X55940976Y-99509111D01*
X55943867Y-99518640D01*
X55948561Y-99527423D01*
X55954879Y-99535121D01*
X55962577Y-99541439D01*
X55971360Y-99546133D01*
X55980889Y-99549024D01*
X55990800Y-99550000D01*
X56009200Y-99550000D01*
X56019111Y-99549024D01*
X56028640Y-99546133D01*
X56037423Y-99541439D01*
X56045121Y-99535121D01*
X56051439Y-99527423D01*
X56056133Y-99518640D01*
X56059024Y-99509111D01*
X56060000Y-99499200D01*
X56060000Y-99100000D01*
X56590000Y-99100000D01*
X56590000Y-99499200D01*
X56590976Y-99509111D01*
X56593867Y-99518640D01*
X56598561Y-99527423D01*
X56604879Y-99535121D01*
X56612577Y-99541439D01*
X56621360Y-99546133D01*
X56630889Y-99549024D01*
X56640800Y-99550000D01*
X56659200Y-99550000D01*
X56669111Y-99549024D01*
X56678640Y-99546133D01*
X56687423Y-99541439D01*
X56695121Y-99535121D01*
X56701439Y-99527423D01*
X56706133Y-99518640D01*
X56709024Y-99509111D01*
X56710000Y-99499200D01*
X56710000Y-99100000D01*
X57240000Y-99100000D01*
X57240000Y-99499200D01*
X57240976Y-99509111D01*
X57243867Y-99518640D01*
X57248561Y-99527423D01*
X57254879Y-99535121D01*
X57262577Y-99541439D01*
X57271360Y-99546133D01*
X57280889Y-99549024D01*
X57290800Y-99550000D01*
X57550000Y-99550000D01*
X57550000Y-101650000D01*
X54450000Y-101650000D01*
X54450000Y-99550000D01*
X54709200Y-99550000D01*
X54719111Y-99549024D01*
X54728640Y-99546133D01*
X54737423Y-99541439D01*
X54745121Y-99535121D01*
X54751439Y-99527423D01*
X54756133Y-99518640D01*
X54759024Y-99509111D01*
X54760000Y-99499200D01*
X54760000Y-99100000D01*
X55290000Y-99100000D01*
X55290000Y-99499200D01*
X55290000Y-99499200D01*
G37*
G36*
X145476200Y-101576200D02*
X137323800Y-101576200D01*
X137323800Y-95423800D01*
X145476200Y-95423800D01*
X145476200Y-101576200D01*
X145476200Y-101576200D01*
G37*
G36*
X66350000Y-101500000D02*
X64900000Y-101500000D01*
X64900000Y-99100000D01*
X66350000Y-99100000D01*
X66350000Y-101500000D01*
X66350000Y-101500000D01*
G37*
G36*
X70300000Y-101500000D02*
X68850000Y-101500000D01*
X68850000Y-99100000D01*
X70300000Y-99100000D01*
X70300000Y-101500000D01*
X70300000Y-101500000D01*
G37*
G36*
X93181563Y-99257201D02*
X93181566Y-99257202D01*
X93181567Y-99257202D01*
X93356156Y-99310163D01*
X93517059Y-99396167D01*
X93658091Y-99511909D01*
X93773833Y-99652941D01*
X93859837Y-99813844D01*
X93912799Y-99988437D01*
X93930682Y-100170000D01*
X93912799Y-100351563D01*
X93912798Y-100351566D01*
X93912798Y-100351567D01*
X93859837Y-100526156D01*
X93773833Y-100687059D01*
X93658091Y-100828091D01*
X93517059Y-100943833D01*
X93356156Y-101029837D01*
X93181567Y-101082798D01*
X93181566Y-101082798D01*
X93181563Y-101082799D01*
X93045501Y-101096200D01*
X92954499Y-101096200D01*
X92818437Y-101082799D01*
X92818434Y-101082798D01*
X92818433Y-101082798D01*
X92643844Y-101029837D01*
X92482941Y-100943833D01*
X92341909Y-100828091D01*
X92226167Y-100687059D01*
X92140163Y-100526156D01*
X92087202Y-100351567D01*
X92087202Y-100351566D01*
X92087201Y-100351563D01*
X92069318Y-100170000D01*
X92087201Y-99988437D01*
X92140163Y-99813844D01*
X92226167Y-99652941D01*
X92341909Y-99511909D01*
X92482941Y-99396167D01*
X92643844Y-99310163D01*
X92818433Y-99257202D01*
X92818434Y-99257202D01*
X92818437Y-99257201D01*
X92954499Y-99243800D01*
X93045501Y-99243800D01*
X93181563Y-99257201D01*
X93181563Y-99257201D01*
G37*
G36*
X97481563Y-99257201D02*
X97481566Y-99257202D01*
X97481567Y-99257202D01*
X97656156Y-99310163D01*
X97817059Y-99396167D01*
X97958091Y-99511909D01*
X98073833Y-99652941D01*
X98159837Y-99813844D01*
X98212799Y-99988437D01*
X98230682Y-100170000D01*
X98212799Y-100351563D01*
X98212798Y-100351566D01*
X98212798Y-100351567D01*
X98159837Y-100526156D01*
X98073833Y-100687059D01*
X97958091Y-100828091D01*
X97817059Y-100943833D01*
X97656156Y-101029837D01*
X97481567Y-101082798D01*
X97481566Y-101082798D01*
X97481563Y-101082799D01*
X97345501Y-101096200D01*
X97254499Y-101096200D01*
X97118437Y-101082799D01*
X97118434Y-101082798D01*
X97118433Y-101082798D01*
X96943844Y-101029837D01*
X96782941Y-100943833D01*
X96641909Y-100828091D01*
X96526167Y-100687059D01*
X96440163Y-100526156D01*
X96387202Y-100351567D01*
X96387202Y-100351566D01*
X96387201Y-100351563D01*
X96369318Y-100170000D01*
X96387201Y-99988437D01*
X96440163Y-99813844D01*
X96526167Y-99652941D01*
X96641909Y-99511909D01*
X96782941Y-99396167D01*
X96943844Y-99310163D01*
X97118433Y-99257202D01*
X97118434Y-99257202D01*
X97118437Y-99257201D01*
X97254499Y-99243800D01*
X97345501Y-99243800D01*
X97481563Y-99257201D01*
X97481563Y-99257201D01*
G37*
G36*
X61851200Y-100426200D02*
X60948800Y-100426200D01*
X60948800Y-99073800D01*
X61851200Y-99073800D01*
X61851200Y-100426200D01*
X61851200Y-100426200D01*
G37*
G36*
X106207881Y-97390148D02*
X106372256Y-97422844D01*
X106604505Y-97519045D01*
X106604507Y-97519046D01*
X106813530Y-97658711D01*
X106991289Y-97836470D01*
X107127949Y-98040995D01*
X107130955Y-98045495D01*
X107227156Y-98277744D01*
X107276200Y-98524306D01*
X107276200Y-98775694D01*
X107227156Y-99022256D01*
X107194953Y-99100000D01*
X107130954Y-99254507D01*
X106991289Y-99463530D01*
X106813530Y-99641289D01*
X106604507Y-99780954D01*
X106604506Y-99780955D01*
X106604505Y-99780955D01*
X106372256Y-99877156D01*
X106207881Y-99909852D01*
X106125695Y-99926200D01*
X105874305Y-99926200D01*
X105792119Y-99909852D01*
X105627744Y-99877156D01*
X105395495Y-99780955D01*
X105395494Y-99780955D01*
X105395493Y-99780954D01*
X105186470Y-99641289D01*
X105008711Y-99463530D01*
X104869046Y-99254507D01*
X104805047Y-99100000D01*
X104772844Y-99022256D01*
X104723800Y-98775694D01*
X104723800Y-98524306D01*
X104772844Y-98277744D01*
X104869045Y-98045495D01*
X104872052Y-98040995D01*
X105008711Y-97836470D01*
X105186470Y-97658711D01*
X105395493Y-97519046D01*
X105395495Y-97519045D01*
X105627744Y-97422844D01*
X105792119Y-97390148D01*
X105874305Y-97373800D01*
X106125695Y-97373800D01*
X106207881Y-97390148D01*
X106207881Y-97390148D01*
G37*
G36*
X114776200Y-99926200D02*
X112223800Y-99926200D01*
X112223800Y-97373800D01*
X114776200Y-97373800D01*
X114776200Y-99926200D01*
X114776200Y-99926200D01*
G37*
G36*
X63126200Y-99776200D02*
X62473800Y-99776200D01*
X62473800Y-99023800D01*
X63126200Y-99023800D01*
X63126200Y-99776200D01*
X63126200Y-99776200D01*
G37*
G36*
X74876200Y-99476200D02*
X73123800Y-99476200D01*
X73123800Y-96723800D01*
X74876200Y-96723800D01*
X74876200Y-99476200D01*
X74876200Y-99476200D01*
G37*
G36*
X63126200Y-98676200D02*
X62473800Y-98676200D01*
X62473800Y-97923800D01*
X63126200Y-97923800D01*
X63126200Y-98676200D01*
X63126200Y-98676200D01*
G37*
G36*
X59840994Y-97005550D02*
X59991353Y-97067831D01*
X60126672Y-97158248D01*
X60241752Y-97273328D01*
X60332169Y-97408647D01*
X60394450Y-97559006D01*
X60426200Y-97718626D01*
X60426200Y-97881374D01*
X60394450Y-98040994D01*
X60332169Y-98191353D01*
X60241752Y-98326672D01*
X60126672Y-98441752D01*
X59991353Y-98532169D01*
X59840994Y-98594450D01*
X59681374Y-98626200D01*
X59518626Y-98626200D01*
X59359006Y-98594450D01*
X59208647Y-98532169D01*
X59073328Y-98441752D01*
X58958248Y-98326672D01*
X58867831Y-98191353D01*
X58805550Y-98040994D01*
X58773800Y-97881374D01*
X58773800Y-97718626D01*
X58805550Y-97559006D01*
X58867831Y-97408647D01*
X58958248Y-97273328D01*
X59073328Y-97158248D01*
X59208647Y-97067831D01*
X59359006Y-97005550D01*
X59518626Y-96973800D01*
X59681374Y-96973800D01*
X59840994Y-97005550D01*
X59840994Y-97005550D01*
G37*
G36*
X93181563Y-96717201D02*
X93181566Y-96717202D01*
X93181567Y-96717202D01*
X93356156Y-96770163D01*
X93517059Y-96856167D01*
X93658091Y-96971909D01*
X93773833Y-97112941D01*
X93859837Y-97273844D01*
X93905036Y-97422844D01*
X93912799Y-97448437D01*
X93930682Y-97630000D01*
X93912799Y-97811563D01*
X93912798Y-97811566D01*
X93912798Y-97811567D01*
X93859837Y-97986156D01*
X93773833Y-98147059D01*
X93658091Y-98288091D01*
X93517059Y-98403833D01*
X93356156Y-98489837D01*
X93181567Y-98542798D01*
X93181566Y-98542798D01*
X93181563Y-98542799D01*
X93045501Y-98556200D01*
X92954499Y-98556200D01*
X92818437Y-98542799D01*
X92818434Y-98542798D01*
X92818433Y-98542798D01*
X92643844Y-98489837D01*
X92482941Y-98403833D01*
X92341909Y-98288091D01*
X92226167Y-98147059D01*
X92140163Y-97986156D01*
X92087202Y-97811567D01*
X92087202Y-97811566D01*
X92087201Y-97811563D01*
X92069318Y-97630000D01*
X92087201Y-97448437D01*
X92094965Y-97422844D01*
X92140163Y-97273844D01*
X92226167Y-97112941D01*
X92341909Y-96971909D01*
X92482941Y-96856167D01*
X92643844Y-96770163D01*
X92818433Y-96717202D01*
X92818434Y-96717202D01*
X92818437Y-96717201D01*
X92954499Y-96703800D01*
X93045501Y-96703800D01*
X93181563Y-96717201D01*
X93181563Y-96717201D01*
G37*
G36*
X97481563Y-96717201D02*
X97481566Y-96717202D01*
X97481567Y-96717202D01*
X97656156Y-96770163D01*
X97817059Y-96856167D01*
X97958091Y-96971909D01*
X98073833Y-97112941D01*
X98159837Y-97273844D01*
X98205036Y-97422844D01*
X98212799Y-97448437D01*
X98230682Y-97630000D01*
X98212799Y-97811563D01*
X98212798Y-97811566D01*
X98212798Y-97811567D01*
X98159837Y-97986156D01*
X98073833Y-98147059D01*
X97958091Y-98288091D01*
X97817059Y-98403833D01*
X97656156Y-98489837D01*
X97481567Y-98542798D01*
X97481566Y-98542798D01*
X97481563Y-98542799D01*
X97345501Y-98556200D01*
X97254499Y-98556200D01*
X97118437Y-98542799D01*
X97118434Y-98542798D01*
X97118433Y-98542798D01*
X96943844Y-98489837D01*
X96782941Y-98403833D01*
X96641909Y-98288091D01*
X96526167Y-98147059D01*
X96440163Y-97986156D01*
X96387202Y-97811567D01*
X96387202Y-97811566D01*
X96387201Y-97811563D01*
X96369318Y-97630000D01*
X96387201Y-97448437D01*
X96394965Y-97422844D01*
X96440163Y-97273844D01*
X96526167Y-97112941D01*
X96641909Y-96971909D01*
X96782941Y-96856167D01*
X96943844Y-96770163D01*
X97118433Y-96717202D01*
X97118434Y-96717202D01*
X97118437Y-96717201D01*
X97254499Y-96703800D01*
X97345501Y-96703800D01*
X97481563Y-96717201D01*
X97481563Y-96717201D01*
G37*
G36*
X61851200Y-98526200D02*
X60948800Y-98526200D01*
X60948800Y-97173800D01*
X61851200Y-97173800D01*
X61851200Y-98526200D01*
X61851200Y-98526200D01*
G37*
G36*
X56140994Y-96805550D02*
X56291353Y-96867831D01*
X56426672Y-96958248D01*
X56541752Y-97073328D01*
X56632169Y-97208647D01*
X56694450Y-97359006D01*
X56726200Y-97518626D01*
X56726200Y-97681374D01*
X56694450Y-97840994D01*
X56632169Y-97991353D01*
X56541752Y-98126672D01*
X56426672Y-98241752D01*
X56291353Y-98332169D01*
X56140994Y-98394450D01*
X55981374Y-98426200D01*
X55818626Y-98426200D01*
X55659006Y-98394450D01*
X55508647Y-98332169D01*
X55373328Y-98241752D01*
X55258248Y-98126672D01*
X55167831Y-97991353D01*
X55105550Y-97840994D01*
X55073800Y-97681374D01*
X55073800Y-97518626D01*
X55105550Y-97359006D01*
X55167831Y-97208647D01*
X55258248Y-97073328D01*
X55373328Y-96958248D01*
X55508647Y-96867831D01*
X55659006Y-96805550D01*
X55818626Y-96773800D01*
X55981374Y-96773800D01*
X56140994Y-96805550D01*
X56140994Y-96805550D01*
G37*
G36*
X78476200Y-98126200D02*
X76823800Y-98126200D01*
X76823800Y-96673800D01*
X78476200Y-96673800D01*
X78476200Y-98126200D01*
X78476200Y-98126200D01*
G37*
G36*
X81176200Y-98126200D02*
X79523800Y-98126200D01*
X79523800Y-96673800D01*
X81176200Y-96673800D01*
X81176200Y-98126200D01*
X81176200Y-98126200D01*
G37*
G36*
X67376200Y-97826200D02*
X66623800Y-97826200D01*
X66623800Y-97173800D01*
X67376200Y-97173800D01*
X67376200Y-97826200D01*
X67376200Y-97826200D01*
G37*
G36*
X68476200Y-97826200D02*
X67723800Y-97826200D01*
X67723800Y-97173800D01*
X68476200Y-97173800D01*
X68476200Y-97826200D01*
X68476200Y-97826200D01*
G37*
G36*
X59876200Y-96026200D02*
X58523800Y-96026200D01*
X58523800Y-94973800D01*
X59876200Y-94973800D01*
X59876200Y-96026200D01*
X59876200Y-96026200D01*
G37*
G36*
X62076200Y-96026200D02*
X60723800Y-96026200D01*
X60723800Y-94973800D01*
X62076200Y-94973800D01*
X62076200Y-96026200D01*
X62076200Y-96026200D01*
G37*
G36*
X93181563Y-94177201D02*
X93181566Y-94177202D01*
X93181567Y-94177202D01*
X93356156Y-94230163D01*
X93517059Y-94316167D01*
X93517061Y-94316168D01*
X93517060Y-94316168D01*
X93658091Y-94431909D01*
X93773832Y-94572940D01*
X93859837Y-94733844D01*
X93912799Y-94908437D01*
X93930682Y-95090000D01*
X93912799Y-95271563D01*
X93912798Y-95271566D01*
X93912798Y-95271567D01*
X93859837Y-95446156D01*
X93773833Y-95607059D01*
X93658091Y-95748091D01*
X93517059Y-95863833D01*
X93356156Y-95949837D01*
X93181567Y-96002798D01*
X93181566Y-96002798D01*
X93181563Y-96002799D01*
X93045501Y-96016200D01*
X92954499Y-96016200D01*
X92818437Y-96002799D01*
X92818434Y-96002798D01*
X92818433Y-96002798D01*
X92643844Y-95949837D01*
X92482941Y-95863833D01*
X92341909Y-95748091D01*
X92226167Y-95607059D01*
X92140163Y-95446156D01*
X92087202Y-95271567D01*
X92087202Y-95271566D01*
X92087201Y-95271563D01*
X92069318Y-95090000D01*
X92087201Y-94908437D01*
X92140163Y-94733844D01*
X92226168Y-94572940D01*
X92341909Y-94431909D01*
X92482940Y-94316168D01*
X92482939Y-94316168D01*
X92482941Y-94316167D01*
X92643844Y-94230163D01*
X92818433Y-94177202D01*
X92818434Y-94177202D01*
X92818437Y-94177201D01*
X92954499Y-94163800D01*
X93045501Y-94163800D01*
X93181563Y-94177201D01*
X93181563Y-94177201D01*
G37*
G36*
X97481563Y-94177201D02*
X97481566Y-94177202D01*
X97481567Y-94177202D01*
X97656156Y-94230163D01*
X97817059Y-94316167D01*
X97817061Y-94316168D01*
X97817060Y-94316168D01*
X97958091Y-94431909D01*
X98073832Y-94572940D01*
X98159837Y-94733844D01*
X98212799Y-94908437D01*
X98230682Y-95090000D01*
X98212799Y-95271563D01*
X98212798Y-95271566D01*
X98212798Y-95271567D01*
X98159837Y-95446156D01*
X98073833Y-95607059D01*
X97958091Y-95748091D01*
X97817059Y-95863833D01*
X97656156Y-95949837D01*
X97481567Y-96002798D01*
X97481566Y-96002798D01*
X97481563Y-96002799D01*
X97345501Y-96016200D01*
X97254499Y-96016200D01*
X97118437Y-96002799D01*
X97118434Y-96002798D01*
X97118433Y-96002798D01*
X96943844Y-95949837D01*
X96782941Y-95863833D01*
X96641909Y-95748091D01*
X96526167Y-95607059D01*
X96440163Y-95446156D01*
X96387202Y-95271567D01*
X96387202Y-95271566D01*
X96387201Y-95271563D01*
X96369318Y-95090000D01*
X96387201Y-94908437D01*
X96440163Y-94733844D01*
X96526168Y-94572940D01*
X96641909Y-94431909D01*
X96782940Y-94316168D01*
X96782939Y-94316168D01*
X96782941Y-94316167D01*
X96943844Y-94230163D01*
X97118433Y-94177202D01*
X97118434Y-94177202D01*
X97118437Y-94177201D01*
X97254499Y-94163800D01*
X97345501Y-94163800D01*
X97481563Y-94177201D01*
X97481563Y-94177201D01*
G37*
G36*
X55290000Y-96000000D02*
X54760000Y-96000000D01*
X54760000Y-95300000D01*
X55290000Y-95300000D01*
X55290000Y-96000000D01*
X55290000Y-96000000D01*
G37*
G36*
X56590000Y-96000000D02*
X56060000Y-96000000D01*
X56060000Y-95300000D01*
X56590000Y-95300000D01*
X56590000Y-96000000D01*
X56590000Y-96000000D01*
G37*
G36*
X57240000Y-96000000D02*
X56710000Y-96000000D01*
X56710000Y-95300000D01*
X57240000Y-95300000D01*
X57240000Y-96000000D01*
X57240000Y-96000000D01*
G37*
G36*
X55940000Y-96000000D02*
X55410000Y-96000000D01*
X55410000Y-95300000D01*
X55940000Y-95300000D01*
X55940000Y-96000000D01*
X55940000Y-96000000D01*
G37*
G36*
X55290000Y-92599200D02*
X55290976Y-92609111D01*
X55293867Y-92618640D01*
X55298561Y-92627423D01*
X55304879Y-92635121D01*
X55312577Y-92641439D01*
X55321360Y-92646133D01*
X55330889Y-92649024D01*
X55340800Y-92650000D01*
X55359200Y-92650000D01*
X55369111Y-92649024D01*
X55378640Y-92646133D01*
X55387423Y-92641439D01*
X55395121Y-92635121D01*
X55401439Y-92627423D01*
X55406133Y-92618640D01*
X55409024Y-92609111D01*
X55410000Y-92599200D01*
X55410000Y-92200000D01*
X55940000Y-92200000D01*
X55940000Y-92599200D01*
X55940976Y-92609111D01*
X55943867Y-92618640D01*
X55948561Y-92627423D01*
X55954879Y-92635121D01*
X55962577Y-92641439D01*
X55971360Y-92646133D01*
X55980889Y-92649024D01*
X55990800Y-92650000D01*
X56009200Y-92650000D01*
X56019111Y-92649024D01*
X56028640Y-92646133D01*
X56037423Y-92641439D01*
X56045121Y-92635121D01*
X56051439Y-92627423D01*
X56056133Y-92618640D01*
X56059024Y-92609111D01*
X56060000Y-92599200D01*
X56060000Y-92200000D01*
X56590000Y-92200000D01*
X56590000Y-92599200D01*
X56590976Y-92609111D01*
X56593867Y-92618640D01*
X56598561Y-92627423D01*
X56604879Y-92635121D01*
X56612577Y-92641439D01*
X56621360Y-92646133D01*
X56630889Y-92649024D01*
X56640800Y-92650000D01*
X56659200Y-92650000D01*
X56669111Y-92649024D01*
X56678640Y-92646133D01*
X56687423Y-92641439D01*
X56695121Y-92635121D01*
X56701439Y-92627423D01*
X56706133Y-92618640D01*
X56709024Y-92609111D01*
X56710000Y-92599200D01*
X56710000Y-92200000D01*
X57240000Y-92200000D01*
X57240000Y-92599200D01*
X57240976Y-92609111D01*
X57243867Y-92618640D01*
X57248561Y-92627423D01*
X57254879Y-92635121D01*
X57262577Y-92641439D01*
X57271360Y-92646133D01*
X57280889Y-92649024D01*
X57290800Y-92650000D01*
X57550000Y-92650000D01*
X57550000Y-94750000D01*
X54450000Y-94750000D01*
X54450000Y-92650000D01*
X54709200Y-92650000D01*
X54719111Y-92649024D01*
X54728640Y-92646133D01*
X54737423Y-92641439D01*
X54745121Y-92635121D01*
X54751439Y-92627423D01*
X54756133Y-92618640D01*
X54759024Y-92609111D01*
X54760000Y-92599200D01*
X54760000Y-92200000D01*
X55290000Y-92200000D01*
X55290000Y-92599200D01*
X55290000Y-92599200D01*
G37*
G36*
X145476200Y-93576200D02*
X137323800Y-93576200D01*
X137323800Y-87423800D01*
X145476200Y-87423800D01*
X145476200Y-93576200D01*
X145476200Y-93576200D01*
G37*
G36*
X93926200Y-93476200D02*
X92073800Y-93476200D01*
X92073800Y-91623800D01*
X93926200Y-91623800D01*
X93926200Y-93476200D01*
X93926200Y-93476200D01*
G37*
G36*
X98226200Y-93476200D02*
X96373800Y-93476200D01*
X96373800Y-91623800D01*
X98226200Y-91623800D01*
X98226200Y-93476200D01*
X98226200Y-93476200D01*
G37*
G36*
X127150000Y-92900000D02*
X126890800Y-92900000D01*
X126880889Y-92900976D01*
X126871360Y-92903867D01*
X126862577Y-92908561D01*
X126854879Y-92914879D01*
X126848561Y-92922577D01*
X126843867Y-92931360D01*
X126840976Y-92940889D01*
X126840000Y-92950800D01*
X126840000Y-93350000D01*
X126310000Y-93350000D01*
X126310000Y-92950800D01*
X126309024Y-92940889D01*
X126306133Y-92931360D01*
X126301439Y-92922577D01*
X126295121Y-92914879D01*
X126287423Y-92908561D01*
X126278640Y-92903867D01*
X126269111Y-92900976D01*
X126259200Y-92900000D01*
X126240800Y-92900000D01*
X126230889Y-92900976D01*
X126221360Y-92903867D01*
X126212577Y-92908561D01*
X126204879Y-92914879D01*
X126198561Y-92922577D01*
X126193867Y-92931360D01*
X126190976Y-92940889D01*
X126190000Y-92950800D01*
X126190000Y-93350000D01*
X125660000Y-93350000D01*
X125660000Y-92950800D01*
X125659024Y-92940889D01*
X125656133Y-92931360D01*
X125651439Y-92922577D01*
X125645121Y-92914879D01*
X125637423Y-92908561D01*
X125628640Y-92903867D01*
X125619111Y-92900976D01*
X125609200Y-92900000D01*
X125590800Y-92900000D01*
X125580889Y-92900976D01*
X125571360Y-92903867D01*
X125562577Y-92908561D01*
X125554879Y-92914879D01*
X125548561Y-92922577D01*
X125543867Y-92931360D01*
X125540976Y-92940889D01*
X125540000Y-92950800D01*
X125540000Y-93350000D01*
X125010000Y-93350000D01*
X125010000Y-92950800D01*
X125009024Y-92940889D01*
X125006133Y-92931360D01*
X125001439Y-92922577D01*
X124995121Y-92914879D01*
X124987423Y-92908561D01*
X124978640Y-92903867D01*
X124969111Y-92900976D01*
X124959200Y-92900000D01*
X124940800Y-92900000D01*
X124930889Y-92900976D01*
X124921360Y-92903867D01*
X124912577Y-92908561D01*
X124904879Y-92914879D01*
X124898561Y-92922577D01*
X124893867Y-92931360D01*
X124890976Y-92940889D01*
X124890000Y-92950800D01*
X124890000Y-93350000D01*
X124360000Y-93350000D01*
X124360000Y-92950800D01*
X124359024Y-92940889D01*
X124356133Y-92931360D01*
X124351439Y-92922577D01*
X124345121Y-92914879D01*
X124337423Y-92908561D01*
X124328640Y-92903867D01*
X124319111Y-92900976D01*
X124309200Y-92900000D01*
X124050000Y-92900000D01*
X124050000Y-90800000D01*
X127150000Y-90800000D01*
X127150000Y-92900000D01*
X127150000Y-92900000D01*
G37*
G36*
X123076200Y-90576200D02*
X121723800Y-90576200D01*
X121723800Y-89523800D01*
X123076200Y-89523800D01*
X123076200Y-90576200D01*
X123076200Y-90576200D01*
G37*
G36*
X120876200Y-90576200D02*
X119523800Y-90576200D01*
X119523800Y-89523800D01*
X120876200Y-89523800D01*
X120876200Y-90576200D01*
X120876200Y-90576200D01*
G37*
G36*
X126840000Y-90250000D02*
X126310000Y-90250000D01*
X126310000Y-89550000D01*
X126840000Y-89550000D01*
X126840000Y-90250000D01*
X126840000Y-90250000D01*
G37*
G36*
X124890000Y-90250000D02*
X124360000Y-90250000D01*
X124360000Y-89550000D01*
X124890000Y-89550000D01*
X124890000Y-90250000D01*
X124890000Y-90250000D01*
G37*
G36*
X125540000Y-90250000D02*
X125010000Y-90250000D01*
X125010000Y-89550000D01*
X125540000Y-89550000D01*
X125540000Y-90250000D01*
X125540000Y-90250000D01*
G37*
G36*
X126190000Y-90250000D02*
X125660000Y-90250000D01*
X125660000Y-89550000D01*
X126190000Y-89550000D01*
X126190000Y-90250000D01*
X126190000Y-90250000D01*
G37*
G36*
X104776200Y-88876200D02*
X103123800Y-88876200D01*
X103123800Y-87423800D01*
X104776200Y-87423800D01*
X104776200Y-88876200D01*
X104776200Y-88876200D01*
G37*
G36*
X102076200Y-88876200D02*
X100423800Y-88876200D01*
X100423800Y-87423800D01*
X102076200Y-87423800D01*
X102076200Y-88876200D01*
X102076200Y-88876200D01*
G37*
G36*
X108476200Y-88826200D02*
X106723800Y-88826200D01*
X106723800Y-86073800D01*
X108476200Y-86073800D01*
X108476200Y-88826200D01*
X108476200Y-88826200D01*
G37*
G36*
X125940994Y-87155550D02*
X126091353Y-87217831D01*
X126226672Y-87308248D01*
X126341752Y-87423328D01*
X126432169Y-87558647D01*
X126494450Y-87709006D01*
X126526200Y-87868626D01*
X126526200Y-88031374D01*
X126494450Y-88190994D01*
X126432169Y-88341353D01*
X126341752Y-88476672D01*
X126226672Y-88591752D01*
X126091353Y-88682169D01*
X125940994Y-88744450D01*
X125781374Y-88776200D01*
X125618626Y-88776200D01*
X125459006Y-88744450D01*
X125308647Y-88682169D01*
X125173328Y-88591752D01*
X125058248Y-88476672D01*
X124967831Y-88341353D01*
X124905550Y-88190994D01*
X124873800Y-88031374D01*
X124873800Y-87868626D01*
X124905550Y-87709006D01*
X124967831Y-87558647D01*
X125058248Y-87423328D01*
X125173328Y-87308248D01*
X125308647Y-87217831D01*
X125459006Y-87155550D01*
X125618626Y-87123800D01*
X125781374Y-87123800D01*
X125940994Y-87155550D01*
X125940994Y-87155550D01*
G37*
G36*
X122240994Y-86955550D02*
X122391353Y-87017831D01*
X122526672Y-87108248D01*
X122641752Y-87223328D01*
X122732169Y-87358647D01*
X122794450Y-87509006D01*
X122826200Y-87668626D01*
X122826200Y-87831374D01*
X122794450Y-87990994D01*
X122732169Y-88141353D01*
X122641752Y-88276672D01*
X122526672Y-88391752D01*
X122391353Y-88482169D01*
X122240994Y-88544450D01*
X122081374Y-88576200D01*
X121918626Y-88576200D01*
X121759006Y-88544450D01*
X121608647Y-88482169D01*
X121473328Y-88391752D01*
X121358248Y-88276672D01*
X121267831Y-88141353D01*
X121205550Y-87990994D01*
X121173800Y-87831374D01*
X121173800Y-87668626D01*
X121205550Y-87509006D01*
X121267831Y-87358647D01*
X121358248Y-87223328D01*
X121473328Y-87108248D01*
X121608647Y-87017831D01*
X121759006Y-86955550D01*
X121918626Y-86923800D01*
X122081374Y-86923800D01*
X122240994Y-86955550D01*
X122240994Y-86955550D01*
G37*
G36*
X120651200Y-88376200D02*
X119748800Y-88376200D01*
X119748800Y-87023800D01*
X120651200Y-87023800D01*
X120651200Y-88376200D01*
X120651200Y-88376200D01*
G37*
G36*
X114976200Y-88376200D02*
X114223800Y-88376200D01*
X114223800Y-87723800D01*
X114976200Y-87723800D01*
X114976200Y-88376200D01*
X114976200Y-88376200D01*
G37*
G36*
X113876200Y-88376200D02*
X113123800Y-88376200D01*
X113123800Y-87723800D01*
X113876200Y-87723800D01*
X113876200Y-88376200D01*
X113876200Y-88376200D01*
G37*
G36*
X75807881Y-85640148D02*
X75972256Y-85672844D01*
X76204505Y-85769045D01*
X76204507Y-85769046D01*
X76400493Y-85900000D01*
X76413531Y-85908712D01*
X76591288Y-86086469D01*
X76730955Y-86295495D01*
X76827156Y-86527744D01*
X76876200Y-86774306D01*
X76876200Y-87025694D01*
X76827156Y-87272256D01*
X76764384Y-87423800D01*
X76730954Y-87504507D01*
X76591289Y-87713530D01*
X76413530Y-87891289D01*
X76204507Y-88030954D01*
X76204506Y-88030955D01*
X76204505Y-88030955D01*
X75972256Y-88127156D01*
X75807881Y-88159852D01*
X75725695Y-88176200D01*
X75474305Y-88176200D01*
X75392119Y-88159852D01*
X75227744Y-88127156D01*
X74995495Y-88030955D01*
X74995494Y-88030955D01*
X74995493Y-88030954D01*
X74786470Y-87891289D01*
X74608711Y-87713530D01*
X74469046Y-87504507D01*
X74435616Y-87423800D01*
X74372844Y-87272256D01*
X74323800Y-87025694D01*
X74323800Y-86774306D01*
X74372844Y-86527744D01*
X74469045Y-86295495D01*
X74608712Y-86086469D01*
X74786469Y-85908712D01*
X74799507Y-85900000D01*
X74995493Y-85769046D01*
X74995495Y-85769045D01*
X75227744Y-85672844D01*
X75392119Y-85640148D01*
X75474305Y-85623800D01*
X75725695Y-85623800D01*
X75807881Y-85640148D01*
X75807881Y-85640148D01*
G37*
G36*
X69376200Y-88176200D02*
X66823800Y-88176200D01*
X66823800Y-85623800D01*
X69376200Y-85623800D01*
X69376200Y-88176200D01*
X69376200Y-88176200D01*
G37*
G36*
X119126200Y-87626200D02*
X118473800Y-87626200D01*
X118473800Y-86873800D01*
X119126200Y-86873800D01*
X119126200Y-87626200D01*
X119126200Y-87626200D01*
G37*
G36*
X119126200Y-86526200D02*
X118473800Y-86526200D01*
X118473800Y-85773800D01*
X119126200Y-85773800D01*
X119126200Y-86526200D01*
X119126200Y-86526200D01*
G37*
G36*
X120651200Y-86476200D02*
X119748800Y-86476200D01*
X119748800Y-85123800D01*
X120651200Y-85123800D01*
X120651200Y-86476200D01*
X120651200Y-86476200D01*
G37*
G36*
X127150000Y-86000000D02*
X126890800Y-86000000D01*
X126880889Y-86000976D01*
X126871360Y-86003867D01*
X126862577Y-86008561D01*
X126854879Y-86014879D01*
X126848561Y-86022577D01*
X126843867Y-86031360D01*
X126840976Y-86040889D01*
X126840000Y-86050800D01*
X126840000Y-86450000D01*
X126310000Y-86450000D01*
X126310000Y-86050800D01*
X126309024Y-86040889D01*
X126306133Y-86031360D01*
X126301439Y-86022577D01*
X126295121Y-86014879D01*
X126287423Y-86008561D01*
X126278640Y-86003867D01*
X126269111Y-86000976D01*
X126259200Y-86000000D01*
X126240800Y-86000000D01*
X126230889Y-86000976D01*
X126221360Y-86003867D01*
X126212577Y-86008561D01*
X126204879Y-86014879D01*
X126198561Y-86022577D01*
X126193867Y-86031360D01*
X126190976Y-86040889D01*
X126190000Y-86050800D01*
X126190000Y-86450000D01*
X125660000Y-86450000D01*
X125660000Y-86050800D01*
X125659024Y-86040889D01*
X125656133Y-86031360D01*
X125651439Y-86022577D01*
X125645121Y-86014879D01*
X125637423Y-86008561D01*
X125628640Y-86003867D01*
X125619111Y-86000976D01*
X125609200Y-86000000D01*
X125590800Y-86000000D01*
X125580889Y-86000976D01*
X125571360Y-86003867D01*
X125562577Y-86008561D01*
X125554879Y-86014879D01*
X125548561Y-86022577D01*
X125543867Y-86031360D01*
X125540976Y-86040889D01*
X125540000Y-86050800D01*
X125540000Y-86450000D01*
X125010000Y-86450000D01*
X125010000Y-86050800D01*
X125009024Y-86040889D01*
X125006133Y-86031360D01*
X125001439Y-86022577D01*
X124995121Y-86014879D01*
X124987423Y-86008561D01*
X124978640Y-86003867D01*
X124969111Y-86000976D01*
X124959200Y-86000000D01*
X124940800Y-86000000D01*
X124930889Y-86000976D01*
X124921360Y-86003867D01*
X124912577Y-86008561D01*
X124904879Y-86014879D01*
X124898561Y-86022577D01*
X124893867Y-86031360D01*
X124890976Y-86040889D01*
X124890000Y-86050800D01*
X124890000Y-86450000D01*
X124360000Y-86450000D01*
X124360000Y-86050800D01*
X124359024Y-86040889D01*
X124356133Y-86031360D01*
X124351439Y-86022577D01*
X124345121Y-86014879D01*
X124337423Y-86008561D01*
X124328640Y-86003867D01*
X124319111Y-86000976D01*
X124309200Y-86000000D01*
X124050000Y-86000000D01*
X124050000Y-83900000D01*
X127150000Y-83900000D01*
X127150000Y-86000000D01*
X127150000Y-86000000D01*
G37*
G36*
X116700000Y-86450000D02*
X115250000Y-86450000D01*
X115250000Y-84050000D01*
X116700000Y-84050000D01*
X116700000Y-86450000D01*
X116700000Y-86450000D01*
G37*
G36*
X112750000Y-86450000D02*
X111300000Y-86450000D01*
X111300000Y-84050000D01*
X112750000Y-84050000D01*
X112750000Y-86450000D01*
X112750000Y-86450000D01*
G37*
G36*
X108476200Y-85226200D02*
X106723800Y-85226200D01*
X106723800Y-82473800D01*
X108476200Y-82473800D01*
X108476200Y-85226200D01*
X108476200Y-85226200D01*
G37*
G36*
X59313918Y-82065158D02*
X59509770Y-82146283D01*
X59509772Y-82146284D01*
X59597905Y-82205173D01*
X59686039Y-82264062D01*
X59835938Y-82413961D01*
X59953717Y-82590230D01*
X60034842Y-82786082D01*
X60076200Y-82994004D01*
X60076200Y-83205996D01*
X60034842Y-83413918D01*
X59953717Y-83609770D01*
X59835938Y-83786039D01*
X59686039Y-83935938D01*
X59597905Y-83994827D01*
X59509772Y-84053716D01*
X59509771Y-84053717D01*
X59509770Y-84053717D01*
X59313918Y-84134842D01*
X59105996Y-84176200D01*
X58894004Y-84176200D01*
X58686082Y-84134842D01*
X58490230Y-84053717D01*
X58490229Y-84053717D01*
X58490228Y-84053716D01*
X58402095Y-83994827D01*
X58313961Y-83935938D01*
X58164062Y-83786039D01*
X58046283Y-83609770D01*
X57965158Y-83413918D01*
X57923800Y-83205996D01*
X57923800Y-82994004D01*
X57965158Y-82786082D01*
X58046283Y-82590230D01*
X58164062Y-82413961D01*
X58313961Y-82264062D01*
X58402096Y-82205172D01*
X58490228Y-82146284D01*
X58490230Y-82146283D01*
X58686082Y-82065158D01*
X58894004Y-82023800D01*
X59105996Y-82023800D01*
X59313918Y-82065158D01*
X59313918Y-82065158D01*
G37*
G36*
X55076200Y-84176200D02*
X52923800Y-84176200D01*
X52923800Y-82023800D01*
X55076200Y-82023800D01*
X55076200Y-84176200D01*
X55076200Y-84176200D01*
G37*
G36*
X121176200Y-83876200D02*
X119823800Y-83876200D01*
X119823800Y-82823800D01*
X121176200Y-82823800D01*
X121176200Y-83876200D01*
X121176200Y-83876200D01*
G37*
G36*
X123376200Y-83876200D02*
X122023800Y-83876200D01*
X122023800Y-82823800D01*
X123376200Y-82823800D01*
X123376200Y-83876200D01*
X123376200Y-83876200D01*
G37*
G36*
X126840000Y-83350000D02*
X126310000Y-83350000D01*
X126310000Y-82650000D01*
X126840000Y-82650000D01*
X126840000Y-83350000D01*
X126840000Y-83350000D01*
G37*
G36*
X124890000Y-83350000D02*
X124360000Y-83350000D01*
X124360000Y-82650000D01*
X124890000Y-82650000D01*
X124890000Y-83350000D01*
X124890000Y-83350000D01*
G37*
G36*
X126190000Y-83350000D02*
X125660000Y-83350000D01*
X125660000Y-82650000D01*
X126190000Y-82650000D01*
X126190000Y-83350000D01*
X126190000Y-83350000D01*
G37*
G36*
X125540000Y-83350000D02*
X125010000Y-83350000D01*
X125010000Y-82650000D01*
X125540000Y-82650000D01*
X125540000Y-83350000D01*
X125540000Y-83350000D01*
G37*
G36*
X114826200Y-83026200D02*
X114273800Y-83026200D01*
X114273800Y-82273800D01*
X114826200Y-82273800D01*
X114826200Y-83026200D01*
X114826200Y-83026200D01*
G37*
G36*
X113926200Y-83026200D02*
X113373800Y-83026200D01*
X113373800Y-82273800D01*
X113926200Y-82273800D01*
X113926200Y-83026200D01*
X113926200Y-83026200D01*
G37*
G36*
X122913918Y-71415158D02*
X123109770Y-71496283D01*
X123109772Y-71496284D01*
X123115333Y-71500000D01*
X123286039Y-71614062D01*
X123435938Y-71763961D01*
X123553717Y-71940230D01*
X123634842Y-72136082D01*
X123676200Y-72344004D01*
X123676200Y-72555996D01*
X123634842Y-72763918D01*
X123553717Y-72959770D01*
X123435938Y-73136039D01*
X123286039Y-73285938D01*
X123197904Y-73344828D01*
X123109772Y-73403716D01*
X123109771Y-73403717D01*
X123109770Y-73403717D01*
X122913918Y-73484842D01*
X122705996Y-73526200D01*
X122494004Y-73526200D01*
X122286082Y-73484842D01*
X122090230Y-73403717D01*
X122090229Y-73403717D01*
X122090228Y-73403716D01*
X122002096Y-73344828D01*
X121913961Y-73285938D01*
X121764062Y-73136039D01*
X121646283Y-72959770D01*
X121565158Y-72763918D01*
X121523800Y-72555996D01*
X121523800Y-72344004D01*
X121565158Y-72136082D01*
X121646283Y-71940230D01*
X121764062Y-71763961D01*
X121913961Y-71614062D01*
X122084667Y-71500000D01*
X122090228Y-71496284D01*
X122090230Y-71496283D01*
X122286082Y-71415158D01*
X122494004Y-71373800D01*
X122705996Y-71373800D01*
X122913918Y-71415158D01*
X122913918Y-71415158D01*
G37*
G36*
X128676200Y-73526200D02*
X126523800Y-73526200D01*
X126523800Y-71373800D01*
X128676200Y-71373800D01*
X128676200Y-73526200D01*
X128676200Y-73526200D01*
G37*
G36*
X67326200Y-73276200D02*
X66773800Y-73276200D01*
X66773800Y-72523800D01*
X67326200Y-72523800D01*
X67326200Y-73276200D01*
X67326200Y-73276200D01*
G37*
G36*
X68226200Y-73276200D02*
X67673800Y-73276200D01*
X67673800Y-72523800D01*
X68226200Y-72523800D01*
X68226200Y-73276200D01*
X68226200Y-73276200D01*
G37*
G36*
X74876200Y-73076200D02*
X73123800Y-73076200D01*
X73123800Y-70323800D01*
X74876200Y-70323800D01*
X74876200Y-73076200D01*
X74876200Y-73076200D01*
G37*
G36*
X57240000Y-72900000D02*
X56710000Y-72900000D01*
X56710000Y-72200000D01*
X57240000Y-72200000D01*
X57240000Y-72900000D01*
X57240000Y-72900000D01*
G37*
G36*
X55290000Y-72900000D02*
X54760000Y-72900000D01*
X54760000Y-72200000D01*
X55290000Y-72200000D01*
X55290000Y-72900000D01*
X55290000Y-72900000D01*
G37*
G36*
X56590000Y-72900000D02*
X56060000Y-72900000D01*
X56060000Y-72200000D01*
X56590000Y-72200000D01*
X56590000Y-72900000D01*
X56590000Y-72900000D01*
G37*
G36*
X55940000Y-72900000D02*
X55410000Y-72900000D01*
X55410000Y-72200000D01*
X55940000Y-72200000D01*
X55940000Y-72900000D01*
X55940000Y-72900000D01*
G37*
G36*
X59576200Y-72726200D02*
X58223800Y-72726200D01*
X58223800Y-71673800D01*
X59576200Y-71673800D01*
X59576200Y-72726200D01*
X59576200Y-72726200D01*
G37*
G36*
X61776200Y-72726200D02*
X60423800Y-72726200D01*
X60423800Y-71673800D01*
X61776200Y-71673800D01*
X61776200Y-72726200D01*
X61776200Y-72726200D01*
G37*
G36*
X55290000Y-69499200D02*
X55290976Y-69509111D01*
X55293867Y-69518640D01*
X55298561Y-69527423D01*
X55304879Y-69535121D01*
X55312577Y-69541439D01*
X55321360Y-69546133D01*
X55330889Y-69549024D01*
X55340800Y-69550000D01*
X55359200Y-69550000D01*
X55369111Y-69549024D01*
X55378640Y-69546133D01*
X55387423Y-69541439D01*
X55395121Y-69535121D01*
X55401439Y-69527423D01*
X55406133Y-69518640D01*
X55409024Y-69509111D01*
X55410000Y-69499200D01*
X55410000Y-69100000D01*
X55940000Y-69100000D01*
X55940000Y-69499200D01*
X55940976Y-69509111D01*
X55943867Y-69518640D01*
X55948561Y-69527423D01*
X55954879Y-69535121D01*
X55962577Y-69541439D01*
X55971360Y-69546133D01*
X55980889Y-69549024D01*
X55990800Y-69550000D01*
X56009200Y-69550000D01*
X56019111Y-69549024D01*
X56028640Y-69546133D01*
X56037423Y-69541439D01*
X56045121Y-69535121D01*
X56051439Y-69527423D01*
X56056133Y-69518640D01*
X56059024Y-69509111D01*
X56060000Y-69499200D01*
X56060000Y-69100000D01*
X56590000Y-69100000D01*
X56590000Y-69499200D01*
X56590976Y-69509111D01*
X56593867Y-69518640D01*
X56598561Y-69527423D01*
X56604879Y-69535121D01*
X56612577Y-69541439D01*
X56621360Y-69546133D01*
X56630889Y-69549024D01*
X56640800Y-69550000D01*
X56659200Y-69550000D01*
X56669111Y-69549024D01*
X56678640Y-69546133D01*
X56687423Y-69541439D01*
X56695121Y-69535121D01*
X56701439Y-69527423D01*
X56706133Y-69518640D01*
X56709024Y-69509111D01*
X56710000Y-69499200D01*
X56710000Y-69100000D01*
X57240000Y-69100000D01*
X57240000Y-69499200D01*
X57240976Y-69509111D01*
X57243867Y-69518640D01*
X57248561Y-69527423D01*
X57254879Y-69535121D01*
X57262577Y-69541439D01*
X57271360Y-69546133D01*
X57280889Y-69549024D01*
X57290800Y-69550000D01*
X57550000Y-69550000D01*
X57550000Y-71650000D01*
X54450000Y-71650000D01*
X54450000Y-69550000D01*
X54709200Y-69550000D01*
X54719111Y-69549024D01*
X54728640Y-69546133D01*
X54737423Y-69541439D01*
X54745121Y-69535121D01*
X54751439Y-69527423D01*
X54756133Y-69518640D01*
X54759024Y-69509111D01*
X54760000Y-69499200D01*
X54760000Y-69100000D01*
X55290000Y-69100000D01*
X55290000Y-69499200D01*
X55290000Y-69499200D01*
G37*
G36*
X70300000Y-71500000D02*
X68850000Y-71500000D01*
X68850000Y-69100000D01*
X70300000Y-69100000D01*
X70300000Y-71500000D01*
X70300000Y-71500000D01*
G37*
G36*
X66350000Y-71500000D02*
X64900000Y-71500000D01*
X64900000Y-69100000D01*
X66350000Y-69100000D01*
X66350000Y-71500000D01*
X66350000Y-71500000D01*
G37*
G36*
X61851200Y-70426200D02*
X60948800Y-70426200D01*
X60948800Y-69073800D01*
X61851200Y-69073800D01*
X61851200Y-70426200D01*
X61851200Y-70426200D01*
G37*
G36*
X106207881Y-67390148D02*
X106372256Y-67422844D01*
X106604505Y-67519045D01*
X106604507Y-67519046D01*
X106813530Y-67658711D01*
X106991289Y-67836470D01*
X107127949Y-68040995D01*
X107130955Y-68045495D01*
X107227156Y-68277744D01*
X107276200Y-68524306D01*
X107276200Y-68775694D01*
X107227156Y-69022256D01*
X107194953Y-69100000D01*
X107130954Y-69254507D01*
X106991289Y-69463530D01*
X106813530Y-69641289D01*
X106604507Y-69780954D01*
X106604506Y-69780955D01*
X106604505Y-69780955D01*
X106372256Y-69877156D01*
X106207881Y-69909852D01*
X106125695Y-69926200D01*
X105874305Y-69926200D01*
X105792119Y-69909852D01*
X105627744Y-69877156D01*
X105395495Y-69780955D01*
X105395494Y-69780955D01*
X105395493Y-69780954D01*
X105186470Y-69641289D01*
X105008711Y-69463530D01*
X104869046Y-69254507D01*
X104805047Y-69100000D01*
X104772844Y-69022256D01*
X104723800Y-68775694D01*
X104723800Y-68524306D01*
X104772844Y-68277744D01*
X104869045Y-68045495D01*
X104872052Y-68040995D01*
X105008711Y-67836470D01*
X105186470Y-67658711D01*
X105395493Y-67519046D01*
X105395495Y-67519045D01*
X105627744Y-67422844D01*
X105792119Y-67390148D01*
X105874305Y-67373800D01*
X106125695Y-67373800D01*
X106207881Y-67390148D01*
X106207881Y-67390148D01*
G37*
G36*
X114776200Y-69926200D02*
X112223800Y-69926200D01*
X112223800Y-67373800D01*
X114776200Y-67373800D01*
X114776200Y-69926200D01*
X114776200Y-69926200D01*
G37*
G36*
X63126200Y-69776200D02*
X62473800Y-69776200D01*
X62473800Y-69023800D01*
X63126200Y-69023800D01*
X63126200Y-69776200D01*
X63126200Y-69776200D01*
G37*
G36*
X74876200Y-69476200D02*
X73123800Y-69476200D01*
X73123800Y-66723800D01*
X74876200Y-66723800D01*
X74876200Y-69476200D01*
X74876200Y-69476200D01*
G37*
G36*
X63126200Y-68676200D02*
X62473800Y-68676200D01*
X62473800Y-67923800D01*
X63126200Y-67923800D01*
X63126200Y-68676200D01*
X63126200Y-68676200D01*
G37*
G36*
X59840994Y-67005550D02*
X59991353Y-67067831D01*
X60126672Y-67158248D01*
X60241752Y-67273328D01*
X60332169Y-67408647D01*
X60394450Y-67559006D01*
X60426200Y-67718626D01*
X60426200Y-67881374D01*
X60394450Y-68040994D01*
X60332169Y-68191353D01*
X60241752Y-68326672D01*
X60126672Y-68441752D01*
X59991353Y-68532169D01*
X59840994Y-68594450D01*
X59681374Y-68626200D01*
X59518626Y-68626200D01*
X59359006Y-68594450D01*
X59208647Y-68532169D01*
X59073328Y-68441752D01*
X58958248Y-68326672D01*
X58867831Y-68191353D01*
X58805550Y-68040994D01*
X58773800Y-67881374D01*
X58773800Y-67718626D01*
X58805550Y-67559006D01*
X58867831Y-67408647D01*
X58958248Y-67273328D01*
X59073328Y-67158248D01*
X59208647Y-67067831D01*
X59359006Y-67005550D01*
X59518626Y-66973800D01*
X59681374Y-66973800D01*
X59840994Y-67005550D01*
X59840994Y-67005550D01*
G37*
G36*
X61851200Y-68526200D02*
X60948800Y-68526200D01*
X60948800Y-67173800D01*
X61851200Y-67173800D01*
X61851200Y-68526200D01*
X61851200Y-68526200D01*
G37*
G36*
X56140994Y-66805550D02*
X56291353Y-66867831D01*
X56426672Y-66958248D01*
X56541752Y-67073328D01*
X56632169Y-67208647D01*
X56694450Y-67359006D01*
X56726200Y-67518626D01*
X56726200Y-67681374D01*
X56694450Y-67840994D01*
X56632169Y-67991353D01*
X56541752Y-68126672D01*
X56426672Y-68241752D01*
X56291353Y-68332169D01*
X56140994Y-68394450D01*
X55981374Y-68426200D01*
X55818626Y-68426200D01*
X55659006Y-68394450D01*
X55508647Y-68332169D01*
X55373328Y-68241752D01*
X55258248Y-68126672D01*
X55167831Y-67991353D01*
X55105550Y-67840994D01*
X55073800Y-67681374D01*
X55073800Y-67518626D01*
X55105550Y-67359006D01*
X55167831Y-67208647D01*
X55258248Y-67073328D01*
X55373328Y-66958248D01*
X55508647Y-66867831D01*
X55659006Y-66805550D01*
X55818626Y-66773800D01*
X55981374Y-66773800D01*
X56140994Y-66805550D01*
X56140994Y-66805550D01*
G37*
G36*
X81176200Y-68126200D02*
X79523800Y-68126200D01*
X79523800Y-66673800D01*
X81176200Y-66673800D01*
X81176200Y-68126200D01*
X81176200Y-68126200D01*
G37*
G36*
X78476200Y-68126200D02*
X76823800Y-68126200D01*
X76823800Y-66673800D01*
X78476200Y-66673800D01*
X78476200Y-68126200D01*
X78476200Y-68126200D01*
G37*
G36*
X67376200Y-67826200D02*
X66623800Y-67826200D01*
X66623800Y-67173800D01*
X67376200Y-67173800D01*
X67376200Y-67826200D01*
X67376200Y-67826200D01*
G37*
G36*
X68476200Y-67826200D02*
X67723800Y-67826200D01*
X67723800Y-67173800D01*
X68476200Y-67173800D01*
X68476200Y-67826200D01*
X68476200Y-67826200D01*
G37*
G36*
X59876200Y-66026200D02*
X58523800Y-66026200D01*
X58523800Y-64973800D01*
X59876200Y-64973800D01*
X59876200Y-66026200D01*
X59876200Y-66026200D01*
G37*
G36*
X62076200Y-66026200D02*
X60723800Y-66026200D01*
X60723800Y-64973800D01*
X62076200Y-64973800D01*
X62076200Y-66026200D01*
X62076200Y-66026200D01*
G37*
G36*
X57240000Y-66000000D02*
X56710000Y-66000000D01*
X56710000Y-65300000D01*
X57240000Y-65300000D01*
X57240000Y-66000000D01*
X57240000Y-66000000D01*
G37*
G36*
X56590000Y-66000000D02*
X56060000Y-66000000D01*
X56060000Y-65300000D01*
X56590000Y-65300000D01*
X56590000Y-66000000D01*
X56590000Y-66000000D01*
G37*
G36*
X55940000Y-66000000D02*
X55410000Y-66000000D01*
X55410000Y-65300000D01*
X55940000Y-65300000D01*
X55940000Y-66000000D01*
X55940000Y-66000000D01*
G37*
G36*
X55290000Y-66000000D02*
X54760000Y-66000000D01*
X54760000Y-65300000D01*
X55290000Y-65300000D01*
X55290000Y-66000000D01*
X55290000Y-66000000D01*
G37*
G36*
X55290000Y-62599200D02*
X55290976Y-62609111D01*
X55293867Y-62618640D01*
X55298561Y-62627423D01*
X55304879Y-62635121D01*
X55312577Y-62641439D01*
X55321360Y-62646133D01*
X55330889Y-62649024D01*
X55340800Y-62650000D01*
X55359200Y-62650000D01*
X55369111Y-62649024D01*
X55378640Y-62646133D01*
X55387423Y-62641439D01*
X55395121Y-62635121D01*
X55401439Y-62627423D01*
X55406133Y-62618640D01*
X55409024Y-62609111D01*
X55410000Y-62599200D01*
X55410000Y-62200000D01*
X55940000Y-62200000D01*
X55940000Y-62599200D01*
X55940976Y-62609111D01*
X55943867Y-62618640D01*
X55948561Y-62627423D01*
X55954879Y-62635121D01*
X55962577Y-62641439D01*
X55971360Y-62646133D01*
X55980889Y-62649024D01*
X55990800Y-62650000D01*
X56009200Y-62650000D01*
X56019111Y-62649024D01*
X56028640Y-62646133D01*
X56037423Y-62641439D01*
X56045121Y-62635121D01*
X56051439Y-62627423D01*
X56056133Y-62618640D01*
X56059024Y-62609111D01*
X56060000Y-62599200D01*
X56060000Y-62200000D01*
X56590000Y-62200000D01*
X56590000Y-62599200D01*
X56590976Y-62609111D01*
X56593867Y-62618640D01*
X56598561Y-62627423D01*
X56604879Y-62635121D01*
X56612577Y-62641439D01*
X56621360Y-62646133D01*
X56630889Y-62649024D01*
X56640800Y-62650000D01*
X56659200Y-62650000D01*
X56669111Y-62649024D01*
X56678640Y-62646133D01*
X56687423Y-62641439D01*
X56695121Y-62635121D01*
X56701439Y-62627423D01*
X56706133Y-62618640D01*
X56709024Y-62609111D01*
X56710000Y-62599200D01*
X56710000Y-62200000D01*
X57240000Y-62200000D01*
X57240000Y-62599200D01*
X57240976Y-62609111D01*
X57243867Y-62618640D01*
X57248561Y-62627423D01*
X57254879Y-62635121D01*
X57262577Y-62641439D01*
X57271360Y-62646133D01*
X57280889Y-62649024D01*
X57290800Y-62650000D01*
X57550000Y-62650000D01*
X57550000Y-64750000D01*
X54450000Y-64750000D01*
X54450000Y-62650000D01*
X54709200Y-62650000D01*
X54719111Y-62649024D01*
X54728640Y-62646133D01*
X54737423Y-62641439D01*
X54745121Y-62635121D01*
X54751439Y-62627423D01*
X54756133Y-62618640D01*
X54759024Y-62609111D01*
X54760000Y-62599200D01*
X54760000Y-62200000D01*
X55290000Y-62200000D01*
X55290000Y-62599200D01*
X55290000Y-62599200D01*
G37*
G36*
X127150000Y-62900000D02*
X126890800Y-62900000D01*
X126880889Y-62900976D01*
X126871360Y-62903867D01*
X126862577Y-62908561D01*
X126854879Y-62914879D01*
X126848561Y-62922577D01*
X126843867Y-62931360D01*
X126840976Y-62940889D01*
X126840000Y-62950800D01*
X126840000Y-63350000D01*
X126310000Y-63350000D01*
X126310000Y-62950800D01*
X126309024Y-62940889D01*
X126306133Y-62931360D01*
X126301439Y-62922577D01*
X126295121Y-62914879D01*
X126287423Y-62908561D01*
X126278640Y-62903867D01*
X126269111Y-62900976D01*
X126259200Y-62900000D01*
X126240800Y-62900000D01*
X126230889Y-62900976D01*
X126221360Y-62903867D01*
X126212577Y-62908561D01*
X126204879Y-62914879D01*
X126198561Y-62922577D01*
X126193867Y-62931360D01*
X126190976Y-62940889D01*
X126190000Y-62950800D01*
X126190000Y-63350000D01*
X125660000Y-63350000D01*
X125660000Y-62950800D01*
X125659024Y-62940889D01*
X125656133Y-62931360D01*
X125651439Y-62922577D01*
X125645121Y-62914879D01*
X125637423Y-62908561D01*
X125628640Y-62903867D01*
X125619111Y-62900976D01*
X125609200Y-62900000D01*
X125590800Y-62900000D01*
X125580889Y-62900976D01*
X125571360Y-62903867D01*
X125562577Y-62908561D01*
X125554879Y-62914879D01*
X125548561Y-62922577D01*
X125543867Y-62931360D01*
X125540976Y-62940889D01*
X125540000Y-62950800D01*
X125540000Y-63350000D01*
X125010000Y-63350000D01*
X125010000Y-62950800D01*
X125009024Y-62940889D01*
X125006133Y-62931360D01*
X125001439Y-62922577D01*
X124995121Y-62914879D01*
X124987423Y-62908561D01*
X124978640Y-62903867D01*
X124969111Y-62900976D01*
X124959200Y-62900000D01*
X124940800Y-62900000D01*
X124930889Y-62900976D01*
X124921360Y-62903867D01*
X124912577Y-62908561D01*
X124904879Y-62914879D01*
X124898561Y-62922577D01*
X124893867Y-62931360D01*
X124890976Y-62940889D01*
X124890000Y-62950800D01*
X124890000Y-63350000D01*
X124360000Y-63350000D01*
X124360000Y-62950800D01*
X124359024Y-62940889D01*
X124356133Y-62931360D01*
X124351439Y-62922577D01*
X124345121Y-62914879D01*
X124337423Y-62908561D01*
X124328640Y-62903867D01*
X124319111Y-62900976D01*
X124309200Y-62900000D01*
X124050000Y-62900000D01*
X124050000Y-60800000D01*
X127150000Y-60800000D01*
X127150000Y-62900000D01*
X127150000Y-62900000D01*
G37*
G36*
X94790994Y-60355550D02*
X94941353Y-60417831D01*
X95076672Y-60508248D01*
X95191752Y-60623328D01*
X95282169Y-60758647D01*
X95344450Y-60909006D01*
X95376200Y-61068626D01*
X95376200Y-61231374D01*
X95344450Y-61390994D01*
X95282169Y-61541353D01*
X95191752Y-61676672D01*
X95076672Y-61791752D01*
X94941353Y-61882169D01*
X94790994Y-61944450D01*
X94631374Y-61976200D01*
X94468626Y-61976200D01*
X94309006Y-61944450D01*
X94158647Y-61882169D01*
X94023328Y-61791752D01*
X93908248Y-61676672D01*
X93817831Y-61541353D01*
X93755550Y-61390994D01*
X93723800Y-61231374D01*
X93723800Y-61068626D01*
X93755550Y-60909006D01*
X93817831Y-60758647D01*
X93908248Y-60623328D01*
X94023328Y-60508248D01*
X94158647Y-60417831D01*
X94309006Y-60355550D01*
X94468626Y-60323800D01*
X94631374Y-60323800D01*
X94790994Y-60355550D01*
X94790994Y-60355550D01*
G37*
G36*
X43568180Y-50330404D02*
X44546586Y-50735673D01*
X45427128Y-51324033D01*
X46175967Y-52072872D01*
X46764327Y-52953414D01*
X47169596Y-53931820D01*
X47376200Y-54970491D01*
X47376200Y-56029509D01*
X47169596Y-57068180D01*
X46764327Y-58046586D01*
X46175967Y-58927128D01*
X45427128Y-59675967D01*
X44546586Y-60264327D01*
X43568180Y-60669596D01*
X42529509Y-60876200D01*
X41470491Y-60876200D01*
X40431820Y-60669596D01*
X39453414Y-60264327D01*
X38572872Y-59675967D01*
X37824033Y-58927128D01*
X37235673Y-58046586D01*
X36830404Y-57068180D01*
X36623800Y-56029509D01*
X36623800Y-54970491D01*
X36830404Y-53931820D01*
X37235673Y-52953414D01*
X37824033Y-52072872D01*
X38572872Y-51324033D01*
X39453414Y-50735673D01*
X40431820Y-50330404D01*
X41470491Y-50123800D01*
X42529509Y-50123800D01*
X43568180Y-50330404D01*
X43568180Y-50330404D01*
G37*
G36*
X140818180Y-50080404D02*
X141796586Y-50485673D01*
X142677128Y-51074033D01*
X143425967Y-51822872D01*
X144014327Y-52703414D01*
X144419596Y-53681820D01*
X144626200Y-54720491D01*
X144626200Y-55779509D01*
X144419596Y-56818180D01*
X144014327Y-57796586D01*
X143425967Y-58677128D01*
X142677128Y-59425967D01*
X141796586Y-60014327D01*
X140818180Y-60419596D01*
X139779509Y-60626200D01*
X138720491Y-60626200D01*
X137681820Y-60419596D01*
X136703414Y-60014327D01*
X135822872Y-59425967D01*
X135074033Y-58677128D01*
X134485673Y-57796586D01*
X134080404Y-56818180D01*
X133873800Y-55779509D01*
X133873800Y-54720491D01*
X134080404Y-53681820D01*
X134485673Y-52703414D01*
X135074033Y-51822872D01*
X135822872Y-51074033D01*
X136703414Y-50485673D01*
X137681820Y-50080404D01*
X138720491Y-49873800D01*
X139779509Y-49873800D01*
X140818180Y-50080404D01*
X140818180Y-50080404D01*
G37*
G36*
X123076200Y-60576200D02*
X121723800Y-60576200D01*
X121723800Y-59523800D01*
X123076200Y-59523800D01*
X123076200Y-60576200D01*
X123076200Y-60576200D01*
G37*
G36*
X120876200Y-60576200D02*
X119523800Y-60576200D01*
X119523800Y-59523800D01*
X120876200Y-59523800D01*
X120876200Y-60576200D01*
X120876200Y-60576200D01*
G37*
G36*
X126840000Y-60250000D02*
X126310000Y-60250000D01*
X126310000Y-59550000D01*
X126840000Y-59550000D01*
X126840000Y-60250000D01*
X126840000Y-60250000D01*
G37*
G36*
X126190000Y-60250000D02*
X125660000Y-60250000D01*
X125660000Y-59550000D01*
X126190000Y-59550000D01*
X126190000Y-60250000D01*
X126190000Y-60250000D01*
G37*
G36*
X124890000Y-60250000D02*
X124360000Y-60250000D01*
X124360000Y-59550000D01*
X124890000Y-59550000D01*
X124890000Y-60250000D01*
X124890000Y-60250000D01*
G37*
G36*
X125540000Y-60250000D02*
X125010000Y-60250000D01*
X125010000Y-59550000D01*
X125540000Y-59550000D01*
X125540000Y-60250000D01*
X125540000Y-60250000D01*
G37*
G36*
X102076200Y-58876200D02*
X100423800Y-58876200D01*
X100423800Y-57423800D01*
X102076200Y-57423800D01*
X102076200Y-58876200D01*
X102076200Y-58876200D01*
G37*
G36*
X104776200Y-58876200D02*
X103123800Y-58876200D01*
X103123800Y-57423800D01*
X104776200Y-57423800D01*
X104776200Y-58876200D01*
X104776200Y-58876200D01*
G37*
G36*
X108476200Y-58826200D02*
X106723800Y-58826200D01*
X106723800Y-56073800D01*
X108476200Y-56073800D01*
X108476200Y-58826200D01*
X108476200Y-58826200D01*
G37*
G36*
X125940994Y-57155550D02*
X126091353Y-57217831D01*
X126226672Y-57308248D01*
X126341752Y-57423328D01*
X126432169Y-57558647D01*
X126494450Y-57709006D01*
X126526200Y-57868626D01*
X126526200Y-58031374D01*
X126494450Y-58190994D01*
X126432169Y-58341353D01*
X126341752Y-58476672D01*
X126226672Y-58591752D01*
X126091353Y-58682169D01*
X125940994Y-58744450D01*
X125781374Y-58776200D01*
X125618626Y-58776200D01*
X125459006Y-58744450D01*
X125308647Y-58682169D01*
X125173328Y-58591752D01*
X125058248Y-58476672D01*
X124967831Y-58341353D01*
X124905550Y-58190994D01*
X124873800Y-58031374D01*
X124873800Y-57868626D01*
X124905550Y-57709006D01*
X124967831Y-57558647D01*
X125058248Y-57423328D01*
X125173328Y-57308248D01*
X125308647Y-57217831D01*
X125459006Y-57155550D01*
X125618626Y-57123800D01*
X125781374Y-57123800D01*
X125940994Y-57155550D01*
X125940994Y-57155550D01*
G37*
G36*
X122240994Y-56955550D02*
X122391353Y-57017831D01*
X122526672Y-57108248D01*
X122641752Y-57223328D01*
X122732169Y-57358647D01*
X122794450Y-57509006D01*
X122826200Y-57668626D01*
X122826200Y-57831374D01*
X122794450Y-57990994D01*
X122732169Y-58141353D01*
X122641752Y-58276672D01*
X122526672Y-58391752D01*
X122391353Y-58482169D01*
X122240994Y-58544450D01*
X122081374Y-58576200D01*
X121918626Y-58576200D01*
X121759006Y-58544450D01*
X121608647Y-58482169D01*
X121473328Y-58391752D01*
X121358248Y-58276672D01*
X121267831Y-58141353D01*
X121205550Y-57990994D01*
X121173800Y-57831374D01*
X121173800Y-57668626D01*
X121205550Y-57509006D01*
X121267831Y-57358647D01*
X121358248Y-57223328D01*
X121473328Y-57108248D01*
X121608647Y-57017831D01*
X121759006Y-56955550D01*
X121918626Y-56923800D01*
X122081374Y-56923800D01*
X122240994Y-56955550D01*
X122240994Y-56955550D01*
G37*
G36*
X120651200Y-58376200D02*
X119748800Y-58376200D01*
X119748800Y-57023800D01*
X120651200Y-57023800D01*
X120651200Y-58376200D01*
X120651200Y-58376200D01*
G37*
G36*
X114976200Y-58376200D02*
X114223800Y-58376200D01*
X114223800Y-57723800D01*
X114976200Y-57723800D01*
X114976200Y-58376200D01*
X114976200Y-58376200D01*
G37*
G36*
X113876200Y-58376200D02*
X113123800Y-58376200D01*
X113123800Y-57723800D01*
X113876200Y-57723800D01*
X113876200Y-58376200D01*
X113876200Y-58376200D01*
G37*
G36*
X69376200Y-58176200D02*
X66823800Y-58176200D01*
X66823800Y-55623800D01*
X69376200Y-55623800D01*
X69376200Y-58176200D01*
X69376200Y-58176200D01*
G37*
G36*
X75807881Y-55640148D02*
X75972256Y-55672844D01*
X76204505Y-55769045D01*
X76204507Y-55769046D01*
X76400493Y-55900000D01*
X76413531Y-55908712D01*
X76591288Y-56086469D01*
X76730955Y-56295495D01*
X76827156Y-56527744D01*
X76876200Y-56774306D01*
X76876200Y-57025694D01*
X76827156Y-57272256D01*
X76764384Y-57423800D01*
X76730954Y-57504507D01*
X76591289Y-57713530D01*
X76413530Y-57891289D01*
X76204507Y-58030954D01*
X76204506Y-58030955D01*
X76204505Y-58030955D01*
X75972256Y-58127156D01*
X75807881Y-58159852D01*
X75725695Y-58176200D01*
X75474305Y-58176200D01*
X75392119Y-58159852D01*
X75227744Y-58127156D01*
X74995495Y-58030955D01*
X74995494Y-58030955D01*
X74995493Y-58030954D01*
X74786470Y-57891289D01*
X74608711Y-57713530D01*
X74469046Y-57504507D01*
X74435616Y-57423800D01*
X74372844Y-57272256D01*
X74323800Y-57025694D01*
X74323800Y-56774306D01*
X74372844Y-56527744D01*
X74469045Y-56295495D01*
X74608712Y-56086469D01*
X74786469Y-55908712D01*
X74799507Y-55900000D01*
X74995493Y-55769046D01*
X74995495Y-55769045D01*
X75227744Y-55672844D01*
X75392119Y-55640148D01*
X75474305Y-55623800D01*
X75725695Y-55623800D01*
X75807881Y-55640148D01*
X75807881Y-55640148D01*
G37*
G36*
X119126200Y-57626200D02*
X118473800Y-57626200D01*
X118473800Y-56873800D01*
X119126200Y-56873800D01*
X119126200Y-57626200D01*
X119126200Y-57626200D01*
G37*
G36*
X119126200Y-56526200D02*
X118473800Y-56526200D01*
X118473800Y-55773800D01*
X119126200Y-55773800D01*
X119126200Y-56526200D01*
X119126200Y-56526200D01*
G37*
G36*
X98226200Y-56526200D02*
X92073800Y-56526200D01*
X92073800Y-48373800D01*
X98226200Y-48373800D01*
X98226200Y-56526200D01*
X98226200Y-56526200D01*
G37*
G36*
X90226200Y-56526200D02*
X84073800Y-56526200D01*
X84073800Y-48373800D01*
X90226200Y-48373800D01*
X90226200Y-56526200D01*
X90226200Y-56526200D01*
G37*
G36*
X120651200Y-56476200D02*
X119748800Y-56476200D01*
X119748800Y-55123800D01*
X120651200Y-55123800D01*
X120651200Y-56476200D01*
X120651200Y-56476200D01*
G37*
G36*
X127150000Y-56000000D02*
X126890800Y-56000000D01*
X126880889Y-56000976D01*
X126871360Y-56003867D01*
X126862577Y-56008561D01*
X126854879Y-56014879D01*
X126848561Y-56022577D01*
X126843867Y-56031360D01*
X126840976Y-56040889D01*
X126840000Y-56050800D01*
X126840000Y-56450000D01*
X126310000Y-56450000D01*
X126310000Y-56050800D01*
X126309024Y-56040889D01*
X126306133Y-56031360D01*
X126301439Y-56022577D01*
X126295121Y-56014879D01*
X126287423Y-56008561D01*
X126278640Y-56003867D01*
X126269111Y-56000976D01*
X126259200Y-56000000D01*
X126240800Y-56000000D01*
X126230889Y-56000976D01*
X126221360Y-56003867D01*
X126212577Y-56008561D01*
X126204879Y-56014879D01*
X126198561Y-56022577D01*
X126193867Y-56031360D01*
X126190976Y-56040889D01*
X126190000Y-56050800D01*
X126190000Y-56450000D01*
X125660000Y-56450000D01*
X125660000Y-56050800D01*
X125659024Y-56040889D01*
X125656133Y-56031360D01*
X125651439Y-56022577D01*
X125645121Y-56014879D01*
X125637423Y-56008561D01*
X125628640Y-56003867D01*
X125619111Y-56000976D01*
X125609200Y-56000000D01*
X125590800Y-56000000D01*
X125580889Y-56000976D01*
X125571360Y-56003867D01*
X125562577Y-56008561D01*
X125554879Y-56014879D01*
X125548561Y-56022577D01*
X125543867Y-56031360D01*
X125540976Y-56040889D01*
X125540000Y-56050800D01*
X125540000Y-56450000D01*
X125010000Y-56450000D01*
X125010000Y-56050800D01*
X125009024Y-56040889D01*
X125006133Y-56031360D01*
X125001439Y-56022577D01*
X124995121Y-56014879D01*
X124987423Y-56008561D01*
X124978640Y-56003867D01*
X124969111Y-56000976D01*
X124959200Y-56000000D01*
X124940800Y-56000000D01*
X124930889Y-56000976D01*
X124921360Y-56003867D01*
X124912577Y-56008561D01*
X124904879Y-56014879D01*
X124898561Y-56022577D01*
X124893867Y-56031360D01*
X124890976Y-56040889D01*
X124890000Y-56050800D01*
X124890000Y-56450000D01*
X124360000Y-56450000D01*
X124360000Y-56050800D01*
X124359024Y-56040889D01*
X124356133Y-56031360D01*
X124351439Y-56022577D01*
X124345121Y-56014879D01*
X124337423Y-56008561D01*
X124328640Y-56003867D01*
X124319111Y-56000976D01*
X124309200Y-56000000D01*
X124050000Y-56000000D01*
X124050000Y-53900000D01*
X127150000Y-53900000D01*
X127150000Y-56000000D01*
X127150000Y-56000000D01*
G37*
G36*
X112750000Y-56450000D02*
X111300000Y-56450000D01*
X111300000Y-54050000D01*
X112750000Y-54050000D01*
X112750000Y-56450000D01*
X112750000Y-56450000D01*
G37*
G36*
X116700000Y-56450000D02*
X115250000Y-56450000D01*
X115250000Y-54050000D01*
X116700000Y-54050000D01*
X116700000Y-56450000D01*
X116700000Y-56450000D01*
G37*
G36*
X108476200Y-55226200D02*
X106723800Y-55226200D01*
X106723800Y-52473800D01*
X108476200Y-52473800D01*
X108476200Y-55226200D01*
X108476200Y-55226200D01*
G37*
G36*
X55076200Y-54176200D02*
X52923800Y-54176200D01*
X52923800Y-52023800D01*
X55076200Y-52023800D01*
X55076200Y-54176200D01*
X55076200Y-54176200D01*
G37*
G36*
X59313918Y-52065158D02*
X59509770Y-52146283D01*
X59509772Y-52146284D01*
X59597905Y-52205173D01*
X59686039Y-52264062D01*
X59835938Y-52413961D01*
X59953717Y-52590230D01*
X60034842Y-52786082D01*
X60076200Y-52994004D01*
X60076200Y-53205996D01*
X60034842Y-53413918D01*
X59953717Y-53609770D01*
X59835938Y-53786039D01*
X59686039Y-53935938D01*
X59597904Y-53994828D01*
X59509772Y-54053716D01*
X59509771Y-54053717D01*
X59509770Y-54053717D01*
X59313918Y-54134842D01*
X59105996Y-54176200D01*
X58894004Y-54176200D01*
X58686082Y-54134842D01*
X58490230Y-54053717D01*
X58490229Y-54053717D01*
X58490228Y-54053716D01*
X58402095Y-53994827D01*
X58313961Y-53935938D01*
X58164062Y-53786039D01*
X58046283Y-53609770D01*
X57965158Y-53413918D01*
X57923800Y-53205996D01*
X57923800Y-52994004D01*
X57965158Y-52786082D01*
X58046283Y-52590230D01*
X58164062Y-52413961D01*
X58313961Y-52264062D01*
X58402096Y-52205172D01*
X58490228Y-52146284D01*
X58490230Y-52146283D01*
X58686082Y-52065158D01*
X58894004Y-52023800D01*
X59105996Y-52023800D01*
X59313918Y-52065158D01*
X59313918Y-52065158D01*
G37*
G36*
X121176200Y-53876200D02*
X119823800Y-53876200D01*
X119823800Y-52823800D01*
X121176200Y-52823800D01*
X121176200Y-53876200D01*
X121176200Y-53876200D01*
G37*
G36*
X123376200Y-53876200D02*
X122023800Y-53876200D01*
X122023800Y-52823800D01*
X123376200Y-52823800D01*
X123376200Y-53876200D01*
X123376200Y-53876200D01*
G37*
G36*
X124890000Y-53350000D02*
X124360000Y-53350000D01*
X124360000Y-52650000D01*
X124890000Y-52650000D01*
X124890000Y-53350000D01*
X124890000Y-53350000D01*
G37*
G36*
X126840000Y-53350000D02*
X126310000Y-53350000D01*
X126310000Y-52650000D01*
X126840000Y-52650000D01*
X126840000Y-53350000D01*
X126840000Y-53350000D01*
G37*
G36*
X126190000Y-53350000D02*
X125660000Y-53350000D01*
X125660000Y-52650000D01*
X126190000Y-52650000D01*
X126190000Y-53350000D01*
X126190000Y-53350000D01*
G37*
G36*
X125540000Y-53350000D02*
X125010000Y-53350000D01*
X125010000Y-52650000D01*
X125540000Y-52650000D01*
X125540000Y-53350000D01*
X125540000Y-53350000D01*
G37*
G36*
X113926200Y-53026200D02*
X113373800Y-53026200D01*
X113373800Y-52273800D01*
X113926200Y-52273800D01*
X113926200Y-53026200D01*
X113926200Y-53026200D01*
G37*
G36*
X114826200Y-53026200D02*
X114273800Y-53026200D01*
X114273800Y-52273800D01*
X114826200Y-52273800D01*
X114826200Y-53026200D01*
X114826200Y-53026200D01*
G37*
M02*
